<?xml version="1.0" standalone="no" ?>
<!DOCTYPE svg PUBLIC "-//W3C//DTD SVG 1.1//EN" "http://www.w3.org/Graphics/SVG/1.1/DTD/svg11.dtd">
<svg width="701px" height="180px" viewBox="0 0 701 180" style="background-color: #ffffff00" xmlns="http://www.w3.org/2000/svg" xmlns:xlink="http://www.w3.org/1999/xlink" version="1.1" >
<path stroke="none" fill="#0000ff" transform="matrix(0.05 0 0 0.05 -9 -3)" d="M 248.2,992.056 L 232.2,964.344 L 759.8,659.138 L 759.8,696.123 L 248.2,992.056 Z " />
<path stroke="none" fill="#0000ff" transform="matrix(0.05 0 0 0.05 -9 -3)" d="M 759.8,696.123 L 759.8,659.138 L 1279.4,960.276 L 1279.4,997.262 L 759.8,696.123 Z " />
<path stroke="none" fill="#0000ff" transform="matrix(0.05 0 0 0.05 -9 -3)" d="M 1279.4,997.262 L 1279.4,960.276 L 1791,664.344 L 1807,692.056 L 1279.4,997.262 Z " />
<path stroke="none" fill="#0000ff" transform="matrix(0.05 0 0 0.05 -9 -3)" d="M 4302.8,844.2 L 2076.4,844.2 L 2076.4,812.2 L 4302.8,812.2 Z " />
<path stroke="none" fill="#0000ff" transform="matrix(0.05 0 0 0.05 -9 -3)" d="M 4581.8,828.2 C 4581.8,828.2 4261.8,909.199 4261.8,909.199 C 4261.8,909.199 4301.8,863.637 4301.8,828.2 C 4301.8,792.325 4261.8,746.2 4261.8,746.2 C 4261.8,746.2 4581.8,828.2 4581.8,828.2 C 4581.8,828.2 4581.8,828.2 4581.8,828.2 " />
<path stroke="#0000ff" stroke-width="1" fill="none" transform="matrix(0.05 0 0 0.05 -9 -3)" d="M 4581.8,828.2 C 4581.8,828.2 4261.8,909.199 4261.8,909.199 C 4261.8,909.199 4301.8,863.637 4301.8,828.2 C 4301.8,792.325 4261.8,746.2 4261.8,746.2 C 4261.8,746.2 4581.8,828.2 4581.8,828.2 C 4581.8,828.2 4581.8,828.2 4581.8,828.2 " />
<path stroke="none" fill="#0000ff" transform="matrix(0.05 0 0 0.05 -9 -3)" d="M 4766.8,442.857 L 4750.8,415.142 L 5278.6,109.939 L 5278.6,146.923 L 4766.8,442.857 Z " />
<path stroke="none" fill="#0000ff" transform="matrix(0.05 0 0 0.05 -9 -3)" d="M 5278.6,146.923 L 5278.6,109.939 L 5798.2,411.077 L 5798.2,448.062 L 5278.6,146.923 Z " />
<path stroke="none" fill="#0000ff" transform="matrix(0.05 0 0 0.05 -9 -3)" d="M 5798.2,448.062 L 5798.2,411.077 L 6317.95,109.84 L 6317.97,146.835 L 5798.2,448.062 Z " />
<text x="0" y="0" stroke="none" fill="#0000ff" transform="matrix(0.05 0 0 0.05 95.31 29.62)" font-style="normal" font-weight="normal" font-size="240px" font-family="Chalkboard" >
M1: </text>
<text x="0" y="0" stroke="none" fill="#0000ff" transform="matrix(0.05 0 0 0.05 117.706 29.62)" font-style="normal" font-weight="normal" font-size="240px" font-family="Chalkboard" >
Cl</text>
<text x="0" y="0" stroke="none" fill="#0000ff" transform="matrix(0.05 0 0 0.05 128.353 33.0144)" font-style="normal" font-weight="normal" font-size="180px" font-family="Chalkboard" >
2</text>
<text x="0" y="0" stroke="none" fill="#0000ff" transform="matrix(0.05 0 0 0.05 133.475 29.62)" font-style="normal" font-weight="normal" font-size="240px" font-family="Chalkboard" >
 </text>
<text x="0" y="0" stroke="none" fill="#0000ff" transform="matrix(0.05 0 0 0.05 138.062 29.62)" font-style="normal" font-weight="normal" font-size="240px" font-family="Chalkboard" >
/Br</text>
<text x="0" y="0" stroke="none" fill="#0000ff" transform="matrix(0.05 0 0 0.05 156.162 33.0144)" font-style="normal" font-weight="normal" font-size="180px" font-family="Chalkboard" >
2</text>
<text x="0" y="0" stroke="none" fill="#0000ff" transform="matrix(0.05 0 0 0.05 161.283 29.62)" font-style="normal" font-weight="normal" font-size="240px" font-family="Chalkboard" >
 </text>
<text x="0" y="0" stroke="none" fill="#0000ff" transform="matrix(0.05 0 0 0.05 165.871 29.62)" font-style="normal" font-weight="normal" font-size="240px" font-family="Chalkboard" >
+ </text>
<text x="0" y="0" stroke="none" fill="#0000ff" transform="matrix(0.05 0 0 0.05 176.93 29.62)" font-style="normal" font-weight="normal" font-size="240px" font-family="Symbol" >
D</text>
<text x="0" y="0" stroke="none" fill="#0000ff" transform="matrix(0.05 0 0 0.05 185.596 29.62)" font-style="normal" font-weight="normal" font-size="240px" font-family="Chalkboard" >
 </text>
<text x="0" y="0" stroke="none" fill="#0000ff" transform="matrix(0.05 0 0 0.05 190.184 29.62)" font-style="normal" font-weight="normal" font-size="240px" font-family="Chalkboard" >
or </text>
<text x="0" y="0" stroke="none" fill="#0000ff" transform="matrix(0.05 0 0 0.05 206.056 29.62)" font-style="normal" font-weight="normal" font-size="240px" font-family="Chalkboard" >
hv</text>
<text x="0" y="0" stroke="none" fill="#0000ff" transform="matrix(0.05 0 0 0.05 95.31 73.37)" font-style="normal" font-weight="normal" font-size="240px" font-family="Chalkboard" >
M3: </text>
<text x="0" y="0" stroke="none" fill="#0000ff" transform="matrix(0.05 0 0 0.05 120.079 73.37)" font-style="normal" font-weight="normal" font-size="240px" font-family="Chalkboard" >
I</text>
<text x="0" y="0" stroke="none" fill="#0000ff" transform="matrix(0.05 0 0 0.05 125.396 76.7644)" font-style="normal" font-weight="normal" font-size="180px" font-family="Chalkboard" >
2</text>
<text x="0" y="0" stroke="none" fill="#0000ff" transform="matrix(0.05 0 0 0.05 130.518 73.37)" font-style="normal" font-weight="normal" font-size="240px" font-family="Chalkboard" >
, </text>
<text x="0" y="0" stroke="none" fill="#0000ff" transform="matrix(0.05 0 0 0.05 138.169 73.37)" font-style="normal" font-weight="normal" font-size="240px" font-family="Chalkboard" >
HNO</text>
<text x="0" y="0" stroke="none" fill="#0000ff" transform="matrix(0.05 0 0 0.05 162.222 76.7644)" font-style="normal" font-weight="normal" font-size="180px" font-family="Chalkboard" >
3</text>
<text x="0" y="0" stroke="none" fill="#0000ff" transform="matrix(0.05 0 0 0.05 167.343 73.37)" font-style="normal" font-weight="normal" font-size="240px" font-family="Chalkboard" >
, </text>
<text x="0" y="0" stroke="none" fill="#0000ff" transform="matrix(0.05 0 0 0.05 174.994 73.37)" font-style="normal" font-weight="normal" font-size="240px" font-family="Chalkboard" >
HIO</text>
<text x="0" y="0" stroke="none" fill="#0000ff" transform="matrix(0.05 0 0 0.05 196.488 76.7644)" font-style="normal" font-weight="normal" font-size="180px" font-family="Chalkboard" >
3</text>
<text x="0" y="0" stroke="none" fill="#0000ff" transform="matrix(0.05 0 0 0.05 328.283 23.2765)" font-style="normal" font-weight="normal" font-size="280px" font-family="Chalkboard" >
X</text>
<path stroke="none" fill="#0000ff" transform="matrix(0.05 0 0 0.05 -9 -3)" d="M 6317.97,146.835 L 6317.95,109.84 L 6717.41,341.248 L 6701.41,368.96 L 6317.97,146.835 Z " />
<path stroke="none" fill="#0000ff" transform="matrix(0.05 0 0 0.05 -9 -3)" d="M 7358,477.256 L 7342,449.544 L 7869.6,144.338 L 7869.6,181.323 L 7358,477.256 Z " />
<path stroke="none" fill="#0000ff" transform="matrix(0.05 0 0 0.05 -9 -3)" d="M 7869.6,181.323 L 7869.6,144.338 L 8389.2,445.477 L 8389.2,463.4 L 8373.83,472.458 L 7869.6,181.323 Z " />
<path stroke="none" fill="#0000ff" transform="matrix(0.05 0 0 0.05 -9 -3)" d="M 8404.57,472.458 L 8389.2,463.4 L 8389.2,445.477 L 8900.8,149.544 L 8916.8,177.256 L 8404.57,472.458 Z " />
<text x="0" y="0" stroke="none" fill="#0000ff" transform="matrix(0.05 0 0 0.05 405.873 54.9965)" font-style="normal" font-weight="normal" font-size="280px" font-family="Chalkboard" >
X</text>
<path stroke="none" fill="#0000ff" transform="matrix(0.05 0 0 0.05 -9 -3)" d="M 8373.83,472.458 L 8389.2,463.4 L 8404.57,472.458 L 8405.2,926.488 L 8373.2,926.488 L 8373.83,472.458 Z " />
<path stroke="none" fill="#0000ff" transform="matrix(0.05 0 0 0.05 -9 -3)" d="M 9314.2,477.256 L 9298.2,449.544 L 9825.8,144.339 L 9825.8,181.323 L 9314.2,477.256 Z " />
<path stroke="none" fill="#0000ff" transform="matrix(0.05 0 0 0.05 -9 -3)" d="M 9825.8,181.323 L 9825.8,144.339 L 10345.6,445.477 L 10345.6,463.4 L 10323.5,468.078 L 9825.8,181.323 Z " />
<path stroke="none" fill="#0000ff" transform="matrix(0.05 0 0 0.05 -9 -3)" d="M 10361,472.458 L 10345.6,463.4 L 10345.6,445.477 L 10857.2,149.544 L 10873.2,177.256 L 10361,472.458 Z " />
<text x="0" y="0" stroke="none" fill="#0000ff" transform="matrix(0.05 0 0 0.05 503.693 54.9965)" font-style="normal" font-weight="normal" font-size="280px" font-family="Chalkboard" >
X</text>
<path stroke="none" fill="#0000ff" transform="matrix(0.05 0 0 0.05 -9 -3)" d="M 10332.3,502.46 L 10345.6,463.4 L 10361,472.458 L 10361.6,926.488 L 10329.6,926.488 L 10332.3,502.46 Z " />
<text x="0" y="0" stroke="none" fill="#0000ff" transform="matrix(0.05 0 0 0.05 485.493 48.8465)" font-style="normal" font-weight="normal" font-size="280px" font-family="Chalkboard" >
X</text>
<path stroke="none" fill="#0000ff" transform="matrix(0.05 0 0 0.05 -9 -3)" d="M 10323.5,468.078 L 10345.6,463.4 L 10332.3,502.46 L 10094.4,818.896 L 10069,799.483 L 10323.5,468.078 Z " />
<path stroke="none" fill="#0000ff" transform="matrix(0.05 0 0 0.05 -9 -3)" d="M 4715.4,1678.46 L 4699.4,1650.74 L 5227,1345.54 L 5227,1382.52 L 4715.4,1678.46 Z " />
<path stroke="none" fill="#0000ff" transform="matrix(0.05 0 0 0.05 -9 -3)" d="M 5227,1382.52 L 5227,1345.54 L 5746.6,1646.68 L 5746.6,1664.6 L 5731.23,1673.66 L 5227,1382.52 Z " />
<path stroke="none" fill="#0000ff" transform="matrix(0.05 0 0 0.05 -9 -3)" d="M 5761.97,1673.66 L 5746.6,1664.6 L 5746.6,1646.68 L 6266.35,1345.44 L 6266.37,1382.43 L 5761.97,1673.66 Z " />
<text x="0" y="0" stroke="none" fill="#0000ff" transform="matrix(0.05 0 0 0.05 325.703 85.0565)" font-style="normal" font-weight="normal" font-size="280px" font-family="Chalkboard" >
X</text>
<path stroke="none" fill="#0000ff" transform="matrix(0.05 0 0 0.05 -9 -3)" d="M 6266.37,1382.43 L 6266.35,1345.44 L 6665.81,1576.85 L 6649.81,1604.56 L 6266.37,1382.43 Z " />
<text x="0" y="0" stroke="none" fill="#0000ff" transform="matrix(0.05 0 0 0.05 273.743 115.057)" font-style="normal" font-weight="normal" font-size="280px" font-family="Chalkboard" >
X</text>
<path stroke="none" fill="#0000ff" transform="matrix(0.05 0 0 0.05 -9 -3)" d="M 5731.23,1673.66 L 5746.6,1664.6 L 5761.97,1673.66 L 5762.6,2127.69 L 5730.6,2127.69 L 5731.23,1673.66 Z " />
<path stroke="none" fill="#0000ff" transform="matrix(0.05 0 0 0.05 -9 -3)" d="M 7306.6,2313.26 L 7290.6,2285.54 L 7802.83,1990.34 L 7818.2,1999.4 L 7818.2,2017.32 L 7306.6,2313.26 Z " />
<path stroke="none" fill="#0000ff" transform="matrix(0.05 0 0 0.05 -9 -3)" d="M 7818.2,2017.32 L 7818.2,1999.4 L 7833.57,1990.34 L 8337.8,2281.48 L 8337.8,2318.46 L 7818.2,2017.32 Z " />
<path stroke="none" fill="#0000ff" transform="matrix(0.05 0 0 0.05 -9 -3)" d="M 8337.8,2318.46 L 8337.8,2281.48 L 8857.55,1980.24 L 8857.57,2017.23 L 8337.8,2318.46 Z " />
<text x="0" y="0" stroke="none" fill="#0000ff" transform="matrix(0.05 0 0 0.05 455.263 116.797)" font-style="normal" font-weight="normal" font-size="280px" font-family="Chalkboard" >
X</text>
<path stroke="none" fill="#0000ff" transform="matrix(0.05 0 0 0.05 -9 -3)" d="M 8857.57,2017.23 L 8857.55,1980.24 L 9257.01,2211.65 L 9241.01,2239.36 L 8857.57,2017.23 Z " />
<text x="0" y="0" stroke="none" fill="#0000ff" transform="matrix(0.05 0 0 0.05 377.323 71.7965)" font-style="normal" font-weight="normal" font-size="280px" font-family="Chalkboard" >
X</text>
<path stroke="none" fill="#0000ff" transform="matrix(0.05 0 0 0.05 -9 -3)" d="M 7833.57,1990.34 L 7818.2,1999.4 L 7802.83,1990.34 L 7802.2,1538.49 L 7834.2,1538.49 L 7833.57,1990.34 Z " />
<text x="0" y="0" stroke="none" fill="#0000ff" transform="matrix(0.05 0 0 0.05 477.49 93.95)" font-style="normal" font-weight="normal" font-size="280px" font-family="Chalkboard" >
etc</text>
<text x="0" y="0" stroke="none" fill="#0000ff" transform="matrix(0.05 0 0 0.05 531.54 38.19)" font-style="normal" font-weight="normal" font-size="280px" font-family="Chalkboard" >
• </text>
<text x="0" y="0" stroke="none" fill="#0000ff" transform="matrix(0.05 0 0 0.05 543.158 38.19)" font-style="normal" font-weight="normal" font-size="280px" font-family="Chalkboard" >
 </text>
<text x="0" y="0" stroke="none" fill="#0000ff" transform="matrix(0.05 0 0 0.05 548.51 38.19)" font-style="normal" font-weight="normal" font-size="280px" font-family="Chalkboard" >
Mixture </text>
<text x="0" y="0" stroke="none" fill="#0000ff" transform="matrix(0.05 0 0 0.05 603.938 38.19)" font-style="normal" font-weight="normal" font-size="280px" font-family="Chalkboard" >
of </text>
<text x="0" y="0" stroke="none" fill="#0000ff" transform="matrix(0.05 0 0 0.05 622.161 38.19)" font-style="normal" font-weight="normal" font-size="280px" font-family="Chalkboard" >
products</text>
<text x="0" y="0" stroke="none" fill="#0000ff" transform="matrix(0.05 0 0 0.05 531.54 56.0574)" font-style="normal" font-weight="normal" font-size="280px" font-family="Chalkboard" >
• </text>
<text x="0" y="0" stroke="none" fill="#0000ff" transform="matrix(0.05 0 0 0.05 543.158 56.0574)" font-style="normal" font-weight="normal" font-size="280px" font-family="Chalkboard" >
 </text>
<text x="0" y="0" stroke="none" fill="#0000ff" transform="matrix(0.05 0 0 0.05 548.51 56.0574)" font-style="normal" font-weight="normal" font-size="280px" font-family="Chalkboard" >
Not </text>
<text x="0" y="0" stroke="none" fill="#0000ff" transform="matrix(0.05 0 0 0.05 575.551 56.0574)" font-style="normal" font-weight="normal" font-size="280px" font-family="Chalkboard" >
very </text>
<text x="0" y="0" stroke="none" fill="#0000ff" transform="matrix(0.05 0 0 0.05 609.12 56.0574)" font-style="normal" font-weight="normal" font-size="280px" font-family="Chalkboard" >
selective</text>
<path stroke="none" fill="#0000ff" transform="matrix(0.05 0 0 0.05 -9 -3)" d="M 282.6,3600.46 L 266.6,3572.74 L 778.678,3277.64 L 794.2,3286.6 L 794.2,3304.52 L 282.6,3600.46 Z " />
<path stroke="none" fill="#0000ff" transform="matrix(0.05 0 0 0.05 -9 -3)" d="M 794.2,3304.52 L 794.2,3286.6 L 809.722,3277.64 L 1313.8,3568.68 L 1313.8,3605.66 L 794.2,3304.52 Z " />
<path stroke="none" fill="#0000ff" transform="matrix(0.05 0 0 0.05 -9 -3)" d="M 1313.8,3605.66 L 1313.8,3568.68 L 1825.4,3272.74 L 1841.4,3300.46 L 1313.8,3605.66 Z " />
<path stroke="none" fill="#0000ff" transform="matrix(0.05 0 0 0.05 -9 -3)" d="M 3839.4,3332.4 L 2093.6,3332.4 L 2093.6,3300.4 L 3839.4,3300.4 Z " />
<path stroke="none" fill="#0000ff" transform="matrix(0.05 0 0 0.05 -9 -3)" d="M 4118.4,3316.4 C 4118.4,3316.4 3798.4,3397.4 3798.4,3397.4 C 3798.4,3397.4 3838.4,3351.84 3838.4,3316.4 C 3838.4,3280.53 3798.4,3234.4 3798.4,3234.4 C 3798.4,3234.4 4118.4,3316.4 4118.4,3316.4 C 4118.4,3316.4 4118.4,3316.4 4118.4,3316.4 " />
<path stroke="#0000ff" stroke-width="1" fill="none" transform="matrix(0.05 0 0 0.05 -9 -3)" d="M 4118.4,3316.4 C 4118.4,3316.4 3798.4,3397.4 3798.4,3397.4 C 3798.4,3397.4 3838.4,3351.84 3838.4,3316.4 C 3838.4,3280.53 3798.4,3234.4 3798.4,3234.4 C 3798.4,3234.4 4118.4,3316.4 4118.4,3316.4 C 4118.4,3316.4 4118.4,3316.4 4118.4,3316.4 " />
<text x="0" y="0" stroke="none" fill="#0000ff" transform="matrix(0.05 0 0 0.05 105.61 154.03)" font-style="normal" font-weight="normal" font-size="240px" font-family="Chalkboard" >
Br</text>
<text x="0" y="0" stroke="none" fill="#0000ff" transform="matrix(0.05 0 0 0.05 117.703 157.424)" font-style="normal" font-weight="normal" font-size="180px" font-family="Chalkboard" >
2</text>
<text x="0" y="0" stroke="none" fill="#0000ff" transform="matrix(0.05 0 0 0.05 122.824 154.03)" font-style="normal" font-weight="normal" font-size="240px" font-family="Chalkboard" >
, </text>
<text x="0" y="0" stroke="none" fill="#0000ff" transform="matrix(0.05 0 0 0.05 130.475 154.03)" font-style="normal" font-weight="normal" font-size="240px" font-family="Symbol" >
D</text>
<text x="0" y="0" stroke="none" fill="#0000ff" transform="matrix(0.05 0 0 0.05 139.141 154.03)" font-style="normal" font-weight="normal" font-size="240px" font-family="Chalkboard" >
 </text>
<text x="0" y="0" stroke="none" fill="#0000ff" transform="matrix(0.05 0 0 0.05 143.729 154.03)" font-style="normal" font-weight="normal" font-size="240px" font-family="Chalkboard" >
or </text>
<text x="0" y="0" stroke="none" fill="#0000ff" transform="matrix(0.05 0 0 0.05 159.601 154.03)" font-style="normal" font-weight="normal" font-size="240px" font-family="Chalkboard" >
hv</text>
<path stroke="none" fill="#0000ff" transform="matrix(0.05 0 0 0.05 -9 -3)" d="M 809.722,3277.64 L 794.2,3286.6 L 778.678,3277.64 L 778.2,2686.6 L 810.2,2686.6 L 809.722,3277.64 Z " />
<path stroke="none" fill="#0000ff" transform="matrix(0.05 0 0 0.05 -9 -3)" d="M 4521,3583.26 L 4505,3555.54 L 5017.08,3260.44 L 5032.6,3269.4 L 5032.6,3287.32 L 4521,3583.26 Z " />
<path stroke="none" fill="#0000ff" transform="matrix(0.05 0 0 0.05 -9 -3)" d="M 5032.6,3287.32 L 5032.6,3269.4 L 5056.84,3266.11 L 5552.2,3551.48 L 5552.2,3588.46 L 5032.6,3287.32 Z " />
<path stroke="none" fill="#0000ff" transform="matrix(0.05 0 0 0.05 -9 -3)" d="M 5552.2,3588.46 L 5552.2,3551.48 L 6063.8,3255.54 L 6079.8,3283.26 L 5552.2,3588.46 Z " />
<path stroke="none" fill="#0000ff" transform="matrix(0.05 0 0 0.05 -9 -3)" d="M 5046.83,3236.28 L 5032.6,3269.4 L 5017.08,3260.44 L 5016.6,2669.4 L 5048.6,2669.4 L 5046.83,3236.28 Z " />
<text x="0" y="0" stroke="none" fill="#0000ff" transform="matrix(0.05 0 0 0.05 260.049 144.287)" font-style="normal" font-weight="normal" font-size="280px" font-family="Chalkboard" >
Br</text>
<path stroke="none" fill="#0000ff" transform="matrix(0.05 0 0 0.05 -9 -3)" d="M 5056.84,3266.11 L 5032.6,3269.4 L 5046.83,3236.28 L 5347.84,2937.63 L 5370.25,2960.47 L 5056.84,3266.11 Z " />
<text x="0" y="0" stroke="none" fill="#0000ff" transform="matrix(0.05 0 0 0.05 323.05 151.44)" font-style="normal" font-weight="normal" font-size="280px" font-family="Chalkboard" >
• </text>
<text x="0" y="0" stroke="none" fill="#0000ff" transform="matrix(0.05 0 0 0.05 334.668 151.44)" font-style="normal" font-weight="normal" font-size="280px" font-family="Chalkboard" >
 </text>
<text x="0" y="0" stroke="none" fill="#0000ff" transform="matrix(0.05 0 0 0.05 340.02 151.44)" font-style="normal" font-weight="normal" font-size="280px" font-family="Chalkboard" >
Bromination </text>
<text x="0" y="0" stroke="none" fill="#0000ff" transform="matrix(0.05 0 0 0.05 418.559 151.44)" font-style="normal" font-weight="normal" font-size="280px" font-family="Chalkboard" >
can </text>
<text x="0" y="0" stroke="none" fill="#0000ff" transform="matrix(0.05 0 0 0.05 444.935 151.44)" font-style="normal" font-weight="normal" font-size="280px" font-family="Chalkboard" >
often </text>
<text x="0" y="0" stroke="none" fill="#0000ff" transform="matrix(0.05 0 0 0.05 482.851 151.44)" font-style="normal" font-weight="normal" font-size="280px" font-family="Chalkboard" >
provide </text>
<text x="0" y="0" stroke="none" fill="#0000ff" transform="matrix(0.05 0 0 0.05 533.514 151.44)" font-style="normal" font-weight="normal" font-size="280px" font-family="Chalkboard" >
a </text>
<text x="0" y="0" stroke="none" fill="#0000ff" transform="matrix(0.05 0 0 0.05 323.05 169.307)" font-style="normal" font-weight="normal" font-size="280px" font-family="Chalkboard" >
 </text>
<text x="0" y="0" stroke="none" fill="#0000ff" transform="matrix(0.05 0 0 0.05 328.402 169.307)" font-style="normal" font-weight="normal" font-size="280px" font-family="Chalkboard" >
 </text>
<text x="0" y="0" stroke="none" fill="#0000ff" transform="matrix(0.05 0 0 0.05 333.755 169.307)" font-style="normal" font-weight="normal" font-size="280px" font-family="Chalkboard" >
 </text>
<text x="0" y="0" stroke="none" fill="#0000ff" transform="matrix(0.05 0 0 0.05 339.107 169.307)" font-style="normal" font-weight="normal" font-size="280px" font-family="Chalkboard" >
reasonable </text>
<text x="0" y="0" stroke="none" fill="#0000ff" transform="matrix(0.05 0 0 0.05 411.815 169.307)" font-style="normal" font-weight="normal" font-size="280px" font-family="Chalkboard" >
amount </text>
<text x="0" y="0" stroke="none" fill="#0000ff" transform="matrix(0.05 0 0 0.05 462.864 169.307)" font-style="normal" font-weight="normal" font-size="280px" font-family="Chalkboard" >
of </text>
<text x="0" y="0" stroke="none" fill="#0000ff" transform="matrix(0.05 0 0 0.05 481.088 169.307)" font-style="normal" font-weight="normal" font-size="280px" font-family="Chalkboard" >
selectivity</text>
<text x="0" y="0" stroke="none" fill="#0000ff" transform="matrix(0.05 0 0 0.05 532.4 75.94)" font-style="normal" font-weight="normal" font-size="280px" font-family="Chalkboard" >
• </text>
<text x="0" y="0" stroke="none" fill="#0000ff" transform="matrix(0.05 0 0 0.05 544.018 75.94)" font-style="normal" font-weight="normal" font-size="280px" font-family="Chalkboard" >
 </text>
<text x="0" y="0" stroke="none" fill="#0000ff" transform="matrix(0.05 0 0 0.05 549.37 75.94)" font-style="normal" font-weight="normal" font-size="280px" font-family="Chalkboard" >
Iodination </text>
<text x="0" y="0" stroke="none" fill="#0000ff" transform="matrix(0.05 0 0 0.05 616.91 75.94)" font-style="normal" font-weight="normal" font-size="280px" font-family="Chalkboard" >
is </text>
<text x="0" y="0" stroke="none" fill="#0000ff" transform="matrix(0.05 0 0 0.05 631.792 75.94)" font-style="normal" font-weight="normal" font-size="280px" font-family="Chalkboard" >
reversible</text>
<text x="0" y="0" stroke="none" fill="#0000ff" transform="matrix(0.05 0 0 0.05 532.4 93.8074)" font-style="normal" font-weight="normal" font-size="280px" font-family="Chalkboard" >
 </text>
<text x="0" y="0" stroke="none" fill="#0000ff" transform="matrix(0.05 0 0 0.05 537.752 93.8074)" font-style="normal" font-weight="normal" font-size="280px" font-family="Chalkboard" >
 </text>
<text x="0" y="0" stroke="none" fill="#0000ff" transform="matrix(0.05 0 0 0.05 543.105 93.8074)" font-style="normal" font-weight="normal" font-size="280px" font-family="Chalkboard" >
 </text>
<text x="0" y="0" stroke="none" fill="#0000ff" transform="matrix(0.05 0 0 0.05 548.457 93.8074)" font-style="normal" font-weight="normal" font-size="280px" font-family="Chalkboard" >
and </text>
<text x="0" y="0" stroke="none" fill="#0000ff" transform="matrix(0.05 0 0 0.05 576.287 93.8074)" font-style="normal" font-weight="normal" font-size="280px" font-family="Chalkboard" >
must </text>
<text x="0" y="0" stroke="none" fill="#0000ff" transform="matrix(0.05 0 0 0.05 611.543 93.8074)" font-style="normal" font-weight="normal" font-size="280px" font-family="Chalkboard" >
be </text>
<text x="0" y="0" stroke="none" fill="#0000ff" transform="matrix(0.05 0 0 0.05 632.086 93.8074)" font-style="normal" font-weight="normal" font-size="280px" font-family="Chalkboard" >
carried </text>
<text x="0" y="0" stroke="none" fill="#0000ff" transform="matrix(0.05 0 0 0.05 682.888 93.8074)" font-style="normal" font-weight="normal" font-size="280px" font-family="Chalkboard" >
in </text>
<text x="0" y="0" stroke="none" fill="#0000ff" transform="matrix(0.05 0 0 0.05 532.4 111.675)" font-style="normal" font-weight="normal" font-size="280px" font-family="Chalkboard" >
 </text>
<text x="0" y="0" stroke="none" fill="#0000ff" transform="matrix(0.05 0 0 0.05 537.752 111.675)" font-style="normal" font-weight="normal" font-size="280px" font-family="Chalkboard" >
 </text>
<text x="0" y="0" stroke="none" fill="#0000ff" transform="matrix(0.05 0 0 0.05 543.105 111.675)" font-style="normal" font-weight="normal" font-size="280px" font-family="Chalkboard" >
 </text>
<text x="0" y="0" stroke="none" fill="#0000ff" transform="matrix(0.05 0 0 0.05 548.457 111.675)" font-style="normal" font-weight="normal" font-size="280px" font-family="Chalkboard" >
the </text>
<text x="0" y="0" stroke="none" fill="#0000ff" transform="matrix(0.05 0 0 0.05 575.189 111.675)" font-style="normal" font-weight="normal" font-size="280px" font-family="Chalkboard" >
presence </text>
<text x="0" y="0" stroke="none" fill="#0000ff" transform="matrix(0.05 0 0 0.05 635.598 111.675)" font-style="normal" font-weight="normal" font-size="280px" font-family="Chalkboard" >
of </text>
<text x="0" y="0" stroke="none" fill="#0000ff" transform="matrix(0.05 0 0 0.05 653.821 111.675)" font-style="normal" font-weight="normal" font-size="280px" font-family="Chalkboard" >
an </text>
<text x="0" y="0" stroke="none" fill="#0000ff" transform="matrix(0.05 0 0 0.05 673.823 111.675)" font-style="normal" font-weight="normal" font-size="280px" font-family="Chalkboard" >
O.A.</text>
<text x="0" y="0" stroke="none" fill="#0000ff" transform="matrix(0.05 0 0 0.05 95.31 54.5)" font-style="normal" font-weight="normal" font-size="240px" font-family="Chalkboard" >
M2: </text>
<text x="0" y="0" stroke="none" fill="#0000ff" transform="matrix(0.05 0 0 0.05 120.079 54.5)" font-style="normal" font-weight="normal" font-size="240px" font-family="Chalkboard" >
SO</text>
<text x="0" y="0" stroke="none" fill="#0000ff" transform="matrix(0.05 0 0 0.05 135.845 57.8944)" font-style="normal" font-weight="normal" font-size="180px" font-family="Chalkboard" >
2</text>
<text x="0" y="0" stroke="none" fill="#0000ff" transform="matrix(0.05 0 0 0.05 140.966 54.5)" font-style="normal" font-weight="normal" font-size="240px" font-family="Chalkboard" >
Cl</text>
<text x="0" y="0" stroke="none" fill="#0000ff" transform="matrix(0.05 0 0 0.05 151.614 57.8944)" font-style="normal" font-weight="normal" font-size="180px" font-family="Chalkboard" >
2</text>
<text x="0" y="0" stroke="none" fill="#0000ff" transform="matrix(0.05 0 0 0.05 156.735 54.5)" font-style="normal" font-weight="normal" font-size="240px" font-family="Chalkboard" >
 </text>
<text x="0" y="0" stroke="none" fill="#0000ff" transform="matrix(0.05 0 0 0.05 161.323 54.5)" font-style="normal" font-weight="normal" font-size="240px" font-family="Chalkboard" >
+ </text>
<text x="0" y="0" stroke="none" fill="#0000ff" transform="matrix(0.05 0 0 0.05 172.382 54.5)" font-style="normal" font-weight="normal" font-size="240px" font-family="Symbol" >
D</text>
<text x="0" y="0" stroke="none" fill="#0000ff" transform="matrix(0.05 0 0 0.05 181.048 54.5)" font-style="normal" font-weight="normal" font-size="240px" font-family="Chalkboard" >
 </text>
<text x="0" y="0" stroke="none" fill="#0000ff" transform="matrix(0.05 0 0 0.05 185.636 54.5)" font-style="normal" font-weight="normal" font-size="240px" font-family="Chalkboard" >
or </text>
<text x="0" y="0" stroke="none" fill="#0000ff" transform="matrix(0.05 0 0 0.05 201.508 54.5)" font-style="normal" font-weight="normal" font-size="240px" font-family="Chalkboard" >
hv</text>
</svg>
