<?xml version="1.0" standalone="no" ?>
<!DOCTYPE svg PUBLIC "-//W3C//DTD SVG 1.1//EN" "http://www.w3.org/Graphics/SVG/1.1/DTD/svg11.dtd">
<svg width="356px" height="375px" viewBox="0 0 356 375" style="background-color: #ffffff00" xmlns="http://www.w3.org/2000/svg" xmlns:xlink="http://www.w3.org/1999/xlink" version="1.1" >
<text x="0" y="0" stroke="none" fill="#0000ff" transform="matrix(0.05 0 0 0.05 3.43999 22.88)" font-style="normal" font-weight="normal" font-size="280px" font-family="Chalkboard" >
CH</text>
<text x="0" y="0" stroke="none" fill="#0000ff" transform="matrix(0.05 0 0 0.05 20.3637 26.8401)" font-style="normal" font-weight="normal" font-size="210px" font-family="Chalkboard" >
4</text>
<text x="0" y="0" stroke="none" fill="#0000ff" transform="matrix(0.05 0 0 0.05 26.3389 22.88)" font-style="normal" font-weight="normal" font-size="280px" font-family="Chalkboard" >
 </text>
<text x="0" y="0" stroke="none" fill="#0000ff" transform="matrix(0.05 0 0 0.05 31.6914 22.88)" font-style="normal" font-weight="normal" font-size="280px" font-family="Chalkboard" >
 </text>
<text x="0" y="0" stroke="none" fill="#0000ff" transform="matrix(0.05 0 0 0.05 37.0439 22.88)" font-style="normal" font-weight="normal" font-size="280px" font-family="Chalkboard" >
+ </text>
<text x="0" y="0" stroke="none" fill="#0000ff" transform="matrix(0.05 0 0 0.05 49.9455 22.88)" font-style="normal" font-weight="normal" font-size="280px" font-family="Chalkboard" >
 </text>
<text x="0" y="0" stroke="none" fill="#0000ff" transform="matrix(0.05 0 0 0.05 55.298 22.88)" font-style="normal" font-weight="normal" font-size="280px" font-family="Chalkboard" >
O</text>
<text x="0" y="0" stroke="none" fill="#0000ff" transform="matrix(0.05 0 0 0.05 65.4615 26.8401)" font-style="normal" font-weight="normal" font-size="210px" font-family="Chalkboard" >
2</text>
<path stroke="none" fill="#0000ff" transform="matrix(0.05 0 0 0.05 -12 -2)" d="M 4440,483.8 L 1990.6,483.8 L 1990.6,451.8 L 4440,451.8 Z " />
<path stroke="none" fill="#0000ff" transform="matrix(0.05 0 0 0.05 -12 -2)" d="M 4719,467.8 C 4719,467.8 4399,548.8 4399,548.8 C 4399,548.8 4439,503.237 4439,467.8 C 4439,431.925 4399,385.8 4399,385.8 C 4399,385.8 4719,467.8 4719,467.8 C 4719,467.8 4719,467.8 4719,467.8 " />
<path stroke="#0000ff" stroke-width="1" fill="none" transform="matrix(0.05 0 0 0.05 -12 -2)" d="M 4719,467.8 C 4719,467.8 4399,548.8 4399,548.8 C 4399,548.8 4439,503.237 4439,467.8 C 4439,431.925 4399,385.8 4399,385.8 C 4399,385.8 4719,467.8 4719,467.8 C 4719,467.8 4719,467.8 4719,467.8 " />
<text x="0" y="0" stroke="none" fill="#0000ff" transform="matrix(0.05 0 0 0.05 89.73 15.17)" font-style="normal" font-weight="normal" font-size="240px" font-family="Chalkboard" >
Cu </text>
<text x="0" y="0" stroke="none" fill="#0000ff" transform="matrix(0.05 0 0 0.05 107.697 15.17)" font-style="normal" font-weight="normal" font-size="240px" font-family="Chalkboard" >
+ </text>
<text x="0" y="0" stroke="none" fill="#0000ff" transform="matrix(0.05 0 0 0.05 118.755 15.17)" font-style="normal" font-weight="normal" font-size="240px" font-family="Chalkboard" >
250</text>
<text x="0" y="0" stroke="none" fill="#0000ff" transform="matrix(0.05 0 0 0.05 139.242 11.033)" font-style="normal" font-weight="normal" font-size="180px" font-family="Chalkboard" >
o</text>
<text x="0" y="0" stroke="none" fill="#0000ff" transform="matrix(0.05 0 0 0.05 143.627 15.17)" font-style="normal" font-weight="normal" font-size="240px" font-family="Chalkboard" >
C </text>
<text x="0" y="0" stroke="none" fill="#0000ff" transform="matrix(0.05 0 0 0.05 155.256 15.17)" font-style="normal" font-weight="normal" font-size="240px" font-family="Chalkboard" >
+ </text>
<text x="0" y="0" stroke="none" fill="#0000ff" transform="matrix(0.05 0 0 0.05 166.315 15.17)" font-style="normal" font-weight="normal" font-size="240px" font-family="Chalkboard" >
100atm</text>
<text x="0" y="0" stroke="none" fill="#0000ff" transform="matrix(0.05 0 0 0.05 236.823 23.7365)" font-style="normal" font-weight="normal" font-size="280px" font-family="Chalkboard" >
CH</text>
<text x="0" y="0" stroke="none" fill="#0000ff" transform="matrix(0.05 0 0 0.05 253.747 27.6967)" font-style="normal" font-weight="normal" font-size="210px" font-family="Chalkboard" >
3</text>
<text x="0" y="0" stroke="none" fill="#0000ff" transform="matrix(0.05 0 0 0.05 259.722 23.7365)" font-style="normal" font-weight="normal" font-size="280px" font-family="Chalkboard" >
OH</text>
<text x="0" y="0" stroke="none" fill="#0000ff" transform="matrix(0.05 0 0 0.05 288.3 23.74)" font-style="normal" font-weight="normal" font-size="280px" font-family="Chalkboard" >
(methanol)</text>
<text x="0" y="0" stroke="none" fill="#0000ff" transform="matrix(0.05 0 0 0.05 1.73 65.78)" font-style="normal" font-weight="normal" font-size="280px" font-family="Chalkboard" >
CH</text>
<text x="0" y="0" stroke="none" fill="#0000ff" transform="matrix(0.05 0 0 0.05 18.6538 69.7401)" font-style="normal" font-weight="normal" font-size="210px" font-family="Chalkboard" >
4</text>
<text x="0" y="0" stroke="none" fill="#0000ff" transform="matrix(0.05 0 0 0.05 24.6289 65.78)" font-style="normal" font-weight="normal" font-size="280px" font-family="Chalkboard" >
 </text>
<text x="0" y="0" stroke="none" fill="#0000ff" transform="matrix(0.05 0 0 0.05 29.9814 65.78)" font-style="normal" font-weight="normal" font-size="280px" font-family="Chalkboard" >
 </text>
<text x="0" y="0" stroke="none" fill="#0000ff" transform="matrix(0.05 0 0 0.05 35.3339 65.78)" font-style="normal" font-weight="normal" font-size="280px" font-family="Chalkboard" >
+ </text>
<text x="0" y="0" stroke="none" fill="#0000ff" transform="matrix(0.05 0 0 0.05 48.2355 65.78)" font-style="normal" font-weight="normal" font-size="280px" font-family="Chalkboard" >
 </text>
<text x="0" y="0" stroke="none" fill="#0000ff" transform="matrix(0.05 0 0 0.05 53.588 65.78)" font-style="normal" font-weight="normal" font-size="280px" font-family="Chalkboard" >
O</text>
<text x="0" y="0" stroke="none" fill="#0000ff" transform="matrix(0.05 0 0 0.05 63.7515 69.7401)" font-style="normal" font-weight="normal" font-size="210px" font-family="Chalkboard" >
2</text>
<path stroke="none" fill="#0000ff" transform="matrix(0.05 0 0 0.05 -12 -2)" d="M 3256,1341.8 L 1956.2,1341.8 L 1956.2,1309.8 L 3256,1309.8 Z " />
<path stroke="none" fill="#0000ff" transform="matrix(0.05 0 0 0.05 -12 -2)" d="M 3535,1325.8 C 3535,1325.8 3215,1406.8 3215,1406.8 C 3215,1406.8 3255,1361.24 3255,1325.8 C 3255,1289.93 3215,1243.8 3215,1243.8 C 3215,1243.8 3535,1325.8 3535,1325.8 C 3535,1325.8 3535,1325.8 3535,1325.8 " />
<path stroke="#0000ff" stroke-width="1" fill="none" transform="matrix(0.05 0 0 0.05 -12 -2)" d="M 3535,1325.8 C 3535,1325.8 3215,1406.8 3215,1406.8 C 3215,1406.8 3255,1361.24 3255,1325.8 C 3255,1289.93 3215,1243.8 3215,1243.8 C 3215,1243.8 3535,1325.8 3535,1325.8 C 3535,1325.8 3535,1325.8 3535,1325.8 " />
<text x="0" y="0" stroke="none" fill="#0000ff" transform="matrix(0.05 0 0 0.05 88.02 58.07)" font-style="normal" font-weight="normal" font-size="240px" font-family="Chalkboard" >
Mo</text>
<text x="0" y="0" stroke="none" fill="#0000ff" transform="matrix(0.05 0 0 0.05 104.13 61.4644)" font-style="normal" font-weight="normal" font-size="180px" font-family="Chalkboard" >
2</text>
<text x="0" y="0" stroke="none" fill="#0000ff" transform="matrix(0.05 0 0 0.05 109.252 58.07)" font-style="normal" font-weight="normal" font-size="240px" font-family="Chalkboard" >
O</text>
<text x="0" y="0" stroke="none" fill="#0000ff" transform="matrix(0.05 0 0 0.05 117.964 61.4644)" font-style="normal" font-weight="normal" font-size="180px" font-family="Chalkboard" >
3</text>
<text x="0" y="0" stroke="none" fill="#0000ff" transform="matrix(0.05 0 0 0.05 123.085 58.07)" font-style="normal" font-weight="normal" font-size="240px" font-family="Chalkboard" >
 </text>
<text x="0" y="0" stroke="none" fill="#0000ff" transform="matrix(0.05 0 0 0.05 127.673 58.07)" font-style="normal" font-weight="normal" font-size="240px" font-family="Chalkboard" >
+ </text>
<text x="0" y="0" stroke="none" fill="#0000ff" transform="matrix(0.05 0 0 0.05 138.732 58.07)" font-style="normal" font-weight="normal" font-size="240px" font-family="Symbol" >
D</text>
<text x="0" y="0" stroke="none" fill="#0000ff" transform="matrix(0.05 0 0 0.05 256.55 70.07)" font-style="normal" font-weight="normal" font-size="280px" font-family="Chalkboard" >
(methanal)</text>
<text x="0" y="0" stroke="none" fill="#0000ff" transform="matrix(0.05 0 0 0.05 177.065 90.4265)" font-style="normal" font-weight="normal" font-size="280px" font-family="Chalkboard" >
H</text>
<path stroke="none" fill="#0000ff" transform="matrix(0.05 0 0 0.05 -12 -2)" d="M 3999.19,1707.1 L 3985.37,1678.24 L 4409.41,1474.56 L 4409.8,1509.89 L 3999.19,1707.1 Z " />
<text x="0" y="0" stroke="none" fill="#0000ff" transform="matrix(0.05 0 0 0.05 231.455 89.8265)" font-style="normal" font-weight="normal" font-size="280px" font-family="Chalkboard" >
H</text>
<path stroke="none" fill="#0000ff" transform="matrix(0.05 0 0 0.05 -12 -2)" d="M 4409.8,1509.89 L 4409.41,1474.56 L 4833.14,1666.79 L 4819.95,1695.94 L 4409.8,1509.89 Z " />
<text x="0" y="0" stroke="none" fill="#0000ff" transform="matrix(0.05 0 0 0.05 203.428 47.4665)" font-style="normal" font-weight="normal" font-size="280px" font-family="Chalkboard" >
O</text>
<path stroke="none" fill="#0000ff" transform="matrix(0.05 0 0 0.05 -12 -2)" d="M 4380.58,1514.38 L 4348.58,1514.35 L 4349.06,1036.67 L 4381.06,1036.7 L 4380.58,1514.38 Z " />
<path stroke="none" fill="#0000ff" transform="matrix(0.05 0 0 0.05 -12 -2)" d="M 4470.58,1513.16 L 4438.58,1513.13 L 4439.06,1036.76 L 4471.06,1036.79 L 4470.58,1513.16 Z " />
<text x="0" y="0" stroke="none" fill="#0000ff" transform="matrix(0.05 0 0 0.05 79.81 175.6)" font-style="normal" font-weight="normal" font-size="280px" font-family="Chalkboard" >
+ </text>
<text x="0" y="0" stroke="none" fill="#0000ff" transform="matrix(0.05 0 0 0.05 92.7117 175.6)" font-style="normal" font-weight="normal" font-size="280px" font-family="Chalkboard" >
 </text>
<text x="0" y="0" stroke="none" fill="#0000ff" transform="matrix(0.05 0 0 0.05 98.0641 175.6)" font-style="normal" font-weight="normal" font-size="280px" font-family="Chalkboard" >
O</text>
<text x="0" y="0" stroke="none" fill="#0000ff" transform="matrix(0.05 0 0 0.05 108.228 179.56)" font-style="normal" font-weight="normal" font-size="210px" font-family="Chalkboard" >
2</text>
<path stroke="none" fill="#0000ff" transform="matrix(0.05 0 0 0.05 -12 -2)" d="M 4800.4,3538.2 L 2797,3538.2 L 2797,3506.2 L 4800.4,3506.2 Z " />
<path stroke="none" fill="#0000ff" transform="matrix(0.05 0 0 0.05 -12 -2)" d="M 5079.4,3522.2 C 5079.4,3522.2 4759.4,3603.2 4759.4,3603.2 C 4759.4,3603.2 4799.4,3557.64 4799.4,3522.2 C 4799.4,3486.32 4759.4,3440.2 4759.4,3440.2 C 4759.4,3440.2 5079.4,3522.2 5079.4,3522.2 C 5079.4,3522.2 5079.4,3522.2 5079.4,3522.2 " />
<path stroke="#0000ff" stroke-width="1" fill="none" transform="matrix(0.05 0 0 0.05 -12 -2)" d="M 5079.4,3522.2 C 5079.4,3522.2 4759.4,3603.2 4759.4,3603.2 C 4759.4,3603.2 4799.4,3557.64 4799.4,3522.2 C 4799.4,3486.32 4759.4,3440.2 4759.4,3440.2 C 4759.4,3440.2 5079.4,3522.2 5079.4,3522.2 C 5079.4,3522.2 5079.4,3522.2 5079.4,3522.2 " />
<text x="0" y="0" stroke="none" fill="#0000ff" transform="matrix(0.05 0 0 0.05 257.008 200.247)" font-style="normal" font-weight="normal" font-size="280px" font-family="Chalkboard" >
H</text>
<text x="0" y="0" stroke="none" fill="#0000ff" transform="matrix(0.05 0 0 0.05 265.718 204.207)" font-style="normal" font-weight="normal" font-size="210px" font-family="Chalkboard" >
3</text>
<text x="0" y="0" stroke="none" fill="#0000ff" transform="matrix(0.05 0 0 0.05 271.693 200.247)" font-style="normal" font-weight="normal" font-size="280px" font-family="Chalkboard" >
C</text>
<path stroke="none" fill="#0000ff" transform="matrix(0.05 0 0 0.05 -12 -2)" d="M 5883.78,3904.99 L 5869.97,3876.12 L 6296.99,3671.18 L 6297.38,3706.5 L 5883.78,3904.99 Z " />
<text x="0" y="0" stroke="none" fill="#0000ff" transform="matrix(0.05 0 0 0.05 325.108 199.647)" font-style="normal" font-weight="normal" font-size="280px" font-family="Chalkboard" >
OH</text>
<path stroke="none" fill="#0000ff" transform="matrix(0.05 0 0 0.05 -12 -2)" d="M 6297.38,3706.5 L 6296.99,3671.18 L 6735.28,3869.8 L 6722.1,3898.96 L 6297.38,3706.5 Z " />
<text x="0" y="0" stroke="none" fill="#0000ff" transform="matrix(0.05 0 0 0.05 297.808 157.297)" font-style="normal" font-weight="normal" font-size="280px" font-family="Chalkboard" >
O</text>
<path stroke="none" fill="#0000ff" transform="matrix(0.05 0 0 0.05 -12 -2)" d="M 6268.18,3710.96 L 6236.18,3710.93 L 6236.66,3233.27 L 6268.66,3233.3 L 6268.18,3710.96 Z " />
<path stroke="none" fill="#0000ff" transform="matrix(0.05 0 0 0.05 -12 -2)" d="M 6358.18,3709.74 L 6326.18,3709.71 L 6326.66,3233.36 L 6358.66,3233.39 L 6358.18,3709.74 Z " />
<text x="0" y="0" stroke="none" fill="#0000ff" transform="matrix(0.05 0 0 0.05 47.3828 175.277)" font-style="normal" font-weight="normal" font-size="280px" font-family="Chalkboard" >
CH</text>
<text x="0" y="0" stroke="none" fill="#0000ff" transform="matrix(0.05 0 0 0.05 64.3066 179.237)" font-style="normal" font-weight="normal" font-size="210px" font-family="Chalkboard" >
3</text>
<text x="0" y="0" stroke="none" fill="#0000ff" transform="matrix(0.05 0 0 0.05 2.69828 175.277)" font-style="normal" font-weight="normal" font-size="280px" font-family="Chalkboard" >
H</text>
<text x="0" y="0" stroke="none" fill="#0000ff" transform="matrix(0.05 0 0 0.05 11.4077 179.237)" font-style="normal" font-weight="normal" font-size="210px" font-family="Chalkboard" >
3</text>
<text x="0" y="0" stroke="none" fill="#0000ff" transform="matrix(0.05 0 0 0.05 17.3828 175.277)" font-style="normal" font-weight="normal" font-size="280px" font-family="Chalkboard" >
C</text>
<path stroke="none" fill="#0000ff" transform="matrix(0.05 0 0 0.05 -12 -2)" d="M 1159.65,3433 L 1159.65,3465 L 782.507,3465 L 782.507,3433 L 1159.65,3433 Z " />
<text x="0" y="0" stroke="none" fill="#0000ff" transform="matrix(0.05 0 0 0.05 129.77 167.897)" font-style="normal" font-weight="normal" font-size="240px" font-family="Chalkboard" >
(CH</text>
<text x="0" y="0" stroke="none" fill="#0000ff" transform="matrix(0.05 0 0 0.05 147.472 171.291)" font-style="normal" font-weight="normal" font-size="180px" font-family="Chalkboard" >
3</text>
<text x="0" y="0" stroke="none" fill="#0000ff" transform="matrix(0.05 0 0 0.05 152.594 167.897)" font-style="normal" font-weight="normal" font-size="240px" font-family="Chalkboard" >
COO)</text>
<text x="0" y="0" stroke="none" fill="#0000ff" transform="matrix(0.05 0 0 0.05 180.015 171.291)" font-style="normal" font-weight="normal" font-size="180px" font-family="Chalkboard" >
2</text>
<text x="0" y="0" stroke="none" fill="#0000ff" transform="matrix(0.05 0 0 0.05 185.663 167.897)" font-style="normal" font-weight="normal" font-size="240px" font-family="Chalkboard" >
Mn </text>
<text x="0" y="0" stroke="none" fill="#0000ff" transform="matrix(0.05 0 0 0.05 206.309 167.897)" font-style="normal" font-weight="normal" font-size="240px" font-family="Chalkboard" >
+ </text>
<text x="0" y="0" stroke="none" fill="#0000ff" transform="matrix(0.05 0 0 0.05 217.367 167.897)" font-style="normal" font-weight="normal" font-size="240px" font-family="Symbol" >
D</text>
<path stroke="none" fill="#0000ff" transform="matrix(0.05 0 0 0.05 -12 -2)" d="M 838.272,4882.71 L 823.6,4907.6 L 808.078,4898.64 L 807.6,4307.6 L 839.6,4307.6 L 838.272,4882.71 Z " />
<path stroke="none" fill="#0000ff" transform="matrix(0.05 0 0 0.05 -12 -2)" d="M 823.6,4925.52 L 823.6,4907.6 L 852.489,4907.34 L 1351.2,5193.74 L 1335.2,5221.46 L 823.6,4925.52 Z " />
<path stroke="none" fill="#0000ff" transform="matrix(0.05 0 0 0.05 -12 -2)" d="M 808.078,4898.64 L 823.6,4907.6 L 823.6,4925.52 L 312,5221.46 L 296,5193.74 L 808.078,4898.64 Z " />
<text x="0" y="0" stroke="none" fill="#0000ff" transform="matrix(0.05 0 0 0.05 50.8053 233.207)" font-style="normal" font-weight="normal" font-size="280px" font-family="Chalkboard" >
H</text>
<path stroke="none" fill="#0000ff" transform="matrix(0.05 0 0 0.05 -12 -2)" d="M 852.489,4907.34 L 823.6,4907.6 L 838.272,4882.71 L 1206.55,4668.02 L 1222.55,4695.73 L 852.489,4907.34 Z " />
<path stroke="none" fill="#0000ff" transform="matrix(0.05 0 0 0.05 -12 -2)" d="M 2964.2,4928.2 L 1939,4928.2 L 1939,4896.2 L 2964.2,4896.2 Z " />
<path stroke="none" fill="#0000ff" transform="matrix(0.05 0 0 0.05 -12 -2)" d="M 3243.2,4912.2 C 3243.2,4912.2 2923.2,4993.2 2923.2,4993.2 C 2923.2,4993.2 2963.2,4947.64 2963.2,4912.2 C 2963.2,4876.32 2923.2,4830.2 2923.2,4830.2 C 2923.2,4830.2 3243.2,4912.2 3243.2,4912.2 C 3243.2,4912.2 3243.2,4912.2 3243.2,4912.2 " />
<path stroke="#0000ff" stroke-width="1" fill="none" transform="matrix(0.05 0 0 0.05 -12 -2)" d="M 3243.2,4912.2 C 3243.2,4912.2 2923.2,4993.2 2923.2,4993.2 C 2923.2,4993.2 2963.2,4947.64 2963.2,4912.2 C 2963.2,4876.32 2923.2,4830.2 2923.2,4830.2 C 2923.2,4830.2 3243.2,4912.2 3243.2,4912.2 C 3243.2,4912.2 3243.2,4912.2 3243.2,4912.2 " />
<text x="0" y="0" stroke="none" fill="#0000ff" transform="matrix(0.05 0 0 0.05 92.3028 235.677)" font-style="normal" font-weight="normal" font-size="240px" font-family="Chalkboard" >
KMnO</text>
<text x="0" y="0" stroke="none" fill="#0000ff" transform="matrix(0.05 0 0 0.05 124.086 239.071)" font-style="normal" font-weight="normal" font-size="180px" font-family="Chalkboard" >
4</text>
<path stroke="none" fill="#0000ff" transform="matrix(0.05 0 0 0.05 -12 -2)" d="M 4012.87,4899.88 L 3998.2,4924.8 L 3982.68,4915.84 L 3982.2,4324.8 L 4014.2,4324.8 L 4012.87,4899.88 Z " />
<path stroke="none" fill="#0000ff" transform="matrix(0.05 0 0 0.05 -12 -2)" d="M 3998.2,4942.72 L 3998.2,4924.8 L 4027.12,4924.56 L 4525.8,5210.94 L 4509.8,5238.66 L 3998.2,4942.72 Z " />
<path stroke="none" fill="#0000ff" transform="matrix(0.05 0 0 0.05 -12 -2)" d="M 3982.68,4915.84 L 3998.2,4924.8 L 3998.2,4942.72 L 3486.6,5238.66 L 3470.6,5210.94 L 3982.68,4915.84 Z " />
<text x="0" y="0" stroke="none" fill="#0000ff" transform="matrix(0.05 0 0 0.05 208.808 234.067)" font-style="normal" font-weight="normal" font-size="280px" font-family="Chalkboard" >
OH</text>
<path stroke="none" fill="#0000ff" transform="matrix(0.05 0 0 0.05 -12 -2)" d="M 4027.12,4924.56 L 3998.2,4924.8 L 4012.87,4899.88 L 4388.21,4681.15 L 4404.21,4708.86 L 4027.12,4924.56 Z " />
<path stroke="none" fill="#0000ff" transform="matrix(0.05 0 0 0.05 -12 -2)" d="M 2878.6,6610 L 1596,6610 L 1596,6578 L 2878.6,6578 Z " />
<path stroke="none" fill="#0000ff" transform="matrix(0.05 0 0 0.05 -12 -2)" d="M 3157.6,6594 C 3157.6,6594 2837.6,6675 2837.6,6675 C 2837.6,6675 2877.6,6629.44 2877.6,6594 C 2877.6,6558.13 2837.6,6512 2837.6,6512 C 2837.6,6512 3157.6,6594 3157.6,6594 C 3157.6,6594 3157.6,6594 3157.6,6594 " />
<path stroke="#0000ff" stroke-width="1" fill="none" transform="matrix(0.05 0 0 0.05 -12 -2)" d="M 3157.6,6594 C 3157.6,6594 2837.6,6675 2837.6,6675 C 2837.6,6675 2877.6,6629.44 2877.6,6594 C 2877.6,6558.13 2837.6,6512 2837.6,6512 C 2837.6,6512 3157.6,6594 3157.6,6594 C 3157.6,6594 3157.6,6594 3157.6,6594 " />
<text x="0" y="0" stroke="none" fill="#0000ff" transform="matrix(0.05 0 0 0.05 157.893 327.467)" font-style="normal" font-weight="normal" font-size="280px" font-family="Chalkboard" >
CO</text>
<text x="0" y="0" stroke="none" fill="#0000ff" transform="matrix(0.05 0 0 0.05 176.271 331.427)" font-style="normal" font-weight="normal" font-size="210px" font-family="Chalkboard" >
2</text>
<text x="0" y="0" stroke="none" fill="#0000ff" transform="matrix(0.05 0 0 0.05 182.246 327.467)" font-style="normal" font-weight="normal" font-size="280px" font-family="Chalkboard" >
 </text>
<text x="0" y="0" stroke="none" fill="#0000ff" transform="matrix(0.05 0 0 0.05 187.598 327.467)" font-style="normal" font-weight="normal" font-size="280px" font-family="Chalkboard" >
 </text>
<text x="0" y="0" stroke="none" fill="#0000ff" transform="matrix(0.05 0 0 0.05 192.951 327.467)" font-style="normal" font-weight="normal" font-size="280px" font-family="Chalkboard" >
+ </text>
<text x="0" y="0" stroke="none" fill="#0000ff" transform="matrix(0.05 0 0 0.05 205.852 327.467)" font-style="normal" font-weight="normal" font-size="280px" font-family="Chalkboard" >
 </text>
<text x="0" y="0" stroke="none" fill="#0000ff" transform="matrix(0.05 0 0 0.05 211.205 327.467)" font-style="normal" font-weight="normal" font-size="280px" font-family="Chalkboard" >
H</text>
<text x="0" y="0" stroke="none" fill="#0000ff" transform="matrix(0.05 0 0 0.05 219.914 331.427)" font-style="normal" font-weight="normal" font-size="210px" font-family="Chalkboard" >
2</text>
<path stroke="none" fill="#0000ff" transform="matrix(0.05 0 0 0.05 -12 -2)" d="M 2861.4,7399.4 L 1561.6,7399.4 L 1561.6,7367.4 L 2861.4,7367.4 Z " />
<path stroke="none" fill="#0000ff" transform="matrix(0.05 0 0 0.05 -12 -2)" d="M 3140.4,7383.4 C 3140.4,7383.4 2820.4,7464.4 2820.4,7464.4 C 2820.4,7464.4 2860.4,7418.84 2860.4,7383.4 C 2860.4,7347.53 2820.4,7301.4 2820.4,7301.4 C 2820.4,7301.4 3140.4,7383.4 3140.4,7383.4 C 3140.4,7383.4 3140.4,7383.4 3140.4,7383.4 " />
<path stroke="#0000ff" stroke-width="1" fill="none" transform="matrix(0.05 0 0 0.05 -12 -2)" d="M 3140.4,7383.4 C 3140.4,7383.4 2820.4,7464.4 2820.4,7464.4 C 2820.4,7464.4 2860.4,7418.84 2860.4,7383.4 C 2860.4,7347.53 2820.4,7301.4 2820.4,7301.4 C 2820.4,7301.4 3140.4,7383.4 3140.4,7383.4 C 3140.4,7383.4 3140.4,7383.4 3140.4,7383.4 " />
<text x="0" y="0" stroke="none" fill="#0000ff" transform="matrix(0.05 0 0 0.05 68.29 360.95)" font-style="normal" font-weight="normal" font-size="240px" font-family="Chalkboard" >
NH</text>
<text x="0" y="0" stroke="none" fill="#0000ff" transform="matrix(0.05 0 0 0.05 83.6314 364.344)" font-style="normal" font-weight="normal" font-size="180px" font-family="Chalkboard" >
3</text>
<text x="0" y="0" stroke="none" fill="#0000ff" transform="matrix(0.05 0 0 0.05 88.753 360.95)" font-style="normal" font-weight="normal" font-size="240px" font-family="Chalkboard" >
 </text>
<text x="0" y="0" stroke="none" fill="#0000ff" transform="matrix(0.05 0 0 0.05 93.3408 360.95)" font-style="normal" font-weight="normal" font-size="240px" font-family="Chalkboard" >
/Al</text>
<text x="0" y="0" stroke="none" fill="#0000ff" transform="matrix(0.05 0 0 0.05 109.862 364.344)" font-style="normal" font-weight="normal" font-size="180px" font-family="Chalkboard" >
2</text>
<text x="0" y="0" stroke="none" fill="#0000ff" transform="matrix(0.05 0 0 0.05 114.984 360.95)" font-style="normal" font-weight="normal" font-size="240px" font-family="Chalkboard" >
O</text>
<text x="0" y="0" stroke="none" fill="#0000ff" transform="matrix(0.05 0 0 0.05 123.696 364.344)" font-style="normal" font-weight="normal" font-size="180px" font-family="Chalkboard" >
3</text>
<text x="0" y="0" stroke="none" fill="#0000ff" transform="matrix(0.05 0 0 0.05 70.01 321.48)" font-style="normal" font-weight="normal" font-size="240px" font-family="Chalkboard" >
Ni </text>
<text x="0" y="0" stroke="none" fill="#0000ff" transform="matrix(0.05 0 0 0.05 85.4708 321.48)" font-style="normal" font-weight="normal" font-size="240px" font-family="Chalkboard" >
/steam</text>
<text x="0" y="0" stroke="none" fill="#0000ff" transform="matrix(0.05 0 0 0.05 34.3328 329.187)" font-style="normal" font-weight="normal" font-size="280px" font-family="Chalkboard" >
CH</text>
<text x="0" y="0" stroke="none" fill="#0000ff" transform="matrix(0.05 0 0 0.05 51.2566 333.147)" font-style="normal" font-weight="normal" font-size="210px" font-family="Chalkboard" >
4</text>
<text x="0" y="0" stroke="none" fill="#0000ff" transform="matrix(0.05 0 0 0.05 163.825 370.907)" font-style="normal" font-weight="normal" font-size="280px" font-family="Chalkboard" >
H</text>
<text x="0" y="0" stroke="none" fill="#0000ff" transform="matrix(0.05 0 0 0.05 194.073 370.907)" font-style="normal" font-weight="normal" font-size="280px" font-family="Chalkboard" >
C</text>
<path stroke="none" fill="#0000ff" transform="matrix(0.05 0 0 0.05 -12 -2)" d="M 3723.05,7377.6 L 3723.05,7345.6 L 4093.45,7345.6 L 4093.45,7377.6 L 3723.05,7377.6 Z " />
<text x="0" y="0" stroke="none" fill="#0000ff" transform="matrix(0.05 0 0 0.05 223.586 370.907)" font-style="normal" font-weight="normal" font-size="280px" font-family="Chalkboard" >
N</text>
<path stroke="none" fill="#0000ff" transform="matrix(0.05 0 0 0.05 -12 -2)" d="M 4316.45,7287.6 L 4316.45,7255.6 L 4684.63,7255.6 L 4684.63,7287.6 L 4316.45,7287.6 Z " />
<path stroke="none" fill="#0000ff" transform="matrix(0.05 0 0 0.05 -12 -2)" d="M 4316.45,7377.6 L 4316.45,7345.6 L 4684.63,7345.6 L 4684.63,7377.6 L 4316.45,7377.6 Z " />
<path stroke="none" fill="#0000ff" transform="matrix(0.05 0 0 0.05 -12 -2)" d="M 4316.45,7467.6 L 4316.45,7435.6 L 4684.63,7435.6 L 4684.63,7467.6 L 4316.45,7467.6 Z " />
<text x="0" y="0" stroke="none" fill="#0000ff" transform="matrix(0.05 0 0 0.05 32.6228 368.657)" font-style="normal" font-weight="normal" font-size="280px" font-family="Chalkboard" >
CH</text>
<text x="0" y="0" stroke="none" fill="#0000ff" transform="matrix(0.05 0 0 0.05 49.5466 372.617)" font-style="normal" font-weight="normal" font-size="210px" font-family="Chalkboard" >
4</text>
<text x="0" y="0" stroke="none" fill="#0000ff" transform="matrix(0.05 0 0 0.05 5.15999 306.02)" font-style="normal" font-weight="normal" font-size="280px" font-family="Chalkboard" >
NN:</text>
<path stroke="none" fill="#0000ff" transform="matrix(0.05 0 0 0.05 -12 -2)" d="M 334,2570.66 L 318,2542.94 L 845.6,2237.74 L 845.6,2274.72 L 334,2570.66 Z " />
<path stroke="none" fill="#0000ff" transform="matrix(0.05 0 0 0.05 -12 -2)" d="M 845.6,2274.72 L 845.6,2237.74 L 1373.2,2542.94 L 1357.2,2570.66 L 845.6,2274.72 Z " />
<path stroke="none" fill="#0000ff" transform="matrix(0.05 0 0 0.05 -12 -2)" d="M 4251.2,2525.8 L 2951.4,2525.8 L 2951.4,2493.8 L 4251.2,2493.8 Z " />
<path stroke="none" fill="#0000ff" transform="matrix(0.05 0 0 0.05 -12 -2)" d="M 4530.2,2509.8 C 4530.2,2509.8 4210.2,2590.8 4210.2,2590.8 C 4210.2,2590.8 4250.2,2545.24 4250.2,2509.8 C 4250.2,2473.93 4210.2,2427.8 4210.2,2427.8 C 4210.2,2427.8 4530.2,2509.8 4530.2,2509.8 C 4530.2,2509.8 4530.2,2509.8 4530.2,2509.8 " />
<path stroke="#0000ff" stroke-width="1" fill="none" transform="matrix(0.05 0 0 0.05 -12 -2)" d="M 4530.2,2509.8 C 4530.2,2509.8 4210.2,2590.8 4210.2,2590.8 C 4210.2,2590.8 4250.2,2545.24 4250.2,2509.8 C 4250.2,2473.93 4210.2,2427.8 4210.2,2427.8 C 4210.2,2427.8 4530.2,2509.8 4530.2,2509.8 C 4530.2,2509.8 4530.2,2509.8 4530.2,2509.8 " />
<text x="0" y="0" stroke="none" fill="#0000ff" transform="matrix(0.05 0 0 0.05 137.78 117.27)" font-style="normal" font-weight="normal" font-size="240px" font-family="Chalkboard" >
Mo</text>
<text x="0" y="0" stroke="none" fill="#0000ff" transform="matrix(0.05 0 0 0.05 153.89 120.664)" font-style="normal" font-weight="normal" font-size="180px" font-family="Chalkboard" >
2</text>
<text x="0" y="0" stroke="none" fill="#0000ff" transform="matrix(0.05 0 0 0.05 159.012 117.27)" font-style="normal" font-weight="normal" font-size="240px" font-family="Chalkboard" >
O</text>
<text x="0" y="0" stroke="none" fill="#0000ff" transform="matrix(0.05 0 0 0.05 167.724 120.664)" font-style="normal" font-weight="normal" font-size="180px" font-family="Chalkboard" >
3</text>
<text x="0" y="0" stroke="none" fill="#0000ff" transform="matrix(0.05 0 0 0.05 172.845 117.27)" font-style="normal" font-weight="normal" font-size="240px" font-family="Chalkboard" >
 </text>
<text x="0" y="0" stroke="none" fill="#0000ff" transform="matrix(0.05 0 0 0.05 177.433 117.27)" font-style="normal" font-weight="normal" font-size="240px" font-family="Chalkboard" >
+ </text>
<text x="0" y="0" stroke="none" fill="#0000ff" transform="matrix(0.05 0 0 0.05 188.492 117.27)" font-style="normal" font-weight="normal" font-size="240px" font-family="Symbol" >
D</text>
<text x="0" y="0" stroke="none" fill="#0000ff" transform="matrix(0.05 0 0 0.05 77.23 123.27)" font-style="normal" font-weight="normal" font-size="280px" font-family="Chalkboard" >
+ </text>
<text x="0" y="0" stroke="none" fill="#0000ff" transform="matrix(0.05 0 0 0.05 90.1317 123.27)" font-style="normal" font-weight="normal" font-size="280px" font-family="Chalkboard" >
 </text>
<text x="0" y="0" stroke="none" fill="#0000ff" transform="matrix(0.05 0 0 0.05 95.4841 123.27)" font-style="normal" font-weight="normal" font-size="280px" font-family="Chalkboard" >
O</text>
<text x="0" y="0" stroke="none" fill="#0000ff" transform="matrix(0.05 0 0 0.05 105.648 127.23)" font-style="normal" font-weight="normal" font-size="210px" font-family="Chalkboard" >
2</text>
<path stroke="none" fill="#0000ff" transform="matrix(0.05 0 0 0.05 -12 -2)" d="M 4950,2587.86 L 4934,2560.14 L 5461.6,2254.94 L 5461.6,2291.92 L 4950,2587.86 Z " />
<path stroke="none" fill="#0000ff" transform="matrix(0.05 0 0 0.05 -12 -2)" d="M 5461.6,2291.92 L 5461.6,2254.94 L 5981.56,2556.16 L 5981.54,2593.15 L 5461.6,2291.92 Z " />
<text x="0" y="0" stroke="none" fill="#0000ff" transform="matrix(0.05 0 0 0.05 306.843 114.578)" font-style="normal" font-weight="normal" font-size="280px" font-family="Chalkboard" >
O</text>
<path stroke="none" fill="#0000ff" transform="matrix(0.05 0 0 0.05 -12 -2)" d="M 5981.54,2593.15 L 5981.56,2556.16 L 6371.41,2330.35 L 6387.41,2358.06 L 5981.54,2593.15 Z " />
<path stroke="none" fill="#0000ff" transform="matrix(0.05 0 0 0.05 -12 -2)" d="M 5989.39,2483.94 L 5973.39,2456.23 L 6326.41,2252.41 L 6342.41,2280.12 L 5989.39,2483.94 Z " />
</svg>
