<?xml version="1.0" standalone="no" ?>
<!DOCTYPE svg PUBLIC "-//W3C//DTD SVG 1.1//EN" "http://www.w3.org/Graphics/SVG/1.1/DTD/svg11.dtd">
<svg width="880px" height="197px" viewBox="0 0 880 197" style="background-color: #ffffff00" xmlns="http://www.w3.org/2000/svg" xmlns:xlink="http://www.w3.org/1999/xlink" version="1.1" >
<text x="0" y="0" stroke="none" fill="#0000ff" transform="matrix(0.05 0 0 0.05 2.66699 168.304)" font-style="normal" font-weight="normal" font-size="240px" font-family="Helvetica" >
R</text>
<path stroke="none" fill="#0000ff" transform="matrix(0.05 0 0 0.05 -174 -100)" d="M 3739.58,5229.44 L 3723.58,5201.72 L 4139.59,4960.78 L 4139.59,4997.78 L 3739.58,5229.44 Z " />
<text x="0" y="0" stroke="none" fill="#0000ff" transform="matrix(0.05 0 0 0.05 54.627 168.304)" font-style="normal" font-weight="normal" font-size="240px" font-family="Helvetica" >
Cl</text>
<path stroke="none" fill="#0000ff" transform="matrix(0.05 0 0 0.05 -174 -100)" d="M 4139.59,4997.78 L 4139.59,4960.78 L 4561.03,5204.84 L 4545.03,5232.56 L 4139.59,4997.78 Z " />
<text x="0" y="0" stroke="none" fill="#0000ff" transform="matrix(0.05 0 0 0.05 28.313 123.304)" font-style="normal" font-weight="normal" font-size="240px" font-family="Helvetica" >
O</text>
<path stroke="none" fill="#0000ff" transform="matrix(0.05 0 0 0.05 -174 -100)" d="M 4110.6,5005.98 L 4078.6,5005.98 L 4078.6,4513.58 L 4110.6,4513.58 L 4110.6,5005.98 Z " />
<path stroke="none" fill="#0000ff" transform="matrix(0.05 0 0 0.05 -174 -100)" d="M 4200.6,5005.98 L 4168.6,5005.98 L 4168.6,4513.58 L 4200.6,4513.58 L 4200.6,5005.98 Z " />
<path stroke="none" fill="#0000ff" transform="matrix(0.05 0 0 0.05 -174 -100)" d="M 11181,4956 L 5420,4956 L 5420,4924 L 11181,4924 Z " />
<path stroke="none" fill="#0000ff" transform="matrix(0.05 0 0 0.05 -174 -100)" d="M 11460,4940 C 11460,4940 11140,5021 11140,5021 C 11140,5021 11180,4975.44 11180,4940 C 11180,4904.13 11140,4858 11140,4858 C 11140,4858 11460,4940 11460,4940 C 11460,4940 11460,4940 11460,4940 " />
<path stroke="#0000ff" stroke-width="1" fill="none" transform="matrix(0.05 0 0 0.05 -174 -100)" d="M 11460,4940 C 11460,4940 11140,5021 11140,5021 C 11140,5021 11180,4975.44 11180,4940 C 11180,4904.13 11140,4858 11140,4858 C 11140,4858 11460,4940 11460,4940 C 11460,4940 11460,4940 11460,4940 " />
<text x="0" y="0" stroke="none" fill="#0000ff" transform="matrix(0.05 0 0 0.05 88.627 24.3037)" font-style="normal" font-weight="normal" font-size="240px" font-family="Helvetica" >
CH</text>
<text x="0" y="0" stroke="none" fill="#0000ff" transform="matrix(0.05 0 0 0.05 105.959 27.0635)" font-style="normal" font-weight="normal" font-size="180px" font-family="Helvetica" >
2</text>
<text x="0" y="0" stroke="none" fill="#0000ff" transform="matrix(0.05 0 0 0.05 110.964 24.3037)" font-style="normal" font-weight="normal" font-size="240px" font-family="Helvetica" >
N</text>
<text x="0" y="0" stroke="none" fill="#0000ff" transform="matrix(0.05 0 0 0.05 119.63 27.0635)" font-style="normal" font-weight="normal" font-size="180px" font-family="Helvetica" >
2</text>
<text x="0" y="0" stroke="none" fill="#0000ff" transform="matrix(0.05 0 0 0.05 106.826 134.434)" font-style="normal" font-weight="normal" font-size="240px" font-family="Helvetica" >
H</text>
<text x="0" y="0" stroke="none" fill="#0000ff" transform="matrix(0.05 0 0 0.05 115.492 137.193)" font-style="normal" font-weight="normal" font-size="180px" font-family="Helvetica" >
2</text>
<text x="0" y="0" stroke="none" fill="#0000ff" transform="matrix(0.05 0 0 0.05 120.497 134.434)" font-style="normal" font-weight="normal" font-size="240px" font-family="Helvetica" >
C</text>
<text x="0" y="0" stroke="none" fill="#0000ff" transform="matrix(0.05 0 0 0.05 150.497 134.004)" font-style="normal" font-weight="normal" font-size="240px" font-family="Helvetica" >
N</text>
<path stroke="none" fill="#0000ff" transform="matrix(0.05 0 0 0.05 -174 -100)" d="M 6091.94,4571.94 L 6091.49,4539.94 L 6465.37,4534.58 L 6465.82,4566.58 L 6091.94,4571.94 Z " />
<path stroke="none" fill="#0000ff" transform="matrix(0.05 0 0 0.05 -174 -100)" d="M 6093.23,4661.94 L 6092.78,4629.94 L 6466.66,4624.58 L 6467.11,4656.58 L 6093.23,4661.94 Z " />
<text x="0" y="0" stroke="none" fill="#0000ff" transform="matrix(0.05 0 0 0.05 180.497 133.584)" font-style="normal" font-weight="normal" font-size="240px" font-family="Helvetica" >
N</text>
<path stroke="none" fill="#0000ff" transform="matrix(0.05 0 0 0.05 -174 -100)" d="M 6683.8,4563.49 L 6683.35,4531.5 L 7065.38,4526.15 L 7065.83,4558.14 L 6683.8,4563.49 Z " />
<path stroke="none" fill="#0000ff" transform="matrix(0.05 0 0 0.05 -174 -100)" d="M 6685.06,4653.49 L 6684.61,4621.5 L 7066.64,4616.15 L 7067.09,4648.14 L 6685.06,4653.49 Z " />
<path stroke="#0000ff" stroke-width="26" fill="none" transform="matrix(0.05 0 0 0.05 -174 -100)" d="M 6598.65,4388.45 A 92.7999,92.7999 0 1 0 6784.25,4388.45A 92.7999,92.7999 0 1 0 6598.65,4388.45Z " />
<path stroke="none" fill="#0000ff" transform="matrix(0.05 0 0 0.05 -174 -100)" d="M 6635.43,4375.4 L 6747.37,4375.4 L 6747.37,4401.4 L 6635.43,4401.4 Z " />
<path stroke="none" fill="#0000ff" transform="matrix(0.05 0 0 0.05 -174 -100)" d="M 6704.4,4332.43 L 6704.4,4444.37 L 6678.4,4444.37 L 6678.4,4332.43 Z " />
<path stroke="#0000ff" stroke-width="26" fill="none" transform="matrix(0.05 0 0 0.05 -174 -100)" d="M 7310.37,4521.37 A 92.7999,92.7999 0 1 0 7495.97,4521.37A 92.7999,92.7999 0 1 0 7310.37,4521.37Z " />
<path stroke="none" fill="#0000ff" transform="matrix(0.05 0 0 0.05 -174 -100)" d="M 7347.19,4508.4 L 7459.21,4508.4 L 7459.21,4534.4 L 7347.19,4534.4 Z " />
<path stroke="#0000ff" stroke-width="32" fill="none" transform="matrix(0.05 0 0 0.05 -174 -100)" d="M 7287.14,4349.62 C 7246.12,4219.19 7107.02,4146.56 6976.68,4187.51 C 6926.94,4203.14 6882.47,4234.92 6851.58,4276.91 " />
<path stroke="none" fill="#0000ff" transform="matrix(0.05 0 0 0.05 -174 -100)" d="M 6814.86,4497.98 C 6814.86,4497.98 6792.66,4233.84 6792.66,4233.84 C 6792.66,4233.84 6823.49,4271.88 6851.58,4276.91 C 6879.66,4281.94 6920.98,4256.82 6920.98,4256.82 C 6920.98,4256.82 6814.86,4497.98 6814.86,4497.98 C 6814.86,4497.98 6814.86,4497.98 6814.86,4497.98 " />
<path stroke="#0000ff" stroke-width="1" fill="none" transform="matrix(0.05 0 0 0.05 -174 -100)" d="M 6814.86,4497.98 C 6814.86,4497.98 6792.66,4233.84 6792.66,4233.84 C 6792.66,4233.84 6823.49,4271.88 6851.58,4276.91 C 6879.66,4281.94 6920.98,4256.82 6920.98,4256.82 C 6920.98,4256.82 6814.86,4497.98 6814.86,4497.98 C 6814.86,4497.98 6814.86,4497.98 6814.86,4497.98 " />
<path stroke="#0000ff" stroke-width="32" fill="none" transform="matrix(0.05 0 0 0.05 -174 -100)" d="M 6368.09,4477.74 C 6425.14,4385.19 6396.14,4263.67 6303.36,4206.52 C 6225.17,4158.35 6115.24,4173.85 6053.66,4241.72 " />
<path stroke="none" fill="#0000ff" transform="matrix(0.05 0 0 0.05 -174 -100)" d="M 6028.28,4470.96 C 6028.28,4470.96 5992.73,4200.61 5992.73,4200.61 C 5992.73,4200.61 6025.45,4238.21 6053.66,4241.72 C 6081.87,4245.23 6121.91,4216.7 6121.91,4216.7 C 6121.91,4216.7 6028.28,4470.96 6028.28,4470.96 C 6028.28,4470.96 6028.28,4470.96 6028.28,4470.96 " />
<path stroke="#0000ff" stroke-width="1" fill="none" transform="matrix(0.05 0 0 0.05 -174 -100)" d="M 6028.28,4470.96 C 6028.28,4470.96 5992.73,4200.61 5992.73,4200.61 C 5992.73,4200.61 6025.45,4238.21 6053.66,4241.72 C 6081.87,4245.23 6121.91,4216.7 6121.91,4216.7 C 6121.91,4216.7 6028.28,4470.96 6028.28,4470.96 C 6028.28,4470.96 6028.28,4470.96 6028.28,4470.96 " />
<path stroke="none" fill="#0000ff" transform="matrix(0.05 0 0 0.05 -174 -100)" d="M 8661,4596 L 8139,4596 L 8139,4564 L 8661,4564 Z " />
<path stroke="none" fill="#0000ff" transform="matrix(0.05 0 0 0.05 -174 -100)" d="M 8940,4580 C 8940,4580 8620,4661 8620,4661 C 8620,4661 8660,4615.44 8660,4580 C 8660,4544.13 8620,4498 8620,4498 C 8620,4498 8940,4580 8940,4580 C 8940,4580 8940,4580 8940,4580 " />
<path stroke="#0000ff" stroke-width="1" fill="none" transform="matrix(0.05 0 0 0.05 -174 -100)" d="M 8940,4580 C 8940,4580 8620,4661 8620,4661 C 8620,4661 8660,4615.44 8660,4580 C 8660,4544.13 8620,4498 8620,4498 C 8620,4498 8940,4580 8940,4580 C 8940,4580 8940,4580 8940,4580 " />
<path stroke="none" fill="#0000ff" transform="matrix(0.05 0 0 0.05 -174 -100)" d="M 7860,4580 C 7860,4580 8180,4662 8180,4662 C 8180,4662 8140,4615.87 8140,4580 C 8140,4544.56 8180,4499 8180,4499 C 8180,4499 7860,4580 7860,4580 C 7860,4580 7860,4580 7860,4580 " />
<path stroke="#0000ff" stroke-width="1" fill="none" transform="matrix(0.05 0 0 0.05 -174 -100)" d="M 7860,4580 C 7860,4580 8180,4662 8180,4662 C 8180,4662 8140,4615.87 8140,4580 C 8140,4544.56 8180,4499 8180,4499 C 8180,4499 7860,4580 7860,4580 C 7860,4580 7860,4580 7860,4580 " />
<text x="0" y="0" stroke="none" fill="#0000ff" transform="matrix(0.05 0 0 0.05 287.476 133.544)" font-style="normal" font-weight="normal" font-size="240px" font-family="Helvetica" >
H</text>
<text x="0" y="0" stroke="none" fill="#0000ff" transform="matrix(0.05 0 0 0.05 296.142 136.303)" font-style="normal" font-weight="normal" font-size="180px" font-family="Helvetica" >
2</text>
<text x="0" y="0" stroke="none" fill="#0000ff" transform="matrix(0.05 0 0 0.05 301.147 133.544)" font-style="normal" font-weight="normal" font-size="240px" font-family="Helvetica" >
C</text>
<text x="0" y="0" stroke="none" fill="#0000ff" transform="matrix(0.05 0 0 0.05 331.147 133.314)" font-style="normal" font-weight="normal" font-size="240px" font-family="Helvetica" >
N</text>
<path stroke="none" fill="#0000ff" transform="matrix(0.05 0 0 0.05 -174 -100)" d="M 9705.5,4599.91 L 9705.25,4567.91 L 10079.1,4565.05 L 10079.3,4597.05 L 9705.5,4599.91 Z " />
<path stroke="#0000ff" stroke-width="26" fill="none" transform="matrix(0.05 0 0 0.05 -174 -100)" d="M 9614.39,4377.99 A 92.7999,92.7999 0 1 0 9799.99,4377.99A 92.7999,92.7999 0 1 0 9614.39,4377.99Z " />
<path stroke="none" fill="#0000ff" transform="matrix(0.05 0 0 0.05 -174 -100)" d="M 9651.19,4365 L 9763.21,4365 L 9763.21,4391 L 9651.19,4391 Z " />
<text x="0" y="0" stroke="none" fill="#0000ff" transform="matrix(0.05 0 0 0.05 361.147 133.074)" font-style="normal" font-weight="normal" font-size="240px" font-family="Helvetica" >
N</text>
<path stroke="none" fill="#0000ff" transform="matrix(0.05 0 0 0.05 -174 -100)" d="M 10296.6,4505.34 L 10296.4,4473.34 L 10678.4,4470.28 L 10678.6,4502.28 L 10296.6,4505.34 Z " />
<path stroke="none" fill="#0000ff" transform="matrix(0.05 0 0 0.05 -174 -100)" d="M 10297.3,4595.34 L 10297.1,4563.34 L 10679.1,4560.28 L 10679.4,4592.28 L 10297.3,4595.34 Z " />
<path stroke="none" fill="#0000ff" transform="matrix(0.05 0 0 0.05 -174 -100)" d="M 10298.1,4685.34 L 10297.8,4653.34 L 10679.8,4650.28 L 10680.1,4682.28 L 10298.1,4685.34 Z " />
<path stroke="#0000ff" stroke-width="26" fill="none" transform="matrix(0.05 0 0 0.05 -174 -100)" d="M 10213,4375.19 A 92.7999,92.7999 0 1 0 10398.6,4375.19A 92.7999,92.7999 0 1 0 10213,4375.19Z " />
<path stroke="none" fill="#0000ff" transform="matrix(0.05 0 0 0.05 -174 -100)" d="M 10249.8,4362.2 L 10361.8,4362.2 L 10361.8,4388.2 L 10249.8,4388.2 Z " />
<path stroke="none" fill="#0000ff" transform="matrix(0.05 0 0 0.05 -174 -100)" d="M 10318.8,4319.19 L 10318.8,4431.21 L 10292.8,4431.21 L 10292.8,4319.19 Z " />
<path stroke="#0000ff" stroke-width="32" fill="none" transform="matrix(0.05 0 0 0.05 -174 -100)" d="M 10956.2,4160 L 11000,4160 " />
<path stroke="#0000ff" stroke-width="32" fill="none" transform="matrix(0.05 0 0 0.05 -174 -100)" d="M 11000,4160 L 11000,4760 " />
<path stroke="#0000ff" stroke-width="32" fill="none" transform="matrix(0.05 0 0 0.05 -174 -100)" d="M 11000,4760 L 10956.2,4760 " />
<path stroke="#0000ff" stroke-width="32" fill="none" transform="matrix(0.05 0 0 0.05 -174 -100)" d="M 5623.85,4760 L 5580,4760 " />
<path stroke="#0000ff" stroke-width="32" fill="none" transform="matrix(0.05 0 0 0.05 -174 -100)" d="M 5580,4760 L 5580,4160 " />
<path stroke="#0000ff" stroke-width="32" fill="none" transform="matrix(0.05 0 0 0.05 -174 -100)" d="M 5580,4160 L 5623.85,4160 " />
<path stroke="#0000ff" stroke-width="32" fill="none" transform="matrix(0.05 0 0 0.05 -174 -100)" d="M 9616.97,4198.24 C 7984.54,3232.23 5748.21,3489.54 4377.84,4801.06 " />
<path stroke="none" fill="#0000ff" transform="matrix(0.05 0 0 0.05 -174 -100)" d="M 4220.04,4960.04 C 4220.04,4960.04 4353.96,4732.26 4353.96,4732.26 C 4353.96,4732.26 4357.53,4780.9 4377.84,4801.06 C 4398.15,4821.22 4446.81,4824.44 4446.81,4824.44 C 4446.81,4824.44 4220.04,4960.04 4220.04,4960.04 C 4220.04,4960.04 4220.04,4960.04 4220.04,4960.04 " />
<path stroke="#0000ff" stroke-width="1" fill="none" transform="matrix(0.05 0 0 0.05 -174 -100)" d="M 4220.04,4960.04 C 4220.04,4960.04 4353.96,4732.26 4353.96,4732.26 C 4353.96,4732.26 4357.53,4780.9 4377.84,4801.06 C 4398.15,4821.22 4446.81,4824.44 4446.81,4824.44 C 4446.81,4824.44 4220.04,4960.04 4220.04,4960.04 C 4220.04,4960.04 4220.04,4960.04 4220.04,4960.04 " />
<text x="0" y="0" stroke="none" fill="#0000ff" transform="matrix(0.05 0 0 0.05 417.667 164.304)" font-style="normal" font-weight="normal" font-size="240px" font-family="Helvetica" >
R</text>
<path stroke="none" fill="#0000ff" transform="matrix(0.05 0 0 0.05 -174 -100)" d="M 12039.6,5149.44 L 12023.6,5121.72 L 12424.2,4891.11 L 12439.6,4900 L 12433,4921.03 L 12039.6,5149.44 Z " />
<text x="0" y="0" stroke="none" fill="#0000ff" transform="matrix(0.05 0 0 0.05 469.627 164.304)" font-style="normal" font-weight="normal" font-size="240px" font-family="Helvetica" >
Cl</text>
<path stroke="none" fill="#0000ff" transform="matrix(0.05 0 0 0.05 -174 -100)" d="M 12470.9,4933.17 L 12439.6,4900 L 12455,4891.1 L 12861,5124.84 L 12845,5152.56 L 12470.9,4933.17 Z " />
<text x="0" y="0" stroke="none" fill="#0000ff" transform="matrix(0.05 0 0 0.05 443.313 119.304)" font-style="normal" font-weight="normal" font-size="240px" font-family="Helvetica" >
O</text>
<path stroke="none" fill="#0000ff" transform="matrix(0.05 0 0 0.05 -174 -100)" d="M 12455,4891.1 L 12439.6,4900 L 12424.2,4891.11 L 12423.6,4433.58 L 12455.6,4433.58 L 12455,4891.1 Z " />
<path stroke="none" fill="#0000ff" transform="matrix(0.05 0 0 0.05 -174 -100)" d="M 12433,4921.03 L 12439.6,4900 L 12470.9,4933.17 L 12712.5,5426.49 L 12690.3,5454.06 L 12433,4921.03 Z " />
<text x="0" y="0" stroke="none" fill="#0000ff" transform="matrix(0.05 0 0 0.05 485.907 183.324)" font-style="normal" font-weight="normal" font-size="240px" font-family="Helvetica" >
N</text>
<text x="0" y="0" stroke="none" fill="#0000ff" transform="matrix(0.05 0 0 0.05 494.573 186.083)" font-style="normal" font-weight="normal" font-size="180px" font-family="Helvetica" >
2</text>
<text x="0" y="0" stroke="none" fill="#0000ff" transform="matrix(0.05 0 0 0.05 499.578 179.02)" font-style="normal" font-weight="normal" font-size="180px" font-family="Helvetica" >
+</text>
<path stroke="none" fill="#0000ff" transform="matrix(0.05 0 0 0.05 -174 -100)" d="M 12690.3,5454.06 L 12712.5,5426.49 L 13167.2,5535.58 L 13159.7,5566.69 L 12690.3,5454.06 Z " />
<path stroke="#0000ff" stroke-width="26" fill="none" transform="matrix(0.05 0 0 0.05 -174 -100)" d="M 12568.6,4213.8 A 92.7999,92.7999 0 1 0 12754.2,4213.8A 92.7999,92.7999 0 1 0 12568.6,4213.8Z " />
<path stroke="none" fill="#0000ff" transform="matrix(0.05 0 0 0.05 -174 -100)" d="M 12605.4,4200.8 L 12717.4,4200.8 L 12717.4,4226.8 L 12605.4,4226.8 Z " />
<path stroke="none" fill="#0000ff" transform="matrix(0.05 0 0 0.05 -174 -100)" d="M 14801,4876 L 13880,4876 L 13880,4844 L 14801,4844 Z " />
<path stroke="none" fill="#0000ff" transform="matrix(0.05 0 0 0.05 -174 -100)" d="M 15080,4860 C 15080,4860 14760,4941 14760,4941 C 14760,4941 14800,4895.44 14800,4860 C 14800,4824.13 14760,4778 14760,4778 C 14760,4778 15080,4860 15080,4860 C 15080,4860 15080,4860 15080,4860 " />
<path stroke="#0000ff" stroke-width="1" fill="none" transform="matrix(0.05 0 0 0.05 -174 -100)" d="M 15080,4860 C 15080,4860 14760,4941 14760,4941 C 14760,4941 14800,4895.44 14800,4860 C 14800,4824.13 14760,4778 14760,4778 C 14760,4778 15080,4860 15080,4860 C 15080,4860 15080,4860 15080,4860 " />
<path stroke="none" fill="#0000ff" transform="matrix(0.05 0 0 0.05 -174 -100)" d="M 7189.56,4391.2 A 20.0387,20.0387 0 1 0 7229.64,4391.2A 20.0387,20.0387 0 1 0 7189.56,4391.2Z " />
<path stroke="none" fill="#0000ff" transform="matrix(0.05 0 0 0.05 -174 -100)" d="M 7099.56,4396.8 A 20.0387,20.0387 0 1 0 7139.64,4396.8A 20.0387,20.0387 0 1 0 7099.56,4396.8Z " />
<text x="0" y="0" stroke="none" fill="#0000ff" transform="matrix(0.05 0 0 0.05 596.667 163.304)" font-style="normal" font-weight="normal" font-size="240px" font-family="Helvetica" >
R</text>
<path stroke="none" fill="#0000ff" transform="matrix(0.05 0 0 0.05 -174 -100)" d="M 15619.6,5129.44 L 15603.6,5101.72 L 16019.5,4860.86 L 16019.5,4897.85 L 15619.6,5129.44 Z " />
<path stroke="none" fill="#0000ff" transform="matrix(0.05 0 0 0.05 -174 -100)" d="M 16019.5,4897.85 L 16019.5,4860.86 L 16539.4,5162.16 L 16539.2,5180 L 16523.8,5189.05 L 16019.5,4897.85 Z " />
<text x="0" y="0" stroke="none" fill="#0000ff" transform="matrix(0.05 0 0 0.05 622.313 118.304)" font-style="normal" font-weight="normal" font-size="240px" font-family="Helvetica" >
O</text>
<path stroke="none" fill="#0000ff" transform="matrix(0.05 0 0 0.05 -174 -100)" d="M 15990.6,4905.98 L 15958.6,4905.98 L 15958.6,4413.58 L 15990.6,4413.58 L 15990.6,4905.98 Z " />
<path stroke="none" fill="#0000ff" transform="matrix(0.05 0 0 0.05 -174 -100)" d="M 16080.6,4905.98 L 16048.6,4905.98 L 16048.6,4413.58 L 16080.6,4413.58 L 16080.6,4905.98 Z " />
<text x="0" y="0" stroke="none" fill="#0000ff" transform="matrix(0.05 0 0 0.05 674.607 148.304)" font-style="normal" font-weight="normal" font-size="240px" font-family="Helvetica" >
N</text>
<text x="0" y="0" stroke="none" fill="#0000ff" transform="matrix(0.05 0 0 0.05 683.273 151.063)" font-style="normal" font-weight="normal" font-size="180px" font-family="Helvetica" >
2</text>
<text x="0" y="0" stroke="none" fill="#0000ff" transform="matrix(0.05 0 0 0.05 688.278 144)" font-style="normal" font-weight="normal" font-size="180px" font-family="Helvetica" >
+</text>
<path stroke="none" fill="#0000ff" transform="matrix(0.05 0 0 0.05 -174 -100)" d="M 16554.6,5188.86 L 16539.2,5180 L 16539.4,5162.16 L 16925.7,4938.37 L 16941.7,4966.08 L 16554.6,5188.86 Z " />
<text x="0" y="0" stroke="none" fill="#0000ff" transform="matrix(0.05 0 0 0.05 1.66699 57.3037)" font-style="normal" font-weight="normal" font-size="240px" font-family="Helvetica" >
R</text>
<path stroke="none" fill="#0000ff" transform="matrix(0.05 0 0 0.05 -174 -100)" d="M 3719.58,3009.44 L 3703.58,2981.72 L 4119.59,2740.78 L 4119.59,2777.78 L 3719.58,3009.44 Z " />
<text x="0" y="0" stroke="none" fill="#0000ff" transform="matrix(0.05 0 0 0.05 53.627 57.3037)" font-style="normal" font-weight="normal" font-size="240px" font-family="Helvetica" >
Cl</text>
<path stroke="none" fill="#0000ff" transform="matrix(0.05 0 0 0.05 -174 -100)" d="M 4119.59,2777.78 L 4119.59,2740.78 L 4541.03,2984.84 L 4525.03,3012.56 L 4119.59,2777.78 Z " />
<text x="0" y="0" stroke="none" fill="#0000ff" transform="matrix(0.05 0 0 0.05 27.313 12.3037)" font-style="normal" font-weight="normal" font-size="240px" font-family="Helvetica" >
O</text>
<path stroke="none" fill="#0000ff" transform="matrix(0.05 0 0 0.05 -174 -100)" d="M 4090.6,2785.98 L 4058.6,2785.98 L 4058.6,2293.58 L 4090.6,2293.58 L 4090.6,2785.98 Z " />
<path stroke="none" fill="#0000ff" transform="matrix(0.05 0 0 0.05 -174 -100)" d="M 4180.6,2785.98 L 4148.6,2785.98 L 4148.6,2293.58 L 4180.6,2293.58 L 4180.6,2785.98 Z " />
<path stroke="none" fill="#0000ff" transform="matrix(0.05 0 0 0.05 -174 -100)" d="M 6081,2696 L 5160,2696 L 5160,2664 L 6081,2664 Z " />
<path stroke="none" fill="#0000ff" transform="matrix(0.05 0 0 0.05 -174 -100)" d="M 6360,2680 C 6360,2680 6040,2761 6040,2761 C 6040,2761 6080,2715.44 6080,2680 C 6080,2644.13 6040,2598 6040,2598 C 6040,2598 6360,2680 6360,2680 C 6360,2680 6360,2680 6360,2680 " />
<path stroke="#0000ff" stroke-width="1" fill="none" transform="matrix(0.05 0 0 0.05 -174 -100)" d="M 6360,2680 C 6360,2680 6040,2761 6040,2761 C 6040,2761 6080,2715.44 6080,2680 C 6080,2644.13 6040,2598 6040,2598 C 6040,2598 6360,2680 6360,2680 C 6360,2680 6360,2680 6360,2680 " />
<text x="0" y="0" stroke="none" fill="#0000ff" transform="matrix(0.05 0 0 0.05 159.667 56.3037)" font-style="normal" font-weight="normal" font-size="240px" font-family="Helvetica" >
R</text>
<path stroke="none" fill="#0000ff" transform="matrix(0.05 0 0 0.05 -174 -100)" d="M 6879.58,2989.44 L 6863.58,2961.72 L 7279.59,2720.78 L 7279.59,2757.78 L 6879.58,2989.44 Z " />
<text x="0" y="0" stroke="none" fill="#0000ff" transform="matrix(0.05 0 0 0.05 211.627 56.3037)" font-style="normal" font-weight="normal" font-size="240px" font-family="Helvetica" >
CHN</text>
<text x="0" y="0" stroke="none" fill="#0000ff" transform="matrix(0.05 0 0 0.05 237.625 59.0635)" font-style="normal" font-weight="normal" font-size="180px" font-family="Helvetica" >
2</text>
<path stroke="none" fill="#0000ff" transform="matrix(0.05 0 0 0.05 -174 -100)" d="M 7279.59,2757.78 L 7279.59,2720.78 L 7701.03,2964.84 L 7685.03,2992.56 L 7279.59,2757.78 Z " />
<text x="0" y="0" stroke="none" fill="#0000ff" transform="matrix(0.05 0 0 0.05 185.313 11.3037)" font-style="normal" font-weight="normal" font-size="240px" font-family="Helvetica" >
O</text>
<path stroke="none" fill="#0000ff" transform="matrix(0.05 0 0 0.05 -174 -100)" d="M 7250.6,2765.98 L 7218.6,2765.98 L 7218.6,2273.58 L 7250.6,2273.58 L 7250.6,2765.98 Z " />
<path stroke="none" fill="#0000ff" transform="matrix(0.05 0 0 0.05 -174 -100)" d="M 7340.6,2765.98 L 7308.6,2765.98 L 7308.6,2273.58 L 7340.6,2273.58 L 7340.6,2765.98 Z " />
<text x="0" y="0" stroke="none" fill="#0000ff" transform="matrix(0.05 0 0 0.05 723.627 132.304)" font-style="normal" font-weight="normal" font-size="240px" font-family="Helvetica" >
Cl</text>
<text x="0" y="0" stroke="none" fill="#0000ff" transform="matrix(0.05 0 0 0.05 734.959 128)" font-style="normal" font-weight="normal" font-size="180px" font-family="Helvetica" >
-</text>
<path stroke="none" fill="#0000ff" transform="matrix(0.05 0 0 0.05 -174 -100)" d="M 18781,4856 L 17860,4856 L 17860,4824 L 18781,4824 Z " />
<path stroke="none" fill="#0000ff" transform="matrix(0.05 0 0 0.05 -174 -100)" d="M 19060,4840 C 19060,4840 18740,4921 18740,4921 C 18740,4921 18780,4875.44 18780,4840 C 18780,4804.13 18740,4758 18740,4758 C 18740,4758 19060,4840 19060,4840 C 19060,4840 19060,4840 19060,4840 " />
<path stroke="#0000ff" stroke-width="1" fill="none" transform="matrix(0.05 0 0 0.05 -174 -100)" d="M 19060,4840 C 19060,4840 18740,4921 18740,4921 C 18740,4921 18780,4875.44 18780,4840 C 18780,4804.13 18740,4758 18740,4758 C 18740,4758 19060,4840 19060,4840 C 19060,4840 19060,4840 19060,4840 " />
<text x="0" y="0" stroke="none" fill="#0000ff" transform="matrix(0.05 0 0 0.05 794.667 164.304)" font-style="normal" font-weight="normal" font-size="240px" font-family="Helvetica" >
R</text>
<path stroke="none" fill="#0000ff" transform="matrix(0.05 0 0 0.05 -174 -100)" d="M 19579.6,5149.44 L 19563.6,5121.72 L 19979.6,4880.78 L 19979.6,4917.78 L 19579.6,5149.44 Z " />
<text x="0" y="0" stroke="none" fill="#0000ff" transform="matrix(0.05 0 0 0.05 846.627 164.304)" font-style="normal" font-weight="normal" font-size="240px" font-family="Helvetica" >
CHN</text>
<text x="0" y="0" stroke="none" fill="#0000ff" transform="matrix(0.05 0 0 0.05 872.625 167.063)" font-style="normal" font-weight="normal" font-size="180px" font-family="Helvetica" >
2</text>
<path stroke="none" fill="#0000ff" transform="matrix(0.05 0 0 0.05 -174 -100)" d="M 19979.6,4917.78 L 19979.6,4880.78 L 20401,5124.84 L 20385,5152.56 L 19979.6,4917.78 Z " />
<text x="0" y="0" stroke="none" fill="#0000ff" transform="matrix(0.05 0 0 0.05 820.313 119.304)" font-style="normal" font-weight="normal" font-size="240px" font-family="Helvetica" >
O</text>
<path stroke="none" fill="#0000ff" transform="matrix(0.05 0 0 0.05 -174 -100)" d="M 19950.6,4925.98 L 19918.6,4925.98 L 19918.6,4433.58 L 19950.6,4433.58 L 19950.6,4925.98 Z " />
<path stroke="none" fill="#0000ff" transform="matrix(0.05 0 0 0.05 -174 -100)" d="M 20040.6,4925.98 L 20008.6,4925.98 L 20008.6,4433.58 L 20040.6,4433.58 L 20040.6,4925.98 Z " />
<text x="0" y="0" stroke="none" fill="#0000ff" transform="matrix(0.05 0 0 0.05 648.627 193.304)" font-style="normal" font-weight="normal" font-size="240px" font-family="Helvetica" >
H</text>
<path stroke="none" fill="#0000ff" transform="matrix(0.05 0 0 0.05 -174 -100)" d="M 16523.8,5189.05 L 16539.2,5180 L 16554.6,5188.86 L 16555.2,5653.93 L 16523.2,5653.93 L 16523.8,5189.05 Z " />
<path stroke="#0000ff" stroke-width="32" fill="none" transform="matrix(0.05 0 0 0.05 -174 -100)" d="M 16854.3,5811.46 C 17421.9,5924.34 17974.2,5555.28 18087.1,4987.71 C 18108.5,4880.03 18112.8,4768.98 18099.9,4659.95 " />
<path stroke="none" fill="#0000ff" transform="matrix(0.05 0 0 0.05 -174 -100)" d="M 16645,5746.47 C 16645,5746.47 16903.8,5759.94 16903.8,5759.94 C 16903.8,5759.94 16862.7,5785.43 16854.3,5811.46 C 16845.9,5837.49 16864.6,5881.55 16864.6,5881.55 C 16864.6,5881.55 16645,5746.47 16645,5746.47 C 16645,5746.47 16645,5746.47 16645,5746.47 " />
<path stroke="#0000ff" stroke-width="1" fill="none" transform="matrix(0.05 0 0 0.05 -174 -100)" d="M 16645,5746.47 C 16645,5746.47 16903.8,5759.94 16903.8,5759.94 C 16903.8,5759.94 16862.7,5785.43 16854.3,5811.46 C 16845.9,5837.49 16864.6,5881.55 16864.6,5881.55 C 16864.6,5881.55 16645,5746.47 16645,5746.47 C 16645,5746.47 16645,5746.47 16645,5746.47 " />
</svg>
