<?xml version="1.0" standalone="no" ?>
<!DOCTYPE svg PUBLIC "-//W3C//DTD SVG 1.1//EN" "http://www.w3.org/Graphics/SVG/1.1/DTD/svg11.dtd">
<svg width="798px" height="177px" viewBox="0 0 798 177" style="background-color: #ffffff00" xmlns="http://www.w3.org/2000/svg" xmlns:xlink="http://www.w3.org/1999/xlink" version="1.1" >
<text x="0" y="0" stroke="none" fill="#0000ff" transform="matrix(0.05 0 0 0.05 46.667 61.5637)" font-style="normal" font-weight="normal" font-size="240px" font-family="Helvetica" >
N</text>
<path stroke="none" fill="#0000ff" transform="matrix(0.05 0 0 0.05 -135 -579)" d="M 3128.86,12740.6 L 3120,12725.2 L 3128.65,12709.8 L 3610.62,12709.2 L 3610.62,12741.2 L 3128.86,12740.6 Z " />
<path stroke="none" fill="#0000ff" transform="matrix(0.05 0 0 0.05 -135 -579)" d="M 3171.96,12651.2 L 3171.96,12619.2 L 3610.62,12619.2 L 3610.62,12651.2 L 3171.96,12651.2 Z " />
<text x="0" y="0" stroke="none" fill="#0000ff" transform="matrix(0.05 0 0 0.05 3.33545 35.5837)" font-style="normal" font-weight="normal" font-size="240px" font-family="Helvetica" >
R</text>
<text x="0" y="0" stroke="none" fill="#0000ff" transform="matrix(0.05 0 0 0.05 12.0015 38.3435)" font-style="normal" font-weight="normal" font-size="180px" font-family="Helvetica" >
1</text>
<path stroke="none" fill="#0000ff" transform="matrix(0.05 0 0 0.05 -135 -579)" d="M 3128.65,12709.8 L 3120,12725.2 L 3102.32,12725 L 2923.53,12416.9 L 2951.24,12400.9 L 3128.65,12709.8 Z " />
<text x="0" y="0" stroke="none" fill="#0000ff" transform="matrix(0.05 0 0 0.05 3.33545 87.5437)" font-style="normal" font-weight="normal" font-size="240px" font-family="Helvetica" >
R</text>
<text x="0" y="0" stroke="none" fill="#0000ff" transform="matrix(0.05 0 0 0.05 12.0015 90.3035)" font-style="normal" font-weight="normal" font-size="180px" font-family="Helvetica" >
2</text>
<path stroke="none" fill="#0000ff" transform="matrix(0.05 0 0 0.05 -135 -579)" d="M 3102.32,12725 L 3120,12725.2 L 3128.86,12740.6 L 2900.77,13136.9 L 2873.06,13120.9 L 3102.32,12725 Z " />
<text x="0" y="0" stroke="none" fill="#0000ff" transform="matrix(0.05 0 0 0.05 61.333 35.5837)" font-style="normal" font-weight="normal" font-size="240px" font-family="Helvetica" >
OH</text>
<path stroke="none" fill="#0000ff" transform="matrix(0.05 0 0 0.05 -135 -579)" d="M 3808.72,12603.5 L 3781.01,12587.5 L 3938.64,12314.5 L 3966.35,12330.5 L 3808.72,12603.5 Z " />
<path stroke="none" fill="#0000ff" transform="matrix(0.05 0 0 0.05 -135 -579)" d="M 5621,12641.2 L 4700,12641.2 L 4700,12609.2 L 5621,12609.2 Z " />
<path stroke="none" fill="#0000ff" transform="matrix(0.05 0 0 0.05 -135 -579)" d="M 5900,12625.2 C 5900,12625.2 5580,12706.2 5580,12706.2 C 5580,12706.2 5620,12660.6 5620,12625.2 C 5620,12589.3 5580,12543.2 5580,12543.2 C 5580,12543.2 5900,12625.2 5900,12625.2 C 5900,12625.2 5900,12625.2 5900,12625.2 " />
<path stroke="#0000ff" stroke-width="1" fill="none" transform="matrix(0.05 0 0 0.05 -135 -579)" d="M 5900,12625.2 C 5900,12625.2 5580,12706.2 5580,12706.2 C 5580,12706.2 5620,12660.6 5620,12625.2 C 5620,12589.3 5580,12543.2 5580,12543.2 C 5580,12543.2 5900,12625.2 5900,12625.2 C 5900,12625.2 5900,12625.2 5900,12625.2 " />
<text x="0" y="0" stroke="none" fill="#0000ff" transform="matrix(0.05 0 0 0.05 220.667 60.5637)" font-style="normal" font-weight="normal" font-size="240px" font-family="Helvetica" >
N</text>
<path stroke="none" fill="#0000ff" transform="matrix(0.05 0 0 0.05 -135 -579)" d="M 6608.86,12720.6 L 6600,12705.2 L 6608.65,12689.8 L 7090.62,12689.2 L 7090.62,12721.2 L 6608.86,12720.6 Z " />
<path stroke="none" fill="#0000ff" transform="matrix(0.05 0 0 0.05 -135 -579)" d="M 6651.96,12631.2 L 6651.96,12599.2 L 7090.62,12599.2 L 7090.62,12631.2 L 6651.96,12631.2 Z " />
<text x="0" y="0" stroke="none" fill="#0000ff" transform="matrix(0.05 0 0 0.05 177.335 34.5837)" font-style="normal" font-weight="normal" font-size="240px" font-family="Helvetica" >
R</text>
<text x="0" y="0" stroke="none" fill="#0000ff" transform="matrix(0.05 0 0 0.05 186.001 37.3435)" font-style="normal" font-weight="normal" font-size="180px" font-family="Helvetica" >
1</text>
<path stroke="none" fill="#0000ff" transform="matrix(0.05 0 0 0.05 -135 -579)" d="M 6608.65,12689.8 L 6600,12705.2 L 6582.32,12705 L 6403.53,12396.9 L 6431.24,12380.9 L 6608.65,12689.8 Z " />
<text x="0" y="0" stroke="none" fill="#0000ff" transform="matrix(0.05 0 0 0.05 177.335 86.5437)" font-style="normal" font-weight="normal" font-size="240px" font-family="Helvetica" >
R</text>
<text x="0" y="0" stroke="none" fill="#0000ff" transform="matrix(0.05 0 0 0.05 186.001 89.3035)" font-style="normal" font-weight="normal" font-size="180px" font-family="Helvetica" >
2</text>
<path stroke="none" fill="#0000ff" transform="matrix(0.05 0 0 0.05 -135 -579)" d="M 6582.32,12705 L 6600,12705.2 L 6608.86,12720.6 L 6380.77,13116.9 L 6353.06,13100.9 L 6582.32,12705 Z " />
<text x="0" y="0" stroke="none" fill="#0000ff" transform="matrix(0.05 0 0 0.05 239.293 37.3137)" font-style="normal" font-weight="normal" font-size="240px" font-family="Helvetica" >
OH</text>
<text x="0" y="0" stroke="none" fill="#0000ff" transform="matrix(0.05 0 0 0.05 257.293 40.0735)" font-style="normal" font-weight="normal" font-size="180px" font-family="Helvetica" >
2</text>
<path stroke="none" fill="#0000ff" transform="matrix(0.05 0 0 0.05 -135 -579)" d="M 7307.73,12598.4 L 7282.93,12578.2 L 7481.26,12335 L 7506.06,12355.2 L 7307.73,12598.4 Z " />
<text x="0" y="0" stroke="none" fill="#0000ff" transform="matrix(0.05 0 0 0.05 118.003 45.2583)" font-style="normal" font-weight="normal" font-size="320px" font-family="Helvetica" >
H</text>
<text x="0" y="0" stroke="none" fill="#0000ff" transform="matrix(0.05 0 0 0.05 129.557 39.52)" font-style="normal" font-weight="normal" font-size="240px" font-family="Helvetica" >
+</text>
<path stroke="#0000ff" stroke-width="26" fill="none" transform="matrix(0.05 0 0 0.05 -135 -579)" d="M 7449.2,12011.8 A 92.7999,92.7999 0 1 0 7634.8,12011.8A 92.7999,92.7999 0 1 0 7449.2,12011.8Z " />
<path stroke="none" fill="#0000ff" transform="matrix(0.05 0 0 0.05 -135 -579)" d="M 7486,11998.8 L 7598,11998.8 L 7598,12024.8 L 7486,12024.8 Z " />
<path stroke="none" fill="#0000ff" transform="matrix(0.05 0 0 0.05 -135 -579)" d="M 7555,11955.8 L 7555,12067.8 L 7529,12067.8 L 7529,11955.8 Z " />
<path stroke="#0000ff" stroke-width="32" fill="none" transform="matrix(0.05 0 0 0.05 -135 -579)" d="M 7295.57,12128.3 C 7232.71,12158.9 7201.76,12246.9 7226.5,12324.6 C 7244.28,12380.5 7290.63,12420 7339.17,12420.6 " />
<path stroke="none" fill="#0000ff" transform="matrix(0.05 0 0 0.05 -135 -579)" d="M 7443.6,12187.8 C 7443.6,12187.8 7256.43,12163.1 7256.43,12163.1 C 7256.43,12163.1 7289.97,12141.8 7295.57,12128.3 C 7301.18,12114.8 7292.42,12076.5 7292.42,12076.5 C 7292.42,12076.5 7443.6,12187.8 7443.6,12187.8 C 7443.6,12187.8 7443.6,12187.8 7443.6,12187.8 " />
<path stroke="#0000ff" stroke-width="1" fill="none" transform="matrix(0.05 0 0 0.05 -135 -579)" d="M 7443.6,12187.8 C 7443.6,12187.8 7256.43,12163.1 7256.43,12163.1 C 7256.43,12163.1 7289.97,12141.8 7295.57,12128.3 C 7301.18,12114.8 7292.42,12076.5 7292.42,12076.5 C 7292.42,12076.5 7443.6,12187.8 7443.6,12187.8 C 7443.6,12187.8 7443.6,12187.8 7443.6,12187.8 " />
<path stroke="#0000ff" stroke-width="32" fill="none" transform="matrix(0.05 0 0 0.05 -135 -579)" d="M 6506.03,13027.9 C 6608.55,13180.8 6834.32,13232.4 7009.94,13143.1 C 7073.25,13110.9 7125.06,13061.9 7156.65,13004.3 " />
<path stroke="none" fill="#0000ff" transform="matrix(0.05 0 0 0.05 -135 -579)" d="M 7179.77,12782.2 C 7179.77,12782.2 7217.82,13043.7 7217.82,13043.7 C 7217.82,13043.7 7184.77,13007.7 7156.65,13004.3 C 7128.53,13001 7088.88,13028.5 7088.88,13028.5 C 7088.88,13028.5 7179.77,12782.2 7179.77,12782.2 C 7179.77,12782.2 7179.77,12782.2 7179.77,12782.2 " />
<path stroke="#0000ff" stroke-width="1" fill="none" transform="matrix(0.05 0 0 0.05 -135 -579)" d="M 7179.77,12782.2 C 7179.77,12782.2 7217.82,13043.7 7217.82,13043.7 C 7217.82,13043.7 7184.77,13007.7 7156.65,13004.3 C 7128.53,13001 7088.88,13028.5 7088.88,13028.5 C 7088.88,13028.5 7179.77,12782.2 7179.77,12782.2 C 7179.77,12782.2 7179.77,12782.2 7179.77,12782.2 " />
<path stroke="none" fill="#0000ff" transform="matrix(0.05 0 0 0.05 -135 -579)" d="M 8981,12721.2 L 8060,12721.2 L 8060,12689.2 L 8981,12689.2 Z " />
<path stroke="none" fill="#0000ff" transform="matrix(0.05 0 0 0.05 -135 -579)" d="M 9260,12705.2 C 9260,12705.2 8940,12786.2 8940,12786.2 C 8940,12786.2 8980,12740.6 8980,12705.2 C 8980,12669.3 8940,12623.2 8940,12623.2 C 8940,12623.2 9260,12705.2 9260,12705.2 C 9260,12705.2 9260,12705.2 9260,12705.2 " />
<path stroke="#0000ff" stroke-width="1" fill="none" transform="matrix(0.05 0 0 0.05 -135 -579)" d="M 9260,12705.2 C 9260,12705.2 8940,12786.2 8940,12786.2 C 8940,12786.2 8980,12740.6 8980,12705.2 C 8980,12669.3 8940,12623.2 8940,12623.2 C 8940,12623.2 9260,12705.2 9260,12705.2 C 9260,12705.2 9260,12705.2 9260,12705.2 " />
<text x="0" y="0" stroke="none" fill="#0000ff" transform="matrix(0.05 0 0 0.05 342.666 59.5637)" font-style="normal" font-weight="normal" font-size="240px" font-family="Helvetica" >
R</text>
<text x="0" y="0" stroke="none" fill="#0000ff" transform="matrix(0.05 0 0 0.05 351.332 62.3235)" font-style="normal" font-weight="normal" font-size="180px" font-family="Helvetica" >
1</text>
<path stroke="none" fill="#0000ff" transform="matrix(0.05 0 0 0.05 -135 -579)" d="M 9813.72,12701.2 L 9813.72,12669.2 L 10360,12669.2 L 10360,12701.2 L 9813.72,12701.2 Z " />
<text x="0" y="0" stroke="none" fill="#0000ff" transform="matrix(0.05 0 0 0.05 408.667 59.5637)" font-style="normal" font-weight="normal" font-size="240px" font-family="Helvetica" >
N</text>
<path stroke="none" fill="#0000ff" transform="matrix(0.05 0 0 0.05 -135 -579)" d="M 10360,12611.2 L 10360,12579.2 L 10850.6,12579.2 L 10850.6,12611.2 L 10360,12611.2 Z " />
<path stroke="none" fill="#0000ff" transform="matrix(0.05 0 0 0.05 -135 -579)" d="M 10360,12701.2 L 10360,12669.2 L 10850.6,12669.2 L 10850.6,12701.2 L 10360,12701.2 Z " />
<path stroke="none" fill="#0000ff" transform="matrix(0.05 0 0 0.05 -135 -579)" d="M 10360,12791.2 L 10360,12759.2 L 10850.6,12759.2 L 10850.6,12791.2 L 10360,12791.2 Z " />
<text x="0" y="0" stroke="none" fill="#0000ff" transform="matrix(0.05 0 0 0.05 438.667 59.5637)" font-style="normal" font-weight="normal" font-size="240px" font-family="Helvetica" >
R</text>
<text x="0" y="0" stroke="none" fill="#0000ff" transform="matrix(0.05 0 0 0.05 447.333 62.3235)" font-style="normal" font-weight="normal" font-size="180px" font-family="Helvetica" >
2</text>
<path stroke="none" fill="#0000ff" transform="matrix(0.05 0 0 0.05 -135 -579)" d="M 11068.6,12701.2 L 11068.6,12669.2 L 11453.4,12669.2 L 11453.4,12701.2 L 11068.6,12701.2 Z " />
<path stroke="none" fill="#0000ff" transform="matrix(0.05 0 0 0.05 -135 -579)" d="M 7135,12896.8 A 20,20 0 1 0 7175,12896.8A 20,20 0 1 0 7135,12896.8Z " />
<path stroke="none" fill="#0000ff" transform="matrix(0.05 0 0 0.05 -135 -579)" d="M 7225,12896.8 A 20,20 0 1 0 7265,12896.8A 20,20 0 1 0 7225,12896.8Z " />
<path stroke="#0000ff" stroke-width="32" fill="none" transform="matrix(0.05 0 0 0.05 -135 -579)" d="M 7129.18,12454.3 C 7121.82,12277.7 7012.62,12135.7 6885.45,12137.3 C 6781.26,12138.6 6688.15,12248.2 6671.12,12389.7 " />
<path stroke="none" fill="#0000ff" transform="matrix(0.05 0 0 0.05 -135 -579)" d="M 6688.01,12573 C 6688.01,12573 6603.13,12370.2 6603.13,12370.2 C 6603.13,12370.2 6642.11,12392.7 6671.12,12389.7 C 6700.13,12386.6 6734.23,12356.3 6734.23,12356.3 C 6734.23,12356.3 6688.01,12573 6688.01,12573 C 6688.01,12573 6688.01,12573 6688.01,12573 " />
<path stroke="#0000ff" stroke-width="1" fill="none" transform="matrix(0.05 0 0 0.05 -135 -579)" d="M 6688.01,12573 C 6688.01,12573 6603.13,12370.2 6603.13,12370.2 C 6603.13,12370.2 6642.11,12392.7 6671.12,12389.7 C 6700.13,12386.6 6734.23,12356.3 6734.23,12356.3 C 6734.23,12356.3 6688.01,12573 6688.01,12573 C 6688.01,12573 6688.01,12573 6688.01,12573 " />
<path stroke="#0000ff" stroke-width="26" fill="none" transform="matrix(0.05 0 0 0.05 -135 -579)" d="M 11033.8,12518.6 A 92.7999,92.7999 0 1 0 11219.4,12518.6A 92.7999,92.7999 0 1 0 11033.8,12518.6Z " />
<path stroke="none" fill="#0000ff" transform="matrix(0.05 0 0 0.05 -135 -579)" d="M 11070.6,12505.6 L 11182.6,12505.6 L 11182.6,12531.6 L 11070.6,12531.6 Z " />
<path stroke="none" fill="#0000ff" transform="matrix(0.05 0 0 0.05 -135 -579)" d="M 11139.6,12462.6 L 11139.6,12574.6 L 11113.6,12574.6 L 11113.6,12462.6 Z " />
<text x="0" y="0" stroke="none" fill="#0000ff" transform="matrix(0.05 0 0 0.05 274.996 74.2583)" font-style="normal" font-weight="normal" font-size="320px" font-family="Helvetica" >
-H</text>
<text x="0" y="0" stroke="none" fill="#0000ff" transform="matrix(0.05 0 0 0.05 291.879 77.938)" font-style="normal" font-weight="normal" font-size="240px" font-family="Helvetica" >
2</text>
<text x="0" y="0" stroke="none" fill="#0000ff" transform="matrix(0.05 0 0 0.05 298.553 74.2583)" font-style="normal" font-weight="normal" font-size="320px" font-family="Helvetica" >
O</text>
<path stroke="none" fill="#0000ff" transform="matrix(0.05 0 0 0.05 -135 -579)" d="M 13061,12741.2 L 12140,12741.2 L 12140,12709.2 L 13061,12709.2 Z " />
<path stroke="none" fill="#0000ff" transform="matrix(0.05 0 0 0.05 -135 -579)" d="M 13340,12725.2 C 13340,12725.2 13020,12806.2 13020,12806.2 C 13020,12806.2 13060,12760.6 13060,12725.2 C 13060,12689.3 13020,12643.2 13020,12643.2 C 13020,12643.2 13340,12725.2 13340,12725.2 C 13340,12725.2 13340,12725.2 13340,12725.2 " />
<path stroke="#0000ff" stroke-width="1" fill="none" transform="matrix(0.05 0 0 0.05 -135 -579)" d="M 13340,12725.2 C 13340,12725.2 13020,12806.2 13020,12806.2 C 13020,12806.2 13060,12760.6 13060,12725.2 C 13060,12689.3 13020,12643.2 13020,12643.2 C 13020,12643.2 13340,12725.2 13340,12725.2 C 13340,12725.2 13340,12725.2 13340,12725.2 " />
<text x="0" y="0" stroke="none" fill="#0000ff" transform="matrix(0.05 0 0 0.05 476.883 47.2583)" font-style="normal" font-weight="normal" font-size="320px" font-family="Helvetica" >
H</text>
<text x="0" y="0" stroke="none" fill="#0000ff" transform="matrix(0.05 0 0 0.05 488.437 50.938)" font-style="normal" font-weight="normal" font-size="240px" font-family="Helvetica" >
2</text>
<text x="0" y="0" stroke="none" fill="#0000ff" transform="matrix(0.05 0 0 0.05 495.111 47.2583)" font-style="normal" font-weight="normal" font-size="320px" font-family="Helvetica" >
O</text>
<path stroke="none" fill="#0000ff" transform="matrix(0.05 0 0 0.05 -135 -579)" d="M 12898.2,12452.2 A 20,20 0 1 0 12938.2,12452.2A 20,20 0 1 0 12898.2,12452.2Z " />
<path stroke="none" fill="#0000ff" transform="matrix(0.05 0 0 0.05 -135 -579)" d="M 12898.2,12362.2 A 20,20 0 1 0 12938.2,12362.2A 20,20 0 1 0 12898.2,12362.2Z " />
<path stroke="#0000ff" stroke-width="32" fill="none" transform="matrix(0.05 0 0 0.05 -135 -579)" d="M 12719.5,12174.1 C 12608.5,11830.1 11978.8,11597.4 11313.9,11654.8 C 10713.4,11706.7 10250.1,12013.3 10297.5,12327.4 " />
<path stroke="none" fill="#0000ff" transform="matrix(0.05 0 0 0.05 -135 -579)" d="M 10396.6,12532 C 10396.6,12532 10223.9,12327.5 10223.9,12327.5 C 10223.9,12327.5 10271.1,12340.5 10297.5,12327.4 C 10323.9,12314.4 10342.8,12268.9 10342.8,12268.9 C 10342.8,12268.9 10396.6,12532 10396.6,12532 C 10396.6,12532 10396.6,12532 10396.6,12532 " />
<path stroke="#0000ff" stroke-width="1" fill="none" transform="matrix(0.05 0 0 0.05 -135 -579)" d="M 10396.6,12532 C 10396.6,12532 10223.9,12327.5 10223.9,12327.5 C 10223.9,12327.5 10271.1,12340.5 10297.5,12327.4 C 10323.9,12314.4 10342.8,12268.9 10342.8,12268.9 C 10342.8,12268.9 10396.6,12532 10396.6,12532 C 10396.6,12532 10396.6,12532 10396.6,12532 " />
<path stroke="#0000ff" stroke-width="32" fill="none" transform="matrix(0.05 0 0 0.05 -135 -579)" d="M 10440,12825.2 C 10307.5,12957.7 10307.5,13172.7 10440,13305.2 C 10572.5,13437.7 10787.5,13437.7 10920,13305.2 C 10991.9,13233.3 11028.7,13128.1 11017.2,13027 " />
<path stroke="none" fill="#0000ff" transform="matrix(0.05 0 0 0.05 -135 -579)" d="M 10920,12825.2 C 10920,12825.2 11089.8,13027 11089.8,13027 C 11089.8,13027 11042.9,13014.4 11017.2,13027 C 10991.6,13039.6 10972.5,13084.6 10972.5,13084.6 C 10972.5,13084.6 10920,12825.2 10920,12825.2 C 10920,12825.2 10920,12825.2 10920,12825.2 " />
<path stroke="#0000ff" stroke-width="1" fill="none" transform="matrix(0.05 0 0 0.05 -135 -579)" d="M 10920,12825.2 C 10920,12825.2 11089.8,13027 11089.8,13027 C 11089.8,13027 11042.9,13014.4 11017.2,13027 C 10991.6,13039.6 10972.5,13084.6 10972.5,13084.6 C 10972.5,13084.6 10920,12825.2 10920,12825.2 C 10920,12825.2 10920,12825.2 10920,12825.2 " />
<text x="0" y="0" stroke="none" fill="#0000ff" transform="matrix(0.05 0 0 0.05 592.667 59.5637)" font-style="normal" font-weight="normal" font-size="240px" font-family="Helvetica" >
N</text>
<path stroke="none" fill="#0000ff" transform="matrix(0.05 0 0 0.05 -135 -579)" d="M 14048.9,12700.6 L 14040,12685.2 L 14048.9,12669.8 L 14530.6,12669.2 L 14530.6,12701.2 L 14048.9,12700.6 Z " />
<path stroke="none" fill="#0000ff" transform="matrix(0.05 0 0 0.05 -135 -579)" d="M 14092,12611.2 L 14092,12579.2 L 14530.6,12579.2 L 14530.6,12611.2 L 14092,12611.2 Z " />
<text x="0" y="0" stroke="none" fill="#0000ff" transform="matrix(0.05 0 0 0.05 538.667 33.5837)" font-style="normal" font-weight="normal" font-size="240px" font-family="Helvetica" >
HO</text>
<path stroke="none" fill="#0000ff" transform="matrix(0.05 0 0 0.05 -135 -579)" d="M 14048.9,12669.8 L 14040,12685.2 L 14022.2,12685.2 L 13792.5,12288.6 L 13820.2,12272.6 L 14048.9,12669.8 Z " />
<text x="0" y="0" stroke="none" fill="#0000ff" transform="matrix(0.05 0 0 0.05 549.335 85.5437)" font-style="normal" font-weight="normal" font-size="240px" font-family="Helvetica" >
R</text>
<text x="0" y="0" stroke="none" fill="#0000ff" transform="matrix(0.05 0 0 0.05 558.001 88.3035)" font-style="normal" font-weight="normal" font-size="180px" font-family="Helvetica" >
1</text>
<path stroke="none" fill="#0000ff" transform="matrix(0.05 0 0 0.05 -135 -579)" d="M 14022.2,12685.2 L 14040,12685.2 L 14048.9,12700.6 L 13820.8,13096.9 L 13793.1,13080.9 L 14022.2,12685.2 Z " />
<text x="0" y="0" stroke="none" fill="#0000ff" transform="matrix(0.05 0 0 0.05 607.667 33.5837)" font-style="normal" font-weight="normal" font-size="240px" font-family="Helvetica" >
R</text>
<text x="0" y="0" stroke="none" fill="#0000ff" transform="matrix(0.05 0 0 0.05 616.333 36.3435)" font-style="normal" font-weight="normal" font-size="180px" font-family="Helvetica" >
2</text>
<path stroke="none" fill="#0000ff" transform="matrix(0.05 0 0 0.05 -135 -579)" d="M 14728.7,12563.5 L 14701,12547.5 L 14852.3,12285.5 L 14880,12301.5 L 14728.7,12563.5 Z " />
<text x="0" y="0" stroke="none" fill="#0000ff" transform="matrix(0.05 0 0 0.05 767.667 57.5637)" font-style="normal" font-weight="normal" font-size="240px" font-family="Helvetica" >
NH</text>
<path stroke="none" fill="#0000ff" transform="matrix(0.05 0 0 0.05 -135 -579)" d="M 17548.9,12660.6 L 17530.4,12628.6 L 18030.6,12629.2 L 18030.6,12661.2 L 17548.9,12660.6 Z " />
<text x="0" y="0" stroke="none" fill="#0000ff" transform="matrix(0.05 0 0 0.05 722.333 31.5837)" font-style="normal" font-weight="normal" font-size="240px" font-family="Helvetica" >
O</text>
<path stroke="none" fill="#0000ff" transform="matrix(0.05 0 0 0.05 -135 -579)" d="M 17527.9,12682.2 L 17500.2,12698.2 L 17253.5,12271 L 17281.2,12255 L 17527.9,12682.2 Z " />
<path stroke="none" fill="#0000ff" transform="matrix(0.05 0 0 0.05 -135 -579)" d="M 17605.8,12637.2 L 17578.1,12653.2 L 17331.5,12226 L 17359.2,12210 L 17605.8,12637.2 Z " />
<text x="0" y="0" stroke="none" fill="#0000ff" transform="matrix(0.05 0 0 0.05 724.335 83.5437)" font-style="normal" font-weight="normal" font-size="240px" font-family="Helvetica" >
R</text>
<text x="0" y="0" stroke="none" fill="#0000ff" transform="matrix(0.05 0 0 0.05 733.001 86.3035)" font-style="normal" font-weight="normal" font-size="180px" font-family="Helvetica" >
1</text>
<path stroke="none" fill="#0000ff" transform="matrix(0.05 0 0 0.05 -135 -579)" d="M 17530.4,12628.6 L 17548.9,12660.6 L 17320.8,13056.9 L 17293.1,13040.9 L 17530.4,12628.6 Z " />
<text x="0" y="0" stroke="none" fill="#0000ff" transform="matrix(0.05 0 0 0.05 782.667 31.5837)" font-style="normal" font-weight="normal" font-size="240px" font-family="Helvetica" >
R</text>
<text x="0" y="0" stroke="none" fill="#0000ff" transform="matrix(0.05 0 0 0.05 791.333 34.3435)" font-style="normal" font-weight="normal" font-size="180px" font-family="Helvetica" >
2</text>
<path stroke="none" fill="#0000ff" transform="matrix(0.05 0 0 0.05 -135 -579)" d="M 18240.2,12503.6 L 18212.5,12487.6 L 18352.3,12245.5 L 18380,12261.5 L 18240.2,12503.6 Z " />
<path stroke="none" fill="#0000ff" transform="matrix(0.05 0 0 0.05 -135 -579)" d="M 16389,12653.2 L 15620,12653.2 L 15620,12621.2 L 16389,12621.2 Z " />
<path stroke="none" fill="#0000ff" transform="matrix(0.05 0 0 0.05 -135 -579)" d="M 15851,12717.2 L 16620,12717.2 L 16620,12749.2 L 15851,12749.2 Z " />
<path stroke="none" fill="#0000ff" transform="matrix(0.05 0 0 0.05 -135 -579)" d="M 16668,12653.2 C 16668,12653.2 16388,12653.2 16388,12653.2 C 16388,12601.3 16348,12555.2 16348,12555.2 C 16348,12555.2 16668,12653.2 16668,12653.2 C 16668,12653.2 16668,12653.2 16668,12653.2 " />
<path stroke="#0000ff" stroke-width="1" fill="none" transform="matrix(0.05 0 0 0.05 -135 -579)" d="M 16668,12653.2 C 16668,12653.2 16388,12653.2 16388,12653.2 C 16388,12601.3 16348,12555.2 16348,12555.2 C 16348,12555.2 16668,12653.2 16668,12653.2 C 16668,12653.2 16668,12653.2 16668,12653.2 " />
<path stroke="none" fill="#0000ff" transform="matrix(0.05 0 0 0.05 -135 -579)" d="M 15572,12717.2 C 15572,12717.2 15892,12815.2 15892,12815.2 C 15892,12815.2 15852,12737.1 15852,12717.2 C 15852,12717.2 15572,12717.2 15572,12717.2 C 15572,12717.2 15572,12717.2 15572,12717.2 " />
<path stroke="#0000ff" stroke-width="1" fill="none" transform="matrix(0.05 0 0 0.05 -135 -579)" d="M 15572,12717.2 C 15572,12717.2 15892,12815.2 15892,12815.2 C 15892,12815.2 15852,12737.1 15852,12717.2 C 15852,12717.2 15572,12717.2 15572,12717.2 C 15572,12717.2 15572,12717.2 15572,12717.2 " />
<path stroke="none" fill="#0000ff" transform="matrix(0.05 0 0 0.05 -135 -579)" d="M 10604,14261 L 10604,13640 L 10636,13640 L 10636,14261 Z " />
<path stroke="none" fill="#0000ff" transform="matrix(0.05 0 0 0.05 -135 -579)" d="M 10620,14540 C 10620,14540 10538,14220 10538,14220 C 10538,14220 10584.1,14260 10620,14260 C 10655.4,14260 10701,14220 10701,14220 C 10701,14220 10620,14540 10620,14540 C 10620,14540 10620,14540 10620,14540 " />
<path stroke="#0000ff" stroke-width="1" fill="none" transform="matrix(0.05 0 0 0.05 -135 -579)" d="M 10620,14540 C 10620,14540 10538,14220 10538,14220 C 10538,14220 10584.1,14260 10620,14260 C 10655.4,14260 10701,14220 10701,14220 C 10701,14220 10620,14540 10620,14540 C 10620,14540 10620,14540 10620,14540 " />
<text x="0" y="0" stroke="none" fill="#0000ff" transform="matrix(0.05 0 0 0.05 412 125)" font-style="normal" font-weight="normal" font-size="320px" font-family="Helvetica" >
R</text>
<text x="0" y="0" stroke="none" fill="#0000ff" transform="matrix(0.05 0 0 0.05 423.555 128.68)" font-style="normal" font-weight="normal" font-size="240px" font-family="Helvetica" >
2</text>
<text x="0" y="0" stroke="none" fill="#0000ff" transform="matrix(0.05 0 0 0.05 430.229 125)" font-style="normal" font-weight="normal" font-size="320px" font-family="Helvetica" >
= </text>
<text x="0" y="0" stroke="none" fill="#0000ff" transform="matrix(0.05 0 0 0.05 444.018 125)" font-style="normal" font-weight="normal" font-size="320px" font-family="Helvetica" >
H </text>
<text x="0" y="0" stroke="none" fill="#0000ff" transform="matrix(0.05 0 0 0.05 460.018 125)" font-style="normal" font-weight="normal" font-size="320px" font-family="Helvetica" >
/CMe</text>
<text x="0" y="0" stroke="none" fill="#0000ff" transform="matrix(0.05 0 0 0.05 498.244 128.68)" font-style="normal" font-weight="normal" font-size="240px" font-family="Helvetica" >
3</text>
<text x="0" y="0" stroke="none" fill="#0000ff" transform="matrix(0.05 0 0 0.05 504.918 125)" font-style="normal" font-weight="normal" font-size="320px" font-family="Helvetica" >
 </text>
<text x="0" y="0" stroke="none" fill="#0000ff" transform="matrix(0.05 0 0 0.05 509.363 125)" font-style="normal" font-weight="normal" font-size="320px" font-family="Helvetica" >
/CPh</text>
<text x="0" y="0" stroke="none" fill="#0000ff" transform="matrix(0.05 0 0 0.05 544.934 128.68)" font-style="normal" font-weight="normal" font-size="240px" font-family="Helvetica" >
3</text>
<text x="0" y="0" stroke="none" fill="#0000ff" transform="matrix(0.05 0 0 0.05 356.666 170.304)" font-style="normal" font-weight="normal" font-size="240px" font-family="Helvetica" >
R</text>
<text x="0" y="0" stroke="none" fill="#0000ff" transform="matrix(0.05 0 0 0.05 365.332 173.063)" font-style="normal" font-weight="normal" font-size="180px" font-family="Helvetica" >
1</text>
<path stroke="none" fill="#0000ff" transform="matrix(0.05 0 0 0.05 -135 -579)" d="M 10093.7,14916 L 10093.7,14884 L 10640,14884 L 10640,14916 L 10093.7,14916 Z " />
<text x="0" y="0" stroke="none" fill="#0000ff" transform="matrix(0.05 0 0 0.05 422.667 170.304)" font-style="normal" font-weight="normal" font-size="240px" font-family="Helvetica" >
N</text>
<path stroke="none" fill="#0000ff" transform="matrix(0.05 0 0 0.05 -135 -579)" d="M 10640,14826 L 10640,14794 L 11130.6,14794 L 11130.6,14826 L 10640,14826 Z " />
<path stroke="none" fill="#0000ff" transform="matrix(0.05 0 0 0.05 -135 -579)" d="M 10640,14916 L 10640,14884 L 11130.6,14884 L 11130.6,14916 L 10640,14916 Z " />
<path stroke="none" fill="#0000ff" transform="matrix(0.05 0 0 0.05 -135 -579)" d="M 10640,15006 L 10640,14974 L 11130.6,14974 L 11130.6,15006 L 10640,15006 Z " />
<text x="0" y="0" stroke="none" fill="#0000ff" transform="matrix(0.05 0 0 0.05 443 171)" font-style="normal" font-weight="normal" font-size="320px" font-family="Helvetica" >
+ </text>
<text x="0" y="0" stroke="none" fill="#0000ff" transform="matrix(0.05 0 0 0.05 456.789 171)" font-style="normal" font-weight="normal" font-size="320px" font-family="Helvetica" >
 </text>
<text x="0" y="0" stroke="none" fill="#0000ff" transform="matrix(0.05 0 0 0.05 461.234 171)" font-style="normal" font-weight="normal" font-size="320px" font-family="Helvetica" >
H</text>
<text x="0" y="0" stroke="none" fill="#0000ff" transform="matrix(0.05 0 0 0.05 472.789 165.262)" font-style="normal" font-weight="normal" font-size="240px" font-family="Helvetica" >
+</text>
<text x="0" y="0" stroke="none" fill="#0000ff" transform="matrix(0.05 0 0 0.05 479.797 171)" font-style="normal" font-weight="normal" font-size="320px" font-family="Helvetica" >
 </text>
<text x="0" y="0" stroke="none" fill="#0000ff" transform="matrix(0.05 0 0 0.05 484.242 171)" font-style="normal" font-weight="normal" font-size="320px" font-family="Helvetica" >
/</text>
<text x="0" y="0" stroke="none" fill="#0000ff" transform="matrix(0.05 0 0 0.05 488.688 165.262)" font-style="normal" font-weight="normal" font-size="240px" font-family="Helvetica" >
+</text>
<text x="0" y="0" stroke="none" fill="#0000ff" transform="matrix(0.05 0 0 0.05 495.695 171)" font-style="normal" font-weight="normal" font-size="320px" font-family="Helvetica" >
CMe</text>
<text x="0" y="0" stroke="none" fill="#0000ff" transform="matrix(0.05 0 0 0.05 529.477 174.68)" font-style="normal" font-weight="normal" font-size="240px" font-family="Helvetica" >
3</text>
<text x="0" y="0" stroke="none" fill="#0000ff" transform="matrix(0.05 0 0 0.05 536.15 171)" font-style="normal" font-weight="normal" font-size="320px" font-family="Helvetica" >
 </text>
<text x="0" y="0" stroke="none" fill="#0000ff" transform="matrix(0.05 0 0 0.05 540.596 171)" font-style="normal" font-weight="normal" font-size="320px" font-family="Helvetica" >
/</text>
<text x="0" y="0" stroke="none" fill="#0000ff" transform="matrix(0.05 0 0 0.05 545.041 165.262)" font-style="normal" font-weight="normal" font-size="240px" font-family="Helvetica" >
+</text>
<text x="0" y="0" stroke="none" fill="#0000ff" transform="matrix(0.05 0 0 0.05 552.049 171)" font-style="normal" font-weight="normal" font-size="320px" font-family="Helvetica" >
CPh</text>
<text x="0" y="0" stroke="none" fill="#0000ff" transform="matrix(0.05 0 0 0.05 583.174 174.68)" font-style="normal" font-weight="normal" font-size="240px" font-family="Helvetica" >
3</text>
</svg>
