<?xml version="1.0" standalone="no" ?>
<!DOCTYPE svg PUBLIC "-//W3C//DTD SVG 1.1//EN" "http://www.w3.org/Graphics/SVG/1.1/DTD/svg11.dtd">
<svg width="1423px" height="508px" viewBox="0 0 1423 508" style="background-color: #ffffff00" xmlns="http://www.w3.org/2000/svg" xmlns:xlink="http://www.w3.org/1999/xlink" version="1.1" >
<text x="0" y="0" stroke="none" fill="#0000ff" transform="matrix(0.05 0 0 0.05 61.837 217.954)" font-style="normal" font-weight="normal" font-size="240px" font-family="Helvetica" >
C</text>
<text x="0" y="0" stroke="none" fill="#0000ff" transform="matrix(0.05 0 0 0.05 31.837 218.034)" font-style="normal" font-weight="normal" font-size="240px" font-family="Helvetica" >
N</text>
<path stroke="none" fill="#0000ff" transform="matrix(0.05 0 0 0.05 -132 -41)" d="M 3846.36,5122.31 L 3846.45,5154.31 L 3472.18,5155.31 L 3472.1,5123.31 L 3846.36,5122.31 Z " />
<path stroke="none" fill="#0000ff" transform="matrix(0.05 0 0 0.05 -132 -41)" d="M 3846.12,5032.31 L 3846.21,5064.31 L 3471.94,5065.31 L 3471.86,5033.31 L 3846.12,5032.31 Z " />
<text x="0" y="0" stroke="none" fill="#0000ff" transform="matrix(0.05 0 0 0.05 1.83699 217.994)" font-style="normal" font-weight="normal" font-size="240px" font-family="Helvetica" >
R</text>
<path stroke="none" fill="#0000ff" transform="matrix(0.05 0 0 0.05 -132 -41)" d="M 3254.04,5078.45 L 3254,5110.45 L 2880.81,5109.96 L 2880.85,5077.96 L 3254.04,5078.45 Z " />
<text x="0" y="0" stroke="none" fill="#0000ff" transform="matrix(0.05 0 0 0.05 91.503 217.654)" font-style="normal" font-weight="normal" font-size="240px" font-family="Helvetica" >
O</text>
<path stroke="none" fill="#0000ff" transform="matrix(0.05 0 0 0.05 -132 -41)" d="M 4078.99,5062.84 L 4078.67,5030.84 L 4438.84,5027.24 L 4439.16,5059.24 L 4078.99,5062.84 Z " />
<path stroke="none" fill="#0000ff" transform="matrix(0.05 0 0 0.05 -132 -41)" d="M 4079.89,5152.84 L 4079.57,5120.84 L 4439.74,5117.24 L 4440.06,5149.24 L 4079.89,5152.84 Z " />
<text x="0" y="0" stroke="none" fill="#0000ff" transform="matrix(0.05 0 0 0.05 5.62 247.9)" font-style="normal" font-weight="normal" font-size="320px" font-family="Helvetica" >
(Isocyanate)</text>
<path stroke="none" fill="#0000ff" transform="matrix(0.05 0 0 0.05 -132 -41)" d="M 7233.4,2954 L 5932.4,2954 L 5932.4,2922 L 7233.4,2922 Z " />
<path stroke="none" fill="#0000ff" transform="matrix(0.05 0 0 0.05 -132 -41)" d="M 7512.4,2938 C 7512.4,2938 7192.4,3019 7192.4,3019 C 7192.4,3019 7232.4,2973.44 7232.4,2938 C 7232.4,2902.13 7192.4,2856 7192.4,2856 C 7192.4,2856 7512.4,2938 7512.4,2938 C 7512.4,2938 7512.4,2938 7512.4,2938 " />
<path stroke="#0000ff" stroke-width="1" fill="none" transform="matrix(0.05 0 0 0.05 -132 -41)" d="M 7512.4,2938 C 7512.4,2938 7192.4,3019 7192.4,3019 C 7192.4,3019 7232.4,2973.44 7232.4,2938 C 7232.4,2902.13 7192.4,2856 7192.4,2856 C 7192.4,2856 7512.4,2938 7512.4,2938 C 7512.4,2938 7512.4,2938 7512.4,2938 " />
<text x="0" y="0" stroke="none" fill="#0000ff" transform="matrix(0.05 0 0 0.05 179.623 98.8983)" font-style="normal" font-weight="normal" font-size="320px" font-family="Helvetica" >
H</text>
<text x="0" y="0" stroke="none" fill="#0000ff" transform="matrix(0.05 0 0 0.05 191.177 102.578)" font-style="normal" font-weight="normal" font-size="240px" font-family="Helvetica" >
2</text>
<text x="0" y="0" stroke="none" fill="#0000ff" transform="matrix(0.05 0 0 0.05 197.851 98.8983)" font-style="normal" font-weight="normal" font-size="320px" font-family="Helvetica" >
O</text>
<path stroke="none" fill="#0000ff" transform="matrix(0.05 0 0 0.05 -132 -41)" d="M 6741.99,2486.8 A 20.0049,20.0049 0 1 0 6782,2486.8A 20.0049,20.0049 0 1 0 6741.99,2486.8Z " />
<path stroke="none" fill="#0000ff" transform="matrix(0.05 0 0 0.05 -132 -41)" d="M 6651.99,2488.8 A 20.0049,20.0049 0 1 0 6692,2488.8A 20.0049,20.0049 0 1 0 6651.99,2488.8Z " />
<path stroke="none" fill="#0000ff" transform="matrix(0.05 0 0 0.05 -132 -41)" d="M 5892.4,5114 L 4932.4,5114 L 4932.4,5082 L 5892.4,5082 Z " />
<path stroke="none" fill="#0000ff" transform="matrix(0.05 0 0 0.05 -132 -41)" d="M 5896.4,7278 L 5916.4,2938 L 5948.4,2938 L 5928.4,7278 Z " />
<text x="0" y="0" stroke="none" fill="#0000ff" transform="matrix(0.05 0 0 0.05 464.727 106.554)" font-style="normal" font-weight="normal" font-size="240px" font-family="Helvetica" >
R</text>
<text x="0" y="0" stroke="none" fill="#0000ff" transform="matrix(0.05 0 0 0.05 490.707 121.554)" font-style="normal" font-weight="normal" font-size="240px" font-family="Helvetica" >
N</text>
<text x="0" y="0" stroke="none" fill="#0000ff" transform="matrix(0.05 0 0 0.05 490.707 131.587)" font-style="normal" font-weight="normal" font-size="240px" font-family="Helvetica" >
H</text>
<path stroke="none" fill="#0000ff" transform="matrix(0.05 0 0 0.05 -132 -41)" d="M 12143.1,2953.87 L 12159.1,2926.16 L 12424.9,3079.58 L 12408.9,3107.29 L 12143.1,2953.87 Z " />
<path stroke="none" fill="#0000ff" transform="matrix(0.05 0 0 0.05 -132 -41)" d="M 12672.2,3107.62 L 12656.2,3079.91 L 13060.4,2845.76 L 13060.4,2882.77 L 12672.2,3107.62 Z " />
<text x="0" y="0" stroke="none" fill="#0000ff" transform="matrix(0.05 0 0 0.05 542.333 121.554)" font-style="normal" font-weight="normal" font-size="240px" font-family="Helvetica" >
O</text>
<path stroke="none" fill="#0000ff" transform="matrix(0.05 0 0 0.05 -132 -41)" d="M 13060.4,2882.77 L 13060.4,2845.76 L 13477.4,3087.31 L 13461.4,3115.02 L 13060.4,2882.77 Z " />
<text x="0" y="0" stroke="none" fill="#0000ff" transform="matrix(0.05 0 0 0.05 568.647 106.554)" font-style="normal" font-weight="normal" font-size="240px" font-family="Helvetica" >
H</text>
<path stroke="none" fill="#0000ff" transform="matrix(0.05 0 0 0.05 -132 -41)" d="M 13699.7,3114.38 L 13683.7,3086.66 L 13968.6,2922.17 L 13984.6,2949.88 L 13699.7,3114.38 Z " />
<text x="0" y="0" stroke="none" fill="#0000ff" transform="matrix(0.05 0 0 0.05 516.353 76.5537)" font-style="normal" font-weight="normal" font-size="240px" font-family="Helvetica" >
O</text>
<path stroke="none" fill="#0000ff" transform="matrix(0.05 0 0 0.05 -132 -41)" d="M 13031.4,2890.98 L 12999.4,2890.98 L 12999.4,2398.58 L 13031.4,2398.58 L 13031.4,2890.98 Z " />
<path stroke="none" fill="#0000ff" transform="matrix(0.05 0 0 0.05 -132 -41)" d="M 13121.4,2890.98 L 13089.4,2890.98 L 13089.4,2398.58 L 13121.4,2398.58 L 13121.4,2890.98 Z " />
<text x="0" y="0" stroke="none" fill="#0000ff" transform="matrix(0.05 0 0 0.05 267.287 110.554)" font-style="normal" font-weight="normal" font-size="240px" font-family="Helvetica" >
R</text>
<text x="0" y="0" stroke="none" fill="#0000ff" transform="matrix(0.05 0 0 0.05 293.267 125.554)" font-style="normal" font-weight="normal" font-size="240px" font-family="Helvetica" >
N</text>
<path stroke="none" fill="#0000ff" transform="matrix(0.05 0 0 0.05 -132 -41)" d="M 8194.32,3033.87 L 8210.32,3006.16 L 8476.05,3159.58 L 8460.05,3187.29 L 8194.32,3033.87 Z " />
<path stroke="none" fill="#0000ff" transform="matrix(0.05 0 0 0.05 -132 -41)" d="M 8723.38,3187.62 L 8707.38,3159.91 L 9096.21,2936.13 L 9111.6,2945 L 9111.58,2962.77 L 8723.38,3187.62 Z " />
<path stroke="none" fill="#0000ff" transform="matrix(0.05 0 0 0.05 -132 -41)" d="M 8678.38,3109.68 L 8662.38,3081.97 L 9013.6,2879.18 L 9029.6,2906.9 L 8678.38,3109.68 Z " />
<text x="0" y="0" stroke="none" fill="#0000ff" transform="matrix(0.05 0 0 0.05 344.893 125.554)" font-style="normal" font-weight="normal" font-size="240px" font-family="Helvetica" >
O</text>
<path stroke="none" fill="#0000ff" transform="matrix(0.05 0 0 0.05 -132 -41)" d="M 9111.58,2962.77 L 9111.6,2945 L 9126.99,2936.1 L 9528.64,3167.31 L 9512.64,3195.02 L 9111.58,2962.77 Z " />
<text x="0" y="0" stroke="none" fill="#0000ff" transform="matrix(0.05 0 0 0.05 371.207 110.554)" font-style="normal" font-weight="normal" font-size="240px" font-family="Helvetica" >
H</text>
<path stroke="none" fill="#0000ff" transform="matrix(0.05 0 0 0.05 -132 -41)" d="M 9750.88,3194.38 L 9734.88,3166.66 L 10019.8,3002.17 L 10035.8,3029.88 L 9750.88,3194.38 Z " />
<text x="0" y="0" stroke="none" fill="#0000ff" transform="matrix(0.05 0 0 0.05 318.913 80.5537)" font-style="normal" font-weight="normal" font-size="240px" font-family="Helvetica" >
O</text>
<path stroke="none" fill="#0000ff" transform="matrix(0.05 0 0 0.05 -132 -41)" d="M 9126.99,2936.1 L 9111.6,2945 L 9096.21,2936.13 L 9095.6,2478.58 L 9127.6,2478.58 L 9126.99,2936.1 Z " />
<text x="0" y="0" stroke="none" fill="#0000ff" transform="matrix(0.05 0 0 0.05 345.227 155.554)" font-style="normal" font-weight="normal" font-size="240px" font-family="Helvetica" >
H</text>
<path stroke="none" fill="#0000ff" transform="matrix(0.05 0 0 0.05 -132 -41)" d="M 9615.2,3378.58 L 9647.2,3378.58 L 9647.2,3717.93 L 9615.2,3717.93 L 9615.2,3378.58 Z " />
<path stroke="#0000ff" stroke-width="26" fill="none" transform="matrix(0.05 0 0 0.05 -132 -41)" d="M 9230.4,2236 A 92.7999,92.7999 0 1 0 9416,2236A 92.7999,92.7999 0 1 0 9230.4,2236Z " />
<path stroke="none" fill="#0000ff" transform="matrix(0.05 0 0 0.05 -132 -41)" d="M 9267.2,2223 L 9379.2,2223 L 9379.2,2249 L 9267.2,2249 Z " />
<path stroke="#0000ff" stroke-width="26" fill="none" transform="matrix(0.05 0 0 0.05 -132 -41)" d="M 9576,3010 A 92.7999,92.7999 0 1 0 9761.6,3010A 92.7999,92.7999 0 1 0 9576,3010Z " />
<path stroke="none" fill="#0000ff" transform="matrix(0.05 0 0 0.05 -132 -41)" d="M 9612.8,2997 L 9724.8,2997 L 9724.8,3023 L 9612.8,3023 Z " />
<path stroke="none" fill="#0000ff" transform="matrix(0.05 0 0 0.05 -132 -41)" d="M 9681.8,2954 L 9681.8,3066 L 9655.8,3066 L 9655.8,2954 Z " />
<path stroke="none" fill="#0000ff" transform="matrix(0.05 0 0 0.05 -132 -41)" d="M 7313.4,5114 L 5892.4,5114 L 5892.4,5082 L 7313.4,5082 Z " />
<path stroke="none" fill="#0000ff" transform="matrix(0.05 0 0 0.05 -132 -41)" d="M 7592.4,5098 C 7592.4,5098 7272.4,5179 7272.4,5179 C 7272.4,5179 7312.4,5133.44 7312.4,5098 C 7312.4,5062.13 7272.4,5016 7272.4,5016 C 7272.4,5016 7592.4,5098 7592.4,5098 C 7592.4,5098 7592.4,5098 7592.4,5098 " />
<path stroke="#0000ff" stroke-width="1" fill="none" transform="matrix(0.05 0 0 0.05 -132 -41)" d="M 7592.4,5098 C 7592.4,5098 7272.4,5179 7272.4,5179 C 7272.4,5179 7312.4,5133.44 7312.4,5098 C 7312.4,5062.13 7272.4,5016 7272.4,5016 C 7272.4,5016 7592.4,5098 7592.4,5098 C 7592.4,5098 7592.4,5098 7592.4,5098 " />
<text x="0" y="0" stroke="none" fill="#0000ff" transform="matrix(0.05 0 0 0.05 177.623 206.898)" font-style="normal" font-weight="normal" font-size="320px" font-family="Helvetica" >
ROH</text>
<path stroke="none" fill="#0000ff" transform="matrix(0.05 0 0 0.05 -132 -41)" d="M 6581.99,4626.8 A 20.0049,20.0049 0 1 0 6622,4626.8A 20.0049,20.0049 0 1 0 6581.99,4626.8Z " />
<path stroke="none" fill="#0000ff" transform="matrix(0.05 0 0 0.05 -132 -41)" d="M 6491.99,4628.8 A 20.0049,20.0049 0 1 0 6532,4628.8A 20.0049,20.0049 0 1 0 6491.99,4628.8Z " />
<text x="0" y="0" stroke="none" fill="#0000ff" transform="matrix(0.05 0 0 0.05 462.727 212.554)" font-style="normal" font-weight="normal" font-size="240px" font-family="Helvetica" >
R</text>
<text x="0" y="0" stroke="none" fill="#0000ff" transform="matrix(0.05 0 0 0.05 488.707 227.554)" font-style="normal" font-weight="normal" font-size="240px" font-family="Helvetica" >
N</text>
<text x="0" y="0" stroke="none" fill="#0000ff" transform="matrix(0.05 0 0 0.05 488.707 237.587)" font-style="normal" font-weight="normal" font-size="240px" font-family="Helvetica" >
H</text>
<path stroke="none" fill="#0000ff" transform="matrix(0.05 0 0 0.05 -132 -41)" d="M 12103.1,5073.87 L 12119.1,5046.16 L 12384.9,5199.58 L 12368.9,5227.29 L 12103.1,5073.87 Z " />
<path stroke="none" fill="#0000ff" transform="matrix(0.05 0 0 0.05 -132 -41)" d="M 12632.2,5227.62 L 12616.2,5199.91 L 13020.4,4965.76 L 13020.4,5002.77 L 12632.2,5227.62 Z " />
<text x="0" y="0" stroke="none" fill="#0000ff" transform="matrix(0.05 0 0 0.05 540.333 227.554)" font-style="normal" font-weight="normal" font-size="240px" font-family="Helvetica" >
O</text>
<path stroke="none" fill="#0000ff" transform="matrix(0.05 0 0 0.05 -132 -41)" d="M 13020.4,5002.77 L 13020.4,4965.76 L 13437.4,5207.31 L 13421.4,5235.02 L 13020.4,5002.77 Z " />
<text x="0" y="0" stroke="none" fill="#0000ff" transform="matrix(0.05 0 0 0.05 566.647 212.554)" font-style="normal" font-weight="normal" font-size="240px" font-family="Helvetica" >
R’</text>
<path stroke="none" fill="#0000ff" transform="matrix(0.05 0 0 0.05 -132 -41)" d="M 13659.7,5234.38 L 13643.7,5206.66 L 13929.1,5041.88 L 13945.1,5069.6 L 13659.7,5234.38 Z " />
<text x="0" y="0" stroke="none" fill="#0000ff" transform="matrix(0.05 0 0 0.05 514.353 182.554)" font-style="normal" font-weight="normal" font-size="240px" font-family="Helvetica" >
O</text>
<path stroke="none" fill="#0000ff" transform="matrix(0.05 0 0 0.05 -132 -41)" d="M 12991.4,5010.98 L 12959.4,5010.98 L 12959.4,4518.58 L 12991.4,4518.58 L 12991.4,5010.98 Z " />
<path stroke="none" fill="#0000ff" transform="matrix(0.05 0 0 0.05 -132 -41)" d="M 13081.4,5010.98 L 13049.4,5010.98 L 13049.4,4518.58 L 13081.4,4518.58 L 13081.4,5010.98 Z " />
<path stroke="none" fill="#0000ff" transform="matrix(0.05 0 0 0.05 -132 -41)" d="M 7373.4,7294 L 5912.4,7294 L 5912.4,7262 L 7373.4,7262 Z " />
<path stroke="none" fill="#0000ff" transform="matrix(0.05 0 0 0.05 -132 -41)" d="M 7652.4,7278 C 7652.4,7278 7332.4,7359 7332.4,7359 C 7332.4,7359 7372.4,7313.44 7372.4,7278 C 7372.4,7242.13 7332.4,7196 7332.4,7196 C 7332.4,7196 7652.4,7278 7652.4,7278 C 7652.4,7278 7652.4,7278 7652.4,7278 " />
<path stroke="#0000ff" stroke-width="1" fill="none" transform="matrix(0.05 0 0 0.05 -132 -41)" d="M 7652.4,7278 C 7652.4,7278 7332.4,7359 7332.4,7359 C 7332.4,7359 7372.4,7313.44 7372.4,7278 C 7372.4,7242.13 7332.4,7196 7332.4,7196 C 7332.4,7196 7652.4,7278 7652.4,7278 C 7652.4,7278 7652.4,7278 7652.4,7278 " />
<text x="0" y="0" stroke="none" fill="#0000ff" transform="matrix(0.05 0 0 0.05 169.623 316.898)" font-style="normal" font-weight="normal" font-size="320px" font-family="Helvetica" >
R’NH</text>
<text x="0" y="0" stroke="none" fill="#0000ff" transform="matrix(0.05 0 0 0.05 207.841 320.578)" font-style="normal" font-weight="normal" font-size="240px" font-family="Helvetica" >
2</text>
<path stroke="none" fill="#0000ff" transform="matrix(0.05 0 0 0.05 -132 -41)" d="M 6441.99,6806.8 A 20.0049,20.0049 0 1 0 6482,6806.8A 20.0049,20.0049 0 1 0 6441.99,6806.8Z " />
<path stroke="none" fill="#0000ff" transform="matrix(0.05 0 0 0.05 -132 -41)" d="M 6351.99,6808.8 A 20.0049,20.0049 0 1 0 6392,6808.8A 20.0049,20.0049 0 1 0 6351.99,6808.8Z " />
<text x="0" y="0" stroke="none" fill="#0000ff" transform="matrix(0.05 0 0 0.05 463.727 319.554)" font-style="normal" font-weight="normal" font-size="240px" font-family="Helvetica" >
R</text>
<text x="0" y="0" stroke="none" fill="#0000ff" transform="matrix(0.05 0 0 0.05 489.707 334.554)" font-style="normal" font-weight="normal" font-size="240px" font-family="Helvetica" >
N</text>
<text x="0" y="0" stroke="none" fill="#0000ff" transform="matrix(0.05 0 0 0.05 489.707 344.587)" font-style="normal" font-weight="normal" font-size="240px" font-family="Helvetica" >
H</text>
<path stroke="none" fill="#0000ff" transform="matrix(0.05 0 0 0.05 -132 -41)" d="M 12123.1,7213.87 L 12139.1,7186.16 L 12404.9,7339.58 L 12388.9,7367.29 L 12123.1,7213.87 Z " />
<path stroke="none" fill="#0000ff" transform="matrix(0.05 0 0 0.05 -132 -41)" d="M 12652.2,7367.62 L 12636.2,7339.91 L 13040.4,7105.75 L 13040.4,7142.76 L 12652.2,7367.62 Z " />
<text x="0" y="0" stroke="none" fill="#0000ff" transform="matrix(0.05 0 0 0.05 541.667 334.554)" font-style="normal" font-weight="normal" font-size="240px" font-family="Helvetica" >
N</text>
<text x="0" y="0" stroke="none" fill="#0000ff" transform="matrix(0.05 0 0 0.05 541.667 344.587)" font-style="normal" font-weight="normal" font-size="240px" font-family="Helvetica" >
H</text>
<path stroke="none" fill="#0000ff" transform="matrix(0.05 0 0 0.05 -132 -41)" d="M 13040.4,7142.76 L 13040.4,7105.75 L 13444.1,7339.58 L 13428.1,7367.29 L 13040.4,7142.76 Z " />
<text x="0" y="0" stroke="none" fill="#0000ff" transform="matrix(0.05 0 0 0.05 567.647 319.554)" font-style="normal" font-weight="normal" font-size="240px" font-family="Helvetica" >
R’</text>
<path stroke="none" fill="#0000ff" transform="matrix(0.05 0 0 0.05 -132 -41)" d="M 13691.4,7367.62 L 13675.4,7339.91 L 13949.1,7181.88 L 13965.1,7209.6 L 13691.4,7367.62 Z " />
<text x="0" y="0" stroke="none" fill="#0000ff" transform="matrix(0.05 0 0 0.05 515.353 289.554)" font-style="normal" font-weight="normal" font-size="240px" font-family="Helvetica" >
O</text>
<path stroke="none" fill="#0000ff" transform="matrix(0.05 0 0 0.05 -132 -41)" d="M 13011.4,7150.98 L 12979.4,7150.98 L 12979.4,6658.58 L 13011.4,6658.58 L 13011.4,7150.98 Z " />
<path stroke="none" fill="#0000ff" transform="matrix(0.05 0 0 0.05 -132 -41)" d="M 13101.4,7150.98 L 13069.4,7150.98 L 13069.4,6658.58 L 13101.4,6658.58 L 13101.4,7150.98 Z " />
<path stroke="#0000ff" stroke-width="32" fill="none" transform="matrix(0.05 0 0 0.05 -132 -41)" d="M 9334.67,2667.58 C 9450.35,2611.13 9498.43,2471.41 9441.98,2355.73 C 9422.34,2315.49 9390.86,2281.14 9352.47,2258.09 " />
<path stroke="none" fill="#0000ff" transform="matrix(0.05 0 0 0.05 -132 -41)" d="M 9112.33,2657.91 C 9112.33,2657.91 9370.19,2604.43 9370.19,2604.43 C 9370.19,2604.43 9336.3,2639.53 9334.67,2667.58 C 9333.03,2695.63 9362.67,2733.48 9362.67,2733.48 C 9362.67,2733.48 9112.33,2657.91 9112.33,2657.91 C 9112.33,2657.91 9112.33,2657.91 9112.33,2657.91 " />
<path stroke="#0000ff" stroke-width="1" fill="none" transform="matrix(0.05 0 0 0.05 -132 -41)" d="M 9112.33,2657.91 C 9112.33,2657.91 9370.19,2604.43 9370.19,2604.43 C 9370.19,2604.43 9336.3,2639.53 9334.67,2667.58 C 9333.03,2695.63 9362.67,2733.48 9362.67,2733.48 C 9362.67,2733.48 9112.33,2657.91 9112.33,2657.91 C 9112.33,2657.91 9112.33,2657.91 9112.33,2657.91 " />
<path stroke="#0000ff" stroke-width="32" fill="none" transform="matrix(0.05 0 0 0.05 -132 -41)" d="M 8827.95,3378.13 C 8954.97,3375.07 9055.59,3269.48 9052.53,3142.45 C 9051.47,3098.26 9037.35,3054.49 9012.39,3018.01 " />
<path stroke="none" fill="#0000ff" transform="matrix(0.05 0 0 0.05 -132 -41)" d="M 8632.41,3277.99 C 8632.41,3277.99 8885.49,3335.57 8885.49,3335.57 C 8885.49,3335.57 8840.65,3353.73 8827.95,3378.13 C 8815.24,3402.53 8826.27,3449.31 8826.27,3449.31 C 8826.27,3449.31 8632.41,3277.99 8632.41,3277.99 C 8632.41,3277.99 8632.41,3277.99 8632.41,3277.99 " />
<path stroke="#0000ff" stroke-width="1" fill="none" transform="matrix(0.05 0 0 0.05 -132 -41)" d="M 8632.41,3277.99 C 8632.41,3277.99 8885.49,3335.57 8885.49,3335.57 C 8885.49,3335.57 8840.65,3353.73 8827.95,3378.13 C 8815.24,3402.53 8826.27,3449.31 8826.27,3449.31 C 8826.27,3449.31 8632.41,3277.99 8632.41,3277.99 C 8632.41,3277.99 8632.41,3277.99 8632.41,3277.99 " />
<path stroke="none" fill="#0000ff" transform="matrix(0.05 0 0 0.05 -132 -41)" d="M 8527.6,3440.8 A 20,20 0 1 0 8567.6,3440.8A 20,20 0 1 0 8527.6,3440.8Z " />
<path stroke="none" fill="#0000ff" transform="matrix(0.05 0 0 0.05 -132 -41)" d="M 8617.6,3440.6 A 20,20 0 1 0 8657.6,3440.6A 20,20 0 1 0 8617.6,3440.6Z " />
<path stroke="#0000ff" stroke-width="32" fill="none" transform="matrix(0.05 0 0 0.05 -132 -41)" d="M 8612.42,3478.19 C 8742.26,3741.88 9047.26,3903.8 9338.42,3863.6 " />
<path stroke="none" fill="#0000ff" transform="matrix(0.05 0 0 0.05 -132 -41)" d="M 9552.59,3797.97 C 9552.59,3797.97 9327.57,3935.17 9327.57,3935.17 C 9327.57,3935.17 9347.06,3890.81 9338.42,3863.6 C 9329.78,3836.4 9288.07,3810.79 9288.07,3810.79 C 9288.07,3810.79 9552.59,3797.97 9552.59,3797.97 C 9552.59,3797.97 9552.59,3797.97 9552.59,3797.97 " />
<path stroke="#0000ff" stroke-width="1" fill="none" transform="matrix(0.05 0 0 0.05 -132 -41)" d="M 9552.59,3797.97 C 9552.59,3797.97 9327.57,3935.17 9327.57,3935.17 C 9327.57,3935.17 9347.06,3890.81 9338.42,3863.6 C 9329.78,3836.4 9288.07,3810.79 9288.07,3810.79 C 9288.07,3810.79 9552.59,3797.97 9552.59,3797.97 C 9552.59,3797.97 9552.59,3797.97 9552.59,3797.97 " />
<text x="0" y="0" stroke="none" fill="#0000ff" transform="matrix(0.05 0 0 0.05 267.287 213.554)" font-style="normal" font-weight="normal" font-size="240px" font-family="Helvetica" >
R</text>
<text x="0" y="0" stroke="none" fill="#0000ff" transform="matrix(0.05 0 0 0.05 293.267 228.554)" font-style="normal" font-weight="normal" font-size="240px" font-family="Helvetica" >
N</text>
<path stroke="none" fill="#0000ff" transform="matrix(0.05 0 0 0.05 -132 -41)" d="M 8194.32,5093.87 L 8210.32,5066.16 L 8476.05,5219.58 L 8460.05,5247.29 L 8194.32,5093.87 Z " />
<path stroke="none" fill="#0000ff" transform="matrix(0.05 0 0 0.05 -132 -41)" d="M 8723.38,5247.62 L 8707.38,5219.91 L 9096.21,4996.13 L 9111.6,5005 L 9111.58,5022.77 L 8723.38,5247.62 Z " />
<path stroke="none" fill="#0000ff" transform="matrix(0.05 0 0 0.05 -132 -41)" d="M 8678.38,5169.68 L 8662.38,5141.97 L 9013.6,4939.18 L 9029.6,4966.9 L 8678.38,5169.68 Z " />
<text x="0" y="0" stroke="none" fill="#0000ff" transform="matrix(0.05 0 0 0.05 344.893 228.554)" font-style="normal" font-weight="normal" font-size="240px" font-family="Helvetica" >
O</text>
<path stroke="none" fill="#0000ff" transform="matrix(0.05 0 0 0.05 -132 -41)" d="M 9111.58,5022.77 L 9111.6,5005 L 9126.99,4996.1 L 9528.64,5227.31 L 9512.64,5255.02 L 9111.58,5022.77 Z " />
<text x="0" y="0" stroke="none" fill="#0000ff" transform="matrix(0.05 0 0 0.05 371.207 213.554)" font-style="normal" font-weight="normal" font-size="240px" font-family="Helvetica" >
R’</text>
<path stroke="none" fill="#0000ff" transform="matrix(0.05 0 0 0.05 -132 -41)" d="M 9750.88,5254.38 L 9734.88,5226.66 L 10021,5061.45 L 10037,5089.16 L 9750.88,5254.38 Z " />
<text x="0" y="0" stroke="none" fill="#0000ff" transform="matrix(0.05 0 0 0.05 318.913 183.554)" font-style="normal" font-weight="normal" font-size="240px" font-family="Helvetica" >
O</text>
<path stroke="none" fill="#0000ff" transform="matrix(0.05 0 0 0.05 -132 -41)" d="M 9126.99,4996.1 L 9111.6,5005 L 9096.21,4996.13 L 9095.6,4538.58 L 9127.6,4538.58 L 9126.99,4996.1 Z " />
<text x="0" y="0" stroke="none" fill="#0000ff" transform="matrix(0.05 0 0 0.05 345.227 258.554)" font-style="normal" font-weight="normal" font-size="240px" font-family="Helvetica" >
H</text>
<path stroke="none" fill="#0000ff" transform="matrix(0.05 0 0 0.05 -132 -41)" d="M 9615.2,5438.58 L 9647.2,5438.58 L 9647.2,5777.93 L 9615.2,5777.93 L 9615.2,5438.58 Z " />
<path stroke="#0000ff" stroke-width="26" fill="none" transform="matrix(0.05 0 0 0.05 -132 -41)" d="M 9230.4,4296 A 92.7999,92.7999 0 1 0 9416,4296A 92.7999,92.7999 0 1 0 9230.4,4296Z " />
<path stroke="none" fill="#0000ff" transform="matrix(0.05 0 0 0.05 -132 -41)" d="M 9267.2,4283 L 9379.2,4283 L 9379.2,4309 L 9267.2,4309 Z " />
<path stroke="#0000ff" stroke-width="26" fill="none" transform="matrix(0.05 0 0 0.05 -132 -41)" d="M 9576,5070 A 92.7999,92.7999 0 1 0 9761.6,5070A 92.7999,92.7999 0 1 0 9576,5070Z " />
<path stroke="none" fill="#0000ff" transform="matrix(0.05 0 0 0.05 -132 -41)" d="M 9612.8,5057 L 9724.8,5057 L 9724.8,5083 L 9612.8,5083 Z " />
<path stroke="none" fill="#0000ff" transform="matrix(0.05 0 0 0.05 -132 -41)" d="M 9681.8,5014 L 9681.8,5126 L 9655.8,5126 L 9655.8,5014 Z " />
<path stroke="#0000ff" stroke-width="32" fill="none" transform="matrix(0.05 0 0 0.05 -132 -41)" d="M 9334.67,4727.58 C 9450.35,4671.13 9498.43,4531.41 9441.98,4415.73 C 9422.34,4375.49 9390.86,4341.14 9352.47,4318.09 " />
<path stroke="none" fill="#0000ff" transform="matrix(0.05 0 0 0.05 -132 -41)" d="M 9112.33,4717.91 C 9112.33,4717.91 9370.19,4664.43 9370.19,4664.43 C 9370.19,4664.43 9336.3,4699.53 9334.67,4727.58 C 9333.03,4755.63 9362.67,4793.48 9362.67,4793.48 C 9362.67,4793.48 9112.33,4717.91 9112.33,4717.91 C 9112.33,4717.91 9112.33,4717.91 9112.33,4717.91 " />
<path stroke="#0000ff" stroke-width="1" fill="none" transform="matrix(0.05 0 0 0.05 -132 -41)" d="M 9112.33,4717.91 C 9112.33,4717.91 9370.19,4664.43 9370.19,4664.43 C 9370.19,4664.43 9336.3,4699.53 9334.67,4727.58 C 9333.03,4755.63 9362.67,4793.48 9362.67,4793.48 C 9362.67,4793.48 9112.33,4717.91 9112.33,4717.91 C 9112.33,4717.91 9112.33,4717.91 9112.33,4717.91 " />
<path stroke="#0000ff" stroke-width="32" fill="none" transform="matrix(0.05 0 0 0.05 -132 -41)" d="M 8827.95,5438.13 C 8954.97,5435.07 9055.59,5329.48 9052.53,5202.45 C 9051.47,5158.26 9037.35,5114.49 9012.39,5078.01 " />
<path stroke="none" fill="#0000ff" transform="matrix(0.05 0 0 0.05 -132 -41)" d="M 8632.41,5337.99 C 8632.41,5337.99 8885.49,5395.57 8885.49,5395.57 C 8885.49,5395.57 8840.65,5413.73 8827.95,5438.13 C 8815.24,5462.53 8826.27,5509.31 8826.27,5509.31 C 8826.27,5509.31 8632.41,5337.99 8632.41,5337.99 C 8632.41,5337.99 8632.41,5337.99 8632.41,5337.99 " />
<path stroke="#0000ff" stroke-width="1" fill="none" transform="matrix(0.05 0 0 0.05 -132 -41)" d="M 8632.41,5337.99 C 8632.41,5337.99 8885.49,5395.57 8885.49,5395.57 C 8885.49,5395.57 8840.65,5413.73 8827.95,5438.13 C 8815.24,5462.53 8826.27,5509.31 8826.27,5509.31 C 8826.27,5509.31 8632.41,5337.99 8632.41,5337.99 C 8632.41,5337.99 8632.41,5337.99 8632.41,5337.99 " />
<path stroke="none" fill="#0000ff" transform="matrix(0.05 0 0 0.05 -132 -41)" d="M 8527.6,5500.8 A 20,20 0 1 0 8567.6,5500.8A 20,20 0 1 0 8527.6,5500.8Z " />
<path stroke="none" fill="#0000ff" transform="matrix(0.05 0 0 0.05 -132 -41)" d="M 8617.6,5500.6 A 20,20 0 1 0 8657.6,5500.6A 20,20 0 1 0 8617.6,5500.6Z " />
<path stroke="#0000ff" stroke-width="32" fill="none" transform="matrix(0.05 0 0 0.05 -132 -41)" d="M 8612.42,5538.19 C 8742.26,5801.88 9047.26,5963.8 9338.42,5923.6 " />
<path stroke="none" fill="#0000ff" transform="matrix(0.05 0 0 0.05 -132 -41)" d="M 9552.59,5857.97 C 9552.59,5857.97 9327.57,5995.17 9327.57,5995.17 C 9327.57,5995.17 9347.06,5950.81 9338.42,5923.6 C 9329.78,5896.4 9288.07,5870.79 9288.07,5870.79 C 9288.07,5870.79 9552.59,5857.97 9552.59,5857.97 C 9552.59,5857.97 9552.59,5857.97 9552.59,5857.97 " />
<path stroke="#0000ff" stroke-width="1" fill="none" transform="matrix(0.05 0 0 0.05 -132 -41)" d="M 9552.59,5857.97 C 9552.59,5857.97 9327.57,5995.17 9327.57,5995.17 C 9327.57,5995.17 9347.06,5950.81 9338.42,5923.6 C 9329.78,5896.4 9288.07,5870.79 9288.07,5870.79 C 9288.07,5870.79 9552.59,5857.97 9552.59,5857.97 C 9552.59,5857.97 9552.59,5857.97 9552.59,5857.97 " />
<text x="0" y="0" stroke="none" fill="#0000ff" transform="matrix(0.05 0 0 0.05 268.287 316.554)" font-style="normal" font-weight="normal" font-size="240px" font-family="Helvetica" >
R</text>
<text x="0" y="0" stroke="none" fill="#0000ff" transform="matrix(0.05 0 0 0.05 294.267 331.554)" font-style="normal" font-weight="normal" font-size="240px" font-family="Helvetica" >
N</text>
<path stroke="none" fill="#0000ff" transform="matrix(0.05 0 0 0.05 -132 -41)" d="M 8214.32,7153.87 L 8230.32,7126.16 L 8496.05,7279.58 L 8480.05,7307.29 L 8214.32,7153.87 Z " />
<path stroke="none" fill="#0000ff" transform="matrix(0.05 0 0 0.05 -132 -41)" d="M 8743.38,7307.62 L 8727.38,7279.91 L 9116.21,7056.13 L 9131.6,7065 L 9131.6,7082.76 L 8743.38,7307.62 Z " />
<path stroke="none" fill="#0000ff" transform="matrix(0.05 0 0 0.05 -132 -41)" d="M 8698.38,7229.68 L 8682.38,7201.97 L 9033.6,6999.18 L 9049.6,7026.9 L 8698.38,7229.68 Z " />
<text x="0" y="0" stroke="none" fill="#0000ff" transform="matrix(0.05 0 0 0.05 346.227 331.554)" font-style="normal" font-weight="normal" font-size="240px" font-family="Helvetica" >
N</text>
<path stroke="none" fill="#0000ff" transform="matrix(0.05 0 0 0.05 -132 -41)" d="M 9131.6,7082.76 L 9131.6,7065 L 9146.99,7056.13 L 9535.25,7279.58 L 9519.25,7307.29 L 9131.6,7082.76 Z " />
<text x="0" y="0" stroke="none" fill="#0000ff" transform="matrix(0.05 0 0 0.05 372.207 316.554)" font-style="normal" font-weight="normal" font-size="240px" font-family="Helvetica" >
R’</text>
<path stroke="none" fill="#0000ff" transform="matrix(0.05 0 0 0.05 -132 -41)" d="M 9782.58,7307.62 L 9766.58,7279.91 L 10041,7121.45 L 10057,7149.16 L 9782.58,7307.62 Z " />
<text x="0" y="0" stroke="none" fill="#0000ff" transform="matrix(0.05 0 0 0.05 319.913 286.554)" font-style="normal" font-weight="normal" font-size="240px" font-family="Helvetica" >
O</text>
<path stroke="none" fill="#0000ff" transform="matrix(0.05 0 0 0.05 -132 -41)" d="M 9146.99,7056.13 L 9131.6,7065 L 9116.21,7056.13 L 9115.6,6598.58 L 9147.6,6598.58 L 9146.99,7056.13 Z " />
<text x="0" y="0" stroke="none" fill="#0000ff" transform="matrix(0.05 0 0 0.05 346.227 361.554)" font-style="normal" font-weight="normal" font-size="240px" font-family="Helvetica" >
H</text>
<path stroke="none" fill="#0000ff" transform="matrix(0.05 0 0 0.05 -132 -41)" d="M 9635.2,7490.93 L 9667.2,7490.93 L 9667.2,7837.93 L 9635.2,7837.93 L 9635.2,7490.93 Z " />
<path stroke="#0000ff" stroke-width="26" fill="none" transform="matrix(0.05 0 0 0.05 -132 -41)" d="M 9250.4,6356 A 92.7999,92.7999 0 1 0 9436,6356A 92.7999,92.7999 0 1 0 9250.4,6356Z " />
<path stroke="none" fill="#0000ff" transform="matrix(0.05 0 0 0.05 -132 -41)" d="M 9287.2,6343 L 9399.2,6343 L 9399.2,6369 L 9287.2,6369 Z " />
<path stroke="#0000ff" stroke-width="32" fill="none" transform="matrix(0.05 0 0 0.05 -132 -41)" d="M 9354.67,6787.58 C 9470.35,6731.13 9518.43,6591.41 9461.98,6475.73 C 9442.34,6435.49 9410.86,6401.14 9372.47,6378.09 " />
<path stroke="none" fill="#0000ff" transform="matrix(0.05 0 0 0.05 -132 -41)" d="M 9132.33,6777.91 C 9132.33,6777.91 9390.19,6724.43 9390.19,6724.43 C 9390.19,6724.43 9356.3,6759.53 9354.67,6787.58 C 9353.03,6815.63 9382.67,6853.48 9382.67,6853.48 C 9382.67,6853.48 9132.33,6777.91 9132.33,6777.91 C 9132.33,6777.91 9132.33,6777.91 9132.33,6777.91 " />
<path stroke="#0000ff" stroke-width="1" fill="none" transform="matrix(0.05 0 0 0.05 -132 -41)" d="M 9132.33,6777.91 C 9132.33,6777.91 9390.19,6724.43 9390.19,6724.43 C 9390.19,6724.43 9356.3,6759.53 9354.67,6787.58 C 9353.03,6815.63 9382.67,6853.48 9382.67,6853.48 C 9382.67,6853.48 9132.33,6777.91 9132.33,6777.91 C 9132.33,6777.91 9132.33,6777.91 9132.33,6777.91 " />
<path stroke="#0000ff" stroke-width="32" fill="none" transform="matrix(0.05 0 0 0.05 -132 -41)" d="M 8847.95,7498.13 C 8974.97,7495.07 9075.59,7389.48 9072.53,7262.45 C 9071.47,7218.26 9057.35,7174.49 9032.39,7138.01 " />
<path stroke="none" fill="#0000ff" transform="matrix(0.05 0 0 0.05 -132 -41)" d="M 8652.41,7397.99 C 8652.41,7397.99 8905.49,7455.57 8905.49,7455.57 C 8905.49,7455.57 8860.65,7473.73 8847.95,7498.13 C 8835.24,7522.53 8846.27,7569.31 8846.27,7569.31 C 8846.27,7569.31 8652.41,7397.99 8652.41,7397.99 C 8652.41,7397.99 8652.41,7397.99 8652.41,7397.99 " />
<path stroke="#0000ff" stroke-width="1" fill="none" transform="matrix(0.05 0 0 0.05 -132 -41)" d="M 8652.41,7397.99 C 8652.41,7397.99 8905.49,7455.57 8905.49,7455.57 C 8905.49,7455.57 8860.65,7473.73 8847.95,7498.13 C 8835.24,7522.53 8846.27,7569.31 8846.27,7569.31 C 8846.27,7569.31 8652.41,7397.99 8652.41,7397.99 C 8652.41,7397.99 8652.41,7397.99 8652.41,7397.99 " />
<path stroke="none" fill="#0000ff" transform="matrix(0.05 0 0 0.05 -132 -41)" d="M 8547.6,7560.8 A 20,20 0 1 0 8587.6,7560.8A 20,20 0 1 0 8547.6,7560.8Z " />
<path stroke="none" fill="#0000ff" transform="matrix(0.05 0 0 0.05 -132 -41)" d="M 8637.6,7560.6 A 20,20 0 1 0 8677.6,7560.6A 20,20 0 1 0 8637.6,7560.6Z " />
<path stroke="#0000ff" stroke-width="32" fill="none" transform="matrix(0.05 0 0 0.05 -132 -41)" d="M 8632.42,7598.19 C 8762.26,7861.88 9067.26,8023.8 9358.42,7983.6 " />
<path stroke="none" fill="#0000ff" transform="matrix(0.05 0 0 0.05 -132 -41)" d="M 9572.59,7917.97 C 9572.59,7917.97 9347.57,8055.17 9347.57,8055.17 C 9347.57,8055.17 9367.06,8010.81 9358.42,7983.6 C 9349.78,7956.4 9308.07,7930.79 9308.07,7930.79 C 9308.07,7930.79 9572.59,7917.97 9572.59,7917.97 C 9572.59,7917.97 9572.59,7917.97 9572.59,7917.97 " />
<path stroke="#0000ff" stroke-width="1" fill="none" transform="matrix(0.05 0 0 0.05 -132 -41)" d="M 9572.59,7917.97 C 9572.59,7917.97 9347.57,8055.17 9347.57,8055.17 C 9347.57,8055.17 9367.06,8010.81 9358.42,7983.6 C 9349.78,7956.4 9308.07,7930.79 9308.07,7930.79 C 9308.07,7930.79 9572.59,7917.97 9572.59,7917.97 C 9572.59,7917.97 9572.59,7917.97 9572.59,7917.97 " />
<text x="0" y="0" stroke="none" fill="#0000ff" transform="matrix(0.05 0 0 0.05 367.077 353.124)" font-style="normal" font-weight="normal" font-size="240px" font-family="Helvetica" >
H</text>
<path stroke="none" fill="#0000ff" transform="matrix(0.05 0 0 0.05 -132 -41)" d="M 9743.58,7483.59 L 9766.59,7461.35 L 9975.16,7677.13 L 9952.15,7699.37 L 9743.58,7483.59 Z " />
<path stroke="#0000ff" stroke-width="26" fill="none" transform="matrix(0.05 0 0 0.05 -132 -41)" d="M 9580.4,7130.4 A 92.7999,92.7999 0 1 0 9766,7130.4A 92.7999,92.7999 0 1 0 9580.4,7130.4Z " />
<path stroke="none" fill="#0000ff" transform="matrix(0.05 0 0 0.05 -132 -41)" d="M 9617.2,7117.4 L 9729.2,7117.4 L 9729.2,7143.4 L 9617.2,7143.4 Z " />
<path stroke="none" fill="#0000ff" transform="matrix(0.05 0 0 0.05 -132 -41)" d="M 9686.2,7074.4 L 9686.2,7186.4 L 9660.2,7186.4 L 9660.2,7074.4 Z " />
<path stroke="none" fill="#0000ff" transform="matrix(0.05 0 0 0.05 -132 -41)" d="M 11182.2,2954 L 10662.4,2954 L 10662.4,2922 L 11182.2,2922 Z " />
<path stroke="none" fill="#0000ff" transform="matrix(0.05 0 0 0.05 -132 -41)" d="M 11461.2,2938 C 11461.2,2938 11141.2,3019 11141.2,3019 C 11141.2,3019 11181.2,2973.44 11181.2,2938 C 11181.2,2902.13 11141.2,2856 11141.2,2856 C 11141.2,2856 11461.2,2938 11461.2,2938 C 11461.2,2938 11461.2,2938 11461.2,2938 " />
<path stroke="#0000ff" stroke-width="1" fill="none" transform="matrix(0.05 0 0 0.05 -132 -41)" d="M 11461.2,2938 C 11461.2,2938 11141.2,3019 11141.2,3019 C 11141.2,3019 11181.2,2973.44 11181.2,2938 C 11181.2,2902.13 11141.2,2856 11141.2,2856 C 11141.2,2856 11461.2,2938 11461.2,2938 C 11461.2,2938 11461.2,2938 11461.2,2938 " />
<path stroke="none" fill="#0000ff" transform="matrix(0.05 0 0 0.05 -132 -41)" d="M 11222.2,5134 L 10757.6,5134 L 10757.6,5102 L 11222.2,5102 Z " />
<path stroke="none" fill="#0000ff" transform="matrix(0.05 0 0 0.05 -132 -41)" d="M 11501.2,5118 C 11501.2,5118 11181.2,5199 11181.2,5199 C 11181.2,5199 11221.2,5153.44 11221.2,5118 C 11221.2,5082.13 11181.2,5036 11181.2,5036 C 11181.2,5036 11501.2,5118 11501.2,5118 C 11501.2,5118 11501.2,5118 11501.2,5118 " />
<path stroke="#0000ff" stroke-width="1" fill="none" transform="matrix(0.05 0 0 0.05 -132 -41)" d="M 11501.2,5118 C 11501.2,5118 11181.2,5199 11181.2,5199 C 11181.2,5199 11221.2,5153.44 11221.2,5118 C 11221.2,5082.13 11181.2,5036 11181.2,5036 C 11181.2,5036 11501.2,5118 11501.2,5118 C 11501.2,5118 11501.2,5118 11501.2,5118 " />
<path stroke="none" fill="#0000ff" transform="matrix(0.05 0 0 0.05 -132 -41)" d="M 11202.2,7234 L 10719.6,7234 L 10719.6,7202 L 11202.2,7202 Z " />
<path stroke="none" fill="#0000ff" transform="matrix(0.05 0 0 0.05 -132 -41)" d="M 11481.2,7218 C 11481.2,7218 11161.2,7299 11161.2,7299 C 11161.2,7299 11201.2,7253.44 11201.2,7218 C 11201.2,7182.13 11161.2,7136 11161.2,7136 C 11161.2,7136 11481.2,7218 11481.2,7218 C 11481.2,7218 11481.2,7218 11481.2,7218 " />
<path stroke="#0000ff" stroke-width="1" fill="none" transform="matrix(0.05 0 0 0.05 -132 -41)" d="M 11481.2,7218 C 11481.2,7218 11161.2,7299 11161.2,7299 C 11161.2,7299 11201.2,7253.44 11201.2,7218 C 11201.2,7182.13 11161.2,7136 11161.2,7136 C 11161.2,7136 11481.2,7218 11481.2,7218 C 11481.2,7218 11481.2,7218 11481.2,7218 " />
<text x="0" y="0" stroke="none" fill="#0000ff" transform="matrix(0.05 0 0 0.05 486.06 147.9)" font-style="normal" font-weight="normal" font-size="320px" font-family="Helvetica" >
(unstable)</text>
<path stroke="none" fill="#0000ff" transform="matrix(0.05 0 0 0.05 -132 -41)" d="M 15622.2,2854 L 14501.2,2854 L 14501.2,2822 L 15622.2,2822 Z " />
<path stroke="none" fill="#0000ff" transform="matrix(0.05 0 0 0.05 -132 -41)" d="M 15901.2,2838 C 15901.2,2838 15581.2,2919 15581.2,2919 C 15581.2,2919 15621.2,2873.44 15621.2,2838 C 15621.2,2802.13 15581.2,2756 15581.2,2756 C 15581.2,2756 15901.2,2838 15901.2,2838 C 15901.2,2838 15901.2,2838 15901.2,2838 " />
<path stroke="#0000ff" stroke-width="1" fill="none" transform="matrix(0.05 0 0 0.05 -132 -41)" d="M 15901.2,2838 C 15901.2,2838 15581.2,2919 15581.2,2919 C 15581.2,2919 15621.2,2873.44 15621.2,2838 C 15621.2,2802.13 15581.2,2756 15581.2,2756 C 15581.2,2756 15901.2,2838 15901.2,2838 C 15901.2,2838 15901.2,2838 15901.2,2838 " />
<text x="0" y="0" stroke="none" fill="#0000ff" transform="matrix(0.05 0 0 0.05 603.056 93.8983)" font-style="normal" font-weight="normal" font-size="320px" font-family="Helvetica" >
-H</text>
<text x="0" y="0" stroke="none" fill="#0000ff" transform="matrix(0.05 0 0 0.05 619.939 97.578)" font-style="normal" font-weight="normal" font-size="240px" font-family="Helvetica" >
2</text>
<text x="0" y="0" stroke="none" fill="#0000ff" transform="matrix(0.05 0 0 0.05 626.613 93.8983)" font-style="normal" font-weight="normal" font-size="320px" font-family="Helvetica" >
O</text>
<text x="0" y="0" stroke="none" fill="#0000ff" transform="matrix(0.05 0 0 0.05 674.207 98.0537)" font-style="normal" font-weight="normal" font-size="240px" font-family="Helvetica" >
R</text>
<text x="0" y="0" stroke="none" fill="#0000ff" transform="matrix(0.05 0 0 0.05 700.187 113.044)" font-style="normal" font-weight="normal" font-size="240px" font-family="Helvetica" >
NH</text>
<text x="0" y="0" stroke="none" fill="#0000ff" transform="matrix(0.05 0 0 0.05 717.519 115.803)" font-style="normal" font-weight="normal" font-size="180px" font-family="Helvetica" >
2</text>
<path stroke="none" fill="#0000ff" transform="matrix(0.05 0 0 0.05 -132 -41)" d="M 16332.7,2783.83 L 16348.7,2756.11 L 16613.7,2908.99 L 16597.7,2936.7 L 16332.7,2783.83 Z " />
<text x="0" y="0" stroke="none" fill="#0000ff" transform="matrix(0.05 0 0 0.05 731.5 103.8)" font-style="normal" font-weight="normal" font-size="320px" font-family="Helvetica" >
+ </text>
<text x="0" y="0" stroke="none" fill="#0000ff" transform="matrix(0.05 0 0 0.05 745.289 103.8)" font-style="normal" font-weight="normal" font-size="320px" font-family="Helvetica" >
 </text>
<text x="0" y="0" stroke="none" fill="#0000ff" transform="matrix(0.05 0 0 0.05 749.734 103.8)" font-style="normal" font-weight="normal" font-size="320px" font-family="Helvetica" >
CO</text>
<text x="0" y="0" stroke="none" fill="#0000ff" transform="matrix(0.05 0 0 0.05 773.734 107.48)" font-style="normal" font-weight="normal" font-size="240px" font-family="Helvetica" >
2</text>
<text x="0" y="0" stroke="none" fill="#0000ff" transform="matrix(0.05 0 0 0.05 487.06 256.9)" font-style="normal" font-weight="normal" font-size="320px" font-family="Helvetica" >
(carbamate)</text>
<text x="0" y="0" stroke="none" fill="#0000ff" transform="matrix(0.05 0 0 0.05 473.06 369.9)" font-style="normal" font-weight="normal" font-size="320px" font-family="Helvetica" >
(urea </text>
<text x="0" y="0" stroke="none" fill="#0000ff" transform="matrix(0.05 0 0 0.05 514.857 369.9)" font-style="normal" font-weight="normal" font-size="320px" font-family="Helvetica" >
derivative)</text>
<path stroke="#0000ff" stroke-width="32" fill="none" transform="matrix(0.05 0 0 0.05 -132 -41)" d="M 6712.59,2418.2 C 5560.85,2067.48 4341.32,2717.66 3990.6,3869.41 C 3901.46,4162.14 3874.86,4473.71 3913.09,4777.32 " />
<path stroke="none" fill="#0000ff" transform="matrix(0.05 0 0 0.05 -132 -41)" d="M 3952.45,4997.83 C 3952.45,4997.83 3843.46,4758.07 3843.46,4758.07 C 3843.46,4758.07 3885.09,4782.68 3913.09,4777.32 C 3941.09,4771.96 3971.47,4733.57 3971.47,4733.57 C 3971.47,4733.57 3952.45,4997.83 3952.45,4997.83 C 3952.45,4997.83 3952.45,4997.83 3952.45,4997.83 " />
<path stroke="#0000ff" stroke-width="1" fill="none" transform="matrix(0.05 0 0 0.05 -132 -41)" d="M 3952.45,4997.83 C 3952.45,4997.83 3843.46,4758.07 3843.46,4758.07 C 3843.46,4758.07 3885.09,4782.68 3913.09,4777.32 C 3941.09,4771.96 3971.47,4733.57 3971.47,4733.57 C 3971.47,4733.57 3952.45,4997.83 3952.45,4997.83 C 3952.45,4997.83 3952.45,4997.83 3952.45,4997.83 " />
<path stroke="#0000ff" stroke-width="32" fill="none" transform="matrix(0.05 0 0 0.05 -132 -41)" d="M 4639.15,4746.25 C 4616.11,4615.58 4491.33,4528.21 4360.65,4551.25 C 4229.98,4574.29 4142.61,4699.07 4165.65,4829.74 C 4174.15,4877.96 4197.79,4923.37 4232.41,4957.99 " />
<path stroke="none" fill="#0000ff" transform="matrix(0.05 0 0 0.05 -132 -41)" d="M 4572.39,4957.99 C 4572.39,4957.99 4587.19,4695.93 4587.19,4695.93 C 4587.19,4695.93 4612.48,4737.55 4639.15,4746.25 C 4665.81,4754.96 4710.18,4736.08 4710.18,4736.08 C 4710.18,4736.08 4572.39,4957.99 4572.39,4957.99 C 4572.39,4957.99 4572.39,4957.99 4572.39,4957.99 " />
<path stroke="#0000ff" stroke-width="1" fill="none" transform="matrix(0.05 0 0 0.05 -132 -41)" d="M 4572.39,4957.99 C 4572.39,4957.99 4587.19,4695.93 4587.19,4695.93 C 4587.19,4695.93 4612.48,4737.55 4639.15,4746.25 C 4665.81,4754.96 4710.18,4736.08 4710.18,4736.08 C 4710.18,4736.08 4572.39,4957.99 4572.39,4957.99 C 4572.39,4957.99 4572.39,4957.99 4572.39,4957.99 " />
<text x="0" y="0" stroke="none" fill="#0000ff" transform="matrix(0.05 0 0 0.05 888.227 155.264)" font-style="normal" font-weight="normal" font-size="240px" font-family="Helvetica" >
C</text>
<text x="0" y="0" stroke="none" fill="#0000ff" transform="matrix(0.05 0 0 0.05 858.227 155.344)" font-style="normal" font-weight="normal" font-size="240px" font-family="Helvetica" >
C</text>
<text x="0" y="0" stroke="none" fill="#0000ff" transform="matrix(0.05 0 0 0.05 858.227 165.577)" font-style="normal" font-weight="normal" font-size="240px" font-family="Helvetica" >
H</text>
<path stroke="none" fill="#0000ff" transform="matrix(0.05 0 0 0.05 -132 -41)" d="M 20374.2,3868.51 L 20374.3,3900.51 L 20007.2,3901.49 L 20007.2,3869.49 L 20374.2,3868.51 Z " />
<path stroke="none" fill="#0000ff" transform="matrix(0.05 0 0 0.05 -132 -41)" d="M 20373.9,3778.51 L 20374,3810.51 L 20007,3811.49 L 20006.9,3779.49 L 20373.9,3778.51 Z " />
<text x="0" y="0" stroke="none" fill="#0000ff" transform="matrix(0.05 0 0 0.05 828.227 155.304)" font-style="normal" font-weight="normal" font-size="240px" font-family="Helvetica" >
R</text>
<path stroke="none" fill="#0000ff" transform="matrix(0.05 0 0 0.05 -132 -41)" d="M 19774.1,3824.64 L 19774.1,3856.64 L 19408.6,3856.16 L 19408.7,3824.16 L 19774.1,3824.64 Z " />
<text x="0" y="0" stroke="none" fill="#0000ff" transform="matrix(0.05 0 0 0.05 917.893 154.964)" font-style="normal" font-weight="normal" font-size="240px" font-family="Helvetica" >
O</text>
<path stroke="none" fill="#0000ff" transform="matrix(0.05 0 0 0.05 -132 -41)" d="M 20606.8,3809.04 L 20606.5,3777.04 L 20966.6,3773.44 L 20967,3805.44 L 20606.8,3809.04 Z " />
<path stroke="none" fill="#0000ff" transform="matrix(0.05 0 0 0.05 -132 -41)" d="M 20607.7,3899.04 L 20607.4,3867.04 L 20967.5,3863.44 L 20967.9,3895.44 L 20607.7,3899.04 Z " />
<text x="0" y="0" stroke="none" fill="#0000ff" transform="matrix(0.05 0 0 0.05 847.242 185.21)" font-style="normal" font-weight="normal" font-size="320px" font-family="Helvetica" >
(Ketene)</text>
<path stroke="none" fill="#0000ff" transform="matrix(0.05 0 0 0.05 -132 -41)" d="M 23781.2,1700.2 L 22460.2,1700.2 L 22460.2,1668.2 L 23781.2,1668.2 Z " />
<path stroke="none" fill="#0000ff" transform="matrix(0.05 0 0 0.05 -132 -41)" d="M 24060.2,1684.2 C 24060.2,1684.2 23740.2,1765.2 23740.2,1765.2 C 23740.2,1765.2 23780.2,1719.64 23780.2,1684.2 C 23780.2,1648.33 23740.2,1602.2 23740.2,1602.2 C 23740.2,1602.2 24060.2,1684.2 24060.2,1684.2 C 24060.2,1684.2 24060.2,1684.2 24060.2,1684.2 " />
<path stroke="#0000ff" stroke-width="1" fill="none" transform="matrix(0.05 0 0 0.05 -132 -41)" d="M 24060.2,1684.2 C 24060.2,1684.2 23740.2,1765.2 23740.2,1765.2 C 23740.2,1765.2 23780.2,1719.64 23780.2,1684.2 C 23780.2,1648.33 23740.2,1602.2 23740.2,1602.2 C 23740.2,1602.2 24060.2,1684.2 24060.2,1684.2 C 24060.2,1684.2 24060.2,1684.2 24060.2,1684.2 " />
<text x="0" y="0" stroke="none" fill="#0000ff" transform="matrix(0.05 0 0 0.05 1006.01 36.2083)" font-style="normal" font-weight="normal" font-size="320px" font-family="Helvetica" >
H</text>
<text x="0" y="0" stroke="none" fill="#0000ff" transform="matrix(0.05 0 0 0.05 1017.57 39.888)" font-style="normal" font-weight="normal" font-size="240px" font-family="Helvetica" >
2</text>
<text x="0" y="0" stroke="none" fill="#0000ff" transform="matrix(0.05 0 0 0.05 1024.24 36.2083)" font-style="normal" font-weight="normal" font-size="320px" font-family="Helvetica" >
O</text>
<path stroke="none" fill="#0000ff" transform="matrix(0.05 0 0 0.05 -132 -41)" d="M 23269.8,1233 A 20.0049,20.0049 0 1 0 23309.8,1233A 20.0049,20.0049 0 1 0 23269.8,1233Z " />
<path stroke="none" fill="#0000ff" transform="matrix(0.05 0 0 0.05 -132 -41)" d="M 23179.8,1235 A 20.0049,20.0049 0 1 0 23219.8,1235A 20.0049,20.0049 0 1 0 23179.8,1235Z " />
<path stroke="none" fill="#0000ff" transform="matrix(0.05 0 0 0.05 -132 -41)" d="M 22420.2,3860.2 L 21460.2,3860.2 L 21460.2,3828.2 L 22420.2,3828.2 Z " />
<path stroke="none" fill="#0000ff" transform="matrix(0.05 0 0 0.05 -132 -41)" d="M 22424.2,10077.8 L 22444.2,1684.2 L 22476.2,1684.2 L 22456.2,10077.8 Z " />
<text x="0" y="0" stroke="none" fill="#0000ff" transform="matrix(0.05 0 0 0.05 1304.73 43.8637)" font-style="normal" font-weight="normal" font-size="240px" font-family="Helvetica" >
R</text>
<text x="0" y="0" stroke="none" fill="#0000ff" transform="matrix(0.05 0 0 0.05 1330.71 58.8637)" font-style="normal" font-weight="normal" font-size="240px" font-family="Helvetica" >
C</text>
<text x="0" y="0" stroke="none" fill="#0000ff" transform="matrix(0.05 0 0 0.05 1330.71 69.097)" font-style="normal" font-weight="normal" font-size="240px" font-family="Helvetica" >
H</text>
<text x="0" y="0" stroke="none" fill="#0000ff" transform="matrix(0.05 0 0 0.05 1339.37 71.8568)" font-style="normal" font-weight="normal" font-size="180px" font-family="Helvetica" >
2</text>
<path stroke="none" fill="#0000ff" transform="matrix(0.05 0 0 0.05 -132 -41)" d="M 28943.1,1700.07 L 28959.1,1672.36 L 29243.8,1836.73 L 29227.8,1864.44 L 28943.1,1700.07 Z " />
<path stroke="none" fill="#0000ff" transform="matrix(0.05 0 0 0.05 -132 -41)" d="M 29458.8,1861.55 L 29442.8,1833.84 L 29860.4,1591.97 L 29860.4,1628.98 L 29458.8,1861.55 Z " />
<text x="0" y="0" stroke="none" fill="#0000ff" transform="matrix(0.05 0 0 0.05 1382.33 58.8637)" font-style="normal" font-weight="normal" font-size="240px" font-family="Helvetica" >
O</text>
<path stroke="none" fill="#0000ff" transform="matrix(0.05 0 0 0.05 -132 -41)" d="M 29860.4,1628.98 L 29860.4,1591.97 L 30277.4,1833.51 L 30261.4,1861.22 L 29860.4,1628.98 Z " />
<text x="0" y="0" stroke="none" fill="#0000ff" transform="matrix(0.05 0 0 0.05 1408.65 43.8637)" font-style="normal" font-weight="normal" font-size="240px" font-family="Helvetica" >
H</text>
<path stroke="none" fill="#0000ff" transform="matrix(0.05 0 0 0.05 -132 -41)" d="M 30499.7,1860.58 L 30483.7,1832.86 L 30768.6,1668.37 L 30784.6,1696.08 L 30499.7,1860.58 Z " />
<text x="0" y="0" stroke="none" fill="#0000ff" transform="matrix(0.05 0 0 0.05 1356.35 13.8637)" font-style="normal" font-weight="normal" font-size="240px" font-family="Helvetica" >
O</text>
<path stroke="none" fill="#0000ff" transform="matrix(0.05 0 0 0.05 -132 -41)" d="M 29831.4,1637.18 L 29799.4,1637.18 L 29799.4,1144.78 L 29831.4,1144.78 L 29831.4,1637.18 Z " />
<path stroke="none" fill="#0000ff" transform="matrix(0.05 0 0 0.05 -132 -41)" d="M 29921.4,1637.18 L 29889.4,1637.18 L 29889.4,1144.78 L 29921.4,1144.78 L 29921.4,1637.18 Z " />
<text x="0" y="0" stroke="none" fill="#0000ff" transform="matrix(0.05 0 0 0.05 1099.68 47.8637)" font-style="normal" font-weight="normal" font-size="240px" font-family="Helvetica" >
R</text>
<text x="0" y="0" stroke="none" fill="#0000ff" transform="matrix(0.05 0 0 0.05 1125.66 62.8637)" font-style="normal" font-weight="normal" font-size="240px" font-family="Helvetica" >
C</text>
<text x="0" y="0" stroke="none" fill="#0000ff" transform="matrix(0.05 0 0 0.05 1125.66 73.097)" font-style="normal" font-weight="normal" font-size="240px" font-family="Helvetica" >
H</text>
<path stroke="none" fill="#0000ff" transform="matrix(0.05 0 0 0.05 -132 -41)" d="M 24842.1,1780.07 L 24858.1,1752.36 L 25142.8,1916.73 L 25126.8,1944.44 L 24842.1,1780.07 Z " />
<path stroke="none" fill="#0000ff" transform="matrix(0.05 0 0 0.05 -132 -41)" d="M 25357.8,1941.55 L 25341.8,1913.84 L 25744,1682.3 L 25759.4,1691.2 L 25759.4,1708.98 L 25357.8,1941.55 Z " />
<path stroke="none" fill="#0000ff" transform="matrix(0.05 0 0 0.05 -132 -41)" d="M 25312.8,1863.61 L 25296.8,1835.9 L 25661.4,1625.38 L 25677.4,1653.1 L 25312.8,1863.61 Z " />
<text x="0" y="0" stroke="none" fill="#0000ff" transform="matrix(0.05 0 0 0.05 1177.28 62.8637)" font-style="normal" font-weight="normal" font-size="240px" font-family="Helvetica" >
O</text>
<path stroke="none" fill="#0000ff" transform="matrix(0.05 0 0 0.05 -132 -41)" d="M 25759.4,1708.98 L 25759.4,1691.2 L 25774.8,1682.3 L 26176.4,1913.51 L 26160.4,1941.22 L 25759.4,1708.98 Z " />
<text x="0" y="0" stroke="none" fill="#0000ff" transform="matrix(0.05 0 0 0.05 1203.6 47.8637)" font-style="normal" font-weight="normal" font-size="240px" font-family="Helvetica" >
H</text>
<path stroke="none" fill="#0000ff" transform="matrix(0.05 0 0 0.05 -132 -41)" d="M 26398.7,1940.58 L 26382.7,1912.86 L 26667.6,1748.37 L 26683.6,1776.08 L 26398.7,1940.58 Z " />
<text x="0" y="0" stroke="none" fill="#0000ff" transform="matrix(0.05 0 0 0.05 1151.3 17.8637)" font-style="normal" font-weight="normal" font-size="240px" font-family="Helvetica" >
O</text>
<path stroke="none" fill="#0000ff" transform="matrix(0.05 0 0 0.05 -132 -41)" d="M 25774.8,1682.3 L 25759.4,1691.2 L 25744,1682.3 L 25743.4,1224.78 L 25775.4,1224.78 L 25774.8,1682.3 Z " />
<text x="0" y="0" stroke="none" fill="#0000ff" transform="matrix(0.05 0 0 0.05 1177.62 92.8637)" font-style="normal" font-weight="normal" font-size="240px" font-family="Helvetica" >
H</text>
<path stroke="none" fill="#0000ff" transform="matrix(0.05 0 0 0.05 -132 -41)" d="M 26263,2124.78 L 26295,2124.78 L 26295,2464.13 L 26263,2464.13 L 26263,2124.78 Z " />
<path stroke="#0000ff" stroke-width="26" fill="none" transform="matrix(0.05 0 0 0.05 -132 -41)" d="M 25878.2,982.2 A 92.7999,92.7999 0 1 0 26063.8,982.2A 92.7999,92.7999 0 1 0 25878.2,982.2Z " />
<path stroke="none" fill="#0000ff" transform="matrix(0.05 0 0 0.05 -132 -41)" d="M 25915,969.2 L 26027,969.2 L 26027,995.2 L 25915,995.2 Z " />
<path stroke="#0000ff" stroke-width="26" fill="none" transform="matrix(0.05 0 0 0.05 -132 -41)" d="M 26223.8,1756.2 A 92.7999,92.7999 0 1 0 26409.4,1756.2A 92.7999,92.7999 0 1 0 26223.8,1756.2Z " />
<path stroke="none" fill="#0000ff" transform="matrix(0.05 0 0 0.05 -132 -41)" d="M 26260.6,1743.2 L 26372.6,1743.2 L 26372.6,1769.2 L 26260.6,1769.2 Z " />
<path stroke="none" fill="#0000ff" transform="matrix(0.05 0 0 0.05 -132 -41)" d="M 26329.6,1700.2 L 26329.6,1812.2 L 26303.6,1812.2 L 26303.6,1700.2 Z " />
<path stroke="none" fill="#0000ff" transform="matrix(0.05 0 0 0.05 -132 -41)" d="M 23921.2,3860.2 L 22420.2,3860.2 L 22420.2,3828.2 L 23921.2,3828.2 Z " />
<path stroke="none" fill="#0000ff" transform="matrix(0.05 0 0 0.05 -132 -41)" d="M 24200.2,3844.2 C 24200.2,3844.2 23880.2,3925.2 23880.2,3925.2 C 23880.2,3925.2 23920.2,3879.64 23920.2,3844.2 C 23920.2,3808.33 23880.2,3762.2 23880.2,3762.2 C 23880.2,3762.2 24200.2,3844.2 24200.2,3844.2 C 24200.2,3844.2 24200.2,3844.2 24200.2,3844.2 " />
<path stroke="#0000ff" stroke-width="1" fill="none" transform="matrix(0.05 0 0 0.05 -132 -41)" d="M 24200.2,3844.2 C 24200.2,3844.2 23880.2,3925.2 23880.2,3925.2 C 23880.2,3925.2 23920.2,3879.64 23920.2,3844.2 C 23920.2,3808.33 23880.2,3762.2 23880.2,3762.2 C 23880.2,3762.2 24200.2,3844.2 24200.2,3844.2 C 24200.2,3844.2 24200.2,3844.2 24200.2,3844.2 " />
<text x="0" y="0" stroke="none" fill="#0000ff" transform="matrix(0.05 0 0 0.05 1004.01 144.208)" font-style="normal" font-weight="normal" font-size="320px" font-family="Helvetica" >
ROH</text>
<path stroke="none" fill="#0000ff" transform="matrix(0.05 0 0 0.05 -132 -41)" d="M 23109.8,3373 A 20.0049,20.0049 0 1 0 23149.8,3373A 20.0049,20.0049 0 1 0 23109.8,3373Z " />
<path stroke="none" fill="#0000ff" transform="matrix(0.05 0 0 0.05 -132 -41)" d="M 23019.8,3375 A 20.0049,20.0049 0 1 0 23059.8,3375A 20.0049,20.0049 0 1 0 23019.8,3375Z " />
<text x="0" y="0" stroke="none" fill="#0000ff" transform="matrix(0.05 0 0 0.05 1302.73 149.864)" font-style="normal" font-weight="normal" font-size="240px" font-family="Helvetica" >
R</text>
<text x="0" y="0" stroke="none" fill="#0000ff" transform="matrix(0.05 0 0 0.05 1328.71 164.864)" font-style="normal" font-weight="normal" font-size="240px" font-family="Helvetica" >
C</text>
<text x="0" y="0" stroke="none" fill="#0000ff" transform="matrix(0.05 0 0 0.05 1328.71 175.097)" font-style="normal" font-weight="normal" font-size="240px" font-family="Helvetica" >
H</text>
<text x="0" y="0" stroke="none" fill="#0000ff" transform="matrix(0.05 0 0 0.05 1337.37 177.857)" font-style="normal" font-weight="normal" font-size="180px" font-family="Helvetica" >
2</text>
<path stroke="none" fill="#0000ff" transform="matrix(0.05 0 0 0.05 -132 -41)" d="M 28903.1,3820.07 L 28919.1,3792.36 L 29203.8,3956.73 L 29187.8,3984.44 L 28903.1,3820.07 Z " />
<path stroke="none" fill="#0000ff" transform="matrix(0.05 0 0 0.05 -132 -41)" d="M 29418.8,3981.55 L 29402.8,3953.84 L 29820.4,3711.97 L 29820.4,3748.98 L 29418.8,3981.55 Z " />
<text x="0" y="0" stroke="none" fill="#0000ff" transform="matrix(0.05 0 0 0.05 1380.33 164.864)" font-style="normal" font-weight="normal" font-size="240px" font-family="Helvetica" >
O</text>
<path stroke="none" fill="#0000ff" transform="matrix(0.05 0 0 0.05 -132 -41)" d="M 29820.4,3748.98 L 29820.4,3711.97 L 30237.4,3953.51 L 30221.4,3981.22 L 29820.4,3748.98 Z " />
<text x="0" y="0" stroke="none" fill="#0000ff" transform="matrix(0.05 0 0 0.05 1406.65 149.864)" font-style="normal" font-weight="normal" font-size="240px" font-family="Helvetica" >
R’</text>
<path stroke="none" fill="#0000ff" transform="matrix(0.05 0 0 0.05 -132 -41)" d="M 30459.7,3980.58 L 30443.7,3952.86 L 30729.5,3787.83 L 30745.5,3815.55 L 30459.7,3980.58 Z " />
<text x="0" y="0" stroke="none" fill="#0000ff" transform="matrix(0.05 0 0 0.05 1354.35 119.864)" font-style="normal" font-weight="normal" font-size="240px" font-family="Helvetica" >
O</text>
<path stroke="none" fill="#0000ff" transform="matrix(0.05 0 0 0.05 -132 -41)" d="M 29791.4,3757.18 L 29759.4,3757.18 L 29759.4,3264.78 L 29791.4,3264.78 L 29791.4,3757.18 Z " />
<path stroke="none" fill="#0000ff" transform="matrix(0.05 0 0 0.05 -132 -41)" d="M 29881.4,3757.18 L 29849.4,3757.18 L 29849.4,3264.78 L 29881.4,3264.78 L 29881.4,3757.18 Z " />
<path stroke="none" fill="#0000ff" transform="matrix(0.05 0 0 0.05 -132 -41)" d="M 23981.2,6040.2 L 22440.2,6040.2 L 22440.2,6008.2 L 23981.2,6008.2 Z " />
<path stroke="none" fill="#0000ff" transform="matrix(0.05 0 0 0.05 -132 -41)" d="M 24260.2,6024.2 C 24260.2,6024.2 23940.2,6105.2 23940.2,6105.2 C 23940.2,6105.2 23980.2,6059.64 23980.2,6024.2 C 23980.2,5988.33 23940.2,5942.2 23940.2,5942.2 C 23940.2,5942.2 24260.2,6024.2 24260.2,6024.2 C 24260.2,6024.2 24260.2,6024.2 24260.2,6024.2 " />
<path stroke="#0000ff" stroke-width="1" fill="none" transform="matrix(0.05 0 0 0.05 -132 -41)" d="M 24260.2,6024.2 C 24260.2,6024.2 23940.2,6105.2 23940.2,6105.2 C 23940.2,6105.2 23980.2,6059.64 23980.2,6024.2 C 23980.2,5988.33 23940.2,5942.2 23940.2,5942.2 C 23940.2,5942.2 24260.2,6024.2 24260.2,6024.2 C 24260.2,6024.2 24260.2,6024.2 24260.2,6024.2 " />
<text x="0" y="0" stroke="none" fill="#0000ff" transform="matrix(0.05 0 0 0.05 996.013 254.208)" font-style="normal" font-weight="normal" font-size="320px" font-family="Helvetica" >
R’NH</text>
<text x="0" y="0" stroke="none" fill="#0000ff" transform="matrix(0.05 0 0 0.05 1034.23 257.888)" font-style="normal" font-weight="normal" font-size="240px" font-family="Helvetica" >
2</text>
<path stroke="none" fill="#0000ff" transform="matrix(0.05 0 0 0.05 -132 -41)" d="M 22969.8,5553 A 20.0049,20.0049 0 1 0 23009.8,5553A 20.0049,20.0049 0 1 0 22969.8,5553Z " />
<path stroke="none" fill="#0000ff" transform="matrix(0.05 0 0 0.05 -132 -41)" d="M 22879.8,5555 A 20.0049,20.0049 0 1 0 22919.8,5555A 20.0049,20.0049 0 1 0 22879.8,5555Z " />
<text x="0" y="0" stroke="none" fill="#0000ff" transform="matrix(0.05 0 0 0.05 1303.73 256.864)" font-style="normal" font-weight="normal" font-size="240px" font-family="Helvetica" >
R</text>
<text x="0" y="0" stroke="none" fill="#0000ff" transform="matrix(0.05 0 0 0.05 1329.71 271.864)" font-style="normal" font-weight="normal" font-size="240px" font-family="Helvetica" >
C</text>
<text x="0" y="0" stroke="none" fill="#0000ff" transform="matrix(0.05 0 0 0.05 1329.71 282.097)" font-style="normal" font-weight="normal" font-size="240px" font-family="Helvetica" >
H</text>
<text x="0" y="0" stroke="none" fill="#0000ff" transform="matrix(0.05 0 0 0.05 1338.37 284.857)" font-style="normal" font-weight="normal" font-size="180px" font-family="Helvetica" >
2</text>
<path stroke="none" fill="#0000ff" transform="matrix(0.05 0 0 0.05 -132 -41)" d="M 28923.1,5960.07 L 28939.1,5932.36 L 29223.8,6096.73 L 29207.8,6124.44 L 28923.1,5960.07 Z " />
<path stroke="none" fill="#0000ff" transform="matrix(0.05 0 0 0.05 -132 -41)" d="M 29438.8,6121.55 L 29422.8,6093.84 L 29840.4,5851.96 L 29840.4,5888.97 L 29438.8,6121.55 Z " />
<text x="0" y="0" stroke="none" fill="#0000ff" transform="matrix(0.05 0 0 0.05 1381.67 271.864)" font-style="normal" font-weight="normal" font-size="240px" font-family="Helvetica" >
N</text>
<text x="0" y="0" stroke="none" fill="#0000ff" transform="matrix(0.05 0 0 0.05 1381.67 281.897)" font-style="normal" font-weight="normal" font-size="240px" font-family="Helvetica" >
H</text>
<path stroke="none" fill="#0000ff" transform="matrix(0.05 0 0 0.05 -132 -41)" d="M 29840.4,5888.97 L 29840.4,5851.96 L 30243.6,6085.53 L 30227.6,6113.24 L 29840.4,5888.97 Z " />
<text x="0" y="0" stroke="none" fill="#0000ff" transform="matrix(0.05 0 0 0.05 1407.65 256.864)" font-style="normal" font-weight="normal" font-size="240px" font-family="Helvetica" >
R’</text>
<path stroke="none" fill="#0000ff" transform="matrix(0.05 0 0 0.05 -132 -41)" d="M 30491.8,6113.57 L 30475.8,6085.86 L 30749.5,5927.83 L 30765.5,5955.55 L 30491.8,6113.57 Z " />
<text x="0" y="0" stroke="none" fill="#0000ff" transform="matrix(0.05 0 0 0.05 1355.35 226.864)" font-style="normal" font-weight="normal" font-size="240px" font-family="Helvetica" >
O</text>
<path stroke="none" fill="#0000ff" transform="matrix(0.05 0 0 0.05 -132 -41)" d="M 29811.4,5897.18 L 29779.4,5897.18 L 29779.4,5404.78 L 29811.4,5404.78 L 29811.4,5897.18 Z " />
<path stroke="none" fill="#0000ff" transform="matrix(0.05 0 0 0.05 -132 -41)" d="M 29901.4,5897.18 L 29869.4,5897.18 L 29869.4,5404.78 L 29901.4,5404.78 L 29901.4,5897.18 Z " />
<path stroke="#0000ff" stroke-width="32" fill="none" transform="matrix(0.05 0 0 0.05 -132 -41)" d="M 25982.6,1413.73 C 26098.2,1357.23 26146.2,1217.5 26089.7,1101.84 C 26070.1,1061.6 26038.6,1027.27 26000.2,1004.23 " />
<path stroke="none" fill="#0000ff" transform="matrix(0.05 0 0 0.05 -132 -41)" d="M 25760.2,1404.17 C 25760.2,1404.17 26018.1,1350.57 26018.1,1350.57 C 26018.1,1350.57 25984.2,1385.69 25982.6,1413.73 C 25980.9,1441.78 26010.6,1479.63 26010.6,1479.63 C 26010.6,1479.63 25760.2,1404.17 25760.2,1404.17 C 25760.2,1404.17 25760.2,1404.17 25760.2,1404.17 " />
<path stroke="#0000ff" stroke-width="1" fill="none" transform="matrix(0.05 0 0 0.05 -132 -41)" d="M 25760.2,1404.17 C 25760.2,1404.17 26018.1,1350.57 26018.1,1350.57 C 26018.1,1350.57 25984.2,1385.69 25982.6,1413.73 C 25980.9,1441.78 26010.6,1479.63 26010.6,1479.63 C 26010.6,1479.63 25760.2,1404.17 25760.2,1404.17 C 25760.2,1404.17 25760.2,1404.17 25760.2,1404.17 " />
<path stroke="#0000ff" stroke-width="32" fill="none" transform="matrix(0.05 0 0 0.05 -132 -41)" d="M 25475.7,2124.33 C 25602.8,2121.27 25703.4,2015.68 25700.3,1888.65 C 25699.3,1844.46 25685.1,1800.69 25660.2,1764.21 " />
<path stroke="none" fill="#0000ff" transform="matrix(0.05 0 0 0.05 -132 -41)" d="M 25280.2,2024.19 C 25280.2,2024.19 25533.3,2081.77 25533.3,2081.77 C 25533.3,2081.77 25488.5,2099.93 25475.7,2124.33 C 25463,2148.73 25474.1,2195.51 25474.1,2195.51 C 25474.1,2195.51 25280.2,2024.19 25280.2,2024.19 C 25280.2,2024.19 25280.2,2024.19 25280.2,2024.19 " />
<path stroke="#0000ff" stroke-width="1" fill="none" transform="matrix(0.05 0 0 0.05 -132 -41)" d="M 25280.2,2024.19 C 25280.2,2024.19 25533.3,2081.77 25533.3,2081.77 C 25533.3,2081.77 25488.5,2099.93 25475.7,2124.33 C 25463,2148.73 25474.1,2195.51 25474.1,2195.51 C 25474.1,2195.51 25280.2,2024.19 25280.2,2024.19 C 25280.2,2024.19 25280.2,2024.19 25280.2,2024.19 " />
<path stroke="none" fill="#0000ff" transform="matrix(0.05 0 0 0.05 -132 -41)" d="M 25175.4,2187 A 20,20 0 1 0 25215.4,2187A 20,20 0 1 0 25175.4,2187Z " />
<path stroke="none" fill="#0000ff" transform="matrix(0.05 0 0 0.05 -132 -41)" d="M 25265.4,2186.8 A 20,20 0 1 0 25305.4,2186.8A 20,20 0 1 0 25265.4,2186.8Z " />
<path stroke="#0000ff" stroke-width="32" fill="none" transform="matrix(0.05 0 0 0.05 -132 -41)" d="M 25260.1,2224.23 C 25389.9,2487.95 25694.9,2649.95 25986,2609.83 " />
<path stroke="none" fill="#0000ff" transform="matrix(0.05 0 0 0.05 -132 -41)" d="M 26200.2,2544.25 C 26200.2,2544.25 25975.2,2681.39 25975.2,2681.39 C 25975.2,2681.39 25994.7,2637.04 25986,2609.83 C 25977.4,2582.62 25935.7,2557 25935.7,2557 C 25935.7,2557 26200.2,2544.25 26200.2,2544.25 C 26200.2,2544.25 26200.2,2544.25 26200.2,2544.25 " />
<path stroke="#0000ff" stroke-width="1" fill="none" transform="matrix(0.05 0 0 0.05 -132 -41)" d="M 26200.2,2544.25 C 26200.2,2544.25 25975.2,2681.39 25975.2,2681.39 C 25975.2,2681.39 25994.7,2637.04 25986,2609.83 C 25977.4,2582.62 25935.7,2557 25935.7,2557 C 25935.7,2557 26200.2,2544.25 26200.2,2544.25 C 26200.2,2544.25 26200.2,2544.25 26200.2,2544.25 " />
<text x="0" y="0" stroke="none" fill="#0000ff" transform="matrix(0.05 0 0 0.05 1099.68 150.864)" font-style="normal" font-weight="normal" font-size="240px" font-family="Helvetica" >
R</text>
<text x="0" y="0" stroke="none" fill="#0000ff" transform="matrix(0.05 0 0 0.05 1125.66 165.864)" font-style="normal" font-weight="normal" font-size="240px" font-family="Helvetica" >
C</text>
<text x="0" y="0" stroke="none" fill="#0000ff" transform="matrix(0.05 0 0 0.05 1125.66 176.097)" font-style="normal" font-weight="normal" font-size="240px" font-family="Helvetica" >
H</text>
<path stroke="none" fill="#0000ff" transform="matrix(0.05 0 0 0.05 -132 -41)" d="M 24842.1,3840.07 L 24858.1,3812.36 L 25142.8,3976.73 L 25126.8,4004.44 L 24842.1,3840.07 Z " />
<path stroke="none" fill="#0000ff" transform="matrix(0.05 0 0 0.05 -132 -41)" d="M 25357.8,4001.55 L 25341.8,3973.84 L 25744,3742.3 L 25759.4,3751.2 L 25759.4,3768.98 L 25357.8,4001.55 Z " />
<path stroke="none" fill="#0000ff" transform="matrix(0.05 0 0 0.05 -132 -41)" d="M 25312.8,3923.61 L 25296.8,3895.9 L 25661.4,3685.38 L 25677.4,3713.1 L 25312.8,3923.61 Z " />
<text x="0" y="0" stroke="none" fill="#0000ff" transform="matrix(0.05 0 0 0.05 1177.28 165.864)" font-style="normal" font-weight="normal" font-size="240px" font-family="Helvetica" >
O</text>
<path stroke="none" fill="#0000ff" transform="matrix(0.05 0 0 0.05 -132 -41)" d="M 25759.4,3768.98 L 25759.4,3751.2 L 25774.8,3742.3 L 26176.4,3973.51 L 26160.4,4001.22 L 25759.4,3768.98 Z " />
<text x="0" y="0" stroke="none" fill="#0000ff" transform="matrix(0.05 0 0 0.05 1203.6 150.864)" font-style="normal" font-weight="normal" font-size="240px" font-family="Helvetica" >
R’</text>
<path stroke="none" fill="#0000ff" transform="matrix(0.05 0 0 0.05 -132 -41)" d="M 26398.7,4000.58 L 26382.7,3972.86 L 26668.5,3807.83 L 26684.5,3835.55 L 26398.7,4000.58 Z " />
<text x="0" y="0" stroke="none" fill="#0000ff" transform="matrix(0.05 0 0 0.05 1151.3 120.864)" font-style="normal" font-weight="normal" font-size="240px" font-family="Helvetica" >
O</text>
<path stroke="none" fill="#0000ff" transform="matrix(0.05 0 0 0.05 -132 -41)" d="M 25774.8,3742.3 L 25759.4,3751.2 L 25744,3742.3 L 25743.4,3284.78 L 25775.4,3284.78 L 25774.8,3742.3 Z " />
<text x="0" y="0" stroke="none" fill="#0000ff" transform="matrix(0.05 0 0 0.05 1177.62 195.864)" font-style="normal" font-weight="normal" font-size="240px" font-family="Helvetica" >
H</text>
<path stroke="none" fill="#0000ff" transform="matrix(0.05 0 0 0.05 -132 -41)" d="M 26263,4184.78 L 26295,4184.78 L 26295,4524.13 L 26263,4524.13 L 26263,4184.78 Z " />
<path stroke="#0000ff" stroke-width="26" fill="none" transform="matrix(0.05 0 0 0.05 -132 -41)" d="M 25878.2,3042.2 A 92.7999,92.7999 0 1 0 26063.8,3042.2A 92.7999,92.7999 0 1 0 25878.2,3042.2Z " />
<path stroke="none" fill="#0000ff" transform="matrix(0.05 0 0 0.05 -132 -41)" d="M 25915,3029.2 L 26027,3029.2 L 26027,3055.2 L 25915,3055.2 Z " />
<path stroke="#0000ff" stroke-width="26" fill="none" transform="matrix(0.05 0 0 0.05 -132 -41)" d="M 26223.8,3816.2 A 92.7999,92.7999 0 1 0 26409.4,3816.2A 92.7999,92.7999 0 1 0 26223.8,3816.2Z " />
<path stroke="none" fill="#0000ff" transform="matrix(0.05 0 0 0.05 -132 -41)" d="M 26260.6,3803.2 L 26372.6,3803.2 L 26372.6,3829.2 L 26260.6,3829.2 Z " />
<path stroke="none" fill="#0000ff" transform="matrix(0.05 0 0 0.05 -132 -41)" d="M 26329.6,3760.2 L 26329.6,3872.2 L 26303.6,3872.2 L 26303.6,3760.2 Z " />
<path stroke="#0000ff" stroke-width="32" fill="none" transform="matrix(0.05 0 0 0.05 -132 -41)" d="M 25982.6,3473.73 C 26098.2,3417.23 26146.2,3277.5 26089.7,3161.84 C 26070.1,3121.6 26038.6,3087.27 26000.2,3064.23 " />
<path stroke="none" fill="#0000ff" transform="matrix(0.05 0 0 0.05 -132 -41)" d="M 25760.2,3464.17 C 25760.2,3464.17 26018.1,3410.57 26018.1,3410.57 C 26018.1,3410.57 25984.2,3445.69 25982.6,3473.73 C 25980.9,3501.78 26010.6,3539.63 26010.6,3539.63 C 26010.6,3539.63 25760.2,3464.17 25760.2,3464.17 C 25760.2,3464.17 25760.2,3464.17 25760.2,3464.17 " />
<path stroke="#0000ff" stroke-width="1" fill="none" transform="matrix(0.05 0 0 0.05 -132 -41)" d="M 25760.2,3464.17 C 25760.2,3464.17 26018.1,3410.57 26018.1,3410.57 C 26018.1,3410.57 25984.2,3445.69 25982.6,3473.73 C 25980.9,3501.78 26010.6,3539.63 26010.6,3539.63 C 26010.6,3539.63 25760.2,3464.17 25760.2,3464.17 C 25760.2,3464.17 25760.2,3464.17 25760.2,3464.17 " />
<path stroke="#0000ff" stroke-width="32" fill="none" transform="matrix(0.05 0 0 0.05 -132 -41)" d="M 25475.7,4184.33 C 25602.8,4181.27 25703.4,4075.68 25700.3,3948.65 C 25699.3,3904.46 25685.1,3860.69 25660.2,3824.21 " />
<path stroke="none" fill="#0000ff" transform="matrix(0.05 0 0 0.05 -132 -41)" d="M 25280.2,4084.19 C 25280.2,4084.19 25533.3,4141.77 25533.3,4141.77 C 25533.3,4141.77 25488.5,4159.93 25475.7,4184.33 C 25463,4208.73 25474.1,4255.51 25474.1,4255.51 C 25474.1,4255.51 25280.2,4084.19 25280.2,4084.19 C 25280.2,4084.19 25280.2,4084.19 25280.2,4084.19 " />
<path stroke="#0000ff" stroke-width="1" fill="none" transform="matrix(0.05 0 0 0.05 -132 -41)" d="M 25280.2,4084.19 C 25280.2,4084.19 25533.3,4141.77 25533.3,4141.77 C 25533.3,4141.77 25488.5,4159.93 25475.7,4184.33 C 25463,4208.73 25474.1,4255.51 25474.1,4255.51 C 25474.1,4255.51 25280.2,4084.19 25280.2,4084.19 C 25280.2,4084.19 25280.2,4084.19 25280.2,4084.19 " />
<path stroke="none" fill="#0000ff" transform="matrix(0.05 0 0 0.05 -132 -41)" d="M 25175.4,4247 A 20,20 0 1 0 25215.4,4247A 20,20 0 1 0 25175.4,4247Z " />
<path stroke="none" fill="#0000ff" transform="matrix(0.05 0 0 0.05 -132 -41)" d="M 25265.4,4246.8 A 20,20 0 1 0 25305.4,4246.8A 20,20 0 1 0 25265.4,4246.8Z " />
<path stroke="#0000ff" stroke-width="32" fill="none" transform="matrix(0.05 0 0 0.05 -132 -41)" d="M 25260.1,4284.23 C 25389.9,4547.95 25694.9,4709.95 25986,4669.83 " />
<path stroke="none" fill="#0000ff" transform="matrix(0.05 0 0 0.05 -132 -41)" d="M 26200.2,4604.25 C 26200.2,4604.25 25975.2,4741.39 25975.2,4741.39 C 25975.2,4741.39 25994.7,4697.04 25986,4669.83 C 25977.4,4642.62 25935.7,4617 25935.7,4617 C 25935.7,4617 26200.2,4604.25 26200.2,4604.25 C 26200.2,4604.25 26200.2,4604.25 26200.2,4604.25 " />
<path stroke="#0000ff" stroke-width="1" fill="none" transform="matrix(0.05 0 0 0.05 -132 -41)" d="M 26200.2,4604.25 C 26200.2,4604.25 25975.2,4741.39 25975.2,4741.39 C 25975.2,4741.39 25994.7,4697.04 25986,4669.83 C 25977.4,4642.62 25935.7,4617 25935.7,4617 C 25935.7,4617 26200.2,4604.25 26200.2,4604.25 C 26200.2,4604.25 26200.2,4604.25 26200.2,4604.25 " />
<text x="0" y="0" stroke="none" fill="#0000ff" transform="matrix(0.05 0 0 0.05 1100.68 253.864)" font-style="normal" font-weight="normal" font-size="240px" font-family="Helvetica" >
R</text>
<text x="0" y="0" stroke="none" fill="#0000ff" transform="matrix(0.05 0 0 0.05 1126.66 268.864)" font-style="normal" font-weight="normal" font-size="240px" font-family="Helvetica" >
C</text>
<text x="0" y="0" stroke="none" fill="#0000ff" transform="matrix(0.05 0 0 0.05 1126.66 279.097)" font-style="normal" font-weight="normal" font-size="240px" font-family="Helvetica" >
H</text>
<path stroke="none" fill="#0000ff" transform="matrix(0.05 0 0 0.05 -132 -41)" d="M 24862.1,5900.07 L 24878.1,5872.36 L 25162.8,6036.73 L 25146.8,6064.44 L 24862.1,5900.07 Z " />
<path stroke="none" fill="#0000ff" transform="matrix(0.05 0 0 0.05 -132 -41)" d="M 25377.8,6061.55 L 25361.8,6033.84 L 25764,5802.3 L 25779.4,5811.2 L 25779.4,5828.97 L 25377.8,6061.55 Z " />
<path stroke="none" fill="#0000ff" transform="matrix(0.05 0 0 0.05 -132 -41)" d="M 25332.8,5983.61 L 25316.8,5955.9 L 25681.4,5745.38 L 25697.4,5773.1 L 25332.8,5983.61 Z " />
<text x="0" y="0" stroke="none" fill="#0000ff" transform="matrix(0.05 0 0 0.05 1178.62 268.864)" font-style="normal" font-weight="normal" font-size="240px" font-family="Helvetica" >
N</text>
<path stroke="none" fill="#0000ff" transform="matrix(0.05 0 0 0.05 -132 -41)" d="M 25779.4,5828.97 L 25779.4,5811.2 L 25794.8,5802.33 L 26183.1,6025.78 L 26167.1,6053.49 L 25779.4,5828.97 Z " />
<text x="0" y="0" stroke="none" fill="#0000ff" transform="matrix(0.05 0 0 0.05 1204.6 253.864)" font-style="normal" font-weight="normal" font-size="240px" font-family="Helvetica" >
R’</text>
<path stroke="none" fill="#0000ff" transform="matrix(0.05 0 0 0.05 -132 -41)" d="M 26430.4,6053.82 L 26414.4,6026.11 L 26688.5,5867.83 L 26704.5,5895.55 L 26430.4,6053.82 Z " />
<text x="0" y="0" stroke="none" fill="#0000ff" transform="matrix(0.05 0 0 0.05 1152.3 223.864)" font-style="normal" font-weight="normal" font-size="240px" font-family="Helvetica" >
O</text>
<path stroke="none" fill="#0000ff" transform="matrix(0.05 0 0 0.05 -132 -41)" d="M 25794.8,5802.33 L 25779.4,5811.2 L 25764,5802.3 L 25763.4,5344.78 L 25795.4,5344.78 L 25794.8,5802.33 Z " />
<text x="0" y="0" stroke="none" fill="#0000ff" transform="matrix(0.05 0 0 0.05 1178.62 298.864)" font-style="normal" font-weight="normal" font-size="240px" font-family="Helvetica" >
H</text>
<path stroke="none" fill="#0000ff" transform="matrix(0.05 0 0 0.05 -132 -41)" d="M 26283,6237.13 L 26315,6237.13 L 26315,6584.13 L 26283,6584.13 L 26283,6237.13 Z " />
<path stroke="#0000ff" stroke-width="26" fill="none" transform="matrix(0.05 0 0 0.05 -132 -41)" d="M 25898.2,5102.2 A 92.7999,92.7999 0 1 0 26083.8,5102.2A 92.7999,92.7999 0 1 0 25898.2,5102.2Z " />
<path stroke="none" fill="#0000ff" transform="matrix(0.05 0 0 0.05 -132 -41)" d="M 25935,5089.2 L 26047,5089.2 L 26047,5115.2 L 25935,5115.2 Z " />
<path stroke="#0000ff" stroke-width="32" fill="none" transform="matrix(0.05 0 0 0.05 -132 -41)" d="M 26002.6,5533.73 C 26118.2,5477.23 26166.2,5337.5 26109.7,5221.84 C 26090.1,5181.6 26058.6,5147.27 26020.2,5124.23 " />
<path stroke="none" fill="#0000ff" transform="matrix(0.05 0 0 0.05 -132 -41)" d="M 25780.2,5524.17 C 25780.2,5524.17 26038.1,5470.57 26038.1,5470.57 C 26038.1,5470.57 26004.2,5505.69 26002.6,5533.73 C 26000.9,5561.78 26030.6,5599.63 26030.6,5599.63 C 26030.6,5599.63 25780.2,5524.17 25780.2,5524.17 C 25780.2,5524.17 25780.2,5524.17 25780.2,5524.17 " />
<path stroke="#0000ff" stroke-width="1" fill="none" transform="matrix(0.05 0 0 0.05 -132 -41)" d="M 25780.2,5524.17 C 25780.2,5524.17 26038.1,5470.57 26038.1,5470.57 C 26038.1,5470.57 26004.2,5505.69 26002.6,5533.73 C 26000.9,5561.78 26030.6,5599.63 26030.6,5599.63 C 26030.6,5599.63 25780.2,5524.17 25780.2,5524.17 C 25780.2,5524.17 25780.2,5524.17 25780.2,5524.17 " />
<path stroke="#0000ff" stroke-width="32" fill="none" transform="matrix(0.05 0 0 0.05 -132 -41)" d="M 25495.7,6244.33 C 25622.8,6241.27 25723.4,6135.68 25720.3,6008.65 C 25719.3,5964.46 25705.1,5920.69 25680.2,5884.21 " />
<path stroke="none" fill="#0000ff" transform="matrix(0.05 0 0 0.05 -132 -41)" d="M 25300.2,6144.19 C 25300.2,6144.19 25553.3,6201.77 25553.3,6201.77 C 25553.3,6201.77 25508.5,6219.93 25495.7,6244.33 C 25483,6268.73 25494.1,6315.51 25494.1,6315.51 C 25494.1,6315.51 25300.2,6144.19 25300.2,6144.19 C 25300.2,6144.19 25300.2,6144.19 25300.2,6144.19 " />
<path stroke="#0000ff" stroke-width="1" fill="none" transform="matrix(0.05 0 0 0.05 -132 -41)" d="M 25300.2,6144.19 C 25300.2,6144.19 25553.3,6201.77 25553.3,6201.77 C 25553.3,6201.77 25508.5,6219.93 25495.7,6244.33 C 25483,6268.73 25494.1,6315.51 25494.1,6315.51 C 25494.1,6315.51 25300.2,6144.19 25300.2,6144.19 C 25300.2,6144.19 25300.2,6144.19 25300.2,6144.19 " />
<path stroke="none" fill="#0000ff" transform="matrix(0.05 0 0 0.05 -132 -41)" d="M 25195.4,6307 A 20,20 0 1 0 25235.4,6307A 20,20 0 1 0 25195.4,6307Z " />
<path stroke="none" fill="#0000ff" transform="matrix(0.05 0 0 0.05 -132 -41)" d="M 25285.4,6306.8 A 20,20 0 1 0 25325.4,6306.8A 20,20 0 1 0 25285.4,6306.8Z " />
<path stroke="#0000ff" stroke-width="32" fill="none" transform="matrix(0.05 0 0 0.05 -132 -41)" d="M 25280.1,6344.23 C 25409.9,6607.95 25714.9,6769.95 26006,6729.83 " />
<path stroke="none" fill="#0000ff" transform="matrix(0.05 0 0 0.05 -132 -41)" d="M 26220.2,6664.25 C 26220.2,6664.25 25995.2,6801.39 25995.2,6801.39 C 25995.2,6801.39 26014.7,6757.04 26006,6729.83 C 25997.4,6702.62 25955.7,6677 25955.7,6677 C 25955.7,6677 26220.2,6664.25 26220.2,6664.25 C 26220.2,6664.25 26220.2,6664.25 26220.2,6664.25 " />
<path stroke="#0000ff" stroke-width="1" fill="none" transform="matrix(0.05 0 0 0.05 -132 -41)" d="M 26220.2,6664.25 C 26220.2,6664.25 25995.2,6801.39 25995.2,6801.39 C 25995.2,6801.39 26014.7,6757.04 26006,6729.83 C 25997.4,6702.62 25955.7,6677 25955.7,6677 C 25955.7,6677 26220.2,6664.25 26220.2,6664.25 C 26220.2,6664.25 26220.2,6664.25 26220.2,6664.25 " />
<text x="0" y="0" stroke="none" fill="#0000ff" transform="matrix(0.05 0 0 0.05 1199.47 290.434)" font-style="normal" font-weight="normal" font-size="240px" font-family="Helvetica" >
H</text>
<path stroke="none" fill="#0000ff" transform="matrix(0.05 0 0 0.05 -132 -41)" d="M 26391.4,6229.79 L 26414.4,6207.55 L 26623,6423.33 L 26600,6445.57 L 26391.4,6229.79 Z " />
<path stroke="#0000ff" stroke-width="26" fill="none" transform="matrix(0.05 0 0 0.05 -132 -41)" d="M 26228.2,5876.6 A 92.7999,92.7999 0 1 0 26413.8,5876.6A 92.7999,92.7999 0 1 0 26228.2,5876.6Z " />
<path stroke="none" fill="#0000ff" transform="matrix(0.05 0 0 0.05 -132 -41)" d="M 26265,5863.6 L 26377,5863.6 L 26377,5889.6 L 26265,5889.6 Z " />
<path stroke="none" fill="#0000ff" transform="matrix(0.05 0 0 0.05 -132 -41)" d="M 26334,5820.6 L 26334,5932.6 L 26308,5932.6 L 26308,5820.6 Z " />
<path stroke="none" fill="#0000ff" transform="matrix(0.05 0 0 0.05 -132 -41)" d="M 27982.2,1700.2 L 27360.4,1700.2 L 27360.4,1668.2 L 27982.2,1668.2 Z " />
<path stroke="none" fill="#0000ff" transform="matrix(0.05 0 0 0.05 -132 -41)" d="M 28261.2,1684.2 C 28261.2,1684.2 27941.2,1765.2 27941.2,1765.2 C 27941.2,1765.2 27981.2,1719.64 27981.2,1684.2 C 27981.2,1648.33 27941.2,1602.2 27941.2,1602.2 C 27941.2,1602.2 28261.2,1684.2 28261.2,1684.2 C 28261.2,1684.2 28261.2,1684.2 28261.2,1684.2 " />
<path stroke="#0000ff" stroke-width="1" fill="none" transform="matrix(0.05 0 0 0.05 -132 -41)" d="M 28261.2,1684.2 C 28261.2,1684.2 27941.2,1765.2 27941.2,1765.2 C 27941.2,1765.2 27981.2,1719.64 27981.2,1684.2 C 27981.2,1648.33 27941.2,1602.2 27941.2,1602.2 C 27941.2,1602.2 28261.2,1684.2 28261.2,1684.2 C 28261.2,1684.2 28261.2,1684.2 28261.2,1684.2 " />
<path stroke="none" fill="#0000ff" transform="matrix(0.05 0 0 0.05 -132 -41)" d="M 28022.2,3880.2 L 27493.8,3880.2 L 27493.8,3848.2 L 28022.2,3848.2 Z " />
<path stroke="none" fill="#0000ff" transform="matrix(0.05 0 0 0.05 -132 -41)" d="M 28301.2,3864.2 C 28301.2,3864.2 27981.2,3945.2 27981.2,3945.2 C 27981.2,3945.2 28021.2,3899.64 28021.2,3864.2 C 28021.2,3828.33 27981.2,3782.2 27981.2,3782.2 C 27981.2,3782.2 28301.2,3864.2 28301.2,3864.2 C 28301.2,3864.2 28301.2,3864.2 28301.2,3864.2 " />
<path stroke="#0000ff" stroke-width="1" fill="none" transform="matrix(0.05 0 0 0.05 -132 -41)" d="M 28301.2,3864.2 C 28301.2,3864.2 27981.2,3945.2 27981.2,3945.2 C 27981.2,3945.2 28021.2,3899.64 28021.2,3864.2 C 28021.2,3828.33 27981.2,3782.2 27981.2,3782.2 C 27981.2,3782.2 28301.2,3864.2 28301.2,3864.2 C 28301.2,3864.2 28301.2,3864.2 28301.2,3864.2 " />
<path stroke="none" fill="#0000ff" transform="matrix(0.05 0 0 0.05 -132 -41)" d="M 28002.2,5980.2 L 27455.6,5980.2 L 27455.6,5948.2 L 28002.2,5948.2 Z " />
<path stroke="none" fill="#0000ff" transform="matrix(0.05 0 0 0.05 -132 -41)" d="M 28281.2,5964.2 C 28281.2,5964.2 27961.2,6045.2 27961.2,6045.2 C 27961.2,6045.2 28001.2,5999.64 28001.2,5964.2 C 28001.2,5928.33 27961.2,5882.2 27961.2,5882.2 C 27961.2,5882.2 28281.2,5964.2 28281.2,5964.2 C 28281.2,5964.2 28281.2,5964.2 28281.2,5964.2 " />
<path stroke="#0000ff" stroke-width="1" fill="none" transform="matrix(0.05 0 0 0.05 -132 -41)" d="M 28281.2,5964.2 C 28281.2,5964.2 27961.2,6045.2 27961.2,6045.2 C 27961.2,6045.2 28001.2,5999.64 28001.2,5964.2 C 28001.2,5928.33 27961.2,5882.2 27961.2,5882.2 C 27961.2,5882.2 28281.2,5964.2 28281.2,5964.2 C 28281.2,5964.2 28281.2,5964.2 28281.2,5964.2 " />
<text x="0" y="0" stroke="none" fill="#0000ff" transform="matrix(0.05 0 0 0.05 1305.06 88.21)" font-style="normal" font-weight="normal" font-size="320px" font-family="Helvetica" >
(carboxylic </text>
<text x="0" y="0" stroke="none" fill="#0000ff" transform="matrix(0.05 0 0 0.05 1385.97 88.21)" font-style="normal" font-weight="normal" font-size="320px" font-family="Helvetica" >
acid)</text>
<text x="0" y="0" stroke="none" fill="#0000ff" transform="matrix(0.05 0 0 0.05 1339.06 194.21)" font-style="normal" font-weight="normal" font-size="320px" font-family="Helvetica" >
(ester)</text>
<text x="0" y="0" stroke="none" fill="#0000ff" transform="matrix(0.05 0 0 0.05 1335.06 305.21)" font-style="normal" font-weight="normal" font-size="320px" font-family="Helvetica" >
(amide)</text>
<path stroke="#0000ff" stroke-width="32" fill="none" transform="matrix(0.05 0 0 0.05 -132 -41)" d="M 23240.3,1164.35 C 22088.5,813.715 20869,1463.98 20518.4,2615.75 C 20429.2,2908.49 20402.7,3220.06 20440.9,3523.67 " />
<path stroke="none" fill="#0000ff" transform="matrix(0.05 0 0 0.05 -132 -41)" d="M 20480.3,3744.18 C 20480.3,3744.18 20371.3,3504.42 20371.3,3504.42 C 20371.3,3504.42 20412.9,3529.03 20440.9,3523.67 C 20468.9,3518.31 20499.3,3479.92 20499.3,3479.92 C 20499.3,3479.92 20480.3,3744.18 20480.3,3744.18 C 20480.3,3744.18 20480.3,3744.18 20480.3,3744.18 " />
<path stroke="#0000ff" stroke-width="1" fill="none" transform="matrix(0.05 0 0 0.05 -132 -41)" d="M 20480.3,3744.18 C 20480.3,3744.18 20371.3,3504.42 20371.3,3504.42 C 20371.3,3504.42 20412.9,3529.03 20440.9,3523.67 C 20468.9,3518.31 20499.3,3479.92 20499.3,3479.92 C 20499.3,3479.92 20480.3,3744.18 20480.3,3744.18 C 20480.3,3744.18 20480.3,3744.18 20480.3,3744.18 " />
<path stroke="#0000ff" stroke-width="32" fill="none" transform="matrix(0.05 0 0 0.05 -132 -41)" d="M 21166.9,3492.45 C 21143.9,3361.78 21019.1,3274.41 20888.5,3297.45 C 20757.8,3320.49 20670.4,3445.27 20693.5,3575.94 C 20702,3624.16 20725.6,3669.57 20760.2,3704.19 " />
<path stroke="none" fill="#0000ff" transform="matrix(0.05 0 0 0.05 -132 -41)" d="M 21100.2,3704.19 C 21100.2,3704.19 21115,3442.13 21115,3442.13 C 21115,3442.13 21140.3,3483.75 21166.9,3492.45 C 21193.6,3501.16 21238,3482.28 21238,3482.28 C 21238,3482.28 21100.2,3704.19 21100.2,3704.19 C 21100.2,3704.19 21100.2,3704.19 21100.2,3704.19 " />
<path stroke="#0000ff" stroke-width="1" fill="none" transform="matrix(0.05 0 0 0.05 -132 -41)" d="M 21100.2,3704.19 C 21100.2,3704.19 21115,3442.13 21115,3442.13 C 21115,3442.13 21140.3,3483.75 21166.9,3492.45 C 21193.6,3501.16 21238,3482.28 21238,3482.28 C 21238,3482.28 21100.2,3704.19 21100.2,3704.19 C 21100.2,3704.19 21100.2,3704.19 21100.2,3704.19 " />
<text x="0" y="0" stroke="none" fill="#0000ff" transform="matrix(0.05 0 0 0.05 211.62 98.9)" font-style="normal" font-weight="normal" font-size="320px" font-family="Helvetica" >
/H</text>
<text x="0" y="0" stroke="none" fill="#0000ff" transform="matrix(0.05 0 0 0.05 227.62 93.1617)" font-style="normal" font-weight="normal" font-size="240px" font-family="Helvetica" >
+</text>
<text x="0" y="0" stroke="none" fill="#0000ff" transform="matrix(0.05 0 0 0.05 215.62 207.9)" font-style="normal" font-weight="normal" font-size="320px" font-family="Helvetica" >
/H</text>
<text x="0" y="0" stroke="none" fill="#0000ff" transform="matrix(0.05 0 0 0.05 231.62 202.162)" font-style="normal" font-weight="normal" font-size="240px" font-family="Helvetica" >
+</text>
<text x="0" y="0" stroke="none" fill="#0000ff" transform="matrix(0.05 0 0 0.05 219.62 318.9)" font-style="normal" font-weight="normal" font-size="320px" font-family="Helvetica" >
/H</text>
<text x="0" y="0" stroke="none" fill="#0000ff" transform="matrix(0.05 0 0 0.05 235.62 313.162)" font-style="normal" font-weight="normal" font-size="240px" font-family="Helvetica" >
+</text>
<text x="0" y="0" stroke="none" fill="#0000ff" transform="matrix(0.05 0 0 0.05 1038.01 37.21)" font-style="normal" font-weight="normal" font-size="320px" font-family="Helvetica" >
/H</text>
<text x="0" y="0" stroke="none" fill="#0000ff" transform="matrix(0.05 0 0 0.05 1054.01 31.4717)" font-style="normal" font-weight="normal" font-size="240px" font-family="Helvetica" >
+</text>
<text x="0" y="0" stroke="none" fill="#0000ff" transform="matrix(0.05 0 0 0.05 1042.01 145.21)" font-style="normal" font-weight="normal" font-size="320px" font-family="Helvetica" >
/H</text>
<text x="0" y="0" stroke="none" fill="#0000ff" transform="matrix(0.05 0 0 0.05 1058.01 139.472)" font-style="normal" font-weight="normal" font-size="240px" font-family="Helvetica" >
+</text>
<text x="0" y="0" stroke="none" fill="#0000ff" transform="matrix(0.05 0 0 0.05 1046.01 255.21)" font-style="normal" font-weight="normal" font-size="320px" font-family="Helvetica" >
/H</text>
<text x="0" y="0" stroke="none" fill="#0000ff" transform="matrix(0.05 0 0 0.05 1062.01 249.472)" font-style="normal" font-weight="normal" font-size="240px" font-family="Helvetica" >
+</text>
<path stroke="none" fill="#0000ff" transform="matrix(0.05 0 0 0.05 -132 -41)" d="M 23744,8040.2 L 22423,8040.2 L 22423,8008.2 L 23744,8008.2 Z " />
<path stroke="none" fill="#0000ff" transform="matrix(0.05 0 0 0.05 -132 -41)" d="M 24023,8024.2 C 24023,8024.2 23703,8105.2 23703,8105.2 C 23703,8105.2 23743,8059.64 23743,8024.2 C 23743,7988.33 23703,7942.2 23703,7942.2 C 23703,7942.2 24023,8024.2 24023,8024.2 C 24023,8024.2 24023,8024.2 24023,8024.2 " />
<path stroke="#0000ff" stroke-width="1" fill="none" transform="matrix(0.05 0 0 0.05 -132 -41)" d="M 24023,8024.2 C 24023,8024.2 23703,8105.2 23703,8105.2 C 23703,8105.2 23743,8059.64 23743,8024.2 C 23743,7988.33 23703,7942.2 23703,7942.2 C 23703,7942.2 24023,8024.2 24023,8024.2 C 24023,8024.2 24023,8024.2 24023,8024.2 " />
<text x="0" y="0" stroke="none" fill="#0000ff" transform="matrix(0.05 0 0 0.05 1007.01 353.208)" font-style="normal" font-weight="normal" font-size="320px" font-family="Helvetica" >
H</text>
<text x="0" y="0" stroke="none" fill="#0000ff" transform="matrix(0.05 0 0 0.05 1018.57 356.888)" font-style="normal" font-weight="normal" font-size="240px" font-family="Helvetica" >
2</text>
<text x="0" y="0" stroke="none" fill="#0000ff" transform="matrix(0.05 0 0 0.05 1025.24 353.208)" font-style="normal" font-weight="normal" font-size="320px" font-family="Helvetica" >
O</text>
<path stroke="none" fill="#0000ff" transform="matrix(0.05 0 0 0.05 -132 -41)" d="M 23289.8,7573 A 20.0049,20.0049 0 1 0 23329.8,7573A 20.0049,20.0049 0 1 0 23289.8,7573Z " />
<path stroke="none" fill="#0000ff" transform="matrix(0.05 0 0 0.05 -132 -41)" d="M 23199.8,7575 A 20.0049,20.0049 0 1 0 23239.8,7575A 20.0049,20.0049 0 1 0 23199.8,7575Z " />
<text x="0" y="0" stroke="none" fill="#0000ff" transform="matrix(0.05 0 0 0.05 1305.73 360.864)" font-style="normal" font-weight="normal" font-size="240px" font-family="Helvetica" >
R</text>
<text x="0" y="0" stroke="none" fill="#0000ff" transform="matrix(0.05 0 0 0.05 1331.71 375.864)" font-style="normal" font-weight="normal" font-size="240px" font-family="Helvetica" >
C</text>
<text x="0" y="0" stroke="none" fill="#0000ff" transform="matrix(0.05 0 0 0.05 1331.71 386.097)" font-style="normal" font-weight="normal" font-size="240px" font-family="Helvetica" >
H</text>
<text x="0" y="0" stroke="none" fill="#0000ff" transform="matrix(0.05 0 0 0.05 1340.37 388.857)" font-style="normal" font-weight="normal" font-size="180px" font-family="Helvetica" >
2</text>
<path stroke="none" fill="#0000ff" transform="matrix(0.05 0 0 0.05 -132 -41)" d="M 28963.1,8040.07 L 28979.1,8012.36 L 29263.8,8176.73 L 29247.8,8204.44 L 28963.1,8040.07 Z " />
<path stroke="none" fill="#0000ff" transform="matrix(0.05 0 0 0.05 -132 -41)" d="M 29478.8,8201.55 L 29462.8,8173.84 L 29880.4,7931.97 L 29880.4,7968.98 L 29478.8,8201.55 Z " />
<text x="0" y="0" stroke="none" fill="#0000ff" transform="matrix(0.05 0 0 0.05 1383.33 375.864)" font-style="normal" font-weight="normal" font-size="240px" font-family="Helvetica" >
O</text>
<path stroke="none" fill="#0000ff" transform="matrix(0.05 0 0 0.05 -132 -41)" d="M 29880.4,7968.98 L 29880.4,7931.97 L 30297.4,8173.51 L 30281.4,8201.22 L 29880.4,7968.98 Z " />
<text x="0" y="0" stroke="none" fill="#0000ff" transform="matrix(0.05 0 0 0.05 1357.35 330.864)" font-style="normal" font-weight="normal" font-size="240px" font-family="Helvetica" >
O</text>
<path stroke="none" fill="#0000ff" transform="matrix(0.05 0 0 0.05 -132 -41)" d="M 29851.4,7977.18 L 29819.4,7977.18 L 29819.4,7484.78 L 29851.4,7484.78 L 29851.4,7977.18 Z " />
<path stroke="none" fill="#0000ff" transform="matrix(0.05 0 0 0.05 -132 -41)" d="M 29941.4,7977.18 L 29909.4,7977.18 L 29909.4,7484.78 L 29941.4,7484.78 L 29941.4,7977.18 Z " />
<text x="0" y="0" stroke="none" fill="#0000ff" transform="matrix(0.05 0 0 0.05 1100.68 364.864)" font-style="normal" font-weight="normal" font-size="240px" font-family="Helvetica" >
R</text>
<text x="0" y="0" stroke="none" fill="#0000ff" transform="matrix(0.05 0 0 0.05 1126.66 379.864)" font-style="normal" font-weight="normal" font-size="240px" font-family="Helvetica" >
C</text>
<text x="0" y="0" stroke="none" fill="#0000ff" transform="matrix(0.05 0 0 0.05 1126.66 390.097)" font-style="normal" font-weight="normal" font-size="240px" font-family="Helvetica" >
H</text>
<path stroke="none" fill="#0000ff" transform="matrix(0.05 0 0 0.05 -132 -41)" d="M 24862.1,8120.07 L 24878.1,8092.36 L 25162.8,8256.73 L 25146.8,8284.44 L 24862.1,8120.07 Z " />
<path stroke="none" fill="#0000ff" transform="matrix(0.05 0 0 0.05 -132 -41)" d="M 25377.8,8281.55 L 25361.8,8253.84 L 25764,8022.3 L 25779.4,8031.2 L 25779.4,8048.98 L 25377.8,8281.55 Z " />
<path stroke="none" fill="#0000ff" transform="matrix(0.05 0 0 0.05 -132 -41)" d="M 25332.8,8203.61 L 25316.8,8175.9 L 25681.4,7965.38 L 25697.4,7993.1 L 25332.8,8203.61 Z " />
<text x="0" y="0" stroke="none" fill="#0000ff" transform="matrix(0.05 0 0 0.05 1178.28 379.864)" font-style="normal" font-weight="normal" font-size="240px" font-family="Helvetica" >
O</text>
<path stroke="none" fill="#0000ff" transform="matrix(0.05 0 0 0.05 -132 -41)" d="M 25779.4,8048.98 L 25779.4,8031.2 L 25794.8,8022.3 L 26196.4,8253.51 L 26180.4,8281.22 L 25779.4,8048.98 Z " />
<text x="0" y="0" stroke="none" fill="#0000ff" transform="matrix(0.05 0 0 0.05 1152.3 334.864)" font-style="normal" font-weight="normal" font-size="240px" font-family="Helvetica" >
O</text>
<path stroke="none" fill="#0000ff" transform="matrix(0.05 0 0 0.05 -132 -41)" d="M 25794.8,8022.3 L 25779.4,8031.2 L 25764,8022.3 L 25763.4,7564.78 L 25795.4,7564.78 L 25794.8,8022.3 Z " />
<text x="0" y="0" stroke="none" fill="#0000ff" transform="matrix(0.05 0 0 0.05 1178.62 409.864)" font-style="normal" font-weight="normal" font-size="240px" font-family="Helvetica" >
H</text>
<path stroke="none" fill="#0000ff" transform="matrix(0.05 0 0 0.05 -132 -41)" d="M 26283,8464.78 L 26315,8464.78 L 26315,8804.13 L 26283,8804.13 L 26283,8464.78 Z " />
<path stroke="#0000ff" stroke-width="26" fill="none" transform="matrix(0.05 0 0 0.05 -132 -41)" d="M 25898.2,7322.2 A 92.7999,92.7999 0 1 0 26083.8,7322.2A 92.7999,92.7999 0 1 0 25898.2,7322.2Z " />
<path stroke="none" fill="#0000ff" transform="matrix(0.05 0 0 0.05 -132 -41)" d="M 25935,7309.2 L 26047,7309.2 L 26047,7335.2 L 25935,7335.2 Z " />
<path stroke="#0000ff" stroke-width="32" fill="none" transform="matrix(0.05 0 0 0.05 -132 -41)" d="M 26002.6,7753.73 C 26118.2,7697.23 26166.2,7557.5 26109.7,7441.84 C 26090.1,7401.6 26058.6,7367.27 26020.2,7344.23 " />
<path stroke="none" fill="#0000ff" transform="matrix(0.05 0 0 0.05 -132 -41)" d="M 25780.2,7744.17 C 25780.2,7744.17 26038.1,7690.57 26038.1,7690.57 C 26038.1,7690.57 26004.2,7725.69 26002.6,7753.73 C 26000.9,7781.78 26030.6,7819.63 26030.6,7819.63 C 26030.6,7819.63 25780.2,7744.17 25780.2,7744.17 C 25780.2,7744.17 25780.2,7744.17 25780.2,7744.17 " />
<path stroke="#0000ff" stroke-width="1" fill="none" transform="matrix(0.05 0 0 0.05 -132 -41)" d="M 25780.2,7744.17 C 25780.2,7744.17 26038.1,7690.57 26038.1,7690.57 C 26038.1,7690.57 26004.2,7725.69 26002.6,7753.73 C 26000.9,7781.78 26030.6,7819.63 26030.6,7819.63 C 26030.6,7819.63 25780.2,7744.17 25780.2,7744.17 C 25780.2,7744.17 25780.2,7744.17 25780.2,7744.17 " />
<path stroke="#0000ff" stroke-width="32" fill="none" transform="matrix(0.05 0 0 0.05 -132 -41)" d="M 25495.7,8464.33 C 25622.8,8461.27 25723.4,8355.68 25720.3,8228.65 C 25719.3,8184.46 25705.1,8140.69 25680.2,8104.21 " />
<path stroke="none" fill="#0000ff" transform="matrix(0.05 0 0 0.05 -132 -41)" d="M 25300.2,8364.19 C 25300.2,8364.19 25553.3,8421.77 25553.3,8421.77 C 25553.3,8421.77 25508.5,8439.93 25495.7,8464.33 C 25483,8488.73 25494.1,8535.51 25494.1,8535.51 C 25494.1,8535.51 25300.2,8364.19 25300.2,8364.19 C 25300.2,8364.19 25300.2,8364.19 25300.2,8364.19 " />
<path stroke="#0000ff" stroke-width="1" fill="none" transform="matrix(0.05 0 0 0.05 -132 -41)" d="M 25300.2,8364.19 C 25300.2,8364.19 25553.3,8421.77 25553.3,8421.77 C 25553.3,8421.77 25508.5,8439.93 25495.7,8464.33 C 25483,8488.73 25494.1,8535.51 25494.1,8535.51 C 25494.1,8535.51 25300.2,8364.19 25300.2,8364.19 C 25300.2,8364.19 25300.2,8364.19 25300.2,8364.19 " />
<path stroke="none" fill="#0000ff" transform="matrix(0.05 0 0 0.05 -132 -41)" d="M 25195.4,8527 A 20,20 0 1 0 25235.4,8527A 20,20 0 1 0 25195.4,8527Z " />
<path stroke="none" fill="#0000ff" transform="matrix(0.05 0 0 0.05 -132 -41)" d="M 25285.4,8526.8 A 20,20 0 1 0 25325.4,8526.8A 20,20 0 1 0 25285.4,8526.8Z " />
<path stroke="#0000ff" stroke-width="32" fill="none" transform="matrix(0.05 0 0 0.05 -132 -41)" d="M 25280.1,8564.23 C 25409.9,8827.95 25714.9,8989.95 26006,8949.83 " />
<path stroke="none" fill="#0000ff" transform="matrix(0.05 0 0 0.05 -132 -41)" d="M 26220.2,8884.25 C 26220.2,8884.25 25995.2,9021.39 25995.2,9021.39 C 25995.2,9021.39 26014.7,8977.04 26006,8949.83 C 25997.4,8922.62 25955.7,8897 25955.7,8897 C 25955.7,8897 26220.2,8884.25 26220.2,8884.25 C 26220.2,8884.25 26220.2,8884.25 26220.2,8884.25 " />
<path stroke="#0000ff" stroke-width="1" fill="none" transform="matrix(0.05 0 0 0.05 -132 -41)" d="M 26220.2,8884.25 C 26220.2,8884.25 25995.2,9021.39 25995.2,9021.39 C 25995.2,9021.39 26014.7,8977.04 26006,8949.83 C 25997.4,8922.62 25955.7,8897 25955.7,8897 C 25955.7,8897 26220.2,8884.25 26220.2,8884.25 C 26220.2,8884.25 26220.2,8884.25 26220.2,8884.25 " />
<path stroke="none" fill="#0000ff" transform="matrix(0.05 0 0 0.05 -132 -41)" d="M 28002.2,8040.2 L 27474.8,8040.2 L 27474.8,8008.2 L 28002.2,8008.2 Z " />
<path stroke="none" fill="#0000ff" transform="matrix(0.05 0 0 0.05 -132 -41)" d="M 28281.2,8024.2 C 28281.2,8024.2 27961.2,8105.2 27961.2,8105.2 C 27961.2,8105.2 28001.2,8059.64 28001.2,8024.2 C 28001.2,7988.33 27961.2,7942.2 27961.2,7942.2 C 27961.2,7942.2 28281.2,8024.2 28281.2,8024.2 C 28281.2,8024.2 28281.2,8024.2 28281.2,8024.2 " />
<path stroke="#0000ff" stroke-width="1" fill="none" transform="matrix(0.05 0 0 0.05 -132 -41)" d="M 28281.2,8024.2 C 28281.2,8024.2 27961.2,8105.2 27961.2,8105.2 C 27961.2,8105.2 28001.2,8059.64 28001.2,8024.2 C 28001.2,7988.33 27961.2,7942.2 27961.2,7942.2 C 27961.2,7942.2 28281.2,8024.2 28281.2,8024.2 C 28281.2,8024.2 28281.2,8024.2 28281.2,8024.2 " />
<text x="0" y="0" stroke="none" fill="#0000ff" transform="matrix(0.05 0 0 0.05 1306.06 405.21)" font-style="normal" font-weight="normal" font-size="320px" font-family="Helvetica" >
(carboxylic </text>
<text x="0" y="0" stroke="none" fill="#0000ff" transform="matrix(0.05 0 0 0.05 1386.97 405.21)" font-style="normal" font-weight="normal" font-size="320px" font-family="Helvetica" >
acid)</text>
<text x="0" y="0" stroke="none" fill="#0000ff" transform="matrix(0.05 0 0 0.05 1039.01 354.21)" font-style="normal" font-weight="normal" font-size="320px" font-family="Helvetica" >
/OH</text>
<text x="0" y="0" stroke="none" fill="#0000ff" transform="matrix(0.05 0 0 0.05 1067.46 348.472)" font-style="normal" font-weight="normal" font-size="240px" font-family="Helvetica" >
-</text>
<path stroke="none" fill="#0000ff" transform="matrix(0.05 0 0 0.05 -132 -41)" d="M 23781.2,10080.2 L 22460.2,10080.2 L 22460.2,10048.2 L 23781.2,10048.2 Z " />
<path stroke="none" fill="#0000ff" transform="matrix(0.05 0 0 0.05 -132 -41)" d="M 24060.2,10064.2 C 24060.2,10064.2 23740.2,10145.2 23740.2,10145.2 C 23740.2,10145.2 23780.2,10099.6 23780.2,10064.2 C 23780.2,10028.3 23740.2,9982.2 23740.2,9982.2 C 23740.2,9982.2 24060.2,10064.2 24060.2,10064.2 C 24060.2,10064.2 24060.2,10064.2 24060.2,10064.2 " />
<path stroke="#0000ff" stroke-width="1" fill="none" transform="matrix(0.05 0 0 0.05 -132 -41)" d="M 24060.2,10064.2 C 24060.2,10064.2 23740.2,10145.2 23740.2,10145.2 C 23740.2,10145.2 23780.2,10099.6 23780.2,10064.2 C 23780.2,10028.3 23740.2,9982.2 23740.2,9982.2 C 23740.2,9982.2 24060.2,10064.2 24060.2,10064.2 C 24060.2,10064.2 24060.2,10064.2 24060.2,10064.2 " />
<text x="0" y="0" stroke="none" fill="#0000ff" transform="matrix(0.05 0 0 0.05 1006.45 455.208)" font-style="normal" font-weight="normal" font-size="320px" font-family="Helvetica" >
Br</text>
<text x="0" y="0" stroke="none" fill="#0000ff" transform="matrix(0.05 0 0 0.05 1022.45 458.888)" font-style="normal" font-weight="normal" font-size="240px" font-family="Helvetica" >
2</text>
<text x="0" y="0" stroke="none" fill="#0000ff" transform="matrix(0.05 0 0 0.05 1101 460.954)" font-style="normal" font-weight="normal" font-size="240px" font-family="Helvetica" >
R</text>
<text x="0" y="0" stroke="none" fill="#0000ff" transform="matrix(0.05 0 0 0.05 1126.98 465.92)" font-style="normal" font-weight="normal" font-size="240px" font-family="Helvetica" >
H</text>
<text x="0" y="0" stroke="none" fill="#0000ff" transform="matrix(0.05 0 0 0.05 1126.98 476.187)" font-style="normal" font-weight="normal" font-size="240px" font-family="Helvetica" >
C</text>
<path stroke="none" fill="#0000ff" transform="matrix(0.05 0 0 0.05 -132 -41)" d="M 24868.5,10041.9 L 24884.5,10014.2 L 25169.2,10178.5 L 25153.2,10206.3 L 24868.5,10041.9 Z " />
<path stroke="none" fill="#0000ff" transform="matrix(0.05 0 0 0.05 -132 -41)" d="M 25382.6,10204.2 L 25366.6,10176.5 L 25785.8,9933.77 L 25785.8,9970.77 L 25382.6,10204.2 Z " />
<text x="0" y="0" stroke="none" fill="#0000ff" transform="matrix(0.05 0 0 0.05 1179.27 475.954)" font-style="normal" font-weight="normal" font-size="240px" font-family="Helvetica" >
Br</text>
<path stroke="none" fill="#0000ff" transform="matrix(0.05 0 0 0.05 -132 -41)" d="M 25785.8,9970.77 L 25785.8,9933.77 L 26194,10170.2 L 26178,10197.9 L 25785.8,9970.77 Z " />
<text x="0" y="0" stroke="none" fill="#0000ff" transform="matrix(0.05 0 0 0.05 1152.62 430.954)" font-style="normal" font-weight="normal" font-size="240px" font-family="Helvetica" >
O</text>
<path stroke="none" fill="#0000ff" transform="matrix(0.05 0 0 0.05 -132 -41)" d="M 25756.8,9978.98 L 25724.8,9978.98 L 25724.8,9486.58 L 25756.8,9486.58 L 25756.8,9978.98 Z " />
<path stroke="none" fill="#0000ff" transform="matrix(0.05 0 0 0.05 -132 -41)" d="M 25846.8,9978.98 L 25814.8,9978.98 L 25814.8,9486.58 L 25846.8,9486.58 L 25846.8,9978.98 Z " />
<text x="0" y="0" stroke="none" fill="#0000ff" transform="matrix(0.05 0 0 0.05 1127.31 505.954)" font-style="normal" font-weight="normal" font-size="240px" font-family="Helvetica" >
Br</text>
<path stroke="none" fill="#0000ff" transform="matrix(0.05 0 0 0.05 -132 -41)" d="M 25250.2,10385.4 L 25282.2,10385.4 L 25282.2,10726.9 L 25250.2,10726.9 L 25250.2,10385.4 Z " />
<path stroke="#0000ff" stroke-width="26" fill="none" transform="matrix(0.05 0 0 0.05 -132 -41)" d="M 30495,8105.2 A 92.7999,92.7999 0 1 0 30680.6,8105.2A 92.7999,92.7999 0 1 0 30495,8105.2Z " />
<path stroke="none" fill="#0000ff" transform="matrix(0.05 0 0 0.05 -132 -41)" d="M 30531.8,8092.2 L 30643.8,8092.2 L 30643.8,8118.2 L 30531.8,8118.2 Z " />
</svg>
