<?xml version="1.0" standalone="no" ?>
<!DOCTYPE svg PUBLIC "-//W3C//DTD SVG 1.1//EN" "http://www.w3.org/Graphics/SVG/1.1/DTD/svg11.dtd">
<svg width="954px" height="235px" viewBox="0 0 954 235" style="background-color: #ffffff00" xmlns="http://www.w3.org/2000/svg" xmlns:xlink="http://www.w3.org/1999/xlink" version="1.1" >
<text x="0" y="0" stroke="none" fill="#0000ff" transform="matrix(0.05 0 0 0.05 428.667 67.3037)" font-style="normal" font-weight="normal" font-size="240px" font-family="Helvetica" >
R</text>
<path stroke="none" fill="#0000ff" transform="matrix(0.05 0 0 0.05 -12 -83)" d="M 9019.58,2869.44 L 9003.58,2841.72 L 9419.62,2600.76 L 9419.62,2637.77 L 9019.58,2869.44 Z " />
<text x="0" y="0" stroke="none" fill="#0000ff" transform="matrix(0.05 0 0 0.05 480.627 67.3037)" font-style="normal" font-weight="normal" font-size="240px" font-family="Helvetica" >
N</text>
<path stroke="none" fill="#0000ff" transform="matrix(0.05 0 0 0.05 -12 -83)" d="M 9419.62,2637.77 L 9419.62,2600.76 L 9823.25,2834.58 L 9807.25,2862.29 L 9419.62,2637.77 Z " />
<text x="0" y="0" stroke="none" fill="#0000ff" transform="matrix(0.05 0 0 0.05 454.313 22.3037)" font-style="normal" font-weight="normal" font-size="240px" font-family="Helvetica" >
O</text>
<path stroke="none" fill="#0000ff" transform="matrix(0.05 0 0 0.05 -12 -83)" d="M 9390.6,2645.98 L 9358.6,2645.98 L 9358.6,2153.58 L 9390.6,2153.58 L 9390.6,2645.98 Z " />
<path stroke="none" fill="#0000ff" transform="matrix(0.05 0 0 0.05 -12 -83)" d="M 9480.6,2645.98 L 9448.6,2645.98 L 9448.6,2153.58 L 9480.6,2153.58 L 9480.6,2645.98 Z " />
<text x="0" y="0" stroke="none" fill="#0000ff" transform="matrix(0.05 0 0 0.05 480.627 97.3037)" font-style="normal" font-weight="normal" font-size="240px" font-family="Helvetica" >
H</text>
<path stroke="none" fill="#0000ff" transform="matrix(0.05 0 0 0.05 -12 -83)" d="M 9923.2,3045.93 L 9955.2,3045.93 L 9955.2,3393.93 L 9923.2,3393.93 L 9923.2,3045.93 Z " />
<text x="0" y="0" stroke="none" fill="#0000ff" transform="matrix(0.05 0 0 0.05 506.938 52.3037)" font-style="normal" font-weight="normal" font-size="240px" font-family="Helvetica" >
Br</text>
<path stroke="none" fill="#0000ff" transform="matrix(0.05 0 0 0.05 -12 -83)" d="M 10070.6,2862.62 L 10054.6,2834.91 L 10331.4,2675.06 L 10347.4,2702.77 L 10070.6,2862.62 Z " />
<path stroke="none" fill="#0000ff" transform="matrix(0.05 0 0 0.05 -12 -83)" d="M 12281,2616 L 11160,2616 L 11160,2584 L 12281,2584 Z " />
<path stroke="none" fill="#0000ff" transform="matrix(0.05 0 0 0.05 -12 -83)" d="M 12560,2600 C 12560,2600 12240,2681 12240,2681 C 12240,2681 12280,2635.44 12280,2600 C 12280,2564.13 12240,2518 12240,2518 C 12240,2518 12560,2600 12560,2600 C 12560,2600 12560,2600 12560,2600 " />
<path stroke="#0000ff" stroke-width="1" fill="none" transform="matrix(0.05 0 0 0.05 -12 -83)" d="M 12560,2600 C 12560,2600 12240,2681 12240,2681 C 12240,2681 12280,2635.44 12280,2600 C 12280,2564.13 12240,2518 12240,2518 C 12240,2518 12560,2600 12560,2600 C 12560,2600 12560,2600 12560,2600 " />
<text x="0" y="0" stroke="none" fill="#0000ff" transform="matrix(0.05 0 0 0.05 556 40)" font-style="normal" font-weight="normal" font-size="320px" font-family="Helvetica" >
base</text>
<text x="0" y="0" stroke="none" fill="#0000ff" transform="matrix(0.05 0 0 0.05 638.667 67.3037)" font-style="normal" font-weight="normal" font-size="240px" font-family="Helvetica" >
R</text>
<path stroke="none" fill="#0000ff" transform="matrix(0.05 0 0 0.05 -12 -83)" d="M 13219.6,2869.44 L 13203.6,2841.72 L 13619.6,2600.76 L 13619.6,2637.77 L 13219.6,2869.44 Z " />
<text x="0" y="0" stroke="none" fill="#0000ff" transform="matrix(0.05 0 0 0.05 690.627 67.3037)" font-style="normal" font-weight="normal" font-size="240px" font-family="Helvetica" >
N</text>
<path stroke="none" fill="#0000ff" transform="matrix(0.05 0 0 0.05 -12 -83)" d="M 13619.6,2637.77 L 13619.6,2600.76 L 14023.3,2834.58 L 14007.3,2862.29 L 13619.6,2637.77 Z " />
<text x="0" y="0" stroke="none" fill="#0000ff" transform="matrix(0.05 0 0 0.05 664.313 22.3037)" font-style="normal" font-weight="normal" font-size="240px" font-family="Helvetica" >
O</text>
<path stroke="none" fill="#0000ff" transform="matrix(0.05 0 0 0.05 -12 -83)" d="M 13590.6,2645.98 L 13558.6,2645.98 L 13558.6,2153.58 L 13590.6,2153.58 L 13590.6,2645.98 Z " />
<path stroke="none" fill="#0000ff" transform="matrix(0.05 0 0 0.05 -12 -83)" d="M 13680.6,2645.98 L 13648.6,2645.98 L 13648.6,2153.58 L 13680.6,2153.58 L 13680.6,2645.98 Z " />
<text x="0" y="0" stroke="none" fill="#0000ff" transform="matrix(0.05 0 0 0.05 717.603 52.3037)" font-style="normal" font-weight="normal" font-size="240px" font-family="Helvetica" >
LG</text>
<path stroke="none" fill="#0000ff" transform="matrix(0.05 0 0 0.05 -12 -83)" d="M 14270.6,2862.62 L 14254.6,2834.91 L 14541.1,2669.46 L 14557.1,2697.17 L 14270.6,2862.62 Z " />
<path stroke="#0000ff" stroke-width="26" fill="none" transform="matrix(0.05 0 0 0.05 -12 -83)" d="M 14046.8,3155.6 A 92.7999,92.7999 0 1 0 14232.4,3155.6A 92.7999,92.7999 0 1 0 14046.8,3155.6Z " />
<path stroke="none" fill="#0000ff" transform="matrix(0.05 0 0 0.05 -12 -83)" d="M 14083.6,3142.6 L 14195.6,3142.6 L 14195.6,3168.6 L 14083.6,3168.6 Z " />
<path stroke="#0000ff" stroke-width="32" fill="none" transform="matrix(0.05 0 0 0.05 -12 -83)" d="M 14555.5,2352.24 C 14438.9,2310.29 14310.1,2371.02 14268.2,2487.8 C 14236.6,2576.05 14266.8,2681.88 14340.2,2740.07 " />
<path stroke="none" fill="#0000ff" transform="matrix(0.05 0 0 0.05 -12 -83)" d="M 14699.9,2519.98 C 14699.9,2519.98 14486,2370.52 14486,2370.52 C 14486,2370.52 14534.4,2370.5 14555.5,2352.24 C 14576.7,2333.98 14583.8,2286.03 14583.8,2286.03 C 14583.8,2286.03 14699.9,2519.98 14699.9,2519.98 C 14699.9,2519.98 14699.9,2519.98 14699.9,2519.98 " />
<path stroke="#0000ff" stroke-width="1" fill="none" transform="matrix(0.05 0 0 0.05 -12 -83)" d="M 14699.9,2519.98 C 14699.9,2519.98 14486,2370.52 14486,2370.52 C 14486,2370.52 14534.4,2370.5 14555.5,2352.24 C 14576.7,2333.98 14583.8,2286.03 14583.8,2286.03 C 14583.8,2286.03 14699.9,2519.98 14699.9,2519.98 C 14699.9,2519.98 14699.9,2519.98 14699.9,2519.98 " />
<path stroke="none" fill="#0000ff" transform="matrix(0.05 0 0 0.05 -12 -83)" d="M 16521,2636 L 15600,2636 L 15600,2604 L 16521,2604 Z " />
<path stroke="none" fill="#0000ff" transform="matrix(0.05 0 0 0.05 -12 -83)" d="M 16800,2620 C 16800,2620 16480,2701 16480,2701 C 16480,2701 16520,2655.44 16520,2620 C 16520,2584.13 16480,2538 16480,2538 C 16480,2538 16800,2620 16800,2620 C 16800,2620 16800,2620 16800,2620 " />
<path stroke="#0000ff" stroke-width="1" fill="none" transform="matrix(0.05 0 0 0.05 -12 -83)" d="M 16800,2620 C 16800,2620 16480,2701 16480,2701 C 16480,2701 16520,2655.44 16520,2620 C 16520,2584.13 16480,2538 16480,2538 C 16480,2538 16800,2620 16800,2620 C 16800,2620 16800,2620 16800,2620 " />
<text x="0" y="0" stroke="none" fill="#0000ff" transform="matrix(0.05 0 0 0.05 876.647 40.3037)" font-style="normal" font-weight="normal" font-size="240px" font-family="Helvetica" >
C</text>
<text x="0" y="0" stroke="none" fill="#0000ff" transform="matrix(0.05 0 0 0.05 902.627 55.3037)" font-style="normal" font-weight="normal" font-size="240px" font-family="Helvetica" >
N</text>
<path stroke="none" fill="#0000ff" transform="matrix(0.05 0 0 0.05 -12 -83)" d="M 17983.1,2417.81 L 17999.1,2390.1 L 18285.8,2555.61 L 18269.8,2583.32 L 17983.1,2417.81 Z " />
<path stroke="none" fill="#0000ff" transform="matrix(0.05 0 0 0.05 -12 -83)" d="M 17938.1,2495.75 L 17954.1,2468.04 L 18240.8,2633.55 L 18224.8,2661.26 L 17938.1,2495.75 Z " />
<text x="0" y="0" stroke="none" fill="#0000ff" transform="matrix(0.05 0 0 0.05 928.547 70.4037)" font-style="normal" font-weight="normal" font-size="240px" font-family="Helvetica" >
R</text>
<path stroke="none" fill="#0000ff" transform="matrix(0.05 0 0 0.05 -12 -83)" d="M 18494.3,2765.58 L 18510.4,2737.93 L 18784,2897.28 L 18767.8,2924.93 L 18494.3,2765.58 Z " />
<text x="0" y="0" stroke="none" fill="#0000ff" transform="matrix(0.05 0 0 0.05 850.223 25.4937)" font-style="normal" font-weight="normal" font-size="240px" font-family="Helvetica" >
O</text>
<path stroke="none" fill="#0000ff" transform="matrix(0.05 0 0 0.05 -12 -83)" d="M 17738.7,2344.75 L 17723,2372.57 L 17419.4,2200.28 L 17435.2,2172.45 L 17738.7,2344.75 Z " />
<path stroke="none" fill="#0000ff" transform="matrix(0.05 0 0 0.05 -12 -83)" d="M 17783.2,2266.48 L 17767.4,2294.3 L 17463.9,2122.01 L 17479.7,2094.18 L 17783.2,2266.48 Z " />
<path stroke="#0000ff" stroke-width="32" fill="none" transform="matrix(0.05 0 0 0.05 -12 -83)" d="M 13335.2,2840 C 13287.8,2990.27 13416.1,3140.38 13621.7,3175.05 C 13726.9,3192.79 13841.7,3176.07 13929.6,3130.24 " />
<path stroke="none" fill="#0000ff" transform="matrix(0.05 0 0 0.05 -12 -83)" d="M 14080,2965.6 C 14080,2965.6 13956.1,3197.73 13956.1,3197.73 C 13956.1,3197.73 13950.5,3149.39 13929.6,3130.24 C 13908.7,3111.08 13860.1,3109.78 13860.1,3109.78 C 13860.1,3109.78 14080,2965.6 14080,2965.6 C 14080,2965.6 14080,2965.6 14080,2965.6 " />
<path stroke="#0000ff" stroke-width="1" fill="none" transform="matrix(0.05 0 0 0.05 -12 -83)" d="M 14080,2965.6 C 14080,2965.6 13956.1,3197.73 13956.1,3197.73 C 13956.1,3197.73 13950.5,3149.39 13929.6,3130.24 C 13908.7,3111.08 13860.1,3109.78 13860.1,3109.78 C 13860.1,3109.78 14080,2965.6 14080,2965.6 C 14080,2965.6 14080,2965.6 14080,2965.6 " />
<path stroke="none" fill="#0000ff" transform="matrix(0.05 0 0 0.05 -12 -83)" d="M 14164.8,2728.4 A 20,20 0 1 0 14204.8,2728.4A 20,20 0 1 0 14164.8,2728.4Z " />
<path stroke="none" fill="#0000ff" transform="matrix(0.05 0 0 0.05 -12 -83)" d="M 14074.8,2728.2 A 20,20 0 1 0 14114.8,2728.2A 20,20 0 1 0 14074.8,2728.2Z " />
<path stroke="#0000ff" stroke-width="32" fill="none" transform="matrix(0.05 0 0 0.05 -12 -83)" d="M 14120,2640.09 C 14161.1,2546.26 14118.3,2436.72 14024.5,2395.61 C 13962,2368.2 13884.9,2378.85 13832.2,2422.19 " />
<path stroke="none" fill="#0000ff" transform="matrix(0.05 0 0 0.05 -12 -83)" d="M 13780,2640.01 C 13780,2640.01 13776.4,2375.15 13776.4,2375.15 C 13776.4,2375.15 13804.5,2415.22 13832.2,2422.19 C 13859.9,2429.15 13902.9,2406.99 13902.9,2406.99 C 13902.9,2406.99 13780,2640.01 13780,2640.01 C 13780,2640.01 13780,2640.01 13780,2640.01 " />
<path stroke="#0000ff" stroke-width="1" fill="none" transform="matrix(0.05 0 0 0.05 -12 -83)" d="M 13780,2640.01 C 13780,2640.01 13776.4,2375.15 13776.4,2375.15 C 13776.4,2375.15 13804.5,2415.22 13832.2,2422.19 C 13859.9,2429.15 13902.9,2406.99 13902.9,2406.99 C 13902.9,2406.99 13780,2640.01 13780,2640.01 C 13780,2640.01 13780,2640.01 13780,2640.01 " />
<text x="0" y="0" stroke="none" fill="#0000ff" transform="matrix(0.05 0 0 0.05 841 83)" font-style="normal" font-weight="normal" font-size="320px" font-family="Helvetica" >
(Isocyanate)</text>
<text x="0" y="0" stroke="none" fill="#0000ff" transform="matrix(0.05 0 0 0.05 215.667 66.3037)" font-style="normal" font-weight="normal" font-size="240px" font-family="Helvetica" >
R</text>
<path stroke="none" fill="#0000ff" transform="matrix(0.05 0 0 0.05 -12 -83)" d="M 4759.58,2849.44 L 4743.58,2821.72 L 5159.62,2580.76 L 5159.62,2617.77 L 4759.58,2849.44 Z " />
<text x="0" y="0" stroke="none" fill="#0000ff" transform="matrix(0.05 0 0 0.05 267.627 66.3037)" font-style="normal" font-weight="normal" font-size="240px" font-family="Helvetica" >
N</text>
<path stroke="none" fill="#0000ff" transform="matrix(0.05 0 0 0.05 -12 -83)" d="M 5159.62,2617.77 L 5159.62,2580.76 L 5563.25,2814.58 L 5547.25,2842.29 L 5159.62,2617.77 Z " />
<text x="0" y="0" stroke="none" fill="#0000ff" transform="matrix(0.05 0 0 0.05 241.313 21.3037)" font-style="normal" font-weight="normal" font-size="240px" font-family="Helvetica" >
O</text>
<path stroke="none" fill="#0000ff" transform="matrix(0.05 0 0 0.05 -12 -83)" d="M 5130.6,2625.98 L 5098.6,2625.98 L 5098.6,2133.58 L 5130.6,2133.58 L 5130.6,2625.98 Z " />
<path stroke="none" fill="#0000ff" transform="matrix(0.05 0 0 0.05 -12 -83)" d="M 5220.6,2625.98 L 5188.6,2625.98 L 5188.6,2133.58 L 5220.6,2133.58 L 5220.6,2625.98 Z " />
<text x="0" y="0" stroke="none" fill="#0000ff" transform="matrix(0.05 0 0 0.05 267.627 96.3037)" font-style="normal" font-weight="normal" font-size="240px" font-family="Helvetica" >
H</text>
<path stroke="none" fill="#0000ff" transform="matrix(0.05 0 0 0.05 -12 -83)" d="M 5663.2,3025.93 L 5695.2,3025.93 L 5695.2,3373.93 L 5663.2,3373.93 L 5663.2,3025.93 Z " />
<path stroke="none" fill="#0000ff" transform="matrix(0.05 0 0 0.05 -12 -83)" d="M 8021,2676 L 6900,2676 L 6900,2644 L 8021,2644 Z " />
<path stroke="none" fill="#0000ff" transform="matrix(0.05 0 0 0.05 -12 -83)" d="M 8300,2660 C 8300,2660 7980,2741 7980,2741 C 7980,2741 8020,2695.44 8020,2660 C 8020,2624.13 7980,2578 7980,2578 C 7980,2578 8300,2660 8300,2660 C 8300,2660 8300,2660 8300,2660 " />
<path stroke="#0000ff" stroke-width="1" fill="none" transform="matrix(0.05 0 0 0.05 -12 -83)" d="M 8300,2660 C 8300,2660 7980,2741 7980,2741 C 7980,2741 8020,2695.44 8020,2660 C 8020,2624.13 7980,2578 7980,2578 C 7980,2578 8300,2660 8300,2660 C 8300,2660 8300,2660 8300,2660 " />
<text x="0" y="0" stroke="none" fill="#0000ff" transform="matrix(0.05 0 0 0.05 1.66699 67.3037)" font-style="normal" font-weight="normal" font-size="240px" font-family="Helvetica" >
R</text>
<path stroke="none" fill="#0000ff" transform="matrix(0.05 0 0 0.05 -12 -83)" d="M 479.577,2869.44 L 463.577,2841.72 L 879.618,2600.76 L 879.621,2637.77 L 479.577,2869.44 Z " />
<text x="0" y="0" stroke="none" fill="#0000ff" transform="matrix(0.05 0 0 0.05 53.627 67.3037)" font-style="normal" font-weight="normal" font-size="240px" font-family="Helvetica" >
N</text>
<path stroke="none" fill="#0000ff" transform="matrix(0.05 0 0 0.05 -12 -83)" d="M 879.621,2637.77 L 879.618,2600.76 L 1283.25,2834.58 L 1267.25,2862.29 L 879.621,2637.77 Z " />
<text x="0" y="0" stroke="none" fill="#0000ff" transform="matrix(0.05 0 0 0.05 27.313 22.3037)" font-style="normal" font-weight="normal" font-size="240px" font-family="Helvetica" >
O</text>
<path stroke="none" fill="#0000ff" transform="matrix(0.05 0 0 0.05 -12 -83)" d="M 850.6,2645.98 L 818.6,2645.98 L 818.6,2153.58 L 850.6,2153.58 L 850.6,2645.98 Z " />
<path stroke="none" fill="#0000ff" transform="matrix(0.05 0 0 0.05 -12 -83)" d="M 940.6,2645.98 L 908.6,2645.98 L 908.6,2153.58 L 940.6,2153.58 L 940.6,2645.98 Z " />
<text x="0" y="0" stroke="none" fill="#0000ff" transform="matrix(0.05 0 0 0.05 53.627 97.3037)" font-style="normal" font-weight="normal" font-size="240px" font-family="Helvetica" >
H</text>
<path stroke="none" fill="#0000ff" transform="matrix(0.05 0 0 0.05 -12 -83)" d="M 1383.2,3045.93 L 1415.2,3045.93 L 1415.2,3393.93 L 1383.2,3393.93 L 1383.2,3045.93 Z " />
<text x="0" y="0" stroke="none" fill="#0000ff" transform="matrix(0.05 0 0 0.05 79.607 52.3037)" font-style="normal" font-weight="normal" font-size="240px" font-family="Helvetica" >
H</text>
<path stroke="none" fill="#0000ff" transform="matrix(0.05 0 0 0.05 -12 -83)" d="M 1530.58,2862.62 L 1514.58,2834.91 L 1787.36,2677.42 L 1803.36,2705.13 L 1530.58,2862.62 Z " />
<path stroke="none" fill="#0000ff" transform="matrix(0.05 0 0 0.05 -12 -83)" d="M 3741,2756 L 2620,2756 L 2620,2724 L 3741,2724 Z " />
<path stroke="none" fill="#0000ff" transform="matrix(0.05 0 0 0.05 -12 -83)" d="M 4020,2740 C 4020,2740 3700,2821 3700,2821 C 3700,2821 3740,2775.44 3740,2740 C 3740,2704.13 3700,2658 3700,2658 C 3700,2658 4020,2740 4020,2740 C 4020,2740 4020,2740 4020,2740 " />
<path stroke="#0000ff" stroke-width="1" fill="none" transform="matrix(0.05 0 0 0.05 -12 -83)" d="M 4020,2740 C 4020,2740 3700,2821 3700,2821 C 3700,2821 3740,2775.44 3740,2740 C 3740,2704.13 3700,2658 3700,2658 C 3700,2658 4020,2740 4020,2740 C 4020,2740 4020,2740 4020,2740 " />
<path stroke="none" fill="#0000ff" transform="matrix(0.05 0 0 0.05 -12 -83)" d="M 5704.8,2708.4 A 20,20 0 1 0 5744.8,2708.4A 20,20 0 1 0 5704.8,2708.4Z " />
<path stroke="none" fill="#0000ff" transform="matrix(0.05 0 0 0.05 -12 -83)" d="M 5614.8,2708.2 A 20,20 0 1 0 5654.8,2708.2A 20,20 0 1 0 5614.8,2708.2Z " />
<path stroke="#0000ff" stroke-width="26" fill="none" transform="matrix(0.05 0 0 0.05 -12 -83)" d="M 5820.8,2877.8 A 92.7999,92.7999 0 1 0 6006.4,2877.8A 92.7999,92.7999 0 1 0 5820.8,2877.8Z " />
<path stroke="none" fill="#0000ff" transform="matrix(0.05 0 0 0.05 -12 -83)" d="M 5857.6,2864.8 L 5969.6,2864.8 L 5969.6,2890.8 L 5857.6,2890.8 Z " />
<text x="0" y="0" stroke="none" fill="#0000ff" transform="matrix(0.05 0 0 0.05 132.997 46.9983)" font-style="normal" font-weight="normal" font-size="320px" font-family="Helvetica" >
O</text>
<text x="0" y="0" stroke="none" fill="#0000ff" transform="matrix(0.05 0 0 0.05 145.443 46.9983)" font-style="normal" font-weight="normal" font-size="320px" font-family="Helvetica" >
H</text>
<text x="0" y="0" stroke="none" fill="#0000ff" transform="matrix(0.05 0 0 0.05 156.997 41.26)" font-style="normal" font-weight="normal" font-size="240px" font-family="Helvetica" >
-</text>
<text x="0" y="0" stroke="none" fill="#0000ff" transform="matrix(0.05 0 0 0.05 336.338 41.5637)" font-style="normal" font-weight="normal" font-size="240px" font-family="Helvetica" >
Br</text>
<text x="0" y="0" stroke="none" fill="#0000ff" transform="matrix(0.05 0 0 0.05 372.328 42.1137)" font-style="normal" font-weight="normal" font-size="240px" font-family="Helvetica" >
Br</text>
<path stroke="none" fill="#0000ff" transform="matrix(0.05 0 0 0.05 -12 -83)" d="M 7243.14,2422.6 L 7243.73,2390.61 L 7663.58,2398.31 L 7662.99,2430.3 L 7243.14,2422.6 Z " />
<path stroke="#0000ff" stroke-width="32" fill="none" transform="matrix(0.05 0 0 0.05 -12 -83)" d="M 6697.21,2286.3 C 6324.71,2168.32 5887.58,2328.95 5680.08,2660.05 " />
<path stroke="none" fill="#0000ff" transform="matrix(0.05 0 0 0.05 -12 -83)" d="M 6899.95,2380.08 C 6899.95,2380.08 6640.46,2331.83 6640.46,2331.83 C 6640.46,2331.83 6685.09,2312.01 6697.21,2286.3 C 6709.34,2260.6 6696.05,2213.98 6696.05,2213.98 C 6696.05,2213.98 6899.95,2380.08 6899.95,2380.08 C 6899.95,2380.08 6899.95,2380.08 6899.95,2380.08 " />
<path stroke="#0000ff" stroke-width="1" fill="none" transform="matrix(0.05 0 0 0.05 -12 -83)" d="M 6899.95,2380.08 C 6899.95,2380.08 6640.46,2331.83 6640.46,2331.83 C 6640.46,2331.83 6685.09,2312.01 6697.21,2286.3 C 6709.34,2260.6 6696.05,2213.98 6696.05,2213.98 C 6696.05,2213.98 6899.95,2380.08 6899.95,2380.08 C 6899.95,2380.08 6899.95,2380.08 6899.95,2380.08 " />
<path stroke="none" fill="#0000ff" transform="matrix(0.05 0 0 0.05 -12 -83)" d="M 18024,4401 L 18024,3540 L 18056,3540 L 18056,4401 Z " />
<path stroke="none" fill="#0000ff" transform="matrix(0.05 0 0 0.05 -12 -83)" d="M 18040,4680 C 18040,4680 17958,4360 17958,4360 C 17958,4360 18004.1,4400 18040,4400 C 18075.4,4400 18121,4360 18121,4360 C 18121,4360 18040,4680 18040,4680 C 18040,4680 18040,4680 18040,4680 " />
<path stroke="#0000ff" stroke-width="1" fill="none" transform="matrix(0.05 0 0 0.05 -12 -83)" d="M 18040,4680 C 18040,4680 17958,4360 17958,4360 C 17958,4360 18004.1,4400 18040,4400 C 18075.4,4400 18121,4360 18121,4360 C 18121,4360 18040,4680 18040,4680 C 18040,4680 18040,4680 18040,4680 " />
<path stroke="#0000ff" stroke-width="32" fill="none" transform="matrix(0.05 0 0 0.05 -12 -83)" d="M 3416.89,2333.99 C 3378.23,2083.2 3015.26,1898.89 2606.75,1922.63 C 2336.45,1938.34 2088.98,2051.65 1987.39,2206.24 " />
<path stroke="none" fill="#0000ff" transform="matrix(0.05 0 0 0.05 -12 -83)" d="M 1936.71,2420.01 C 1936.71,2420.01 1932.56,2160.22 1932.56,2160.22 C 1932.56,2160.22 1960.76,2199.59 1987.39,2206.24 C 2014.03,2212.88 2056.71,2191.18 2056.71,2191.18 C 2056.71,2191.18 1936.71,2420.01 1936.71,2420.01 C 1936.71,2420.01 1936.71,2420.01 1936.71,2420.01 " />
<path stroke="#0000ff" stroke-width="1" fill="none" transform="matrix(0.05 0 0 0.05 -12 -83)" d="M 1936.71,2420.01 C 1936.71,2420.01 1932.56,2160.22 1932.56,2160.22 C 1932.56,2160.22 1960.76,2199.59 1987.39,2206.24 C 2014.03,2212.88 2056.71,2191.18 2056.71,2191.18 C 2056.71,2191.18 1936.71,2420.01 1936.71,2420.01 C 1936.71,2420.01 1936.71,2420.01 1936.71,2420.01 " />
<text x="0" y="0" stroke="none" fill="#0000ff" transform="matrix(0.05 0 0 0.05 135.996 72.9983)" font-style="normal" font-weight="normal" font-size="320px" font-family="Helvetica" >
-H</text>
<text x="0" y="0" stroke="none" fill="#0000ff" transform="matrix(0.05 0 0 0.05 152.879 76.678)" font-style="normal" font-weight="normal" font-size="240px" font-family="Helvetica" >
2</text>
<text x="0" y="0" stroke="none" fill="#0000ff" transform="matrix(0.05 0 0 0.05 159.553 72.9983)" font-style="normal" font-weight="normal" font-size="320px" font-family="Helvetica" >
O</text>
<text x="0" y="0" stroke="none" fill="#0000ff" transform="matrix(0.05 0 0 0.05 897.883 122.998)" font-style="normal" font-weight="normal" font-size="320px" font-family="Helvetica" >
H</text>
<text x="0" y="0" stroke="none" fill="#0000ff" transform="matrix(0.05 0 0 0.05 909.437 126.678)" font-style="normal" font-weight="normal" font-size="240px" font-family="Helvetica" >
2</text>
<text x="0" y="0" stroke="none" fill="#0000ff" transform="matrix(0.05 0 0 0.05 916.111 122.998)" font-style="normal" font-weight="normal" font-size="320px" font-family="Helvetica" >
O</text>
<path stroke="none" fill="#0000ff" transform="matrix(0.05 0 0 0.05 -12 -83)" d="M 18707,3808 A 19.9616,19.9616 0 1 0 18747,3808A 19.9616,19.9616 0 1 0 18707,3808Z " />
<path stroke="none" fill="#0000ff" transform="matrix(0.05 0 0 0.05 -12 -83)" d="M 18617.2,3810.2 A 19.9616,19.9616 0 1 0 18657.2,3810.2A 19.9616,19.9616 0 1 0 18617.2,3810.2Z " />
<path stroke="#0000ff" stroke-width="32" fill="none" transform="matrix(0.05 0 0 0.05 -12 -83)" d="M 18820,3759.93 C 19228.4,3528.12 19371.7,3008.46 19139.9,2600.04 C 18956.1,2276.12 18548.4,2103.18 18187.7,2196.11 " />
<path stroke="none" fill="#0000ff" transform="matrix(0.05 0 0 0.05 -12 -83)" d="M 17980,2280.07 C 17980,2280.07 18192.4,2123.78 18192.4,2123.78 C 18192.4,2123.78 18176.8,2169.72 18187.7,2196.11 C 18198.6,2222.51 18242.4,2244.45 18242.4,2244.45 C 18242.4,2244.45 17980,2280.07 17980,2280.07 C 17980,2280.07 17980,2280.07 17980,2280.07 " />
<path stroke="#0000ff" stroke-width="1" fill="none" transform="matrix(0.05 0 0 0.05 -12 -83)" d="M 17980,2280.07 C 17980,2280.07 18192.4,2123.78 18192.4,2123.78 C 18192.4,2123.78 18176.8,2169.72 18187.7,2196.11 C 18198.6,2222.51 18242.4,2244.45 18242.4,2244.45 C 18242.4,2244.45 17980,2280.07 17980,2280.07 C 17980,2280.07 17980,2280.07 17980,2280.07 " />
<path stroke="#0000ff" stroke-width="32" fill="none" transform="matrix(0.05 0 0 0.05 -12 -83)" d="M 17780,2139.98 C 17851.7,2040.64 17829.3,1901.77 17730,1830.03 C 17698.6,1807.34 17661.1,1793.09 17622.6,1789.15 " />
<path stroke="none" fill="#0000ff" transform="matrix(0.05 0 0 0.05 -12 -83)" d="M 17420,1880.02 C 17420,1880.02 17624.6,1717.3 17624.6,1717.3 C 17624.6,1717.3 17610.9,1763.63 17622.6,1789.15 C 17634.3,1814.68 17678.5,1835.04 17678.5,1835.04 C 17678.5,1835.04 17420,1880.02 17420,1880.02 C 17420,1880.02 17420,1880.02 17420,1880.02 " />
<path stroke="#0000ff" stroke-width="1" fill="none" transform="matrix(0.05 0 0 0.05 -12 -83)" d="M 17420,1880.02 C 17420,1880.02 17624.6,1717.3 17624.6,1717.3 C 17624.6,1717.3 17610.9,1763.63 17622.6,1789.15 C 17634.3,1814.68 17678.5,1835.04 17678.5,1835.04 C 17678.5,1835.04 17420,1880.02 17420,1880.02 C 17420,1880.02 17420,1880.02 17420,1880.02 " />
<text x="0" y="0" stroke="none" fill="#0000ff" transform="matrix(0.05 0 0 0.05 862.647 188.304)" font-style="normal" font-weight="normal" font-size="240px" font-family="Helvetica" >
C</text>
<text x="0" y="0" stroke="none" fill="#0000ff" transform="matrix(0.05 0 0 0.05 888.627 203.304)" font-style="normal" font-weight="normal" font-size="240px" font-family="Helvetica" >
N</text>
<path stroke="none" fill="#0000ff" transform="matrix(0.05 0 0 0.05 -12 -83)" d="M 17703.1,5377.81 L 17719.1,5350.1 L 18005.8,5515.61 L 17989.8,5543.32 L 17703.1,5377.81 Z " />
<path stroke="none" fill="#0000ff" transform="matrix(0.05 0 0 0.05 -12 -83)" d="M 17658.1,5455.75 L 17674.1,5428.04 L 17960.8,5593.55 L 17944.8,5621.26 L 17658.1,5455.75 Z " />
<text x="0" y="0" stroke="none" fill="#0000ff" transform="matrix(0.05 0 0 0.05 914.547 218.404)" font-style="normal" font-weight="normal" font-size="240px" font-family="Helvetica" >
R</text>
<path stroke="none" fill="#0000ff" transform="matrix(0.05 0 0 0.05 -12 -83)" d="M 18214.3,5725.58 L 18230.4,5697.93 L 18504,5857.28 L 18487.8,5884.93 L 18214.3,5725.58 Z " />
<text x="0" y="0" stroke="none" fill="#0000ff" transform="matrix(0.05 0 0 0.05 862.323 158.304)" font-style="normal" font-weight="normal" font-size="240px" font-family="Helvetica" >
O</text>
<path stroke="none" fill="#0000ff" transform="matrix(0.05 0 0 0.05 -12 -83)" d="M 17595.6,5210.59 L 17563.6,5210.58 L 17563.8,4873.58 L 17595.8,4873.59 L 17595.6,5210.59 Z " />
<text x="0" y="0" stroke="none" fill="#0000ff" transform="matrix(0.05 0 0 0.05 822.842 203.604)" font-style="normal" font-weight="normal" font-size="240px" font-family="Helvetica" >
H</text>
<text x="0" y="0" stroke="none" fill="#0000ff" transform="matrix(0.05 0 0 0.05 831.508 206.363)" font-style="normal" font-weight="normal" font-size="180px" font-family="Helvetica" >
2</text>
<text x="0" y="0" stroke="none" fill="#0000ff" transform="matrix(0.05 0 0 0.05 836.513 203.604)" font-style="normal" font-weight="normal" font-size="240px" font-family="Helvetica" >
O</text>
<path stroke="none" fill="#0000ff" transform="matrix(0.05 0 0 0.05 -12 -83)" d="M 17463.9,5390.01 L 17480.2,5417.54 L 17182.8,5593.91 L 17166.5,5566.39 L 17463.9,5390.01 Z " />
<path stroke="#0000ff" stroke-width="26" fill="none" transform="matrix(0.05 0 0 0.05 -12 -83)" d="M 17719.2,4688.4 A 92.7999,92.7999 0 1 0 17904.8,4688.4A 92.7999,92.7999 0 1 0 17719.2,4688.4Z " />
<path stroke="none" fill="#0000ff" transform="matrix(0.05 0 0 0.05 -12 -83)" d="M 17756,4675.4 L 17868,4675.4 L 17868,4701.4 L 17756,4701.4 Z " />
<path stroke="#0000ff" stroke-width="32" fill="none" transform="matrix(0.05 0 0 0.05 -12 -83)" d="M 17784.9,5094.98 C 17898,5064.68 17965.3,4948.25 17935,4835.11 C 17925.4,4799.32 17906.2,4766.15 17880,4739.95 " />
<path stroke="none" fill="#0000ff" transform="matrix(0.05 0 0 0.05 -12 -83)" d="M 17580,5040.05 C 17580,5040.05 17830.9,5043.27 17830.9,5043.27 C 17830.9,5043.27 17791.8,5070.3 17784.9,5094.98 C 17778,5119.66 17797.5,5162.38 17797.5,5162.38 C 17797.5,5162.38 17580,5040.05 17580,5040.05 C 17580,5040.05 17580,5040.05 17580,5040.05 " />
<path stroke="#0000ff" stroke-width="1" fill="none" transform="matrix(0.05 0 0 0.05 -12 -83)" d="M 17580,5040.05 C 17580,5040.05 17830.9,5043.27 17830.9,5043.27 C 17830.9,5043.27 17791.8,5070.3 17784.9,5094.98 C 17778,5119.66 17797.5,5162.38 17797.5,5162.38 C 17797.5,5162.38 17580,5040.05 17580,5040.05 C 17580,5040.05 17580,5040.05 17580,5040.05 " />
<path stroke="#0000ff" stroke-width="32" fill="none" transform="matrix(0.05 0 0 0.05 -12 -83)" d="M 18326.5,5397.07 C 18385.6,5266.53 18327.6,5112.61 18197.1,5053.51 C 18066.5,4994.41 17912.6,5052.4 17853.5,5182.93 C 17828.6,5237.99 17823.7,5301.8 17840,5360 " />
<path stroke="none" fill="#0000ff" transform="matrix(0.05 0 0 0.05 -12 -83)" d="M 18160,5539.99 C 18160,5539.99 18308.4,5328.08 18308.4,5328.08 C 18308.4,5328.08 18308.6,5376.25 18326.5,5397.07 C 18344.4,5417.88 18392.1,5425.22 18392.1,5425.22 C 18392.1,5425.22 18160,5539.99 18160,5539.99 C 18160,5539.99 18160,5539.99 18160,5539.99 " />
<path stroke="#0000ff" stroke-width="1" fill="none" transform="matrix(0.05 0 0 0.05 -12 -83)" d="M 18160,5539.99 C 18160,5539.99 18308.4,5328.08 18308.4,5328.08 C 18308.4,5328.08 18308.6,5376.25 18326.5,5397.07 C 18344.4,5417.88 18392.1,5425.22 18392.1,5425.22 C 18392.1,5425.22 18160,5539.99 18160,5539.99 C 18160,5539.99 18160,5539.99 18160,5539.99 " />
<path stroke="none" fill="#0000ff" transform="matrix(0.05 0 0 0.05 -12 -83)" d="M 15679,5424 L 16540,5424 L 16540,5456 L 15679,5456 Z " />
<path stroke="none" fill="#0000ff" transform="matrix(0.05 0 0 0.05 -12 -83)" d="M 15400,5440 C 15400,5440 15720,5358 15720,5358 C 15720,5358 15680,5404.13 15680,5440 C 15680,5475.44 15720,5521 15720,5521 C 15720,5521 15400,5440 15400,5440 C 15400,5440 15400,5440 15400,5440 " />
<path stroke="#0000ff" stroke-width="1" fill="none" transform="matrix(0.05 0 0 0.05 -12 -83)" d="M 15400,5440 C 15400,5440 15720,5358 15720,5358 C 15720,5358 15680,5404.13 15680,5440 C 15680,5475.44 15720,5521 15720,5521 C 15720,5521 15400,5440 15400,5440 C 15400,5440 15400,5440 15400,5440 " />
<text x="0" y="0" stroke="none" fill="#0000ff" transform="matrix(0.05 0 0 0.05 652.667 198.304)" font-style="normal" font-weight="normal" font-size="240px" font-family="Helvetica" >
R</text>
<text x="0" y="0" stroke="none" fill="#0000ff" transform="matrix(0.05 0 0 0.05 678.647 183.304)" font-style="normal" font-weight="normal" font-size="240px" font-family="Helvetica" >
N</text>
<path stroke="none" fill="#0000ff" transform="matrix(0.05 0 0 0.05 -12 -83)" d="M 13499.6,5489.44 L 13483.6,5461.72 L 13767.7,5297.67 L 13783.7,5325.38 L 13499.6,5489.44 Z " />
<path stroke="none" fill="#0000ff" transform="matrix(0.05 0 0 0.05 -12 -83)" d="M 14014.9,5325.05 L 14030.9,5297.34 L 14419.2,5522.23 L 14419.2,5559.24 L 14014.9,5325.05 Z " />
<text x="0" y="0" stroke="none" fill="#0000ff" transform="matrix(0.05 0 0 0.05 730.273 183.304)" font-style="normal" font-weight="normal" font-size="240px" font-family="Helvetica" >
OH</text>
<text x="0" y="0" stroke="none" fill="#0000ff" transform="matrix(0.05 0 0 0.05 748.273 186.063)" font-style="normal" font-weight="normal" font-size="180px" font-family="Helvetica" >
2</text>
<path stroke="none" fill="#0000ff" transform="matrix(0.05 0 0 0.05 -12 -83)" d="M 14419.2,5559.24 L 14419.2,5522.23 L 14817.8,5291.39 L 14833.8,5319.1 L 14419.2,5559.24 Z " />
<text x="0" y="0" stroke="none" fill="#0000ff" transform="matrix(0.05 0 0 0.05 704.293 228.304)" font-style="normal" font-weight="normal" font-size="240px" font-family="Helvetica" >
O</text>
<path stroke="none" fill="#0000ff" transform="matrix(0.05 0 0 0.05 -12 -83)" d="M 14448.2,5514.02 L 14480.2,5514.02 L 14480.2,6010.58 L 14448.2,6010.58 L 14448.2,5514.02 Z " />
<path stroke="none" fill="#0000ff" transform="matrix(0.05 0 0 0.05 -12 -83)" d="M 14358.2,5514.02 L 14390.2,5514.02 L 14390.2,6010.58 L 14358.2,6010.58 L 14358.2,5514.02 Z " />
<path stroke="#0000ff" stroke-width="26" fill="none" transform="matrix(0.05 0 0 0.05 -12 -83)" d="M 13790.4,5005 A 92.7999,92.7999 0 1 0 13976,5005A 92.7999,92.7999 0 1 0 13790.4,5005Z " />
<path stroke="none" fill="#0000ff" transform="matrix(0.05 0 0 0.05 -12 -83)" d="M 13827.2,4992 L 13939.2,4992 L 13939.2,5018 L 13827.2,5018 Z " />
<path stroke="none" fill="#0000ff" transform="matrix(0.05 0 0 0.05 -12 -83)" d="M 11999,5444 L 12860,5444 L 12860,5476 L 11999,5476 Z " />
<path stroke="none" fill="#0000ff" transform="matrix(0.05 0 0 0.05 -12 -83)" d="M 11720,5460 C 11720,5460 12040,5378 12040,5378 C 12040,5378 12000,5424.13 12000,5460 C 12000,5495.44 12040,5541 12040,5541 C 12040,5541 11720,5460 11720,5460 C 11720,5460 11720,5460 11720,5460 " />
<path stroke="#0000ff" stroke-width="1" fill="none" transform="matrix(0.05 0 0 0.05 -12 -83)" d="M 11720,5460 C 11720,5460 12040,5378 12040,5378 C 12040,5378 12000,5424.13 12000,5460 C 12000,5495.44 12040,5541 12040,5541 C 12040,5541 11720,5460 11720,5460 C 11720,5460 11720,5460 11720,5460 " />
<text x="0" y="0" stroke="none" fill="#0000ff" transform="matrix(0.05 0 0 0.05 468.667 199.304)" font-style="normal" font-weight="normal" font-size="240px" font-family="Helvetica" >
R</text>
<text x="0" y="0" stroke="none" fill="#0000ff" transform="matrix(0.05 0 0 0.05 494.647 174.27)" font-style="normal" font-weight="normal" font-size="240px" font-family="Helvetica" >
H</text>
<text x="0" y="0" stroke="none" fill="#0000ff" transform="matrix(0.05 0 0 0.05 494.647 184.304)" font-style="normal" font-weight="normal" font-size="240px" font-family="Helvetica" >
N</text>
<path stroke="none" fill="#0000ff" transform="matrix(0.05 0 0 0.05 -12 -83)" d="M 9819.58,5509.44 L 9803.58,5481.72 L 10087.3,5317.89 L 10103.3,5345.6 L 9819.58,5509.44 Z " />
<path stroke="none" fill="#0000ff" transform="matrix(0.05 0 0 0.05 -12 -83)" d="M 10333.8,5344.41 L 10349.8,5316.7 L 10739.2,5542.23 L 10739.2,5579.24 L 10333.8,5344.41 Z " />
<text x="0" y="0" stroke="none" fill="#0000ff" transform="matrix(0.05 0 0 0.05 546.273 184.304)" font-style="normal" font-weight="normal" font-size="240px" font-family="Helvetica" >
OH</text>
<path stroke="none" fill="#0000ff" transform="matrix(0.05 0 0 0.05 -12 -83)" d="M 10739.2,5579.24 L 10739.2,5542.23 L 11137.8,5311.39 L 11153.8,5339.1 L 10739.2,5579.24 Z " />
<text x="0" y="0" stroke="none" fill="#0000ff" transform="matrix(0.05 0 0 0.05 520.293 229.304)" font-style="normal" font-weight="normal" font-size="240px" font-family="Helvetica" >
O</text>
<path stroke="none" fill="#0000ff" transform="matrix(0.05 0 0 0.05 -12 -83)" d="M 10768.2,5534.02 L 10800.2,5534.02 L 10800.2,6030.58 L 10768.2,6030.58 L 10768.2,5534.02 Z " />
<path stroke="none" fill="#0000ff" transform="matrix(0.05 0 0 0.05 -12 -83)" d="M 10678.2,5534.02 L 10710.2,5534.02 L 10710.2,6030.58 L 10678.2,6030.58 L 10678.2,5534.02 Z " />
<path stroke="#0000ff" stroke-width="26" fill="none" transform="matrix(0.05 0 0 0.05 -12 -83)" d="M 17128.6,5824 A 92.7999,92.7999 0 1 0 17314.2,5824A 92.7999,92.7999 0 1 0 17128.6,5824Z " />
<path stroke="none" fill="#0000ff" transform="matrix(0.05 0 0 0.05 -12 -83)" d="M 17165.4,5811 L 17277.4,5811 L 17277.4,5837 L 17165.4,5837 Z " />
<path stroke="none" fill="#0000ff" transform="matrix(0.05 0 0 0.05 -12 -83)" d="M 17234.4,5768 L 17234.4,5880 L 17208.4,5880 L 17208.4,5768 Z " />
<path stroke="#0000ff" stroke-width="26" fill="none" transform="matrix(0.05 0 0 0.05 -12 -83)" d="M 14835.4,5002.4 A 92.7999,92.7999 0 1 0 15021,5002.4A 92.7999,92.7999 0 1 0 14835.4,5002.4Z " />
<path stroke="none" fill="#0000ff" transform="matrix(0.05 0 0 0.05 -12 -83)" d="M 14872.2,4989.4 L 14984.2,4989.4 L 14984.2,5015.4 L 14872.2,5015.4 Z " />
<path stroke="none" fill="#0000ff" transform="matrix(0.05 0 0 0.05 -12 -83)" d="M 14941.2,4946.4 L 14941.2,5058.4 L 14915.2,5058.4 L 14915.2,4946.4 Z " />
<path stroke="none" fill="#0000ff" transform="matrix(0.05 0 0 0.05 -12 -83)" d="M 8299,5504 L 9160,5504 L 9160,5536 L 8299,5536 Z " />
<path stroke="none" fill="#0000ff" transform="matrix(0.05 0 0 0.05 -12 -83)" d="M 8020,5520 C 8020,5520 8340,5438 8340,5438 C 8340,5438 8300,5484.13 8300,5520 C 8300,5555.44 8340,5601 8340,5601 C 8340,5601 8020,5520 8020,5520 C 8020,5520 8020,5520 8020,5520 " />
<path stroke="#0000ff" stroke-width="1" fill="none" transform="matrix(0.05 0 0 0.05 -12 -83)" d="M 8020,5520 C 8020,5520 8340,5438 8340,5438 C 8340,5438 8300,5484.13 8300,5520 C 8300,5555.44 8340,5601 8340,5601 C 8340,5601 8020,5520 8020,5520 C 8020,5520 8020,5520 8020,5520 " />
<text x="0" y="0" stroke="none" fill="#0000ff" transform="matrix(0.05 0 0 0.05 283.667 202.304)" font-style="normal" font-weight="normal" font-size="240px" font-family="Helvetica" >
R</text>
<text x="0" y="0" stroke="none" fill="#0000ff" transform="matrix(0.05 0 0 0.05 309.647 174.52)" font-style="normal" font-weight="normal" font-size="240px" font-family="Helvetica" >
H</text>
<text x="0" y="0" stroke="none" fill="#0000ff" transform="matrix(0.05 0 0 0.05 318.313 177.28)" font-style="normal" font-weight="normal" font-size="180px" font-family="Helvetica" >
2</text>
<text x="0" y="0" stroke="none" fill="#0000ff" transform="matrix(0.05 0 0 0.05 309.647 187.304)" font-style="normal" font-weight="normal" font-size="240px" font-family="Helvetica" >
N</text>
<path stroke="none" fill="#0000ff" transform="matrix(0.05 0 0 0.05 -12 -83)" d="M 6119.58,5569.44 L 6103.58,5541.72 L 6386.98,5378.09 L 6402.98,5405.81 L 6119.58,5569.44 Z " />
<path stroke="none" fill="#0000ff" transform="matrix(0.05 0 0 0.05 -12 -83)" d="M 6634.15,5404.61 L 6650.15,5376.9 L 7039.18,5602.23 L 7039.19,5639.24 L 6634.15,5404.61 Z " />
<text x="0" y="0" stroke="none" fill="#0000ff" transform="matrix(0.05 0 0 0.05 361.273 187.304)" font-style="normal" font-weight="normal" font-size="240px" font-family="Helvetica" >
O</text>
<path stroke="none" fill="#0000ff" transform="matrix(0.05 0 0 0.05 -12 -83)" d="M 7039.19,5639.24 L 7039.18,5602.23 L 7437.8,5371.39 L 7453.8,5399.1 L 7039.19,5639.24 Z " />
<text x="0" y="0" stroke="none" fill="#0000ff" transform="matrix(0.05 0 0 0.05 335.293 232.304)" font-style="normal" font-weight="normal" font-size="240px" font-family="Helvetica" >
O</text>
<path stroke="none" fill="#0000ff" transform="matrix(0.05 0 0 0.05 -12 -83)" d="M 7068.2,5594.02 L 7100.2,5594.02 L 7100.2,6090.58 L 7068.2,6090.58 L 7068.2,5594.02 Z " />
<path stroke="none" fill="#0000ff" transform="matrix(0.05 0 0 0.05 -12 -83)" d="M 6978.2,5594.02 L 7010.2,5594.02 L 7010.2,6090.58 L 6978.2,6090.58 L 6978.2,5594.02 Z " />
<path stroke="#0000ff" stroke-width="26" fill="none" transform="matrix(0.05 0 0 0.05 -12 -83)" d="M 7666.4,5191.8 A 92.7999,92.7999 0 1 0 7852,5191.8A 92.7999,92.7999 0 1 0 7666.4,5191.8Z " />
<path stroke="none" fill="#0000ff" transform="matrix(0.05 0 0 0.05 -12 -83)" d="M 7703.2,5178.8 L 7815.2,5178.8 L 7815.2,5204.8 L 7703.2,5204.8 Z " />
<path stroke="none" fill="#0000ff" transform="matrix(0.05 0 0 0.05 -12 -83)" d="M 7584.8,5128.4 A 20.0002,20.0002 0 1 0 7624.8,5128.4A 20.0002,20.0002 0 1 0 7584.8,5128.4Z " />
<path stroke="none" fill="#0000ff" transform="matrix(0.05 0 0 0.05 -12 -83)" d="M 7494.8,5128 A 20.0002,20.0002 0 1 0 7534.8,5128A 20.0002,20.0002 0 1 0 7494.8,5128Z " />
<path stroke="#0000ff" stroke-width="32" fill="none" transform="matrix(0.05 0 0 0.05 -12 -83)" d="M 7579.94,5080.07 C 7469.59,4986.26 7303.87,4999.7 7210.07,5110.06 C 7171.03,5155.98 7148.58,5215.62 7147.63,5275.89 " />
<path stroke="none" fill="#0000ff" transform="matrix(0.05 0 0 0.05 -12 -83)" d="M 7240.06,5479.93 C 7240.06,5479.93 7075.13,5274.15 7075.13,5274.15 C 7075.13,5274.15 7121.69,5287.88 7147.63,5275.89 C 7173.58,5263.9 7193.73,5219.34 7193.73,5219.34 C 7193.73,5219.34 7240.06,5479.93 7240.06,5479.93 C 7240.06,5479.93 7240.06,5479.93 7240.06,5479.93 " />
<path stroke="#0000ff" stroke-width="1" fill="none" transform="matrix(0.05 0 0 0.05 -12 -83)" d="M 7240.06,5479.93 C 7240.06,5479.93 7075.13,5274.15 7075.13,5274.15 C 7075.13,5274.15 7121.69,5287.88 7147.63,5275.89 C 7173.58,5263.9 7193.73,5219.34 7193.73,5219.34 C 7193.73,5219.34 7240.06,5479.93 7240.06,5479.93 C 7240.06,5479.93 7240.06,5479.93 7240.06,5479.93 " />
<path stroke="#0000ff" stroke-width="26" fill="none" transform="matrix(0.05 0 0 0.05 -12 -83)" d="M 6220,5207 A 92.7999,92.7999 0 1 0 6405.6,5207A 92.7999,92.7999 0 1 0 6220,5207Z " />
<path stroke="none" fill="#0000ff" transform="matrix(0.05 0 0 0.05 -12 -83)" d="M 6256.8,5194 L 6368.8,5194 L 6368.8,5220 L 6256.8,5220 Z " />
<path stroke="none" fill="#0000ff" transform="matrix(0.05 0 0 0.05 -12 -83)" d="M 6325.8,5151 L 6325.8,5263 L 6299.8,5263 L 6299.8,5151 Z " />
<path stroke="#0000ff" stroke-width="32" fill="none" transform="matrix(0.05 0 0 0.05 -12 -83)" d="M 6923.99,5514.78 C 7038.79,5409.91 7063.88,5208.32 6979.98,5064.81 C 6945.19,5005.3 6893.62,4961.54 6836.53,4943.07 " />
<path stroke="none" fill="#0000ff" transform="matrix(0.05 0 0 0.05 -12 -83)" d="M 6620.01,4994.82 C 6620.01,4994.82 6851.68,4872.81 6851.68,4872.81 C 6851.68,4872.81 6829.67,4915.73 6836.53,4943.07 C 6843.4,4970.4 6883.25,4998.54 6883.25,4998.54 C 6883.25,4998.54 6620.01,4994.82 6620.01,4994.82 C 6620.01,4994.82 6620.01,4994.82 6620.01,4994.82 " />
<path stroke="#0000ff" stroke-width="1" fill="none" transform="matrix(0.05 0 0 0.05 -12 -83)" d="M 6620.01,4994.82 C 6620.01,4994.82 6851.68,4872.81 6851.68,4872.81 C 6851.68,4872.81 6829.67,4915.73 6836.53,4943.07 C 6843.4,4970.4 6883.25,4998.54 6883.25,4998.54 C 6883.25,4998.54 6620.01,4994.82 6620.01,4994.82 C 6620.01,4994.82 6620.01,4994.82 6620.01,4994.82 " />
<path stroke="none" fill="#0000ff" transform="matrix(0.05 0 0 0.05 -12 -83)" d="M 4539,5524 L 5400,5524 L 5400,5556 L 4539,5556 Z " />
<path stroke="none" fill="#0000ff" transform="matrix(0.05 0 0 0.05 -12 -83)" d="M 4260,5540 C 4260,5540 4580,5458 4580,5458 C 4580,5458 4540,5504.13 4540,5540 C 4540,5575.44 4580,5621 4580,5621 C 4580,5621 4260,5540 4260,5540 C 4260,5540 4260,5540 4260,5540 " />
<path stroke="#0000ff" stroke-width="1" fill="none" transform="matrix(0.05 0 0 0.05 -12 -83)" d="M 4260,5540 C 4260,5540 4580,5458 4580,5458 C 4580,5458 4540,5504.13 4540,5540 C 4540,5575.44 4580,5621 4580,5621 C 4580,5621 4260,5540 4260,5540 C 4260,5540 4260,5540 4260,5540 " />
<text x="0" y="0" stroke="none" fill="#0000ff" transform="matrix(0.05 0 0 0.05 83.667 203.304)" font-style="normal" font-weight="normal" font-size="240px" font-family="Helvetica" >
R</text>
<text x="0" y="0" stroke="none" fill="#0000ff" transform="matrix(0.05 0 0 0.05 109.647 188.304)" font-style="normal" font-weight="normal" font-size="240px" font-family="Helvetica" >
NH</text>
<text x="0" y="0" stroke="none" fill="#0000ff" transform="matrix(0.05 0 0 0.05 126.979 191.063)" font-style="normal" font-weight="normal" font-size="180px" font-family="Helvetica" >
2</text>
<path stroke="none" fill="#0000ff" transform="matrix(0.05 0 0 0.05 -12 -83)" d="M 2119.58,5589.44 L 2103.58,5561.72 L 2386.97,5398.1 L 2402.97,5425.81 L 2119.58,5589.44 Z " />
<text x="0" y="0" stroke="none" fill="#0000ff" transform="matrix(0.05 0 0 0.05 140 200)" font-style="normal" font-weight="normal" font-size="320px" font-family="Helvetica" >
+ </text>
<text x="0" y="0" stroke="none" fill="#0000ff" transform="matrix(0.05 0 0 0.05 153.789 200)" font-style="normal" font-weight="normal" font-size="320px" font-family="Helvetica" >
 </text>
<text x="0" y="0" stroke="none" fill="#0000ff" transform="matrix(0.05 0 0 0.05 158.234 200)" font-style="normal" font-weight="normal" font-size="320px" font-family="Helvetica" >
CO</text>
<text x="0" y="0" stroke="none" fill="#0000ff" transform="matrix(0.05 0 0 0.05 182.234 203.68)" font-style="normal" font-weight="normal" font-size="240px" font-family="Helvetica" >
2</text>
</svg>
