<?xml version="1.0" standalone="no" ?>
<!DOCTYPE svg PUBLIC "-//W3C//DTD SVG 1.1//EN" "http://www.w3.org/Graphics/SVG/1.1/DTD/svg11.dtd">
<svg width="764px" height="197px" viewBox="0 0 764 197" style="background-color: #ffffff00" xmlns="http://www.w3.org/2000/svg" xmlns:xlink="http://www.w3.org/1999/xlink" version="1.1" >
<text x="0" y="0" stroke="none" fill="#0000ff" transform="matrix(0.05 0 0 0.05 57.667 56.3037)" font-style="normal" font-weight="normal" font-size="240px" font-family="Helvetica" >
R</text>
<path stroke="none" fill="#0000ff" transform="matrix(0.05 0 0 0.05 -54 -223)" d="M 2438.83,5449.87 L 2422.83,5422.16 L 2839.62,5180.76 L 2839.62,5217.77 L 2438.83,5449.87 Z " />
<text x="0" y="0" stroke="none" fill="#0000ff" transform="matrix(0.05 0 0 0.05 109.627 56.3037)" font-style="normal" font-weight="normal" font-size="240px" font-family="Helvetica" >
N</text>
<path stroke="none" fill="#0000ff" transform="matrix(0.05 0 0 0.05 -54 -223)" d="M 2839.62,5217.77 L 2839.62,5180.76 L 3243.25,5414.58 L 3227.25,5442.29 L 2839.62,5217.77 Z " />
<text x="0" y="0" stroke="none" fill="#0000ff" transform="matrix(0.05 0 0 0.05 83.313 11.3037)" font-style="normal" font-weight="normal" font-size="240px" font-family="Helvetica" >
O</text>
<path stroke="none" fill="#0000ff" transform="matrix(0.05 0 0 0.05 -54 -223)" d="M 2810.6,5225.98 L 2778.6,5225.98 L 2778.6,4733.58 L 2810.6,4733.58 L 2810.6,5225.98 Z " />
<path stroke="none" fill="#0000ff" transform="matrix(0.05 0 0 0.05 -54 -223)" d="M 2900.6,5225.98 L 2868.6,5225.98 L 2868.6,4733.58 L 2900.6,4733.58 L 2900.6,5225.98 Z " />
<text x="0" y="0" stroke="none" fill="#0000ff" transform="matrix(0.05 0 0 0.05 109.627 86.3037)" font-style="normal" font-weight="normal" font-size="240px" font-family="Helvetica" >
H</text>
<path stroke="none" fill="#0000ff" transform="matrix(0.05 0 0 0.05 -54 -223)" d="M 3343.2,5625.93 L 3375.2,5625.93 L 3375.2,5973.93 L 3343.2,5973.93 L 3343.2,5625.93 Z " />
<text x="0" y="0" stroke="none" fill="#0000ff" transform="matrix(0.05 0 0 0.05 136.603 41.3037)" font-style="normal" font-weight="normal" font-size="240px" font-family="Helvetica" >
LG</text>
<path stroke="none" fill="#0000ff" transform="matrix(0.05 0 0 0.05 -54 -223)" d="M 3490.58,5442.62 L 3474.58,5414.91 L 3761.14,5249.46 L 3777.14,5277.17 L 3490.58,5442.62 Z " />
<path stroke="none" fill="#0000ff" transform="matrix(0.05 0 0 0.05 -54 -223)" d="M 5941,5276 L 4820,5276 L 4820,5244 L 5941,5244 Z " />
<path stroke="none" fill="#0000ff" transform="matrix(0.05 0 0 0.05 -54 -223)" d="M 6220,5260 C 6220,5260 5900,5341 5900,5341 C 5900,5341 5940,5295.44 5940,5260 C 5940,5224.13 5900,5178 5900,5178 C 5900,5178 6220,5260 6220,5260 C 6220,5260 6220,5260 6220,5260 " />
<path stroke="#0000ff" stroke-width="1" fill="none" transform="matrix(0.05 0 0 0.05 -54 -223)" d="M 6220,5260 C 6220,5260 5900,5341 5900,5341 C 5900,5341 5940,5295.44 5940,5260 C 5940,5224.13 5900,5178 5900,5178 C 5900,5178 6220,5260 6220,5260 C 6220,5260 6220,5260 6220,5260 " />
<text x="0" y="0" stroke="none" fill="#0000ff" transform="matrix(0.05 0 0 0.05 197 33)" font-style="normal" font-weight="normal" font-size="320px" font-family="Helvetica" >
base</text>
<text x="0" y="0" stroke="none" fill="#0000ff" transform="matrix(0.05 0 0 0.05 279.667 60.3037)" font-style="normal" font-weight="normal" font-size="240px" font-family="Helvetica" >
R</text>
<path stroke="none" fill="#0000ff" transform="matrix(0.05 0 0 0.05 -54 -223)" d="M 6878.83,5529.87 L 6862.83,5502.16 L 7279.62,5260.76 L 7279.62,5297.77 L 6878.83,5529.87 Z " />
<text x="0" y="0" stroke="none" fill="#0000ff" transform="matrix(0.05 0 0 0.05 331.627 60.3037)" font-style="normal" font-weight="normal" font-size="240px" font-family="Helvetica" >
N</text>
<path stroke="none" fill="#0000ff" transform="matrix(0.05 0 0 0.05 -54 -223)" d="M 7279.62,5297.77 L 7279.62,5260.76 L 7683.25,5494.58 L 7667.25,5522.29 L 7279.62,5297.77 Z " />
<text x="0" y="0" stroke="none" fill="#0000ff" transform="matrix(0.05 0 0 0.05 305.313 15.3037)" font-style="normal" font-weight="normal" font-size="240px" font-family="Helvetica" >
O</text>
<path stroke="none" fill="#0000ff" transform="matrix(0.05 0 0 0.05 -54 -223)" d="M 7250.6,5305.98 L 7218.6,5305.98 L 7218.6,4813.58 L 7250.6,4813.58 L 7250.6,5305.98 Z " />
<path stroke="none" fill="#0000ff" transform="matrix(0.05 0 0 0.05 -54 -223)" d="M 7340.6,5305.98 L 7308.6,5305.98 L 7308.6,4813.58 L 7340.6,4813.58 L 7340.6,5305.98 Z " />
<text x="0" y="0" stroke="none" fill="#0000ff" transform="matrix(0.05 0 0 0.05 358.603 45.3037)" font-style="normal" font-weight="normal" font-size="240px" font-family="Helvetica" >
LG</text>
<path stroke="none" fill="#0000ff" transform="matrix(0.05 0 0 0.05 -54 -223)" d="M 7930.58,5522.62 L 7914.58,5494.91 L 8201.14,5329.46 L 8217.14,5357.17 L 7930.58,5522.62 Z " />
<path stroke="#0000ff" stroke-width="26" fill="none" transform="matrix(0.05 0 0 0.05 -54 -223)" d="M 7706.8,5815.6 A 92.7999,92.7999 0 1 0 7892.4,5815.6A 92.7999,92.7999 0 1 0 7706.8,5815.6Z " />
<path stroke="none" fill="#0000ff" transform="matrix(0.05 0 0 0.05 -54 -223)" d="M 7743.6,5802.6 L 7855.6,5802.6 L 7855.6,5828.6 L 7743.6,5828.6 Z " />
<path stroke="#0000ff" stroke-width="32" fill="none" transform="matrix(0.05 0 0 0.05 -54 -223)" d="M 8327.3,4958.87 C 8243.88,4816.85 8060.89,4769.28 7918.87,4852.7 C 7776.85,4936.12 7729.28,5119.11 7812.7,5261.13 C 7853.18,5330.04 7922.3,5381.32 7999.98,5400.07 " />
<path stroke="none" fill="#0000ff" transform="matrix(0.05 0 0 0.05 -54 -223)" d="M 8360.07,5180.02 C 8360.07,5180.02 8258.43,4937.64 8258.43,4937.64 C 8258.43,4937.64 8299.27,4963.39 8327.3,4958.87 C 8355.32,4954.34 8386.8,4916.91 8386.8,4916.91 C 8386.8,4916.91 8360.07,5180.02 8360.07,5180.02 C 8360.07,5180.02 8360.07,5180.02 8360.07,5180.02 " />
<path stroke="#0000ff" stroke-width="1" fill="none" transform="matrix(0.05 0 0 0.05 -54 -223)" d="M 8360.07,5180.02 C 8360.07,5180.02 8258.43,4937.64 8258.43,4937.64 C 8258.43,4937.64 8299.27,4963.39 8327.3,4958.87 C 8355.32,4954.34 8386.8,4916.91 8386.8,4916.91 C 8386.8,4916.91 8360.07,5180.02 8360.07,5180.02 C 8360.07,5180.02 8360.07,5180.02 8360.07,5180.02 " />
<path stroke="none" fill="#0000ff" transform="matrix(0.05 0 0 0.05 -54 -223)" d="M 10181,5296 L 9260,5296 L 9260,5264 L 10181,5264 Z " />
<path stroke="none" fill="#0000ff" transform="matrix(0.05 0 0 0.05 -54 -223)" d="M 10460,5280 C 10460,5280 10140,5361 10140,5361 C 10140,5361 10180,5315.44 10180,5280 C 10180,5244.13 10140,5198 10140,5198 C 10140,5198 10460,5280 10460,5280 C 10460,5280 10460,5280 10460,5280 " />
<path stroke="#0000ff" stroke-width="1" fill="none" transform="matrix(0.05 0 0 0.05 -54 -223)" d="M 10460,5280 C 10460,5280 10140,5361 10140,5361 C 10140,5361 10180,5315.44 10180,5280 C 10180,5244.13 10140,5198 10140,5198 C 10140,5198 10460,5280 10460,5280 C 10460,5280 10460,5280 10460,5280 " />
<text x="0" y="0" stroke="none" fill="#0000ff" transform="matrix(0.05 0 0 0.05 500.667 58.3037)" font-style="normal" font-weight="normal" font-size="240px" font-family="Helvetica" >
R</text>
<path stroke="none" fill="#0000ff" transform="matrix(0.05 0 0 0.05 -54 -223)" d="M 11298.8,5489.87 L 11282.8,5462.16 L 11699.6,5220.76 L 11699.6,5257.77 L 11298.8,5489.87 Z " />
<text x="0" y="0" stroke="none" fill="#0000ff" transform="matrix(0.05 0 0 0.05 552.627 58.3037)" font-style="normal" font-weight="normal" font-size="240px" font-family="Helvetica" >
N</text>
<path stroke="none" fill="#0000ff" transform="matrix(0.05 0 0 0.05 -54 -223)" d="M 11699.6,5257.77 L 11699.6,5220.76 L 12103.3,5454.58 L 12087.3,5482.29 L 11699.6,5257.77 Z " />
<text x="0" y="0" stroke="none" fill="#0000ff" transform="matrix(0.05 0 0 0.05 526.313 13.3037)" font-style="normal" font-weight="normal" font-size="240px" font-family="Helvetica" >
O</text>
<path stroke="none" fill="#0000ff" transform="matrix(0.05 0 0 0.05 -54 -223)" d="M 11670.6,5265.98 L 11638.6,5265.98 L 11638.6,4773.58 L 11670.6,4773.58 L 11670.6,5265.98 Z " />
<path stroke="none" fill="#0000ff" transform="matrix(0.05 0 0 0.05 -54 -223)" d="M 11760.6,5265.98 L 11728.6,5265.98 L 11728.6,4773.58 L 11760.6,4773.58 L 11760.6,5265.98 Z " />
<path stroke="none" fill="#0000ff" transform="matrix(0.05 0 0 0.05 -54 -223)" d="M 12244.8,5348.4 A 20,20 0 1 0 12284.8,5348.4A 20,20 0 1 0 12244.8,5348.4Z " />
<path stroke="none" fill="#0000ff" transform="matrix(0.05 0 0 0.05 -54 -223)" d="M 12154.8,5348.2 A 20,20 0 1 0 12194.8,5348.2A 20,20 0 1 0 12154.8,5348.2Z " />
<path stroke="none" fill="#0000ff" transform="matrix(0.05 0 0 0.05 -54 -223)" d="M 13921,5276 L 13000,5276 L 13000,5244 L 13921,5244 Z " />
<path stroke="none" fill="#0000ff" transform="matrix(0.05 0 0 0.05 -54 -223)" d="M 14200,5260 C 14200,5260 13880,5341 13880,5341 C 13880,5341 13920,5295.44 13920,5260 C 13920,5224.13 13880,5178 13880,5178 C 13880,5178 14200,5260 14200,5260 C 14200,5260 14200,5260 14200,5260 " />
<path stroke="#0000ff" stroke-width="1" fill="none" transform="matrix(0.05 0 0 0.05 -54 -223)" d="M 14200,5260 C 14200,5260 13880,5341 13880,5341 C 13880,5341 13920,5295.44 13920,5260 C 13920,5224.13 13880,5178 13880,5178 C 13880,5178 14200,5260 14200,5260 C 14200,5260 14200,5260 14200,5260 " />
<path stroke="#0000ff" stroke-width="32" fill="none" transform="matrix(0.05 0 0 0.05 -54 -223)" d="M 11440,5460.01 C 11390.4,5675.25 11524.8,5890.28 11740,5939.95 C 11870.7,5970.11 12014.9,5929.43 12110.5,5835.43 " />
<path stroke="none" fill="#0000ff" transform="matrix(0.05 0 0 0.05 -54 -223)" d="M 12220,5639.99 C 12220,5639.99 12151.7,5895.62 12151.7,5895.62 C 12151.7,5895.62 12135.4,5849.55 12110.5,5835.43 C 12085.6,5821.32 12038,5831.09 12038,5831.09 C 12038,5831.09 12220,5639.99 12220,5639.99 C 12220,5639.99 12220,5639.99 12220,5639.99 " />
<path stroke="#0000ff" stroke-width="1" fill="none" transform="matrix(0.05 0 0 0.05 -54 -223)" d="M 12220,5639.99 C 12220,5639.99 12151.7,5895.62 12151.7,5895.62 C 12151.7,5895.62 12135.4,5849.55 12110.5,5835.43 C 12085.6,5821.32 12038,5831.09 12038,5831.09 C 12038,5831.09 12220,5639.99 12220,5639.99 C 12220,5639.99 12220,5639.99 12220,5639.99 " />
<path stroke="#0000ff" stroke-width="32" fill="none" transform="matrix(0.05 0 0 0.05 -54 -223)" d="M 12260,5260.09 C 12301.1,5166.26 12258.3,5056.72 12164.5,5015.61 C 12102,4988.2 12024.9,4998.85 11972.2,5042.19 " />
<path stroke="none" fill="#0000ff" transform="matrix(0.05 0 0 0.05 -54 -223)" d="M 11920,5260.01 C 11920,5260.01 11916.4,4995.15 11916.4,4995.15 C 11916.4,4995.15 11944.5,5035.22 11972.2,5042.19 C 11999.9,5049.15 12042.9,5026.99 12042.9,5026.99 C 12042.9,5026.99 11920,5260.01 11920,5260.01 C 11920,5260.01 11920,5260.01 11920,5260.01 " />
<path stroke="#0000ff" stroke-width="1" fill="none" transform="matrix(0.05 0 0 0.05 -54 -223)" d="M 11920,5260.01 C 11920,5260.01 11916.4,4995.15 11916.4,4995.15 C 11916.4,4995.15 11944.5,5035.22 11972.2,5042.19 C 11999.9,5049.15 12042.9,5026.99 12042.9,5026.99 C 12042.9,5026.99 11920,5260.01 11920,5260.01 C 11920,5260.01 11920,5260.01 11920,5260.01 " />
<text x="0" y="0" stroke="none" fill="#0000ff" transform="matrix(0.05 0 0 0.05 701.647 33.3037)" font-style="normal" font-weight="normal" font-size="240px" font-family="Helvetica" >
C</text>
<text x="0" y="0" stroke="none" fill="#0000ff" transform="matrix(0.05 0 0 0.05 727.627 48.3037)" font-style="normal" font-weight="normal" font-size="240px" font-family="Helvetica" >
N</text>
<path stroke="none" fill="#0000ff" transform="matrix(0.05 0 0 0.05 -54 -223)" d="M 15323.1,5077.81 L 15339.1,5050.1 L 15625.8,5215.61 L 15609.8,5243.32 L 15323.1,5077.81 Z " />
<path stroke="none" fill="#0000ff" transform="matrix(0.05 0 0 0.05 -54 -223)" d="M 15278.1,5155.75 L 15294.1,5128.04 L 15580.8,5293.55 L 15564.8,5321.26 L 15278.1,5155.75 Z " />
<text x="0" y="0" stroke="none" fill="#0000ff" transform="matrix(0.05 0 0 0.05 753.547 63.4037)" font-style="normal" font-weight="normal" font-size="240px" font-family="Helvetica" >
R</text>
<path stroke="none" fill="#0000ff" transform="matrix(0.05 0 0 0.05 -54 -223)" d="M 15834.3,5425.58 L 15850.4,5397.93 L 16123.2,5556.84 L 16107.1,5584.49 L 15834.3,5425.58 Z " />
<text x="0" y="0" stroke="none" fill="#0000ff" transform="matrix(0.05 0 0 0.05 675.223 18.4937)" font-style="normal" font-weight="normal" font-size="240px" font-family="Helvetica" >
O</text>
<path stroke="none" fill="#0000ff" transform="matrix(0.05 0 0 0.05 -54 -223)" d="M 15078.7,5004.75 L 15063,5032.57 L 14759.4,4860.28 L 14775.2,4832.45 L 15078.7,5004.75 Z " />
<path stroke="none" fill="#0000ff" transform="matrix(0.05 0 0 0.05 -54 -223)" d="M 15123.2,4926.48 L 15107.4,4954.3 L 14803.9,4782.01 L 14819.7,4754.18 L 15123.2,4926.48 Z " />
<text x="0" y="0" stroke="none" fill="#0000ff" transform="matrix(0.05 0 0 0.05 58.667 164.304)" font-style="normal" font-weight="normal" font-size="240px" font-family="Helvetica" >
R</text>
<path stroke="none" fill="#0000ff" transform="matrix(0.05 0 0 0.05 -54 -223)" d="M 2458.83,7609.87 L 2442.83,7582.16 L 2859.62,7340.76 L 2859.62,7377.77 L 2458.83,7609.87 Z " />
<text x="0" y="0" stroke="none" fill="#0000ff" transform="matrix(0.05 0 0 0.05 110.627 164.304)" font-style="normal" font-weight="normal" font-size="240px" font-family="Helvetica" >
N</text>
<path stroke="none" fill="#0000ff" transform="matrix(0.05 0 0 0.05 -54 -223)" d="M 2859.62,7377.77 L 2859.62,7340.76 L 3263.25,7574.58 L 3247.25,7602.29 L 2859.62,7377.77 Z " />
<text x="0" y="0" stroke="none" fill="#0000ff" transform="matrix(0.05 0 0 0.05 84.313 119.304)" font-style="normal" font-weight="normal" font-size="240px" font-family="Helvetica" >
O</text>
<path stroke="none" fill="#0000ff" transform="matrix(0.05 0 0 0.05 -54 -223)" d="M 2830.6,7385.98 L 2798.6,7385.98 L 2798.6,6893.58 L 2830.6,6893.58 L 2830.6,7385.98 Z " />
<path stroke="none" fill="#0000ff" transform="matrix(0.05 0 0 0.05 -54 -223)" d="M 2920.6,7385.98 L 2888.6,7385.98 L 2888.6,6893.58 L 2920.6,6893.58 L 2920.6,7385.98 Z " />
<text x="0" y="0" stroke="none" fill="#0000ff" transform="matrix(0.05 0 0 0.05 110.627 194.304)" font-style="normal" font-weight="normal" font-size="240px" font-family="Helvetica" >
H</text>
<path stroke="none" fill="#0000ff" transform="matrix(0.05 0 0 0.05 -54 -223)" d="M 3363.2,7785.93 L 3395.2,7785.93 L 3395.2,8133.93 L 3363.2,8133.93 L 3363.2,7785.93 Z " />
<text x="0" y="0" stroke="none" fill="#0000ff" transform="matrix(0.05 0 0 0.05 137.603 149.304)" font-style="normal" font-weight="normal" font-size="240px" font-family="Helvetica" >
LG</text>
<path stroke="none" fill="#0000ff" transform="matrix(0.05 0 0 0.05 -54 -223)" d="M 3510.58,7602.62 L 3494.58,7574.91 L 3781.14,7409.46 L 3797.14,7437.17 L 3510.58,7602.62 Z " />
<path stroke="none" fill="#0000ff" transform="matrix(0.05 0 0 0.05 -54 -223)" d="M 5961,7436 L 4840,7436 L 4840,7404 L 5961,7404 Z " />
<path stroke="none" fill="#0000ff" transform="matrix(0.05 0 0 0.05 -54 -223)" d="M 6240,7420 C 6240,7420 5920,7501 5920,7501 C 5920,7501 5960,7455.44 5960,7420 C 5960,7384.13 5920,7338 5920,7338 C 5920,7338 6240,7420 6240,7420 C 6240,7420 6240,7420 6240,7420 " />
<path stroke="#0000ff" stroke-width="1" fill="none" transform="matrix(0.05 0 0 0.05 -54 -223)" d="M 6240,7420 C 6240,7420 5920,7501 5920,7501 C 5920,7501 5960,7455.44 5960,7420 C 5960,7384.13 5920,7338 5920,7338 C 5920,7338 6240,7420 6240,7420 C 6240,7420 6240,7420 6240,7420 " />
<text x="0" y="0" stroke="none" fill="#0000ff" transform="matrix(0.05 0 0 0.05 198 141)" font-style="normal" font-weight="normal" font-size="320px" font-family="Helvetica" >
base</text>
<text x="0" y="0" stroke="none" fill="#0000ff" transform="matrix(0.05 0 0 0.05 280.667 168.304)" font-style="normal" font-weight="normal" font-size="240px" font-family="Helvetica" >
R</text>
<path stroke="none" fill="#0000ff" transform="matrix(0.05 0 0 0.05 -54 -223)" d="M 6898.83,7689.87 L 6882.83,7662.16 L 7299.62,7420.76 L 7299.62,7457.77 L 6898.83,7689.87 Z " />
<text x="0" y="0" stroke="none" fill="#0000ff" transform="matrix(0.05 0 0 0.05 332.627 168.304)" font-style="normal" font-weight="normal" font-size="240px" font-family="Helvetica" >
N</text>
<path stroke="none" fill="#0000ff" transform="matrix(0.05 0 0 0.05 -54 -223)" d="M 7299.62,7457.77 L 7299.62,7420.76 L 7703.25,7654.58 L 7687.25,7682.29 L 7299.62,7457.77 Z " />
<text x="0" y="0" stroke="none" fill="#0000ff" transform="matrix(0.05 0 0 0.05 306.313 123.304)" font-style="normal" font-weight="normal" font-size="240px" font-family="Helvetica" >
O</text>
<path stroke="none" fill="#0000ff" transform="matrix(0.05 0 0 0.05 -54 -223)" d="M 7270.6,7465.98 L 7238.6,7465.98 L 7238.6,6973.58 L 7270.6,6973.58 L 7270.6,7465.98 Z " />
<path stroke="none" fill="#0000ff" transform="matrix(0.05 0 0 0.05 -54 -223)" d="M 7360.6,7465.98 L 7328.6,7465.98 L 7328.6,6973.58 L 7360.6,6973.58 L 7360.6,7465.98 Z " />
<text x="0" y="0" stroke="none" fill="#0000ff" transform="matrix(0.05 0 0 0.05 359.603 153.304)" font-style="normal" font-weight="normal" font-size="240px" font-family="Helvetica" >
LG</text>
<path stroke="none" fill="#0000ff" transform="matrix(0.05 0 0 0.05 -54 -223)" d="M 7950.58,7682.62 L 7934.58,7654.91 L 8221.14,7489.46 L 8237.14,7517.17 L 7950.58,7682.62 Z " />
<path stroke="#0000ff" stroke-width="26" fill="none" transform="matrix(0.05 0 0 0.05 -54 -223)" d="M 7726.8,7975.6 A 92.7999,92.7999 0 1 0 7912.4,7975.6A 92.7999,92.7999 0 1 0 7726.8,7975.6Z " />
<path stroke="none" fill="#0000ff" transform="matrix(0.05 0 0 0.05 -54 -223)" d="M 7763.6,7962.6 L 7875.6,7962.6 L 7875.6,7988.6 L 7763.6,7988.6 Z " />
<path stroke="#0000ff" stroke-width="32" fill="none" transform="matrix(0.05 0 0 0.05 -54 -223)" d="M 8235.57,7172.25 C 8118.9,7130.28 7990.17,7190.99 7948.24,7307.76 C 7916.55,7396 7946.73,7501.84 8020.18,7560.05 " />
<path stroke="none" fill="#0000ff" transform="matrix(0.05 0 0 0.05 -54 -223)" d="M 8379.9,7340.02 C 8379.9,7340.02 8166.02,7190.52 8166.02,7190.52 C 8166.02,7190.52 8214.42,7190.51 8235.57,7172.25 C 8256.72,7153.99 8263.89,7106.05 8263.89,7106.05 C 8263.89,7106.05 8379.9,7340.02 8379.9,7340.02 C 8379.9,7340.02 8379.9,7340.02 8379.9,7340.02 " />
<path stroke="#0000ff" stroke-width="1" fill="none" transform="matrix(0.05 0 0 0.05 -54 -223)" d="M 8379.9,7340.02 C 8379.9,7340.02 8166.02,7190.52 8166.02,7190.52 C 8166.02,7190.52 8214.42,7190.51 8235.57,7172.25 C 8256.72,7153.99 8263.89,7106.05 8263.89,7106.05 C 8263.89,7106.05 8379.9,7340.02 8379.9,7340.02 C 8379.9,7340.02 8379.9,7340.02 8379.9,7340.02 " />
<path stroke="none" fill="#0000ff" transform="matrix(0.05 0 0 0.05 -54 -223)" d="M 10201,7456 L 9280,7456 L 9280,7424 L 10201,7424 Z " />
<path stroke="none" fill="#0000ff" transform="matrix(0.05 0 0 0.05 -54 -223)" d="M 10480,7440 C 10480,7440 10160,7521 10160,7521 C 10160,7521 10200,7475.44 10200,7440 C 10200,7404.13 10160,7358 10160,7358 C 10160,7358 10480,7440 10480,7440 C 10480,7440 10480,7440 10480,7440 " />
<path stroke="#0000ff" stroke-width="1" fill="none" transform="matrix(0.05 0 0 0.05 -54 -223)" d="M 10480,7440 C 10480,7440 10160,7521 10160,7521 C 10160,7521 10200,7475.44 10200,7440 C 10200,7404.13 10160,7358 10160,7358 C 10160,7358 10480,7440 10480,7440 C 10480,7440 10480,7440 10480,7440 " />
<text x="0" y="0" stroke="none" fill="#0000ff" transform="matrix(0.05 0 0 0.05 518.647 141.304)" font-style="normal" font-weight="normal" font-size="240px" font-family="Helvetica" >
C</text>
<text x="0" y="0" stroke="none" fill="#0000ff" transform="matrix(0.05 0 0 0.05 544.627 156.304)" font-style="normal" font-weight="normal" font-size="240px" font-family="Helvetica" >
N</text>
<path stroke="none" fill="#0000ff" transform="matrix(0.05 0 0 0.05 -54 -223)" d="M 11663.1,7237.81 L 11679.1,7210.1 L 11965.8,7375.61 L 11949.8,7403.32 L 11663.1,7237.81 Z " />
<path stroke="none" fill="#0000ff" transform="matrix(0.05 0 0 0.05 -54 -223)" d="M 11618.1,7315.75 L 11634.1,7288.04 L 11920.8,7453.55 L 11904.8,7481.26 L 11618.1,7315.75 Z " />
<text x="0" y="0" stroke="none" fill="#0000ff" transform="matrix(0.05 0 0 0.05 570.547 171.404)" font-style="normal" font-weight="normal" font-size="240px" font-family="Helvetica" >
R</text>
<path stroke="none" fill="#0000ff" transform="matrix(0.05 0 0 0.05 -54 -223)" d="M 12174.3,7585.58 L 12190.4,7557.93 L 12463.2,7716.84 L 12447.1,7744.49 L 12174.3,7585.58 Z " />
<text x="0" y="0" stroke="none" fill="#0000ff" transform="matrix(0.05 0 0 0.05 492.223 126.494)" font-style="normal" font-weight="normal" font-size="240px" font-family="Helvetica" >
O</text>
<path stroke="none" fill="#0000ff" transform="matrix(0.05 0 0 0.05 -54 -223)" d="M 11418.7,7164.75 L 11403,7192.57 L 11099.4,7020.28 L 11115.2,6992.45 L 11418.7,7164.75 Z " />
<path stroke="none" fill="#0000ff" transform="matrix(0.05 0 0 0.05 -54 -223)" d="M 11463.2,7086.48 L 11447.4,7114.3 L 11143.9,6942.01 L 11159.7,6914.18 L 11463.2,7086.48 Z " />
<path stroke="#0000ff" stroke-width="32" fill="none" transform="matrix(0.05 0 0 0.05 -54 -223)" d="M 7015.18,7660 C 6967.76,7810.27 7096.12,7960.38 7301.69,7995.05 C 7406.87,8012.79 7521.73,7996.07 7609.6,7950.24 " />
<path stroke="none" fill="#0000ff" transform="matrix(0.05 0 0 0.05 -54 -223)" d="M 7760.02,7785.6 C 7760.02,7785.6 7636.14,8017.73 7636.14,8017.73 C 7636.14,8017.73 7630.52,7969.39 7609.6,7950.24 C 7588.67,7931.08 7540.07,7929.78 7540.07,7929.78 C 7540.07,7929.78 7760.02,7785.6 7760.02,7785.6 C 7760.02,7785.6 7760.02,7785.6 7760.02,7785.6 " />
<path stroke="#0000ff" stroke-width="1" fill="none" transform="matrix(0.05 0 0 0.05 -54 -223)" d="M 7760.02,7785.6 C 7760.02,7785.6 7636.14,8017.73 7636.14,8017.73 C 7636.14,8017.73 7630.52,7969.39 7609.6,7950.24 C 7588.67,7931.08 7540.07,7929.78 7540.07,7929.78 C 7540.07,7929.78 7760.02,7785.6 7760.02,7785.6 C 7760.02,7785.6 7760.02,7785.6 7760.02,7785.6 " />
<path stroke="none" fill="#0000ff" transform="matrix(0.05 0 0 0.05 -54 -223)" d="M 7844.8,7548.4 A 20,20 0 1 0 7884.8,7548.4A 20,20 0 1 0 7844.8,7548.4Z " />
<path stroke="none" fill="#0000ff" transform="matrix(0.05 0 0 0.05 -54 -223)" d="M 7754.8,7548.2 A 20,20 0 1 0 7794.8,7548.2A 20,20 0 1 0 7754.8,7548.2Z " />
<path stroke="#0000ff" stroke-width="32" fill="none" transform="matrix(0.05 0 0 0.05 -54 -223)" d="M 7799.99,7460.09 C 7841.11,7366.26 7798.33,7256.72 7704.49,7215.61 C 7641.96,7188.2 7564.94,7198.85 7512.19,7242.19 " />
<path stroke="none" fill="#0000ff" transform="matrix(0.05 0 0 0.05 -54 -223)" d="M 7459.97,7460.01 C 7459.97,7460.01 7456.41,7195.15 7456.41,7195.15 C 7456.41,7195.15 7484.52,7235.22 7512.19,7242.19 C 7539.85,7249.15 7582.88,7226.99 7582.88,7226.99 C 7582.88,7226.99 7459.97,7460.01 7459.97,7460.01 C 7459.97,7460.01 7459.97,7460.01 7459.97,7460.01 " />
<path stroke="#0000ff" stroke-width="1" fill="none" transform="matrix(0.05 0 0 0.05 -54 -223)" d="M 7459.97,7460.01 C 7459.97,7460.01 7456.41,7195.15 7456.41,7195.15 C 7456.41,7195.15 7484.52,7235.22 7512.19,7242.19 C 7539.85,7249.15 7582.88,7226.99 7582.88,7226.99 C 7582.88,7226.99 7459.97,7460.01 7459.97,7460.01 C 7459.97,7460.01 7459.97,7460.01 7459.97,7460.01 " />
<text x="0" y="0" stroke="none" fill="#0000ff" transform="matrix(0.05 0 0 0.05 1 102)" font-style="normal" font-weight="normal" font-size="320px" font-family="Helvetica" >
Instead,</text>
<text x="0" y="0" stroke="none" fill="#0000ff" transform="matrix(0.05 0 0 0.05 483 184)" font-style="normal" font-weight="normal" font-size="320px" font-family="Helvetica" >
(Isocyanate)</text>
<text x="0" y="0" stroke="none" fill="#0000ff" transform="matrix(0.05 0 0 0.05 667 76)" font-style="normal" font-weight="normal" font-size="320px" font-family="Helvetica" >
(Isocyanate)</text>
</svg>
