<?xml version="1.0" standalone="no" ?>
<!DOCTYPE svg PUBLIC "-//W3C//DTD SVG 1.1//EN" "http://www.w3.org/Graphics/SVG/1.1/DTD/svg11.dtd">
<svg width="455px" height="81px" viewBox="0 0 455 81" style="background-color: #ffffff00" xmlns="http://www.w3.org/2000/svg" xmlns:xlink="http://www.w3.org/1999/xlink" version="1.1" >
<text x="0" y="0" stroke="none" fill="#0000ff" transform="matrix(0.05 0 0 0.05 1.66699 66.0737)" font-style="normal" font-weight="normal" font-size="240px" font-family="Helvetica" >
R</text>
<path stroke="none" fill="#0000ff" transform="matrix(0.05 0 0 0.05 -134 -300)" d="M 2919.42,7182.01 L 2902.88,7154.61 L 3313.24,6906.16 L 3313.96,6943.16 L 2919.42,7182.01 Z " />
<text x="0" y="0" stroke="none" fill="#0000ff" transform="matrix(0.05 0 0 0.05 53.617 65.0637)" font-style="normal" font-weight="normal" font-size="240px" font-family="Helvetica" >
H/R</text>
<path stroke="none" fill="#0000ff" transform="matrix(0.05 0 0 0.05 -134 -300)" d="M 3313.96,6943.16 L 3313.24,6906.16 L 3722.13,7132.47 L 3706.68,7160.49 L 3313.96,6943.16 Z " />
<text x="0" y="0" stroke="none" fill="#0000ff" transform="matrix(0.05 0 0 0.05 27.273 20.5737)" font-style="normal" font-weight="normal" font-size="240px" font-family="Helvetica" >
O</text>
<path stroke="none" fill="#0000ff" transform="matrix(0.05 0 0 0.05 -134 -300)" d="M 3284.36,6952.84 L 3252.36,6952.57 L 3256.64,6458.44 L 3288.64,6458.72 L 3284.36,6952.84 Z " />
<path stroke="none" fill="#0000ff" transform="matrix(0.05 0 0 0.05 -134 -300)" d="M 3374.39,6950.24 L 3342.39,6949.97 L 3346.64,6459.22 L 3378.64,6459.5 L 3374.39,6950.24 Z " />
<path stroke="none" fill="#0000ff" transform="matrix(0.05 0 0 0.05 -134 -300)" d="M 6041,6816 L 4680,6816 L 4680,6784 L 6041,6784 Z " />
<path stroke="none" fill="#0000ff" transform="matrix(0.05 0 0 0.05 -134 -300)" d="M 6320,6800 C 6320,6800 6000,6881 6000,6881 C 6000,6881 6040,6835.44 6040,6800 C 6040,6764.13 6000,6718 6000,6718 C 6000,6718 6320,6800 6320,6800 C 6320,6800 6320,6800 6320,6800 " />
<path stroke="#0000ff" stroke-width="1" fill="none" transform="matrix(0.05 0 0 0.05 -134 -300)" d="M 6320,6800 C 6320,6800 6000,6881 6000,6881 C 6000,6881 6040,6835.44 6040,6800 C 6040,6764.13 6000,6718 6000,6718 C 6000,6718 6320,6800 6320,6800 C 6320,6800 6320,6800 6320,6800 " />
<text x="0" y="0" stroke="none" fill="#0000ff" transform="matrix(0.05 0 0 0.05 190.667 66.0737)" font-style="normal" font-weight="normal" font-size="240px" font-family="Helvetica" >
R</text>
<path stroke="none" fill="#0000ff" transform="matrix(0.05 0 0 0.05 -134 -300)" d="M 6699.42,7182.01 L 6682.88,7154.61 L 7078.53,6916.46 L 7093.6,6925.4 L 7063.19,6959 L 6699.42,7182.01 Z " />
<text x="0" y="0" stroke="none" fill="#0000ff" transform="matrix(0.05 0 0 0.05 242.617 65.0637)" font-style="normal" font-weight="normal" font-size="240px" font-family="Helvetica" >
H/R</text>
<path stroke="none" fill="#0000ff" transform="matrix(0.05 0 0 0.05 -134 -300)" d="M 7100.41,6946.15 L 7093.6,6925.4 L 7109.34,6916.57 L 7502.13,7132.47 L 7486.68,7160.49 L 7100.41,6946.15 Z " />
<text x="0" y="0" stroke="none" fill="#0000ff" transform="matrix(0.05 0 0 0.05 217.283 20.5937)" font-style="normal" font-weight="normal" font-size="240px" font-family="Helvetica" >
O</text>
<path stroke="none" fill="#0000ff" transform="matrix(0.05 0 0 0.05 -134 -300)" d="M 7109.34,6916.57 L 7093.6,6925.4 L 7078.53,6916.46 L 7097.36,6458.5 L 7129.34,6459.86 L 7109.34,6916.57 Z " />
<text x="0" y="0" stroke="none" fill="#0000ff" transform="matrix(0.05 0 0 0.05 195.917 77.7237)" font-style="normal" font-weight="normal" font-size="240px" font-family="Helvetica" >
Nu</text>
<path stroke="none" fill="#0000ff" transform="matrix(0.05 0 0 0.05 -134 -300)" d="M 7063.19,6959 L 7093.6,6925.4 L 7100.41,6946.15 L 6894.61,7386.41 L 6865.65,7372.8 L 7063.19,6959 Z " />
<text x="0" y="0" stroke="none" fill="#0000ff" transform="matrix(0.05 0 0 0.05 108.997 27.3037)" font-style="normal" font-weight="normal" font-size="240px" font-family="Helvetica" >
Nu</text>
<text x="0" y="0" stroke="none" fill="#0000ff" transform="matrix(0.05 0 0 0.05 146.002 27.3037)" font-style="normal" font-weight="normal" font-size="240px" font-family="Helvetica" >
M</text>
<path stroke="none" fill="#0000ff" transform="matrix(0.05 0 0 0.05 -134 -300)" d="M 5189.22,6476 L 5189.22,6444 L 5577.73,6444 L 5577.73,6476 L 5189.22,6476 Z " />
<path stroke="none" fill="#0000ff" transform="matrix(0.05 0 0 0.05 -134 -300)" d="M 4801.83,6399.8 A 19.9718,19.9718 0 1 0 4841.77,6399.8A 19.9718,19.9718 0 1 0 4801.83,6399.8Z " />
<path stroke="none" fill="#0000ff" transform="matrix(0.05 0 0 0.05 -134 -300)" d="M 4794.83,6489.4 A 19.9718,19.9718 0 1 0 4834.77,6489.4A 19.9718,19.9718 0 1 0 4794.83,6489.4Z " />
<path stroke="#0000ff" stroke-width="32" fill="none" transform="matrix(0.05 0 0 0.05 -134 -300)" d="M 4719.52,6439.76 C 4301.67,6336.86 3835.88,6472.82 3539,6784.36 " />
<path stroke="none" fill="#0000ff" transform="matrix(0.05 0 0 0.05 -134 -300)" d="M 3399.94,6959.96 C 3399.94,6959.96 3507.7,6718.54 3507.7,6718.54 C 3507.7,6718.54 3516.62,6766.54 3539,6784.36 C 3561.39,6802.18 3610.04,6800 3610.04,6800 C 3610.04,6800 3399.94,6959.96 3399.94,6959.96 C 3399.94,6959.96 3399.94,6959.96 3399.94,6959.96 " />
<path stroke="#0000ff" stroke-width="1" fill="none" transform="matrix(0.05 0 0 0.05 -134 -300)" d="M 3399.94,6959.96 C 3399.94,6959.96 3507.7,6718.54 3507.7,6718.54 C 3507.7,6718.54 3516.62,6766.54 3539,6784.36 C 3561.39,6802.18 3610.04,6800 3610.04,6800 C 3610.04,6800 3399.94,6959.96 3399.94,6959.96 C 3399.94,6959.96 3399.94,6959.96 3399.94,6959.96 " />
<path stroke="#0000ff" stroke-width="32" fill="none" transform="matrix(0.05 0 0 0.05 -134 -300)" d="M 3047.11,6404.73 C 2977.96,6511.2 3008.26,6653.75 3114.73,6722.89 C 3151.77,6746.95 3195.83,6760 3240,6760 " />
<path stroke="none" fill="#0000ff" transform="matrix(0.05 0 0 0.05 -134 -300)" d="M 3240,6300 C 3240,6300 3050.47,6475.81 3050.47,6475.81 C 3050.47,6475.81 3060.36,6428.79 3047.11,6404.73 C 3033.85,6380.68 2988.63,6363.58 2988.63,6363.58 C 2988.63,6363.58 3240,6300 3240,6300 C 3240,6300 3240,6300 3240,6300 " />
<path stroke="#0000ff" stroke-width="1" fill="none" transform="matrix(0.05 0 0 0.05 -134 -300)" d="M 3240,6300 C 3240,6300 3050.47,6475.81 3050.47,6475.81 C 3050.47,6475.81 3060.36,6428.79 3047.11,6404.73 C 3033.85,6380.68 2988.63,6363.58 2988.63,6363.58 C 2988.63,6363.58 3240,6300 3240,6300 C 3240,6300 3240,6300 3240,6300 " />
<path stroke="none" fill="#0000ff" transform="matrix(0.05 0 0 0.05 -134 -300)" d="M 9821,6876 L 8400,6876 L 8400,6844 L 9821,6844 Z " />
<path stroke="none" fill="#0000ff" transform="matrix(0.05 0 0 0.05 -134 -300)" d="M 10100,6860 C 10100,6860 9780,6941 9780,6941 C 9780,6941 9820,6895.44 9820,6860 C 9820,6824.13 9780,6778 9780,6778 C 9780,6778 10100,6860 10100,6860 C 10100,6860 10100,6860 10100,6860 " />
<path stroke="#0000ff" stroke-width="1" fill="none" transform="matrix(0.05 0 0 0.05 -134 -300)" d="M 10100,6860 C 10100,6860 9780,6941 9780,6941 C 9780,6941 9820,6895.44 9820,6860 C 9820,6824.13 9780,6778 9780,6778 C 9780,6778 10100,6860 10100,6860 C 10100,6860 10100,6860 10100,6860 " />
<text x="0" y="0" stroke="none" fill="#0000ff" transform="matrix(0.05 0 0 0.05 245.592 11.6737)" font-style="normal" font-weight="normal" font-size="240px" font-family="Helvetica" >
M</text>
<path stroke="none" fill="#0000ff" transform="matrix(0.05 0 0 0.05 -134 -300)" d="M 7243.77,6303.7 L 7234.25,6273.15 L 7550.03,6174.8 L 7559.55,6205.35 L 7243.77,6303.7 Z " />
<text x="0" y="0" stroke="none" fill="#0000ff" transform="matrix(0.05 0 0 0.05 285 32)" font-style="normal" font-weight="normal" font-size="320px" font-family="Helvetica" >
ii) </text>
<text x="0" y="0" stroke="none" fill="#0000ff" transform="matrix(0.05 0 0 0.05 301.883 32)" font-style="normal" font-weight="normal" font-size="320px" font-family="Helvetica" >
H</text>
<text x="0" y="0" stroke="none" fill="#0000ff" transform="matrix(0.05 0 0 0.05 313.438 26.2617)" font-style="normal" font-weight="normal" font-size="240px" font-family="Helvetica" >
+</text>
<text x="0" y="0" stroke="none" fill="#0000ff" transform="matrix(0.05 0 0 0.05 320.445 32)" font-style="normal" font-weight="normal" font-size="320px" font-family="Helvetica" >
/H</text>
<text x="0" y="0" stroke="none" fill="#0000ff" transform="matrix(0.05 0 0 0.05 336.445 35.6797)" font-style="normal" font-weight="normal" font-size="240px" font-family="Helvetica" >
2</text>
<text x="0" y="0" stroke="none" fill="#0000ff" transform="matrix(0.05 0 0 0.05 343.119 32)" font-style="normal" font-weight="normal" font-size="320px" font-family="Helvetica" >
O</text>
<text x="0" y="0" stroke="none" fill="#0000ff" transform="matrix(0.05 0 0 0.05 380.667 67.0737)" font-style="normal" font-weight="normal" font-size="240px" font-family="Helvetica" >
R</text>
<path stroke="none" fill="#0000ff" transform="matrix(0.05 0 0 0.05 -134 -300)" d="M 10499.4,7202.01 L 10482.9,7174.61 L 10878.5,6936.46 L 10893.6,6945.4 L 10863.2,6979 L 10499.4,7202.01 Z " />
<text x="0" y="0" stroke="none" fill="#0000ff" transform="matrix(0.05 0 0 0.05 432.617 66.0637)" font-style="normal" font-weight="normal" font-size="240px" font-family="Helvetica" >
H/R</text>
<path stroke="none" fill="#0000ff" transform="matrix(0.05 0 0 0.05 -134 -300)" d="M 10900.4,6966.15 L 10893.6,6945.4 L 10909.3,6936.57 L 11302.1,7152.47 L 11286.7,7180.49 L 10900.4,6966.15 Z " />
<text x="0" y="0" stroke="none" fill="#0000ff" transform="matrix(0.05 0 0 0.05 407.283 21.5937)" font-style="normal" font-weight="normal" font-size="240px" font-family="Helvetica" >
OH</text>
<path stroke="none" fill="#0000ff" transform="matrix(0.05 0 0 0.05 -134 -300)" d="M 10909.3,6936.57 L 10893.6,6945.4 L 10878.5,6936.46 L 10897.4,6478.5 L 10929.3,6479.86 L 10909.3,6936.57 Z " />
<text x="0" y="0" stroke="none" fill="#0000ff" transform="matrix(0.05 0 0 0.05 385.917 78.7237)" font-style="normal" font-weight="normal" font-size="240px" font-family="Helvetica" >
Nu</text>
<path stroke="none" fill="#0000ff" transform="matrix(0.05 0 0 0.05 -134 -300)" d="M 10863.2,6979 L 10893.6,6945.4 L 10900.4,6966.15 L 10694.6,7406.41 L 10665.7,7392.8 L 10863.2,6979 Z " />
<text x="0" y="0" stroke="none" fill="#0000ff" transform="matrix(0.05 0 0 0.05 15 46)" font-style="normal" font-weight="normal" font-size="240px" font-family="Symbol" >
d+</text>
<text x="0" y="0" stroke="none" fill="#0000ff" transform="matrix(0.05 0 0 0.05 112 11)" font-style="normal" font-weight="normal" font-size="240px" font-family="Symbol" >
d</text>
<text x="0" y="0" stroke="none" fill="#0000ff" transform="matrix(0.05 0 0 0.05 118.674 11)" font-style="normal" font-weight="normal" font-size="240px" font-family="Helvetica" >
-</text>
<text x="0" y="0" stroke="none" fill="#0000ff" transform="matrix(0.05 0 0 0.05 147 11)" font-style="normal" font-weight="normal" font-size="240px" font-family="Symbol" >
d+</text>
<text x="0" y="0" stroke="none" fill="#0000ff" transform="matrix(0.05 0 0 0.05 37 18)" font-style="normal" font-weight="normal" font-size="240px" font-family="Symbol" >
d</text>
<text x="0" y="0" stroke="none" fill="#0000ff" transform="matrix(0.05 0 0 0.05 43.6738 18)" font-style="normal" font-weight="normal" font-size="240px" font-family="Helvetica" >
-</text>
<text x="0" y="0" stroke="none" fill="#0000ff" transform="matrix(0.05 0 0 0.05 123 58)" font-style="normal" font-weight="normal" font-size="320px" font-family="Helvetica" >
rds</text>
</svg>
