<?xml version="1.0" standalone="no" ?>
<!DOCTYPE svg PUBLIC "-//W3C//DTD SVG 1.1//EN" "http://www.w3.org/Graphics/SVG/1.1/DTD/svg11.dtd">
<svg width="415px" height="358px" viewBox="0 0 415 358" style="background-color: #ffffff00" xmlns="http://www.w3.org/2000/svg" xmlns:xlink="http://www.w3.org/1999/xlink" version="1.1" >
<path stroke="none" fill="#000000" transform="matrix(0.05 0 0 0.05 -203 -223)" d="M 8770,8198.66 L 8780,8181.34 L 9294.62,8478.67 L 9294.62,8501.77 L 8770,8198.66 Z " />
<path stroke="none" fill="#000000" transform="matrix(0.05 0 0 0.05 -203 -223)" d="M 9294.62,8501.77 L 9294.62,8478.67 L 9814.23,8178.23 L 9814.23,8201.33 L 9294.62,8501.77 Z " />
<path stroke="none" fill="#000000" transform="matrix(0.05 0 0 0.05 -203 -223)" d="M 9299.62,8415.52 L 9289.62,8398.2 L 9773.23,8118.99 L 9783.23,8136.31 L 9299.62,8415.52 Z " />
<path stroke="none" fill="#000000" transform="matrix(0.05 0 0 0.05 -203 -223)" d="M 9814.23,8201.33 L 9814.23,8178.23 L 10338.8,8481.34 L 10328.8,8498.66 L 9814.23,8201.33 Z " />
<path stroke="none" fill="#000000" transform="matrix(0.05 0 0 0.05 -203 -223)" d="M 7330,11258.7 L 7340,11241.3 L 7854.62,11538.7 L 7854.62,11561.8 L 7330,11258.7 Z " />
<path stroke="none" fill="#000000" transform="matrix(0.05 0 0 0.05 -203 -223)" d="M 7854.62,11561.8 L 7854.62,11538.7 L 8364.47,11244.3 L 8374.23,11250 L 8374.23,11261.3 L 7854.62,11561.8 Z " />
<path stroke="none" fill="#000000" transform="matrix(0.05 0 0 0.05 -203 -223)" d="M 8374.23,11261.3 L 8374.23,11250 L 8384,11244.3 L 8898.85,11541.3 L 8888.85,11558.7 L 8374.23,11261.3 Z " />
<path stroke="none" fill="#000000" transform="matrix(0.05 0 0 0.05 -203 -223)" d="M 7750.33,8350.68 L 6235.68,8350.68 L 6235.68,8330.68 L 7750.33,8330.68 Z " />
<path stroke="none" fill="#000000" transform="matrix(0.05 0 0 0.05 -203 -223)" d="M 7924.33,8340.68 C 7924.33,8340.68 7724.33,8391.68 7724.33,8391.68 C 7724.33,8391.68 7749.33,8363 7749.33,8340.68 C 7749.33,8317.93 7724.33,8288.68 7724.33,8288.68 C 7724.33,8288.68 7924.33,8340.68 7924.33,8340.68 C 7924.33,8340.68 7924.33,8340.68 7924.33,8340.68 " />
<path stroke="#000000" stroke-width="1" fill="none" transform="matrix(0.05 0 0 0.05 -203 -223)" d="M 7924.33,8340.68 C 7924.33,8340.68 7724.33,8391.68 7724.33,8391.68 C 7724.33,8391.68 7749.33,8363 7749.33,8340.68 C 7749.33,8317.93 7724.33,8288.68 7724.33,8288.68 C 7724.33,8288.68 7924.33,8340.68 7924.33,8340.68 C 7924.33,8340.68 7924.33,8340.68 7924.33,8340.68 " />
<text x="0" y="0" stroke="none" fill="#000000" transform="matrix(0.0242405 -0.043731 0.043731 0.0242405 218.336 277.254)" font-style="normal" font-weight="normal" font-size="240px" font-family="Times New Roman" >
alc. </text>
<text x="0" y="0" stroke="none" fill="#000000" transform="matrix(0.0242405 -0.043731 0.043731 0.0242405 228.026 259.774)" font-style="normal" font-weight="normal" font-size="240px" font-family="Times New Roman" >
KOH</text>
<text x="0" y="0" stroke="none" fill="#000000" transform="matrix(0.0242405 -0.043731 0.043731 0.0242405 246.438 292.836)" font-style="normal" font-weight="normal" font-size="240px" font-family="Times New Roman" >
RO</text>
<text x="0" y="0" stroke="none" fill="#000000" transform="matrix(0.0242405 -0.043731 0.043731 0.0242405 251.045 276.33)" font-style="normal" font-weight="normal" font-size="180px" font-family="Times New Roman" >
-</text>
<text x="0" y="0" stroke="none" fill="#000000" transform="matrix(0.0242405 -0.043731 0.043731 0.0242405 255.973 275.635)" font-style="normal" font-weight="normal" font-size="240px" font-family="Times New Roman" >
 </text>
<text x="0" y="0" stroke="none" fill="#000000" transform="matrix(0.0242405 -0.043731 0.043731 0.0242405 257.427 273.011)" font-style="normal" font-weight="normal" font-size="240px" font-family="Times New Roman" >
Base</text>
<path stroke="none" fill="#000000" transform="matrix(0.05 0 0 0.05 -203 -223)" d="M 7345,4658.66 L 7355,4641.34 L 7869.62,4938.67 L 7869.62,4961.77 L 7345,4658.66 Z " />
<path stroke="none" fill="#000000" transform="matrix(0.05 0 0 0.05 -203 -223)" d="M 7838.62,4896.31 L 7828.62,4878.99 L 8348.23,4578.99 L 8358.23,4596.31 L 7838.62,4896.31 Z " />
<path stroke="none" fill="#000000" transform="matrix(0.05 0 0 0.05 -203 -223)" d="M 7869.62,4961.77 L 7869.62,4938.67 L 8389.23,4638.23 L 8389.23,4661.33 L 7869.62,4961.77 Z " />
<path stroke="none" fill="#000000" transform="matrix(0.05 0 0 0.05 -203 -223)" d="M 7910.62,5021.01 L 7900.62,5003.69 L 8420.23,4703.69 L 8430.23,4721.01 L 7910.62,5021.01 Z " />
<path stroke="none" fill="#000000" transform="matrix(0.05 0 0 0.05 -203 -223)" d="M 8389.23,4661.33 L 8389.23,4638.23 L 8913.85,4941.34 L 8903.85,4958.66 L 8389.23,4661.33 Z " />
<path stroke="none" fill="#000000" transform="matrix(0.05 0 0 0.05 -203 -223)" d="M 8654.12,6841.14 L 8240.5,5297.5 L 8259.5,5292.5 L 8673.12,6836.14 Z " />
<path stroke="none" fill="#000000" transform="matrix(0.05 0 0 0.05 -203 -223)" d="M 8708.65,7006.71 C 8708.65,7006.71 8607.59,6827.47 8607.59,6827.47 C 8607.59,6827.47 8641.79,6843.78 8663.36,6837.68 C 8684.93,6831.58 8706.18,6799.59 8706.18,6799.59 C 8706.18,6799.59 8708.65,7006.71 8708.65,7006.71 C 8708.65,7006.71 8708.65,7006.71 8708.65,7006.71 " />
<path stroke="#000000" stroke-width="1" fill="none" transform="matrix(0.05 0 0 0.05 -203 -223)" d="M 8708.65,7006.71 C 8708.65,7006.71 8607.59,6827.47 8607.59,6827.47 C 8607.59,6827.47 8641.79,6843.78 8663.36,6837.68 C 8684.93,6831.58 8706.18,6799.59 8706.18,6799.59 C 8706.18,6799.59 8708.65,7006.71 8708.65,7006.71 C 8708.65,7006.71 8708.65,7006.71 8708.65,7006.71 " />
<path stroke="none" fill="#000000" transform="matrix(0.05 0 0 0.05 -203 -223)" d="M 10947.5,6713.84 L 11360.5,5172.5 L 11379.5,5177.5 L 10966.5,6718.84 Z " />
<path stroke="none" fill="#000000" transform="matrix(0.05 0 0 0.05 -203 -223)" d="M 10916.1,6868.96 C 10916.1,6868.96 10923.5,6682 10923.5,6682 C 10923.5,6682 10939.9,6710.41 10957.3,6715.38 C 10974.6,6720.34 11002.8,6704.71 11002.8,6704.71 C 11002.8,6704.71 10916.1,6868.96 10916.1,6868.96 C 10916.1,6868.96 10916.1,6868.96 10916.1,6868.96 " />
<path stroke="#000000" stroke-width="1" fill="none" transform="matrix(0.05 0 0 0.05 -203 -223)" d="M 10916.1,6868.96 C 10916.1,6868.96 10923.5,6682 10923.5,6682 C 10923.5,6682 10939.9,6710.41 10957.3,6715.38 C 10974.6,6720.34 11002.8,6704.71 11002.8,6704.71 C 11002.8,6704.71 10916.1,6868.96 10916.1,6868.96 C 10916.1,6868.96 10916.1,6868.96 10916.1,6868.96 " />
<text x="0" y="0" stroke="none" fill="#000000" transform="matrix(-0.012941 -0.0482963 0.0482963 -0.012941 223.451 110.691)" font-style="normal" font-weight="normal" font-size="240px" font-family="Times New Roman" >
H</text>
<text x="0" y="0" stroke="none" fill="#000000" transform="matrix(-0.012941 -0.0482963 0.0482963 -0.012941 223.716 101.648)" font-style="normal" font-weight="normal" font-size="180px" font-family="Times New Roman" >
2</text>
<text x="0" y="0" stroke="none" fill="#000000" transform="matrix(-0.012941 -0.0482963 0.0482963 -0.012941 220.044 97.9734)" font-style="normal" font-weight="normal" font-size="240px" font-family="Times New Roman" >
 </text>
<text x="0" y="0" stroke="none" fill="#000000" transform="matrix(-0.012941 -0.0482963 0.0482963 -0.012941 219.267 95.0756)" font-style="normal" font-weight="normal" font-size="240px" font-family="Times New Roman" >
+ </text>
<text x="0" y="0" stroke="none" fill="#000000" transform="matrix(-0.012941 -0.0482963 0.0482963 -0.012941 216.739 85.6409)" font-style="normal" font-weight="normal" font-size="240px" font-family="Times New Roman" >
Pd-C</text>
<text x="0" y="0" stroke="none" fill="#000000" transform="matrix(-0.012941 -0.0482963 0.0482963 -0.012941 242.52 121.02)" font-style="normal" font-weight="normal" font-size="240px" font-family="Times New Roman" >
+ </text>
<text x="0" y="0" stroke="none" fill="#000000" transform="matrix(-0.012941 -0.0482963 0.0482963 -0.012941 239.992 111.585)" font-style="normal" font-weight="normal" font-size="240px" font-family="Times New Roman" >
Quinoline </text>
<text x="0" y="0" stroke="none" fill="#000000" transform="matrix(-0.012941 -0.0482963 0.0482963 -0.012941 226.794 62.3282)" font-style="normal" font-weight="normal" font-size="240px" font-family="Times New Roman" >
or </text>
<text x="0" y="0" stroke="none" fill="#000000" transform="matrix(-0.012941 -0.0482963 0.0482963 -0.012941 223.43 49.7749)" font-style="normal" font-weight="normal" font-size="240px" font-family="Times New Roman" >
S</text>
<text x="0" y="0" stroke="none" fill="#000000" transform="matrix(0.0120961 -0.0485148 0.0485148 0.0120961 342.728 105.169)" font-style="normal" font-weight="normal" font-size="240px" font-family="Times New Roman" >
Na </text>
<text x="0" y="0" stroke="none" fill="#000000" transform="matrix(0.0120961 -0.0485148 0.0485148 0.0120961 346.839 88.6811)" font-style="normal" font-weight="normal" font-size="240px" font-family="Times New Roman" >
+ </text>
<text x="0" y="0" stroke="none" fill="#000000" transform="matrix(0.0120961 -0.0485148 0.0485148 0.0120961 349.202 79.2037)" font-style="normal" font-weight="normal" font-size="240px" font-family="Times New Roman" >
Liq </text>
<text x="0" y="0" stroke="none" fill="#000000" transform="matrix(0.0120961 -0.0485148 0.0485148 0.0120961 353.959 60.1237)" font-style="normal" font-weight="normal" font-size="240px" font-family="Times New Roman" >
NH</text>
<text x="0" y="0" stroke="none" fill="#000000" transform="matrix(0.0120961 -0.0485148 0.0485148 0.0120961 360.67 43.9345)" font-style="normal" font-weight="normal" font-size="180px" font-family="Times New Roman" >
3</text>
<text x="0" y="0" stroke="none" fill="#000000" transform="matrix(0.0120961 -0.0485148 0.0485148 0.0120961 358.317 109.055)" font-style="normal" font-weight="normal" font-size="240px" font-family="Times New Roman" >
(Birch </text>
<text x="0" y="0" stroke="none" fill="#000000" transform="matrix(0.0120961 -0.0485148 0.0485148 0.0120961 366.459 76.3989)" font-style="normal" font-weight="normal" font-size="240px" font-family="Times New Roman" >
red</text>
<text x="0" y="0" stroke="none" fill="#000000" transform="matrix(0.0120961 -0.0485148 0.0485148 0.0120961 366.311 60.5707)" font-style="normal" font-weight="normal" font-size="180px" font-family="Times New Roman" >
n</text>
<text x="0" y="0" stroke="none" fill="#000000" transform="matrix(0.0120961 -0.0485148 0.0485148 0.0120961 371.254 57.1654)" font-style="normal" font-weight="normal" font-size="240px" font-family="Times New Roman" >
)</text>
<path stroke="none" fill="#000000" transform="matrix(0.05 0 0 0.05 -203 -223)" d="M 10735,4598.66 L 10745,4581.34 L 11259.6,4878.67 L 11259.6,4901.77 L 10735,4598.66 Z " />
<path stroke="none" fill="#000000" transform="matrix(0.05 0 0 0.05 -203 -223)" d="M 11228.6,4836.31 L 11218.6,4818.99 L 11738.2,4518.99 L 11748.2,4536.31 L 11228.6,4836.31 Z " />
<path stroke="none" fill="#000000" transform="matrix(0.05 0 0 0.05 -203 -223)" d="M 11259.6,4901.77 L 11259.6,4878.67 L 11779.2,4578.23 L 11779.2,4601.33 L 11259.6,4901.77 Z " />
<path stroke="none" fill="#000000" transform="matrix(0.05 0 0 0.05 -203 -223)" d="M 11300.6,4961.01 L 11290.6,4943.69 L 11810.2,4643.69 L 11820.2,4661.01 L 11300.6,4961.01 Z " />
<path stroke="none" fill="#000000" transform="matrix(0.05 0 0 0.05 -203 -223)" d="M 11779.2,4601.33 L 11779.2,4578.23 L 12303.8,4881.34 L 12293.8,4898.66 L 11779.2,4601.33 Z " />
<path stroke="none" fill="#000000" transform="matrix(0.05 0 0 0.05 -203 -223)" d="M 9940,7373.66 L 9950,7356.34 L 10464.6,7653.67 L 10464.6,7676.77 L 9940,7373.66 Z " />
<path stroke="none" fill="#000000" transform="matrix(0.05 0 0 0.05 -203 -223)" d="M 10464.6,7676.77 L 10464.6,7653.67 L 10984.2,7353.23 L 10984.2,7376.33 L 10464.6,7676.77 Z " />
<path stroke="none" fill="#000000" transform="matrix(0.05 0 0 0.05 -203 -223)" d="M 10469.6,7590.52 L 10459.6,7573.2 L 10943.2,7293.99 L 10953.2,7311.31 L 10469.6,7590.52 Z " />
<path stroke="none" fill="#000000" transform="matrix(0.05 0 0 0.05 -203 -223)" d="M 10984.2,7376.33 L 10984.2,7353.23 L 11508.8,7656.34 L 11498.8,7673.66 L 10984.2,7376.33 Z " />
<path stroke="none" fill="#000000" transform="matrix(0.05 0 0 0.05 -203 -223)" d="M 8485.8,7735.14 L 8494.09,7715.14 L 9085.91,7715.14 L 9094.2,7735.14 L 8485.8,7735.14 Z " />
<path stroke="none" fill="#000000" transform="matrix(0.05 0 0 0.05 -203 -223)" d="M 8519.82,7663 L 8519.82,7643 L 9060.18,7643 L 9060.18,7663 L 8519.82,7663 Z " />
<path stroke="none" fill="#000000" transform="matrix(0.05 0 0 0.05 -203 -223)" d="M 9094.2,7735.14 L 9085.91,7715.14 L 9507.19,7293.66 L 9521.33,7307.81 L 9094.2,7735.14 Z " />
<path stroke="none" fill="#000000" transform="matrix(0.05 0 0 0.05 -203 -223)" d="M 8494.09,7715.14 L 8485.8,7735.14 L 8058.66,7307.81 L 8072.81,7293.66 L 8494.09,7715.14 Z " />
<text x="0" y="0" stroke="none" fill="#000000" transform="matrix(0.05 0 0 0.05 212.101 313.082)" font-style="normal" font-weight="normal" font-size="200px" font-family="Arial" >
Cl</text>
<path stroke="none" fill="#000000" transform="matrix(0.05 0 0 0.05 -203 -223)" d="M 8384,11244.3 L 8374.23,11250 L 8364.47,11244.3 L 8364.23,10765.2 L 8384.23,10765.2 L 8384,11244.3 Z " />
<path stroke="#000000" stroke-width="15" fill="none" transform="matrix(0.05 0 0 0.05 -203 -223)" d="M 8716.37,9556.04 L 8930.24,9679.52 " />
<path stroke="#000000" stroke-width="16" fill="none" transform="matrix(0.05 0 0 0.05 -203 -223)" d="M 8930.24,9679.52 L 8908.28,9597.56 " />
<path stroke="#000000" stroke-width="16" fill="none" transform="matrix(0.05 0 0 0.05 -203 -223)" d="M 8908.28,9597.56 L 8952.2,9761.48 " />
<path stroke="#000000" stroke-width="16" fill="none" transform="matrix(0.05 0 0 0.05 -203 -223)" d="M 8952.2,9761.48 L 8788.28,9805.41 " />
<path stroke="#000000" stroke-width="16" fill="none" transform="matrix(0.05 0 0 0.05 -203 -223)" d="M 8788.28,9805.41 L 8870.24,9783.45 " />
<path stroke="#000000" stroke-width="15" fill="none" transform="matrix(0.05 0 0 0.05 -203 -223)" d="M 8870.24,9783.45 L 8656.37,9659.97 " />
<path stroke="none" fill="#000000" transform="matrix(0.05 0 0 0.05 -203 -223)" d="M 10150,11273.7 L 10160,11256.3 L 10674.6,11553.7 L 10674.6,11576.8 L 10150,11273.7 Z " />
<path stroke="none" fill="#000000" transform="matrix(0.05 0 0 0.05 -203 -223)" d="M 10674.6,11576.8 L 10674.6,11553.7 L 11184.5,11259.3 L 11194.2,11265 L 11194.2,11276.3 L 10674.6,11576.8 Z " />
<path stroke="none" fill="#000000" transform="matrix(0.05 0 0 0.05 -203 -223)" d="M 11194.2,11276.3 L 11194.2,11265 L 11204,11259.3 L 11718.8,11556.3 L 11708.8,11573.7 L 11194.2,11276.3 Z " />
<text x="0" y="0" stroke="none" fill="#000000" transform="matrix(0.05 0 0 0.05 352.822 313.832)" font-style="normal" font-weight="normal" font-size="200px" font-family="Arial" >
OH</text>
<path stroke="none" fill="#000000" transform="matrix(0.05 0 0 0.05 -203 -223)" d="M 11204,11259.3 L 11194.2,11265 L 11184.5,11259.3 L 11184.2,10780.1 L 11204.2,10780.1 L 11204,11259.3 Z " />
<path stroke="none" fill="#000000" transform="matrix(0.05 0 0 0.05 -203 -223)" d="M 9059.33,9241.66 L 8468.5,10265 L 8451.5,10255 L 9042.33,9231.66 Z " />
<path stroke="none" fill="#000000" transform="matrix(0.05 0 0 0.05 -203 -223)" d="M 9137.83,9085.97 C 9137.83,9085.97 9082.13,9285.17 9082.13,9285.17 C 9082.13,9285.17 9069.71,9248.9 9050.33,9237.52 C 9030.95,9226.15 8993.53,9233.17 8993.53,9233.17 C 8993.53,9233.17 9137.83,9085.97 9137.83,9085.97 C 9137.83,9085.97 9137.83,9085.97 9137.83,9085.97 " />
<path stroke="#000000" stroke-width="1" fill="none" transform="matrix(0.05 0 0 0.05 -203 -223)" d="M 9137.83,9085.97 C 9137.83,9085.97 9082.13,9285.17 9082.13,9285.17 C 9082.13,9285.17 9069.71,9248.9 9050.33,9237.52 C 9030.95,9226.15 8993.53,9233.17 8993.53,9233.17 C 8993.53,9233.17 9137.83,9085.97 9137.83,9085.97 C 9137.83,9085.97 9137.83,9085.97 9137.83,9085.97 " />
<path stroke="none" fill="#000000" transform="matrix(0.05 0 0 0.05 -203 -223)" d="M 10180.3,9075.71 L 10871.9,10758.1 L 10853.9,10766.1 L 10162.3,9083.71 Z " />
<path stroke="none" fill="#000000" transform="matrix(0.05 0 0 0.05 -203 -223)" d="M 10105.2,8918.78 C 10105.2,8918.78 10228.5,9083.75 10228.5,9083.75 C 10228.5,9083.75 10192.4,9071.88 10171.7,9080.64 C 10151.1,9089.39 10134,9123.77 10134,9123.77 C 10134,9123.77 10105.2,8918.78 10105.2,8918.78 C 10105.2,8918.78 10105.2,8918.78 10105.2,8918.78 " />
<path stroke="#000000" stroke-width="1" fill="none" transform="matrix(0.05 0 0 0.05 -203 -223)" d="M 10105.2,8918.78 C 10105.2,8918.78 10228.5,9083.75 10228.5,9083.75 C 10228.5,9083.75 10192.4,9071.88 10171.7,9080.64 C 10151.1,9089.39 10134,9123.77 10134,9123.77 C 10134,9123.77 10105.2,8918.78 10105.2,8918.78 C 10105.2,8918.78 10105.2,8918.78 10105.2,8918.78 " />
<text x="0" y="0" stroke="none" fill="#000000" transform="matrix(0.0187303 0.0463592 -0.0463592 0.0187303 311.822 234.368)" font-style="normal" font-weight="normal" font-size="240px" font-family="Times New Roman" >
conc. </text>
<text x="0" y="0" stroke="none" fill="#000000" transform="matrix(0.0187303 0.0463592 -0.0463592 0.0187303 322.555 260.934)" font-style="normal" font-weight="normal" font-size="240px" font-family="Times New Roman" >
H</text>
<text x="0" y="0" stroke="none" fill="#000000" transform="matrix(0.0187303 0.0463592 -0.0463592 0.0187303 323.395 269.941)" font-style="normal" font-weight="normal" font-size="180px" font-family="Times New Roman" >
2</text>
<text x="0" y="0" stroke="none" fill="#000000" transform="matrix(0.0187303 0.0463592 -0.0463592 0.0187303 327.487 273.141)" font-style="normal" font-weight="normal" font-size="240px" font-family="Times New Roman" >
SO</text>
<text x="0" y="0" stroke="none" fill="#000000" transform="matrix(0.0187303 0.0463592 -0.0463592 0.0187303 330.827 288.336)" font-style="normal" font-weight="normal" font-size="180px" font-family="Times New Roman" >
4</text>
<text x="0" y="0" stroke="none" fill="#000000" transform="matrix(0.0187303 0.0463592 -0.0463592 0.0187303 334.919 291.536)" font-style="normal" font-weight="normal" font-size="240px" font-family="Times New Roman" >
, </text>
<text x="0" y="0" stroke="none" fill="#000000" transform="matrix(0.0187303 0.0463592 -0.0463592 0.0187303 337.167 297.099)" font-style="normal" font-weight="normal" font-size="240px" font-family="Symbol" >
D</text>
<text x="0" y="0" stroke="none" fill="#000000" transform="matrix(0.0187303 0.0463592 -0.0463592 0.0187303 340.413 305.134)" font-style="normal" font-weight="normal" font-size="240px" font-family="Times New Roman" >
(</text>
<text x="0" y="0" stroke="none" fill="#000000" transform="matrix(0.0187303 0.0463592 -0.0463592 0.0187303 297.727 241.516)" font-style="normal" font-weight="normal" font-size="240px" font-family="Times New Roman" >
via </text>
<text x="0" y="0" stroke="none" fill="#000000" transform="matrix(0.0187303 0.0463592 -0.0463592 0.0187303 304.343 257.89)" font-style="normal" font-weight="normal" font-size="240px" font-family="Times New Roman" >
carbocation)</text>
<path stroke="none" fill="#000000" transform="matrix(0.05 0 0 0.05 -203 -223)" d="M 4105,8378.66 L 4115,8361.34 L 4629.62,8658.67 L 4629.62,8670 L 4619.85,8675.69 L 4105,8378.66 Z " />
<path stroke="none" fill="#000000" transform="matrix(0.05 0 0 0.05 -203 -223)" d="M 4639.38,8675.69 L 4629.62,8670 L 4629.62,8658.67 L 5139.47,8364.31 L 5149.23,8370 L 5149.23,8381.33 L 4639.38,8675.69 Z " />
<path stroke="none" fill="#000000" transform="matrix(0.05 0 0 0.05 -203 -223)" d="M 5149.23,8381.33 L 5149.23,8370 L 5159,8364.31 L 5673.85,8661.34 L 5663.85,8678.66 L 5149.23,8381.33 Z " />
<text x="0" y="0" stroke="none" fill="#000000" transform="matrix(0.05 0 0 0.05 50.8507 169.082)" font-style="normal" font-weight="normal" font-size="200px" font-family="Arial" >
Cl</text>
<path stroke="none" fill="#000000" transform="matrix(0.05 0 0 0.05 -203 -223)" d="M 5159,8364.31 L 5149.23,8370 L 5139.47,8364.31 L 5139.23,7885.2 L 5159.23,7885.2 L 5159,8364.31 Z " />
<text x="0" y="0" stroke="none" fill="#000000" transform="matrix(0.05 0 0 0.05 24.8699 244.082)" font-style="normal" font-weight="normal" font-size="200px" font-family="Arial" >
Cl</text>
<path stroke="none" fill="#000000" transform="matrix(0.05 0 0 0.05 -203 -223)" d="M 4619.85,8675.69 L 4629.62,8670 L 4639.38,8675.69 L 4639.62,9156.2 L 4619.62,9156.2 L 4619.85,8675.69 Z " />
<text x="0" y="0" stroke="none" fill="#000000" transform="matrix(0.05 0 0 0.05 135.71 190.248)" font-style="normal" font-weight="normal" font-size="240px" font-family="Times New Roman" >
Zn</text>
</svg>
