<?xml version="1.0" standalone="no" ?>
<!DOCTYPE svg PUBLIC "-//W3C//DTD SVG 1.1//EN" "http://www.w3.org/Graphics/SVG/1.1/DTD/svg11.dtd">
<svg width="486px" height="467px" viewBox="0 0 486 467" style="background-color: #ffffff00" xmlns="http://www.w3.org/2000/svg" xmlns:xlink="http://www.w3.org/1999/xlink" version="1.1" >
<text x="0" y="0" stroke="none" fill="#0000ff" transform="matrix(0.05 0 0 0.05 5.39266 131.729)" font-style="normal" font-weight="normal" font-size="280px" font-family="Chalkboard" >
N</text>
<text x="0" y="0" stroke="none" fill="#0000ff" transform="matrix(0.05 0 0 0.05 31.3441 176.745)" font-style="normal" font-weight="normal" font-size="280px" font-family="Chalkboard" >
N</text>
<path stroke="none" fill="#0000ff" transform="matrix(0.05 0 0 0.05 -107 -113)" d="M 2354.74,5389.18 L 2322.67,5407.67 L 2323.65,4940.19 L 2355.65,4940.21 L 2354.74,5389.18 Z " />
<path stroke="none" fill="#0000ff" transform="matrix(0.05 0 0 0.05 -107 -113)" d="M 2476.94,4737.42 L 2460.96,4709.69 L 2859.41,4479.22 L 2859.37,4516.21 L 2476.94,4737.42 Z " />
<path stroke="none" fill="#0000ff" transform="matrix(0.05 0 0 0.05 -107 -113)" d="M 2521.89,4815.39 L 2505.91,4787.66 L 2851.49,4588.44 L 2867.48,4616.16 L 2521.89,4815.39 Z " />
<path stroke="none" fill="#0000ff" transform="matrix(0.05 0 0 0.05 -107 -113)" d="M 2859.37,4516.21 L 2859.41,4479.22 L 3395.49,4789.2 L 3363.45,4807.67 L 2859.37,4516.21 Z " />
<path stroke="none" fill="#0000ff" transform="matrix(0.05 0 0 0.05 -107 -113)" d="M 3363.45,4807.67 L 3395.49,4789.2 L 3395.09,5408.44 L 3363.05,5389.94 L 3363.45,4807.67 Z " />
<path stroke="none" fill="#0000ff" transform="matrix(0.05 0 0 0.05 -107 -113)" d="M 3272.94,4850.61 L 3304.94,4850.63 L 3304.62,5346.71 L 3272.62,5346.69 L 3272.94,4850.61 Z " />
<path stroke="none" fill="#0000ff" transform="matrix(0.05 0 0 0.05 -107 -113)" d="M 3363.05,5389.94 L 3395.09,5408.44 L 2995.97,5637.75 L 2979.99,5610.03 L 3363.05,5389.94 Z " />
<path stroke="none" fill="#0000ff" transform="matrix(0.05 0 0 0.05 -107 -113)" d="M 2322.67,5407.67 L 2354.74,5389.18 L 2736.84,5609.39 L 2720.82,5637.1 L 2322.67,5407.67 Z " />
<path stroke="none" fill="#0000ff" transform="matrix(0.05 0 0 0.05 -107 -113)" d="M 2421.38,5359.99 L 2437.39,5332.29 L 2781.89,5531.48 L 2765.87,5559.18 L 2421.38,5359.99 Z " />
<text x="0" y="0" stroke="none" fill="#0000ff" transform="matrix(0.05 0 0 0.05 1.67467 197.455)" font-style="normal" font-weight="normal" font-size="280px" font-family="Chalkboard" >
pyrimidine</text>
<text x="0" y="0" stroke="none" fill="#0000ff" transform="matrix(0.05 0 0 0.05 219.487 101.7)" font-style="normal" font-weight="normal" font-size="280px" font-family="Chalkboard" >
N</text>
<text x="0" y="0" stroke="none" fill="#0000ff" transform="matrix(0.05 0 0 0.05 219.487 112.975)" font-style="normal" font-weight="normal" font-size="280px" font-family="Chalkboard" >
H</text>
<text x="0" y="0" stroke="none" fill="#0000ff" transform="matrix(0.05 0 0 0.05 167.038 101.686)" font-style="normal" font-weight="normal" font-size="280px" font-family="Chalkboard" >
O</text>
<text x="0" y="0" stroke="none" fill="#0000ff" transform="matrix(0.05 0 0 0.05 184.808 56.6932)" font-style="normal" font-weight="normal" font-size="280px" font-family="Chalkboard" >
HN</text>
<text x="0" y="0" stroke="none" fill="#0000ff" transform="matrix(0.05 0 0 0.05 219.023 11.7)" font-style="normal" font-weight="normal" font-size="280px" font-family="Chalkboard" >
O</text>
<path stroke="none" fill="#0000ff" transform="matrix(0.05 0 0 0.05 -107 -113)" d="M 6499.67,4108.54 L 6483.66,4136.25 L 6085.41,3906.97 L 6117.47,3888.47 L 6499.67,4108.54 Z " />
<path stroke="none" fill="#0000ff" transform="matrix(0.05 0 0 0.05 -107 -113)" d="M 6139.08,3909.47 L 6155.08,3937.19 L 5729.14,4182.95 L 5713.15,4155.23 L 6139.08,3909.47 Z " />
<path stroke="none" fill="#0000ff" transform="matrix(0.05 0 0 0.05 -107 -113)" d="M 6094.1,3831.51 L 6110.1,3859.23 L 5684.16,4105 L 5668.17,4077.28 L 6094.1,3831.51 Z " />
<path stroke="none" fill="#0000ff" transform="matrix(0.05 0 0 0.05 -107 -113)" d="M 6117.47,3888.47 L 6085.41,3906.97 L 6086.21,3439.49 L 6118.21,3439.5 L 6117.47,3888.47 Z " />
<path stroke="none" fill="#0000ff" transform="matrix(0.05 0 0 0.05 -107 -113)" d="M 6239.76,3236.46 L 6223.76,3208.74 L 6621.79,2978.31 L 6621.75,3015.3 L 6239.76,3236.46 Z " />
<path stroke="none" fill="#0000ff" transform="matrix(0.05 0 0 0.05 -107 -113)" d="M 6592.93,3023.44 L 6560.93,3023.43 L 6561.06,2540.39 L 6593.05,2540.4 L 6592.93,3023.44 Z " />
<path stroke="none" fill="#0000ff" transform="matrix(0.05 0 0 0.05 -107 -113)" d="M 6682.93,3023.47 L 6650.93,3023.46 L 6651.06,2540.41 L 6683.05,2540.42 L 6682.93,3023.47 Z " />
<path stroke="none" fill="#0000ff" transform="matrix(0.05 0 0 0.05 -107 -113)" d="M 6621.75,3015.3 L 6621.79,2978.31 L 7157.98,3288.08 L 7125.95,3306.56 L 6621.75,3015.3 Z " />
<path stroke="none" fill="#0000ff" transform="matrix(0.05 0 0 0.05 -107 -113)" d="M 7125.95,3306.56 L 7157.98,3288.08 L 7157.83,3907.32 L 7125.79,3888.84 L 7125.95,3306.56 Z " />
<path stroke="none" fill="#0000ff" transform="matrix(0.05 0 0 0.05 -107 -113)" d="M 7035.46,3349.54 L 7067.46,3349.55 L 7067.33,3845.62 L 7035.33,3845.62 L 7035.46,3349.54 Z " />
<path stroke="none" fill="#0000ff" transform="matrix(0.05 0 0 0.05 -107 -113)" d="M 6758.81,4136.78 L 6742.82,4109.07 L 7125.79,3888.84 L 7157.83,3907.32 L 6758.81,4136.78 Z " />
<text x="0" y="0" stroke="none" fill="#0000ff" transform="matrix(0.05 0 0 0.05 346.471 101.7)" font-style="normal" font-weight="normal" font-size="280px" font-family="Chalkboard" >
N</text>
<text x="0" y="0" stroke="none" fill="#0000ff" transform="matrix(0.05 0 0 0.05 346.471 112.975)" font-style="normal" font-weight="normal" font-size="280px" font-family="Chalkboard" >
H</text>
<text x="0" y="0" stroke="none" fill="#0000ff" transform="matrix(0.05 0 0 0.05 294.022 101.686)" font-style="normal" font-weight="normal" font-size="280px" font-family="Chalkboard" >
O</text>
<text x="0" y="0" stroke="none" fill="#0000ff" transform="matrix(0.05 0 0 0.05 311.792 56.6932)" font-style="normal" font-weight="normal" font-size="280px" font-family="Chalkboard" >
HN</text>
<text x="0" y="0" stroke="none" fill="#0000ff" transform="matrix(0.05 0 0 0.05 346.007 11.7)" font-style="normal" font-weight="normal" font-size="280px" font-family="Chalkboard" >
O</text>
<path stroke="none" fill="#0000ff" transform="matrix(0.05 0 0 0.05 -107 -113)" d="M 9039.35,4108.54 L 9023.34,4136.25 L 8625.09,3906.97 L 8657.15,3888.47 L 9039.35,4108.54 Z " />
<path stroke="none" fill="#0000ff" transform="matrix(0.05 0 0 0.05 -107 -113)" d="M 8678.76,3909.47 L 8694.76,3937.19 L 8268.39,4183.2 L 8252.4,4155.48 L 8678.76,3909.47 Z " />
<path stroke="none" fill="#0000ff" transform="matrix(0.05 0 0 0.05 -107 -113)" d="M 8633.78,3831.51 L 8649.78,3859.23 L 8223.41,4105.24 L 8207.42,4077.53 L 8633.78,3831.51 Z " />
<path stroke="none" fill="#0000ff" transform="matrix(0.05 0 0 0.05 -107 -113)" d="M 8657.15,3888.47 L 8625.09,3906.97 L 8625.89,3439.49 L 8657.89,3439.5 L 8657.15,3888.47 Z " />
<path stroke="none" fill="#0000ff" transform="matrix(0.05 0 0 0.05 -107 -113)" d="M 8779.44,3236.46 L 8763.44,3208.74 L 9161.47,2978.31 L 9161.43,3015.3 L 8779.44,3236.46 Z " />
<path stroke="none" fill="#0000ff" transform="matrix(0.05 0 0 0.05 -107 -113)" d="M 9132.61,3023.44 L 9100.61,3023.43 L 9100.73,2541.39 L 9132.73,2541.4 L 9132.61,3023.44 Z " />
<path stroke="none" fill="#0000ff" transform="matrix(0.05 0 0 0.05 -107 -113)" d="M 9222.61,3023.47 L 9190.61,3023.46 L 9190.73,2541.41 L 9222.73,2541.42 L 9222.61,3023.47 Z " />
<path stroke="none" fill="#0000ff" transform="matrix(0.05 0 0 0.05 -107 -113)" d="M 9161.43,3015.3 L 9161.47,2978.31 L 9681.16,3279.68 L 9681.15,3297.61 L 9665.63,3306.56 L 9161.43,3015.3 Z " />
<path stroke="none" fill="#0000ff" transform="matrix(0.05 0 0 0.05 -107 -113)" d="M 9665.63,3306.56 L 9681.15,3297.61 L 9696.67,3306.57 L 9697.51,3907.32 L 9665.47,3888.84 L 9665.63,3306.56 Z " />
<path stroke="none" fill="#0000ff" transform="matrix(0.05 0 0 0.05 -107 -113)" d="M 9575.14,3349.54 L 9607.14,3349.55 L 9607.01,3845.62 L 9575.01,3845.62 L 9575.14,3349.54 Z " />
<path stroke="none" fill="#0000ff" transform="matrix(0.05 0 0 0.05 -107 -113)" d="M 9298.49,4136.78 L 9282.5,4109.07 L 9665.47,3888.84 L 9697.51,3907.32 L 9298.49,4136.78 Z " />
<path stroke="none" fill="#0000ff" transform="matrix(0.05 0 0 0.05 -107 -113)" d="M 9696.67,3306.57 L 9681.15,3297.61 L 9681.16,3279.68 L 10192.8,2983.88 L 10208.8,3011.6 L 9696.67,3306.57 Z " />
<text x="0" y="0" stroke="none" fill="#0000ff" transform="matrix(0.05 0 0 0.05 217.771 268.152)" font-style="normal" font-weight="normal" font-size="280px" font-family="Chalkboard" >
N</text>
<text x="0" y="0" stroke="none" fill="#0000ff" transform="matrix(0.05 0 0 0.05 217.771 279.427)" font-style="normal" font-weight="normal" font-size="280px" font-family="Chalkboard" >
H</text>
<text x="0" y="0" stroke="none" fill="#0000ff" transform="matrix(0.05 0 0 0.05 165.322 268.138)" font-style="normal" font-weight="normal" font-size="280px" font-family="Chalkboard" >
O</text>
<text x="0" y="0" stroke="none" fill="#0000ff" transform="matrix(0.05 0 0 0.05 191.802 223.145)" font-style="normal" font-weight="normal" font-size="280px" font-family="Chalkboard" >
N</text>
<path stroke="none" fill="#0000ff" transform="matrix(0.05 0 0 0.05 -107 -113)" d="M 6465.35,7437.58 L 6449.34,7465.29 L 6051.09,7236.01 L 6083.15,7217.51 L 6465.35,7437.58 Z " />
<path stroke="none" fill="#0000ff" transform="matrix(0.05 0 0 0.05 -107 -113)" d="M 6104.76,7238.51 L 6120.76,7266.23 L 5694.39,7512.24 L 5678.4,7484.52 L 6104.76,7238.51 Z " />
<path stroke="none" fill="#0000ff" transform="matrix(0.05 0 0 0.05 -107 -113)" d="M 6059.78,7160.55 L 6075.78,7188.27 L 5649.41,7434.28 L 5633.42,7406.57 L 6059.78,7160.55 Z " />
<path stroke="none" fill="#0000ff" transform="matrix(0.05 0 0 0.05 -107 -113)" d="M 6083.15,7217.51 L 6051.09,7236.01 L 6051.89,6768.53 L 6083.89,6768.54 L 6083.15,7217.51 Z " />
<path stroke="none" fill="#0000ff" transform="matrix(0.05 0 0 0.05 -107 -113)" d="M 6205.11,6565.69 L 6189.12,6537.97 L 6572.24,6317.64 L 6587.62,6326.51 L 6587.43,6344.34 L 6205.11,6565.69 Z " />
<path stroke="none" fill="#0000ff" transform="matrix(0.05 0 0 0.05 -107 -113)" d="M 6250.09,6643.64 L 6234.1,6615.92 L 6579.59,6416.57 L 6595.58,6444.29 L 6250.09,6643.64 Z " />
<path stroke="none" fill="#0000ff" transform="matrix(0.05 0 0 0.05 -107 -113)" d="M 6587.43,6344.34 L 6587.62,6326.51 L 6602.98,6317.45 L 7123.66,6617.12 L 7091.63,6635.6 L 6587.43,6344.34 Z " />
<path stroke="none" fill="#0000ff" transform="matrix(0.05 0 0 0.05 -107 -113)" d="M 7091.63,6635.6 L 7123.66,6617.12 L 7123.51,7236.36 L 7091.47,7217.88 L 7091.63,6635.6 Z " />
<path stroke="none" fill="#0000ff" transform="matrix(0.05 0 0 0.05 -107 -113)" d="M 7001.14,6678.58 L 7033.14,6678.59 L 7033.01,7174.66 L 7001.01,7174.66 L 7001.14,6678.58 Z " />
<path stroke="none" fill="#0000ff" transform="matrix(0.05 0 0 0.05 -107 -113)" d="M 6724.49,7465.82 L 6708.5,7438.11 L 7091.47,7217.88 L 7123.51,7236.36 L 6724.49,7465.82 Z " />
<text x="0" y="0" stroke="none" fill="#0000ff" transform="matrix(0.05 0 0 0.05 217.794 178.152)" font-style="normal" font-weight="normal" font-size="280px" font-family="Chalkboard" >
NH</text>
<text x="0" y="0" stroke="none" fill="#0000ff" transform="matrix(0.05 0 0 0.05 235.692 182.112)" font-style="normal" font-weight="normal" font-size="210px" font-family="Chalkboard" >
2</text>
<path stroke="none" fill="#0000ff" transform="matrix(0.05 0 0 0.05 -107 -113)" d="M 6602.98,6317.45 L 6587.62,6326.51 L 6572.24,6317.64 L 6571.74,5868.67 L 6603.74,5868.67 L 6602.98,6317.45 Z " />
<text x="0" y="0" stroke="none" fill="#0000ff" transform="matrix(0.05 0 0 0.05 181.882 134.775)" font-style="normal" font-weight="normal" font-size="280px" font-family="Chalkboard" >
Uracil </text>
<text x="0" y="0" stroke="none" fill="#0000ff" transform="matrix(0.05 0 0 0.05 223.309 134.775)" font-style="normal" font-weight="normal" font-size="280px" font-family="Chalkboard" >
(RNA)</text>
<text x="0" y="0" stroke="none" fill="#0000ff" transform="matrix(0.05 0 0 0.05 303.457 134.775)" font-style="normal" font-weight="normal" font-size="280px" font-family="Chalkboard" >
Thymine </text>
<text x="0" y="0" stroke="none" fill="#0000ff" transform="matrix(0.05 0 0 0.05 360.679 134.775)" font-style="normal" font-weight="normal" font-size="280px" font-family="Chalkboard" >
(DNA)</text>
<text x="0" y="0" stroke="none" fill="#000000" transform="matrix(0.05 0 0 0.05 198.068 296.937)" font-style="normal" font-weight="normal" font-size="280px" font-family="Chalkboard" >
Cytosine</text>
<path stroke="none" fill="#0000ff" transform="matrix(0.05 0 0 0.05 -107 -113)" d="M 4729.43,4232.35 L 4040.6,4630.04 L 4024.6,4602.04 L 4713.43,4204.35 Z " />
<path stroke="none" fill="#0000ff" transform="matrix(0.05 0 0 0.05 -107 -113)" d="M 4963.05,4078.85 C 4963.05,4078.85 4726.92,4309.13 4726.92,4309.13 C 4726.92,4309.13 4738.5,4249.59 4720.56,4218.85 C 4702.62,4188.1 4644.92,4168.56 4644.92,4168.56 C 4644.92,4168.56 4963.05,4078.85 4963.05,4078.85 C 4963.05,4078.85 4963.05,4078.85 4963.05,4078.85 " />
<path stroke="#0000ff" stroke-width="1" fill="none" transform="matrix(0.05 0 0 0.05 -107 -113)" d="M 4963.05,4078.85 C 4963.05,4078.85 4726.92,4309.13 4726.92,4309.13 C 4726.92,4309.13 4738.5,4249.59 4720.56,4218.85 C 4702.62,4188.1 4644.92,4168.56 4644.92,4168.56 C 4644.92,4168.56 4963.05,4078.85 4963.05,4078.85 C 4963.05,4078.85 4963.05,4078.85 4963.05,4078.85 " />
<path stroke="none" fill="#0000ff" transform="matrix(0.05 0 0 0.05 -107 -113)" d="M 4783.78,6002.24 L 4041.76,5573.84 L 4057.76,5545.84 L 4799.78,5974.24 Z " />
<path stroke="none" fill="#0000ff" transform="matrix(0.05 0 0 0.05 -107 -113)" d="M 5033.4,6127.74 C 5033.4,6127.74 4715.27,6038.03 4715.27,6038.03 C 4715.27,6038.03 4772.97,6018.49 4790.91,5987.74 C 4808.85,5957 4797.27,5897.46 4797.27,5897.46 C 4797.27,5897.46 5033.4,6127.74 5033.4,6127.74 C 5033.4,6127.74 5033.4,6127.74 5033.4,6127.74 " />
<path stroke="#0000ff" stroke-width="1" fill="none" transform="matrix(0.05 0 0 0.05 -107 -113)" d="M 5033.4,6127.74 C 5033.4,6127.74 4715.27,6038.03 4715.27,6038.03 C 4715.27,6038.03 4772.97,6018.49 4790.91,5987.74 C 4808.85,5957 4797.27,5897.46 4797.27,5897.46 C 4797.27,5897.46 5033.4,6127.74 5033.4,6127.74 C 5033.4,6127.74 5033.4,6127.74 5033.4,6127.74 " />
<text x="0" y="0" stroke="none" fill="#0000ff" transform="matrix(0.05 0 0 0.05 83.4243 367.811)" font-style="normal" font-weight="normal" font-size="280px" font-family="Chalkboard" >
H</text>
<text x="0" y="0" stroke="none" fill="#0000ff" transform="matrix(0.05 0 0 0.05 83.4243 379.27)" font-style="normal" font-weight="normal" font-size="280px" font-family="Chalkboard" >
N</text>
<text x="0" y="0" stroke="none" fill="#0000ff" transform="matrix(0.05 0 0 0.05 83.4243 427.577)" font-style="normal" font-weight="normal" font-size="280px" font-family="Chalkboard" >
N</text>
<text x="0" y="0" stroke="none" fill="#0000ff" transform="matrix(0.05 0 0 0.05 28.9118 433.307)" font-style="normal" font-weight="normal" font-size="280px" font-family="Chalkboard" >
N</text>
<text x="0" y="0" stroke="none" fill="#0000ff" transform="matrix(0.05 0 0 0.05 2.93109 388.307)" font-style="normal" font-weight="normal" font-size="280px" font-family="Chalkboard" >
N</text>
<path stroke="none" fill="#0000ff" transform="matrix(0.05 0 0 0.05 -107 -113)" d="M 3981.72,9883.37 L 4007.61,9864.57 L 4273.93,10229.6 L 4234.26,10229.6 L 3981.72,9883.37 Z " />
<path stroke="none" fill="#0000ff" transform="matrix(0.05 0 0 0.05 -107 -113)" d="M 4234.26,10229.6 L 4273.93,10229.6 L 4006.26,10596.5 L 3980.37,10577.7 L 4234.26,10229.6 Z " />
<path stroke="none" fill="#0000ff" transform="matrix(0.05 0 0 0.05 -107 -113)" d="M 4128.86,10220.2 L 4154.74,10239 L 3933.44,10543.6 L 3907.56,10524.8 L 4128.86,10220.2 Z " />
<path stroke="none" fill="#0000ff" transform="matrix(0.05 0 0 0.05 -107 -113)" d="M 3771.8,10656.4 L 3761.91,10686.8 L 3331.5,10546.5 L 3329.74,10529.6 L 3345.16,10518.6 L 3771.8,10656.4 Z " />
<path stroke="none" fill="#0000ff" transform="matrix(0.05 0 0 0.05 -107 -113)" d="M 3314.21,10520.8 L 3329.74,10529.6 L 3331.5,10546.5 L 2947.31,10768.9 L 2931.31,10741.2 L 3314.21,10520.8 Z " />
<path stroke="none" fill="#0000ff" transform="matrix(0.05 0 0 0.05 -107 -113)" d="M 3231.74,10463.8 L 3247.74,10491.5 L 2902.31,10690.9 L 2886.31,10663.2 L 3231.74,10463.8 Z " />
<path stroke="none" fill="#0000ff" transform="matrix(0.05 0 0 0.05 -107 -113)" d="M 2688.16,10740.7 L 2672.16,10768.4 L 2273.84,10539.2 L 2305.89,10520.7 L 2688.16,10740.7 Z " />
<path stroke="none" fill="#0000ff" transform="matrix(0.05 0 0 0.05 -107 -113)" d="M 2305.89,10520.7 L 2273.84,10539.2 L 2274.51,10071.8 L 2306.51,10071.8 L 2305.89,10520.7 Z " />
<path stroke="none" fill="#0000ff" transform="matrix(0.05 0 0 0.05 -107 -113)" d="M 2396.51,10477.6 L 2364.51,10477.6 L 2364.51,10071.8 L 2396.51,10071.8 L 2396.51,10477.6 Z " />
<path stroke="none" fill="#0000ff" transform="matrix(0.05 0 0 0.05 -107 -113)" d="M 2427.69,9868.88 L 2411.69,9841.16 L 2809.97,9610.44 L 2809.95,9647.44 L 2427.69,9868.88 Z " />
<path stroke="none" fill="#0000ff" transform="matrix(0.05 0 0 0.05 -107 -113)" d="M 2809.95,9647.44 L 2809.97,9610.44 L 3331.68,9912.67 L 3329.74,9929.61 L 3314.22,9938.57 L 2809.95,9647.44 Z " />
<path stroke="none" fill="#0000ff" transform="matrix(0.05 0 0 0.05 -107 -113)" d="M 2802.13,9747.38 L 2818.13,9719.67 L 3247.74,9967.71 L 3231.74,9995.42 L 2802.13,9747.38 Z " />
<path stroke="none" fill="#0000ff" transform="matrix(0.05 0 0 0.05 -107 -113)" d="M 3761.32,9772.55 L 3771.21,9802.99 L 3345.16,9940.59 L 3329.74,9929.61 L 3331.68,9912.67 L 3761.32,9772.55 Z " />
<path stroke="none" fill="#0000ff" transform="matrix(0.05 0 0 0.05 -107 -113)" d="M 3345.16,10518.6 L 3329.74,10529.6 L 3314.21,10520.8 L 3314.22,9938.57 L 3329.74,9929.61 L 3345.16,9940.59 L 3345.16,10518.6 Z " />
<text x="0" y="0" stroke="none" fill="#0000ff" transform="matrix(0.05 0 0 0.05 35.2994 454.585)" font-style="normal" font-weight="normal" font-size="280px" font-family="Chalkboard" >
purine</text>
<path stroke="none" fill="#0000ff" transform="matrix(0.05 0 0 0.05 -107 -113)" d="M 2815.4,8781.48 L 2815.4,6778.2 L 2847.4,6778.2 L 2847.4,8781.48 Z " />
<path stroke="none" fill="#0000ff" transform="matrix(0.05 0 0 0.05 -107 -113)" d="M 2831.4,9060.48 C 2831.4,9060.48 2749.4,8740.48 2749.4,8740.48 C 2749.4,8740.48 2795.53,8780.48 2831.4,8780.48 C 2866.84,8780.48 2912.4,8740.48 2912.4,8740.48 C 2912.4,8740.48 2831.4,9060.48 2831.4,9060.48 C 2831.4,9060.48 2831.4,9060.48 2831.4,9060.48 " />
<path stroke="#0000ff" stroke-width="1" fill="none" transform="matrix(0.05 0 0 0.05 -107 -113)" d="M 2831.4,9060.48 C 2831.4,9060.48 2749.4,8740.48 2749.4,8740.48 C 2749.4,8740.48 2795.53,8780.48 2831.4,8780.48 C 2866.84,8780.48 2912.4,8740.48 2912.4,8740.48 C 2912.4,8740.48 2831.4,9060.48 2831.4,9060.48 C 2831.4,9060.48 2831.4,9060.48 2831.4,9060.48 " />
<text x="0" y="0" stroke="none" fill="#0000ff" transform="matrix(0.05 0 0 0.05 39.718 287.686)" font-style="normal" font-weight="normal" font-size="280px" font-family="Chalkboard" >
imidazole</text>
<text x="0" y="0" stroke="none" fill="#0000ff" transform="matrix(0.05 0 0 0.05 190.833 389.335)" font-style="normal" font-weight="normal" font-size="280px" font-family="Chalkboard" >
N</text>
<text x="0" y="0" stroke="none" fill="#0000ff" transform="matrix(0.05 0 0 0.05 216.814 434.335)" font-style="normal" font-weight="normal" font-size="280px" font-family="Chalkboard" >
N</text>
<text x="0" y="0" stroke="none" fill="#0000ff" transform="matrix(0.05 0 0 0.05 216.814 344.335)" font-style="normal" font-weight="normal" font-size="280px" font-family="Chalkboard" >
NH</text>
<text x="0" y="0" stroke="none" fill="#0000ff" transform="matrix(0.05 0 0 0.05 234.712 348.295)" font-style="normal" font-weight="normal" font-size="210px" font-family="Chalkboard" >
2</text>
<text x="0" y="0" stroke="none" fill="#0000ff" transform="matrix(0.05 0 0 0.05 271.326 428.606)" font-style="normal" font-weight="normal" font-size="280px" font-family="Chalkboard" >
N</text>
<text x="0" y="0" stroke="none" fill="#0000ff" transform="matrix(0.05 0 0 0.05 271.326 368.84)" font-style="normal" font-weight="normal" font-size="280px" font-family="Chalkboard" >
H</text>
<text x="0" y="0" stroke="none" fill="#0000ff" transform="matrix(0.05 0 0 0.05 271.326 380.298)" font-style="normal" font-weight="normal" font-size="280px" font-family="Chalkboard" >
N</text>
<path stroke="none" fill="#0000ff" transform="matrix(0.05 0 0 0.05 -107 -113)" d="M 6032.55,10092.3 L 6064.55,10092.3 L 6063.93,10541.3 L 6031.88,10559.8 L 6032.55,10092.3 Z " />
<path stroke="none" fill="#0000ff" transform="matrix(0.05 0 0 0.05 -107 -113)" d="M 6122.55,10092.3 L 6154.55,10092.3 L 6154.55,10498.2 L 6122.55,10498.2 L 6122.55,10092.3 Z " />
<path stroke="none" fill="#0000ff" transform="matrix(0.05 0 0 0.05 -107 -113)" d="M 6031.88,10559.8 L 6063.93,10541.3 L 6446.2,10761.3 L 6430.2,10789 L 6031.88,10559.8 Z " />
<path stroke="none" fill="#0000ff" transform="matrix(0.05 0 0 0.05 -107 -113)" d="M 6705.35,10789.4 L 6689.35,10761.7 L 7072.25,10541.4 L 7087.78,10550.2 L 7089.54,10567.1 L 6705.35,10789.4 Z " />
<path stroke="none" fill="#0000ff" transform="matrix(0.05 0 0 0.05 -107 -113)" d="M 6660.35,10711.5 L 6644.35,10683.8 L 6989.78,10484.4 L 7005.78,10512.1 L 6660.35,10711.5 Z " />
<path stroke="none" fill="#0000ff" transform="matrix(0.05 0 0 0.05 -107 -113)" d="M 7103.2,10539.2 L 7087.78,10550.2 L 7072.25,10541.4 L 7072.26,9959.13 L 7087.78,9950.17 L 7103.2,9961.16 L 7103.2,10539.2 Z " />
<path stroke="none" fill="#0000ff" transform="matrix(0.05 0 0 0.05 -107 -113)" d="M 7089.72,9933.23 L 7087.78,9950.17 L 7072.26,9959.13 L 6567.99,9668 L 6568.17,9650.17 L 6583.53,9641.11 L 7089.72,9933.23 Z " />
<path stroke="none" fill="#0000ff" transform="matrix(0.05 0 0 0.05 -107 -113)" d="M 7005.78,9988.28 L 6989.78,10016 L 6560.17,9767.95 L 6576.17,9740.24 L 7005.78,9988.28 Z " />
<path stroke="none" fill="#0000ff" transform="matrix(0.05 0 0 0.05 -107 -113)" d="M 6583.53,9641.11 L 6568.17,9650.17 L 6552.79,9641.3 L 6552.17,9192.33 L 6584.17,9192.33 L 6583.53,9641.11 Z " />
<path stroke="none" fill="#0000ff" transform="matrix(0.05 0 0 0.05 -107 -113)" d="M 6185.73,9889.44 L 6169.73,9861.73 L 6552.79,9641.3 L 6568.17,9650.17 L 6567.99,9668 L 6185.73,9889.44 Z " />
<path stroke="none" fill="#0000ff" transform="matrix(0.05 0 0 0.05 -107 -113)" d="M 7089.54,10567.1 L 7087.78,10550.2 L 7103.2,10539.2 L 7529.84,10677 L 7519.95,10707.4 L 7089.54,10567.1 Z " />
<path stroke="none" fill="#0000ff" transform="matrix(0.05 0 0 0.05 -107 -113)" d="M 7764.3,10617.1 L 7738.41,10598.3 L 7992.3,10250.2 L 8031.97,10250.2 L 7764.3,10617.1 Z " />
<path stroke="none" fill="#0000ff" transform="matrix(0.05 0 0 0.05 -107 -113)" d="M 7691.48,10564.2 L 7665.6,10545.4 L 7886.9,10240.8 L 7912.78,10259.6 L 7691.48,10564.2 Z " />
<path stroke="none" fill="#0000ff" transform="matrix(0.05 0 0 0.05 -107 -113)" d="M 8031.97,10250.2 L 7992.3,10250.2 L 7740.23,9904.59 L 7766.12,9885.79 L 8031.97,10250.2 Z " />
<path stroke="none" fill="#0000ff" transform="matrix(0.05 0 0 0.05 -107 -113)" d="M 7103.2,9961.16 L 7087.78,9950.17 L 7089.72,9933.23 L 7519.36,9793.12 L 7529.25,9823.55 L 7103.2,9961.16 Z " />
<text x="0" y="0" stroke="none" fill="#0000ff" transform="matrix(0.05 0 0 0.05 218.993 455.613)" font-style="normal" font-weight="normal" font-size="280px" font-family="Chalkboard" >
adenine</text>
<text x="0" y="0" stroke="none" fill="#0000ff" transform="matrix(0.05 0 0 0.05 459.811 427.417)" font-style="normal" font-weight="normal" font-size="280px" font-family="Chalkboard" >
N</text>
<text x="0" y="0" stroke="none" fill="#0000ff" transform="matrix(0.05 0 0 0.05 459.811 438.692)" font-style="normal" font-weight="normal" font-size="280px" font-family="Chalkboard" >
H</text>
<text x="0" y="0" stroke="none" fill="#0000ff" transform="matrix(0.05 0 0 0.05 459.811 378.876)" font-style="normal" font-weight="normal" font-size="280px" font-family="Chalkboard" >
N</text>
<text x="0" y="0" stroke="none" fill="#0000ff" transform="matrix(0.05 0 0 0.05 405.299 433.147)" font-style="normal" font-weight="normal" font-size="280px" font-family="Chalkboard" >
N</text>
<text x="0" y="0" stroke="none" fill="#0000ff" transform="matrix(0.05 0 0 0.05 338.652 433.147)" font-style="normal" font-weight="normal" font-size="280px" font-family="Chalkboard" >
H</text>
<text x="0" y="0" stroke="none" fill="#0000ff" transform="matrix(0.05 0 0 0.05 347.362 437.107)" font-style="normal" font-weight="normal" font-size="210px" font-family="Chalkboard" >
2</text>
<text x="0" y="0" stroke="none" fill="#0000ff" transform="matrix(0.05 0 0 0.05 353.337 433.147)" font-style="normal" font-weight="normal" font-size="280px" font-family="Chalkboard" >
N</text>
<text x="0" y="0" stroke="none" fill="#0000ff" transform="matrix(0.05 0 0 0.05 370.608 388.147)" font-style="normal" font-weight="normal" font-size="280px" font-family="Chalkboard" >
HN</text>
<text x="0" y="0" stroke="none" fill="#0000ff" transform="matrix(0.05 0 0 0.05 404.811 343.147)" font-style="normal" font-weight="normal" font-size="280px" font-family="Chalkboard" >
O</text>
<path stroke="none" fill="#0000ff" transform="matrix(0.05 0 0 0.05 -107 -113)" d="M 11533.5,10594 L 11507.6,10575.2 L 11762,10226.4 L 11801.7,10226.4 L 11533.5,10594 Z " />
<path stroke="none" fill="#0000ff" transform="matrix(0.05 0 0 0.05 -107 -113)" d="M 11801.7,10226.4 L 11762,10226.4 L 11508.6,9879.06 L 11534.5,9860.26 L 11801.7,10226.4 Z " />
<path stroke="none" fill="#0000ff" transform="matrix(0.05 0 0 0.05 -107 -113)" d="M 11682.5,10217 L 11656.6,10235.8 L 11435.8,9931.97 L 11461.7,9913.16 L 11682.5,10217 Z " />
<path stroke="none" fill="#0000ff" transform="matrix(0.05 0 0 0.05 -107 -113)" d="M 11299.8,10653.3 L 11289.9,10683.7 L 10859.2,10543.3 L 10857.5,10526.4 L 10872.9,10515.4 L 11299.8,10653.3 Z " />
<path stroke="none" fill="#0000ff" transform="matrix(0.05 0 0 0.05 -107 -113)" d="M 10841.9,10517.6 L 10857.5,10526.4 L 10859.2,10543.3 L 10475,10765.7 L 10459,10738 L 10841.9,10517.6 Z " />
<path stroke="none" fill="#0000ff" transform="matrix(0.05 0 0 0.05 -107 -113)" d="M 10215.9,10737.5 L 10199.9,10765.2 L 9818.25,10544.2 L 9818.25,10526.4 L 9833.63,10517.5 L 10215.9,10737.5 Z " />
<path stroke="none" fill="#0000ff" transform="matrix(0.05 0 0 0.05 -107 -113)" d="M 10260.9,10659.6 L 10244.9,10687.3 L 9900.25,10488.3 L 9916.25,10460.6 L 10260.9,10659.6 Z " />
<path stroke="none" fill="#0000ff" transform="matrix(0.05 0 0 0.05 -107 -113)" d="M 9802.86,10517.5 L 9818.25,10526.4 L 9818.25,10544.2 L 9435.76,10765.7 L 9419.76,10738 L 9802.86,10517.5 Z " />
<path stroke="none" fill="#0000ff" transform="matrix(0.05 0 0 0.05 -107 -113)" d="M 9833.63,10517.5 L 9818.25,10526.4 L 9802.86,10517.5 L 9802.25,10068.6 L 9834.25,10068.6 L 9833.63,10517.5 Z " />
<path stroke="none" fill="#0000ff" transform="matrix(0.05 0 0 0.05 -107 -113)" d="M 9955.75,9865.49 L 9939.75,9837.78 L 10337.7,9607.25 L 10337.7,9644.24 L 9955.75,9865.49 Z " />
<path stroke="none" fill="#0000ff" transform="matrix(0.05 0 0 0.05 -107 -113)" d="M 10308.9,9652.39 L 10276.9,9652.39 L 10276.9,9169.34 L 10308.9,9169.34 L 10308.9,9652.39 Z " />
<path stroke="none" fill="#0000ff" transform="matrix(0.05 0 0 0.05 -107 -113)" d="M 10398.9,9652.39 L 10366.9,9652.39 L 10366.9,9169.34 L 10398.9,9169.34 L 10398.9,9652.39 Z " />
<path stroke="none" fill="#0000ff" transform="matrix(0.05 0 0 0.05 -107 -113)" d="M 10337.7,9644.24 L 10337.7,9607.25 L 10859.4,9909.47 L 10857.5,9926.41 L 10842,9935.37 L 10337.7,9644.24 Z " />
<path stroke="none" fill="#0000ff" transform="matrix(0.05 0 0 0.05 -107 -113)" d="M 11289,9769.39 L 11298.9,9799.82 L 10872.9,9937.4 L 10857.5,9926.41 L 10859.4,9909.47 L 11289,9769.39 Z " />
<path stroke="none" fill="#0000ff" transform="matrix(0.05 0 0 0.05 -107 -113)" d="M 10872.9,10515.4 L 10857.5,10526.4 L 10841.9,10517.6 L 10842,9935.37 L 10857.5,9926.41 L 10872.9,9937.4 L 10872.9,10515.4 Z " />
<path stroke="none" fill="#0000ff" transform="matrix(0.05 0 0 0.05 -107 -113)" d="M 10783.5,10474.4 L 10751.5,10474.4 L 10751.5,9978.37 L 10783.5,9978.37 L 10783.5,10474.4 Z " />
<text x="0" y="0" stroke="none" fill="#0000ff" transform="matrix(0.05 0 0 0.05 387.285 460.195)" font-style="normal" font-weight="normal" font-size="280px" font-family="Chalkboard" >
guanine</text>
<path stroke="none" fill="#0000ff" transform="matrix(0.05 0 0 0.05 -107 -113)" d="M 5332.32,10243.4 L 4667.52,10243.4 L 4667.52,10211.4 L 5332.32,10211.4 Z " />
<path stroke="none" fill="#0000ff" transform="matrix(0.05 0 0 0.05 -107 -113)" d="M 5611.32,10227.4 C 5611.32,10227.4 5291.32,10308.4 5291.32,10308.4 C 5291.32,10308.4 5331.32,10262.8 5331.32,10227.4 C 5331.32,10191.5 5291.32,10145.4 5291.32,10145.4 C 5291.32,10145.4 5611.32,10227.4 5611.32,10227.4 C 5611.32,10227.4 5611.32,10227.4 5611.32,10227.4 " />
<path stroke="#0000ff" stroke-width="1" fill="none" transform="matrix(0.05 0 0 0.05 -107 -113)" d="M 5611.32,10227.4 C 5611.32,10227.4 5291.32,10308.4 5291.32,10308.4 C 5291.32,10308.4 5331.32,10262.8 5331.32,10227.4 C 5331.32,10191.5 5291.32,10145.4 5291.32,10145.4 C 5291.32,10145.4 5611.32,10227.4 5611.32,10227.4 C 5611.32,10227.4 5611.32,10227.4 5611.32,10227.4 " />
</svg>
