<?xml version="1.0" standalone="no" ?>
<!DOCTYPE svg PUBLIC "-//W3C//DTD SVG 1.1//EN" "http://www.w3.org/Graphics/SVG/1.1/DTD/svg11.dtd">
<svg width="1006px" height="278px" viewBox="0 0 1006 278" style="background-color: #ffffff00" xmlns="http://www.w3.org/2000/svg" xmlns:xlink="http://www.w3.org/1999/xlink" version="1.1" >
<text x="0" y="0" stroke="none" fill="#0000ff" transform="matrix(0.05 0 0 0.05 448.039 205.557)" font-style="normal" font-weight="normal" font-size="280px" font-family="Chalkboard" >
HO</text>
<text x="0" y="0" stroke="none" fill="#0000ff" transform="matrix(0.05 0 0 0.05 534.688 250.557)" font-style="normal" font-weight="normal" font-size="280px" font-family="Chalkboard" >
OH</text>
<text x="0" y="0" stroke="none" fill="#0000ff" transform="matrix(0.05 0 0 0.05 586.658 220.557)" font-style="normal" font-weight="normal" font-size="280px" font-family="Chalkboard" >
OH</text>
<text x="0" y="0" stroke="none" fill="#0000ff" transform="matrix(0.05 0 0 0.05 508.708 175.557)" font-style="normal" font-weight="normal" font-size="280px" font-family="Chalkboard" >
O</text>
<path stroke="none" fill="#0000ff" transform="matrix(0.05 0 0 0.05 -14 -40)" d="M 9617.1,4891.1 L 9633.1,4863.39 L 10036.1,5096.75 L 10036.1,5133.74 L 9617.1,4891.1 Z " />
<path stroke="none" fill="#0000ff" transform="matrix(0.05 0 0 0.05 -14 -40)" d="M 11059.4,5168.71 L 11091.4,5168.71 L 11094.8,5200.71 L 11056,5200.71 L 11059.4,5168.71 Z " />
<path stroke="none" fill="#0000ff" transform="matrix(0.05 0 0 0.05 -14 -40)" d="M 11052.6,5231.68 L 11098.2,5231.68 L 11101.6,5263.68 L 11049.2,5263.68 L 11052.6,5231.68 Z " />
<path stroke="none" fill="#0000ff" transform="matrix(0.05 0 0 0.05 -14 -40)" d="M 11045.9,5294.65 L 11104.9,5294.65 L 11108.4,5326.65 L 11042.4,5326.65 L 11045.9,5294.65 Z " />
<path stroke="none" fill="#0000ff" transform="matrix(0.05 0 0 0.05 -14 -40)" d="M 11039.1,5357.62 L 11111.7,5357.62 L 11115.1,5389.62 L 11035.7,5389.62 L 11039.1,5357.62 Z " />
<path stroke="none" fill="#0000ff" transform="matrix(0.05 0 0 0.05 -14 -40)" d="M 11032.4,5420.59 L 11118.4,5420.59 L 11121.9,5452.59 L 11028.9,5452.59 L 11032.4,5420.59 Z " />
<path stroke="none" fill="#0000ff" transform="matrix(0.05 0 0 0.05 -14 -40)" d="M 11025.6,5483.56 L 11125.2,5483.56 L 11128.6,5515.56 L 11022.2,5515.56 L 11025.6,5483.56 Z " />
<path stroke="none" fill="#0000ff" transform="matrix(0.05 0 0 0.05 -14 -40)" d="M 11018.8,5546.53 L 11132,5546.53 L 11135.4,5578.53 L 11015.4,5578.53 L 11018.8,5546.53 Z " />
<path stroke="none" fill="#0000ff" transform="matrix(0.05 0 0 0.05 -14 -40)" d="M 11075.4,5133.66 L 11075.4,5096.68 L 11595.3,4795.46 L 11595.3,4832.45 L 11075.4,5133.66 Z " />
<path stroke="none" fill="#0000ff" transform="matrix(0.05 0 0 0.05 -14 -40)" d="M 11595.3,4832.45 L 11595.3,4795.46 L 12013.2,5037.49 L 11997.2,5065.2 L 11595.3,4832.45 Z " />
<path stroke="none" fill="#0000ff" transform="matrix(0.05 0 0 0.05 -14 -40)" d="M 10526.8,4840.58 L 10494.8,4840.58 L 10494.8,4358.53 L 10526.8,4358.53 L 10526.8,4840.58 Z " />
<path stroke="none" fill="#0000ff" transform="matrix(0.05 0 0 0.05 -14 -40)" d="M 10616.8,4840.58 L 10584.8,4840.58 L 10584.8,4358.53 L 10616.8,4358.53 L 10616.8,4840.58 Z " />
<path stroke="none" fill="#0000ff" transform="matrix(0.05 0 0 0.05 -14 -40)" d="M 11075.4,5096.68 L 11075.4,5133.66 L 10555.8,4832.52 L 10555.8,4795.54 L 11075.4,5096.68 Z " />
<path stroke="none" fill="#0000ff" transform="matrix(0.05 0 0 0.05 -14 -40)" d="M 10036.1,5133.74 L 10036.1,5096.75 L 10555.8,4795.54 L 10555.8,4832.52 L 10036.1,5133.74 Z " />
<text x="0" y="0" stroke="none" fill="#0000ff" transform="matrix(0.05 0 0 0.05 465.421 271.92)" font-style="normal" font-weight="normal" font-size="280px" font-family="Chalkboard" >
(+ </text>
<text x="0" y="0" stroke="none" fill="#0000ff" transform="matrix(0.05 0 0 0.05 482.731 271.92)" font-style="normal" font-weight="normal" font-size="280px" font-family="Chalkboard" >
&amp; </text>
<text x="0" y="0" stroke="none" fill="#0000ff" transform="matrix(0.05 0 0 0.05 498 271.92)" font-style="normal" font-weight="normal" font-size="280px" font-family="Chalkboard" >
-) </text>
<text x="0" y="0" stroke="none" fill="#0000ff" transform="matrix(0.05 0 0 0.05 514.429 271.92)" font-style="normal" font-weight="normal" font-size="280px" font-family="Chalkboard" >
Erythrulose</text>
<text x="0" y="0" stroke="none" fill="#0000ff" transform="matrix(0.05 0 0 0.05 61.8535 219.492)" font-style="normal" font-weight="normal" font-size="280px" font-family="Chalkboard" >
O</text>
<text x="0" y="0" stroke="none" fill="#0000ff" transform="matrix(0.05 0 0 0.05 112.69 247.543)" font-style="normal" font-weight="normal" font-size="280px" font-family="Chalkboard" >
OH</text>
<text x="0" y="0" stroke="none" fill="#0000ff" transform="matrix(0.05 0 0 0.05 138.671 172.543)" font-style="normal" font-weight="normal" font-size="280px" font-family="Chalkboard" >
OH</text>
<text x="0" y="0" stroke="none" fill="#0000ff" transform="matrix(0.05 0 0 0.05 190.632 202.543)" font-style="normal" font-weight="normal" font-size="280px" font-family="Chalkboard" >
OH</text>
<path stroke="none" fill="#0000ff" transform="matrix(0.05 0 0 0.05 -14 -40)" d="M 1720.02,5001.32 L 1704.02,4973.61 L 2115.69,4735.18 L 2115.67,4772.18 L 1720.02,5001.32 Z " />
<path stroke="none" fill="#0000ff" transform="matrix(0.05 0 0 0.05 -14 -40)" d="M 1765.02,5079.26 L 1749.02,5051.55 L 2107.82,4844.4 L 2123.82,4872.11 L 1765.02,5079.26 Z " />
<path stroke="none" fill="#0000ff" transform="matrix(0.05 0 0 0.05 -14 -40)" d="M 2115.67,4772.18 L 2115.69,4735.18 L 2635.44,5036.41 L 2635.44,5054.33 L 2621.03,5064.02 L 2115.67,4772.18 Z " />
<path stroke="none" fill="#0000ff" transform="matrix(0.05 0 0 0.05 -14 -40)" d="M 2621.03,5064.02 L 2635.44,5054.33 L 2649.85,5064.02 L 2695.44,5517.27 L 2575.44,5517.27 L 2621.03,5064.02 Z " />
<path stroke="none" fill="#0000ff" transform="matrix(0.05 0 0 0.05 -14 -40)" d="M 2649.85,5064.02 L 2635.44,5054.33 L 2635.44,5036.41 L 3155.05,4735.27 L 3155.05,4772.26 L 2649.85,5064.02 Z " />
<path stroke="none" fill="#0000ff" transform="matrix(0.05 0 0 0.05 -14 -40)" d="M 3171.05,4700.32 L 3139.05,4700.32 L 3135.56,4668.33 L 3174.54,4668.33 L 3171.05,4700.32 Z " />
<path stroke="none" fill="#0000ff" transform="matrix(0.05 0 0 0.05 -14 -40)" d="M 3177.8,4638.48 L 3132.3,4638.48 L 3128.81,4606.48 L 3181.3,4606.48 L 3177.8,4638.48 Z " />
<path stroke="none" fill="#0000ff" transform="matrix(0.05 0 0 0.05 -14 -40)" d="M 3184.55,4576.64 L 3125.55,4576.64 L 3122.06,4544.64 L 3188.05,4544.64 L 3184.55,4576.64 Z " />
<path stroke="none" fill="#0000ff" transform="matrix(0.05 0 0 0.05 -14 -40)" d="M 3191.3,4514.8 L 3118.8,4514.8 L 3115.3,4482.8 L 3194.8,4482.8 L 3191.3,4514.8 Z " />
<path stroke="none" fill="#0000ff" transform="matrix(0.05 0 0 0.05 -14 -40)" d="M 3198.06,4452.95 L 3112.05,4452.95 L 3108.55,4420.95 L 3201.55,4420.95 L 3198.06,4452.95 Z " />
<path stroke="none" fill="#0000ff" transform="matrix(0.05 0 0 0.05 -14 -40)" d="M 3204.81,4391.11 L 3105.3,4391.11 L 3101.8,4359.11 L 3208.3,4359.11 L 3204.81,4391.11 Z " />
<path stroke="none" fill="#0000ff" transform="matrix(0.05 0 0 0.05 -14 -40)" d="M 3211.56,4329.27 L 3098.54,4329.27 L 3095.05,4297.27 L 3215.05,4297.27 L 3211.56,4329.27 Z " />
<path stroke="none" fill="#0000ff" transform="matrix(0.05 0 0 0.05 -14 -40)" d="M 3155.05,4772.26 L 3155.05,4735.27 L 3674.83,5036.49 L 3674.81,5073.49 L 3155.05,4772.26 Z " />
<path stroke="none" fill="#0000ff" transform="matrix(0.05 0 0 0.05 -14 -40)" d="M 3674.81,5073.49 L 3674.83,5036.49 L 4065.12,4810.43 L 4081.12,4838.14 L 3674.81,5073.49 Z " />
<text x="0" y="0" stroke="none" fill="#0000ff" transform="matrix(0.05 0 0 0.05 80.3136 268.907)" font-style="normal" font-weight="normal" font-size="280px" font-family="Chalkboard" >
(+ </text>
<text x="0" y="0" stroke="none" fill="#0000ff" transform="matrix(0.05 0 0 0.05 97.6241 268.907)" font-style="normal" font-weight="normal" font-size="280px" font-family="Chalkboard" >
&amp; </text>
<text x="0" y="0" stroke="none" fill="#0000ff" transform="matrix(0.05 0 0 0.05 112.893 268.907)" font-style="normal" font-weight="normal" font-size="280px" font-family="Chalkboard" >
-) </text>
<text x="0" y="0" stroke="none" fill="#0000ff" transform="matrix(0.05 0 0 0.05 129.321 268.907)" font-style="normal" font-weight="normal" font-size="280px" font-family="Chalkboard" >
Erythrose</text>
<text x="0" y="0" stroke="none" fill="#0000ff" transform="matrix(0.05 0 0 0.05 255.853 222.402)" font-style="normal" font-weight="normal" font-size="280px" font-family="Chalkboard" >
O</text>
<text x="0" y="0" stroke="none" fill="#0000ff" transform="matrix(0.05 0 0 0.05 306.69 250.453)" font-style="normal" font-weight="normal" font-size="280px" font-family="Chalkboard" >
OH</text>
<text x="0" y="0" stroke="none" fill="#0000ff" transform="matrix(0.05 0 0 0.05 332.671 175.453)" font-style="normal" font-weight="normal" font-size="280px" font-family="Chalkboard" >
OH</text>
<text x="0" y="0" stroke="none" fill="#0000ff" transform="matrix(0.05 0 0 0.05 384.632 205.453)" font-style="normal" font-weight="normal" font-size="280px" font-family="Chalkboard" >
OH</text>
<path stroke="none" fill="#0000ff" transform="matrix(0.05 0 0 0.05 -14 -40)" d="M 5600.02,5059.52 L 5584.02,5031.81 L 5995.69,4793.38 L 5995.67,4830.38 L 5600.02,5059.52 Z " />
<path stroke="none" fill="#0000ff" transform="matrix(0.05 0 0 0.05 -14 -40)" d="M 5645.02,5137.46 L 5629.02,5109.75 L 5987.82,4902.6 L 6003.82,4930.31 L 5645.02,5137.46 Z " />
<path stroke="none" fill="#0000ff" transform="matrix(0.05 0 0 0.05 -14 -40)" d="M 5995.67,4830.38 L 5995.69,4793.38 L 6515.44,5094.61 L 6515.44,5131.59 L 5995.67,4830.38 Z " />
<path stroke="none" fill="#0000ff" transform="matrix(0.05 0 0 0.05 -14 -40)" d="M 6499.44,5166.64 L 6531.44,5166.64 L 6534.87,5198.64 L 6496,5198.64 L 6499.44,5166.64 Z " />
<path stroke="none" fill="#0000ff" transform="matrix(0.05 0 0 0.05 -14 -40)" d="M 6492.68,5229.61 L 6538.2,5229.61 L 6541.63,5261.61 L 6489.24,5261.61 L 6492.68,5229.61 Z " />
<path stroke="none" fill="#0000ff" transform="matrix(0.05 0 0 0.05 -14 -40)" d="M 6485.91,5292.58 L 6544.96,5292.58 L 6548.39,5324.58 L 6482.48,5324.58 L 6485.91,5292.58 Z " />
<path stroke="none" fill="#0000ff" transform="matrix(0.05 0 0 0.05 -14 -40)" d="M 6479.15,5355.55 L 6551.72,5355.55 L 6555.15,5387.55 L 6475.72,5387.55 L 6479.15,5355.55 Z " />
<path stroke="none" fill="#0000ff" transform="matrix(0.05 0 0 0.05 -14 -40)" d="M 6472.39,5418.52 L 6558.48,5418.52 L 6561.91,5450.52 L 6468.96,5450.52 L 6472.39,5418.52 Z " />
<path stroke="none" fill="#0000ff" transform="matrix(0.05 0 0 0.05 -14 -40)" d="M 6465.63,5481.5 L 6565.24,5481.5 L 6568.68,5513.5 L 6462.2,5513.5 L 6465.63,5481.5 Z " />
<path stroke="none" fill="#0000ff" transform="matrix(0.05 0 0 0.05 -14 -40)" d="M 6458.87,5544.47 L 6572,5544.47 L 6575.44,5576.47 L 6455.44,5576.47 L 6458.87,5544.47 Z " />
<path stroke="none" fill="#0000ff" transform="matrix(0.05 0 0 0.05 -14 -40)" d="M 6515.44,5131.59 L 6515.44,5094.61 L 7035.05,4793.47 L 7035.05,4830.46 L 6515.44,5131.59 Z " />
<path stroke="none" fill="#0000ff" transform="matrix(0.05 0 0 0.05 -14 -40)" d="M 7051.05,4758.52 L 7019.05,4758.52 L 7015.55,4726.52 L 7054.55,4726.52 L 7051.05,4758.52 Z " />
<path stroke="none" fill="#0000ff" transform="matrix(0.05 0 0 0.05 -14 -40)" d="M 7057.8,4696.85 L 7012.3,4696.85 L 7008.8,4664.85 L 7061.3,4664.85 L 7057.8,4696.85 Z " />
<path stroke="none" fill="#0000ff" transform="matrix(0.05 0 0 0.05 -14 -40)" d="M 7064.55,4635.17 L 7005.55,4635.17 L 7002.05,4603.17 L 7068.05,4603.17 L 7064.55,4635.17 Z " />
<path stroke="none" fill="#0000ff" transform="matrix(0.05 0 0 0.05 -14 -40)" d="M 7071.3,4573.5 L 6998.8,4573.5 L 6995.3,4541.5 L 7074.8,4541.5 L 7071.3,4573.5 Z " />
<path stroke="none" fill="#0000ff" transform="matrix(0.05 0 0 0.05 -14 -40)" d="M 7078.05,4511.82 L 6992.05,4511.82 L 6988.55,4479.82 L 7081.55,4479.82 L 7078.05,4511.82 Z " />
<path stroke="none" fill="#0000ff" transform="matrix(0.05 0 0 0.05 -14 -40)" d="M 7084.8,4450.14 L 6985.3,4450.14 L 6981.8,4418.14 L 7088.3,4418.14 L 7084.8,4450.14 Z " />
<path stroke="none" fill="#0000ff" transform="matrix(0.05 0 0 0.05 -14 -40)" d="M 7091.55,4388.47 L 6978.55,4388.47 L 6975.05,4356.47 L 7095.05,4356.47 L 7091.55,4388.47 Z " />
<path stroke="none" fill="#0000ff" transform="matrix(0.05 0 0 0.05 -14 -40)" d="M 7035.05,4830.46 L 7035.05,4793.47 L 7554.83,5094.69 L 7554.81,5131.69 L 7035.05,4830.46 Z " />
<path stroke="none" fill="#0000ff" transform="matrix(0.05 0 0 0.05 -14 -40)" d="M 7554.81,5131.69 L 7554.83,5094.69 L 7944.69,4868.88 L 7960.69,4896.59 L 7554.81,5131.69 Z " />
<text x="0" y="0" stroke="none" fill="#0000ff" transform="matrix(0.05 0 0 0.05 281.383 271.817)" font-style="normal" font-weight="normal" font-size="280px" font-family="Chalkboard" >
(+ </text>
<text x="0" y="0" stroke="none" fill="#0000ff" transform="matrix(0.05 0 0 0.05 298.694 271.817)" font-style="normal" font-weight="normal" font-size="280px" font-family="Chalkboard" >
&amp; </text>
<text x="0" y="0" stroke="none" fill="#0000ff" transform="matrix(0.05 0 0 0.05 313.962 271.817)" font-style="normal" font-weight="normal" font-size="280px" font-family="Chalkboard" >
-) </text>
<text x="0" y="0" stroke="none" fill="#0000ff" transform="matrix(0.05 0 0 0.05 329.215 271.817)" font-style="normal" font-weight="normal" font-size="280px" font-family="Chalkboard" >
Threose</text>
<text x="0" y="0" stroke="none" fill="#0000ff" transform="matrix(0.05 0 0 0.05 1.52 154)" font-style="normal" font-weight="normal" font-size="280px" font-family="Chalkboard" >
C</text>
<text x="0" y="0" stroke="none" fill="#0000ff" transform="matrix(0.05 0 0 0.05 9.73436 157.96)" font-style="normal" font-weight="normal" font-size="210px" font-family="Chalkboard" >
4</text>
<text x="0" y="0" stroke="none" fill="#0000ff" transform="matrix(0.05 0 0 0.05 15.7095 154)" font-style="normal" font-weight="normal" font-size="280px" font-family="Chalkboard" >
(H</text>
<text x="0" y="0" stroke="none" fill="#0000ff" transform="matrix(0.05 0 0 0.05 28.8277 157.96)" font-style="normal" font-weight="normal" font-size="210px" font-family="Chalkboard" >
2</text>
<text x="0" y="0" stroke="none" fill="#0000ff" transform="matrix(0.05 0 0 0.05 34.8029 154)" font-style="normal" font-weight="normal" font-size="280px" font-family="Chalkboard" >
O)</text>
<text x="0" y="0" stroke="none" fill="#0000ff" transform="matrix(0.05 0 0 0.05 48.4161 157.96)" font-style="normal" font-weight="normal" font-size="210px" font-family="Chalkboard" >
4</text>
<text x="0" y="0" stroke="none" fill="#0000ff" transform="matrix(0.05 0 0 0.05 54.3913 154)" font-style="normal" font-weight="normal" font-size="280px" font-family="Chalkboard" >
:</text>
<text x="0" y="0" stroke="none" fill="#0000ff" transform="matrix(0.05 0 0 0.05 644.928 187.127)" font-style="normal" font-weight="normal" font-size="280px" font-family="Chalkboard" >
O</text>
<text x="0" y="0" stroke="none" fill="#0000ff" transform="matrix(0.05 0 0 0.05 722.868 232.127)" font-style="normal" font-weight="normal" font-size="280px" font-family="Chalkboard" >
OH</text>
<text x="0" y="0" stroke="none" fill="#0000ff" transform="matrix(0.05 0 0 0.05 774.838 202.127)" font-style="normal" font-weight="normal" font-size="280px" font-family="Chalkboard" >
OH</text>
<path stroke="none" fill="#0000ff" transform="matrix(0.05 0 0 0.05 -14 -40)" d="M 13403.6,4483.78 L 13419.6,4456.06 L 13852.8,4706.16 L 13836.8,4733.88 L 13403.6,4483.78 Z " />
<path stroke="none" fill="#0000ff" transform="matrix(0.05 0 0 0.05 -14 -40)" d="M 13358.6,4561.72 L 13374.6,4534 L 13807.8,4784.1 L 13791.8,4811.82 L 13358.6,4561.72 Z " />
<path stroke="none" fill="#0000ff" transform="matrix(0.05 0 0 0.05 -14 -40)" d="M 14823,4800.11 L 14855,4800.11 L 14858.4,4832.11 L 14819.6,4832.11 L 14823,4800.11 Z " />
<path stroke="none" fill="#0000ff" transform="matrix(0.05 0 0 0.05 -14 -40)" d="M 14816.2,4863.08 L 14861.8,4863.08 L 14865.2,4895.08 L 14812.8,4895.08 L 14816.2,4863.08 Z " />
<path stroke="none" fill="#0000ff" transform="matrix(0.05 0 0 0.05 -14 -40)" d="M 14809.5,4926.05 L 14868.5,4926.05 L 14872,4958.05 L 14806,4958.05 L 14809.5,4926.05 Z " />
<path stroke="none" fill="#0000ff" transform="matrix(0.05 0 0 0.05 -14 -40)" d="M 14802.7,4989.02 L 14875.3,4989.02 L 14878.7,5021.02 L 14799.3,5021.02 L 14802.7,4989.02 Z " />
<path stroke="none" fill="#0000ff" transform="matrix(0.05 0 0 0.05 -14 -40)" d="M 14796,5051.99 L 14882,5051.99 L 14885.5,5083.99 L 14792.5,5083.99 L 14796,5051.99 Z " />
<path stroke="none" fill="#0000ff" transform="matrix(0.05 0 0 0.05 -14 -40)" d="M 14789.2,5114.96 L 14888.8,5114.96 L 14892.2,5146.96 L 14785.8,5146.96 L 14789.2,5114.96 Z " />
<path stroke="none" fill="#0000ff" transform="matrix(0.05 0 0 0.05 -14 -40)" d="M 14782.4,5177.93 L 14895.6,5177.93 L 14899,5209.93 L 14779,5209.93 L 14782.4,5177.93 Z " />
<path stroke="none" fill="#0000ff" transform="matrix(0.05 0 0 0.05 -14 -40)" d="M 14839,4765.06 L 14839,4728.08 L 15358.9,4426.86 L 15358.9,4463.85 L 14839,4765.06 Z " />
<path stroke="none" fill="#0000ff" transform="matrix(0.05 0 0 0.05 -14 -40)" d="M 15358.9,4463.85 L 15358.9,4426.86 L 15776.8,4668.89 L 15760.8,4696.6 L 15358.9,4463.85 Z " />
<path stroke="none" fill="#0000ff" transform="matrix(0.05 0 0 0.05 -14 -40)" d="M 14839,4728.08 L 14839,4765.06 L 14319.4,4463.92 L 14319.4,4426.94 L 14839,4728.08 Z " />
<path stroke="none" fill="#0000ff" transform="matrix(0.05 0 0 0.05 -14 -40)" d="M 13815.2,4755.06 L 13783.1,4736.54 L 14319.4,4426.94 L 14319.4,4463.92 L 13815.2,4755.06 Z " />
<text x="0" y="0" stroke="none" fill="#0000ff" transform="matrix(0.05 0 0 0.05 670.908 232.127)" font-style="normal" font-weight="normal" font-size="280px" font-family="Chalkboard" >
OH</text>
<path stroke="none" fill="#0000ff" transform="matrix(0.05 0 0 0.05 -14 -40)" d="M 13783.1,4736.54 L 13815.2,4755.06 L 13815.8,5209.93 L 13783.8,5209.93 L 13783.1,4736.54 Z " />
<text x="0" y="0" stroke="none" fill="#0000ff" transform="matrix(0.05 0 0 0.05 687.608 269.98)" font-style="normal" font-weight="normal" font-size="280px" font-family="Chalkboard" >
not </text>
<text x="0" y="0" stroke="none" fill="#0000ff" transform="matrix(0.05 0 0 0.05 713.148 269.98)" font-style="normal" font-weight="normal" font-size="280px" font-family="Chalkboard" >
carb</text>
<text x="0" y="0" stroke="none" fill="#0000ff" transform="matrix(0.05 0 0 0.05 832.293 194.878)" font-style="normal" font-weight="normal" font-size="280px" font-family="Chalkboard" >
O</text>
<text x="0" y="0" stroke="none" fill="#0000ff" transform="matrix(0.05 0 0 0.05 909.108 241.826)" font-style="normal" font-weight="normal" font-size="280px" font-family="Chalkboard" >
O</text>
<text x="0" y="0" stroke="none" fill="#0000ff" transform="matrix(0.05 0 0 0.05 961.078 211.826)" font-style="normal" font-weight="normal" font-size="280px" font-family="Chalkboard" >
OH</text>
<path stroke="none" fill="#0000ff" transform="matrix(0.05 0 0 0.05 -14 -40)" d="M 17105.9,4716.74 L 17121.9,4689.03 L 17524.5,4922.15 L 17524.5,4959.14 L 17105.9,4716.74 Z " />
<path stroke="none" fill="#0000ff" transform="matrix(0.05 0 0 0.05 -14 -40)" d="M 17150.9,4638.8 L 17166.9,4611.09 L 17532.6,4822.22 L 17516.6,4849.93 L 17150.9,4638.8 Z " />
<path stroke="none" fill="#0000ff" transform="matrix(0.05 0 0 0.05 -14 -40)" d="M 18592.8,4914.03 L 18624.8,4914.03 L 18624.8,5403.93 L 18592.8,5403.93 L 18592.8,4914.03 Z " />
<path stroke="none" fill="#0000ff" transform="matrix(0.05 0 0 0.05 -14 -40)" d="M 18502.8,4914.02 L 18534.8,4914.02 L 18534.8,5403.93 L 18502.8,5403.93 L 18502.8,4914.02 Z " />
<path stroke="none" fill="#0000ff" transform="matrix(0.05 0 0 0.05 -14 -40)" d="M 18563.8,4959.06 L 18563.8,4922.08 L 19083.7,4620.86 L 19083.7,4657.85 L 18563.8,4959.06 Z " />
<path stroke="none" fill="#0000ff" transform="matrix(0.05 0 0 0.05 -14 -40)" d="M 19083.7,4657.85 L 19083.7,4620.86 L 19501.6,4862.89 L 19485.6,4890.6 L 19083.7,4657.85 Z " />
<path stroke="none" fill="#0000ff" transform="matrix(0.05 0 0 0.05 -14 -40)" d="M 18563.8,4922.08 L 18563.8,4959.06 L 18044.2,4657.92 L 18044.2,4640 L 18059.6,4630.94 L 18563.8,4922.08 Z " />
<path stroke="none" fill="#0000ff" transform="matrix(0.05 0 0 0.05 -14 -40)" d="M 17524.5,4959.14 L 17524.5,4922.15 L 18028.8,4630.94 L 18044.2,4640 L 18044.2,4657.92 L 17524.5,4959.14 Z " />
<text x="0" y="0" stroke="none" fill="#0000ff" transform="matrix(0.05 0 0 0.05 873.848 267.07)" font-style="normal" font-weight="normal" font-size="280px" font-family="Chalkboard" >
not </text>
<text x="0" y="0" stroke="none" fill="#0000ff" transform="matrix(0.05 0 0 0.05 899.388 267.07)" font-style="normal" font-weight="normal" font-size="280px" font-family="Chalkboard" >
carb</text>
<text x="0" y="0" stroke="none" fill="#0000ff" transform="matrix(0.05 0 0 0.05 883.128 166.826)" font-style="normal" font-weight="normal" font-size="280px" font-family="Chalkboard" >
OH</text>
<path stroke="none" fill="#0000ff" transform="matrix(0.05 0 0 0.05 -14 -40)" d="M 18059.6,4630.94 L 18044.2,4640 L 18028.8,4630.94 L 18028.2,4183.93 L 18060.2,4183.93 L 18059.6,4630.94 Z " />
<text x="0" y="0" stroke="none" fill="#0000ff" transform="matrix(0.05 0 0 0.05 246.279 75.5765)" font-style="normal" font-weight="normal" font-size="280px" font-family="Chalkboard" >
HO</text>
<text x="0" y="0" stroke="none" fill="#0000ff" transform="matrix(0.05 0 0 0.05 358.918 75.5765)" font-style="normal" font-weight="normal" font-size="280px" font-family="Chalkboard" >
OH</text>
<text x="0" y="0" stroke="none" fill="#0000ff" transform="matrix(0.05 0 0 0.05 306.948 45.5765)" font-style="normal" font-weight="normal" font-size="280px" font-family="Chalkboard" >
O</text>
<path stroke="none" fill="#0000ff" transform="matrix(0.05 0 0 0.05 -14 -40)" d="M 5581.9,2291.5 L 5597.9,2263.79 L 6000.86,2497.15 L 6000.88,2534.14 L 5581.9,2291.5 Z " />
<path stroke="none" fill="#0000ff" transform="matrix(0.05 0 0 0.05 -14 -40)" d="M 7040.34,2534.15 L 7040.36,2497.16 L 7430.4,2271.32 L 7446.4,2299.04 L 7040.34,2534.15 Z " />
<path stroke="none" fill="#0000ff" transform="matrix(0.05 0 0 0.05 -14 -40)" d="M 6491.6,2240.98 L 6459.6,2240.98 L 6459.6,1758.93 L 6491.6,1758.93 L 6491.6,2240.98 Z " />
<path stroke="none" fill="#0000ff" transform="matrix(0.05 0 0 0.05 -14 -40)" d="M 6581.6,2240.98 L 6549.6,2240.98 L 6549.6,1758.93 L 6581.6,1758.93 L 6581.6,2240.98 Z " />
<path stroke="none" fill="#0000ff" transform="matrix(0.05 0 0 0.05 -14 -40)" d="M 7040.36,2497.16 L 7040.34,2534.15 L 6520.6,2232.92 L 6520.6,2195.94 L 7040.36,2497.16 Z " />
<path stroke="none" fill="#0000ff" transform="matrix(0.05 0 0 0.05 -14 -40)" d="M 6000.88,2534.14 L 6000.86,2497.15 L 6520.6,2195.94 L 6520.6,2232.92 L 6000.88,2534.14 Z " />
<text x="0" y="0" stroke="none" fill="#0000ff" transform="matrix(0.05 0 0 0.05 256.052 109.946)" font-style="normal" font-weight="normal" font-size="280px" font-family="Chalkboard" >
dihydroxyacetone</text>
<text x="0" y="0" stroke="none" fill="#0000ff" transform="matrix(0.05 0 0 0.05 62.8235 63.3217)" font-style="normal" font-weight="normal" font-size="280px" font-family="Chalkboard" >
O</text>
<text x="0" y="0" stroke="none" fill="#0000ff" transform="matrix(0.05 0 0 0.05 113.66 91.3731)" font-style="normal" font-weight="normal" font-size="280px" font-family="Chalkboard" >
OH</text>
<text x="0" y="0" stroke="none" fill="#0000ff" transform="matrix(0.05 0 0 0.05 165.622 61.3731)" font-style="normal" font-weight="normal" font-size="280px" font-family="Chalkboard" >
OH</text>
<path stroke="none" fill="#0000ff" transform="matrix(0.05 0 0 0.05 -14 -40)" d="M 1739.42,1877.92 L 1723.42,1850.21 L 2135.09,1611.78 L 2135.07,1648.78 L 1739.42,1877.92 Z " />
<path stroke="none" fill="#0000ff" transform="matrix(0.05 0 0 0.05 -14 -40)" d="M 1784.42,1955.86 L 1768.42,1928.15 L 2127.22,1721 L 2143.22,1748.71 L 1784.42,1955.86 Z " />
<path stroke="none" fill="#0000ff" transform="matrix(0.05 0 0 0.05 -14 -40)" d="M 2135.07,1648.78 L 2135.09,1611.78 L 2654.84,1913.01 L 2654.84,1930.93 L 2640.42,1940.62 L 2135.07,1648.78 Z " />
<path stroke="none" fill="#0000ff" transform="matrix(0.05 0 0 0.05 -14 -40)" d="M 2640.42,1940.62 L 2654.84,1930.93 L 2669.25,1940.62 L 2714.84,2394.87 L 2594.84,2394.87 L 2640.42,1940.62 Z " />
<path stroke="none" fill="#0000ff" transform="matrix(0.05 0 0 0.05 -14 -40)" d="M 2669.25,1940.62 L 2654.84,1930.93 L 2654.84,1913.01 L 3174.57,1611.79 L 3174.59,1648.78 L 2669.25,1940.62 Z " />
<path stroke="none" fill="#0000ff" transform="matrix(0.05 0 0 0.05 -14 -40)" d="M 3174.59,1648.78 L 3174.57,1611.79 L 3592.51,1853.82 L 3576.51,1881.54 L 3174.59,1648.78 Z " />
<text x="0" y="0" stroke="none" fill="#0000ff" transform="matrix(0.05 0 0 0.05 52.8823 112.737)" font-style="normal" font-weight="normal" font-size="280px" font-family="Chalkboard" >
(+ </text>
<text x="0" y="0" stroke="none" fill="#0000ff" transform="matrix(0.05 0 0 0.05 70.1928 112.737)" font-style="normal" font-weight="normal" font-size="280px" font-family="Chalkboard" >
&amp; </text>
<text x="0" y="0" stroke="none" fill="#0000ff" transform="matrix(0.05 0 0 0.05 85.4613 112.737)" font-style="normal" font-weight="normal" font-size="280px" font-family="Chalkboard" >
-) </text>
<text x="0" y="0" stroke="none" fill="#0000ff" transform="matrix(0.05 0 0 0.05 101.89 112.737)" font-style="normal" font-weight="normal" font-size="280px" font-family="Chalkboard" >
Glyceraldehyde</text>
<text x="0" y="0" stroke="none" fill="#0000ff" transform="matrix(0.05 0 0 0.05 2.48999 13.35)" font-style="normal" font-weight="normal" font-size="280px" font-family="Chalkboard" >
C</text>
<text x="0" y="0" stroke="none" fill="#0000ff" transform="matrix(0.05 0 0 0.05 10.7044 17.3101)" font-style="normal" font-weight="normal" font-size="210px" font-family="Chalkboard" >
3</text>
<text x="0" y="0" stroke="none" fill="#0000ff" transform="matrix(0.05 0 0 0.05 16.6795 13.35)" font-style="normal" font-weight="normal" font-size="280px" font-family="Chalkboard" >
(H</text>
<text x="0" y="0" stroke="none" fill="#0000ff" transform="matrix(0.05 0 0 0.05 29.7977 17.3101)" font-style="normal" font-weight="normal" font-size="210px" font-family="Chalkboard" >
2</text>
<text x="0" y="0" stroke="none" fill="#0000ff" transform="matrix(0.05 0 0 0.05 35.7729 13.35)" font-style="normal" font-weight="normal" font-size="280px" font-family="Chalkboard" >
O)</text>
<text x="0" y="0" stroke="none" fill="#0000ff" transform="matrix(0.05 0 0 0.05 49.3861 17.3101)" font-style="normal" font-weight="normal" font-size="210px" font-family="Chalkboard" >
3</text>
<text x="0" y="0" stroke="none" fill="#0000ff" transform="matrix(0.05 0 0 0.05 55.3613 13.35)" font-style="normal" font-weight="normal" font-size="280px" font-family="Chalkboard" >
:</text>
<text x="0" y="0" stroke="none" fill="#0000ff" transform="matrix(0.05 0 0 0.05 424.738 48.4165)" font-style="normal" font-weight="normal" font-size="280px" font-family="Chalkboard" >
O</text>
<text x="0" y="0" stroke="none" fill="#0000ff" transform="matrix(0.05 0 0 0.05 528.668 48.4165)" font-style="normal" font-weight="normal" font-size="280px" font-family="Chalkboard" >
OH</text>
<path stroke="none" fill="#0000ff" transform="matrix(0.05 0 0 0.05 -14 -40)" d="M 8999.82,1709.57 L 9015.82,1681.86 L 9449,1931.96 L 9433,1959.68 L 8999.82,1709.57 Z " />
<path stroke="none" fill="#0000ff" transform="matrix(0.05 0 0 0.05 -14 -40)" d="M 8954.82,1787.51 L 8970.82,1759.8 L 9404,2009.9 L 9388,2037.62 L 8954.82,1787.51 Z " />
<path stroke="none" fill="#0000ff" transform="matrix(0.05 0 0 0.05 -14 -40)" d="M 10435.3,1990.95 L 10435.4,1953.96 L 10825.4,1728.12 L 10841.4,1755.84 L 10435.3,1990.95 Z " />
<path stroke="none" fill="#0000ff" transform="matrix(0.05 0 0 0.05 -14 -40)" d="M 10435.4,1953.96 L 10435.3,1990.95 L 9915.6,1689.72 L 9915.6,1652.74 L 10435.4,1953.96 Z " />
<path stroke="none" fill="#0000ff" transform="matrix(0.05 0 0 0.05 -14 -40)" d="M 9411.37,1980.86 L 9379.35,1962.34 L 9915.6,1652.74 L 9915.6,1689.72 L 9411.37,1980.86 Z " />
<text x="0" y="0" stroke="none" fill="#0000ff" transform="matrix(0.05 0 0 0.05 450.718 93.4165)" font-style="normal" font-weight="normal" font-size="280px" font-family="Chalkboard" >
OH</text>
<path stroke="none" fill="#0000ff" transform="matrix(0.05 0 0 0.05 -14 -40)" d="M 9379.35,1962.34 L 9411.37,1980.86 L 9412,2435.73 L 9380,2435.73 L 9379.35,1962.34 Z " />
<text x="0" y="0" stroke="none" fill="#0000ff" transform="matrix(0.05 0 0 0.05 457.718 113.81)" font-style="normal" font-weight="normal" font-size="280px" font-family="Chalkboard" >
not </text>
<text x="0" y="0" stroke="none" fill="#0000ff" transform="matrix(0.05 0 0 0.05 483.258 113.81)" font-style="normal" font-weight="normal" font-size="280px" font-family="Chalkboard" >
carb</text>
<text x="0" y="0" stroke="none" fill="#0000ff" transform="matrix(0.05 0 0 0.05 941.45 267.49)" font-style="normal" font-weight="normal" font-size="280px" font-family="Chalkboard" >
C</text>
<text x="0" y="0" stroke="none" fill="#0000ff" transform="matrix(0.05 0 0 0.05 949.664 271.45)" font-style="normal" font-weight="normal" font-size="210px" font-family="Chalkboard" >
4</text>
<text x="0" y="0" stroke="none" fill="#0000ff" transform="matrix(0.05 0 0 0.05 955.639 267.49)" font-style="normal" font-weight="normal" font-size="280px" font-family="Chalkboard" >
(H</text>
<text x="0" y="0" stroke="none" fill="#0000ff" transform="matrix(0.05 0 0 0.05 968.758 271.45)" font-style="normal" font-weight="normal" font-size="210px" font-family="Chalkboard" >
2</text>
<text x="0" y="0" stroke="none" fill="#0000ff" transform="matrix(0.05 0 0 0.05 974.733 267.49)" font-style="normal" font-weight="normal" font-size="280px" font-family="Chalkboard" >
O)</text>
<text x="0" y="0" stroke="none" fill="#0000ff" transform="matrix(0.05 0 0 0.05 988.346 271.45)" font-style="normal" font-weight="normal" font-size="210px" font-family="Chalkboard" >
3</text>
<text x="0" y="0" stroke="none" fill="#0000ff" transform="matrix(0.05 0 0 0.05 994.321 267.49)" font-style="normal" font-weight="normal" font-size="280px" font-family="Chalkboard" >
O</text>
</svg>
