<?xml version="1.0" standalone="no" ?>
<!DOCTYPE svg PUBLIC "-//W3C//DTD SVG 1.1//EN" "http://www.w3.org/Graphics/SVG/1.1/DTD/svg11.dtd">
<svg width="470px" height="181px" viewBox="0 0 470 181" style="background-color: #ffffff00" xmlns="http://www.w3.org/2000/svg" xmlns:xlink="http://www.w3.org/1999/xlink" version="1.1" >
<path stroke="#0000ff" stroke-width="26" fill="none" transform="matrix(0.05 0 0 0.05 -127 -199)" d="M 6901.8,6564.6 A 92.7999,92.7999 0 1 0 7087.4,6564.6A 92.7999,92.7999 0 1 0 6901.8,6564.6Z " />
<path stroke="none" fill="#0000ff" transform="matrix(0.05 0 0 0.05 -127 -199)" d="M 6938.6,6551.6 L 7050.6,6551.6 L 7050.6,6577.6 L 6938.6,6577.6 Z " />
<path stroke="none" fill="#0000ff" transform="matrix(0.05 0 0 0.05 -127 -199)" d="M 7007.6,6508.6 L 7007.6,6620.6 L 6981.6,6620.6 L 6981.6,6508.6 Z " />
<path stroke="none" fill="#0000ff" transform="matrix(0.05 0 0 0.05 -127 -199)" d="M 2607.4,5931.06 L 2591.4,5903.34 L 3119.2,5598.14 L 3119.2,5635.12 L 2607.4,5931.06 Z " />
<path stroke="none" fill="#0000ff" transform="matrix(0.05 0 0 0.05 -127 -199)" d="M 3119.2,5635.12 L 3119.2,5598.14 L 3646.8,5903.34 L 3630.8,5931.06 L 3119.2,5635.12 Z " />
<path stroke="none" fill="#0000ff" transform="matrix(0.05 0 0 0.05 -127 -199)" d="M 3111.19,5734.97 L 3127.19,5707.26 L 3601.8,5981.28 L 3585.8,6009 L 3111.19,5734.97 Z " />
<path stroke="none" fill="#0000ff" transform="matrix(0.05 0 0 0.05 -127 -199)" d="M 5676,5841 L 4575,5841 L 4575,5809 L 5676,5809 Z " />
<path stroke="none" fill="#0000ff" transform="matrix(0.05 0 0 0.05 -127 -199)" d="M 5955,5825 C 5955,5825 5635,5906 5635,5906 C 5635,5906 5675,5860.44 5675,5825 C 5675,5789.13 5635,5743 5635,5743 C 5635,5743 5955,5825 5955,5825 C 5955,5825 5955,5825 5955,5825 " />
<path stroke="#0000ff" stroke-width="1" fill="none" transform="matrix(0.05 0 0 0.05 -127 -199)" d="M 5955,5825 C 5955,5825 5635,5906 5635,5906 C 5635,5906 5675,5860.44 5675,5825 C 5675,5789.13 5635,5743 5635,5743 C 5635,5743 5955,5825 5955,5825 C 5955,5825 5955,5825 5955,5825 " />
<text x="0" y="0" stroke="none" fill="#0000ff" transform="matrix(0.05 0 0 0.05 107.699 78.9978)" font-style="normal" font-weight="normal" font-size="240px" font-family="Arial" >
Eu</text>
<text x="0" y="0" stroke="none" fill="#0000ff" transform="matrix(0.05 0 0 0.05 144.707 78.9978)" font-style="normal" font-weight="normal" font-size="240px" font-family="Arial" >
Nu</text>
<path stroke="none" fill="#0000ff" transform="matrix(0.05 0 0 0.05 -127 -199)" d="M 5010.97,5490 L 5010.97,5458 L 5411.42,5458 L 5411.42,5490 L 5010.97,5490 Z " />
<path stroke="none" fill="#0000ff" transform="matrix(0.05 0 0 0.05 -127 -199)" d="M 7513.7,7013.4 L 7514.17,6976.66 L 7914.11,6757.73 L 7929.44,6785.82 L 7513.7,7013.4 Z " />
<text x="0" y="0" stroke="none" fill="#0000ff" transform="matrix(0.05 0 0 0.05 271.022 140.648)" font-style="normal" font-weight="normal" font-size="240px" font-family="Arial" >
Eu</text>
<path stroke="none" fill="#0000ff" transform="matrix(0.05 0 0 0.05 -127 -199)" d="M 6994.2,6712.32 L 6994.2,6675.34 L 7514.17,6976.66 L 7513.7,7013.4 L 6994.2,6712.32 Z " />
<path stroke="none" fill="#0000ff" transform="matrix(0.05 0 0 0.05 -127 -199)" d="M 6482.4,7008.26 L 6466.4,6980.54 L 6994.2,6675.34 L 6994.2,6712.32 L 6482.4,7008.26 Z " />
<path stroke="#00ff00" stroke-width="32" fill="none" transform="matrix(0.05 0 0 0.05 -127 -199)" d="M 4436.51,5346.8 C 4035.3,5231.71 3573.17,5418.37 3364.44,5779.83 " />
<path stroke="none" fill="#00ff00" transform="matrix(0.05 0 0 0.05 -127 -199)" d="M 4647.17,5436.24 C 4647.17,5436.24 4379.85,5395.21 4379.85,5395.21 C 4379.85,5395.21 4424.63,5374.15 4436.51,5346.8 C 4448.38,5319.45 4432.97,5272.83 4432.97,5272.83 C 4432.97,5272.83 4647.17,5436.24 4647.17,5436.24 C 4647.17,5436.24 4647.17,5436.24 4647.17,5436.24 " />
<path stroke="#00ff00" stroke-width="1" fill="none" transform="matrix(0.05 0 0 0.05 -127 -199)" d="M 4647.17,5436.24 C 4647.17,5436.24 4379.85,5395.21 4379.85,5395.21 C 4379.85,5395.21 4424.63,5374.15 4436.51,5346.8 C 4448.38,5319.45 4432.97,5272.83 4432.97,5272.83 C 4432.97,5272.83 4647.17,5436.24 4647.17,5436.24 C 4647.17,5436.24 4647.17,5436.24 4647.17,5436.24 " />
<path stroke="#00ff00" stroke-width="32" fill="none" transform="matrix(0.05 0 0 0.05 -127 -199)" d="M 5476.35,5056.54 C 5395,4931.36 5227.3,4895.73 5102.03,4977.02 C 4976.76,5058.3 4941.11,5225.89 5022.45,5351.06 C 5058.48,5406.5 5115.45,5447.87 5179.35,5464.98 " />
<path stroke="none" fill="#00ff00" transform="matrix(0.05 0 0 0.05 -127 -199)" d="M 5510.78,5273.79 C 5510.78,5273.79 5408.36,5036.34 5408.36,5036.34 C 5408.36,5036.34 5449.25,5061.19 5476.35,5056.54 C 5503.45,5051.88 5534.5,5014.66 5534.5,5014.66 C 5534.5,5014.66 5510.78,5273.79 5510.78,5273.79 C 5510.78,5273.79 5510.78,5273.79 5510.78,5273.79 " />
<path stroke="#00ff00" stroke-width="1" fill="none" transform="matrix(0.05 0 0 0.05 -127 -199)" d="M 5510.78,5273.79 C 5510.78,5273.79 5408.36,5036.34 5408.36,5036.34 C 5408.36,5036.34 5449.25,5061.19 5476.35,5056.54 C 5503.45,5051.88 5534.5,5014.66 5534.5,5014.66 C 5534.5,5014.66 5510.78,5273.79 5510.78,5273.79 C 5510.78,5273.79 5510.78,5273.79 5510.78,5273.79 " />
<path stroke="none" fill="#0000ff" transform="matrix(0.05 0 0 0.05 -127 -199)" d="M 9344.08,6886 L 8755,6886 L 8755,6854 L 9344.08,6854 Z " />
<path stroke="none" fill="#0000ff" transform="matrix(0.05 0 0 0.05 -127 -199)" d="M 9505,6870 C 9505,6870 9320.04,6935 9320.04,6935 C 9320.04,6935 9343.08,6898.45 9343.08,6870 C 9343.08,6841.11 9320.04,6804 9320.04,6804 C 9320.04,6804 9505,6870 9505,6870 C 9505,6870 9505,6870 9505,6870 " />
<path stroke="#0000ff" stroke-width="1" fill="none" transform="matrix(0.05 0 0 0.05 -127 -199)" d="M 9505,6870 C 9505,6870 9320.04,6935 9320.04,6935 C 9320.04,6935 9343.08,6898.45 9343.08,6870 C 9343.08,6841.11 9320.04,6804 9320.04,6804 C 9320.04,6804 9505,6870 9505,6870 C 9505,6870 9505,6870 9505,6870 " />
<text x="0" y="0" stroke="none" fill="#0000ff" transform="matrix(0.05 0 0 0.05 319.75 135.5)" font-style="normal" font-weight="normal" font-size="240px" font-family="Times New Roman" >
Nu</text>
<text x="0" y="0" stroke="none" fill="#0000ff" transform="matrix(0.05 0 0 0.05 334.416 131.527)" font-style="normal" font-weight="normal" font-size="180px" font-family="Times New Roman" >
-</text>
<path stroke="none" fill="#0000ff" transform="matrix(0.05 0 0 0.05 -127 -199)" d="M 8870.04,6607.4 A 19.9556,19.9556 0 1 0 8909.96,6607.4A 19.9556,19.9556 0 1 0 8870.04,6607.4Z " />
<path stroke="none" fill="#0000ff" transform="matrix(0.05 0 0 0.05 -127 -199)" d="M 8869.84,6517.6 A 19.9556,19.9556 0 1 0 8909.76,6517.6A 19.9556,19.9556 0 1 0 8869.84,6517.6Z " />
<path stroke="#00ff00" stroke-width="32" fill="none" transform="matrix(0.05 0 0 0.05 -127 -199)" d="M 8812.37,6539.89 C 8502.87,6121.18 7845.09,5991.31 7344.2,6250.02 C 7320.54,6262.24 7297.46,6275.23 7275.02,6288.95 " />
<path stroke="none" fill="#00ff00" transform="matrix(0.05 0 0 0.05 -127 -199)" d="M 7098.49,6424.89 C 7098.49,6424.89 7260.4,6218.1 7260.4,6218.1 C 7260.4,6218.1 7257.68,6266.57 7275.02,6288.95 C 7292.36,6311.34 7340.08,6320.97 7340.08,6320.97 C 7340.08,6320.97 7098.49,6424.89 7098.49,6424.89 C 7098.49,6424.89 7098.49,6424.89 7098.49,6424.89 " />
<path stroke="#00ff00" stroke-width="1" fill="none" transform="matrix(0.05 0 0 0.05 -127 -199)" d="M 7098.49,6424.89 C 7098.49,6424.89 7260.4,6218.1 7260.4,6218.1 C 7260.4,6218.1 7257.68,6266.57 7275.02,6288.95 C 7292.36,6311.34 7340.08,6320.97 7340.08,6320.97 C 7340.08,6320.97 7098.49,6424.89 7098.49,6424.89 C 7098.49,6424.89 7098.49,6424.89 7098.49,6424.89 " />
<path stroke="none" fill="#0000ff" transform="matrix(0.05 0 0 0.05 -127 -199)" d="M 11173.7,7013.41 L 11174.1,6976.65 L 11574.3,6756.48 L 11589.7,6784.53 L 11173.7,7013.41 Z " />
<text x="0" y="0" stroke="none" fill="#0000ff" transform="matrix(0.05 0 0 0.05 453.992 140.598)" font-style="normal" font-weight="normal" font-size="240px" font-family="Helvetica" >
Eu</text>
<path stroke="none" fill="#0000ff" transform="matrix(0.05 0 0 0.05 -127 -199)" d="M 10654.2,6712.32 L 10654.2,6694.4 L 10669.6,6685.35 L 11174.1,6976.65 L 11173.7,7013.41 L 10654.2,6712.32 Z " />
<path stroke="none" fill="#0000ff" transform="matrix(0.05 0 0 0.05 -127 -199)" d="M 10142.4,7008.26 L 10126.4,6980.54 L 10638.8,6685.35 L 10654.2,6694.4 L 10654.2,6712.32 L 10142.4,7008.26 Z " />
<text x="0" y="0" stroke="none" fill="#0000ff" transform="matrix(0.05 0 0 0.05 401.377 110.024)" font-style="normal" font-weight="normal" font-size="240px" font-family="Helvetica" >
Nu</text>
<path stroke="none" fill="#0000ff" transform="matrix(0.05 0 0 0.05 -127 -199)" d="M 10669.6,6685.35 L 10654.2,6694.4 L 10638.8,6685.35 L 10638.2,6219.33 L 10670.2,6219.33 L 10669.6,6685.35 Z " />
<path stroke="none" fill="#0000ff" transform="matrix(0.05 0 0 0.05 -127 -199)" d="M 6983.02,4731.45 L 6983.03,4713.53 L 6998.42,4704.48 L 7510.64,4999.68 L 7494.64,5027.39 L 6983.02,4731.45 Z " />
<path stroke="none" fill="#0000ff" transform="matrix(0.05 0 0 0.05 -127 -199)" d="M 6471.21,5027.39 L 6455.22,4999.68 L 6967.64,4704.48 L 6983.03,4713.53 L 6983.02,4731.45 L 6471.21,5027.39 Z " />
<path stroke="none" fill="#0000ff" transform="matrix(0.05 0 0 0.05 -127 -199)" d="M 9332.96,4905.13 L 8743.86,4905.13 L 8743.86,4873.13 L 9332.96,4873.13 Z " />
<path stroke="none" fill="#0000ff" transform="matrix(0.05 0 0 0.05 -127 -199)" d="M 9493.88,4889.13 C 9493.88,4889.13 9308.92,4954.13 9308.92,4954.13 C 9308.92,4954.13 9331.96,4917.58 9331.96,4889.13 C 9331.96,4860.24 9308.92,4823.13 9308.92,4823.13 C 9308.92,4823.13 9493.88,4889.13 9493.88,4889.13 C 9493.88,4889.13 9493.88,4889.13 9493.88,4889.13 " />
<path stroke="#0000ff" stroke-width="1" fill="none" transform="matrix(0.05 0 0 0.05 -127 -199)" d="M 9493.88,4889.13 C 9493.88,4889.13 9308.92,4954.13 9308.92,4954.13 C 9308.92,4954.13 9331.96,4917.58 9331.96,4889.13 C 9331.96,4860.24 9308.92,4823.13 9308.92,4823.13 C 9308.92,4823.13 9493.88,4889.13 9493.88,4889.13 C 9493.88,4889.13 9493.88,4889.13 9493.88,4889.13 " />
<text x="0" y="0" stroke="none" fill="#0000ff" transform="matrix(0.05 0 0 0.05 319.193 36.4565)" font-style="normal" font-weight="normal" font-size="240px" font-family="Times New Roman" >
Nu</text>
<text x="0" y="0" stroke="none" fill="#0000ff" transform="matrix(0.05 0 0 0.05 333.859 32.4838)" font-style="normal" font-weight="normal" font-size="180px" font-family="Times New Roman" >
-</text>
<path stroke="none" fill="#0000ff" transform="matrix(0.05 0 0 0.05 -127 -199)" d="M 8858.91,4626.53 A 19.9561,19.9561 0 1 0 8898.82,4626.53A 19.9561,19.9561 0 1 0 8858.91,4626.53Z " />
<path stroke="none" fill="#0000ff" transform="matrix(0.05 0 0 0.05 -127 -199)" d="M 8858.71,4536.73 A 19.9561,19.9561 0 1 0 8898.62,4536.73A 19.9561,19.9561 0 1 0 8858.71,4536.73Z " />
<path stroke="#00ff00" stroke-width="32" fill="none" transform="matrix(0.05 0 0 0.05 -127 -199)" d="M 8782.56,4586.32 C 8314.75,4273.34 7810.08,4245.45 7655.95,4524.08 " />
<path stroke="none" fill="#00ff00" transform="matrix(0.05 0 0 0.05 -127 -199)" d="M 7602.84,4746.02 C 7602.84,4746.02 7599.12,4476.2 7599.12,4476.2 C 7599.12,4476.2 7627.24,4516.87 7655.95,4524.08 C 7684.66,4531.29 7727.95,4508.55 7727.95,4508.55 C 7727.95,4508.55 7602.84,4746.02 7602.84,4746.02 C 7602.84,4746.02 7602.84,4746.02 7602.84,4746.02 " />
<path stroke="#00ff00" stroke-width="1" fill="none" transform="matrix(0.05 0 0 0.05 -127 -199)" d="M 7602.84,4746.02 C 7602.84,4746.02 7599.12,4476.2 7599.12,4476.2 C 7599.12,4476.2 7627.24,4516.87 7655.95,4524.08 C 7684.66,4531.29 7727.95,4508.55 7727.95,4508.55 C 7727.95,4508.55 7602.84,4746.02 7602.84,4746.02 C 7602.84,4746.02 7602.84,4746.02 7602.84,4746.02 " />
<path stroke="none" fill="#0000ff" transform="matrix(0.05 0 0 0.05 -127 -199)" d="M 11162.7,5032.56 L 11163.1,4995.79 L 11556.4,4779.28 L 11571.8,4807.34 L 11162.7,5032.56 Z " />
<text x="0" y="0" stroke="none" fill="#000000" transform="matrix(0.05 0 0 0.05 453.103 41.5502)" font-style="normal" font-weight="normal" font-size="240px" font-family="Helvetica" >
Nu</text>
<path stroke="none" fill="#0000ff" transform="matrix(0.05 0 0 0.05 -127 -199)" d="M 10643.1,4731.45 L 10643.1,4713.53 L 10658.5,4704.48 L 11163.1,4995.79 L 11162.7,5032.56 L 10643.1,4731.45 Z " />
<path stroke="none" fill="#0000ff" transform="matrix(0.05 0 0 0.05 -127 -199)" d="M 10131.3,5027.39 L 10115.3,4999.68 L 10627.7,4704.48 L 10643.1,4713.53 L 10643.1,4731.45 L 10131.3,5027.39 Z " />
<text x="0" y="0" stroke="none" fill="#000000" transform="matrix(0.05 0 0 0.05 401.153 10.9795)" font-style="normal" font-weight="normal" font-size="240px" font-family="Helvetica" >
Eu</text>
<path stroke="none" fill="#0000ff" transform="matrix(0.05 0 0 0.05 -127 -199)" d="M 10658.5,4704.48 L 10643.1,4713.53 L 10627.7,4704.48 L 10627.1,4239.44 L 10659.1,4239.44 L 10658.5,4704.48 Z " />
<text x="0" y="0" stroke="none" fill="#0000ff" transform="matrix(0.05 0 0 0.05 218.152 10.9802)" font-style="normal" font-weight="normal" font-size="240px" font-family="Helvetica" >
Eu</text>
<path stroke="none" fill="#0000ff" transform="matrix(0.05 0 0 0.05 -127 -199)" d="M 6998.42,4704.48 L 6983.03,4713.53 L 6967.64,4704.48 L 6967.06,4239.45 L 6999.06,4239.46 L 6998.42,4704.48 Z " />
<path stroke="#0000ff" stroke-width="26" fill="none" transform="matrix(0.05 0 0 0.05 -127 -199)" d="M 7537.71,4935.81 A 92.7999,92.7999 0 1 0 7723.31,4935.81A 92.7999,92.7999 0 1 0 7537.71,4935.81Z " />
<path stroke="none" fill="#0000ff" transform="matrix(0.05 0 0 0.05 -127 -199)" d="M 7574.51,4922.81 L 7686.51,4922.81 L 7686.51,4948.81 L 7574.51,4948.81 Z " />
<path stroke="none" fill="#0000ff" transform="matrix(0.05 0 0 0.05 -127 -199)" d="M 7643.51,4879.81 L 7643.51,4991.81 L 7617.51,4991.81 L 7617.51,4879.81 Z " />
<text x="0" y="0" stroke="none" fill="#0000ff" transform="matrix(0.05 0 0 0.05 192 175)" font-style="normal" font-weight="normal" font-size="320px" font-family="Helvetica" >
(more </text>
<text x="0" y="0" stroke="none" fill="#0000ff" transform="matrix(0.05 0 0 0.05 238.227 175)" font-style="normal" font-weight="normal" font-size="320px" font-family="Helvetica" >
stable)</text>
<text x="0" y="0" stroke="none" fill="#000000" transform="matrix(0.05 0 0 0.05 192 73)" font-style="normal" font-weight="normal" font-size="320px" font-family="Helvetica" >
(less </text>
<text x="0" y="0" stroke="none" fill="#000000" transform="matrix(0.05 0 0 0.05 230.227 73)" font-style="normal" font-weight="normal" font-size="320px" font-family="Helvetica" >
stable)</text>
<text x="0" y="0" stroke="none" fill="#000000" transform="matrix(0.05 0 0 0.05 385 69)" font-style="normal" font-weight="normal" font-size="320px" font-family="Helvetica" >
(minor)</text>
<text x="0" y="0" stroke="none" fill="#000000" transform="matrix(0.05 0 0 0.05 385 174)" font-style="normal" font-weight="normal" font-size="320px" font-family="Helvetica" >
(major)</text>
</svg>
