<?xml version="1.0" standalone="no" ?>
<!DOCTYPE svg PUBLIC "-//W3C//DTD SVG 1.1//EN" "http://www.w3.org/Graphics/SVG/1.1/DTD/svg11.dtd">
<svg width="412px" height="197px" viewBox="0 0 412 197" style="background-color: #ffffff00" xmlns="http://www.w3.org/2000/svg" xmlns:xlink="http://www.w3.org/1999/xlink" version="1.1" >
<path stroke="#0000ff" stroke-width="26" fill="none" transform="matrix(0.05 0 0 0.05 -124 -128)" d="M 6701.8,5184.6 A 92.7999,92.7999 0 1 0 6887.4,5184.6A 92.7999,92.7999 0 1 0 6701.8,5184.6Z " />
<path stroke="none" fill="#0000ff" transform="matrix(0.05 0 0 0.05 -124 -128)" d="M 6738.6,5171.6 L 6850.6,5171.6 L 6850.6,5197.6 L 6738.6,5197.6 Z " />
<path stroke="none" fill="#0000ff" transform="matrix(0.05 0 0 0.05 -124 -128)" d="M 6807.6,5128.6 L 6807.6,5240.6 L 6781.6,5240.6 L 6781.6,5128.6 Z " />
<path stroke="none" fill="#0000ff" transform="matrix(0.05 0 0 0.05 -124 -128)" d="M 2607.4,5971.06 L 2591.4,5943.34 L 3119.2,5638.14 L 3119.2,5675.12 L 2607.4,5971.06 Z " />
<path stroke="none" fill="#0000ff" transform="matrix(0.05 0 0 0.05 -124 -128)" d="M 3119.2,5675.12 L 3119.2,5638.14 L 3646.8,5943.34 L 3630.8,5971.06 L 3119.2,5675.12 Z " />
<path stroke="none" fill="#0000ff" transform="matrix(0.05 0 0 0.05 -124 -128)" d="M 3111.19,5774.97 L 3127.19,5747.26 L 3601.8,6021.28 L 3585.8,6049 L 3111.19,5774.97 Z " />
<path stroke="none" fill="#0000ff" transform="matrix(0.05 0 0 0.05 -124 -128)" d="M 5676,5881 L 4575,5881 L 4575,5849 L 5676,5849 Z " />
<path stroke="none" fill="#0000ff" transform="matrix(0.05 0 0 0.05 -124 -128)" d="M 5955,5865 C 5955,5865 5635,5946 5635,5946 C 5635,5946 5675,5900.44 5675,5865 C 5675,5829.13 5635,5783 5635,5783 C 5635,5783 5955,5865 5955,5865 C 5955,5865 5955,5865 5955,5865 " />
<path stroke="#0000ff" stroke-width="1" fill="none" transform="matrix(0.05 0 0 0.05 -124 -128)" d="M 5955,5865 C 5955,5865 5635,5946 5635,5946 C 5635,5946 5675,5900.44 5675,5865 C 5675,5829.13 5635,5783 5635,5783 C 5635,5783 5955,5865 5955,5865 C 5955,5865 5955,5865 5955,5865 " />
<text x="0" y="0" stroke="none" fill="#0000ff" transform="matrix(0.05 0 0 0.05 110.699 151.998)" font-style="normal" font-weight="normal" font-size="240px" font-family="Arial" >
Eu</text>
<text x="0" y="0" stroke="none" fill="#0000ff" transform="matrix(0.05 0 0 0.05 147.707 151.998)" font-style="normal" font-weight="normal" font-size="240px" font-family="Arial" >
Nu</text>
<path stroke="none" fill="#0000ff" transform="matrix(0.05 0 0 0.05 -124 -128)" d="M 5010.97,5530 L 5010.97,5498 L 5411.42,5498 L 5411.42,5530 L 5010.97,5530 Z " />
<path stroke="none" fill="#0000ff" transform="matrix(0.05 0 0 0.05 -124 -128)" d="M 7298.41,5623.45 L 7330.44,5604.94 L 7329.8,6087.5 L 7297.8,6087.5 L 7298.41,5623.45 Z " />
<text x="0" y="0" stroke="none" fill="#0000ff" transform="matrix(0.05 0 0 0.05 237.688 187.018)" font-style="normal" font-weight="normal" font-size="240px" font-family="Arial" >
Eu</text>
<path stroke="none" fill="#0000ff" transform="matrix(0.05 0 0 0.05 -124 -128)" d="M 6794.2,5332.32 L 6794.2,5295.34 L 7330.44,5604.94 L 7298.41,5623.45 L 6794.2,5332.32 Z " />
<path stroke="none" fill="#0000ff" transform="matrix(0.05 0 0 0.05 -124 -128)" d="M 6282.4,5628.26 L 6266.4,5600.54 L 6794.2,5295.34 L 6794.2,5332.32 L 6282.4,5628.26 Z " />
<path stroke="#00ff00" stroke-width="32" fill="none" transform="matrix(0.05 0 0 0.05 -124 -128)" d="M 4436.51,5386.8 C 4035.3,5271.71 3573.17,5458.37 3364.44,5819.83 " />
<path stroke="none" fill="#00ff00" transform="matrix(0.05 0 0 0.05 -124 -128)" d="M 4647.17,5476.24 C 4647.17,5476.24 4379.85,5435.21 4379.85,5435.21 C 4379.85,5435.21 4424.63,5414.15 4436.51,5386.8 C 4448.38,5359.45 4432.97,5312.83 4432.97,5312.83 C 4432.97,5312.83 4647.17,5476.24 4647.17,5476.24 C 4647.17,5476.24 4647.17,5476.24 4647.17,5476.24 " />
<path stroke="#00ff00" stroke-width="1" fill="none" transform="matrix(0.05 0 0 0.05 -124 -128)" d="M 4647.17,5476.24 C 4647.17,5476.24 4379.85,5435.21 4379.85,5435.21 C 4379.85,5435.21 4424.63,5414.15 4436.51,5386.8 C 4448.38,5359.45 4432.97,5312.83 4432.97,5312.83 C 4432.97,5312.83 4647.17,5476.24 4647.17,5476.24 C 4647.17,5476.24 4647.17,5476.24 4647.17,5476.24 " />
<path stroke="#00ff00" stroke-width="32" fill="none" transform="matrix(0.05 0 0 0.05 -124 -128)" d="M 5476.35,5096.54 C 5395,4971.36 5227.3,4935.73 5102.03,5017.02 C 4976.76,5098.3 4941.11,5265.89 5022.45,5391.06 C 5058.48,5446.5 5115.45,5487.87 5179.35,5504.98 " />
<path stroke="none" fill="#00ff00" transform="matrix(0.05 0 0 0.05 -124 -128)" d="M 5510.78,5313.79 C 5510.78,5313.79 5408.36,5076.34 5408.36,5076.34 C 5408.36,5076.34 5449.25,5101.19 5476.35,5096.54 C 5503.45,5091.88 5534.5,5054.66 5534.5,5054.66 C 5534.5,5054.66 5510.78,5313.79 5510.78,5313.79 C 5510.78,5313.79 5510.78,5313.79 5510.78,5313.79 " />
<path stroke="#00ff00" stroke-width="1" fill="none" transform="matrix(0.05 0 0 0.05 -124 -128)" d="M 5510.78,5313.79 C 5510.78,5313.79 5408.36,5076.34 5408.36,5076.34 C 5408.36,5076.34 5449.25,5101.19 5476.35,5096.54 C 5503.45,5091.88 5534.5,5054.66 5534.5,5054.66 C 5534.5,5054.66 5510.78,5313.79 5510.78,5313.79 C 5510.78,5313.79 5510.78,5313.79 5510.78,5313.79 " />
<path stroke="none" fill="#0000ff" transform="matrix(0.05 0 0 0.05 -124 -128)" d="M 8706,5866 L 8235,5866 L 8235,5834 L 8706,5834 Z " />
<path stroke="none" fill="#0000ff" transform="matrix(0.05 0 0 0.05 -124 -128)" d="M 8985,5850 C 8985,5850 8665,5931 8665,5931 C 8665,5931 8705,5885.44 8705,5850 C 8705,5814.13 8665,5768 8665,5768 C 8665,5768 8985,5850 8985,5850 C 8985,5850 8985,5850 8985,5850 " />
<path stroke="#0000ff" stroke-width="1" fill="none" transform="matrix(0.05 0 0 0.05 -124 -128)" d="M 8985,5850 C 8985,5850 8665,5931 8665,5931 C 8665,5931 8705,5885.44 8705,5850 C 8705,5814.13 8665,5768 8665,5768 C 8665,5768 8985,5850 8985,5850 C 8985,5850 8985,5850 8985,5850 " />
<text x="0" y="0" stroke="none" fill="#0000ff" transform="matrix(0.05 0 0 0.05 296.75 155.5)" font-style="normal" font-weight="normal" font-size="240px" font-family="Times New Roman" >
Nu</text>
<text x="0" y="0" stroke="none" fill="#0000ff" transform="matrix(0.05 0 0 0.05 311.416 151.527)" font-style="normal" font-weight="normal" font-size="180px" font-family="Times New Roman" >
-</text>
<path stroke="none" fill="#0000ff" transform="matrix(0.05 0 0 0.05 -124 -128)" d="M 8350.04,5587.4 A 19.9556,19.9556 0 1 0 8389.96,5587.4A 19.9556,19.9556 0 1 0 8350.04,5587.4Z " />
<path stroke="none" fill="#0000ff" transform="matrix(0.05 0 0 0.05 -124 -128)" d="M 8349.84,5497.6 A 19.9556,19.9556 0 1 0 8389.76,5497.6A 19.9556,19.9556 0 1 0 8349.84,5497.6Z " />
<path stroke="#00ff00" stroke-width="32" fill="none" transform="matrix(0.05 0 0 0.05 -124 -128)" d="M 8324.61,5509.02 C 8160.72,5044.88 7650.89,4801.11 7186.67,4964.92 C 7172.14,4970.05 7157.74,4975.56 7143.48,4981.44 " />
<path stroke="none" fill="#00ff00" transform="matrix(0.05 0 0 0.05 -124 -128)" d="M 6948.76,5092.15 C 6948.76,5092.15 7138.67,4908.99 7138.67,4908.99 C 7138.67,4908.99 7129.21,4956.66 7143.48,4981.44 C 7157.76,5006.21 7203.93,5022.25 7203.93,5022.25 C 7203.93,5022.25 6948.76,5092.15 6948.76,5092.15 C 6948.76,5092.15 6948.76,5092.15 6948.76,5092.15 " />
<path stroke="#00ff00" stroke-width="1" fill="none" transform="matrix(0.05 0 0 0.05 -124 -128)" d="M 6948.76,5092.15 C 6948.76,5092.15 7138.67,4908.99 7138.67,4908.99 C 7138.67,4908.99 7129.21,4956.66 7143.48,4981.44 C 7157.76,5006.21 7203.93,5022.25 7203.93,5022.25 C 7203.93,5022.25 6948.76,5092.15 6948.76,5092.15 C 6948.76,5092.15 6948.76,5092.15 6948.76,5092.15 " />
<path stroke="none" fill="#0000ff" transform="matrix(0.05 0 0 0.05 -124 -128)" d="M 10458.4,5763.45 L 10490.4,5744.94 L 10489.8,6227.33 L 10457.8,6227.33 L 10458.4,5763.45 Z " />
<text x="0" y="0" stroke="none" fill="#0000ff" transform="matrix(0.05 0 0 0.05 395.688 194.024)" font-style="normal" font-weight="normal" font-size="240px" font-family="Helvetica" >
Eu</text>
<path stroke="none" fill="#0000ff" transform="matrix(0.05 0 0 0.05 -124 -128)" d="M 9954.2,5472.32 L 9954.2,5454.4 L 9969.59,5445.35 L 10490.4,5744.94 L 10458.4,5763.45 L 9954.2,5472.32 Z " />
<path stroke="none" fill="#0000ff" transform="matrix(0.05 0 0 0.05 -124 -128)" d="M 9442.4,5768.26 L 9426.4,5740.54 L 9938.81,5445.35 L 9954.2,5454.4 L 9954.2,5472.32 L 9442.4,5768.26 Z " />
<text x="0" y="0" stroke="none" fill="#0000ff" transform="matrix(0.05 0 0 0.05 369.377 119.024)" font-style="normal" font-weight="normal" font-size="240px" font-family="Helvetica" >
Nu</text>
<path stroke="none" fill="#0000ff" transform="matrix(0.05 0 0 0.05 -124 -128)" d="M 9969.59,5445.35 L 9954.2,5454.4 L 9938.81,5445.35 L 9938.2,4979.33 L 9970.2,4979.33 L 9969.59,5445.35 Z " />
<path stroke="none" fill="#0000ff" transform="matrix(0.05 0 0 0.05 -124 -128)" d="M 9363.89,3250.47 L 9395.92,3268.96 L 9395.92,3851.04 L 9363.89,3869.53 L 9363.89,3250.47 Z " />
<path stroke="none" fill="#0000ff" transform="matrix(0.05 0 0 0.05 -124 -128)" d="M 9454.4,3311.96 L 9486.4,3311.96 L 9486.4,3808.04 L 9454.4,3808.04 L 9454.4,3311.96 Z " />
<path stroke="none" fill="#0000ff" transform="matrix(0.05 0 0 0.05 -124 -128)" d="M 9363.89,3869.53 L 9395.92,3851.04 L 9900,4142.08 L 9900,4179.06 L 9363.89,3869.53 Z " />
<path stroke="none" fill="#0000ff" transform="matrix(0.05 0 0 0.05 -124 -128)" d="M 9900,4179.06 L 9900,4142.08 L 10404.1,3851.04 L 10436.1,3869.53 L 9900,4179.06 Z " />
<path stroke="none" fill="#0000ff" transform="matrix(0.05 0 0 0.05 -124 -128)" d="M 9908,4069.93 L 9892,4042.22 L 10321.6,3794.18 L 10337.6,3821.9 L 9908,4069.93 Z " />
<path stroke="none" fill="#0000ff" transform="matrix(0.05 0 0 0.05 -124 -128)" d="M 10436.1,3869.53 L 10404.1,3851.04 L 10404.1,3268.96 L 10436.1,3250.47 L 10436.1,3869.53 Z " />
<path stroke="none" fill="#0000ff" transform="matrix(0.05 0 0 0.05 -124 -128)" d="M 10436.1,3250.47 L 10404.1,3268.96 L 9900,2977.92 L 9900,2940.94 L 10436.1,3250.47 Z " />
<path stroke="none" fill="#0000ff" transform="matrix(0.05 0 0 0.05 -124 -128)" d="M 10337.6,3298.1 L 10321.6,3325.82 L 9892,3077.78 L 9908,3050.07 L 10337.6,3298.1 Z " />
<path stroke="none" fill="#0000ff" transform="matrix(0.05 0 0 0.05 -124 -128)" d="M 9900,2940.94 L 9900,2977.92 L 9395.92,3268.96 L 9363.89,3250.47 L 9900,2940.94 Z " />
<path stroke="none" fill="#0000ff" transform="matrix(0.05 0 0 0.05 -124 -128)" d="M 7323.89,3070.47 L 7355.92,3088.96 L 7355.92,3671.04 L 7323.89,3689.53 L 7323.89,3070.47 Z " />
<path stroke="none" fill="#0000ff" transform="matrix(0.05 0 0 0.05 -124 -128)" d="M 7414.4,3131.96 L 7446.4,3131.96 L 7446.4,3628.04 L 7414.4,3628.04 L 7414.4,3131.96 Z " />
<path stroke="none" fill="#0000ff" transform="matrix(0.05 0 0 0.05 -124 -128)" d="M 7323.89,3689.53 L 7355.92,3671.04 L 7860,3962.08 L 7860,3999.06 L 7323.89,3689.53 Z " />
<path stroke="none" fill="#0000ff" transform="matrix(0.05 0 0 0.05 -124 -128)" d="M 7860,3999.06 L 7860,3962.08 L 8364.08,3671.04 L 8396.11,3689.53 L 7860,3999.06 Z " />
<path stroke="none" fill="#0000ff" transform="matrix(0.05 0 0 0.05 -124 -128)" d="M 7868,3889.93 L 7852,3862.22 L 8281.6,3614.18 L 8297.6,3641.9 L 7868,3889.93 Z " />
<path stroke="none" fill="#0000ff" transform="matrix(0.05 0 0 0.05 -124 -128)" d="M 8396.11,3689.53 L 8364.08,3671.04 L 8364.08,3088.96 L 8396.11,3070.47 L 8396.11,3689.53 Z " />
<path stroke="none" fill="#0000ff" transform="matrix(0.05 0 0 0.05 -124 -128)" d="M 8396.11,3070.47 L 8364.08,3088.96 L 7860,2797.92 L 7860,2760.94 L 8396.11,3070.47 Z " />
<path stroke="none" fill="#0000ff" transform="matrix(0.05 0 0 0.05 -124 -128)" d="M 8297.6,3118.1 L 8281.6,3145.82 L 7852,2897.78 L 7868,2870.07 L 8297.6,3118.1 Z " />
<path stroke="none" fill="#0000ff" transform="matrix(0.05 0 0 0.05 -124 -128)" d="M 7860,2760.94 L 7860,2797.92 L 7355.92,3088.96 L 7323.89,3070.47 L 7860,2760.94 Z " />
<path stroke="none" fill="#0000ff" transform="matrix(0.05 0 0 0.05 -124 -128)" d="M 5903.89,2910.47 L 5935.92,2928.96 L 5935.92,3511.04 L 5903.89,3529.53 L 5903.89,2910.47 Z " />
<path stroke="none" fill="#0000ff" transform="matrix(0.05 0 0 0.05 -124 -128)" d="M 5994.4,2971.96 L 6026.4,2971.96 L 6026.4,3468.04 L 5994.4,3468.04 L 5994.4,2971.96 Z " />
<path stroke="none" fill="#0000ff" transform="matrix(0.05 0 0 0.05 -124 -128)" d="M 5903.89,3529.53 L 5935.92,3511.04 L 6440,3802.08 L 6440,3839.06 L 5903.89,3529.53 Z " />
<path stroke="none" fill="#0000ff" transform="matrix(0.05 0 0 0.05 -124 -128)" d="M 6440,3839.06 L 6440,3802.08 L 6944.08,3511.04 L 6976.11,3529.53 L 6440,3839.06 Z " />
<path stroke="none" fill="#0000ff" transform="matrix(0.05 0 0 0.05 -124 -128)" d="M 6448,3729.93 L 6432,3702.22 L 6861.6,3454.18 L 6877.6,3481.9 L 6448,3729.93 Z " />
<path stroke="none" fill="#0000ff" transform="matrix(0.05 0 0 0.05 -124 -128)" d="M 6976.11,3529.53 L 6944.08,3511.04 L 6944.08,2928.96 L 6976.11,2910.47 L 6976.11,3529.53 Z " />
<path stroke="none" fill="#0000ff" transform="matrix(0.05 0 0 0.05 -124 -128)" d="M 6976.11,2910.47 L 6944.08,2928.96 L 6440,2637.92 L 6440,2600.94 L 6976.11,2910.47 Z " />
<path stroke="none" fill="#0000ff" transform="matrix(0.05 0 0 0.05 -124 -128)" d="M 6877.6,2958.1 L 6861.6,2985.82 L 6432,2737.78 L 6448,2710.07 L 6877.6,2958.1 Z " />
<path stroke="none" fill="#0000ff" transform="matrix(0.05 0 0 0.05 -124 -128)" d="M 6440,2600.94 L 6440,2637.92 L 5935.92,2928.96 L 5903.89,2910.47 L 6440,2600.94 Z " />
<path stroke="none" fill="#0000ff" transform="matrix(0.05 0 0 0.05 -124 -128)" d="M 4383.89,3030.47 L 4415.92,3048.96 L 4415.92,3631.04 L 4383.89,3649.53 L 4383.89,3030.47 Z " />
<path stroke="none" fill="#0000ff" transform="matrix(0.05 0 0 0.05 -124 -128)" d="M 4474.4,3091.96 L 4506.4,3091.96 L 4506.4,3588.04 L 4474.4,3588.04 L 4474.4,3091.96 Z " />
<path stroke="none" fill="#0000ff" transform="matrix(0.05 0 0 0.05 -124 -128)" d="M 4383.89,3649.53 L 4415.92,3631.04 L 4920,3922.08 L 4920,3959.06 L 4383.89,3649.53 Z " />
<path stroke="none" fill="#0000ff" transform="matrix(0.05 0 0 0.05 -124 -128)" d="M 4920,3959.06 L 4920,3922.08 L 5424.08,3631.04 L 5456.11,3649.53 L 4920,3959.06 Z " />
<path stroke="none" fill="#0000ff" transform="matrix(0.05 0 0 0.05 -124 -128)" d="M 4928,3849.93 L 4912,3822.22 L 5341.6,3574.18 L 5357.6,3601.9 L 4928,3849.93 Z " />
<path stroke="none" fill="#0000ff" transform="matrix(0.05 0 0 0.05 -124 -128)" d="M 5456.11,3649.53 L 5424.08,3631.04 L 5424.08,3048.96 L 5456.11,3030.47 L 5456.11,3649.53 Z " />
<path stroke="none" fill="#0000ff" transform="matrix(0.05 0 0 0.05 -124 -128)" d="M 5456.11,3030.47 L 5424.08,3048.96 L 4920,2757.92 L 4920,2720.94 L 5456.11,3030.47 Z " />
<path stroke="none" fill="#0000ff" transform="matrix(0.05 0 0 0.05 -124 -128)" d="M 5357.6,3078.1 L 5341.6,3105.82 L 4912,2857.78 L 4928,2830.07 L 5357.6,3078.1 Z " />
<path stroke="none" fill="#0000ff" transform="matrix(0.05 0 0 0.05 -124 -128)" d="M 4920,2720.94 L 4920,2757.92 L 4415.92,3048.96 L 4383.89,3030.47 L 4920,2720.94 Z " />
<path stroke="none" fill="#0000ff" transform="matrix(0.05 0 0 0.05 -124 -128)" d="M 2523.88,3110.47 L 2555.91,3128.96 L 2555.91,3711.04 L 2523.88,3729.53 L 2523.88,3110.47 Z " />
<path stroke="none" fill="#0000ff" transform="matrix(0.05 0 0 0.05 -124 -128)" d="M 2614.38,3171.96 L 2646.38,3171.96 L 2646.38,3668.04 L 2614.38,3668.04 L 2614.38,3171.96 Z " />
<path stroke="none" fill="#0000ff" transform="matrix(0.05 0 0 0.05 -124 -128)" d="M 2523.88,3729.53 L 2555.91,3711.04 L 3060,4002.08 L 3060,4039.06 L 2523.88,3729.53 Z " />
<path stroke="none" fill="#0000ff" transform="matrix(0.05 0 0 0.05 -124 -128)" d="M 3060,4039.06 L 3060,4002.08 L 3564.09,3711.04 L 3596.12,3729.53 L 3060,4039.06 Z " />
<path stroke="none" fill="#0000ff" transform="matrix(0.05 0 0 0.05 -124 -128)" d="M 3068,3929.93 L 3052,3902.22 L 3481.62,3654.18 L 3497.62,3681.89 L 3068,3929.93 Z " />
<path stroke="none" fill="#0000ff" transform="matrix(0.05 0 0 0.05 -124 -128)" d="M 3596.12,3729.53 L 3564.09,3711.04 L 3564.09,3128.96 L 3596.12,3110.47 L 3596.12,3729.53 Z " />
<path stroke="none" fill="#0000ff" transform="matrix(0.05 0 0 0.05 -124 -128)" d="M 3596.12,3110.47 L 3564.09,3128.96 L 3060,2837.92 L 3060,2800.94 L 3596.12,3110.47 Z " />
<path stroke="none" fill="#0000ff" transform="matrix(0.05 0 0 0.05 -124 -128)" d="M 3497.62,3158.11 L 3481.62,3185.82 L 3052,2937.78 L 3068,2910.07 L 3497.62,3158.11 Z " />
<path stroke="none" fill="#0000ff" transform="matrix(0.05 0 0 0.05 -124 -128)" d="M 3060,2800.94 L 3060,2837.92 L 2555.91,3128.96 L 2523.88,3110.47 L 3060,2800.94 Z " />
</svg>
