<?xml version="1.0" standalone="no" ?>
<!DOCTYPE svg PUBLIC "-//W3C//DTD SVG 1.1//EN" "http://www.w3.org/Graphics/SVG/1.1/DTD/svg11.dtd">
<svg width="720px" height="93px" viewBox="0 0 720 93" style="background-color: #ffffff00" xmlns="http://www.w3.org/2000/svg" xmlns:xlink="http://www.w3.org/1999/xlink" version="1.1" >
<path stroke="none" fill="#0000ff" transform="matrix(0.05 0 0 0.05 -117 -456)" d="M 2407.4,10231.1 L 2391.4,10203.3 L 2919.2,9898.14 L 2919.2,9935.12 L 2407.4,10231.1 Z " />
<path stroke="none" fill="#0000ff" transform="matrix(0.05 0 0 0.05 -117 -456)" d="M 2919.2,9935.12 L 2919.2,9898.14 L 3438.51,10199.1 L 3439.1,10236.5 L 2919.2,9935.12 Z " />
<path stroke="none" fill="#0000ff" transform="matrix(0.05 0 0 0.05 -117 -456)" d="M 2956.2,9853.12 L 2972.2,9825.4 L 3445.14,10098.5 L 3429.14,10126.2 L 2956.2,9853.12 Z " />
<path stroke="none" fill="#0000ff" transform="matrix(0.05 0 0 0.05 -117 -456)" d="M 5476,10141 L 4375,10141 L 4375,10109 L 5476,10109 Z " />
<path stroke="none" fill="#0000ff" transform="matrix(0.05 0 0 0.05 -117 -456)" d="M 5755,10125 C 5755,10125 5435,10206 5435,10206 C 5435,10206 5475,10160.4 5475,10125 C 5475,10089.1 5435,10043 5435,10043 C 5435,10043 5755,10125 5755,10125 C 5755,10125 5755,10125 5755,10125 " />
<path stroke="#0000ff" stroke-width="1" fill="none" transform="matrix(0.05 0 0 0.05 -117 -456)" d="M 5755,10125 C 5755,10125 5435,10206 5435,10206 C 5435,10206 5475,10160.4 5475,10125 C 5475,10089.1 5435,10043 5435,10043 C 5435,10043 5755,10125 5755,10125 C 5755,10125 5755,10125 5755,10125 " />
<text x="0" y="0" stroke="none" fill="#000000" transform="matrix(0.05 0 0 0.05 115.038 36.9978)" font-style="normal" font-weight="normal" font-size="240px" font-family="Arial" >
E</text>
<text x="0" y="0" stroke="none" fill="#0000ff" transform="matrix(0.05 0 0 0.05 144.707 36.9978)" font-style="normal" font-weight="normal" font-size="240px" font-family="Arial" >
Nu</text>
<path stroke="none" fill="#0000ff" transform="matrix(0.05 0 0 0.05 -117 -456)" d="M 4827.75,9790 L 4827.75,9758 L 5211.42,9758 L 5211.42,9790 L 4827.75,9790 Z " />
<path stroke="#00ff00" stroke-width="32" fill="none" transform="matrix(0.05 0 0 0.05 -117 -456)" d="M 4236.51,9646.8 C 3835.3,9531.71 3373.17,9718.37 3164.44,10079.8 " />
<path stroke="none" fill="#00ff00" transform="matrix(0.05 0 0 0.05 -117 -456)" d="M 4447.17,9736.24 C 4447.17,9736.24 4179.85,9695.21 4179.85,9695.21 C 4179.85,9695.21 4224.63,9674.15 4236.51,9646.8 C 4248.38,9619.45 4232.97,9572.83 4232.97,9572.83 C 4232.97,9572.83 4447.17,9736.24 4447.17,9736.24 C 4447.17,9736.24 4447.17,9736.24 4447.17,9736.24 " />
<path stroke="#00ff00" stroke-width="1" fill="none" transform="matrix(0.05 0 0 0.05 -117 -456)" d="M 4447.17,9736.24 C 4447.17,9736.24 4179.85,9695.21 4179.85,9695.21 C 4179.85,9695.21 4224.63,9674.15 4236.51,9646.8 C 4248.38,9619.45 4232.97,9572.83 4232.97,9572.83 C 4232.97,9572.83 4447.17,9736.24 4447.17,9736.24 C 4447.17,9736.24 4447.17,9736.24 4447.17,9736.24 " />
<path stroke="#00ff00" stroke-width="32" fill="none" transform="matrix(0.05 0 0 0.05 -117 -456)" d="M 5276.35,9356.54 C 5195,9231.36 5027.3,9195.73 4902.03,9277.02 C 4776.76,9358.3 4741.11,9525.89 4822.45,9651.06 C 4858.48,9706.5 4915.45,9747.87 4979.35,9764.98 " />
<path stroke="none" fill="#00ff00" transform="matrix(0.05 0 0 0.05 -117 -456)" d="M 5310.78,9573.79 C 5310.78,9573.79 5208.36,9336.34 5208.36,9336.34 C 5208.36,9336.34 5249.25,9361.19 5276.35,9356.54 C 5303.45,9351.88 5334.5,9314.66 5334.5,9314.66 C 5334.5,9314.66 5310.78,9573.79 5310.78,9573.79 C 5310.78,9573.79 5310.78,9573.79 5310.78,9573.79 " />
<path stroke="#00ff00" stroke-width="1" fill="none" transform="matrix(0.05 0 0 0.05 -117 -456)" d="M 5310.78,9573.79 C 5310.78,9573.79 5208.36,9336.34 5208.36,9336.34 C 5208.36,9336.34 5249.25,9361.19 5276.35,9356.54 C 5303.45,9351.88 5334.5,9314.66 5334.5,9314.66 C 5334.5,9314.66 5310.78,9573.79 5310.78,9573.79 C 5310.78,9573.79 5310.78,9573.79 5310.78,9573.79 " />
<path stroke="none" fill="#0000ff" transform="matrix(0.05 0 0 0.05 -117 -456)" d="M 3439.1,10236.5 L 3438.51,10199.1 L 3940.25,9887.35 L 3957.12,9914.54 L 3439.1,10236.5 Z " />
<path stroke="none" fill="#0000ff" transform="matrix(0.05 0 0 0.05 -117 -456)" d="M 7701.12,10128.5 L 7717.12,10156.2 L 7189.32,10461.4 L 7189.32,10424.4 L 7701.12,10128.5 Z " />
<path stroke="none" fill="#0000ff" transform="matrix(0.05 0 0 0.05 -117 -456)" d="M 7189.32,10424.4 L 7189.32,10461.4 L 6670,10160.4 L 6669.72,10142.4 L 6685.09,10133.3 L 7189.32,10424.4 Z " />
<path stroke="none" fill="#0000ff" transform="matrix(0.05 0 0 0.05 -117 -456)" d="M 6654.29,10133.6 L 6669.72,10142.4 L 6670,10160.4 L 6168.27,10472.2 L 6151.4,10445 L 6654.29,10133.6 Z " />
<path stroke="#0000ff" stroke-width="26" fill="none" transform="matrix(0.05 0 0 0.05 -117 -456)" d="M 7083.63,10591.3 A 92.7999,92.7999 0 1 0 7269.23,10591.3A 92.7999,92.7999 0 1 0 7083.63,10591.3Z " />
<path stroke="none" fill="#0000ff" transform="matrix(0.05 0 0 0.05 -117 -456)" d="M 7120.43,10578.3 L 7232.43,10578.3 L 7232.43,10604.3 L 7120.43,10604.3 Z " />
<path stroke="none" fill="#0000ff" transform="matrix(0.05 0 0 0.05 -117 -456)" d="M 7189.43,10535.3 L 7189.43,10647.3 L 7163.43,10647.3 L 7163.43,10535.3 Z " />
<text x="0" y="0" stroke="none" fill="#0000ff" transform="matrix(0.05 0 0 0.05 212.415 25.4224)" font-style="normal" font-weight="normal" font-size="240px" font-family="Helvetica" >
E</text>
<path stroke="none" fill="#0000ff" transform="matrix(0.05 0 0 0.05 -117 -456)" d="M 6685.09,10133.3 L 6669.72,10142.4 L 6654.29,10133.6 L 6652.63,9667.33 L 6684.63,9667.26 L 6685.09,10133.3 Z " />
<path stroke="none" fill="#0000ff" transform="matrix(0.05 0 0 0.05 -117 -456)" d="M 6836.62,9585.34 A 20,20 0 1 0 6876.62,9585.34A 20,20 0 1 0 6836.62,9585.34Z " />
<path stroke="none" fill="#0000ff" transform="matrix(0.05 0 0 0.05 -117 -456)" d="M 6835.66,9495.34 A 20,20 0 1 0 6875.66,9495.34A 20,20 0 1 0 6835.66,9495.34Z " />
<path stroke="#00ff00" stroke-width="32" fill="none" transform="matrix(0.05 0 0 0.05 -117 -456)" d="M 7276.33,10199.1 C 7355.21,9919.75 7192.51,9628.98 6913.17,9550.1 C 6898.45,9545.94 6883.55,9542.43 6868.52,9539.57 " />
<path stroke="none" fill="#00ff00" transform="matrix(0.05 0 0 0.05 -117 -456)" d="M 7168.52,10399.6 C 7168.52,10399.6 7233.45,10138.6 7233.45,10138.6 C 7233.45,10138.6 7250.42,10184.9 7276.33,10199.1 C 7302.24,10213.2 7350.01,10202.2 7350.01,10202.2 C 7350.01,10202.2 7168.52,10399.6 7168.52,10399.6 C 7168.52,10399.6 7168.52,10399.6 7168.52,10399.6 " />
<path stroke="#00ff00" stroke-width="1" fill="none" transform="matrix(0.05 0 0 0.05 -117 -456)" d="M 7168.52,10399.6 C 7168.52,10399.6 7233.45,10138.6 7233.45,10138.6 C 7233.45,10138.6 7250.42,10184.9 7276.33,10199.1 C 7302.24,10213.2 7350.01,10202.2 7350.01,10202.2 C 7350.01,10202.2 7168.52,10399.6 7168.52,10399.6 C 7168.52,10399.6 7168.52,10399.6 7168.52,10399.6 " />
<path stroke="none" fill="#0000ff" transform="matrix(0.05 0 0 0.05 -117 -456)" d="M 8901,10096 L 8200,10096 L 8200,10064 L 8901,10064 Z " />
<path stroke="none" fill="#0000ff" transform="matrix(0.05 0 0 0.05 -117 -456)" d="M 9180,10080 C 9180,10080 8860,10161 8860,10161 C 8860,10161 8900,10115.4 8900,10080 C 8900,10044.1 8860,9998 8860,9998 C 8860,9998 9180,10080 9180,10080 C 9180,10080 9180,10080 9180,10080 " />
<path stroke="#0000ff" stroke-width="1" fill="none" transform="matrix(0.05 0 0 0.05 -117 -456)" d="M 9180,10080 C 9180,10080 8860,10161 8860,10161 C 8860,10161 8900,10115.4 8900,10080 C 8900,10044.1 8860,9998 8860,9998 C 8860,9998 9180,10080 9180,10080 C 9180,10080 9180,10080 9180,10080 " />
<path stroke="none" fill="#0000ff" transform="matrix(0.05 0 0 0.05 -117 -456)" d="M 10087.2,10075.6 L 10080,10060 L 10105.5,10045.4 L 10655.5,10045.3 L 10680,10060 L 10674.2,10075.7 L 10087.2,10075.6 Z " />
<text x="0" y="0" stroke="none" fill="#0000ff" transform="matrix(0.05 0 0 0.05 398.596 25.6778)" font-style="normal" font-weight="normal" font-size="240px" font-family="Helvetica" >
E</text>
<path stroke="none" fill="#0000ff" transform="matrix(0.05 0 0 0.05 -117 -456)" d="M 10105.5,10045.4 L 10080,10060 L 10066.3,10051.7 L 10303.7,9661.74 L 10331,9678.37 L 10105.5,10045.4 Z " />
<path stroke="none" fill="#0000ff" transform="matrix(0.05 0 0 0.05 -117 -456)" d="M 10693.9,10052.2 L 10680,10060 L 10655.5,10045.3 L 10450.3,9683.97 L 10478.2,9668.3 L 10693.9,10052.2 Z " />
<path stroke="#0000ff" stroke-width="26" fill="none" transform="matrix(0.05 0 0 0.05 -117 -456)" d="M 10317.8,9312.35 A 92.7999,92.7999 0 1 0 10503.4,9312.35A 92.7999,92.7999 0 1 0 10317.8,9312.35Z " />
<path stroke="none" fill="#0000ff" transform="matrix(0.05 0 0 0.05 -117 -456)" d="M 10354.6,9299.35 L 10466.6,9299.35 L 10466.6,9325.35 L 10354.6,9325.35 Z " />
<path stroke="none" fill="#0000ff" transform="matrix(0.05 0 0 0.05 -117 -456)" d="M 10423.6,9256.35 L 10423.6,9368.35 L 10397.6,9368.35 L 10397.6,9256.35 Z " />
<path stroke="none" fill="#0000ff" transform="matrix(0.05 0 0 0.05 -117 -456)" d="M 10025,10072.6 L 10040.7,10100.5 L 10014.1,10118.4 L 9995.86,10086 L 10025,10072.6 Z " />
<path stroke="none" fill="#0000ff" transform="matrix(0.05 0 0 0.05 -117 -456)" d="M 9972.99,10096.6 L 9993.19,10132.5 L 9966.56,10150.4 L 9943.83,10110 L 9972.99,10096.6 Z " />
<path stroke="none" fill="#0000ff" transform="matrix(0.05 0 0 0.05 -117 -456)" d="M 9920.96,10120.5 L 9945.68,10164.5 L 9919.05,10182.4 L 9891.81,10134 L 9920.96,10120.5 Z " />
<path stroke="none" fill="#0000ff" transform="matrix(0.05 0 0 0.05 -117 -456)" d="M 9868.94,10144.5 L 9898.17,10196.5 L 9871.54,10214.4 L 9839.78,10158 L 9868.94,10144.5 Z " />
<path stroke="none" fill="#0000ff" transform="matrix(0.05 0 0 0.05 -117 -456)" d="M 9816.92,10168.5 L 9850.65,10228.5 L 9824.03,10246.4 L 9787.76,10181.9 L 9816.92,10168.5 Z " />
<path stroke="none" fill="#0000ff" transform="matrix(0.05 0 0 0.05 -117 -456)" d="M 9764.89,10192.5 L 9803.14,10260.5 L 9776.52,10278.4 L 9735.74,10205.9 L 9764.89,10192.5 Z " />
<path stroke="none" fill="#0000ff" transform="matrix(0.05 0 0 0.05 -117 -456)" d="M 9712.87,10216.5 L 9755.63,10292.5 L 9729.01,10310.4 L 9683.71,10229.9 L 9712.87,10216.5 Z " />
<path stroke="none" fill="#0000ff" transform="matrix(0.05 0 0 0.05 -117 -456)" d="M 9660.84,10240.5 L 9708.12,10324.5 L 9681.49,10342.4 L 9631.69,10253.9 L 9660.84,10240.5 Z " />
<path stroke="none" fill="#0000ff" transform="matrix(0.05 0 0 0.05 -117 -456)" d="M 9608.82,10264.4 L 9660.61,10356.5 L 9633.98,10374.4 L 9579.66,10277.9 L 9608.82,10264.4 Z " />
<path stroke="none" fill="#0000ff" transform="matrix(0.05 0 0 0.05 -117 -456)" d="M 9556.79,10288.4 L 9613.1,10388.5 L 9586.47,10406.5 L 9527.64,10301.9 L 9556.79,10288.4 Z " />
<path stroke="none" fill="#0000ff" transform="matrix(0.05 0 0 0.05 -117 -456)" d="M 10723.3,10096 L 10735.9,10066.6 L 10766.4,10076.8 L 10751.7,10111 L 10723.3,10096 Z " />
<path stroke="none" fill="#0000ff" transform="matrix(0.05 0 0 0.05 -117 -456)" d="M 10774,10122.7 L 10790.2,10084.8 L 10820.7,10095.1 L 10802.4,10137.7 L 10774,10122.7 Z " />
<path stroke="none" fill="#0000ff" transform="matrix(0.05 0 0 0.05 -117 -456)" d="M 10824.7,10149.4 L 10844.5,10103.1 L 10875,10113.3 L 10853.1,10164.4 L 10824.7,10149.4 Z " />
<path stroke="none" fill="#0000ff" transform="matrix(0.05 0 0 0.05 -117 -456)" d="M 10875.4,10176.2 L 10898.9,10121.4 L 10929.3,10131.6 L 10903.8,10191.1 L 10875.4,10176.2 Z " />
<path stroke="none" fill="#0000ff" transform="matrix(0.05 0 0 0.05 -117 -456)" d="M 10926.1,10202.9 L 10953.2,10139.6 L 10983.6,10149.9 L 10954.4,10217.9 L 10926.1,10202.9 Z " />
<path stroke="none" fill="#0000ff" transform="matrix(0.05 0 0 0.05 -117 -456)" d="M 10976.7,10229.6 L 11007.5,10157.9 L 11037.9,10168.1 L 11005.1,10244.6 L 10976.7,10229.6 Z " />
<path stroke="none" fill="#0000ff" transform="matrix(0.05 0 0 0.05 -117 -456)" d="M 11027.4,10256.3 L 11061.8,10176.2 L 11092.2,10186.4 L 11055.8,10271.3 L 11027.4,10256.3 Z " />
<path stroke="none" fill="#0000ff" transform="matrix(0.05 0 0 0.05 -117 -456)" d="M 11078.1,10283.1 L 11116.1,10194.4 L 11146.5,10204.7 L 11106.5,10298 L 11078.1,10283.1 Z " />
<path stroke="none" fill="#0000ff" transform="matrix(0.05 0 0 0.05 -117 -456)" d="M 11128.8,10309.8 L 11170.4,10212.7 L 11200.8,10222.9 L 11157.2,10324.8 L 11128.8,10309.8 Z " />
<path stroke="none" fill="#0000ff" transform="matrix(0.05 0 0 0.05 -117 -456)" d="M 11179.5,10336.5 L 11224.7,10231 L 11255.1,10241.2 L 11207.9,10351.5 L 11179.5,10336.5 Z " />
<path stroke="none" fill="#0000ff" transform="matrix(0.05 0 0 0.05 -117 -456)" d="M 10066.9,10050.8 L 10080,10060 L 10087.2,10075.6 L 9782.15,10584.3 L 9684.23,10514.9 L 10066.9,10050.8 Z " />
<path stroke="none" fill="#0000ff" transform="matrix(0.05 0 0 0.05 -117 -456)" d="M 10674.2,10075.7 L 10680,10060 L 10693.9,10052.1 L 11139.4,10450.6 L 11053,10533.8 L 10674.2,10075.7 Z " />
<path stroke="none" fill="#0000ff" transform="matrix(0.05 0 0 0.05 -117 -456)" d="M 12264.1,10066 L 11675,10066 L 11675,10034 L 12264.1,10034 Z " />
<path stroke="none" fill="#0000ff" transform="matrix(0.05 0 0 0.05 -117 -456)" d="M 12425,10050 C 12425,10050 12240,10115 12240,10115 C 12240,10115 12263.1,10078.5 12263.1,10050 C 12263.1,10021.1 12240,9984 12240,9984 C 12240,9984 12425,10050 12425,10050 C 12425,10050 12425,10050 12425,10050 " />
<path stroke="#0000ff" stroke-width="1" fill="none" transform="matrix(0.05 0 0 0.05 -117 -456)" d="M 12425,10050 C 12425,10050 12240,10115 12240,10115 C 12240,10115 12263.1,10078.5 12263.1,10050 C 12263.1,10021.1 12240,9984 12240,9984 C 12240,9984 12425,10050 12425,10050 C 12425,10050 12425,10050 12425,10050 " />
<text x="0" y="0" stroke="none" fill="#0000ff" transform="matrix(0.05 0 0 0.05 475.75 37.5)" font-style="normal" font-weight="normal" font-size="240px" font-family="Times New Roman" >
Nu</text>
<text x="0" y="0" stroke="none" fill="#0000ff" transform="matrix(0.05 0 0 0.05 490.416 33.5273)" font-style="normal" font-weight="normal" font-size="180px" font-family="Times New Roman" >
-</text>
<path stroke="none" fill="#0000ff" transform="matrix(0.05 0 0 0.05 -117 -456)" d="M 11790,9787.4 A 19.9556,19.9556 0 1 0 11830,9787.4A 19.9556,19.9556 0 1 0 11790,9787.4Z " />
<path stroke="none" fill="#0000ff" transform="matrix(0.05 0 0 0.05 -117 -456)" d="M 11789.8,9697.6 A 19.9556,19.9556 0 1 0 11829.8,9697.6A 19.9556,19.9556 0 1 0 11789.8,9697.6Z " />
<path stroke="#00ff00" stroke-width="32" fill="none" transform="matrix(0.05 0 0 0.05 -117 -456)" d="M 10214.5,10326.1 C 10427.6,10737.6 10934.6,10898.6 11346.1,10685.5 C 11673,10516.2 11858.9,10119.6 11780,9760 " />
<path stroke="none" fill="#00ff00" transform="matrix(0.05 0 0 0.05 -117 -456)" d="M 10140,10120 C 10140,10120 10285.1,10333.2 10285.1,10333.2 C 10285.1,10333.2 10240.2,10316.6 10214.5,10326.1 C 10188.9,10335.6 10165.3,10377.8 10165.3,10377.8 C 10165.3,10377.8 10140,10120 10140,10120 C 10140,10120 10140,10120 10140,10120 " />
<path stroke="#00ff00" stroke-width="1" fill="none" transform="matrix(0.05 0 0 0.05 -117 -456)" d="M 10140,10120 C 10140,10120 10285.1,10333.2 10285.1,10333.2 C 10285.1,10333.2 10240.2,10316.6 10214.5,10326.1 C 10188.9,10335.6 10165.3,10377.8 10165.3,10377.8 C 10165.3,10377.8 10140,10120 10140,10120 C 10140,10120 10140,10120 10140,10120 " />
<path stroke="#00ff00" stroke-width="32" fill="none" transform="matrix(0.05 0 0 0.05 -117 -456)" d="M 11700,9640 C 11445.3,9441.12 11077.2,9486.4 10878.3,9741.05 C 10861.7,9762.36 10846.5,9784.83 10833,9808.23 " />
<path stroke="none" fill="#00ff00" transform="matrix(0.05 0 0 0.05 -117 -456)" d="M 10760,10020 C 10760,10020 10781.9,9756.12 10781.9,9756.12 C 10781.9,9756.12 10806.1,9798.67 10833,9808.23 C 10859.9,9817.79 10904.9,9799.83 10904.9,9799.83 C 10904.9,9799.83 10760,10020 10760,10020 C 10760,10020 10760,10020 10760,10020 " />
<path stroke="#00ff00" stroke-width="1" fill="none" transform="matrix(0.05 0 0 0.05 -117 -456)" d="M 10760,10020 C 10760,10020 10781.9,9756.12 10781.9,9756.12 C 10781.9,9756.12 10806.1,9798.67 10833,9808.23 C 10859.9,9817.79 10904.9,9799.83 10904.9,9799.83 C 10904.9,9799.83 10760,10020 10760,10020 C 10760,10020 10760,10020 10760,10020 " />
<path stroke="none" fill="#0000ff" transform="matrix(0.05 0 0 0.05 -117 -456)" d="M 12787.4,10211.1 L 12771.4,10183.3 L 13283.8,9888.15 L 13299.2,9897.2 L 13299.2,9915.12 L 12787.4,10211.1 Z " />
<path stroke="none" fill="#0000ff" transform="matrix(0.05 0 0 0.05 -117 -456)" d="M 13299.2,9915.12 L 13299.2,9897.2 L 13314.6,9888.15 L 13818.5,10179.1 L 13818.8,10197.2 L 13803.5,10206.3 L 13299.2,9915.12 Z " />
<path stroke="none" fill="#0000ff" transform="matrix(0.05 0 0 0.05 -117 -456)" d="M 13834.3,10205.8 L 13818.8,10197.2 L 13818.5,10179.1 L 14320.3,9867.35 L 14337.1,9894.54 L 13834.3,10205.8 Z " />
<path stroke="#0000ff" stroke-width="32" fill="none" transform="matrix(0.05 0 0 0.05 -117 -456)" d="M 7738.27,9180 L 7860,9180 " />
<path stroke="#0000ff" stroke-width="32" fill="none" transform="matrix(0.05 0 0 0.05 -117 -456)" d="M 7860,9180 L 7860,10860 " />
<path stroke="#0000ff" stroke-width="32" fill="none" transform="matrix(0.05 0 0 0.05 -117 -456)" d="M 7860,10860 L 7738.27,10860 " />
<text x="0" y="0" stroke="none" fill="#0000ff" transform="matrix(0.05 0 0 0.05 279.9 90.1882)" font-style="normal" font-weight="normal" font-size="180px" font-family="Helvetica" >
Do </text>
<text x="0" y="0" stroke="none" fill="#0000ff" transform="matrix(0.05 0 0 0.05 293.905 90.1882)" font-style="normal" font-weight="normal" font-size="180px" font-family="Helvetica" >
not </text>
<text x="0" y="0" stroke="none" fill="#0000ff" transform="matrix(0.05 0 0 0.05 308.917 90.1882)" font-style="normal" font-weight="normal" font-size="180px" font-family="Helvetica" >
form</text>
<path stroke="#0000ff" stroke-width="32" fill="none" transform="matrix(0.05 0 0 0.05 -117 -456)" d="M 6101.73,10860 L 5980,10860 " />
<path stroke="#0000ff" stroke-width="32" fill="none" transform="matrix(0.05 0 0 0.05 -117 -456)" d="M 5980,10860 L 5980,9180 " />
<path stroke="#0000ff" stroke-width="32" fill="none" transform="matrix(0.05 0 0 0.05 -117 -456)" d="M 5980,9180 L 6101.73,9180 " />
<text x="0" y="0" stroke="none" fill="#0000ff" transform="matrix(0.05 0 0 0.05 543.961 13.1637)" font-style="normal" font-weight="normal" font-size="240px" font-family="Helvetica" >
E</text>
<path stroke="none" fill="#0000ff" transform="matrix(0.05 0 0 0.05 -117 -456)" d="M 13314.6,9888.15 L 13299.2,9897.2 L 13283.8,9888.15 L 13283.2,9422.12 L 13315.2,9422.13 L 13314.6,9888.15 Z " />
<text x="0" y="0" stroke="none" fill="#0000ff" transform="matrix(0.05 0 0 0.05 570.08 88.16)" font-style="normal" font-weight="normal" font-size="240px" font-family="Helvetica" >
Nu</text>
<path stroke="none" fill="#0000ff" transform="matrix(0.05 0 0 0.05 -117 -456)" d="M 13803.5,10206.3 L 13818.8,10197.2 L 13834.3,10205.8 L 13842.3,10669.8 L 13810.3,10670.3 L 13803.5,10206.3 Z " />
<text x="0" y="0" stroke="none" fill="#0000ff" transform="matrix(0.05 0 0 0.05 617 41)" font-style="normal" font-weight="normal" font-size="320px" font-family="Helvetica" >
+</text>
<path stroke="none" fill="#0000ff" transform="matrix(0.05 0 0 0.05 -117 -456)" d="M 15147.4,10171.1 L 15131.4,10143.3 L 15643.8,9848.15 L 15659.2,9857.2 L 15659.2,9875.12 L 15147.4,10171.1 Z " />
<path stroke="none" fill="#0000ff" transform="matrix(0.05 0 0 0.05 -117 -456)" d="M 15659.2,9875.12 L 15659.2,9857.2 L 15674.6,9848.15 L 16178.5,10139.1 L 16178.8,10157.2 L 16163.5,10166.3 L 15659.2,9875.12 Z " />
<path stroke="none" fill="#0000ff" transform="matrix(0.05 0 0 0.05 -117 -456)" d="M 16194.3,10165.8 L 16178.8,10157.2 L 16178.5,10139.1 L 16680.3,9827.35 L 16697.1,9854.54 L 16194.3,10165.8 Z " />
<text x="0" y="0" stroke="none" fill="#000000" transform="matrix(0.05 0 0 0.05 661.629 11.1637)" font-style="normal" font-weight="normal" font-size="240px" font-family="Helvetica" >
Nu</text>
<path stroke="none" fill="#0000ff" transform="matrix(0.05 0 0 0.05 -117 -456)" d="M 15674.6,9848.15 L 15659.2,9857.2 L 15643.8,9848.15 L 15643.2,9382.12 L 15675.2,9382.13 L 15674.6,9848.15 Z " />
<text x="0" y="0" stroke="none" fill="#000000" transform="matrix(0.05 0 0 0.05 688.411 86.16)" font-style="normal" font-weight="normal" font-size="240px" font-family="Helvetica" >
E</text>
<path stroke="none" fill="#0000ff" transform="matrix(0.05 0 0 0.05 -117 -456)" d="M 16163.5,10166.3 L 16178.8,10157.2 L 16194.3,10165.8 L 16202.3,10629.8 L 16170.3,10630.3 L 16163.5,10166.3 Z " />
</svg>
