<?xml version="1.0" standalone="no" ?>
<!DOCTYPE svg PUBLIC "-//W3C//DTD SVG 1.1//EN" "http://www.w3.org/Graphics/SVG/1.1/DTD/svg11.dtd">
<svg width="684px" height="93px" viewBox="0 0 684 93" style="background-color: #ffffff00" xmlns="http://www.w3.org/2000/svg" xmlns:xlink="http://www.w3.org/1999/xlink" version="1.1" >
<path stroke="none" fill="#0000ff" transform="matrix(0.05 0 0 0.05 -117 -456)" d="M 2407.4,10231.1 L 2391.4,10203.3 L 2919.2,9898.14 L 2919.2,9935.12 L 2407.4,10231.1 Z " />
<path stroke="none" fill="#0000ff" transform="matrix(0.05 0 0 0.05 -117 -456)" d="M 2919.2,9935.12 L 2919.2,9898.14 L 3446.8,10203.3 L 3430.8,10231.1 L 2919.2,9935.12 Z " />
<path stroke="none" fill="#0000ff" transform="matrix(0.05 0 0 0.05 -117 -456)" d="M 2911.19,10035 L 2927.19,10007.3 L 3401.8,10281.3 L 3385.8,10309 L 2911.19,10035 Z " />
<path stroke="none" fill="#0000ff" transform="matrix(0.05 0 0 0.05 -117 -456)" d="M 5476,10141 L 4375,10141 L 4375,10109 L 5476,10109 Z " />
<path stroke="none" fill="#0000ff" transform="matrix(0.05 0 0 0.05 -117 -456)" d="M 5755,10125 C 5755,10125 5435,10206 5435,10206 C 5435,10206 5475,10160.4 5475,10125 C 5475,10089.1 5435,10043 5435,10043 C 5435,10043 5755,10125 5755,10125 C 5755,10125 5755,10125 5755,10125 " />
<path stroke="#0000ff" stroke-width="1" fill="none" transform="matrix(0.05 0 0 0.05 -117 -456)" d="M 5755,10125 C 5755,10125 5435,10206 5435,10206 C 5435,10206 5475,10160.4 5475,10125 C 5475,10089.1 5435,10043 5435,10043 C 5435,10043 5755,10125 5755,10125 C 5755,10125 5755,10125 5755,10125 " />
<text x="0" y="0" stroke="none" fill="#000000" transform="matrix(0.05 0 0 0.05 109.038 36.9978)" font-style="normal" font-weight="normal" font-size="240px" font-family="Arial" >
Br</text>
<text x="0" y="0" stroke="none" fill="#000000" transform="matrix(0.05 0 0 0.05 144.707 36.9978)" font-style="normal" font-weight="normal" font-size="240px" font-family="Arial" >
Cl</text>
<path stroke="none" fill="#0000ff" transform="matrix(0.05 0 0 0.05 -117 -456)" d="M 4803.34,9790 L 4803.34,9758 L 5205.09,9758 L 5205.09,9790 L 4803.34,9790 Z " />
<path stroke="#00ff00" stroke-width="32" fill="none" transform="matrix(0.05 0 0 0.05 -117 -456)" d="M 4236.51,9646.8 C 3835.3,9531.71 3373.17,9718.37 3164.44,10079.8 " />
<path stroke="none" fill="#00ff00" transform="matrix(0.05 0 0 0.05 -117 -456)" d="M 4447.17,9736.24 C 4447.17,9736.24 4179.85,9695.21 4179.85,9695.21 C 4179.85,9695.21 4224.63,9674.15 4236.51,9646.8 C 4248.38,9619.45 4232.97,9572.83 4232.97,9572.83 C 4232.97,9572.83 4447.17,9736.24 4447.17,9736.24 C 4447.17,9736.24 4447.17,9736.24 4447.17,9736.24 " />
<path stroke="#00ff00" stroke-width="1" fill="none" transform="matrix(0.05 0 0 0.05 -117 -456)" d="M 4447.17,9736.24 C 4447.17,9736.24 4179.85,9695.21 4179.85,9695.21 C 4179.85,9695.21 4224.63,9674.15 4236.51,9646.8 C 4248.38,9619.45 4232.97,9572.83 4232.97,9572.83 C 4232.97,9572.83 4447.17,9736.24 4447.17,9736.24 C 4447.17,9736.24 4447.17,9736.24 4447.17,9736.24 " />
<path stroke="#00ff00" stroke-width="32" fill="none" transform="matrix(0.05 0 0 0.05 -117 -456)" d="M 5276.35,9356.54 C 5195,9231.36 5027.3,9195.73 4902.03,9277.02 C 4776.76,9358.3 4741.11,9525.89 4822.45,9651.06 C 4858.48,9706.5 4915.45,9747.87 4979.35,9764.98 " />
<path stroke="none" fill="#00ff00" transform="matrix(0.05 0 0 0.05 -117 -456)" d="M 5310.78,9573.79 C 5310.78,9573.79 5208.36,9336.34 5208.36,9336.34 C 5208.36,9336.34 5249.25,9361.19 5276.35,9356.54 C 5303.45,9351.88 5334.5,9314.66 5334.5,9314.66 C 5334.5,9314.66 5310.78,9573.79 5310.78,9573.79 C 5310.78,9573.79 5310.78,9573.79 5310.78,9573.79 " />
<path stroke="#00ff00" stroke-width="1" fill="none" transform="matrix(0.05 0 0 0.05 -117 -456)" d="M 5310.78,9573.79 C 5310.78,9573.79 5208.36,9336.34 5208.36,9336.34 C 5208.36,9336.34 5249.25,9361.19 5276.35,9356.54 C 5303.45,9351.88 5334.5,9314.66 5334.5,9314.66 C 5334.5,9314.66 5310.78,9573.79 5310.78,9573.79 C 5310.78,9573.79 5310.78,9573.79 5310.78,9573.79 " />
<path stroke="none" fill="#0000ff" transform="matrix(0.05 0 0 0.05 -117 -456)" d="M 7197.4,10428.5 L 7181.4,10456.3 L 6670.08,10160.5 L 6669.8,10142.4 L 6685.17,10133.3 L 7197.4,10428.5 Z " />
<path stroke="none" fill="#0000ff" transform="matrix(0.05 0 0 0.05 -117 -456)" d="M 6654.37,10133.7 L 6669.8,10142.4 L 6670.08,10160.5 L 6168.23,10472.2 L 6151.37,10445 L 6654.37,10133.7 Z " />
<path stroke="#0000ff" stroke-width="26" fill="none" transform="matrix(0.05 0 0 0.05 -117 -456)" d="M 7083.6,10591.2 A 92.7999,92.7999 0 1 0 7269.2,10591.2A 92.7999,92.7999 0 1 0 7083.6,10591.2Z " />
<path stroke="none" fill="#0000ff" transform="matrix(0.05 0 0 0.05 -117 -456)" d="M 7120.4,10578.2 L 7232.4,10578.2 L 7232.4,10604.2 L 7120.4,10604.2 Z " />
<path stroke="none" fill="#0000ff" transform="matrix(0.05 0 0 0.05 -117 -456)" d="M 7189.4,10535.2 L 7189.4,10647.2 L 7163.4,10647.2 L 7163.4,10535.2 Z " />
<text x="0" y="0" stroke="none" fill="#000000" transform="matrix(0.05 0 0 0.05 212.418 25.4237)" font-style="normal" font-weight="normal" font-size="240px" font-family="Helvetica" >
Br</text>
<path stroke="none" fill="#0000ff" transform="matrix(0.05 0 0 0.05 -117 -456)" d="M 6685.17,10133.3 L 6669.8,10142.4 L 6654.37,10133.7 L 6652.69,9667.36 L 6684.69,9667.29 L 6685.17,10133.3 Z " />
<path stroke="none" fill="#0000ff" transform="matrix(0.05 0 0 0.05 -117 -456)" d="M 6836.6,9585.4 A 20.0012,20.0012 0 1 0 6876.6,9585.4A 20.0012,20.0012 0 1 0 6836.6,9585.4Z " />
<path stroke="none" fill="#0000ff" transform="matrix(0.05 0 0 0.05 -117 -456)" d="M 6835.6,9495.4 A 20.0012,20.0012 0 1 0 6875.6,9495.4A 20.0012,20.0012 0 1 0 6835.6,9495.4Z " />
<path stroke="#00ff00" stroke-width="32" fill="none" transform="matrix(0.05 0 0 0.05 -117 -456)" d="M 7276.24,10199 C 7355.06,9919.69 7192.32,9628.99 6913.01,9550.16 C 6898.29,9546.01 6883.39,9542.5 6868.36,9539.64 " />
<path stroke="none" fill="#00ff00" transform="matrix(0.05 0 0 0.05 -117 -456)" d="M 7168.47,10399.5 C 7168.47,10399.5 7233.35,10138.6 7233.35,10138.6 C 7233.35,10138.6 7250.33,10184.9 7276.24,10199 C 7302.14,10213.1 7349.91,10202.2 7349.91,10202.2 C 7349.91,10202.2 7168.47,10399.5 7168.47,10399.5 C 7168.47,10399.5 7168.47,10399.5 7168.47,10399.5 " />
<path stroke="#00ff00" stroke-width="1" fill="none" transform="matrix(0.05 0 0 0.05 -117 -456)" d="M 7168.47,10399.5 C 7168.47,10399.5 7233.35,10138.6 7233.35,10138.6 C 7233.35,10138.6 7250.33,10184.9 7276.24,10199 C 7302.14,10213.1 7349.91,10202.2 7349.91,10202.2 C 7349.91,10202.2 7168.47,10399.5 7168.47,10399.5 C 7168.47,10399.5 7168.47,10399.5 7168.47,10399.5 " />
<path stroke="none" fill="#0000ff" transform="matrix(0.05 0 0 0.05 -117 -456)" d="M 8901,10096 L 8200,10096 L 8200,10064 L 8901,10064 Z " />
<path stroke="none" fill="#0000ff" transform="matrix(0.05 0 0 0.05 -117 -456)" d="M 9180,10080 C 9180,10080 8860,10161 8860,10161 C 8860,10161 8900,10115.4 8900,10080 C 8900,10044.1 8860,9998 8860,9998 C 8860,9998 9180,10080 9180,10080 C 9180,10080 9180,10080 9180,10080 " />
<path stroke="#0000ff" stroke-width="1" fill="none" transform="matrix(0.05 0 0 0.05 -117 -456)" d="M 9180,10080 C 9180,10080 8860,10161 8860,10161 C 8860,10161 8900,10115.4 8900,10080 C 8900,10044.1 8860,9998 8860,9998 C 8860,9998 9180,10080 9180,10080 C 9180,10080 9180,10080 9180,10080 " />
<path stroke="none" fill="#0000ff" transform="matrix(0.05 0 0 0.05 -117 -456)" d="M 10087.2,10075.6 L 10080,10060 L 10105.5,10045.4 L 10655.6,10045.3 L 10680,10060 L 10674.7,10075.7 L 10087.2,10075.6 Z " />
<text x="0" y="0" stroke="none" fill="#000000" transform="matrix(0.05 0 0 0.05 398.598 25.6737)" font-style="normal" font-weight="normal" font-size="240px" font-family="Helvetica" >
Br</text>
<path stroke="none" fill="#0000ff" transform="matrix(0.05 0 0 0.05 -117 -456)" d="M 10105.5,10045.4 L 10080,10060 L 10066.3,10051.7 L 10302.7,9663.35 L 10330,9679.99 L 10105.5,10045.4 Z " />
<path stroke="none" fill="#0000ff" transform="matrix(0.05 0 0 0.05 -117 -456)" d="M 10693.9,10052.2 L 10680,10060 L 10655.6,10045.3 L 10460.7,9702.34 L 10488.6,9686.67 L 10693.9,10052.2 Z " />
<path stroke="#0000ff" stroke-width="26" fill="none" transform="matrix(0.05 0 0 0.05 -117 -456)" d="M 10317.8,9312.4 A 92.7999,92.7999 0 1 0 10503.4,9312.4A 92.7999,92.7999 0 1 0 10317.8,9312.4Z " />
<path stroke="none" fill="#0000ff" transform="matrix(0.05 0 0 0.05 -117 -456)" d="M 10354.6,9299.4 L 10466.6,9299.4 L 10466.6,9325.4 L 10354.6,9325.4 Z " />
<path stroke="none" fill="#0000ff" transform="matrix(0.05 0 0 0.05 -117 -456)" d="M 10423.6,9256.4 L 10423.6,9368.4 L 10397.6,9368.4 L 10397.6,9256.4 Z " />
<text x="0" y="0" stroke="none" fill="#0000ff" transform="matrix(0.05 0 0 0.05 356.517 66.0137)" font-style="normal" font-weight="normal" font-size="240px" font-family="Helvetica" >
H</text>
<path stroke="none" fill="#0000ff" transform="matrix(0.05 0 0 0.05 -117 -456)" d="M 10025,10072.6 L 10040.7,10100.5 L 10014.5,10119.2 L 9995.4,10085.2 L 10025,10072.6 Z " />
<path stroke="none" fill="#0000ff" transform="matrix(0.05 0 0 0.05 -117 -456)" d="M 9967.67,10097.1 L 9989.98,10136.7 L 9963.8,10155.5 L 9938.07,10109.7 L 9967.67,10097.1 Z " />
<path stroke="none" fill="#0000ff" transform="matrix(0.05 0 0 0.05 -117 -456)" d="M 9910.35,10121.6 L 9939.28,10173 L 9913.1,10191.7 L 9880.75,10134.2 L 9910.35,10121.6 Z " />
<path stroke="none" fill="#0000ff" transform="matrix(0.05 0 0 0.05 -117 -456)" d="M 9853.03,10146.1 L 9888.58,10209.3 L 9862.4,10228 L 9823.43,10158.7 L 9853.03,10146.1 Z " />
<path stroke="none" fill="#0000ff" transform="matrix(0.05 0 0 0.05 -117 -456)" d="M 9795.71,10170.6 L 9837.88,10245.5 L 9811.7,10264.3 L 9766.11,10183.2 L 9795.71,10170.6 Z " />
<path stroke="none" fill="#0000ff" transform="matrix(0.05 0 0 0.05 -117 -456)" d="M 9738.39,10195.1 L 9787.18,10281.8 L 9761,10300.5 L 9708.79,10207.7 L 9738.39,10195.1 Z " />
<path stroke="none" fill="#0000ff" transform="matrix(0.05 0 0 0.05 -117 -456)" d="M 9681.06,10219.6 L 9736.48,10318.1 L 9710.3,10336.8 L 9651.47,10232.2 L 9681.06,10219.6 Z " />
<text x="0" y="0" stroke="none" fill="#0000ff" transform="matrix(0.05 0 0 0.05 440.237 63.1237)" font-style="normal" font-weight="normal" font-size="240px" font-family="Helvetica" >
H</text>
<path stroke="none" fill="#0000ff" transform="matrix(0.05 0 0 0.05 -117 -456)" d="M 10723.4,10096 L 10736,10066.6 L 10766.7,10076 L 10751.4,10111.8 L 10723.4,10096 Z " />
<path stroke="none" fill="#0000ff" transform="matrix(0.05 0 0 0.05 -117 -456)" d="M 10778.4,10126.9 L 10796.3,10085.1 L 10827.1,10094.5 L 10806.4,10142.7 L 10778.4,10126.9 Z " />
<path stroke="none" fill="#0000ff" transform="matrix(0.05 0 0 0.05 -117 -456)" d="M 10833.3,10157.9 L 10856.6,10103.6 L 10887.4,10113 L 10861.4,10173.6 L 10833.3,10157.9 Z " />
<path stroke="none" fill="#0000ff" transform="matrix(0.05 0 0 0.05 -117 -456)" d="M 10888.3,10188.8 L 10916.9,10122.1 L 10947.7,10131.5 L 10916.4,10204.6 L 10888.3,10188.8 Z " />
<path stroke="none" fill="#0000ff" transform="matrix(0.05 0 0 0.05 -117 -456)" d="M 10943.3,10219.7 L 10977.2,10140.6 L 11008,10150 L 10971.4,10235.5 L 10943.3,10219.7 Z " />
<path stroke="none" fill="#0000ff" transform="matrix(0.05 0 0 0.05 -117 -456)" d="M 10998.3,10250.6 L 11037.5,10159.1 L 11068.3,10168.6 L 11026.4,10266.4 L 10998.3,10250.6 Z " />
<path stroke="none" fill="#0000ff" transform="matrix(0.05 0 0 0.05 -117 -456)" d="M 11053.3,10281.6 L 11097.9,10177.6 L 11128.6,10187.1 L 11081.3,10297.4 L 11053.3,10281.6 Z " />
<path stroke="none" fill="#0000ff" transform="matrix(0.05 0 0 0.05 -117 -456)" d="M 10066.9,10050.8 L 10080,10060 L 10087.2,10075.6 L 9782.16,10584.3 L 9684.24,10514.9 L 10066.9,10050.8 Z " />
<text x="0" y="0" stroke="none" fill="#0000ff" transform="matrix(0.05 0 0 0.05 433.477 72.9137)" font-style="normal" font-weight="normal" font-size="240px" font-family="Helvetica" >
H</text>
<path stroke="none" fill="#0000ff" transform="matrix(0.05 0 0 0.05 -117 -456)" d="M 10674.7,10075.7 L 10680,10060 L 10691.5,10048.9 L 11035.1,10342.2 L 10948.6,10425.5 L 10674.7,10075.7 Z " />
<path stroke="none" fill="#0000ff" transform="matrix(0.05 0 0 0.05 -117 -456)" d="M 12264.1,10066 L 11675,10066 L 11675,10034 L 12264.1,10034 Z " />
<path stroke="none" fill="#0000ff" transform="matrix(0.05 0 0 0.05 -117 -456)" d="M 12425,10050 C 12425,10050 12240,10115 12240,10115 C 12240,10115 12263.1,10078.5 12263.1,10050 C 12263.1,10021.1 12240,9984 12240,9984 C 12240,9984 12425,10050 12425,10050 C 12425,10050 12425,10050 12425,10050 " />
<path stroke="#0000ff" stroke-width="1" fill="none" transform="matrix(0.05 0 0 0.05 -117 -456)" d="M 12425,10050 C 12425,10050 12240,10115 12240,10115 C 12240,10115 12263.1,10078.5 12263.1,10050 C 12263.1,10021.1 12240,9984 12240,9984 C 12240,9984 12425,10050 12425,10050 C 12425,10050 12425,10050 12425,10050 " />
<text x="0" y="0" stroke="none" fill="#0000ff" transform="matrix(0.05 0 0 0.05 475.75 37.5)" font-style="normal" font-weight="normal" font-size="240px" font-family="Times New Roman" >
Nu</text>
<text x="0" y="0" stroke="none" fill="#0000ff" transform="matrix(0.05 0 0 0.05 490.416 33.5273)" font-style="normal" font-weight="normal" font-size="180px" font-family="Times New Roman" >
-</text>
<path stroke="none" fill="#0000ff" transform="matrix(0.05 0 0 0.05 -117 -456)" d="M 11790,9787.4 A 19.9556,19.9556 0 1 0 11830,9787.4A 19.9556,19.9556 0 1 0 11790,9787.4Z " />
<path stroke="none" fill="#0000ff" transform="matrix(0.05 0 0 0.05 -117 -456)" d="M 11789.8,9697.6 A 19.9556,19.9556 0 1 0 11829.8,9697.6A 19.9556,19.9556 0 1 0 11789.8,9697.6Z " />
<path stroke="#00ff00" stroke-width="32" fill="none" transform="matrix(0.05 0 0 0.05 -117 -456)" d="M 10214.5,10326.1 C 10427.6,10737.6 10934.6,10898.7 11346.1,10685.5 C 11673.1,10516.2 11859,10119.6 11780.1,9759.98 " />
<path stroke="none" fill="#00ff00" transform="matrix(0.05 0 0 0.05 -117 -456)" d="M 10139.9,10120 C 10139.9,10120 10285,10333.3 10285,10333.3 C 10285,10333.3 10240.1,10316.6 10214.5,10326.1 C 10188.8,10335.7 10165.2,10377.9 10165.2,10377.9 C 10165.2,10377.9 10139.9,10120 10139.9,10120 C 10139.9,10120 10139.9,10120 10139.9,10120 " />
<path stroke="#00ff00" stroke-width="1" fill="none" transform="matrix(0.05 0 0 0.05 -117 -456)" d="M 10139.9,10120 C 10139.9,10120 10285,10333.3 10285,10333.3 C 10285,10333.3 10240.1,10316.6 10214.5,10326.1 C 10188.8,10335.7 10165.2,10377.9 10165.2,10377.9 C 10165.2,10377.9 10139.9,10120 10139.9,10120 C 10139.9,10120 10139.9,10120 10139.9,10120 " />
<path stroke="#00ff00" stroke-width="32" fill="none" transform="matrix(0.05 0 0 0.05 -117 -456)" d="M 11700,9640.06 C 11445.3,9441.15 11077.2,9486.39 10878.3,9741.04 C 10861.6,9762.35 10846.4,9784.81 10832.9,9808.22 " />
<path stroke="none" fill="#00ff00" transform="matrix(0.05 0 0 0.05 -117 -456)" d="M 10759.9,10020 C 10759.9,10020 10781.8,9756.11 10781.8,9756.11 C 10781.8,9756.11 10806,9798.66 10832.9,9808.22 C 10859.8,9817.78 10904.8,9799.83 10904.8,9799.83 C 10904.8,9799.83 10759.9,10020 10759.9,10020 C 10759.9,10020 10759.9,10020 10759.9,10020 " />
<path stroke="#00ff00" stroke-width="1" fill="none" transform="matrix(0.05 0 0 0.05 -117 -456)" d="M 10759.9,10020 C 10759.9,10020 10781.8,9756.11 10781.8,9756.11 C 10781.8,9756.11 10806,9798.66 10832.9,9808.22 C 10859.8,9817.78 10904.8,9799.83 10904.8,9799.83 C 10904.8,9799.83 10759.9,10020 10759.9,10020 C 10759.9,10020 10759.9,10020 10759.9,10020 " />
<path stroke="none" fill="#0000ff" transform="matrix(0.05 0 0 0.05 -117 -456)" d="M 12787.4,10211.1 L 12771.4,10183.3 L 13283.8,9888.15 L 13299.2,9897.2 L 13299.2,9915.12 L 12787.4,10211.1 Z " />
<path stroke="none" fill="#0000ff" transform="matrix(0.05 0 0 0.05 -117 -456)" d="M 13299.2,9915.12 L 13299.2,9897.2 L 13314.6,9888.15 L 13835.3,10187.7 L 13803.5,10206.3 L 13299.2,9915.12 Z " />
<path stroke="#0000ff" stroke-width="32" fill="none" transform="matrix(0.05 0 0 0.05 -117 -456)" d="M 7738.27,9180 L 7860,9180 " />
<path stroke="#0000ff" stroke-width="32" fill="none" transform="matrix(0.05 0 0 0.05 -117 -456)" d="M 7860,9180 L 7860,10860 " />
<path stroke="#0000ff" stroke-width="32" fill="none" transform="matrix(0.05 0 0 0.05 -117 -456)" d="M 7860,10860 L 7738.27,10860 " />
<text x="0" y="0" stroke="none" fill="#0000ff" transform="matrix(0.05 0 0 0.05 279.9 90.1882)" font-style="normal" font-weight="normal" font-size="180px" font-family="Helvetica" >
Do </text>
<text x="0" y="0" stroke="none" fill="#0000ff" transform="matrix(0.05 0 0 0.05 293.905 90.1882)" font-style="normal" font-weight="normal" font-size="180px" font-family="Helvetica" >
not </text>
<text x="0" y="0" stroke="none" fill="#0000ff" transform="matrix(0.05 0 0 0.05 308.917 90.1882)" font-style="normal" font-weight="normal" font-size="180px" font-family="Helvetica" >
form</text>
<path stroke="#0000ff" stroke-width="32" fill="none" transform="matrix(0.05 0 0 0.05 -117 -456)" d="M 6101.73,10860 L 5980,10860 " />
<path stroke="#0000ff" stroke-width="32" fill="none" transform="matrix(0.05 0 0 0.05 -117 -456)" d="M 5980,10860 L 5980,9180 " />
<path stroke="#0000ff" stroke-width="32" fill="none" transform="matrix(0.05 0 0 0.05 -117 -456)" d="M 5980,9180 L 6101.73,9180 " />
<text x="0" y="0" stroke="none" fill="#000000" transform="matrix(0.05 0 0 0.05 543.958 13.1637)" font-style="normal" font-weight="normal" font-size="240px" font-family="Helvetica" >
Br</text>
<path stroke="none" fill="#0000ff" transform="matrix(0.05 0 0 0.05 -117 -456)" d="M 13314.6,9888.15 L 13299.2,9897.2 L 13283.8,9888.15 L 13283.2,9422.13 L 13315.2,9422.13 L 13314.6,9888.15 Z " />
<text x="0" y="0" stroke="none" fill="#0000ff" transform="matrix(0.05 0 0 0.05 570.077 88.1637)" font-style="normal" font-weight="normal" font-size="240px" font-family="Helvetica" >
Cl</text>
<path stroke="none" fill="#0000ff" transform="matrix(0.05 0 0 0.05 -117 -456)" d="M 13803.5,10206.3 L 13835.3,10187.7 L 13842.2,10668.6 L 13810.2,10669.1 L 13803.5,10206.3 Z " />
<text x="0" y="0" stroke="none" fill="#0000ff" transform="matrix(0.05 0 0 0.05 598 41)" font-style="normal" font-weight="normal" font-size="320px" font-family="Helvetica" >
+</text>
<path stroke="none" fill="#0000ff" transform="matrix(0.05 0 0 0.05 -117 -456)" d="M 14767.4,10171.1 L 14751.4,10143.3 L 15263.8,9848.14 L 15279.2,9857.2 L 15279.2,9875.12 L 14767.4,10171.1 Z " />
<path stroke="none" fill="#0000ff" transform="matrix(0.05 0 0 0.05 -117 -456)" d="M 15279.2,9875.12 L 15279.2,9857.2 L 15294.6,9848.15 L 15815.3,10147.7 L 15783.5,10166.3 L 15279.2,9875.12 Z " />
<text x="0" y="0" stroke="none" fill="#000000" transform="matrix(0.05 0 0 0.05 642.627 11.1637)" font-style="normal" font-weight="normal" font-size="240px" font-family="Helvetica" >
Cl</text>
<path stroke="none" fill="#0000ff" transform="matrix(0.05 0 0 0.05 -117 -456)" d="M 15294.6,9848.15 L 15279.2,9857.2 L 15263.8,9848.14 L 15263.2,9390.78 L 15295.2,9390.78 L 15294.6,9848.15 Z " />
<text x="0" y="0" stroke="none" fill="#000000" transform="matrix(0.05 0 0 0.05 669.408 86.1637)" font-style="normal" font-weight="normal" font-size="240px" font-family="Helvetica" >
Br</text>
<path stroke="none" fill="#0000ff" transform="matrix(0.05 0 0 0.05 -117 -456)" d="M 15783.5,10166.3 L 15815.3,10147.7 L 15822.2,10629.9 L 15790.2,10630.4 L 15783.5,10166.3 Z " />
</svg>
