<?xml version="1.0" standalone="no" ?>
<!DOCTYPE svg PUBLIC "-//W3C//DTD SVG 1.1//EN" "http://www.w3.org/Graphics/SVG/1.1/DTD/svg11.dtd">
<svg width="58px" height="66px" viewBox="0 0 58 66" style="background-color: #ffffff00" xmlns="http://www.w3.org/2000/svg" xmlns:xlink="http://www.w3.org/1999/xlink" version="1.1" >
<path stroke="none" fill="#0000ff" transform="matrix(0.05 0 0 0.05 -113 -97)" d="M 2303.86,2290.46 L 2335.92,2308.97 L 2335.92,2891.03 L 2303.86,2909.54 L 2303.86,2290.46 Z " />
<path stroke="none" fill="#0000ff" transform="matrix(0.05 0 0 0.05 -113 -97)" d="M 2303.86,2909.54 L 2335.92,2891.03 L 2840,3182.06 L 2840,3219.08 L 2303.86,2909.54 Z " />
<path stroke="none" fill="#0000ff" transform="matrix(0.05 0 0 0.05 -113 -97)" d="M 2840,3219.08 L 2840,3182.06 L 3344.08,2891.03 L 3376.14,2909.54 L 2840,3219.08 Z " />
<path stroke="none" fill="#0000ff" transform="matrix(0.05 0 0 0.05 -113 -97)" d="M 3376.14,2909.54 L 3344.08,2891.03 L 3344.08,2308.97 L 3376.14,2290.46 L 3376.14,2909.54 Z " />
<path stroke="none" fill="#0000ff" transform="matrix(0.05 0 0 0.05 -113 -97)" d="M 3376.14,2290.46 L 3344.08,2308.97 L 2840,2017.94 L 2840,1980.92 L 3376.14,2290.46 Z " />
<path stroke="none" fill="#0000ff" transform="matrix(0.05 0 0 0.05 -113 -97)" d="M 2840,1980.92 L 2840,2017.94 L 2335.92,2308.97 L 2303.86,2290.46 L 2840,1980.92 Z " />
</svg>
