<?xml version="1.0" standalone="no" ?>
<!DOCTYPE svg PUBLIC "-//W3C//DTD SVG 1.1//EN" "http://www.w3.org/Graphics/SVG/1.1/DTD/svg11.dtd">
<svg width="1009px" height="674px" viewBox="0 0 1009 674" style="background-color: #ffffff00" xmlns="http://www.w3.org/2000/svg" xmlns:xlink="http://www.w3.org/1999/xlink" version="1.1" >
<text x="0" y="0" stroke="none" fill="#000000" transform="matrix(0.05 0 0 0.05 377.639 287.357)" font-style="normal" font-weight="normal" font-size="200px" font-family="Arial" >
R</text>
<text x="0" y="0" stroke="none" fill="#000000" transform="matrix(0.05 0 0 0.05 407.915 287.357)" font-style="normal" font-weight="normal" font-size="200px" font-family="Arial" >
X</text>
<path stroke="none" fill="#000000" transform="matrix(0.05 0 0 0.05 -50 -79)" d="M 8734.51,7265.5 L 8734.51,7245.5 L 9118.18,7245.5 L 9118.18,7265.5 L 8734.51,7265.5 Z " />
<path stroke="none" fill="#000000" transform="matrix(0.05 0 0 0.05 -50 -79)" d="M 10155.6,7300.07 L 11640.6,7300.07 L 11640.6,7320.07 L 10155.6,7320.07 Z " />
<path stroke="none" fill="#000000" transform="matrix(0.05 0 0 0.05 -50 -79)" d="M 11629.8,11468.8 L 11630.7,1943.2 L 11650.7,1943.2 L 11649.8,11468.8 Z " />
<text x="0" y="0" stroke="none" fill="#000000" transform="matrix(0.05 0 0 0.05 466.781 282.499)" font-style="normal" font-weight="normal" font-size="240px" font-family="Times New Roman" >
Substitution</text>
<path stroke="none" fill="#000000" transform="matrix(0.05 0 0 0.05 -50 -79)" d="M 14077.8,1953.2 L 11640.6,1953.2 L 11640.6,1933.2 L 14077.8,1933.2 Z " />
<path stroke="none" fill="#000000" transform="matrix(0.05 0 0 0.05 -50 -79)" d="M 14251.8,1943.2 C 14251.8,1943.2 14051.8,1994.2 14051.8,1994.2 C 14051.8,1994.2 14076.8,1965.51 14076.8,1943.2 C 14076.8,1920.45 14051.8,1891.2 14051.8,1891.2 C 14051.8,1891.2 14251.8,1943.2 14251.8,1943.2 C 14251.8,1943.2 14251.8,1943.2 14251.8,1943.2 " />
<path stroke="#000000" stroke-width="1" fill="none" transform="matrix(0.05 0 0 0.05 -50 -79)" d="M 14251.8,1943.2 C 14251.8,1943.2 14051.8,1994.2 14051.8,1994.2 C 14051.8,1994.2 14076.8,1965.51 14076.8,1943.2 C 14076.8,1920.45 14051.8,1891.2 14051.8,1891.2 C 14051.8,1891.2 14251.8,1943.2 14251.8,1943.2 C 14251.8,1943.2 14251.8,1943.2 14251.8,1943.2 " />
<text x="0" y="0" stroke="none" fill="#000000" transform="matrix(0.05 0 0 0.05 539.54 14.5102)" font-style="normal" font-weight="normal" font-size="240px" font-family="Times New Roman" >
 </text>
<text x="0" y="0" stroke="none" fill="#000000" transform="matrix(0.05 0 0 0.05 542.54 14.5102)" font-style="normal" font-weight="normal" font-size="240px" font-family="Times New Roman" >
 </text>
<text x="0" y="0" stroke="none" fill="#000000" transform="matrix(0.05 0 0 0.05 545.54 14.5102)" font-style="normal" font-weight="normal" font-size="240px" font-family="Times New Roman" >
 </text>
<text x="0" y="0" stroke="none" fill="#000000" transform="matrix(0.05 0 0 0.05 548.54 14.5102)" font-style="normal" font-weight="normal" font-size="240px" font-family="Times New Roman" >
 </text>
<text x="0" y="0" stroke="none" fill="#000000" transform="matrix(0.05 0 0 0.05 551.54 14.5102)" font-style="normal" font-weight="normal" font-size="240px" font-family="Times New Roman" >
OH</text>
<text x="0" y="0" stroke="none" fill="#000000" transform="matrix(0.05 0 0 0.05 568.873 10.5376)" font-style="normal" font-weight="normal" font-size="180px" font-family="Times New Roman" >
-</text>
<text x="0" y="0" stroke="none" fill="#000000" transform="matrix(0.05 0 0 0.05 571.87 14.5102)" font-style="normal" font-weight="normal" font-size="240px" font-family="Times New Roman" >
 </text>
<text x="0" y="0" stroke="none" fill="#000000" transform="matrix(0.05 0 0 0.05 574.87 14.5102)" font-style="normal" font-weight="normal" font-size="240px" font-family="Times New Roman" >
(aq)</text>
<text x="0" y="0" stroke="none" fill="#000000" transform="matrix(0.05 0 0 0.05 539.54 30.5765)" font-style="normal" font-weight="normal" font-size="240px" font-family="Times New Roman" >
or </text>
<text x="0" y="0" stroke="none" fill="#000000" transform="matrix(0.05 0 0 0.05 552.537 30.5765)" font-style="normal" font-weight="normal" font-size="240px" font-family="Times New Roman" >
Moist </text>
<text x="0" y="0" stroke="none" fill="#000000" transform="matrix(0.05 0 0 0.05 582.882 30.5765)" font-style="normal" font-weight="normal" font-size="240px" font-family="Times New Roman" >
Ag</text>
<text x="0" y="0" stroke="none" fill="#000000" transform="matrix(0.05 0 0 0.05 597.548 33.1723)" font-style="normal" font-weight="normal" font-size="180px" font-family="Times New Roman" >
2</text>
<text x="0" y="0" stroke="none" fill="#000000" transform="matrix(0.05 0 0 0.05 602.048 30.5765)" font-style="normal" font-weight="normal" font-size="240px" font-family="Times New Roman" >
O </text>
<text x="0" y="0" stroke="none" fill="#000000" transform="matrix(0.05 0 0 0.05 613.714 30.5765)" font-style="normal" font-weight="normal" font-size="240px" font-family="Times New Roman" >
=&gt; </text>
<text x="0" y="0" stroke="none" fill="#000000" transform="matrix(0.05 0 0 0.05 629.587 30.5765)" font-style="normal" font-weight="normal" font-size="240px" font-family="Times New Roman" >
AgOH</text>
<path stroke="none" fill="#000000" transform="matrix(0.05 0 0 0.05 -50 -79)" d="M 14151.6,4280.19 L 11655.6,4280.19 L 11655.6,4260.19 L 14151.6,4260.19 Z " />
<path stroke="none" fill="#000000" transform="matrix(0.05 0 0 0.05 -50 -79)" d="M 14325.6,4270.19 C 14325.6,4270.19 14125.6,4321.19 14125.6,4321.19 C 14125.6,4321.19 14150.6,4292.5 14150.6,4270.19 C 14150.6,4247.44 14125.6,4218.19 14125.6,4218.19 C 14125.6,4218.19 14325.6,4270.19 14325.6,4270.19 C 14325.6,4270.19 14325.6,4270.19 14325.6,4270.19 " />
<path stroke="#000000" stroke-width="1" fill="none" transform="matrix(0.05 0 0 0.05 -50 -79)" d="M 14325.6,4270.19 C 14325.6,4270.19 14125.6,4321.19 14125.6,4321.19 C 14125.6,4321.19 14150.6,4292.5 14150.6,4270.19 C 14150.6,4247.44 14125.6,4218.19 14125.6,4218.19 C 14125.6,4218.19 14325.6,4270.19 14325.6,4270.19 C 14325.6,4270.19 14325.6,4270.19 14325.6,4270.19 " />
<text x="0" y="0" stroke="none" fill="#000000" transform="matrix(0.05 0 0 0.05 573.498 130.682)" font-style="normal" font-weight="normal" font-size="240px" font-family="Times New Roman" >
RS</text>
<text x="0" y="0" stroke="none" fill="#000000" transform="matrix(0.05 0 0 0.05 588.176 126.709)" font-style="normal" font-weight="normal" font-size="180px" font-family="Times New Roman" >
-</text>
<text x="0" y="0" stroke="none" fill="#000000" transform="matrix(0.05 0 0 0.05 591.173 130.682)" font-style="normal" font-weight="normal" font-size="240px" font-family="Times New Roman" >
Na</text>
<text x="0" y="0" stroke="none" fill="#000000" transform="matrix(0.05 0 0 0.05 605.165 126.709)" font-style="normal" font-weight="normal" font-size="180px" font-family="Times New Roman" >
+</text>
<path stroke="none" fill="#000000" transform="matrix(0.05 0 0 0.05 -50 -79)" d="M 14136.6,5070.22 L 11640.6,5070.22 L 11640.6,5050.22 L 14136.6,5050.22 Z " />
<path stroke="none" fill="#000000" transform="matrix(0.05 0 0 0.05 -50 -79)" d="M 14310.6,5060.22 C 14310.6,5060.22 14110.6,5111.22 14110.6,5111.22 C 14110.6,5111.22 14135.6,5082.54 14135.6,5060.22 C 14135.6,5037.47 14110.6,5008.22 14110.6,5008.22 C 14110.6,5008.22 14310.6,5060.22 14310.6,5060.22 C 14310.6,5060.22 14310.6,5060.22 14310.6,5060.22 " />
<path stroke="#000000" stroke-width="1" fill="none" transform="matrix(0.05 0 0 0.05 -50 -79)" d="M 14310.6,5060.22 C 14310.6,5060.22 14110.6,5111.22 14110.6,5111.22 C 14110.6,5111.22 14135.6,5082.54 14135.6,5060.22 C 14135.6,5037.47 14110.6,5008.22 14110.6,5008.22 C 14110.6,5008.22 14310.6,5060.22 14310.6,5060.22 C 14310.6,5060.22 14310.6,5060.22 14310.6,5060.22 " />
<text x="0" y="0" stroke="none" fill="#000000" transform="matrix(0.05 0 0 0.05 683.389 22.8678)" font-style="normal" font-weight="normal" font-size="200px" font-family="Arial" >
R</text>
<text x="0" y="0" stroke="none" fill="#000000" transform="matrix(0.05 0 0 0.05 712.361 22.8678)" font-style="normal" font-weight="normal" font-size="200px" font-family="Arial" >
OH</text>
<path stroke="none" fill="#000000" transform="matrix(0.05 0 0 0.05 -50 -79)" d="M 14849.5,1975.72 L 14849.5,1955.72 L 15216.9,1955.72 L 15216.9,1975.72 L 14849.5,1975.72 Z " />
<text x="0" y="0" stroke="none" fill="#000000" transform="matrix(0.05 0 0 0.05 683.389 138.616)" font-style="normal" font-weight="normal" font-size="200px" font-family="Arial" >
R</text>
<text x="0" y="0" stroke="none" fill="#000000" transform="matrix(0.05 0 0 0.05 713.663 139.007)" font-style="normal" font-weight="normal" font-size="240px" font-family="Times New Roman" >
SR&apos;</text>
<path stroke="none" fill="#000000" transform="matrix(0.05 0 0 0.05 -50 -79)" d="M 14849.5,4290.69 L 14849.5,4270.69 L 15247.3,4270.69 L 15247.3,4290.69 L 14849.5,4290.69 Z " />
<text x="0" y="0" stroke="none" fill="#000000" transform="matrix(0.05 0 0 0.05 682.639 178.868)" font-style="normal" font-weight="normal" font-size="200px" font-family="Arial" >
R</text>
<text x="0" y="0" stroke="none" fill="#000000" transform="matrix(0.05 0 0 0.05 712.361 178.868)" font-style="normal" font-weight="normal" font-size="200px" font-family="Arial" >
OCOR&apos;</text>
<path stroke="none" fill="#000000" transform="matrix(0.05 0 0 0.05 -50 -79)" d="M 14834.5,5095.72 L 14834.5,5075.72 L 15216.9,5075.72 L 15216.9,5095.72 L 14834.5,5095.72 Z " />
<text x="0" y="0" stroke="none" fill="#000000" transform="matrix(0.05 0 0 0.05 572.531 168.011)" font-style="normal" font-weight="normal" font-size="240px" font-family="Times New Roman" >
R&apos;COO</text>
<text x="0" y="0" stroke="none" fill="#000000" transform="matrix(0.05 0 0 0.05 608.033 164.039)" font-style="normal" font-weight="normal" font-size="180px" font-family="Times New Roman" >
-</text>
<text x="0" y="0" stroke="none" fill="#000000" transform="matrix(0.05 0 0 0.05 611.031 168.011)" font-style="normal" font-weight="normal" font-size="240px" font-family="Times New Roman" >
Ag</text>
<text x="0" y="0" stroke="none" fill="#000000" transform="matrix(0.05 0 0 0.05 625.697 164.039)" font-style="normal" font-weight="normal" font-size="180px" font-family="Times New Roman" >
+</text>
<path stroke="none" fill="#000000" transform="matrix(0.05 0 0 0.05 -50 -79)" d="M 14136.6,5895.22 L 11640.6,5895.22 L 11640.6,5875.22 L 14136.6,5875.22 Z " />
<path stroke="none" fill="#000000" transform="matrix(0.05 0 0 0.05 -50 -79)" d="M 14310.6,5885.22 C 14310.6,5885.22 14110.6,5936.22 14110.6,5936.22 C 14110.6,5936.22 14135.6,5907.54 14135.6,5885.22 C 14135.6,5862.47 14110.6,5833.22 14110.6,5833.22 C 14110.6,5833.22 14310.6,5885.22 14310.6,5885.22 C 14310.6,5885.22 14310.6,5885.22 14310.6,5885.22 " />
<path stroke="#000000" stroke-width="1" fill="none" transform="matrix(0.05 0 0 0.05 -50 -79)" d="M 14310.6,5885.22 C 14310.6,5885.22 14110.6,5936.22 14110.6,5936.22 C 14110.6,5936.22 14135.6,5907.54 14135.6,5885.22 C 14135.6,5862.47 14110.6,5833.22 14110.6,5833.22 C 14110.6,5833.22 14310.6,5885.22 14310.6,5885.22 C 14310.6,5885.22 14310.6,5885.22 14310.6,5885.22 " />
<text x="0" y="0" stroke="none" fill="#000000" transform="matrix(0.05 0 0 0.05 682.639 220.118)" font-style="normal" font-weight="normal" font-size="200px" font-family="Arial" >
R</text>
<text x="0" y="0" stroke="none" fill="#000000" transform="matrix(0.05 0 0 0.05 712.639 220.118)" font-style="normal" font-weight="normal" font-size="200px" font-family="Arial" >
CN</text>
<path stroke="none" fill="#000000" transform="matrix(0.05 0 0 0.05 -50 -79)" d="M 14834.5,5920.72 L 14834.5,5900.72 L 15221.7,5900.72 L 15221.7,5920.72 L 14834.5,5920.72 Z " />
<text x="0" y="0" stroke="none" fill="#000000" transform="matrix(0.05 0 0 0.05 572.605 209.184)" font-style="normal" font-weight="normal" font-size="240px" font-family="Times New Roman" >
KCN</text>
<path stroke="none" fill="#000000" transform="matrix(0.05 0 0 0.05 -50 -79)" d="M 14136.6,6720.22 L 11640.6,6720.22 L 11640.6,6700.22 L 14136.6,6700.22 Z " />
<path stroke="none" fill="#000000" transform="matrix(0.05 0 0 0.05 -50 -79)" d="M 14310.6,6710.22 C 14310.6,6710.22 14110.6,6761.22 14110.6,6761.22 C 14110.6,6761.22 14135.6,6732.54 14135.6,6710.22 C 14135.6,6687.47 14110.6,6658.22 14110.6,6658.22 C 14110.6,6658.22 14310.6,6710.22 14310.6,6710.22 C 14310.6,6710.22 14310.6,6710.22 14310.6,6710.22 " />
<path stroke="#000000" stroke-width="1" fill="none" transform="matrix(0.05 0 0 0.05 -50 -79)" d="M 14310.6,6710.22 C 14310.6,6710.22 14110.6,6761.22 14110.6,6761.22 C 14110.6,6761.22 14135.6,6732.54 14135.6,6710.22 C 14135.6,6687.47 14110.6,6658.22 14110.6,6658.22 C 14110.6,6658.22 14310.6,6710.22 14310.6,6710.22 C 14310.6,6710.22 14310.6,6710.22 14310.6,6710.22 " />
<text x="0" y="0" stroke="none" fill="#000000" transform="matrix(0.05 0 0 0.05 682.639 261.368)" font-style="normal" font-weight="normal" font-size="200px" font-family="Arial" >
R</text>
<text x="0" y="0" stroke="none" fill="#000000" transform="matrix(0.05 0 0 0.05 711.917 261.759)" font-style="normal" font-weight="normal" font-size="240px" font-family="Times New Roman" >
NC</text>
<path stroke="none" fill="#000000" transform="matrix(0.05 0 0 0.05 -50 -79)" d="M 14834.5,6745.72 L 14834.5,6725.72 L 15194.2,6725.72 L 15194.2,6745.72 L 14834.5,6745.72 Z " />
<text x="0" y="0" stroke="none" fill="#000000" transform="matrix(0.05 0 0 0.05 572.605 250.434)" font-style="normal" font-weight="normal" font-size="240px" font-family="Times New Roman" >
AgCN</text>
<path stroke="none" fill="#000000" transform="matrix(0.05 0 0 0.05 -50 -79)" d="M 14136.6,7485.22 L 11640.6,7485.22 L 11640.6,7465.22 L 14136.6,7465.22 Z " />
<path stroke="none" fill="#000000" transform="matrix(0.05 0 0 0.05 -50 -79)" d="M 14310.6,7475.22 C 14310.6,7475.22 14110.6,7526.22 14110.6,7526.22 C 14110.6,7526.22 14135.6,7497.54 14135.6,7475.22 C 14135.6,7452.47 14110.6,7423.22 14110.6,7423.22 C 14110.6,7423.22 14310.6,7475.22 14310.6,7475.22 C 14310.6,7475.22 14310.6,7475.22 14310.6,7475.22 " />
<path stroke="#000000" stroke-width="1" fill="none" transform="matrix(0.05 0 0 0.05 -50 -79)" d="M 14310.6,7475.22 C 14310.6,7475.22 14110.6,7526.22 14110.6,7526.22 C 14110.6,7526.22 14135.6,7497.54 14135.6,7475.22 C 14135.6,7452.47 14110.6,7423.22 14110.6,7423.22 C 14110.6,7423.22 14310.6,7475.22 14310.6,7475.22 C 14310.6,7475.22 14310.6,7475.22 14310.6,7475.22 " />
<text x="0" y="0" stroke="none" fill="#000000" transform="matrix(0.05 0 0 0.05 682.639 299.618)" font-style="normal" font-weight="normal" font-size="200px" font-family="Arial" >
R</text>
<text x="0" y="0" stroke="none" fill="#000000" transform="matrix(0.05 0 0 0.05 711.917 300.009)" font-style="normal" font-weight="normal" font-size="240px" font-family="Times New Roman" >
ONO</text>
<path stroke="none" fill="#000000" transform="matrix(0.05 0 0 0.05 -50 -79)" d="M 14834.5,7510.72 L 14834.5,7490.72 L 15206.8,7490.72 L 15206.8,7510.72 L 14834.5,7510.72 Z " />
<text x="0" y="0" stroke="none" fill="#000000" transform="matrix(0.05 0 0 0.05 572.605 288.684)" font-style="normal" font-weight="normal" font-size="240px" font-family="Times New Roman" >
KNO</text>
<text x="0" y="0" stroke="none" fill="#000000" transform="matrix(0.05 0 0 0.05 598.603 291.28)" font-style="normal" font-weight="normal" font-size="180px" font-family="Times New Roman" >
2</text>
<path stroke="none" fill="#000000" transform="matrix(0.05 0 0 0.05 -50 -79)" d="M 14136.6,8310.22 L 11640.6,8310.22 L 11640.6,8290.22 L 14136.6,8290.22 Z " />
<path stroke="none" fill="#000000" transform="matrix(0.05 0 0 0.05 -50 -79)" d="M 14310.6,8300.22 C 14310.6,8300.22 14110.6,8351.22 14110.6,8351.22 C 14110.6,8351.22 14135.6,8322.54 14135.6,8300.22 C 14135.6,8277.47 14110.6,8248.22 14110.6,8248.22 C 14110.6,8248.22 14310.6,8300.22 14310.6,8300.22 C 14310.6,8300.22 14310.6,8300.22 14310.6,8300.22 " />
<path stroke="#000000" stroke-width="1" fill="none" transform="matrix(0.05 0 0 0.05 -50 -79)" d="M 14310.6,8300.22 C 14310.6,8300.22 14110.6,8351.22 14110.6,8351.22 C 14110.6,8351.22 14135.6,8322.54 14135.6,8300.22 C 14135.6,8277.47 14110.6,8248.22 14110.6,8248.22 C 14110.6,8248.22 14310.6,8300.22 14310.6,8300.22 C 14310.6,8300.22 14310.6,8300.22 14310.6,8300.22 " />
<text x="0" y="0" stroke="none" fill="#000000" transform="matrix(0.05 0 0 0.05 682.639 340.868)" font-style="normal" font-weight="normal" font-size="200px" font-family="Arial" >
R</text>
<text x="0" y="0" stroke="none" fill="#000000" transform="matrix(0.05 0 0 0.05 711.917 341.259)" font-style="normal" font-weight="normal" font-size="240px" font-family="Times New Roman" >
NO</text>
<text x="0" y="0" stroke="none" fill="#000000" transform="matrix(0.05 0 0 0.05 729.249 343.855)" font-style="normal" font-weight="normal" font-size="180px" font-family="Times New Roman" >
2</text>
<path stroke="none" fill="#000000" transform="matrix(0.05 0 0 0.05 -50 -79)" d="M 14834.5,8335.72 L 14834.5,8315.72 L 15194.2,8315.72 L 15194.2,8335.72 L 14834.5,8335.72 Z " />
<text x="0" y="0" stroke="none" fill="#000000" transform="matrix(0.05 0 0 0.05 572.605 329.934)" font-style="normal" font-weight="normal" font-size="240px" font-family="Times New Roman" >
AgNO</text>
<text x="0" y="0" stroke="none" fill="#000000" transform="matrix(0.05 0 0 0.05 604.603 332.53)" font-style="normal" font-weight="normal" font-size="180px" font-family="Times New Roman" >
2</text>
<path stroke="none" fill="#000000" transform="matrix(0.05 0 0 0.05 -50 -79)" d="M 14151.6,2800.2 L 11655.6,2800.2 L 11655.6,2780.2 L 14151.6,2780.2 Z " />
<path stroke="none" fill="#000000" transform="matrix(0.05 0 0 0.05 -50 -79)" d="M 14325.6,2790.2 C 14325.6,2790.2 14125.6,2841.2 14125.6,2841.2 C 14125.6,2841.2 14150.6,2812.51 14150.6,2790.2 C 14150.6,2767.45 14125.6,2738.2 14125.6,2738.2 C 14125.6,2738.2 14325.6,2790.2 14325.6,2790.2 C 14325.6,2790.2 14325.6,2790.2 14325.6,2790.2 " />
<path stroke="#000000" stroke-width="1" fill="none" transform="matrix(0.05 0 0 0.05 -50 -79)" d="M 14325.6,2790.2 C 14325.6,2790.2 14125.6,2841.2 14125.6,2841.2 C 14125.6,2841.2 14150.6,2812.51 14150.6,2790.2 C 14150.6,2767.45 14125.6,2738.2 14125.6,2738.2 C 14125.6,2738.2 14325.6,2790.2 14325.6,2790.2 C 14325.6,2790.2 14325.6,2790.2 14325.6,2790.2 " />
<text x="0" y="0" stroke="none" fill="#000000" transform="matrix(0.05 0 0 0.05 575.531 55.26)" font-style="normal" font-weight="normal" font-size="240px" font-family="Times New Roman" >
SH</text>
<text x="0" y="0" stroke="none" fill="#000000" transform="matrix(0.05 0 0 0.05 590.871 51.2873)" font-style="normal" font-weight="normal" font-size="180px" font-family="Times New Roman" >
-</text>
<text x="0" y="0" stroke="none" fill="#000000" transform="matrix(0.05 0 0 0.05 593.868 55.26)" font-style="normal" font-weight="normal" font-size="240px" font-family="Times New Roman" >
 </text>
<text x="0" y="0" stroke="none" fill="#000000" transform="matrix(0.05 0 0 0.05 596.868 55.26)" font-style="normal" font-weight="normal" font-size="240px" font-family="Times New Roman" >
(aq)</text>
<text x="0" y="0" stroke="none" fill="#000000" transform="matrix(0.05 0 0 0.05 683.389 65.3665)" font-style="normal" font-weight="normal" font-size="200px" font-family="Arial" >
R</text>
<text x="0" y="0" stroke="none" fill="#000000" transform="matrix(0.05 0 0 0.05 712.913 65.7576)" font-style="normal" font-weight="normal" font-size="240px" font-family="Times New Roman" >
SH</text>
<path stroke="none" fill="#000000" transform="matrix(0.05 0 0 0.05 -50 -79)" d="M 14849.5,2825.7 L 14849.5,2805.7 L 15232.3,2805.7 L 15232.3,2825.7 L 14849.5,2825.7 Z " />
<path stroke="none" fill="#000000" transform="matrix(0.05 0 0 0.05 -50 -79)" d="M 14151.6,3470.2 L 11655.6,3470.2 L 11655.6,3450.2 L 14151.6,3450.2 Z " />
<path stroke="none" fill="#000000" transform="matrix(0.05 0 0 0.05 -50 -79)" d="M 14325.6,3460.2 C 14325.6,3460.2 14125.6,3511.2 14125.6,3511.2 C 14125.6,3511.2 14150.6,3482.52 14150.6,3460.2 C 14150.6,3437.45 14125.6,3408.2 14125.6,3408.2 C 14125.6,3408.2 14325.6,3460.2 14325.6,3460.2 C 14325.6,3460.2 14325.6,3460.2 14325.6,3460.2 " />
<path stroke="#000000" stroke-width="1" fill="none" transform="matrix(0.05 0 0 0.05 -50 -79)" d="M 14325.6,3460.2 C 14325.6,3460.2 14125.6,3511.2 14125.6,3511.2 C 14125.6,3511.2 14150.6,3482.52 14150.6,3460.2 C 14150.6,3437.45 14125.6,3408.2 14125.6,3408.2 C 14125.6,3408.2 14325.6,3460.2 14325.6,3460.2 C 14325.6,3460.2 14325.6,3460.2 14325.6,3460.2 " />
<text x="0" y="0" stroke="none" fill="#000000" transform="matrix(0.05 0 0 0.05 683.389 98.1168)" font-style="normal" font-weight="normal" font-size="200px" font-family="Arial" >
R</text>
<text x="0" y="0" stroke="none" fill="#000000" transform="matrix(0.05 0 0 0.05 713.111 98.1168)" font-style="normal" font-weight="normal" font-size="200px" font-family="Arial" >
OR&apos;</text>
<path stroke="none" fill="#000000" transform="matrix(0.05 0 0 0.05 -50 -79)" d="M 14849.5,3480.7 L 14849.5,3460.7 L 15231.9,3460.7 L 15231.9,3480.7 L 14849.5,3480.7 Z " />
<path stroke="none" fill="#000000" transform="matrix(0.05 0 0 0.05 -50 -79)" d="M 14136.6,9105.22 L 11640.6,9105.22 L 11640.6,9085.22 L 14136.6,9085.22 Z " />
<path stroke="none" fill="#000000" transform="matrix(0.05 0 0 0.05 -50 -79)" d="M 14310.6,9095.22 C 14310.6,9095.22 14110.6,9146.22 14110.6,9146.22 C 14110.6,9146.22 14135.6,9117.54 14135.6,9095.22 C 14135.6,9072.47 14110.6,9043.22 14110.6,9043.22 C 14110.6,9043.22 14310.6,9095.22 14310.6,9095.22 C 14310.6,9095.22 14310.6,9095.22 14310.6,9095.22 " />
<path stroke="#000000" stroke-width="1" fill="none" transform="matrix(0.05 0 0 0.05 -50 -79)" d="M 14310.6,9095.22 C 14310.6,9095.22 14110.6,9146.22 14110.6,9146.22 C 14110.6,9146.22 14135.6,9117.54 14135.6,9095.22 C 14135.6,9072.47 14110.6,9043.22 14110.6,9043.22 C 14110.6,9043.22 14310.6,9095.22 14310.6,9095.22 C 14310.6,9095.22 14310.6,9095.22 14310.6,9095.22 " />
<text x="0" y="0" stroke="none" fill="#000000" transform="matrix(0.05 0 0 0.05 682.639 379.618)" font-style="normal" font-weight="normal" font-size="200px" font-family="Arial" >
R</text>
<text x="0" y="0" stroke="none" fill="#000000" transform="matrix(0.05 0 0 0.05 712.248 380.009)" font-style="normal" font-weight="normal" font-size="240px" font-family="Times New Roman" >
C</text>
<path stroke="none" fill="#000000" transform="matrix(0.05 0 0 0.05 -50 -79)" d="M 14834.5,9110.73 L 14834.5,9090.73 L 15212.6,9090.73 L 15212.6,9110.73 L 14834.5,9110.73 Z " />
<text x="0" y="0" stroke="none" fill="#000000" transform="matrix(0.05 0 0 0.05 566.105 369.293)" font-style="normal" font-weight="normal" font-size="200px" font-family="Arial" >
RC</text>
<text x="0" y="0" stroke="none" fill="#000000" transform="matrix(0.05 0 0 0.05 613.408 369.293)" font-style="normal" font-weight="normal" font-size="200px" font-family="Arial" >
C</text>
<text x="0" y="0" stroke="none" fill="#000000" transform="matrix(0.05 0 0 0.05 620.63 365.711)" font-style="normal" font-weight="normal" font-size="150px" font-family="Arial" >
-</text>
<path stroke="none" fill="#000000" transform="matrix(0.05 0 0 0.05 -50 -79)" d="M 12642.8,8808.03 L 12642.8,8788.03 L 13237.1,8788.03 L 13237.1,8808.03 L 12642.8,8808.03 Z " />
<path stroke="none" fill="#000000" transform="matrix(0.05 0 0 0.05 -50 -79)" d="M 12642.8,8904.22 L 12642.8,8884.22 L 13237.1,8884.22 L 13237.1,8904.22 L 12642.8,8904.22 Z " />
<path stroke="none" fill="#000000" transform="matrix(0.05 0 0 0.05 -50 -79)" d="M 12642.8,9000.42 L 12642.8,8980.42 L 13237.1,8980.42 L 13237.1,9000.42 L 12642.8,9000.42 Z " />
<text x="0" y="0" stroke="none" fill="#000000" transform="matrix(0.05 0 0 0.05 742.639 379.618)" font-style="normal" font-weight="normal" font-size="200px" font-family="Arial" >
CR&apos;</text>
<path stroke="none" fill="#000000" transform="matrix(0.05 0 0 0.05 -50 -79)" d="M 15436.6,9038.73 L 15436.6,9018.73 L 15821.7,9018.73 L 15821.7,9038.73 L 15436.6,9038.73 Z " />
<path stroke="none" fill="#000000" transform="matrix(0.05 0 0 0.05 -50 -79)" d="M 15436.6,9110.73 L 15436.6,9090.73 L 15821.7,9090.73 L 15821.7,9110.73 L 15436.6,9110.73 Z " />
<path stroke="none" fill="#000000" transform="matrix(0.05 0 0 0.05 -50 -79)" d="M 15436.6,9182.73 L 15436.6,9162.73 L 15821.7,9162.73 L 15821.7,9182.73 L 15436.6,9182.73 Z " />
<path stroke="none" fill="#000000" transform="matrix(0.05 0 0 0.05 -50 -79)" d="M 14151.6,9955.63 L 11639.8,9955.63 L 11639.8,9935.63 L 14151.6,9935.63 Z " />
<path stroke="none" fill="#000000" transform="matrix(0.05 0 0 0.05 -50 -79)" d="M 14325.6,9945.63 C 14325.6,9945.63 14125.6,9996.63 14125.6,9996.63 C 14125.6,9996.63 14150.6,9967.95 14150.6,9945.63 C 14150.6,9922.88 14125.6,9893.63 14125.6,9893.63 C 14125.6,9893.63 14325.6,9945.63 14325.6,9945.63 C 14325.6,9945.63 14325.6,9945.63 14325.6,9945.63 " />
<path stroke="#000000" stroke-width="1" fill="none" transform="matrix(0.05 0 0 0.05 -50 -79)" d="M 14325.6,9945.63 C 14325.6,9945.63 14125.6,9996.63 14125.6,9996.63 C 14125.6,9996.63 14150.6,9967.95 14150.6,9945.63 C 14150.6,9922.88 14125.6,9893.63 14125.6,9893.63 C 14125.6,9893.63 14325.6,9945.63 14325.6,9945.63 C 14325.6,9945.63 14325.6,9945.63 14325.6,9945.63 " />
<text x="0" y="0" stroke="none" fill="#000000" transform="matrix(0.05 0 0 0.05 680.748 423.529)" font-style="normal" font-weight="normal" font-size="240px" font-family="Times New Roman" >
R</text>
<text x="0" y="0" stroke="none" fill="#000000" transform="matrix(0.05 0 0 0.05 688.752 426.125)" font-style="normal" font-weight="normal" font-size="180px" font-family="Times New Roman" >
4</text>
<text x="0" y="0" stroke="none" fill="#000000" transform="matrix(0.05 0 0 0.05 693.252 423.529)" font-style="normal" font-weight="normal" font-size="240px" font-family="Times New Roman" >
N</text>
<text x="0" y="0" stroke="none" fill="#000000" transform="matrix(0.05 0 0 0.05 701.918 419.557)" font-style="normal" font-weight="normal" font-size="180px" font-family="Times New Roman" >
+</text>
<text x="0" y="0" stroke="none" fill="#000000" transform="matrix(0.05 0 0 0.05 706.994 423.529)" font-style="normal" font-weight="normal" font-size="240px" font-family="Times New Roman" >
X</text>
<text x="0" y="0" stroke="none" fill="#000000" transform="matrix(0.05 0 0 0.05 715.66 419.557)" font-style="normal" font-weight="normal" font-size="180px" font-family="Times New Roman" >
-</text>
<text x="0" y="0" stroke="none" fill="#000000" transform="matrix(0.05 0 0 0.05 573.355 412.204)" font-style="normal" font-weight="normal" font-size="240px" font-family="Times New Roman" >
NH</text>
<text x="0" y="0" stroke="none" fill="#000000" transform="matrix(0.05 0 0 0.05 590.687 414.8)" font-style="normal" font-weight="normal" font-size="180px" font-family="Times New Roman" >
3</text>
<text x="0" y="0" stroke="none" fill="#000000" transform="matrix(0.05 0 0 0.05 595.187 412.204)" font-style="normal" font-weight="normal" font-size="240px" font-family="Times New Roman" >
, </text>
<text x="0" y="0" stroke="none" fill="#000000" transform="matrix(0.05 0 0 0.05 601.187 412.204)" font-style="normal" font-weight="normal" font-size="240px" font-family="Times New Roman" >
heat</text>
<path stroke="none" fill="#000000" transform="matrix(0.05 0 0 0.05 -50 -79)" d="M 7496.12,7272.88 L 6823.95,7272.88 L 6823.95,7252.88 L 7496.12,7252.88 Z " />
<path stroke="none" fill="#000000" transform="matrix(0.05 0 0 0.05 -50 -79)" d="M 6210.35,5847.8 L 6213.31,8800.77 L 6193.31,8800.77 L 6190.35,5847.8 Z " />
<path stroke="none" fill="#000000" transform="matrix(0.05 0 0 0.05 -50 -79)" d="M 4328.96,8760.13 L 6179.57,8760.13 L 6179.57,8780.13 L 4328.96,8780.13 Z " />
<path stroke="none" fill="#000000" transform="matrix(0.05 0 0 0.05 -50 -79)" d="M 4154.96,8770.13 C 4154.96,8770.13 4354.96,8718.13 4354.96,8718.13 C 4354.96,8718.13 4329.96,8747.38 4329.96,8770.13 C 4329.96,8792.44 4354.96,8821.13 4354.96,8821.13 C 4354.96,8821.13 4154.96,8770.13 4154.96,8770.13 C 4154.96,8770.13 4154.96,8770.13 4154.96,8770.13 " />
<path stroke="#000000" stroke-width="1" fill="none" transform="matrix(0.05 0 0 0.05 -50 -79)" d="M 4154.96,8770.13 C 4154.96,8770.13 4354.96,8718.13 4354.96,8718.13 C 4354.96,8718.13 4329.96,8747.38 4329.96,8770.13 C 4329.96,8792.44 4354.96,8821.13 4354.96,8821.13 C 4354.96,8821.13 4154.96,8770.13 4154.96,8770.13 C 4154.96,8770.13 4154.96,8770.13 4154.96,8770.13 " />
<text x="0" y="0" stroke="none" fill="#000000" transform="matrix(0.05 0 0 0.05 133.417 361.829)" font-style="normal" font-weight="normal" font-size="200px" font-family="Arial" >
R</text>
<text x="0" y="0" stroke="none" fill="#000000" transform="matrix(0.05 0 0 0.05 103.417 361.852)" font-style="normal" font-weight="normal" font-size="200px" font-family="Arial" >
R</text>
<path stroke="none" fill="#000000" transform="matrix(0.05 0 0 0.05 -50 -79)" d="M 3643.06,8735.02 L 3643.08,8755.02 L 3250.08,8755.32 L 3250.06,8735.32 L 3643.06,8735.02 Z " />
<path stroke="none" fill="#000000" transform="matrix(0.05 0 0 0.05 -50 -79)" d="M 4328.32,7994.89 L 6182.24,7993.48 L 6182.24,8013.48 L 4328.32,8014.89 Z " />
<path stroke="none" fill="#000000" transform="matrix(0.05 0 0 0.05 -50 -79)" d="M 4154.32,8005.02 C 4154.32,8005.02 4353.28,7953.87 4353.28,7953.87 C 4353.28,7953.87 4328.87,7982.57 4329.32,8004.89 C 4329.78,8027.2 4355.36,8055.87 4355.36,8055.87 C 4355.36,8055.87 4154.32,8005.02 4154.32,8005.02 C 4154.32,8005.02 4154.32,8005.02 4154.32,8005.02 " />
<path stroke="#000000" stroke-width="1" fill="none" transform="matrix(0.05 0 0 0.05 -50 -79)" d="M 4154.32,8005.02 C 4154.32,8005.02 4353.28,7953.87 4353.28,7953.87 C 4353.28,7953.87 4328.87,7982.57 4329.32,8004.89 C 4329.78,8027.2 4355.36,8055.87 4355.36,8055.87 C 4355.36,8055.87 4154.32,8005.02 4154.32,8005.02 C 4154.32,8005.02 4154.32,8005.02 4154.32,8005.02 " />
<text x="0" y="0" stroke="none" fill="#000000" transform="matrix(0.05 0 0 0.05 103.386 323.597)" font-style="normal" font-weight="normal" font-size="200px" font-family="Arial" >
R</text>
<text x="0" y="0" stroke="none" fill="#000000" transform="matrix(0.05 0 0 0.05 110.607 325.716)" font-style="normal" font-weight="normal" font-size="150px" font-family="Arial" >
4</text>
<text x="0" y="0" stroke="none" fill="#000000" transform="matrix(0.05 0 0 0.05 114.778 323.597)" font-style="normal" font-weight="normal" font-size="200px" font-family="Arial" >
Pb</text>
<text x="0" y="0" stroke="none" fill="#000000" transform="matrix(0.05 0 0 0.05 204.981 317.206)" font-style="normal" font-weight="normal" font-size="240px" font-family="Times New Roman" >
Pb-Na</text>
<path stroke="none" fill="#000000" transform="matrix(0.05 0 0 0.05 -50 -79)" d="M 4327.95,7254.8 L 6823.95,7252.88 L 6823.95,7272.88 L 4327.95,7274.8 Z " />
<path stroke="none" fill="#000000" transform="matrix(0.05 0 0 0.05 -50 -79)" d="M 4153.95,7264.94 C 4153.95,7264.94 4352.91,7213.78 4352.91,7213.78 C 4352.91,7213.78 4328.5,7242.49 4328.95,7264.8 C 4329.41,7287.12 4354.99,7315.78 4354.99,7315.78 C 4354.99,7315.78 4153.95,7264.94 4153.95,7264.94 C 4153.95,7264.94 4153.95,7264.94 4153.95,7264.94 " />
<path stroke="#000000" stroke-width="1" fill="none" transform="matrix(0.05 0 0 0.05 -50 -79)" d="M 4153.95,7264.94 C 4153.95,7264.94 4352.91,7213.78 4352.91,7213.78 C 4352.91,7213.78 4328.5,7242.49 4328.95,7264.8 C 4329.41,7287.12 4354.99,7315.78 4354.99,7315.78 C 4354.99,7315.78 4153.95,7264.94 4153.95,7264.94 C 4153.95,7264.94 4153.95,7264.94 4153.95,7264.94 " />
<text x="0" y="0" stroke="none" fill="#000000" transform="matrix(0.05 0 0 0.05 133.354 287.319)" font-style="normal" font-weight="normal" font-size="200px" font-family="Arial" >
R</text>
<text x="0" y="0" stroke="none" fill="#000000" transform="matrix(0.05 0 0 0.05 100.3 287.734)" font-style="normal" font-weight="normal" font-size="240px" font-family="Times New Roman" >
Zn</text>
<path stroke="none" fill="#000000" transform="matrix(0.05 0 0 0.05 -50 -79)" d="M 3641.79,7244.83 L 3641.81,7264.83 L 3311.05,7265.09 L 3311.03,7245.09 L 3641.79,7244.83 Z " />
<text x="0" y="0" stroke="none" fill="#000000" transform="matrix(0.05 0 0 0.05 212.621 279.951)" font-style="normal" font-weight="normal" font-size="240px" font-family="Times New Roman" >
Zn</text>
<path stroke="none" fill="#000000" transform="matrix(0.05 0 0 0.05 -50 -79)" d="M 4327.1,6544.86 L 6196.45,6544.86 L 6196.45,6564.86 L 4327.1,6564.86 Z " />
<path stroke="none" fill="#000000" transform="matrix(0.05 0 0 0.05 -50 -79)" d="M 4153.1,6554.86 C 4153.1,6554.86 4353.1,6502.86 4353.1,6502.86 C 4353.1,6502.86 4328.1,6532.11 4328.1,6554.86 C 4328.1,6577.18 4353.1,6605.86 4353.1,6605.86 C 4353.1,6605.86 4153.1,6554.86 4153.1,6554.86 C 4153.1,6554.86 4153.1,6554.86 4153.1,6554.86 " />
<path stroke="#000000" stroke-width="1" fill="none" transform="matrix(0.05 0 0 0.05 -50 -79)" d="M 4153.1,6554.86 C 4153.1,6554.86 4353.1,6502.86 4353.1,6502.86 C 4353.1,6502.86 4328.1,6532.11 4328.1,6554.86 C 4328.1,6577.18 4353.1,6605.86 4353.1,6605.86 C 4353.1,6605.86 4153.1,6554.86 4153.1,6554.86 C 4153.1,6554.86 4153.1,6554.86 4153.1,6554.86 " />
<text x="0" y="0" stroke="none" fill="#000000" transform="matrix(0.05 0 0 0.05 134.154 251.066)" font-style="normal" font-weight="normal" font-size="200px" font-family="Arial" >
Li</text>
<text x="0" y="0" stroke="none" fill="#000000" transform="matrix(0.05 0 0 0.05 102.933 251.48)" font-style="normal" font-weight="normal" font-size="240px" font-family="Times New Roman" >
R</text>
<path stroke="none" fill="#000000" transform="matrix(0.05 0 0 0.05 -50 -79)" d="M 3657.73,6519.74 L 3657.74,6539.74 L 3260.77,6540.05 L 3260.76,6520.05 L 3657.73,6519.74 Z " />
<text x="0" y="0" stroke="none" fill="#000000" transform="matrix(0.05 0 0 0.05 214.59 245.698)" font-style="normal" font-weight="normal" font-size="240px" font-family="Times New Roman" >
Li</text>
<path stroke="none" fill="#000000" transform="matrix(0.05 0 0 0.05 -50 -79)" d="M 4326.47,5839.68 L 6200.35,5837.8 L 6200.35,5857.8 L 4326.47,5859.68 Z " />
<path stroke="none" fill="#000000" transform="matrix(0.05 0 0 0.05 -50 -79)" d="M 4152.47,5849.86 C 4152.47,5849.86 4351.41,5798.65 4351.41,5798.65 C 4351.41,5798.65 4327.01,5827.37 4327.47,5849.68 C 4327.92,5871.99 4353.52,5900.65 4353.52,5900.65 C 4353.52,5900.65 4152.47,5849.86 4152.47,5849.86 C 4152.47,5849.86 4152.47,5849.86 4152.47,5849.86 " />
<path stroke="#000000" stroke-width="1" fill="none" transform="matrix(0.05 0 0 0.05 -50 -79)" d="M 4152.47,5849.86 C 4152.47,5849.86 4351.41,5798.65 4351.41,5798.65 C 4351.41,5798.65 4327.01,5827.37 4327.47,5849.68 C 4327.92,5871.99 4353.52,5900.65 4353.52,5900.65 C 4353.52,5900.65 4152.47,5849.86 4152.47,5849.86 C 4152.47,5849.86 4152.47,5849.86 4152.47,5849.86 " />
<text x="0" y="0" stroke="none" fill="#000000" transform="matrix(0.05 0 0 0.05 131.568 216.204)" font-style="normal" font-weight="normal" font-size="240px" font-family="Times New Roman" >
MgX</text>
<text x="0" y="0" stroke="none" fill="#000000" transform="matrix(0.05 0 0 0.05 102.901 216.227)" font-style="normal" font-weight="normal" font-size="240px" font-family="Times New Roman" >
R</text>
<path stroke="none" fill="#000000" transform="matrix(0.05 0 0 0.05 -50 -79)" d="M 3594.35,5814.74 L 3594.36,5834.74 L 3260.14,5835 L 3260.12,5815 L 3594.35,5814.74 Z " />
<text x="0" y="0" stroke="none" fill="#000000" transform="matrix(0.05 0 0 0.05 212.889 206.445)" font-style="normal" font-weight="normal" font-size="240px" font-family="Times New Roman" >
Mg</text>
<text x="0" y="0" stroke="none" fill="#000000" transform="matrix(0.05 0 0 0.05 73.3538 287.342)" font-style="normal" font-weight="normal" font-size="200px" font-family="Arial" >
R</text>
<path stroke="none" fill="#000000" transform="matrix(0.05 0 0 0.05 -50 -79)" d="M 2967.04,7245.22 L 2967.04,7265.22 L 2648.8,7265.22 L 2648.8,7245.22 L 2967.04,7245.22 Z " />
<text x="0" y="0" stroke="none" fill="#000000" transform="matrix(0.05 0 0 0.05 286.791 278)" font-style="normal" font-weight="normal" font-size="240px" font-family="Times New Roman" >
Metals</text>
<path stroke="none" fill="#000000" transform="matrix(0.05 0 0 0.05 -50 -79)" d="M 8922.17,6514.8 L 8922.14,5029.8 L 8942.14,5029.8 L 8942.17,6514.8 Z " />
<path stroke="none" fill="#000000" transform="matrix(0.05 0 0 0.05 -50 -79)" d="M 10107.1,5019.76 L 7775.6,5017.33 L 7775.6,4997.33 L 10107.1,4999.76 Z " />
<path stroke="none" fill="#000000" transform="matrix(0.05 0 0 0.05 -50 -79)" d="M 7785.49,2511.33 L 7785.6,5007.33 L 7765.6,5007.33 L 7765.49,2511.33 Z " />
<path stroke="none" fill="#000000" transform="matrix(0.05 0 0 0.05 -50 -79)" d="M 7775.48,2337.33 C 7775.48,2337.33 7826.49,2536.33 7826.49,2536.33 C 7826.49,2536.33 7797.8,2511.89 7775.49,2512.33 C 7753.18,2512.77 7724.49,2538.33 7724.49,2538.33 C 7724.49,2538.33 7775.48,2337.33 7775.48,2337.33 C 7775.48,2337.33 7775.48,2337.33 7775.48,2337.33 " />
<path stroke="#000000" stroke-width="1" fill="none" transform="matrix(0.05 0 0 0.05 -50 -79)" d="M 7775.48,2337.33 C 7775.48,2337.33 7826.49,2536.33 7826.49,2536.33 C 7826.49,2536.33 7797.8,2511.89 7775.49,2512.33 C 7753.18,2512.77 7724.49,2538.33 7724.49,2538.33 C 7724.49,2538.33 7775.48,2337.33 7775.48,2337.33 C 7775.48,2337.33 7775.48,2337.33 7775.48,2337.33 " />
<path stroke="none" fill="#000000" transform="matrix(0.05 0 0 0.05 -50 -79)" d="M 8942.08,2533.8 L 8942.14,5029.8 L 8922.14,5029.8 L 8922.08,2533.8 Z " />
<path stroke="none" fill="#000000" transform="matrix(0.05 0 0 0.05 -50 -79)" d="M 8932.08,2359.8 C 8932.08,2359.8 8983.08,2558.8 8983.08,2558.8 C 8983.08,2558.8 8954.39,2534.37 8932.08,2534.8 C 8909.77,2535.24 8881.08,2560.81 8881.08,2560.81 C 8881.08,2560.81 8932.08,2359.8 8932.08,2359.8 C 8932.08,2359.8 8932.08,2359.8 8932.08,2359.8 " />
<path stroke="#000000" stroke-width="1" fill="none" transform="matrix(0.05 0 0 0.05 -50 -79)" d="M 8932.08,2359.8 C 8932.08,2359.8 8983.08,2558.8 8983.08,2558.8 C 8983.08,2558.8 8954.39,2534.37 8932.08,2534.8 C 8909.77,2535.24 8881.08,2560.81 8881.08,2560.81 C 8881.08,2560.81 8932.08,2359.8 8932.08,2359.8 C 8932.08,2359.8 8932.08,2359.8 8932.08,2359.8 " />
<text x="0" y="0" stroke="none" fill="#000000" transform="matrix(0.00087262 -0.0499924 0.0499924 0.00087262 390.725 129.986)" font-style="normal" font-weight="normal" font-size="240px" font-family="Times New Roman" >
H</text>
<text x="0" y="0" stroke="none" fill="#000000" transform="matrix(0.00087262 -0.0499924 0.0499924 0.00087262 393.471 121.367)" font-style="normal" font-weight="normal" font-size="180px" font-family="Times New Roman" >
2</text>
<text x="0" y="0" stroke="none" fill="#000000" transform="matrix(0.00087262 -0.0499924 0.0499924 0.00087262 390.954 116.822)" font-style="normal" font-weight="normal" font-size="240px" font-family="Times New Roman" >
, </text>
<text x="0" y="0" stroke="none" fill="#000000" transform="matrix(0.00087262 -0.0499924 0.0499924 0.00087262 391.059 110.823)" font-style="normal" font-weight="normal" font-size="240px" font-family="Times New Roman" >
Ni/Pt</text>
<path stroke="none" fill="#000000" transform="matrix(0.05 0 0 0.05 -50 -79)" d="M 10117.1,2513.76 L 10117.1,5009.76 L 10097.1,5009.76 L 10097.1,2513.76 Z " />
<path stroke="none" fill="#000000" transform="matrix(0.05 0 0 0.05 -50 -79)" d="M 10107.1,2339.76 C 10107.1,2339.76 10158.1,2538.76 10158.1,2538.76 C 10158.1,2538.76 10129.4,2514.32 10107.1,2514.76 C 10084.8,2515.2 10056.1,2540.76 10056.1,2540.76 C 10056.1,2540.76 10107.1,2339.76 10107.1,2339.76 C 10107.1,2339.76 10107.1,2339.76 10107.1,2339.76 " />
<path stroke="#000000" stroke-width="1" fill="none" transform="matrix(0.05 0 0 0.05 -50 -79)" d="M 10107.1,2339.76 C 10107.1,2339.76 10158.1,2538.76 10158.1,2538.76 C 10158.1,2538.76 10129.4,2514.32 10107.1,2514.76 C 10084.8,2515.2 10056.1,2540.76 10056.1,2540.76 C 10056.1,2540.76 10107.1,2339.76 10107.1,2339.76 C 10107.1,2339.76 10107.1,2339.76 10107.1,2339.76 " />
<text x="0" y="0" stroke="none" fill="#000000" transform="matrix(-9.18485e-18 -0.05 0.05 -9.18485e-18 332.821 146.365)" font-style="normal" font-weight="normal" font-size="240px" font-family="Times New Roman" >
HI, </text>
<text x="0" y="0" stroke="none" fill="#000000" transform="matrix(-9.18485e-18 -0.05 0.05 -9.18485e-18 332.821 127.703)" font-style="normal" font-weight="normal" font-size="240px" font-family="Times New Roman" >
red </text>
<text x="0" y="0" stroke="none" fill="#000000" transform="matrix(-9.18485e-18 -0.05 0.05 -9.18485e-18 332.821 109.381)" font-style="normal" font-weight="normal" font-size="240px" font-family="Times New Roman" >
P</text>
<text x="0" y="0" stroke="none" fill="#000000" transform="matrix(-9.18485e-18 -0.05 0.05 -9.18485e-18 335.417 102.707)" font-style="normal" font-weight="normal" font-size="180px" font-family="Times New Roman" >
4</text>
<text x="0" y="0" stroke="none" fill="#000000" transform="matrix(-9.18485e-18 -0.05 0.05 -9.18485e-18 332.821 98.2067)" font-style="normal" font-weight="normal" font-size="240px" font-family="Times New Roman" >
, </text>
<text x="0" y="0" stroke="none" fill="#000000" transform="matrix(-9.18485e-18 -0.05 0.05 -9.18485e-18 332.821 92.2067)" font-style="normal" font-weight="normal" font-size="240px" font-family="Times New Roman" >
heat</text>
<text x="0" y="0" stroke="none" fill="#000000" transform="matrix(3.06162e-18 0.05 -0.05 3.06162e-18 402.734 195.082)" font-style="normal" font-weight="normal" font-size="240px" font-family="Times New Roman" >
Reduction</text>
<text x="0" y="0" stroke="none" fill="#000000" transform="matrix(0.00087262 -0.0499924 0.0499924 0.00087262 423.545 154.12)" font-style="normal" font-weight="normal" font-size="240px" font-family="Times New Roman" >
Nascent-H</text>
<text x="0" y="0" stroke="none" fill="#000000" transform="matrix(0.00087262 -0.0499924 0.0499924 0.00087262 437.342 154.361)" font-style="normal" font-weight="normal" font-size="240px" font-family="Times New Roman" >
i) </text>
<text x="0" y="0" stroke="none" fill="#000000" transform="matrix(0.00087262 -0.0499924 0.0499924 0.00087262 437.522 144.032)" font-style="normal" font-weight="normal" font-size="240px" font-family="Times New Roman" >
 </text>
<text x="0" y="0" stroke="none" fill="#000000" transform="matrix(0.00087262 -0.0499924 0.0499924 0.00087262 437.575 141.033)" font-style="normal" font-weight="normal" font-size="240px" font-family="Times New Roman" >
Zn </text>
<text x="0" y="0" stroke="none" fill="#000000" transform="matrix(0.00087262 -0.0499924 0.0499924 0.00087262 437.86 124.705)" font-style="normal" font-weight="normal" font-size="240px" font-family="Times New Roman" >
or </text>
<text x="0" y="0" stroke="none" fill="#000000" transform="matrix(0.00087262 -0.0499924 0.0499924 0.00087262 438.087 111.711)" font-style="normal" font-weight="normal" font-size="240px" font-family="Times New Roman" >
Sn </text>
<text x="0" y="0" stroke="none" fill="#000000" transform="matrix(0.00087262 -0.0499924 0.0499924 0.00087262 438.36 96.0397)" font-style="normal" font-weight="normal" font-size="240px" font-family="Times New Roman" >
+ </text>
<text x="0" y="0" stroke="none" fill="#000000" transform="matrix(0.00087262 -0.0499924 0.0499924 0.00087262 438.531 86.2736)" font-style="normal" font-weight="normal" font-size="240px" font-family="Times New Roman" >
HCl</text>
<text x="0" y="0" stroke="none" fill="#000000" transform="matrix(0.00087262 -0.0499924 0.0499924 0.00087262 451.139 154.602)" font-style="normal" font-weight="normal" font-size="240px" font-family="Times New Roman" >
ii) </text>
<text x="0" y="0" stroke="none" fill="#000000" transform="matrix(0.00087262 -0.0499924 0.0499924 0.00087262 451.377 140.94)" font-style="normal" font-weight="normal" font-size="240px" font-family="Times New Roman" >
Zn-Cu </text>
<text x="0" y="0" stroke="none" fill="#000000" transform="matrix(0.00087262 -0.0499924 0.0499924 0.00087262 451.976 106.615)" font-style="normal" font-weight="normal" font-size="240px" font-family="Times New Roman" >
+ </text>
<text x="0" y="0" stroke="none" fill="#000000" transform="matrix(0.00087262 -0.0499924 0.0499924 0.00087262 452.147 96.8488)" font-style="normal" font-weight="normal" font-size="240px" font-family="Times New Roman" >
EtOH</text>
<text x="0" y="0" stroke="none" fill="#000000" transform="matrix(0.05 0 0 0.05 408.406 24.7389)" font-style="normal" font-weight="normal" font-size="240px" font-family="Times New Roman" >
H</text>
<text x="0" y="0" stroke="none" fill="#000000" transform="matrix(0.05 0 0 0.05 378.737 24.7583)" font-style="normal" font-weight="normal" font-size="240px" font-family="Times New Roman" >
R</text>
<path stroke="none" fill="#000000" transform="matrix(0.05 0 0 0.05 -50 -79)" d="M 9131.22,1985.4 L 9131.23,2005.4 L 8776.85,2005.63 L 8776.84,1985.63 L 9131.22,1985.4 Z " />
<path stroke="none" fill="#000000" transform="matrix(0.05 0 0 0.05 -50 -79)" d="M 8948.46,8039.8 L 8949.33,9524.8 L 8929.33,9524.8 L 8928.46,8039.8 Z " />
<path stroke="none" fill="#000000" transform="matrix(0.05 0 0 0.05 -50 -79)" d="M 7014.39,9518.46 L 10841.8,9516.22 L 10841.8,9536.22 L 7014.39,9538.46 Z " />
<path stroke="none" fill="#000000" transform="matrix(0.05 0 0 0.05 -50 -79)" d="M 10828.5,12042.2 L 10827,9546.22 L 10847,9546.22 L 10848.5,12042.2 Z " />
<path stroke="none" fill="#000000" transform="matrix(0.05 0 0 0.05 -50 -79)" d="M 10838.6,12216.2 C 10838.6,12216.2 10787.5,12017.3 10787.5,12017.3 C 10787.5,12017.3 10816.2,12041.7 10838.5,12041.2 C 10860.8,12040.8 10889.5,12015.2 10889.5,12015.2 C 10889.5,12015.2 10838.6,12216.2 10838.6,12216.2 C 10838.6,12216.2 10838.6,12216.2 10838.6,12216.2 " />
<path stroke="#000000" stroke-width="1" fill="none" transform="matrix(0.05 0 0 0.05 -50 -79)" d="M 10838.6,12216.2 C 10838.6,12216.2 10787.5,12017.3 10787.5,12017.3 C 10787.5,12017.3 10816.2,12041.7 10838.5,12041.2 C 10860.8,12040.8 10889.5,12015.2 10889.5,12015.2 C 10889.5,12015.2 10838.6,12216.2 10838.6,12216.2 C 10838.6,12216.2 10838.6,12216.2 10838.6,12216.2 " />
<path stroke="none" fill="#000000" transform="matrix(0.05 0 0 0.05 -50 -79)" d="M 8930.78,12020.8 L 8929.33,9524.8 L 8949.33,9524.8 L 8950.78,12020.8 Z " />
<path stroke="none" fill="#000000" transform="matrix(0.05 0 0 0.05 -50 -79)" d="M 8940.88,12194.8 C 8940.88,12194.8 8889.77,11995.8 8889.77,11995.8 C 8889.77,11995.8 8918.47,12020.3 8940.78,12019.8 C 8963.09,12019.3 8991.77,11993.8 8991.77,11993.8 C 8991.77,11993.8 8940.88,12194.8 8940.88,12194.8 C 8940.88,12194.8 8940.88,12194.8 8940.88,12194.8 " />
<path stroke="#000000" stroke-width="1" fill="none" transform="matrix(0.05 0 0 0.05 -50 -79)" d="M 8940.88,12194.8 C 8940.88,12194.8 8889.77,11995.8 8889.77,11995.8 C 8889.77,11995.8 8918.47,12020.3 8940.78,12019.8 C 8963.09,12019.3 8991.77,11993.8 8991.77,11993.8 C 8991.77,11993.8 8940.88,12194.8 8940.88,12194.8 C 8940.88,12194.8 8940.88,12194.8 8940.88,12194.8 " />
<path stroke="none" fill="#000000" transform="matrix(0.05 0 0 0.05 -50 -79)" d="M 6995.78,12021.9 L 6994.33,9525.93 L 7014.33,9525.93 L 7015.78,12021.9 Z " />
<path stroke="none" fill="#000000" transform="matrix(0.05 0 0 0.05 -50 -79)" d="M 7005.88,12195.9 C 7005.88,12195.9 6954.77,11997 6954.77,11997 C 6954.77,11997 6983.47,12021.4 7005.78,12020.9 C 7028.09,12020.5 7056.77,11994.9 7056.77,11994.9 C 7056.77,11994.9 7005.88,12195.9 7005.88,12195.9 C 7005.88,12195.9 7005.88,12195.9 7005.88,12195.9 " />
<path stroke="#000000" stroke-width="1" fill="none" transform="matrix(0.05 0 0 0.05 -50 -79)" d="M 7005.88,12195.9 C 7005.88,12195.9 6954.77,11997 6954.77,11997 C 6954.77,11997 6983.47,12021.4 7005.78,12020.9 C 7028.09,12020.5 7056.77,11994.9 7056.77,11994.9 C 7056.77,11994.9 7005.88,12195.9 7005.88,12195.9 C 7005.88,12195.9 7005.88,12195.9 7005.88,12195.9 " />
<text x="0" y="0" stroke="none" fill="#000000" transform="matrix(-0.00087262 -0.0499924 0.0499924 -0.00087262 391.827 375.652)" font-style="normal" font-weight="normal" font-size="240px" font-family="Times New Roman" >
Misc</text>
<text x="0" y="0" stroke="none" fill="#000000" transform="matrix(-9.18485e-18 -0.05 0.05 -9.18485e-18 279.331 493.367)" font-style="normal" font-weight="normal" font-size="240px" font-family="Times New Roman" >
Elimination:</text>
<text x="0" y="0" stroke="none" fill="#000000" transform="matrix(-9.18485e-18 -0.05 0.05 -9.18485e-18 293.13 493.367)" font-style="normal" font-weight="normal" font-size="240px" font-family="Times New Roman" >
alc. </text>
<text x="0" y="0" stroke="none" fill="#000000" transform="matrix(-9.18485e-18 -0.05 0.05 -9.18485e-18 293.13 473.381)" font-style="normal" font-weight="normal" font-size="240px" font-family="Times New Roman" >
KOH</text>
<path stroke="none" fill="#000000" transform="matrix(0.05 0 0 0.05 -50 -79)" d="M 6220.83,12728.7 L 6210.83,12711.3 L 6735.44,12408.2 L 6735.44,12431.3 L 6220.83,12728.7 Z " />
<path stroke="none" fill="#000000" transform="matrix(0.05 0 0 0.05 -50 -79)" d="M 6256.83,12791 L 6246.83,12773.7 L 6730.44,12494.5 L 6740.44,12511.8 L 6256.83,12791 Z " />
<path stroke="none" fill="#000000" transform="matrix(0.05 0 0 0.05 -50 -79)" d="M 6735.44,12431.3 L 6735.44,12408.2 L 7255.06,12708.7 L 7255.06,12731.8 L 6735.44,12431.3 Z " />
<path stroke="none" fill="#000000" transform="matrix(0.05 0 0 0.05 -50 -79)" d="M 7255.06,12731.8 L 7255.06,12708.7 L 7769.68,12411.3 L 7779.68,12428.7 L 7255.06,12731.8 Z " />
<text x="0" y="0" stroke="none" fill="#000000" transform="matrix(-9.18485e-18 -0.05 0.05 -9.18485e-18 393.908 493.453)" font-style="normal" font-weight="normal" font-size="240px" font-family="Times New Roman" >
Isomerism</text>
<text x="0" y="0" stroke="none" fill="#000000" transform="matrix(-9.18485e-18 -0.05 0.05 -9.18485e-18 413.658 514.433)" font-style="normal" font-weight="normal" font-size="240px" font-family="Times New Roman" >
Anhyd. </text>
<text x="0" y="0" stroke="none" fill="#000000" transform="matrix(-9.18485e-18 -0.05 0.05 -9.18485e-18 413.658 476.429)" font-style="normal" font-weight="normal" font-size="240px" font-family="Times New Roman" >
AlCl</text>
<text x="0" y="0" stroke="none" fill="#000000" transform="matrix(-9.18485e-18 -0.05 0.05 -9.18485e-18 416.254 453.091)" font-style="normal" font-weight="normal" font-size="180px" font-family="Times New Roman" >
3</text>
<text x="0" y="0" stroke="none" fill="#000000" transform="matrix(-9.18485e-18 -0.05 0.05 -9.18485e-18 413.658 448.591)" font-style="normal" font-weight="normal" font-size="240px" font-family="Times New Roman" >
, </text>
<text x="0" y="0" stroke="none" fill="#000000" transform="matrix(-9.18485e-18 -0.05 0.05 -9.18485e-18 413.658 442.591)" font-style="normal" font-weight="normal" font-size="240px" font-family="Times New Roman" >
300</text>
<text x="0" y="0" stroke="none" fill="#000000" transform="matrix(-9.18485e-18 -0.05 0.05 -9.18485e-18 409.685 424.591)" font-style="normal" font-weight="normal" font-size="180px" font-family="Times New Roman" >
o</text>
<text x="0" y="0" stroke="none" fill="#000000" transform="matrix(-9.18485e-18 -0.05 0.05 -9.18485e-18 413.658 420.091)" font-style="normal" font-weight="normal" font-size="240px" font-family="Times New Roman" >
C</text>
<path stroke="none" fill="#000000" transform="matrix(0.05 0 0 0.05 -50 -79)" d="M 10325.9,12774.1 L 10345.9,12785.6 L 10345.9,13374.3 L 10325.9,13385.9 L 10325.9,12774.1 Z " />
<path stroke="none" fill="#000000" transform="matrix(0.05 0 0 0.05 -50 -79)" d="M 10398.1,12821.5 L 10418.1,12821.5 L 10418.1,13338.4 L 10398.1,13338.4 L 10398.1,12821.5 Z " />
<path stroke="none" fill="#000000" transform="matrix(0.05 0 0 0.05 -50 -79)" d="M 10325.9,13385.9 L 10345.9,13374.3 L 10855.7,13668.6 L 10855.7,13691.7 L 10325.9,13385.9 Z " />
<path stroke="none" fill="#000000" transform="matrix(0.05 0 0 0.05 -50 -79)" d="M 10855.7,13691.7 L 10855.7,13668.6 L 11365.5,13374.3 L 11385.5,13385.9 L 10855.7,13691.7 Z " />
<path stroke="none" fill="#000000" transform="matrix(0.05 0 0 0.05 -50 -79)" d="M 10860.7,13605.5 L 10850.7,13588.2 L 11298.3,13329.7 L 11308.3,13347.1 L 10860.7,13605.5 Z " />
<path stroke="none" fill="#000000" transform="matrix(0.05 0 0 0.05 -50 -79)" d="M 11385.5,13385.9 L 11365.5,13374.3 L 11365.5,12785.6 L 11375.3,12780 L 11385.2,12785.6 L 11385.5,13385.9 Z " />
<path stroke="none" fill="#000000" transform="matrix(0.05 0 0 0.05 -50 -79)" d="M 11375.4,12768.7 L 11375.3,12780 L 11365.5,12785.6 L 10855.7,12491.3 L 10855.7,12468.2 L 11375.4,12768.7 Z " />
<path stroke="none" fill="#000000" transform="matrix(0.05 0 0 0.05 -50 -79)" d="M 11308.3,12812.9 L 11298.3,12830.2 L 10850.7,12571.8 L 10860.7,12554.4 L 11308.3,12812.9 Z " />
<path stroke="none" fill="#000000" transform="matrix(0.05 0 0 0.05 -50 -79)" d="M 10855.7,12468.2 L 10855.7,12491.3 L 10345.9,12785.6 L 10325.9,12774.1 L 10855.7,12468.2 Z " />
<text x="0" y="0" stroke="none" fill="#000000" transform="matrix(0.05 0 0 0.05 561.747 90.9575)" font-style="normal" font-weight="normal" font-size="240px" font-family="Times New Roman" >
 </text>
<text x="0" y="0" stroke="none" fill="#000000" transform="matrix(0.05 0 0 0.05 564.747 90.9575)" font-style="normal" font-weight="normal" font-size="240px" font-family="Times New Roman" >
 </text>
<text x="0" y="0" stroke="none" fill="#000000" transform="matrix(0.05 0 0 0.05 567.747 90.9575)" font-style="normal" font-weight="normal" font-size="240px" font-family="Times New Roman" >
 </text>
<text x="0" y="0" stroke="none" fill="#000000" transform="matrix(0.05 0 0 0.05 570.747 90.9575)" font-style="normal" font-weight="normal" font-size="240px" font-family="Times New Roman" >
 </text>
<text x="0" y="0" stroke="none" fill="#000000" transform="matrix(0.05 0 0 0.05 573.747 90.9575)" font-style="normal" font-weight="normal" font-size="240px" font-family="Times New Roman" >
 </text>
<text x="0" y="0" stroke="none" fill="#000000" transform="matrix(0.05 0 0 0.05 576.747 90.9575)" font-style="normal" font-weight="normal" font-size="240px" font-family="Times New Roman" >
RO</text>
<text x="0" y="0" stroke="none" fill="#000000" transform="matrix(0.05 0 0 0.05 593.417 86.9848)" font-style="normal" font-weight="normal" font-size="180px" font-family="Times New Roman" >
-</text>
<text x="0" y="0" stroke="none" fill="#000000" transform="matrix(0.05 0 0 0.05 596.414 90.9575)" font-style="normal" font-weight="normal" font-size="240px" font-family="Times New Roman" >
Na</text>
<text x="0" y="0" stroke="none" fill="#000000" transform="matrix(0.05 0 0 0.05 610.406 86.9848)" font-style="normal" font-weight="normal" font-size="180px" font-family="Times New Roman" >
+</text>
<text x="0" y="0" stroke="none" fill="#000000" transform="matrix(0.05 0 0 0.05 561.747 107.024)" font-style="normal" font-weight="normal" font-size="240px" font-family="Times New Roman" >
or </text>
<text x="0" y="0" stroke="none" fill="#000000" transform="matrix(0.05 0 0 0.05 574.081 107.024)" font-style="normal" font-weight="normal" font-size="240px" font-family="Times New Roman" >
Ag</text>
<text x="0" y="0" stroke="none" fill="#000000" transform="matrix(0.05 0 0 0.05 588.747 109.619)" font-style="normal" font-weight="normal" font-size="180px" font-family="Times New Roman" >
2</text>
<text x="0" y="0" stroke="none" fill="#000000" transform="matrix(0.05 0 0 0.05 593.247 107.024)" font-style="normal" font-weight="normal" font-size="240px" font-family="Times New Roman" >
O</text>
<text x="0" y="0" stroke="none" fill="#000000" transform="matrix(0.05 0 0 0.05 745.701 221.925)" font-style="normal" font-weight="normal" font-size="240px" font-family="Times New Roman" >
(cyano)</text>
<text x="0" y="0" stroke="none" fill="#000000" transform="matrix(0.05 0 0 0.05 744.701 260.915)" font-style="normal" font-weight="normal" font-size="240px" font-family="Times New Roman" >
(isocyano)</text>
<text x="0" y="0" stroke="none" fill="#000000" transform="matrix(0.05 0 0 0.05 746.701 298.905)" font-style="normal" font-weight="normal" font-size="240px" font-family="Times New Roman" >
(nitrite)</text>
<text x="0" y="0" stroke="none" fill="#000000" transform="matrix(0.05 0 0 0.05 748.7 340.895)" font-style="normal" font-weight="normal" font-size="240px" font-family="Times New Roman" >
(nitro)</text>
<text x="0" y="0" stroke="none" fill="#000000" transform="matrix(0.05 0 0 0.05 776.693 380.885)" font-style="normal" font-weight="normal" font-size="240px" font-family="Times New Roman" >
( </text>
<text x="0" y="0" stroke="none" fill="#000000" transform="matrix(0.05 0 0 0.05 783.689 380.885)" font-style="normal" font-weight="normal" font-size="240px" font-family="Times New Roman" >
 </text>
<text x="0" y="0" stroke="none" fill="#000000" transform="matrix(0.05 0 0 0.05 786.689 380.885)" font-style="normal" font-weight="normal" font-size="240px" font-family="Times New Roman" >
 </text>
<text x="0" y="0" stroke="none" fill="#000000" transform="matrix(0.05 0 0 0.05 789.689 380.885)" font-style="normal" font-weight="normal" font-size="240px" font-family="Times New Roman" >
 </text>
<text x="0" y="0" stroke="none" fill="#000000" transform="matrix(0.05 0 0 0.05 792.689 380.885)" font-style="normal" font-weight="normal" font-size="240px" font-family="Times New Roman" >
 </text>
<text x="0" y="0" stroke="none" fill="#000000" transform="matrix(0.05 0 0 0.05 795.689 380.885)" font-style="normal" font-weight="normal" font-size="240px" font-family="Times New Roman" >
 </text>
<text x="0" y="0" stroke="none" fill="#000000" transform="matrix(0.05 0 0 0.05 798.689 380.885)" font-style="normal" font-weight="normal" font-size="240px" font-family="Times New Roman" >
 </text>
<text x="0" y="0" stroke="none" fill="#000000" transform="matrix(0.05 0 0 0.05 801.689 380.885)" font-style="normal" font-weight="normal" font-size="240px" font-family="Times New Roman" >
 </text>
<text x="0" y="0" stroke="none" fill="#000000" transform="matrix(0.05 0 0 0.05 804.689 380.885)" font-style="normal" font-weight="normal" font-size="240px" font-family="Times New Roman" >
 </text>
<text x="0" y="0" stroke="none" fill="#000000" transform="matrix(0.05 0 0 0.05 807.689 380.885)" font-style="normal" font-weight="normal" font-size="240px" font-family="Times New Roman" >
 </text>
<text x="0" y="0" stroke="none" fill="#000000" transform="matrix(0.05 0 0 0.05 810.689 380.885)" font-style="normal" font-weight="normal" font-size="240px" font-family="Times New Roman" >
 </text>
<text x="0" y="0" stroke="none" fill="#000000" transform="matrix(0.05 0 0 0.05 813.689 380.885)" font-style="normal" font-weight="normal" font-size="240px" font-family="Times New Roman" >
 </text>
<text x="0" y="0" stroke="none" fill="#000000" transform="matrix(0.05 0 0 0.05 816.689 380.885)" font-style="normal" font-weight="normal" font-size="240px" font-family="Times New Roman" >
 </text>
<text x="0" y="0" stroke="none" fill="#000000" transform="matrix(0.05 0 0 0.05 819.689 380.885)" font-style="normal" font-weight="normal" font-size="240px" font-family="Times New Roman" >
 </text>
<text x="0" y="0" stroke="none" fill="#000000" transform="matrix(0.05 0 0 0.05 822.689 380.885)" font-style="normal" font-weight="normal" font-size="240px" font-family="Times New Roman" >
 </text>
<text x="0" y="0" stroke="none" fill="#000000" transform="matrix(0.05 0 0 0.05 825.689 380.885)" font-style="normal" font-weight="normal" font-size="240px" font-family="Times New Roman" >
 </text>
<text x="0" y="0" stroke="none" fill="#000000" transform="matrix(0.05 0 0 0.05 828.689 380.885)" font-style="normal" font-weight="normal" font-size="240px" font-family="Times New Roman" >
 </text>
<text x="0" y="0" stroke="none" fill="#000000" transform="matrix(0.05 0 0 0.05 831.689 380.885)" font-style="normal" font-weight="normal" font-size="240px" font-family="Times New Roman" >
 </text>
<text x="0" y="0" stroke="none" fill="#000000" transform="matrix(0.05 0 0 0.05 834.689 380.885)" font-style="normal" font-weight="normal" font-size="240px" font-family="Times New Roman" >
 </text>
<text x="0" y="0" stroke="none" fill="#000000" transform="matrix(0.05 0 0 0.05 837.689 380.885)" font-style="normal" font-weight="normal" font-size="240px" font-family="Times New Roman" >
 </text>
<text x="0" y="0" stroke="none" fill="#000000" transform="matrix(0.05 0 0 0.05 840.689 380.885)" font-style="normal" font-weight="normal" font-size="240px" font-family="Times New Roman" >
 </text>
<text x="0" y="0" stroke="none" fill="#000000" transform="matrix(0.05 0 0 0.05 843.689 380.885)" font-style="normal" font-weight="normal" font-size="240px" font-family="Times New Roman" >
 </text>
<text x="0" y="0" stroke="none" fill="#000000" transform="matrix(0.05 0 0 0.05 846.689 380.885)" font-style="normal" font-weight="normal" font-size="240px" font-family="Times New Roman" >
 </text>
<text x="0" y="0" stroke="none" fill="#000000" transform="matrix(0.05 0 0 0.05 849.689 380.885)" font-style="normal" font-weight="normal" font-size="240px" font-family="Times New Roman" >
+ </text>
<text x="0" y="0" stroke="none" fill="#000000" transform="matrix(0.05 0 0 0.05 859.457 380.885)" font-style="normal" font-weight="normal" font-size="240px" font-family="Times New Roman" >
NaNH</text>
<text x="0" y="0" stroke="none" fill="#000000" transform="matrix(0.05 0 0 0.05 890.781 383.481)" font-style="normal" font-weight="normal" font-size="180px" font-family="Times New Roman" >
2</text>
<text x="0" y="0" stroke="none" fill="#000000" transform="matrix(0.05 0 0 0.05 895.281 380.885)" font-style="normal" font-weight="normal" font-size="240px" font-family="Times New Roman" >
 </text>
<text x="0" y="0" stroke="none" fill="#000000" transform="matrix(0.05 0 0 0.05 898.281 380.885)" font-style="normal" font-weight="normal" font-size="240px" font-family="Times New Roman" >
 </text>
<text x="0" y="0" stroke="none" fill="#000000" transform="matrix(0.05 0 0 0.05 901.281 380.885)" font-style="normal" font-weight="normal" font-size="240px" font-family="Times New Roman" >
 </text>
<text x="0" y="0" stroke="none" fill="#000000" transform="matrix(0.05 0 0 0.05 904.281 380.885)" font-style="normal" font-weight="normal" font-size="240px" font-family="Times New Roman" >
 </text>
<text x="0" y="0" stroke="none" fill="#000000" transform="matrix(0.05 0 0 0.05 907.281 380.885)" font-style="normal" font-weight="normal" font-size="240px" font-family="Times New Roman" >
 </text>
<text x="0" y="0" stroke="none" fill="#000000" transform="matrix(0.05 0 0 0.05 910.281 380.885)" font-style="normal" font-weight="normal" font-size="240px" font-family="Times New Roman" >
 </text>
<text x="0" y="0" stroke="none" fill="#000000" transform="matrix(0.05 0 0 0.05 913.281 380.885)" font-style="normal" font-weight="normal" font-size="240px" font-family="Times New Roman" >
 </text>
<text x="0" y="0" stroke="none" fill="#000000" transform="matrix(0.05 0 0 0.05 916.281 380.885)" font-style="normal" font-weight="normal" font-size="240px" font-family="Times New Roman" >
 </text>
<text x="0" y="0" stroke="none" fill="#000000" transform="matrix(0.05 0 0 0.05 919.281 380.885)" font-style="normal" font-weight="normal" font-size="240px" font-family="Times New Roman" >
 </text>
<text x="0" y="0" stroke="none" fill="#000000" transform="matrix(0.05 0 0 0.05 922.281 380.885)" font-style="normal" font-weight="normal" font-size="240px" font-family="Times New Roman" >
 </text>
<text x="0" y="0" stroke="none" fill="#000000" transform="matrix(0.05 0 0 0.05 925.281 380.885)" font-style="normal" font-weight="normal" font-size="240px" font-family="Times New Roman" >
 </text>
<text x="0" y="0" stroke="none" fill="#000000" transform="matrix(0.05 0 0 0.05 928.281 380.885)" font-style="normal" font-weight="normal" font-size="240px" font-family="Times New Roman" >
 </text>
<text x="0" y="0" stroke="none" fill="#000000" transform="matrix(0.05 0 0 0.05 931.281 380.885)" font-style="normal" font-weight="normal" font-size="240px" font-family="Times New Roman" >
 </text>
<text x="0" y="0" stroke="none" fill="#000000" transform="matrix(0.05 0 0 0.05 934.281 380.885)" font-style="normal" font-weight="normal" font-size="240px" font-family="Times New Roman" >
 </text>
<text x="0" y="0" stroke="none" fill="#000000" transform="matrix(0.05 0 0 0.05 937.281 380.885)" font-style="normal" font-weight="normal" font-size="240px" font-family="Times New Roman" >
 </text>
<text x="0" y="0" stroke="none" fill="#000000" transform="matrix(0.05 0 0 0.05 940.281 380.885)" font-style="normal" font-weight="normal" font-size="240px" font-family="Times New Roman" >
 </text>
<text x="0" y="0" stroke="none" fill="#000000" transform="matrix(0.05 0 0 0.05 943.281 380.885)" font-style="normal" font-weight="normal" font-size="240px" font-family="Times New Roman" >
 </text>
<text x="0" y="0" stroke="none" fill="#000000" transform="matrix(0.05 0 0 0.05 946.281 380.885)" font-style="normal" font-weight="normal" font-size="240px" font-family="Times New Roman" >
 </text>
<text x="0" y="0" stroke="none" fill="#000000" transform="matrix(0.05 0 0 0.05 949.281 380.885)" font-style="normal" font-weight="normal" font-size="240px" font-family="Times New Roman" >
 </text>
<text x="0" y="0" stroke="none" fill="#000000" transform="matrix(0.05 0 0 0.05 952.281 380.885)" font-style="normal" font-weight="normal" font-size="240px" font-family="Times New Roman" >
 </text>
<text x="0" y="0" stroke="none" fill="#000000" transform="matrix(0.05 0 0 0.05 955.281 380.885)" font-style="normal" font-weight="normal" font-size="240px" font-family="Times New Roman" >
 </text>
<text x="0" y="0" stroke="none" fill="#000000" transform="matrix(0.05 0 0 0.05 958.281 380.885)" font-style="normal" font-weight="normal" font-size="240px" font-family="Times New Roman" >
 </text>
<text x="0" y="0" stroke="none" fill="#000000" transform="matrix(0.05 0 0 0.05 961.281 380.885)" font-style="normal" font-weight="normal" font-size="240px" font-family="Times New Roman" >
 </text>
<text x="0" y="0" stroke="none" fill="#000000" transform="matrix(0.05 0 0 0.05 964.281 380.885)" font-style="normal" font-weight="normal" font-size="240px" font-family="Times New Roman" >
 </text>
<text x="0" y="0" stroke="none" fill="#000000" transform="matrix(0.05 0 0 0.05 967.281 380.885)" font-style="normal" font-weight="normal" font-size="240px" font-family="Times New Roman" >
 </text>
<text x="0" y="0" stroke="none" fill="#000000" transform="matrix(0.05 0 0 0.05 970.281 380.885)" font-style="normal" font-weight="normal" font-size="240px" font-family="Times New Roman" >
 </text>
<text x="0" y="0" stroke="none" fill="#000000" transform="matrix(0.05 0 0 0.05 973.281 380.885)" font-style="normal" font-weight="normal" font-size="240px" font-family="Times New Roman" >
 </text>
<text x="0" y="0" stroke="none" fill="#000000" transform="matrix(0.05 0 0 0.05 976.281 380.885)" font-style="normal" font-weight="normal" font-size="240px" font-family="Times New Roman" >
 </text>
<text x="0" y="0" stroke="none" fill="#000000" transform="matrix(0.05 0 0 0.05 979.281 380.885)" font-style="normal" font-weight="normal" font-size="240px" font-family="Times New Roman" >
 </text>
<text x="0" y="0" stroke="none" fill="#000000" transform="matrix(0.05 0 0 0.05 982.281 380.885)" font-style="normal" font-weight="normal" font-size="240px" font-family="Times New Roman" >
 </text>
<text x="0" y="0" stroke="none" fill="#000000" transform="matrix(0.05 0 0 0.05 985.281 380.885)" font-style="normal" font-weight="normal" font-size="240px" font-family="Times New Roman" >
 </text>
<text x="0" y="0" stroke="none" fill="#000000" transform="matrix(0.05 0 0 0.05 988.281 380.885)" font-style="normal" font-weight="normal" font-size="240px" font-family="Times New Roman" >
 </text>
<text x="0" y="0" stroke="none" fill="#000000" transform="matrix(0.05 0 0 0.05 991.281 380.885)" font-style="normal" font-weight="normal" font-size="240px" font-family="Times New Roman" >
 </text>
<text x="0" y="0" stroke="none" fill="#000000" transform="matrix(0.05 0 0 0.05 994.281 380.885)" font-style="normal" font-weight="normal" font-size="240px" font-family="Times New Roman" >
 </text>
<text x="0" y="0" stroke="none" fill="#000000" transform="matrix(0.05 0 0 0.05 997.281 380.885)" font-style="normal" font-weight="normal" font-size="240px" font-family="Times New Roman" >
 </text>
<text x="0" y="0" stroke="none" fill="#000000" transform="matrix(0.05 0 0 0.05 1000.28 380.885)" font-style="normal" font-weight="normal" font-size="240px" font-family="Times New Roman" >
 </text>
<text x="0" y="0" stroke="none" fill="#000000" transform="matrix(0.05 0 0 0.05 1003.28 380.885)" font-style="normal" font-weight="normal" font-size="240px" font-family="Times New Roman" >
)</text>
<text x="0" y="0" stroke="none" fill="#000000" transform="matrix(0.05 0 0 0.05 783.051 379.29)" font-style="normal" font-weight="normal" font-size="200px" font-family="Arial" >
RC</text>
<text x="0" y="0" stroke="none" fill="#000000" transform="matrix(0.05 0 0 0.05 830.354 379.29)" font-style="normal" font-weight="normal" font-size="200px" font-family="Arial" >
CH</text>
<path stroke="none" fill="#000000" transform="matrix(0.05 0 0 0.05 -50 -79)" d="M 16981.7,9007.98 L 16981.7,8987.98 L 17576,8987.98 L 17576,9007.98 L 16981.7,9007.98 Z " />
<path stroke="none" fill="#000000" transform="matrix(0.05 0 0 0.05 -50 -79)" d="M 16981.7,9104.17 L 16981.7,9084.17 L 17576,9084.17 L 17576,9104.17 L 16981.7,9104.17 Z " />
<path stroke="none" fill="#000000" transform="matrix(0.05 0 0 0.05 -50 -79)" d="M 16981.7,9200.37 L 16981.7,9180.37 L 17576,9180.37 L 17576,9200.37 L 16981.7,9200.37 Z " />
<path stroke="none" fill="#000000" transform="matrix(0.05 0 0 0.05 -50 -79)" d="M 19439.1,9087.73 L 19033.2,9087.73 L 19033.2,9067.73 L 19439.1,9067.73 Z " />
<path stroke="none" fill="#000000" transform="matrix(0.05 0 0 0.05 -50 -79)" d="M 19613.1,9077.73 C 19613.1,9077.73 19413.1,9128.73 19413.1,9128.73 C 19413.1,9128.73 19438.1,9100.04 19438.1,9077.73 C 19438.1,9054.98 19413.1,9025.73 19413.1,9025.73 C 19413.1,9025.73 19613.1,9077.73 19613.1,9077.73 C 19613.1,9077.73 19613.1,9077.73 19613.1,9077.73 " />
<path stroke="#000000" stroke-width="1" fill="none" transform="matrix(0.05 0 0 0.05 -50 -79)" d="M 19613.1,9077.73 C 19613.1,9077.73 19413.1,9128.73 19413.1,9128.73 C 19413.1,9128.73 19438.1,9100.04 19438.1,9077.73 C 19438.1,9054.98 19413.1,9025.73 19413.1,9025.73 C 19413.1,9025.73 19613.1,9077.73 19613.1,9077.73 C 19613.1,9077.73 19613.1,9077.73 19613.1,9077.73 " />
<text x="0" y="0" stroke="none" fill="#000000" transform="matrix(0.05 0 0 0.05 941.011 380.29)" font-style="normal" font-weight="normal" font-size="200px" font-family="Arial" >
RC</text>
<text x="0" y="0" stroke="none" fill="#000000" transform="matrix(0.05 0 0 0.05 988.314 380.29)" font-style="normal" font-weight="normal" font-size="200px" font-family="Arial" >
C</text>
<text x="0" y="0" stroke="none" fill="#000000" transform="matrix(0.05 0 0 0.05 995.536 376.708)" font-style="normal" font-weight="normal" font-size="150px" font-family="Arial" >
-</text>
<path stroke="none" fill="#000000" transform="matrix(0.05 0 0 0.05 -50 -79)" d="M 20141,9027.97 L 20141,9007.97 L 20735.2,9007.97 L 20735.2,9027.97 L 20141,9027.97 Z " />
<path stroke="none" fill="#000000" transform="matrix(0.05 0 0 0.05 -50 -79)" d="M 20141,9124.17 L 20141,9104.17 L 20735.2,9104.17 L 20735.2,9124.17 L 20141,9124.17 Z " />
<path stroke="none" fill="#000000" transform="matrix(0.05 0 0 0.05 -50 -79)" d="M 20141,9220.36 L 20141,9200.36 L 20735.2,9200.36 L 20735.2,9220.36 L 20141,9220.36 Z " />
<text x="0" y="0" stroke="none" fill="#000000" transform="matrix(0.05 0 0 0.05 1.88687 214.926)" font-style="normal" font-weight="normal" font-size="240px" font-family="Times New Roman" >
(Grignard </text>
<text x="0" y="0" stroke="none" fill="#000000" transform="matrix(0.05 0 0 0.05 52.2013 214.926)" font-style="normal" font-weight="normal" font-size="240px" font-family="Times New Roman" >
Reagent)</text>
<text x="0" y="0" stroke="none" fill="#000000" transform="matrix(0.05 0 0 0.05 212.318 357.891)" font-style="normal" font-weight="normal" font-size="240px" font-family="Times New Roman" >
Na</text>
<text x="0" y="0" stroke="none" fill="#000000" transform="matrix(0.05 0 0 0.05 195.065 371.69)" font-style="normal" font-weight="normal" font-size="240px" font-family="Times New Roman" >
Wurtz </text>
<text x="0" y="0" stroke="none" fill="#000000" transform="matrix(0.05 0 0 0.05 227.567 371.69)" font-style="normal" font-weight="normal" font-size="240px" font-family="Times New Roman" >
rxn</text>
<path stroke="none" fill="#000000" transform="matrix(0.05 0 0 0.05 -50 -79)" d="M 8140.96,13125.4 L 8130.96,13108.1 L 8655.58,12804.9 L 8655.58,12828 L 8140.96,13125.4 Z " />
<path stroke="none" fill="#000000" transform="matrix(0.05 0 0 0.05 -50 -79)" d="M 8655.58,12828 L 8655.58,12804.9 L 9175.24,13105.4 L 9175.23,13128.5 L 8655.58,12828 Z " />
<text x="0" y="0" stroke="none" fill="#000000" transform="matrix(0.05 0 0 0.05 431.13 565.418)" font-style="normal" font-weight="normal" font-size="200px" font-family="Arial" >
Cl</text>
<path stroke="none" fill="#000000" transform="matrix(0.05 0 0 0.05 -50 -79)" d="M 9175.23,13128.5 L 9175.24,13105.4 L 9595.54,12862.5 L 9605.54,12879.8 L 9175.23,13128.5 Z " />
<path stroke="none" fill="#000000" transform="matrix(0.05 0 0 0.05 -50 -79)" d="M 8140.96,15004.9 L 8130.96,14987.6 L 8645.81,14690.6 L 8655.58,14696.2 L 8655.58,14707.6 L 8140.96,15004.9 Z " />
<path stroke="none" fill="#000000" transform="matrix(0.05 0 0 0.05 -50 -79)" d="M 8655.58,14707.6 L 8655.58,14696.2 L 8665.34,14690.6 L 9180.19,14987.6 L 9170.19,15004.9 L 8655.58,14707.6 Z " />
<text x="0" y="0" stroke="none" fill="#000000" transform="matrix(0.05 0 0 0.05 379.168 629.394)" font-style="normal" font-weight="normal" font-size="200px" font-family="Arial" >
Cl</text>
<path stroke="none" fill="#000000" transform="matrix(0.05 0 0 0.05 -50 -79)" d="M 8665.34,14690.6 L 8655.58,14696.2 L 8645.81,14690.6 L 8645.58,14211.4 L 8665.58,14211.4 L 8665.34,14690.6 Z " />
<path stroke="none" fill="#000000" transform="matrix(0.05 0 0 0.05 -50 -79)" d="M 8665.83,13582.6 L 8665.83,13196.7 L 8685.83,13196.7 L 8685.83,13582.6 Z " />
<path stroke="none" fill="#000000" transform="matrix(0.05 0 0 0.05 -50 -79)" d="M 8675.83,13756.6 C 8675.83,13756.6 8623.83,13556.6 8623.83,13556.6 C 8623.83,13556.6 8653.08,13581.6 8675.83,13581.6 C 8698.14,13581.6 8726.83,13556.6 8726.83,13556.6 C 8726.83,13556.6 8675.83,13756.6 8675.83,13756.6 C 8675.83,13756.6 8675.83,13756.6 8675.83,13756.6 " />
<path stroke="#000000" stroke-width="1" fill="none" transform="matrix(0.05 0 0 0.05 -50 -79)" d="M 8675.83,13756.6 C 8675.83,13756.6 8623.83,13556.6 8623.83,13556.6 C 8623.83,13556.6 8653.08,13581.6 8675.83,13581.6 C 8698.14,13581.6 8726.83,13556.6 8726.83,13556.6 C 8726.83,13556.6 8675.83,13756.6 8675.83,13756.6 C 8675.83,13756.6 8675.83,13756.6 8675.83,13756.6 " />
<text x="0" y="0" stroke="none" fill="#000000" transform="matrix(0.05 0 0 0.05 541.137 548.58)" font-style="normal" font-weight="normal" font-size="200px" font-family="Arial" >
R</text>
<path stroke="none" fill="#000000" transform="matrix(0.05 0 0 0.05 -50 -79)" d="M 11385.2,12785.6 L 11375.3,12780 L 11375.4,12768.7 L 11781.7,12533.8 L 11791.7,12551.1 L 11385.2,12785.6 Z " />
<text x="0" y="0" stroke="none" fill="#000000" transform="matrix(-9.18485e-18 -0.05 0.05 -9.18485e-18 486.885 492.453)" font-style="normal" font-weight="normal" font-size="240px" font-family="Times New Roman" >
C</text>
<text x="0" y="0" stroke="none" fill="#000000" transform="matrix(-9.18485e-18 -0.05 0.05 -9.18485e-18 489.481 484.449)" font-style="normal" font-weight="normal" font-size="180px" font-family="Times New Roman" >
6</text>
<text x="0" y="0" stroke="none" fill="#000000" transform="matrix(-9.18485e-18 -0.05 0.05 -9.18485e-18 486.885 479.949)" font-style="normal" font-weight="normal" font-size="240px" font-family="Times New Roman" >
H</text>
<text x="0" y="0" stroke="none" fill="#000000" transform="matrix(-9.18485e-18 -0.05 0.05 -9.18485e-18 489.481 471.283)" font-style="normal" font-weight="normal" font-size="180px" font-family="Times New Roman" >
6</text>
<text x="0" y="0" stroke="none" fill="#000000" transform="matrix(-9.18485e-18 -0.05 0.05 -9.18485e-18 486.885 466.783)" font-style="normal" font-weight="normal" font-size="240px" font-family="Times New Roman" >
, </text>
<text x="0" y="0" stroke="none" fill="#000000" transform="matrix(-9.18485e-18 -0.05 0.05 -9.18485e-18 486.885 461.445)" font-style="normal" font-weight="normal" font-size="240px" font-family="Times New Roman" >
AlCl</text>
<text x="0" y="0" stroke="none" fill="#000000" transform="matrix(-9.18485e-18 -0.05 0.05 -9.18485e-18 489.481 438.107)" font-style="normal" font-weight="normal" font-size="180px" font-family="Times New Roman" >
3</text>
<path stroke="none" fill="#000000" transform="matrix(0.05 0 0 0.05 -50 -79)" d="M 14151.6,10811.9 L 11639.8,10811.9 L 11639.8,10791.9 L 14151.6,10791.9 Z " />
<path stroke="none" fill="#000000" transform="matrix(0.05 0 0 0.05 -50 -79)" d="M 14325.6,10801.9 C 14325.6,10801.9 14125.6,10852.9 14125.6,10852.9 C 14125.6,10852.9 14150.6,10824.2 14150.6,10801.9 C 14150.6,10779.1 14125.6,10749.9 14125.6,10749.9 C 14125.6,10749.9 14325.6,10801.9 14325.6,10801.9 C 14325.6,10801.9 14325.6,10801.9 14325.6,10801.9 " />
<path stroke="#000000" stroke-width="1" fill="none" transform="matrix(0.05 0 0 0.05 -50 -79)" d="M 14325.6,10801.9 C 14325.6,10801.9 14125.6,10852.9 14125.6,10852.9 C 14125.6,10852.9 14150.6,10824.2 14150.6,10801.9 C 14150.6,10779.1 14125.6,10749.9 14125.6,10749.9 C 14125.6,10749.9 14325.6,10801.9 14325.6,10801.9 C 14325.6,10801.9 14325.6,10801.9 14325.6,10801.9 " />
<text x="0" y="0" stroke="none" fill="#000000" transform="matrix(0.05 0 0 0.05 567.356 455.194)" font-style="normal" font-weight="normal" font-size="240px" font-family="Times New Roman" >
NH</text>
<text x="0" y="0" stroke="none" fill="#000000" transform="matrix(0.05 0 0 0.05 584.688 457.789)" font-style="normal" font-weight="normal" font-size="180px" font-family="Times New Roman" >
3 </text>
<text x="0" y="0" stroke="none" fill="#000000" transform="matrix(0.05 0 0 0.05 591.438 455.194)" font-style="normal" font-weight="normal" font-size="240px" font-family="Times New Roman" >
(excess)</text>
<text x="0" y="0" stroke="none" fill="#000000" transform="matrix(0.05 0 0 0.05 682.563 465.312)" font-style="normal" font-weight="normal" font-size="200px" font-family="Arial" >
R</text>
<text x="0" y="0" stroke="none" fill="#000000" transform="matrix(0.05 0 0 0.05 712.563 465.312)" font-style="normal" font-weight="normal" font-size="200px" font-family="Arial" >
NH</text>
<text x="0" y="0" stroke="none" fill="#000000" transform="matrix(0.05 0 0 0.05 727.007 467.431)" font-style="normal" font-weight="normal" font-size="150px" font-family="Arial" >
2</text>
<path stroke="none" fill="#000000" transform="matrix(0.05 0 0 0.05 -50 -79)" d="M 14833,10824.6 L 14833,10804.6 L 15225.5,10804.6 L 15225.5,10824.6 L 14833,10824.6 Z " />
<text x="0" y="0" stroke="none" fill="#000000" transform="matrix(0.05 0 0 0.05 741.702 467.863)" font-style="normal" font-weight="normal" font-size="240px" font-family="Times New Roman" >
+ </text>
<text x="0" y="0" stroke="none" fill="#000000" transform="matrix(0.05 0 0 0.05 751.469 467.863)" font-style="normal" font-weight="normal" font-size="240px" font-family="Times New Roman" >
 </text>
<text x="0" y="0" stroke="none" fill="#000000" transform="matrix(0.05 0 0 0.05 754.469 467.863)" font-style="normal" font-weight="normal" font-size="240px" font-family="Times New Roman" >
 </text>
<text x="0" y="0" stroke="none" fill="#000000" transform="matrix(0.05 0 0 0.05 757.469 467.863)" font-style="normal" font-weight="normal" font-size="240px" font-family="Times New Roman" >
NaI</text>
<path stroke="none" fill="#000000" transform="matrix(0.05 0 0 0.05 -50 -79)" d="M 14151.6,11478.8 L 11639.8,11478.8 L 11639.8,11458.8 L 14151.6,11458.8 Z " />
<path stroke="none" fill="#000000" transform="matrix(0.05 0 0 0.05 -50 -79)" d="M 14325.6,11468.8 C 14325.6,11468.8 14125.6,11519.8 14125.6,11519.8 C 14125.6,11519.8 14150.6,11491.1 14150.6,11468.8 C 14150.6,11446.1 14125.6,11416.8 14125.6,11416.8 C 14125.6,11416.8 14325.6,11468.8 14325.6,11468.8 C 14325.6,11468.8 14325.6,11468.8 14325.6,11468.8 " />
<path stroke="#000000" stroke-width="1" fill="none" transform="matrix(0.05 0 0 0.05 -50 -79)" d="M 14325.6,11468.8 C 14325.6,11468.8 14125.6,11519.8 14125.6,11519.8 C 14125.6,11519.8 14150.6,11491.1 14150.6,11468.8 C 14150.6,11446.1 14125.6,11416.8 14125.6,11416.8 C 14125.6,11416.8 14325.6,11468.8 14325.6,11468.8 C 14325.6,11468.8 14325.6,11468.8 14325.6,11468.8 " />
<text x="0" y="0" stroke="none" fill="#000000" transform="matrix(0.05 0 0 0.05 579.742 489.858)" font-style="normal" font-weight="normal" font-size="240px" font-family="Times New Roman" >
I</text>
<text x="0" y="0" stroke="none" fill="#000000" transform="matrix(0.05 0 0 0.05 583.738 485.885)" font-style="normal" font-weight="normal" font-size="180px" font-family="Times New Roman" >
-</text>
<text x="0" y="0" stroke="none" fill="#000000" transform="matrix(0.05 0 0 0.05 586.736 489.858)" font-style="normal" font-weight="normal" font-size="240px" font-family="Times New Roman" >
 </text>
<text x="0" y="0" stroke="none" fill="#000000" transform="matrix(0.05 0 0 0.05 589.736 489.858)" font-style="normal" font-weight="normal" font-size="240px" font-family="Times New Roman" >
/acetone</text>
<text x="0" y="0" stroke="none" fill="#000000" transform="matrix(0.05 0 0 0.05 683.325 497.462)" font-style="normal" font-weight="normal" font-size="200px" font-family="Arial" >
R</text>
<text x="0" y="0" stroke="none" fill="#000000" transform="matrix(0.05 0 0 0.05 715.546 497.462)" font-style="normal" font-weight="normal" font-size="200px" font-family="Arial" >
I</text>
<path stroke="none" fill="#000000" transform="matrix(0.05 0 0 0.05 -50 -79)" d="M 14848.2,11467.6 L 14848.2,11447.6 L 15288.6,11447.6 L 15288.6,11467.6 L 14848.2,11467.6 Z " />
<text x="0" y="0" stroke="none" fill="#000000" transform="matrix(0.05 0 0 0.05 730.705 499.855)" font-style="normal" font-weight="normal" font-size="240px" font-family="Times New Roman" >
+ </text>
<text x="0" y="0" stroke="none" fill="#000000" transform="matrix(0.05 0 0 0.05 740.472 499.855)" font-style="normal" font-weight="normal" font-size="240px" font-family="Times New Roman" >
 </text>
<text x="0" y="0" stroke="none" fill="#000000" transform="matrix(0.05 0 0 0.05 743.472 499.855)" font-style="normal" font-weight="normal" font-size="240px" font-family="Times New Roman" >
 </text>
<text x="0" y="0" stroke="none" fill="#000000" transform="matrix(0.05 0 0 0.05 746.472 499.855)" font-style="normal" font-weight="normal" font-size="240px" font-family="Times New Roman" >
X</text>
<text x="0" y="0" stroke="none" fill="#000000" transform="matrix(0.05 0 0 0.05 755.138 495.883)" font-style="normal" font-weight="normal" font-size="180px" font-family="Times New Roman" >
-</text>
<text x="0" y="0" stroke="none" fill="#000000" transform="matrix(0.05 0 0 0.05 189.048 333.901)" font-style="normal" font-weight="normal" font-size="240px" font-family="Times New Roman" >
(Adv </text>
<text x="0" y="0" stroke="none" fill="#000000" transform="matrix(0.05 0 0 0.05 216.71 333.901)" font-style="normal" font-weight="normal" font-size="240px" font-family="Times New Roman" >
1983)</text>
</svg>
