<?xml version="1.0" standalone="no" ?>
<!DOCTYPE svg PUBLIC "-//W3C//DTD SVG 1.1//EN" "http://www.w3.org/Graphics/SVG/1.1/DTD/svg11.dtd">
<svg width="1271px" height="291px" viewBox="0 0 1271 291" style="background-color: #ffffff00" xmlns="http://www.w3.org/2000/svg" xmlns:xlink="http://www.w3.org/1999/xlink" version="1.1" >
<path stroke="none" fill="#0000ff" transform="matrix(0.05 0 0 0.05 -22 -96)" d="M 493.492,2968.07 L 525.522,2986.56 L 525.522,3568.64 L 493.492,3587.13 L 493.492,2968.07 Z " />
<path stroke="none" fill="#0000ff" transform="matrix(0.05 0 0 0.05 -22 -96)" d="M 584,3029.56 L 616,3029.56 L 616,3525.64 L 584,3525.64 L 584,3029.56 Z " />
<path stroke="none" fill="#0000ff" transform="matrix(0.05 0 0 0.05 -22 -96)" d="M 493.492,3587.13 L 525.522,3568.64 L 1029.6,3859.68 L 1029.6,3896.66 L 493.492,3587.13 Z " />
<path stroke="none" fill="#0000ff" transform="matrix(0.05 0 0 0.05 -22 -96)" d="M 1029.6,3896.66 L 1029.6,3859.68 L 1533.68,3568.64 L 1565.71,3587.13 L 1029.6,3896.66 Z " />
<path stroke="none" fill="#0000ff" transform="matrix(0.05 0 0 0.05 -22 -96)" d="M 1037.6,3787.53 L 1021.6,3759.82 L 1451.2,3511.78 L 1467.2,3539.5 L 1037.6,3787.53 Z " />
<path stroke="none" fill="#0000ff" transform="matrix(0.05 0 0 0.05 -22 -96)" d="M 1565.71,3587.13 L 1533.68,3568.64 L 1533.68,2986.56 L 1565.71,2968.07 L 1565.71,3587.13 Z " />
<path stroke="none" fill="#0000ff" transform="matrix(0.05 0 0 0.05 -22 -96)" d="M 1565.71,2968.07 L 1533.68,2986.56 L 1029.6,2695.52 L 1029.6,2677.6 L 1044.96,2668.54 L 1565.71,2968.07 Z " />
<path stroke="none" fill="#0000ff" transform="matrix(0.05 0 0 0.05 -22 -96)" d="M 1467.2,3015.7 L 1451.2,3043.42 L 1021.6,2795.38 L 1037.6,2767.67 L 1467.2,3015.7 Z " />
<path stroke="none" fill="#0000ff" transform="matrix(0.05 0 0 0.05 -22 -96)" d="M 1014.24,2668.54 L 1029.6,2677.6 L 1029.6,2695.52 L 525.522,2986.56 L 493.492,2968.07 L 1014.24,2668.54 Z " />
<text x="0" y="0" stroke="none" fill="#0000ff" transform="matrix(0.05 0 0 0.05 24.3982 12.7065)" font-style="normal" font-weight="normal" font-size="280px" font-family="Chalkboard" >
OH</text>
<path stroke="none" fill="#0000ff" transform="matrix(0.05 0 0 0.05 -22 -96)" d="M 1044.96,2668.54 L 1029.6,2677.6 L 1014.24,2668.54 L 1013.6,2221.53 L 1045.6,2221.53 L 1044.96,2668.54 Z " />
<path stroke="none" fill="#0000ff" transform="matrix(0.05 0 0 0.05 -22 -96)" d="M 3993.84,3259.2 L 2076.36,3259.2 L 2076.36,3227.2 L 3993.84,3227.2 Z " />
<path stroke="none" fill="#0000ff" transform="matrix(0.05 0 0 0.05 -22 -96)" d="M 4272.84,3243.2 C 4272.84,3243.2 3952.84,3324.2 3952.84,3324.2 C 3952.84,3324.2 3992.84,3278.64 3992.84,3243.2 C 3992.84,3207.32 3952.84,3161.2 3952.84,3161.2 C 3952.84,3161.2 4272.84,3243.2 4272.84,3243.2 C 4272.84,3243.2 4272.84,3243.2 4272.84,3243.2 " />
<path stroke="#0000ff" stroke-width="1" fill="none" transform="matrix(0.05 0 0 0.05 -22 -96)" d="M 4272.84,3243.2 C 4272.84,3243.2 3952.84,3324.2 3952.84,3324.2 C 3952.84,3324.2 3992.84,3278.64 3992.84,3243.2 C 3992.84,3207.32 3952.84,3161.2 3952.84,3161.2 C 3952.84,3161.2 4272.84,3243.2 4272.84,3243.2 C 4272.84,3243.2 4272.84,3243.2 4272.84,3243.2 " />
<text x="0" y="0" stroke="none" fill="#0000ff" transform="matrix(0.05 0 0 0.05 83.536 85.03)" font-style="normal" font-weight="normal" font-size="280px" font-family="Chalkboard" >
+ </text>
<text x="0" y="0" stroke="none" fill="#0000ff" transform="matrix(0.05 0 0 0.05 96.4377 85.03)" font-style="normal" font-weight="normal" font-size="280px" font-family="Chalkboard" >
conc. </text>
<text x="0" y="0" stroke="none" fill="#0000ff" transform="matrix(0.05 0 0 0.05 132.219 85.03)" font-style="normal" font-weight="normal" font-size="280px" font-family="Chalkboard" >
H</text>
<text x="0" y="0" stroke="none" fill="#0000ff" transform="matrix(0.05 0 0 0.05 140.928 88.9901)" font-style="normal" font-weight="normal" font-size="210px" font-family="Chalkboard" >
2</text>
<text x="0" y="0" stroke="none" fill="#0000ff" transform="matrix(0.05 0 0 0.05 146.903 85.03)" font-style="normal" font-weight="normal" font-size="280px" font-family="Chalkboard" >
SO</text>
<text x="0" y="0" stroke="none" fill="#0000ff" transform="matrix(0.05 0 0 0.05 165.297 88.9901)" font-style="normal" font-weight="normal" font-size="210px" font-family="Chalkboard" >
4</text>
<text x="0" y="0" stroke="none" fill="#0000ff" transform="matrix(0.05 0 0 0.05 204.367 13.6545)" font-style="normal" font-weight="normal" font-size="280px" font-family="Chalkboard" >
HO</text>
<text x="0" y="0" stroke="none" fill="#0000ff" transform="matrix(0.05 0 0 0.05 420.006 11.6545)" font-style="normal" font-weight="normal" font-size="280px" font-family="Chalkboard" >
OH</text>
<path stroke="none" fill="#0000ff" transform="matrix(0.05 0 0 0.05 -22 -96)" d="M 6358.26,2967.18 L 6342.76,2976.16 L 6327.26,2967.18 L 6327.26,2405.34 L 6359.29,2386.83 L 6358.26,2967.18 Z " />
<path stroke="none" fill="#0000ff" transform="matrix(0.05 0 0 0.05 -22 -96)" d="M 6327.26,2967.18 L 6342.76,2976.16 L 6342.76,2994.08 L 5823.23,3294.84 L 5822.69,3258.18 L 6327.26,2967.18 Z " />
<path stroke="none" fill="#0000ff" transform="matrix(0.05 0 0 0.05 -22 -96)" d="M 6244.76,2910.31 L 6260.74,2938.03 L 5829.44,3186.78 L 5813.45,3159.07 L 6244.76,2910.31 Z " />
<path stroke="none" fill="#0000ff" transform="matrix(0.05 0 0 0.05 -22 -96)" d="M 5822.69,3258.18 L 5823.23,3294.84 L 5286.63,3006.04 L 5318.67,2986.91 L 5822.69,3258.18 Z " />
<path stroke="none" fill="#0000ff" transform="matrix(0.05 0 0 0.05 -22 -96)" d="M 5318.67,2986.91 L 5286.63,3006.04 L 5287.62,2404.97 L 5303.16,2396.36 L 5318.68,2405.33 L 5318.67,2986.91 Z " />
<path stroke="none" fill="#0000ff" transform="matrix(0.05 0 0 0.05 -22 -96)" d="M 5409.13,2942.41 L 5377.13,2942.41 L 5377.13,2448.33 L 5409.13,2448.33 L 5409.13,2942.41 Z " />
<path stroke="none" fill="#0000ff" transform="matrix(0.05 0 0 0.05 -22 -96)" d="M 5318.68,2405.33 L 5303.16,2396.36 L 5303.14,2378.45 L 5822.96,2077.5 L 5822.96,2114.48 L 5318.68,2405.33 Z " />
<path stroke="none" fill="#0000ff" transform="matrix(0.05 0 0 0.05 -22 -96)" d="M 6359.29,2386.83 L 6327.26,2405.34 L 5822.96,2114.48 L 5822.96,2077.5 L 6359.29,2386.83 Z " />
<path stroke="none" fill="#0000ff" transform="matrix(0.05 0 0 0.05 -22 -96)" d="M 6260.74,2434.49 L 6244.76,2462.21 L 5814.97,2214.33 L 5830.95,2186.61 L 6260.74,2434.49 Z " />
<path stroke="none" fill="#0000ff" transform="matrix(0.05 0 0 0.05 -22 -96)" d="M 6862.69,3258.11 L 6862.56,3275.96 L 6846.97,3284.88 L 6342.76,2994.08 L 6342.76,2976.16 L 6358.26,2967.18 L 6862.69,3258.11 Z " />
<path stroke="none" fill="#0000ff" transform="matrix(0.05 0 0 0.05 -22 -96)" d="M 5303.14,2378.45 L 5303.16,2396.36 L 5287.62,2404.97 L 4903.42,2175.33 L 4919.88,2147.89 L 5303.14,2378.45 Z " />
<path stroke="none" fill="#0000ff" transform="matrix(0.05 0 0 0.05 -22 -96)" d="M 7402.23,2994.01 L 7402.36,2976.16 L 7417.88,2967.19 L 7922.16,3258.04 L 7922.16,3295.02 L 7402.23,2994.01 Z " />
<path stroke="none" fill="#0000ff" transform="matrix(0.05 0 0 0.05 -22 -96)" d="M 7484.38,2938.03 L 7500.36,2910.31 L 7930.15,3158.19 L 7914.17,3185.91 L 7484.38,2938.03 Z " />
<path stroke="none" fill="#0000ff" transform="matrix(0.05 0 0 0.05 -22 -96)" d="M 7417.88,2967.19 L 7402.36,2976.16 L 7386.85,2967.01 L 7385.85,2366.82 L 7417.88,2385.33 L 7417.88,2967.19 Z " />
<path stroke="none" fill="#0000ff" transform="matrix(0.05 0 0 0.05 -22 -96)" d="M 7417.88,2385.33 L 7385.85,2366.82 L 7922.16,2057.5 L 7922.16,2094.48 L 7417.88,2385.33 Z " />
<path stroke="none" fill="#0000ff" transform="matrix(0.05 0 0 0.05 -22 -96)" d="M 7500.36,2442.21 L 7484.38,2414.49 L 7914.17,2166.61 L 7930.15,2194.33 L 7500.36,2442.21 Z " />
<path stroke="none" fill="#0000ff" transform="matrix(0.05 0 0 0.05 -22 -96)" d="M 7922.16,2094.48 L 7922.16,2057.5 L 8441.72,2358.32 L 8441.96,2376.36 L 8426.44,2385.33 L 7922.16,2094.48 Z " />
<path stroke="none" fill="#0000ff" transform="matrix(0.05 0 0 0.05 -22 -96)" d="M 8426.44,2385.33 L 8441.96,2376.36 L 8457.52,2384.68 L 8458.47,2985.7 L 8426.44,2967.19 L 8426.44,2385.33 Z " />
<path stroke="none" fill="#0000ff" transform="matrix(0.05 0 0 0.05 -22 -96)" d="M 8335.99,2428.33 L 8367.99,2428.33 L 8367.99,2924.19 L 8335.99,2924.19 L 8335.99,2428.33 Z " />
<path stroke="none" fill="#0000ff" transform="matrix(0.05 0 0 0.05 -22 -96)" d="M 7922.16,3295.02 L 7922.16,3258.04 L 8426.44,2967.19 L 8458.47,2985.7 L 7922.16,3295.02 Z " />
<path stroke="none" fill="#0000ff" transform="matrix(0.05 0 0 0.05 -22 -96)" d="M 6878,3285.15 L 6862.56,3275.96 L 6862.69,3258.11 L 7386.85,2967.01 L 7402.36,2976.16 L 7402.23,2994.01 L 6878,3285.15 Z " />
<path stroke="none" fill="#0000ff" transform="matrix(0.05 0 0 0.05 -22 -96)" d="M 8457.52,2384.68 L 8441.96,2376.36 L 8441.72,2358.32 L 8814.17,2119.2 L 8831.42,2146.16 L 8457.52,2384.68 Z " />
<path stroke="none" fill="#0000ff" transform="matrix(0.05 0 0 0.05 -22 -96)" d="M 613.692,6760.47 L 645.722,6778.96 L 645.722,7361.04 L 613.692,7379.53 L 613.692,6760.47 Z " />
<path stroke="none" fill="#0000ff" transform="matrix(0.05 0 0 0.05 -22 -96)" d="M 704.2,6821.96 L 736.2,6821.96 L 736.2,7318.04 L 704.2,7318.04 L 704.2,6821.96 Z " />
<path stroke="none" fill="#0000ff" transform="matrix(0.05 0 0 0.05 -22 -96)" d="M 613.692,7379.53 L 645.722,7361.04 L 1149.8,7652.08 L 1149.8,7689.06 L 613.692,7379.53 Z " />
<path stroke="none" fill="#0000ff" transform="matrix(0.05 0 0 0.05 -22 -96)" d="M 1149.8,7689.06 L 1149.8,7652.08 L 1653.88,7361.04 L 1685.91,7379.53 L 1149.8,7689.06 Z " />
<path stroke="none" fill="#0000ff" transform="matrix(0.05 0 0 0.05 -22 -96)" d="M 1157.8,7579.93 L 1141.8,7552.22 L 1571.4,7304.18 L 1587.4,7331.9 L 1157.8,7579.93 Z " />
<path stroke="none" fill="#0000ff" transform="matrix(0.05 0 0 0.05 -22 -96)" d="M 1685.91,7379.53 L 1653.88,7361.04 L 1653.88,6778.96 L 1685.91,6760.47 L 1685.91,7379.53 Z " />
<path stroke="none" fill="#0000ff" transform="matrix(0.05 0 0 0.05 -22 -96)" d="M 1685.91,6760.47 L 1653.88,6778.96 L 1149.8,6487.92 L 1149.8,6470 L 1165.16,6460.94 L 1685.91,6760.47 Z " />
<path stroke="none" fill="#0000ff" transform="matrix(0.05 0 0 0.05 -22 -96)" d="M 1587.4,6808.1 L 1571.4,6835.82 L 1141.8,6587.78 L 1157.8,6560.07 L 1587.4,6808.1 Z " />
<path stroke="none" fill="#0000ff" transform="matrix(0.05 0 0 0.05 -22 -96)" d="M 1134.44,6460.94 L 1149.8,6470 L 1149.8,6487.92 L 645.722,6778.96 L 613.692,6760.47 L 1134.44,6460.94 Z " />
<text x="0" y="0" stroke="none" fill="#0000ff" transform="matrix(0.05 0 0 0.05 30.4082 202.327)" font-style="normal" font-weight="normal" font-size="280px" font-family="Chalkboard" >
OH</text>
<path stroke="none" fill="#0000ff" transform="matrix(0.05 0 0 0.05 -22 -96)" d="M 1165.16,6460.94 L 1149.8,6470 L 1134.44,6460.94 L 1133.8,6013.93 L 1165.8,6013.93 L 1165.16,6460.94 Z " />
<text x="0" y="0" stroke="none" fill="#0000ff" transform="matrix(0.05 0 0 0.05 83.532 249.78)" font-style="normal" font-weight="normal" font-size="280px" font-family="Chalkboard" >
+</text>
<path stroke="none" fill="#0000ff" transform="matrix(0.05 0 0 0.05 -22 -96)" d="M 5761.44,6897.2 L 4084.04,6897.2 L 4084.04,6865.2 L 5761.44,6865.2 Z " />
<path stroke="none" fill="#0000ff" transform="matrix(0.05 0 0 0.05 -22 -96)" d="M 6040.44,6881.2 C 6040.44,6881.2 5720.44,6962.2 5720.44,6962.2 C 5720.44,6962.2 5760.44,6916.64 5760.44,6881.2 C 5760.44,6845.33 5720.44,6799.2 5720.44,6799.2 C 5720.44,6799.2 6040.44,6881.2 6040.44,6881.2 C 6040.44,6881.2 6040.44,6881.2 6040.44,6881.2 " />
<path stroke="#0000ff" stroke-width="1" fill="none" transform="matrix(0.05 0 0 0.05 -22 -96)" d="M 6040.44,6881.2 C 6040.44,6881.2 5720.44,6962.2 5720.44,6962.2 C 5720.44,6962.2 5760.44,6916.64 5760.44,6881.2 C 5760.44,6845.33 5720.44,6799.2 5720.44,6799.2 C 5720.44,6799.2 6040.44,6881.2 6040.44,6881.2 C 6040.44,6881.2 6040.44,6881.2 6040.44,6881.2 " />
<text x="0" y="0" stroke="none" fill="#0000ff" transform="matrix(0.05 0 0 0.05 187.352 239.48)" font-style="normal" font-weight="normal" font-size="280px" font-family="Chalkboard" >
conc. </text>
<text x="0" y="0" stroke="none" fill="#0000ff" transform="matrix(0.05 0 0 0.05 223.133 239.48)" font-style="normal" font-weight="normal" font-size="280px" font-family="Chalkboard" >
H</text>
<text x="0" y="0" stroke="none" fill="#0000ff" transform="matrix(0.05 0 0 0.05 231.843 243.44)" font-style="normal" font-weight="normal" font-size="210px" font-family="Chalkboard" >
2</text>
<text x="0" y="0" stroke="none" fill="#0000ff" transform="matrix(0.05 0 0 0.05 237.818 239.48)" font-style="normal" font-weight="normal" font-size="280px" font-family="Chalkboard" >
SO</text>
<text x="0" y="0" stroke="none" fill="#0000ff" transform="matrix(0.05 0 0 0.05 256.211 243.44)" font-style="normal" font-weight="normal" font-size="210px" font-family="Chalkboard" >
4</text>
<path stroke="none" fill="#0000ff" transform="matrix(0.05 0 0 0.05 -22 -96)" d="M 15096.4,7085.96 L 13419,7085.96 L 13419,7053.96 L 15096.4,7053.96 Z " />
<path stroke="none" fill="#0000ff" transform="matrix(0.05 0 0 0.05 -22 -96)" d="M 15375.4,7069.96 C 15375.4,7069.96 15055.4,7150.96 15055.4,7150.96 C 15055.4,7150.96 15095.4,7105.4 15095.4,7069.96 C 15095.4,7034.09 15055.4,6987.96 15055.4,6987.96 C 15055.4,6987.96 15375.4,7069.96 15375.4,7069.96 C 15375.4,7069.96 15375.4,7069.96 15375.4,7069.96 " />
<path stroke="#0000ff" stroke-width="1" fill="none" transform="matrix(0.05 0 0 0.05 -22 -96)" d="M 15375.4,7069.96 C 15375.4,7069.96 15055.4,7150.96 15055.4,7150.96 C 15055.4,7150.96 15095.4,7105.4 15095.4,7069.96 C 15095.4,7034.09 15055.4,6987.96 15055.4,6987.96 C 15055.4,6987.96 15375.4,7069.96 15375.4,7069.96 C 15375.4,7069.96 15375.4,7069.96 15375.4,7069.96 " />
<text x="0" y="0" stroke="none" fill="#0000ff" transform="matrix(0.05 0 0 0.05 654.1 248.918)" font-style="normal" font-weight="normal" font-size="280px" font-family="Chalkboard" >
conc. </text>
<text x="0" y="0" stroke="none" fill="#0000ff" transform="matrix(0.05 0 0 0.05 689.881 248.918)" font-style="normal" font-weight="normal" font-size="280px" font-family="Chalkboard" >
H</text>
<text x="0" y="0" stroke="none" fill="#0000ff" transform="matrix(0.05 0 0 0.05 698.591 252.878)" font-style="normal" font-weight="normal" font-size="210px" font-family="Chalkboard" >
2</text>
<text x="0" y="0" stroke="none" fill="#0000ff" transform="matrix(0.05 0 0 0.05 704.566 248.918)" font-style="normal" font-weight="normal" font-size="280px" font-family="Chalkboard" >
SO</text>
<text x="0" y="0" stroke="none" fill="#0000ff" transform="matrix(0.05 0 0 0.05 722.959 252.878)" font-style="normal" font-weight="normal" font-size="210px" font-family="Chalkboard" >
4</text>
<path stroke="none" fill="#0000ff" transform="matrix(0.05 0 0 0.05 -22 -96)" d="M 19335.2,6056.95 L 19367.2,6075.44 L 19367.2,6657.52 L 19335.2,6676.01 L 19335.2,6056.95 Z " />
<path stroke="none" fill="#0000ff" transform="matrix(0.05 0 0 0.05 -22 -96)" d="M 19425.7,6118.44 L 19457.7,6118.44 L 19457.7,6614.52 L 19425.7,6614.52 L 19425.7,6118.44 Z " />
<path stroke="none" fill="#0000ff" transform="matrix(0.05 0 0 0.05 -22 -96)" d="M 19335.2,6676.01 L 19367.2,6657.52 L 19871.3,6948.56 L 19871.3,6985.54 L 19335.2,6676.01 Z " />
<path stroke="none" fill="#0000ff" transform="matrix(0.05 0 0 0.05 -22 -96)" d="M 19871.3,6985.54 L 19871.3,6948.56 L 20375.4,6657.52 L 20407.4,6676.01 L 19871.3,6985.54 Z " />
<path stroke="none" fill="#0000ff" transform="matrix(0.05 0 0 0.05 -22 -96)" d="M 19879.3,6876.41 L 19863.3,6848.7 L 20292.9,6600.66 L 20308.9,6628.38 L 19879.3,6876.41 Z " />
<path stroke="none" fill="#0000ff" transform="matrix(0.05 0 0 0.05 -22 -96)" d="M 20407.4,6676.01 L 20375.4,6657.52 L 20375.4,6075.44 L 20407.4,6056.95 L 20407.4,6676.01 Z " />
<path stroke="none" fill="#0000ff" transform="matrix(0.05 0 0 0.05 -22 -96)" d="M 20407.4,6056.95 L 20375.4,6075.44 L 19871.3,5784.4 L 19871.3,5766.48 L 19886.6,5757.42 L 20407.4,6056.95 Z " />
<path stroke="none" fill="#0000ff" transform="matrix(0.05 0 0 0.05 -22 -96)" d="M 20308.9,6104.58 L 20292.9,6132.3 L 19863.3,5884.26 L 19879.3,5856.55 L 20308.9,6104.58 Z " />
<path stroke="none" fill="#0000ff" transform="matrix(0.05 0 0 0.05 -22 -96)" d="M 19855.9,5757.42 L 19871.3,5766.48 L 19871.3,5784.4 L 19367.2,6075.44 L 19335.2,6056.95 L 19855.9,5757.42 Z " />
<text x="0" y="0" stroke="none" fill="#0000ff" transform="matrix(0.05 0 0 0.05 966.482 167.151)" font-style="normal" font-weight="normal" font-size="280px" font-family="Chalkboard" >
OH</text>
<path stroke="none" fill="#0000ff" transform="matrix(0.05 0 0 0.05 -22 -96)" d="M 19886.6,5757.42 L 19871.3,5766.48 L 19855.9,5757.42 L 19855.3,5310.41 L 19887.3,5310.41 L 19886.6,5757.42 Z " />
<path stroke="#0000ff" stroke-width="32" fill="none" transform="matrix(0.05 0 0 0.05 -22 -96)" d="M 20059.9,6006.07 C 19955.7,6105.54 19951.8,6270.87 20051.3,6375.08 C 20092.4,6418.13 20148.5,6446.43 20207.6,6453.85 " />
<path stroke="none" fill="#0000ff" transform="matrix(0.05 0 0 0.05 -22 -96)" d="M 20420.3,6383.68 C 20420.3,6383.68 20198.2,6525.65 20198.2,6525.65 C 20198.2,6525.65 20216.8,6480.87 20207.6,6453.85 C 20198.3,6426.82 20156.1,6402.09 20156.1,6402.09 C 20156.1,6402.09 20420.3,6383.68 20420.3,6383.68 C 20420.3,6383.68 20420.3,6383.68 20420.3,6383.68 " />
<path stroke="#0000ff" stroke-width="1" fill="none" transform="matrix(0.05 0 0 0.05 -22 -96)" d="M 20420.3,6383.68 C 20420.3,6383.68 20198.2,6525.65 20198.2,6525.65 C 20198.2,6525.65 20216.8,6480.87 20207.6,6453.85 C 20198.3,6426.82 20156.1,6402.09 20156.1,6402.09 C 20156.1,6402.09 20420.3,6383.68 20420.3,6383.68 C 20420.3,6383.68 20420.3,6383.68 20420.3,6383.68 " />
<path stroke="none" fill="#0000ff" transform="matrix(0.05 0 0 0.05 -22 -96)" d="M 19670.1,5113.88 A 23.3333,23.3333 0 1 0 19716.8,5113.88A 23.3333,23.3333 0 1 0 19670.1,5113.88Z " />
<path stroke="none" fill="#0000ff" transform="matrix(0.05 0 0 0.05 -22 -96)" d="M 19670.1,5218.88 A 23.3333,23.3333 0 1 0 19716.8,5218.88A 23.3333,23.3333 0 1 0 19670.1,5218.88Z " />
<path stroke="#0000ff" stroke-width="32" fill="none" transform="matrix(0.05 0 0 0.05 -22 -96)" d="M 20125.6,5588.39 C 20250.2,5542.72 20314.3,5404.52 20268.6,5279.93 C 20251.7,5233.96 20220.5,5193.43 20180.3,5165.44 " />
<path stroke="none" fill="#0000ff" transform="matrix(0.05 0 0 0.05 -22 -96)" d="M 19905.4,5559.92 C 19905.4,5559.92 20166.2,5528.55 20166.2,5528.55 C 20166.2,5528.55 20129.6,5560.68 20125.6,5588.39 C 20121.7,5616.1 20147.9,5656.36 20147.9,5656.36 C 20147.9,5656.36 19905.4,5559.92 19905.4,5559.92 C 19905.4,5559.92 19905.4,5559.92 19905.4,5559.92 " />
<path stroke="#0000ff" stroke-width="1" fill="none" transform="matrix(0.05 0 0 0.05 -22 -96)" d="M 19905.4,5559.92 C 19905.4,5559.92 20166.2,5528.55 20166.2,5528.55 C 20166.2,5528.55 20129.6,5560.68 20125.6,5588.39 C 20121.7,5616.1 20147.9,5656.36 20147.9,5656.36 C 20147.9,5656.36 19905.4,5559.92 19905.4,5559.92 C 19905.4,5559.92 19905.4,5559.92 19905.4,5559.92 " />
<text x="0" y="0" stroke="none" fill="#0000ff" transform="matrix(0.05 0 0 0.05 969.842 277.224)" font-style="normal" font-weight="normal" font-size="280px" font-family="Chalkboard" >
EAS</text>
<text x="0" y="0" stroke="none" fill="#0000ff" transform="matrix(0.05 0 0 0.05 6.31 162.26)" font-style="normal" font-weight="normal" font-size="280px" font-family="Chalkboard" >
Mechanism</text>
<path stroke="#0000ff" stroke-width="20" fill="none" transform="matrix(0.05 0 0 0.05 6.31 162.26)" d="M 0,40 L 1369.06,40 " />
<text x="0" y="0" stroke="none" fill="#0000ff" transform="matrix(0.05 0 0 0.05 74.763 162.26)" font-style="normal" font-weight="normal" font-size="280px" font-family="Chalkboard" >
:</text>
<path stroke="none" fill="#0000ff" transform="matrix(0.05 0 0 0.05 -22 -96)" d="M 20604.7,7137.48 L 19133.3,7137.48 L 19133.3,7105.48 L 20604.7,7105.48 Z " />
<path stroke="none" fill="#0000ff" transform="matrix(0.05 0 0 0.05 -22 -96)" d="M 20883.7,7121.48 C 20883.7,7121.48 20563.7,7202.48 20563.7,7202.48 C 20563.7,7202.48 20603.7,7156.92 20603.7,7121.48 C 20603.7,7085.61 20563.7,7039.48 20563.7,7039.48 C 20563.7,7039.48 20883.7,7121.48 20883.7,7121.48 C 20883.7,7121.48 20883.7,7121.48 20883.7,7121.48 " />
<path stroke="#0000ff" stroke-width="1" fill="none" transform="matrix(0.05 0 0 0.05 -22 -96)" d="M 20883.7,7121.48 C 20883.7,7121.48 20563.7,7202.48 20563.7,7202.48 C 20563.7,7202.48 20603.7,7156.92 20603.7,7121.48 C 20603.7,7085.61 20563.7,7039.48 20563.7,7039.48 C 20563.7,7039.48 20883.7,7121.48 20883.7,7121.48 C 20883.7,7121.48 20883.7,7121.48 20883.7,7121.48 " />
<path stroke="none" fill="#0000ff" transform="matrix(0.05 0 0 0.05 -22 -96)" d="M 6846.97,3284.88 L 6862.56,3275.96 L 6878,3285.15 L 6873.16,3869.13 L 6857.56,3877.96 L 6842.11,3868.87 L 6846.97,3284.88 Z " />
<path stroke="none" fill="#0000ff" transform="matrix(0.05 0 0 0.05 -22 -96)" d="M 8352.89,6056.95 L 8384.92,6075.44 L 8384.92,6657.52 L 8352.89,6676.01 L 8352.89,6056.95 Z " />
<path stroke="none" fill="#0000ff" transform="matrix(0.05 0 0 0.05 -22 -96)" d="M 8443.4,6118.44 L 8475.4,6118.44 L 8475.4,6614.52 L 8443.4,6614.52 L 8443.4,6118.44 Z " />
<path stroke="none" fill="#0000ff" transform="matrix(0.05 0 0 0.05 -22 -96)" d="M 8352.89,6676.01 L 8384.92,6657.52 L 8889,6948.56 L 8889,6985.54 L 8352.89,6676.01 Z " />
<path stroke="none" fill="#0000ff" transform="matrix(0.05 0 0 0.05 -22 -96)" d="M 8889,6985.54 L 8889,6948.56 L 9393.08,6657.52 L 9425.11,6676.01 L 8889,6985.54 Z " />
<path stroke="none" fill="#0000ff" transform="matrix(0.05 0 0 0.05 -22 -96)" d="M 8897,6876.41 L 8881,6848.7 L 9310.6,6600.66 L 9326.6,6628.38 L 8897,6876.41 Z " />
<path stroke="none" fill="#0000ff" transform="matrix(0.05 0 0 0.05 -22 -96)" d="M 9425.11,6676.01 L 9393.08,6657.52 L 9393.08,6075.44 L 9425.11,6056.95 L 9425.11,6676.01 Z " />
<path stroke="none" fill="#0000ff" transform="matrix(0.05 0 0 0.05 -22 -96)" d="M 9425.11,6056.95 L 9393.08,6075.44 L 8889,5784.4 L 8889,5766.48 L 8904.36,5757.42 L 9425.11,6056.95 Z " />
<path stroke="none" fill="#0000ff" transform="matrix(0.05 0 0 0.05 -22 -96)" d="M 9326.6,6104.58 L 9310.6,6132.3 L 8881,5884.26 L 8897,5856.55 L 9326.6,6104.58 Z " />
<path stroke="none" fill="#0000ff" transform="matrix(0.05 0 0 0.05 -22 -96)" d="M 8873.64,5757.42 L 8889,5766.48 L 8889,5784.4 L 8384.92,6075.44 L 8352.89,6056.95 L 8873.64,5757.42 Z " />
<text x="0" y="0" stroke="none" fill="#0000ff" transform="matrix(0.05 0 0 0.05 417.368 167.151)" font-style="normal" font-weight="normal" font-size="280px" font-family="Chalkboard" >
OH</text>
<path stroke="none" fill="#0000ff" transform="matrix(0.05 0 0 0.05 -22 -96)" d="M 8904.36,5757.42 L 8889,5766.48 L 8873.64,5757.42 L 8873,5310.41 L 8905,5310.41 L 8904.36,5757.42 Z " />
<path stroke="#0000ff" stroke-width="32" fill="none" transform="matrix(0.05 0 0 0.05 -22 -96)" d="M 9077.6,6006.07 C 8973.38,6105.54 8969.53,6270.87 9068.99,6375.08 C 9110.08,6418.13 9166.23,6446.43 9225.28,6453.85 " />
<path stroke="none" fill="#0000ff" transform="matrix(0.05 0 0 0.05 -22 -96)" d="M 9438,6383.68 C 9438,6383.68 9215.93,6525.65 9215.93,6525.65 C 9215.93,6525.65 9234.48,6480.87 9225.28,6453.85 C 9216.07,6426.82 9173.84,6402.09 9173.84,6402.09 C 9173.84,6402.09 9438,6383.68 9438,6383.68 C 9438,6383.68 9438,6383.68 9438,6383.68 " />
<path stroke="#0000ff" stroke-width="1" fill="none" transform="matrix(0.05 0 0 0.05 -22 -96)" d="M 9438,6383.68 C 9438,6383.68 9215.93,6525.65 9215.93,6525.65 C 9215.93,6525.65 9234.48,6480.87 9225.28,6453.85 C 9216.07,6426.82 9173.84,6402.09 9173.84,6402.09 C 9173.84,6402.09 9438,6383.68 9438,6383.68 C 9438,6383.68 9438,6383.68 9438,6383.68 " />
<path stroke="none" fill="#0000ff" transform="matrix(0.05 0 0 0.05 -22 -96)" d="M 8687.87,5113.88 A 23.3333,23.3333 0 1 0 8734.53,5113.88A 23.3333,23.3333 0 1 0 8687.87,5113.88Z " />
<path stroke="none" fill="#0000ff" transform="matrix(0.05 0 0 0.05 -22 -96)" d="M 8687.87,5218.88 A 23.3333,23.3333 0 1 0 8734.53,5218.88A 23.3333,23.3333 0 1 0 8687.87,5218.88Z " />
<path stroke="#0000ff" stroke-width="32" fill="none" transform="matrix(0.05 0 0 0.05 -22 -96)" d="M 9143.19,5588.45 C 9267.81,5542.86 9331.96,5404.7 9286.37,5280.09 C 9269.55,5234.11 9238.32,5193.55 9198.16,5165.53 " />
<path stroke="none" fill="#0000ff" transform="matrix(0.05 0 0 0.05 -22 -96)" d="M 8923.03,5559.83 C 8923.03,5559.83 9183.82,5528.63 9183.82,5528.63 C 9183.82,5528.63 9147.17,5560.74 9143.19,5588.45 C 9139.21,5616.16 9165.47,5656.44 9165.47,5656.44 C 9165.47,5656.44 8923.03,5559.83 8923.03,5559.83 C 8923.03,5559.83 8923.03,5559.83 8923.03,5559.83 " />
<path stroke="#0000ff" stroke-width="1" fill="none" transform="matrix(0.05 0 0 0.05 -22 -96)" d="M 8923.03,5559.83 C 8923.03,5559.83 9183.82,5528.63 9183.82,5528.63 C 9183.82,5528.63 9147.17,5560.74 9143.19,5588.45 C 9139.21,5616.16 9165.47,5656.44 9165.47,5656.44 C 9165.47,5656.44 8923.03,5559.83 8923.03,5559.83 C 8923.03,5559.83 8923.03,5559.83 8923.03,5559.83 " />
<text x="0" y="0" stroke="none" fill="#0000ff" transform="matrix(0.05 0 0 0.05 423.302 277.224)" font-style="normal" font-weight="normal" font-size="280px" font-family="Chalkboard" >
EAS</text>
<path stroke="none" fill="#0000ff" transform="matrix(0.05 0 0 0.05 -22 -96)" d="M 9622.4,7137.48 L 8151,7137.48 L 8151,7105.48 L 9622.4,7105.48 Z " />
<path stroke="none" fill="#0000ff" transform="matrix(0.05 0 0 0.05 -22 -96)" d="M 9901.4,7121.48 C 9901.4,7121.48 9581.4,7202.48 9581.4,7202.48 C 9581.4,7202.48 9621.4,7156.92 9621.4,7121.48 C 9621.4,7085.61 9581.4,7039.48 9581.4,7039.48 C 9581.4,7039.48 9901.4,7121.48 9901.4,7121.48 C 9901.4,7121.48 9901.4,7121.48 9901.4,7121.48 " />
<path stroke="#0000ff" stroke-width="1" fill="none" transform="matrix(0.05 0 0 0.05 -22 -96)" d="M 9901.4,7121.48 C 9901.4,7121.48 9581.4,7202.48 9581.4,7202.48 C 9581.4,7202.48 9621.4,7156.92 9621.4,7121.48 C 9621.4,7085.61 9581.4,7039.48 9581.4,7039.48 C 9581.4,7039.48 9901.4,7121.48 9901.4,7121.48 C 9901.4,7121.48 9901.4,7121.48 9901.4,7121.48 " />
<text x="0" y="0" stroke="none" fill="#0000ff" transform="matrix(0.05 0 0 0.05 480.649 186.975)" font-style="normal" font-weight="normal" font-size="280px" font-family="Chalkboard" >
HO</text>
<path stroke="none" fill="#0000ff" transform="matrix(0.05 0 0 0.05 -22 -96)" d="M 11883.9,6433.58 L 11868.4,6442.56 L 11852.9,6433.58 L 11852.9,5871.74 L 11884.9,5853.23 L 11883.9,6433.58 Z " />
<path stroke="none" fill="#0000ff" transform="matrix(0.05 0 0 0.05 -22 -96)" d="M 11852.9,6433.58 L 11868.4,6442.56 L 11868.4,6460.48 L 11348.9,6761.24 L 11348.3,6724.58 L 11852.9,6433.58 Z " />
<path stroke="none" fill="#0000ff" transform="matrix(0.05 0 0 0.05 -22 -96)" d="M 11770.4,6376.71 L 11786.4,6404.43 L 11355.1,6653.18 L 11339.1,6625.47 L 11770.4,6376.71 Z " />
<path stroke="none" fill="#0000ff" transform="matrix(0.05 0 0 0.05 -22 -96)" d="M 11348.3,6724.58 L 11348.9,6761.24 L 10812.3,6472.44 L 10844.3,6453.31 L 11348.3,6724.58 Z " />
<path stroke="none" fill="#0000ff" transform="matrix(0.05 0 0 0.05 -22 -96)" d="M 10844.3,6453.31 L 10812.3,6472.44 L 10813.3,5871.37 L 10828.8,5862.76 L 10844.3,5871.73 L 10844.3,6453.31 Z " />
<path stroke="none" fill="#0000ff" transform="matrix(0.05 0 0 0.05 -22 -96)" d="M 10934.8,6408.81 L 10902.8,6408.81 L 10902.8,5914.73 L 10934.8,5914.73 L 10934.8,6408.81 Z " />
<path stroke="none" fill="#0000ff" transform="matrix(0.05 0 0 0.05 -22 -96)" d="M 10844.3,5871.73 L 10828.8,5862.76 L 10828.8,5844.85 L 11348.6,5543.9 L 11348.6,5580.88 L 10844.3,5871.73 Z " />
<path stroke="none" fill="#0000ff" transform="matrix(0.05 0 0 0.05 -22 -96)" d="M 11884.9,5853.23 L 11852.9,5871.74 L 11348.6,5580.88 L 11348.6,5543.9 L 11884.9,5853.23 Z " />
<path stroke="none" fill="#0000ff" transform="matrix(0.05 0 0 0.05 -22 -96)" d="M 11786.4,5900.89 L 11770.4,5928.61 L 11340.6,5680.73 L 11356.6,5653.01 L 11786.4,5900.89 Z " />
<path stroke="none" fill="#0000ff" transform="matrix(0.05 0 0 0.05 -22 -96)" d="M 12388.4,6724.54 L 12388.2,6742.36 L 12372.6,6751.28 L 11868.4,6460.48 L 11868.4,6442.56 L 11883.9,6433.58 L 12388.4,6724.54 Z " />
<path stroke="none" fill="#0000ff" transform="matrix(0.05 0 0 0.05 -22 -96)" d="M 10828.8,5844.85 L 10828.8,5862.76 L 10813.3,5871.37 L 10429.1,5641.73 L 10445.5,5614.29 L 10828.8,5844.85 Z " />
<path stroke="none" fill="#0000ff" transform="matrix(0.05 0 0 0.05 -22 -96)" d="M 12372.6,6751.28 L 12388.2,6742.36 L 12403.7,6751.22 L 12398.8,7335.53 L 12383.2,7344.36 L 12367.8,7335.27 L 12372.6,6751.28 Z " />
<text x="0" y="0" stroke="none" fill="#0000ff" transform="matrix(0.05 0 0 0.05 618.368 231.045)" font-style="normal" font-weight="normal" font-size="280px" font-family="Chalkboard" >
OH</text>
<path stroke="none" fill="#0000ff" transform="matrix(0.05 0 0 0.05 -22 -96)" d="M 12403.7,6751.22 L 12388.2,6742.36 L 12388.4,6724.54 L 12779.7,6499.92 L 12795.6,6527.69 L 12403.7,6751.22 Z " />
<text x="0" y="0" stroke="none" fill="#0000ff" transform="matrix(0.05 0 0 0.05 1034.68 188.689)" font-style="normal" font-weight="normal" font-size="280px" font-family="Chalkboard" >
HO</text>
<text x="0" y="0" stroke="none" fill="#0000ff" transform="matrix(0.05 0 0 0.05 1250.32 186.689)" font-style="normal" font-weight="normal" font-size="280px" font-family="Chalkboard" >
OH</text>
<path stroke="none" fill="#0000ff" transform="matrix(0.05 0 0 0.05 -22 -96)" d="M 22964.6,6467.86 L 22949.1,6476.84 L 22933.6,6467.86 L 22933.6,5906.02 L 22965.6,5887.51 L 22964.6,6467.86 Z " />
<path stroke="none" fill="#0000ff" transform="matrix(0.05 0 0 0.05 -22 -96)" d="M 22933.6,6467.86 L 22949.1,6476.84 L 22949.1,6494.76 L 22429.5,6795.52 L 22429,6758.86 L 22933.6,6467.86 Z " />
<path stroke="none" fill="#0000ff" transform="matrix(0.05 0 0 0.05 -22 -96)" d="M 22851.1,6410.99 L 22867.1,6438.71 L 22435.8,6687.47 L 22419.8,6659.75 L 22851.1,6410.99 Z " />
<path stroke="none" fill="#0000ff" transform="matrix(0.05 0 0 0.05 -22 -96)" d="M 22429,6758.86 L 22429.5,6795.52 L 21893,6506.72 L 21925,6487.59 L 22429,6758.86 Z " />
<path stroke="none" fill="#0000ff" transform="matrix(0.05 0 0 0.05 -22 -96)" d="M 21925,6487.59 L 21893,6506.72 L 21893.9,5905.65 L 21909.5,5897.04 L 21925,5906.01 L 21925,6487.59 Z " />
<path stroke="none" fill="#0000ff" transform="matrix(0.05 0 0 0.05 -22 -96)" d="M 22015.4,6443.09 L 21983.5,6443.09 L 21983.5,5949.01 L 22015.4,5949.01 L 22015.4,6443.09 Z " />
<path stroke="none" fill="#0000ff" transform="matrix(0.05 0 0 0.05 -22 -96)" d="M 21925,5906.01 L 21909.5,5897.04 L 21909.5,5879.13 L 22429.3,5578.18 L 22429.3,5615.16 L 21925,5906.01 Z " />
<path stroke="none" fill="#0000ff" transform="matrix(0.05 0 0 0.05 -22 -96)" d="M 22965.6,5887.51 L 22933.6,5906.02 L 22429.3,5615.16 L 22429.3,5578.18 L 22965.6,5887.51 Z " />
<path stroke="none" fill="#0000ff" transform="matrix(0.05 0 0 0.05 -22 -96)" d="M 22867.1,5935.17 L 22851.1,5962.89 L 22421.3,5715.01 L 22437.3,5687.29 L 22867.1,5935.17 Z " />
<path stroke="none" fill="#0000ff" transform="matrix(0.05 0 0 0.05 -22 -96)" d="M 23469,6758.79 L 23468.9,6776.64 L 23453.3,6785.56 L 22949.1,6494.76 L 22949.1,6476.84 L 22964.6,6467.86 L 23469,6758.79 Z " />
<path stroke="none" fill="#0000ff" transform="matrix(0.05 0 0 0.05 -22 -96)" d="M 21909.5,5879.13 L 21909.5,5897.04 L 21893.9,5905.65 L 21508.6,5675.31 L 21525,5647.86 L 21909.5,5879.13 Z " />
<path stroke="none" fill="#0000ff" transform="matrix(0.05 0 0 0.05 -22 -96)" d="M 24008.6,6494.69 L 24008.7,6476.84 L 24024.2,6467.87 L 24528.5,6758.72 L 24528.5,6795.7 L 24008.6,6494.69 Z " />
<path stroke="none" fill="#0000ff" transform="matrix(0.05 0 0 0.05 -22 -96)" d="M 24090.7,6438.71 L 24106.7,6410.99 L 24536.5,6658.87 L 24520.5,6686.59 L 24090.7,6438.71 Z " />
<path stroke="none" fill="#0000ff" transform="matrix(0.05 0 0 0.05 -22 -96)" d="M 24024.2,6467.87 L 24008.7,6476.84 L 23993.2,6467.69 L 23992.2,5867.5 L 24024.2,5886.01 L 24024.2,6467.87 Z " />
<path stroke="none" fill="#0000ff" transform="matrix(0.05 0 0 0.05 -22 -96)" d="M 24024.2,5886.01 L 23992.2,5867.5 L 24528.5,5558.18 L 24528.5,5595.16 L 24024.2,5886.01 Z " />
<path stroke="none" fill="#0000ff" transform="matrix(0.05 0 0 0.05 -22 -96)" d="M 24106.7,5942.89 L 24090.7,5915.17 L 24520.5,5667.29 L 24536.5,5695.01 L 24106.7,5942.89 Z " />
<path stroke="none" fill="#0000ff" transform="matrix(0.05 0 0 0.05 -22 -96)" d="M 24528.5,5595.16 L 24528.5,5558.18 L 25048,5859 L 25048.3,5877.04 L 25032.8,5886.01 L 24528.5,5595.16 Z " />
<path stroke="none" fill="#0000ff" transform="matrix(0.05 0 0 0.05 -22 -96)" d="M 25032.8,5886.01 L 25048.3,5877.04 L 25063.8,5885.36 L 25064.8,6486.38 L 25032.8,6467.87 L 25032.8,5886.01 Z " />
<path stroke="none" fill="#0000ff" transform="matrix(0.05 0 0 0.05 -22 -96)" d="M 24942.3,5929.01 L 24974.3,5929.01 L 24974.3,6424.87 L 24942.3,6424.87 L 24942.3,5929.01 Z " />
<path stroke="none" fill="#0000ff" transform="matrix(0.05 0 0 0.05 -22 -96)" d="M 24528.5,6795.7 L 24528.5,6758.72 L 25032.8,6467.87 L 25064.8,6486.38 L 24528.5,6795.7 Z " />
<path stroke="none" fill="#0000ff" transform="matrix(0.05 0 0 0.05 -22 -96)" d="M 23484.3,6785.83 L 23468.9,6776.64 L 23469,6758.79 L 23993.2,6467.69 L 24008.7,6476.84 L 24008.6,6494.69 L 23484.3,6785.83 Z " />
<path stroke="none" fill="#0000ff" transform="matrix(0.05 0 0 0.05 -22 -96)" d="M 25063.8,5885.36 L 25048.3,5877.04 L 25048,5859 L 25420.9,5619.59 L 25438.2,5646.55 L 25063.8,5885.36 Z " />
<path stroke="none" fill="#0000ff" transform="matrix(0.05 0 0 0.05 -22 -96)" d="M 23453.3,6785.56 L 23468.9,6776.64 L 23484.3,6785.83 L 23479.3,7369.81 L 23463.7,7378.64 L 23448.2,7369.55 L 23453.3,6785.56 Z " />
<path stroke="none" fill="#0000ff" transform="matrix(0.05 0 0 0.05 -22 -96)" d="M 2427.56,3119.82 L 2411.56,3092.1 L 2939.18,2786.9 L 2939.18,2823.88 L 2427.56,3119.82 Z " />
<path stroke="none" fill="#0000ff" transform="matrix(0.05 0 0 0.05 -22 -96)" d="M 2939.18,2823.88 L 2939.18,2786.9 L 3466.79,3092.1 L 3450.79,3119.82 L 2939.18,2823.88 Z " />
<text x="0" y="0" stroke="none" fill="#0000ff" transform="matrix(0.05 0 0 0.05 119.877 19.1245)" font-style="normal" font-weight="normal" font-size="280px" font-family="Chalkboard" >
O</text>
<path stroke="none" fill="#0000ff" transform="matrix(0.05 0 0 0.05 -22 -96)" d="M 2910.18,2831.94 L 2878.18,2831.94 L 2878.18,2349.89 L 2910.18,2349.89 L 2910.18,2831.94 Z " />
<path stroke="none" fill="#0000ff" transform="matrix(0.05 0 0 0.05 -22 -96)" d="M 3000.18,2831.94 L 2968.18,2831.94 L 2968.18,2349.89 L 3000.18,2349.89 L 3000.18,2831.94 Z " />
<path stroke="none" fill="#0000ff" transform="matrix(0.05 0 0 0.05 -22 -96)" d="M 6857.41,3895.88 L 6857.56,3877.96 L 6873.16,3869.13 L 7382.78,4168.48 L 7366.55,4196.05 L 6857.41,3895.88 Z " />
<path stroke="none" fill="#0000ff" transform="matrix(0.05 0 0 0.05 -22 -96)" d="M 6842.11,3868.87 L 6857.56,3877.96 L 6857.41,3895.88 L 6343.36,4187.56 L 6327.59,4159.71 L 6842.11,3868.87 Z " />
<path stroke="none" fill="#0000ff" transform="matrix(0.05 0 0 0.05 -22 -96)" d="M 2564.84,7272.54 L 2548.84,7244.82 L 3076.46,6939.62 L 3076.46,6976.6 L 2564.84,7272.54 Z " />
<path stroke="none" fill="#0000ff" transform="matrix(0.05 0 0 0.05 -22 -96)" d="M 3076.46,6976.6 L 3076.46,6939.62 L 3604.07,7244.82 L 3588.07,7272.54 L 3076.46,6976.6 Z " />
<text x="0" y="0" stroke="none" fill="#0000ff" transform="matrix(0.05 0 0 0.05 126.741 226.761)" font-style="normal" font-weight="normal" font-size="280px" font-family="Chalkboard" >
O</text>
<path stroke="none" fill="#0000ff" transform="matrix(0.05 0 0 0.05 -22 -96)" d="M 3047.46,6984.66 L 3015.46,6984.66 L 3015.46,6502.61 L 3047.46,6502.61 L 3047.46,6984.66 Z " />
<path stroke="none" fill="#0000ff" transform="matrix(0.05 0 0 0.05 -22 -96)" d="M 3137.46,6984.66 L 3105.46,6984.66 L 3105.46,6502.61 L 3137.46,6502.61 L 3137.46,6984.66 Z " />
<path stroke="none" fill="#0000ff" transform="matrix(0.05 0 0 0.05 -22 -96)" d="M 6322.88,7255.38 L 6306.88,7227.66 L 6834.5,6922.46 L 6834.5,6959.44 L 6322.88,7255.38 Z " />
<path stroke="none" fill="#0000ff" transform="matrix(0.05 0 0 0.05 -22 -96)" d="M 6834.5,6959.44 L 6834.5,6922.46 L 7362.11,7227.66 L 7346.11,7255.38 L 6834.5,6959.44 Z " />
<text x="0" y="0" stroke="none" fill="#0000ff" transform="matrix(0.05 0 0 0.05 314.643 225.902)" font-style="normal" font-weight="normal" font-size="280px" font-family="Chalkboard" >
O</text>
<path stroke="none" fill="#0000ff" transform="matrix(0.05 0 0 0.05 -22 -96)" d="M 6805.49,6967.5 L 6773.5,6967.5 L 6773.5,6485.45 L 6805.49,6485.45 L 6805.49,6967.5 Z " />
<path stroke="none" fill="#0000ff" transform="matrix(0.05 0 0 0.05 -22 -96)" d="M 6895.49,6967.5 L 6863.5,6967.5 L 6863.5,6485.45 L 6895.49,6485.45 L 6895.49,6967.5 Z " />
<text x="0" y="0" stroke="none" fill="#0000ff" transform="matrix(0.05 0 0 0.05 341.351 210.902)" font-style="normal" font-weight="normal" font-size="280px" font-family="Chalkboard" >
H</text>
<path stroke="none" fill="#0000ff" transform="matrix(0.05 0 0 0.05 -22 -96)" d="M 6958.31,6288.51 L 6942.31,6260.8 L 7218.21,6101.51 L 7234.21,6129.22 L 6958.31,6288.51 Z " />
<path stroke="#0000ff" stroke-width="26" fill="none" transform="matrix(0.05 0 0 0.05 -22 -96)" d="M 6499,6218.75 A 105.8,105.8 0 1 0 6710.6,6218.75A 105.8,105.8 0 1 0 6499,6218.75Z " />
<path stroke="none" fill="#0000ff" transform="matrix(0.05 0 0 0.05 -22 -96)" d="M 6542.47,6206.09 L 6667.8,6206.09 L 6667.8,6232.09 L 6542.47,6232.09 Z " />
<path stroke="none" fill="#0000ff" transform="matrix(0.05 0 0 0.05 -22 -96)" d="M 6618.14,6156.42 L 6618.14,6281.75 L 6592.14,6281.75 L 6592.14,6156.42 Z " />
<path stroke="#0000ff" stroke-width="32" fill="none" transform="matrix(0.05 0 0 0.05 -22 -96)" d="M 6985.19,7267.95 C 7546.87,7768.78 8409.29,7719.39 8910.12,7157.71 C 9018.34,7036.34 9104.58,6895.46 9163.44,6743.88 " />
<path stroke="none" fill="#0000ff" transform="matrix(0.05 0 0 0.05 -22 -96)" d="M 6829.68,7104.24 C 6829.68,7104.24 7055.18,7245.91 7055.18,7245.91 C 7055.18,7245.91 7006.26,7247.92 6985.19,7267.95 C 6964.12,7287.99 6959.63,7336.77 6959.63,7336.77 C 6959.63,7336.77 6829.68,7104.24 6829.68,7104.24 C 6829.68,7104.24 6829.68,7104.24 6829.68,7104.24 " />
<path stroke="#0000ff" stroke-width="1" fill="none" transform="matrix(0.05 0 0 0.05 -22 -96)" d="M 6829.68,7104.24 C 6829.68,7104.24 7055.18,7245.91 7055.18,7245.91 C 7055.18,7245.91 7006.26,7247.92 6985.19,7267.95 C 6964.12,7287.99 6959.63,7336.77 6959.63,7336.77 C 6959.63,7336.77 6829.68,7104.24 6829.68,7104.24 C 6829.68,7104.24 6829.68,7104.24 6829.68,7104.24 " />
<path stroke="none" fill="#0000ff" transform="matrix(0.05 0 0 0.05 -22 -96)" d="M 12383.1,7362.28 L 12383.2,7344.36 L 12398.8,7335.53 L 12908.4,7634.88 L 12892.2,7662.45 L 12383.1,7362.28 Z " />
<path stroke="none" fill="#0000ff" transform="matrix(0.05 0 0 0.05 -22 -96)" d="M 12367.8,7335.27 L 12383.2,7344.36 L 12383.1,7362.28 L 11869,7653.96 L 11853.2,7626.11 L 12367.8,7335.27 Z " />
<text x="0" y="0" stroke="none" fill="#0000ff" transform="matrix(0.05 0 0 0.05 751.777 187.832)" font-style="normal" font-weight="normal" font-size="280px" font-family="Chalkboard" >
HO</text>
<path stroke="none" fill="#0000ff" transform="matrix(0.05 0 0 0.05 -22 -96)" d="M 17306.5,6450.74 L 17291,6459.72 L 17275.5,6450.74 L 17275.5,5888.9 L 17307.5,5870.39 L 17306.5,6450.74 Z " />
<path stroke="none" fill="#0000ff" transform="matrix(0.05 0 0 0.05 -22 -96)" d="M 17275.5,6450.74 L 17291,6459.72 L 17291,6477.64 L 16771.4,6778.4 L 16770.9,6741.74 L 17275.5,6450.74 Z " />
<path stroke="none" fill="#0000ff" transform="matrix(0.05 0 0 0.05 -22 -96)" d="M 17193,6393.87 L 17208.9,6421.59 L 16777.6,6670.34 L 16761.7,6642.63 L 17193,6393.87 Z " />
<path stroke="none" fill="#0000ff" transform="matrix(0.05 0 0 0.05 -22 -96)" d="M 16770.9,6741.74 L 16771.4,6778.4 L 16234.8,6489.6 L 16266.9,6470.47 L 16770.9,6741.74 Z " />
<path stroke="none" fill="#0000ff" transform="matrix(0.05 0 0 0.05 -22 -96)" d="M 16266.9,6470.47 L 16234.8,6489.6 L 16235.8,5888.53 L 16251.4,5879.92 L 16266.9,5888.89 L 16266.9,6470.47 Z " />
<path stroke="none" fill="#0000ff" transform="matrix(0.05 0 0 0.05 -22 -96)" d="M 16357.3,6425.97 L 16325.3,6425.97 L 16325.3,5931.89 L 16357.3,5931.89 L 16357.3,6425.97 Z " />
<path stroke="none" fill="#0000ff" transform="matrix(0.05 0 0 0.05 -22 -96)" d="M 16266.9,5888.89 L 16251.4,5879.92 L 16251.3,5862.01 L 16771.2,5561.06 L 16771.2,5598.04 L 16266.9,5888.89 Z " />
<path stroke="none" fill="#0000ff" transform="matrix(0.05 0 0 0.05 -22 -96)" d="M 17307.5,5870.39 L 17275.5,5888.9 L 16771.2,5598.04 L 16771.2,5561.06 L 17307.5,5870.39 Z " />
<path stroke="none" fill="#0000ff" transform="matrix(0.05 0 0 0.05 -22 -96)" d="M 17208.9,5918.05 L 17193,5945.77 L 16763.2,5697.89 L 16779.2,5670.17 L 17208.9,5918.05 Z " />
<path stroke="none" fill="#0000ff" transform="matrix(0.05 0 0 0.05 -22 -96)" d="M 17811,6741.7 L 17810.8,6759.52 L 17795.2,6768.44 L 17291,6477.64 L 17291,6459.72 L 17306.5,6450.74 L 17811,6741.7 Z " />
<path stroke="none" fill="#0000ff" transform="matrix(0.05 0 0 0.05 -22 -96)" d="M 16251.3,5862.01 L 16251.4,5879.92 L 16235.8,5888.53 L 15850.4,5658.19 L 15866.9,5630.74 L 16251.3,5862.01 Z " />
<path stroke="none" fill="#0000ff" transform="matrix(0.05 0 0 0.05 -22 -96)" d="M 17795.2,6768.44 L 17810.8,6759.52 L 17826.2,6768.38 L 17821.4,7352.69 L 17805.8,7361.52 L 17790.3,7352.43 L 17795.2,6768.44 Z " />
<text x="0" y="0" stroke="none" fill="#0000ff" transform="matrix(0.05 0 0 0.05 889.496 231.903)" font-style="normal" font-weight="normal" font-size="280px" font-family="Chalkboard" >
OH</text>
<text x="0" y="0" stroke="none" fill="#0000ff" transform="matrix(0.05 0 0 0.05 908.369 235.863)" font-style="normal" font-weight="normal" font-size="210px" font-family="Chalkboard" >
2</text>
<path stroke="none" fill="#0000ff" transform="matrix(0.05 0 0 0.05 -22 -96)" d="M 17826.2,6768.38 L 17810.8,6759.52 L 17811,6741.7 L 18201.8,6517.32 L 18217.7,6545.1 L 17826.2,6768.38 Z " />
<path stroke="none" fill="#0000ff" transform="matrix(0.05 0 0 0.05 -22 -96)" d="M 17805.6,7379.44 L 17805.8,7361.52 L 17821.4,7352.69 L 18331,7652.04 L 18314.8,7679.61 L 17805.6,7379.44 Z " />
<path stroke="none" fill="#0000ff" transform="matrix(0.05 0 0 0.05 -22 -96)" d="M 17790.3,7352.43 L 17805.8,7361.52 L 17805.6,7379.44 L 17291.6,7671.12 L 17275.8,7643.27 L 17790.3,7352.43 Z " />
<path stroke="#0000ff" stroke-width="26" fill="none" transform="matrix(0.05 0 0 0.05 -22 -96)" d="M 18224.2,6202.29 A 105.8,105.8 0 1 0 18435.8,6202.29A 105.8,105.8 0 1 0 18224.2,6202.29Z " />
<path stroke="none" fill="#0000ff" transform="matrix(0.05 0 0 0.05 -22 -96)" d="M 18267.7,6189.62 L 18393,6189.62 L 18393,6215.62 L 18267.7,6215.62 Z " />
<path stroke="none" fill="#0000ff" transform="matrix(0.05 0 0 0.05 -22 -96)" d="M 18343.3,6139.95 L 18343.3,6265.29 L 18317.3,6265.29 L 18317.3,6139.95 Z " />
<path stroke="#0000ff" stroke-width="32" fill="none" transform="matrix(0.05 0 0 0.05 -22 -96)" d="M 18001.8,7009.06 C 18487.4,7536.74 19309.9,7570.89 19837.6,7085.28 C 19948.8,6982.91 20042,6860.96 20111.5,6726.72 " />
<path stroke="none" fill="#0000ff" transform="matrix(0.05 0 0 0.05 -22 -96)" d="M 17863.6,6829.68 C 17863.6,6829.68 18073.8,6994.18 18073.8,6994.18 C 18073.8,6994.18 18024.9,6991.14 18001.8,7009.06 C 17978.7,7026.97 17969.3,7075.18 17969.3,7075.18 C 17969.3,7075.18 17863.6,6829.68 17863.6,6829.68 C 17863.6,6829.68 17863.6,6829.68 17863.6,6829.68 " />
<path stroke="#0000ff" stroke-width="1" fill="none" transform="matrix(0.05 0 0 0.05 -22 -96)" d="M 17863.6,6829.68 C 17863.6,6829.68 18073.8,6994.18 18073.8,6994.18 C 18073.8,6994.18 18024.9,6991.14 18001.8,7009.06 C 17978.7,7026.97 17969.3,7075.18 17969.3,7075.18 C 17969.3,7075.18 17863.6,6829.68 17863.6,6829.68 C 17863.6,6829.68 17863.6,6829.68 17863.6,6829.68 " />
<path stroke="none" fill="#0000ff" transform="matrix(0.05 0 0 0.05 -22 -96)" d="M 23463.5,7396.56 L 23463.7,7378.64 L 23479.3,7369.81 L 23988.8,7669.33 L 23972.6,7696.9 L 23463.5,7396.56 Z " />
<path stroke="none" fill="#0000ff" transform="matrix(0.05 0 0 0.05 -22 -96)" d="M 23448.2,7369.55 L 23463.7,7378.64 L 23463.5,7396.56 L 22949.4,7688.07 L 22933.6,7660.22 L 23448.2,7369.55 Z " />
</svg>
