<?xml version="1.0" standalone="no" ?>
<!DOCTYPE svg PUBLIC "-//W3C//DTD SVG 1.1//EN" "http://www.w3.org/Graphics/SVG/1.1/DTD/svg11.dtd">
<svg width="1377px" height="321px" viewBox="0 0 1377 321" style="background-color: #ffffff00" xmlns="http://www.w3.org/2000/svg" xmlns:xlink="http://www.w3.org/1999/xlink" version="1.1" >
<path stroke="none" fill="#0000ff" transform="matrix(0.05 0 0 0.05 -23 -36)" d="M 510.691,1921.27 L 542.722,1939.76 L 542.722,2521.84 L 510.691,2540.33 L 510.691,1921.27 Z " />
<path stroke="none" fill="#0000ff" transform="matrix(0.05 0 0 0.05 -23 -36)" d="M 601.2,1982.76 L 633.2,1982.76 L 633.2,2478.84 L 601.2,2478.84 L 601.2,1982.76 Z " />
<path stroke="none" fill="#0000ff" transform="matrix(0.05 0 0 0.05 -23 -36)" d="M 510.691,2540.33 L 542.722,2521.84 L 1046.8,2812.88 L 1046.8,2849.86 L 510.691,2540.33 Z " />
<path stroke="none" fill="#0000ff" transform="matrix(0.05 0 0 0.05 -23 -36)" d="M 1046.8,2849.86 L 1046.8,2812.88 L 1550.88,2521.84 L 1582.91,2540.33 L 1046.8,2849.86 Z " />
<path stroke="none" fill="#0000ff" transform="matrix(0.05 0 0 0.05 -23 -36)" d="M 1054.8,2740.73 L 1038.8,2713.02 L 1468.4,2464.98 L 1484.4,2492.7 L 1054.8,2740.73 Z " />
<path stroke="none" fill="#0000ff" transform="matrix(0.05 0 0 0.05 -23 -36)" d="M 1582.91,2540.33 L 1550.88,2521.84 L 1550.88,1939.76 L 1582.91,1921.27 L 1582.91,2540.33 Z " />
<path stroke="none" fill="#0000ff" transform="matrix(0.05 0 0 0.05 -23 -36)" d="M 1582.91,1921.27 L 1550.88,1939.76 L 1046.8,1648.72 L 1046.8,1630.8 L 1062.16,1621.74 L 1582.91,1921.27 Z " />
<path stroke="none" fill="#0000ff" transform="matrix(0.05 0 0 0.05 -23 -36)" d="M 1484.4,1968.9 L 1468.4,1996.62 L 1038.8,1748.58 L 1054.8,1720.87 L 1484.4,1968.9 Z " />
<path stroke="none" fill="#0000ff" transform="matrix(0.05 0 0 0.05 -23 -36)" d="M 1031.44,1621.74 L 1046.8,1630.8 L 1046.8,1648.72 L 542.722,1939.76 L 510.691,1921.27 L 1031.44,1621.74 Z " />
<text x="0" y="0" stroke="none" fill="#0000ff" transform="matrix(0.05 0 0 0.05 25.2328 20.3665)" font-style="normal" font-weight="normal" font-size="280px" font-family="Chalkboard" >
Cl</text>
<path stroke="none" fill="#0000ff" transform="matrix(0.05 0 0 0.05 -23 -36)" d="M 1062.16,1621.74 L 1046.8,1630.8 L 1031.44,1621.74 L 1030.8,1175.03 L 1062.8,1175.03 L 1062.16,1621.74 Z " />
<path stroke="none" fill="#0000ff" transform="matrix(0.05 0 0 0.05 -23 -36)" d="M 5504,2212.4 L 2162.2,2212.4 L 2162.2,2180.4 L 5504,2180.4 Z " />
<path stroke="none" fill="#0000ff" transform="matrix(0.05 0 0 0.05 -23 -36)" d="M 5783,2196.4 C 5783,2196.4 5463,2277.4 5463,2277.4 C 5463,2277.4 5503,2231.84 5503,2196.4 C 5503,2160.53 5463,2114.4 5463,2114.4 C 5463,2114.4 5783,2196.4 5783,2196.4 C 5783,2196.4 5783,2196.4 5783,2196.4 " />
<path stroke="#0000ff" stroke-width="1" fill="none" transform="matrix(0.05 0 0 0.05 -23 -36)" d="M 5783,2196.4 C 5783,2196.4 5463,2277.4 5463,2277.4 C 5463,2277.4 5503,2231.84 5503,2196.4 C 5503,2160.53 5463,2114.4 5463,2114.4 C 5463,2114.4 5783,2196.4 5783,2196.4 C 5783,2196.4 5783,2196.4 5783,2196.4 " />
<text x="0" y="0" stroke="none" fill="#0000ff" transform="matrix(0.05 0 0 0.05 107.191 261.988)" font-style="normal" font-weight="normal" font-size="280px" font-family="Chalkboard" >
O</text>
<text x="0" y="0" stroke="none" fill="#0000ff" transform="matrix(0.05 0 0 0.05 184.981 248.937)" font-style="normal" font-weight="normal" font-size="280px" font-family="Chalkboard" >
Cl</text>
<text x="0" y="0" stroke="none" fill="#0000ff" transform="matrix(0.05 0 0 0.05 159.001 233.937)" font-style="normal" font-weight="normal" font-size="280px" font-family="Chalkboard" >
Cl</text>
<text x="0" y="0" stroke="none" fill="#0000ff" transform="matrix(0.05 0 0 0.05 184.981 278.937)" font-style="normal" font-weight="normal" font-size="280px" font-family="Chalkboard" >
Cl</text>
<path stroke="none" fill="#0000ff" transform="matrix(0.05 0 0 0.05 -23 -36)" d="M 2783.45,5978.7 L 2799.45,5950.98 L 3202.42,6184.35 L 3202.44,6221.34 L 2783.45,5978.7 Z " />
<path stroke="none" fill="#0000ff" transform="matrix(0.05 0 0 0.05 -23 -36)" d="M 2828.45,5900.76 L 2844.45,5873.04 L 3210.56,6084.42 L 3194.56,6112.13 L 2828.45,5900.76 Z " />
<path stroke="none" fill="#0000ff" transform="matrix(0.05 0 0 0.05 -23 -36)" d="M 3202.44,6221.34 L 3202.42,6184.35 L 3706.8,5893.14 L 3722.16,5902.2 L 3722.27,5920.07 L 3202.44,6221.34 Z " />
<path stroke="none" fill="#0000ff" transform="matrix(0.05 0 0 0.05 -23 -36)" d="M 3750.88,5902.16 L 3722.16,5902.2 L 3736.42,5877.41 L 4126.71,5650.15 L 4142.71,5677.86 L 3750.88,5902.16 Z " />
<path stroke="none" fill="#0000ff" transform="matrix(0.05 0 0 0.05 -23 -36)" d="M 3736.42,5877.41 L 3722.16,5902.2 L 3706.8,5893.14 L 3706.16,5446.43 L 3738.16,5446.43 L 3736.42,5877.41 Z " />
<path stroke="none" fill="#0000ff" transform="matrix(0.05 0 0 0.05 -23 -36)" d="M 3722.27,5920.07 L 3722.16,5902.2 L 3750.88,5902.16 L 4158.27,6135.52 L 4142.27,6163.23 L 3722.27,5920.07 Z " />
<text x="0" y="0" stroke="none" fill="#0000ff" transform="matrix(0.05 0 0 0.05 133.593 296.2)" font-style="normal" font-weight="normal" font-size="280px" font-family="Chalkboard" >
chloral</text>
<text x="0" y="0" stroke="none" fill="#0000ff" transform="matrix(0.05 0 0 0.05 92.83 65.24)" font-style="normal" font-weight="normal" font-size="280px" font-family="Chalkboard" >
Cl</text>
<text x="0" y="0" stroke="none" fill="#0000ff" transform="matrix(0.05 0 0 0.05 105.252 69.2001)" font-style="normal" font-weight="normal" font-size="210px" font-family="Chalkboard" >
3</text>
<text x="0" y="0" stroke="none" fill="#0000ff" transform="matrix(0.05 0 0 0.05 111.227 65.24)" font-style="normal" font-weight="normal" font-size="280px" font-family="Chalkboard" >
C</text>
<text x="0" y="0" stroke="none" fill="#0000ff" transform="matrix(0.05 0 0 0.05 119.442 65.24)" font-style="normal" font-weight="normal" font-size="280px" font-family="Chalkboard" >
-</text>
<text x="0" y="0" stroke="none" fill="#0000ff" transform="matrix(0.05 0 0 0.05 126.109 65.24)" font-style="normal" font-weight="normal" font-size="280px" font-family="Chalkboard" >
CHO </text>
<text x="0" y="0" stroke="none" fill="#0000ff" transform="matrix(0.05 0 0 0.05 158.549 65.24)" font-style="normal" font-weight="normal" font-size="280px" font-family="Chalkboard" >
+ </text>
<text x="0" y="0" stroke="none" fill="#0000ff" transform="matrix(0.05 0 0 0.05 171.45 65.24)" font-style="normal" font-weight="normal" font-size="280px" font-family="Chalkboard" >
conc. </text>
<text x="0" y="0" stroke="none" fill="#0000ff" transform="matrix(0.05 0 0 0.05 207.232 65.24)" font-style="normal" font-weight="normal" font-size="280px" font-family="Chalkboard" >
H</text>
<text x="0" y="0" stroke="none" fill="#0000ff" transform="matrix(0.05 0 0 0.05 215.941 69.2001)" font-style="normal" font-weight="normal" font-size="210px" font-family="Chalkboard" >
2</text>
<text x="0" y="0" stroke="none" fill="#0000ff" transform="matrix(0.05 0 0 0.05 221.916 65.24)" font-style="normal" font-weight="normal" font-size="280px" font-family="Chalkboard" >
SO</text>
<text x="0" y="0" stroke="none" fill="#0000ff" transform="matrix(0.05 0 0 0.05 240.31 69.2001)" font-style="normal" font-weight="normal" font-size="210px" font-family="Chalkboard" >
4</text>
<text x="0" y="0" stroke="none" fill="#0000ff" transform="matrix(0.05 0 0 0.05 276.342 14.4565)" font-style="normal" font-weight="normal" font-size="280px" font-family="Chalkboard" >
Cl</text>
<text x="0" y="0" stroke="none" fill="#0000ff" transform="matrix(0.05 0 0 0.05 489.483 12.4565)" font-style="normal" font-weight="normal" font-size="280px" font-family="Chalkboard" >
Cl</text>
<text x="0" y="0" stroke="none" fill="#0000ff" transform="matrix(0.05 0 0 0.05 411.513 118.417)" font-style="normal" font-weight="normal" font-size="280px" font-family="Chalkboard" >
Cl</text>
<text x="0" y="0" stroke="none" fill="#0000ff" transform="matrix(0.05 0 0 0.05 353.322 118.417)" font-style="normal" font-weight="normal" font-size="280px" font-family="Chalkboard" >
Cl</text>
<text x="0" y="0" stroke="none" fill="#0000ff" transform="matrix(0.05 0 0 0.05 385.523 133.407)" font-style="normal" font-weight="normal" font-size="280px" font-family="Chalkboard" >
Cl</text>
<path stroke="none" fill="#0000ff" transform="matrix(0.05 0 0 0.05 -23 -36)" d="M 8237.08,2100.97 L 8252.6,2092 L 8268.11,2101.15 L 8268.13,2683.16 L 8252.6,2692 L 8237.07,2683.12 L 8237.08,2100.97 Z " />
<path stroke="none" fill="#0000ff" transform="matrix(0.05 0 0 0.05 -23 -36)" d="M 7748.3,1783.22 L 7732.8,1792.2 L 7717.3,1783.22 L 7717.3,1221.38 L 7749.33,1202.87 L 7748.3,1783.22 Z " />
<path stroke="none" fill="#0000ff" transform="matrix(0.05 0 0 0.05 -23 -36)" d="M 7717.3,1783.22 L 7732.8,1792.2 L 7732.8,1810.12 L 7213.27,2110.88 L 7212.73,2074.22 L 7717.3,1783.22 Z " />
<path stroke="none" fill="#0000ff" transform="matrix(0.05 0 0 0.05 -23 -36)" d="M 7634.8,1726.35 L 7650.78,1754.07 L 7219.48,2002.82 L 7203.49,1975.11 L 7634.8,1726.35 Z " />
<path stroke="none" fill="#0000ff" transform="matrix(0.05 0 0 0.05 -23 -36)" d="M 7212.73,2074.22 L 7213.27,2110.88 L 6676.67,1822.08 L 6708.71,1802.95 L 7212.73,2074.22 Z " />
<path stroke="none" fill="#0000ff" transform="matrix(0.05 0 0 0.05 -23 -36)" d="M 6708.71,1802.95 L 6676.67,1822.08 L 6677.66,1221.08 L 6693.2,1212.4 L 6708.72,1221.37 L 6708.71,1802.95 Z " />
<path stroke="none" fill="#0000ff" transform="matrix(0.05 0 0 0.05 -23 -36)" d="M 6799.17,1758.45 L 6767.17,1758.45 L 6767.17,1264.37 L 6799.17,1264.37 L 6799.17,1758.45 Z " />
<path stroke="none" fill="#0000ff" transform="matrix(0.05 0 0 0.05 -23 -36)" d="M 6708.72,1221.37 L 6693.2,1212.4 L 6693.25,1194.46 L 7213,893.543 L 7213,930.519 L 6708.72,1221.37 Z " />
<path stroke="none" fill="#0000ff" transform="matrix(0.05 0 0 0.05 -23 -36)" d="M 7749.33,1202.87 L 7717.3,1221.38 L 7213,930.519 L 7213,893.543 L 7749.33,1202.87 Z " />
<path stroke="none" fill="#0000ff" transform="matrix(0.05 0 0 0.05 -23 -36)" d="M 7650.78,1250.53 L 7634.8,1278.25 L 7205.01,1030.37 L 7220.99,1002.65 L 7650.78,1250.53 Z " />
<path stroke="none" fill="#0000ff" transform="matrix(0.05 0 0 0.05 -23 -36)" d="M 8252.73,2074.15 L 8252.6,2092 L 8237.08,2100.97 L 7732.8,1810.12 L 7732.8,1792.2 L 7748.3,1783.22 L 8252.73,2074.15 Z " />
<path stroke="none" fill="#0000ff" transform="matrix(0.05 0 0 0.05 -23 -36)" d="M 6693.25,1194.46 L 6693.2,1212.4 L 6677.66,1221.08 L 6254.69,968.124 L 6271.14,940.679 L 6693.25,1194.46 Z " />
<path stroke="none" fill="#0000ff" transform="matrix(0.05 0 0 0.05 -23 -36)" d="M 8792.27,1810.05 L 8792.4,1792.2 L 8807.92,1783.23 L 9312.2,2074.08 L 9312.2,2111.06 L 8792.27,1810.05 Z " />
<path stroke="none" fill="#0000ff" transform="matrix(0.05 0 0 0.05 -23 -36)" d="M 8874.42,1754.07 L 8890.4,1726.35 L 9320.19,1974.23 L 9304.21,2001.95 L 8874.42,1754.07 Z " />
<path stroke="none" fill="#0000ff" transform="matrix(0.05 0 0 0.05 -23 -36)" d="M 8807.92,1783.23 L 8792.4,1792.2 L 8776.89,1783.05 L 8775.89,1182.86 L 8807.92,1201.37 L 8807.92,1783.23 Z " />
<path stroke="none" fill="#0000ff" transform="matrix(0.05 0 0 0.05 -23 -36)" d="M 8807.92,1201.37 L 8775.89,1182.86 L 9312.2,873.543 L 9312.2,910.519 L 8807.92,1201.37 Z " />
<path stroke="none" fill="#0000ff" transform="matrix(0.05 0 0 0.05 -23 -36)" d="M 8890.4,1258.25 L 8874.42,1230.53 L 9304.21,982.647 L 9320.19,1010.37 L 8890.4,1258.25 Z " />
<path stroke="none" fill="#0000ff" transform="matrix(0.05 0 0 0.05 -23 -36)" d="M 9312.2,910.519 L 9312.2,873.543 L 9831.73,1174.35 L 9832,1192.4 L 9816.48,1201.37 L 9312.2,910.519 Z " />
<path stroke="none" fill="#0000ff" transform="matrix(0.05 0 0 0.05 -23 -36)" d="M 9816.48,1201.37 L 9832,1192.4 L 9847.55,1200.74 L 9848.51,1801.74 L 9816.48,1783.23 L 9816.48,1201.37 Z " />
<path stroke="none" fill="#0000ff" transform="matrix(0.05 0 0 0.05 -23 -36)" d="M 9726.03,1244.37 L 9758.03,1244.37 L 9758.03,1740.23 L 9726.03,1740.23 L 9726.03,1244.37 Z " />
<path stroke="none" fill="#0000ff" transform="matrix(0.05 0 0 0.05 -23 -36)" d="M 9312.2,2111.06 L 9312.2,2074.08 L 9816.48,1783.23 L 9848.51,1801.74 L 9312.2,2111.06 Z " />
<path stroke="none" fill="#0000ff" transform="matrix(0.05 0 0 0.05 -23 -36)" d="M 8268.11,2101.15 L 8252.6,2092 L 8252.73,2074.15 L 8776.89,1783.05 L 8792.4,1792.2 L 8792.27,1810.05 L 8268.11,2101.15 Z " />
<path stroke="none" fill="#0000ff" transform="matrix(0.05 0 0 0.05 -23 -36)" d="M 9847.55,1200.74 L 9832,1192.4 L 9831.73,1174.35 L 10218,926.447 L 10235.2,953.401 L 9847.55,1200.74 Z " />
<path stroke="none" fill="#0000ff" transform="matrix(0.05 0 0 0.05 -23 -36)" d="M 8266.88,2716.86 L 8252.6,2692 L 8268.13,2683.16 L 8688.88,2925.16 L 8672.89,2952.88 L 8266.88,2716.86 Z " />
<path stroke="none" fill="#0000ff" transform="matrix(0.05 0 0 0.05 -23 -36)" d="M 8237.07,2683.12 L 8252.6,2692 L 8238.32,2716.94 L 7809,2966.32 L 7793.01,2938.6 L 8237.07,2683.12 Z " />
<path stroke="none" fill="#0000ff" transform="matrix(0.05 0 0 0.05 -23 -36)" d="M 8238.32,2716.94 L 8252.6,2692 L 8266.88,2716.86 L 8268.6,3154.83 L 8236.6,3154.83 L 8238.32,2716.94 Z " />
<text x="0" y="0" stroke="none" fill="#0000ff" transform="matrix(0.05 0 0 0.05 450.778 113.11)" font-style="normal" font-weight="normal" font-size="280px" font-family="Chalkboard" >
(DDT)</text>
<path stroke="none" fill="#0000ff" transform="matrix(0.05 0 0 0.05 -23 -36)" d="M 630.851,5713.67 L 662.882,5732.16 L 662.882,6314.24 L 630.851,6332.73 L 630.851,5713.67 Z " />
<path stroke="none" fill="#0000ff" transform="matrix(0.05 0 0 0.05 -23 -36)" d="M 721.36,5775.16 L 753.36,5775.16 L 753.36,6271.24 L 721.36,6271.24 L 721.36,5775.16 Z " />
<path stroke="none" fill="#0000ff" transform="matrix(0.05 0 0 0.05 -23 -36)" d="M 630.851,6332.73 L 662.882,6314.24 L 1166.96,6605.28 L 1166.96,6642.26 L 630.851,6332.73 Z " />
<path stroke="none" fill="#0000ff" transform="matrix(0.05 0 0 0.05 -23 -36)" d="M 1166.96,6642.26 L 1166.96,6605.28 L 1671.04,6314.24 L 1703.07,6332.73 L 1166.96,6642.26 Z " />
<path stroke="none" fill="#0000ff" transform="matrix(0.05 0 0 0.05 -23 -36)" d="M 1174.96,6533.13 L 1158.96,6505.42 L 1588.56,6257.38 L 1604.56,6285.1 L 1174.96,6533.13 Z " />
<path stroke="none" fill="#0000ff" transform="matrix(0.05 0 0 0.05 -23 -36)" d="M 1703.07,6332.73 L 1671.04,6314.24 L 1671.04,5732.16 L 1703.07,5713.67 L 1703.07,6332.73 Z " />
<path stroke="none" fill="#0000ff" transform="matrix(0.05 0 0 0.05 -23 -36)" d="M 1703.07,5713.67 L 1671.04,5732.16 L 1166.96,5441.12 L 1166.96,5423.2 L 1182.32,5414.14 L 1703.07,5713.67 Z " />
<path stroke="none" fill="#0000ff" transform="matrix(0.05 0 0 0.05 -23 -36)" d="M 1604.56,5761.3 L 1588.56,5789.02 L 1158.96,5540.98 L 1174.96,5513.27 L 1604.56,5761.3 Z " />
<path stroke="none" fill="#0000ff" transform="matrix(0.05 0 0 0.05 -23 -36)" d="M 1151.6,5414.14 L 1166.96,5423.2 L 1166.96,5441.12 L 662.882,5732.16 L 630.851,5713.67 L 1151.6,5414.14 Z " />
<text x="0" y="0" stroke="none" fill="#0000ff" transform="matrix(0.05 0 0 0.05 31.2408 209.987)" font-style="normal" font-weight="normal" font-size="280px" font-family="Chalkboard" >
Cl</text>
<path stroke="none" fill="#0000ff" transform="matrix(0.05 0 0 0.05 -23 -36)" d="M 1182.32,5414.14 L 1166.96,5423.2 L 1151.6,5414.14 L 1150.96,4967.43 L 1182.96,4967.43 L 1182.32,5414.14 Z " />
<text x="0" y="0" stroke="none" fill="#0000ff" transform="matrix(0.05 0 0 0.05 84.248 266.02)" font-style="normal" font-weight="normal" font-size="280px" font-family="Chalkboard" >
+</text>
<path stroke="none" fill="#0000ff" transform="matrix(0.05 0 0 0.05 -23 -36)" d="M 6550.76,5850.4 L 4873.36,5850.4 L 4873.36,5818.4 L 6550.76,5818.4 Z " />
<path stroke="none" fill="#0000ff" transform="matrix(0.05 0 0 0.05 -23 -36)" d="M 6829.76,5834.4 C 6829.76,5834.4 6509.76,5915.4 6509.76,5915.4 C 6509.76,5915.4 6549.76,5869.84 6549.76,5834.4 C 6549.76,5798.52 6509.76,5752.4 6509.76,5752.4 C 6509.76,5752.4 6829.76,5834.4 6829.76,5834.4 C 6829.76,5834.4 6829.76,5834.4 6829.76,5834.4 " />
<path stroke="#0000ff" stroke-width="1" fill="none" transform="matrix(0.05 0 0 0.05 -23 -36)" d="M 6829.76,5834.4 C 6829.76,5834.4 6509.76,5915.4 6509.76,5915.4 C 6509.76,5915.4 6549.76,5869.84 6549.76,5834.4 C 6549.76,5798.52 6509.76,5752.4 6509.76,5752.4 C 6509.76,5752.4 6829.76,5834.4 6829.76,5834.4 C 6829.76,5834.4 6829.76,5834.4 6829.76,5834.4 " />
<text x="0" y="0" stroke="none" fill="#0000ff" transform="matrix(0.05 0 0 0.05 225.818 247.14)" font-style="normal" font-weight="normal" font-size="280px" font-family="Chalkboard" >
conc. </text>
<text x="0" y="0" stroke="none" fill="#0000ff" transform="matrix(0.05 0 0 0.05 261.599 247.14)" font-style="normal" font-weight="normal" font-size="280px" font-family="Chalkboard" >
H</text>
<text x="0" y="0" stroke="none" fill="#0000ff" transform="matrix(0.05 0 0 0.05 270.309 251.1)" font-style="normal" font-weight="normal" font-size="210px" font-family="Chalkboard" >
2</text>
<text x="0" y="0" stroke="none" fill="#0000ff" transform="matrix(0.05 0 0 0.05 276.284 247.14)" font-style="normal" font-weight="normal" font-size="280px" font-family="Chalkboard" >
SO</text>
<text x="0" y="0" stroke="none" fill="#0000ff" transform="matrix(0.05 0 0 0.05 294.677 251.1)" font-style="normal" font-weight="normal" font-size="210px" font-family="Chalkboard" >
4</text>
<text x="0" y="0" stroke="none" fill="#0000ff" transform="matrix(0.05 0 0 0.05 457.408 218.907)" font-style="normal" font-weight="normal" font-size="280px" font-family="Chalkboard" >
O</text>
<text x="0" y="0" stroke="none" fill="#0000ff" transform="matrix(0.05 0 0 0.05 510.373 278.887)" font-style="normal" font-weight="normal" font-size="280px" font-family="Chalkboard" >
Cl</text>
<text x="0" y="0" stroke="none" fill="#0000ff" transform="matrix(0.05 0 0 0.05 510.353 248.887)" font-style="normal" font-weight="normal" font-size="280px" font-family="Chalkboard" >
Cl</text>
<text x="0" y="0" stroke="none" fill="#0000ff" transform="matrix(0.05 0 0 0.05 484.393 293.897)" font-style="normal" font-weight="normal" font-size="280px" font-family="Chalkboard" >
Cl</text>
<path stroke="none" fill="#0000ff" transform="matrix(0.05 0 0 0.05 -23 -36)" d="M 9693.85,5144.54 L 9725.85,5144.53 L 9725.36,5592.53 L 9693.34,5611.06 L 9693.85,5144.54 Z " />
<path stroke="none" fill="#0000ff" transform="matrix(0.05 0 0 0.05 -23 -36)" d="M 9783.85,5144.51 L 9815.85,5144.5 L 9815.98,5549.6 L 9783.98,5549.61 L 9783.85,5144.51 Z " />
<path stroke="none" fill="#0000ff" transform="matrix(0.05 0 0 0.05 -23 -36)" d="M 9693.34,5611.06 L 9725.36,5592.53 L 10229.9,5883.55 L 10229.8,5901.4 L 10214.4,5910.46 L 9693.34,5611.06 Z " />
<path stroke="none" fill="#0000ff" transform="matrix(0.05 0 0 0.05 -23 -36)" d="M 10244.1,5926.26 L 10229.8,5901.4 L 10258.5,5901.35 L 10666.1,6134.56 L 10650.1,6162.28 L 10244.1,5926.26 Z " />
<path stroke="none" fill="#0000ff" transform="matrix(0.05 0 0 0.05 -23 -36)" d="M 10258.5,5901.35 L 10229.8,5901.4 L 10229.9,5883.55 L 10634.2,5649.21 L 10650.2,5676.91 L 10258.5,5901.35 Z " />
<path stroke="none" fill="#0000ff" transform="matrix(0.05 0 0 0.05 -23 -36)" d="M 10214.4,5910.46 L 10229.8,5901.4 L 10244.1,5926.26 L 10246,6365.63 L 10214,6365.64 L 10214.4,5910.46 Z " />
<path stroke="none" fill="#0000ff" transform="matrix(0.05 0 0 0.05 -23 -36)" d="M 7220.29,5627.87 L 7252.32,5646.36 L 7252.32,6228.44 L 7220.29,6246.93 L 7220.29,5627.87 Z " />
<path stroke="none" fill="#0000ff" transform="matrix(0.05 0 0 0.05 -23 -36)" d="M 7310.8,5689.36 L 7342.8,5689.36 L 7342.8,6185.44 L 7310.8,6185.44 L 7310.8,5689.36 Z " />
<path stroke="none" fill="#0000ff" transform="matrix(0.05 0 0 0.05 -23 -36)" d="M 7220.29,6246.93 L 7252.32,6228.44 L 7756.4,6519.48 L 7756.4,6556.46 L 7220.29,6246.93 Z " />
<path stroke="none" fill="#0000ff" transform="matrix(0.05 0 0 0.05 -23 -36)" d="M 7756.4,6556.46 L 7756.4,6519.48 L 8260.48,6228.44 L 8292.51,6246.93 L 7756.4,6556.46 Z " />
<path stroke="none" fill="#0000ff" transform="matrix(0.05 0 0 0.05 -23 -36)" d="M 7764.4,6447.33 L 7748.4,6419.62 L 8178,6171.58 L 8194,6199.3 L 7764.4,6447.33 Z " />
<path stroke="none" fill="#0000ff" transform="matrix(0.05 0 0 0.05 -23 -36)" d="M 8292.51,6246.93 L 8260.48,6228.44 L 8260.48,5646.36 L 8292.51,5627.87 L 8292.51,6246.93 Z " />
<path stroke="none" fill="#0000ff" transform="matrix(0.05 0 0 0.05 -23 -36)" d="M 8292.51,5627.87 L 8260.48,5646.36 L 7756.4,5355.32 L 7756.4,5337.4 L 7771.76,5328.34 L 8292.51,5627.87 Z " />
<path stroke="none" fill="#0000ff" transform="matrix(0.05 0 0 0.05 -23 -36)" d="M 8194,5675.5 L 8178,5703.22 L 7748.4,5455.18 L 7764.4,5427.47 L 8194,5675.5 Z " />
<path stroke="none" fill="#0000ff" transform="matrix(0.05 0 0 0.05 -23 -36)" d="M 7741.04,5328.34 L 7756.4,5337.4 L 7756.4,5355.32 L 7252.32,5646.36 L 7220.29,5627.87 L 7741.04,5328.34 Z " />
<text x="0" y="0" stroke="none" fill="#0000ff" transform="matrix(0.05 0 0 0.05 360.713 205.697)" font-style="normal" font-weight="normal" font-size="280px" font-family="Chalkboard" >
Cl</text>
<path stroke="none" fill="#0000ff" transform="matrix(0.05 0 0 0.05 -23 -36)" d="M 7771.76,5328.34 L 7756.4,5337.4 L 7741.04,5328.34 L 7740.4,4881.63 L 7772.4,4881.63 L 7771.76,5328.34 Z " />
<text x="0" y="0" stroke="none" fill="#0000ff" transform="matrix(0.05 0 0 0.05 415.44 261.73)" font-style="normal" font-weight="normal" font-size="280px" font-family="Chalkboard" >
+</text>
<path stroke="none" fill="#0000ff" transform="matrix(0.05 0 0 0.05 -23 -36)" d="M 12076.3,5764.6 L 11291.3,5764.6 L 11291.3,5732.6 L 12076.3,5732.6 Z " />
<path stroke="none" fill="#0000ff" transform="matrix(0.05 0 0 0.05 -23 -36)" d="M 12355.3,5748.6 C 12355.3,5748.6 12035.3,5829.6 12035.3,5829.6 C 12035.3,5829.6 12075.3,5784.04 12075.3,5748.6 C 12075.3,5712.73 12035.3,5666.6 12035.3,5666.6 C 12035.3,5666.6 12355.3,5748.6 12355.3,5748.6 C 12355.3,5748.6 12355.3,5748.6 12355.3,5748.6 " />
<path stroke="#0000ff" stroke-width="1" fill="none" transform="matrix(0.05 0 0 0.05 -23 -36)" d="M 12355.3,5748.6 C 12355.3,5748.6 12035.3,5829.6 12035.3,5829.6 C 12035.3,5829.6 12075.3,5784.04 12075.3,5748.6 C 12075.3,5712.73 12035.3,5666.6 12035.3,5666.6 C 12035.3,5666.6 12355.3,5748.6 12355.3,5748.6 C 12355.3,5748.6 12355.3,5748.6 12355.3,5748.6 " />
<text x="0" y="0" stroke="none" fill="#0000ff" transform="matrix(0.05 0 0 0.05 484.105 203.897)" font-style="normal" font-weight="normal" font-size="280px" font-family="Chalkboard" >
H</text>
<path stroke="none" fill="#0000ff" transform="matrix(0.05 0 0 0.05 -23 -36)" d="M 9834.03,4948.28 L 9818.02,4920.57 L 10093.3,4761.46 L 10109.3,4789.17 L 9834.03,4948.28 Z " />
<path stroke="#0000ff" stroke-width="26" fill="none" transform="matrix(0.05 0 0 0.05 -23 -36)" d="M 9602.43,4742.37 A 105.8,105.8 0 1 0 9814.03,4742.37A 105.8,105.8 0 1 0 9602.43,4742.37Z " />
<path stroke="none" fill="#0000ff" transform="matrix(0.05 0 0 0.05 -23 -36)" d="M 9645.9,4729.7 L 9771.23,4729.7 L 9771.23,4755.7 L 9645.9,4755.7 Z " />
<path stroke="none" fill="#0000ff" transform="matrix(0.05 0 0 0.05 -23 -36)" d="M 9721.56,4680.03 L 9721.56,4805.37 L 9695.56,4805.37 L 9695.56,4680.03 Z " />
<text x="0" y="0" stroke="none" fill="#0000ff" transform="matrix(0.05 0 0 0.05 599.81 198.927)" font-style="normal" font-weight="normal" font-size="280px" font-family="Chalkboard" >
Cl</text>
<text x="0" y="0" stroke="none" fill="#0000ff" transform="matrix(0.05 0 0 0.05 735.006 242.907)" font-style="normal" font-weight="normal" font-size="280px" font-family="Chalkboard" >
OH</text>
<text x="0" y="0" stroke="none" fill="#0000ff" transform="matrix(0.05 0 0 0.05 734.981 302.887)" font-style="normal" font-weight="normal" font-size="280px" font-family="Chalkboard" >
Cl</text>
<text x="0" y="0" stroke="none" fill="#0000ff" transform="matrix(0.05 0 0 0.05 676.79 302.887)" font-style="normal" font-weight="normal" font-size="280px" font-family="Chalkboard" >
Cl</text>
<text x="0" y="0" stroke="none" fill="#0000ff" transform="matrix(0.05 0 0 0.05 708.991 317.877)" font-style="normal" font-weight="normal" font-size="280px" font-family="Chalkboard" >
Cl</text>
<path stroke="none" fill="#0000ff" transform="matrix(0.05 0 0 0.05 -23 -36)" d="M 14706.4,5790.37 L 14722,5781.4 L 14737.5,5790.38 L 14737.5,6372.56 L 14722,6381.4 L 14706.4,6372.52 L 14706.4,5790.37 Z " />
<path stroke="none" fill="#0000ff" transform="matrix(0.05 0 0 0.05 -23 -36)" d="M 14217.7,5472.62 L 14202.2,5481.6 L 14186.7,5472.62 L 14186.7,4910.78 L 14218.7,4892.27 L 14217.7,5472.62 Z " />
<path stroke="none" fill="#0000ff" transform="matrix(0.05 0 0 0.05 -23 -36)" d="M 14186.7,5472.62 L 14202.2,5481.6 L 14202.2,5499.52 L 13682.6,5800.28 L 13682.1,5763.62 L 14186.7,5472.62 Z " />
<path stroke="none" fill="#0000ff" transform="matrix(0.05 0 0 0.05 -23 -36)" d="M 14104.2,5415.75 L 14120.1,5443.47 L 13688.8,5692.23 L 13672.8,5664.51 L 14104.2,5415.75 Z " />
<path stroke="none" fill="#0000ff" transform="matrix(0.05 0 0 0.05 -23 -36)" d="M 13682.1,5763.62 L 13682.6,5800.28 L 13145.8,5511.48 L 13177.9,5492.34 L 13682.1,5763.62 Z " />
<path stroke="none" fill="#0000ff" transform="matrix(0.05 0 0 0.05 -23 -36)" d="M 13177.9,5492.34 L 13145.8,5511.48 L 13146.8,4910.48 L 13162.4,4901.8 L 13177.9,4910.77 L 13177.9,5492.34 Z " />
<path stroke="none" fill="#0000ff" transform="matrix(0.05 0 0 0.05 -23 -36)" d="M 13268.3,5447.84 L 13236.3,5447.84 L 13236.3,4953.78 L 13268.3,4953.78 L 13268.3,5447.84 Z " />
<path stroke="none" fill="#0000ff" transform="matrix(0.05 0 0 0.05 -23 -36)" d="M 13177.9,4910.77 L 13162.4,4901.8 L 13162.4,4883.86 L 13682.4,4582.94 L 13682.4,4619.92 L 13177.9,4910.77 Z " />
<path stroke="none" fill="#0000ff" transform="matrix(0.05 0 0 0.05 -23 -36)" d="M 14218.7,4892.27 L 14186.7,4910.78 L 13682.4,4619.92 L 13682.4,4582.94 L 14218.7,4892.27 Z " />
<path stroke="none" fill="#0000ff" transform="matrix(0.05 0 0 0.05 -23 -36)" d="M 14120.1,4939.93 L 14104.2,4967.65 L 13674.4,4719.76 L 13690.3,4692.04 L 14120.1,4939.93 Z " />
<path stroke="none" fill="#0000ff" transform="matrix(0.05 0 0 0.05 -23 -36)" d="M 14722.2,5763.62 L 14722,5781.4 L 14706.4,5790.37 L 14202.2,5499.52 L 14202.2,5481.6 L 14217.7,5472.62 L 14722.2,5763.62 Z " />
<path stroke="none" fill="#0000ff" transform="matrix(0.05 0 0 0.05 -23 -36)" d="M 13162.4,4883.86 L 13162.4,4901.8 L 13146.8,4910.48 L 12722.9,4656.83 L 12739.3,4629.39 L 13162.4,4883.86 Z " />
<path stroke="none" fill="#0000ff" transform="matrix(0.05 0 0 0.05 -23 -36)" d="M 14737.5,5790.38 L 14722,5781.4 L 14722.2,5763.62 L 15131.6,5535.61 L 15147.1,5563.58 L 14737.5,5790.38 Z " />
<path stroke="none" fill="#0000ff" transform="matrix(0.05 0 0 0.05 -23 -36)" d="M 14736.2,6406.26 L 14722,6381.4 L 14737.5,6372.56 L 15158.2,6614.56 L 15142.3,6642.28 L 14736.2,6406.26 Z " />
<path stroke="none" fill="#0000ff" transform="matrix(0.05 0 0 0.05 -23 -36)" d="M 14706.4,6372.52 L 14722,6381.4 L 14707.7,6406.34 L 14279.1,6655.29 L 14263.1,6627.57 L 14706.4,6372.52 Z " />
<path stroke="none" fill="#0000ff" transform="matrix(0.05 0 0 0.05 -23 -36)" d="M 14707.7,6406.34 L 14722,6381.4 L 14736.2,6406.26 L 14738,6845.23 L 14706,6845.23 L 14707.7,6406.34 Z " />
<path stroke="#0000ff" stroke-width="32" fill="none" transform="matrix(0.05 0 0 0.05 -23 -36)" d="M 7945,5576.99 C 7840.78,5676.46 7836.93,5841.79 7936.39,5946 C 7977.48,5989.05 8033.63,6017.35 8092.68,6024.77 " />
<path stroke="none" fill="#0000ff" transform="matrix(0.05 0 0 0.05 -23 -36)" d="M 8305.4,5954.6 C 8305.4,5954.6 8083.33,6096.57 8083.33,6096.57 C 8083.33,6096.57 8101.88,6051.79 8092.68,6024.77 C 8083.47,5997.74 8041.24,5973.01 8041.24,5973.01 C 8041.24,5973.01 8305.4,5954.6 8305.4,5954.6 C 8305.4,5954.6 8305.4,5954.6 8305.4,5954.6 " />
<path stroke="#0000ff" stroke-width="1" fill="none" transform="matrix(0.05 0 0 0.05 -23 -36)" d="M 8305.4,5954.6 C 8305.4,5954.6 8083.33,6096.57 8083.33,6096.57 C 8083.33,6096.57 8101.88,6051.79 8092.68,6024.77 C 8083.47,5997.74 8041.24,5973.01 8041.24,5973.01 C 8041.24,5973.01 8305.4,5954.6 8305.4,5954.6 C 8305.4,5954.6 8305.4,5954.6 8305.4,5954.6 " />
<path stroke="none" fill="#0000ff" transform="matrix(0.05 0 0 0.05 -23 -36)" d="M 7555.2,4684.9 A 23.334,23.334 0 1 0 7601.87,4684.9A 23.334,23.334 0 1 0 7555.2,4684.9Z " />
<path stroke="none" fill="#0000ff" transform="matrix(0.05 0 0 0.05 -23 -36)" d="M 7555.2,4789.9 A 23.334,23.334 0 1 0 7601.87,4789.9A 23.334,23.334 0 1 0 7555.2,4789.9Z " />
<path stroke="#0000ff" stroke-width="32" fill="none" transform="matrix(0.05 0 0 0.05 -23 -36)" d="M 8010.85,5159.07 C 8135.42,5113.34 8199.4,4975.11 8153.67,4850.55 C 8136.8,4804.58 8105.52,4764.06 8065.34,4736.09 " />
<path stroke="none" fill="#0000ff" transform="matrix(0.05 0 0 0.05 -23 -36)" d="M 7790.66,5130.71 C 7790.66,5130.71 8051.41,5099.21 8051.41,5099.21 C 8051.41,5099.21 8014.8,5131.36 8010.85,5159.07 C 8006.91,5186.78 8033.21,5227.03 8033.21,5227.03 C 8033.21,5227.03 7790.66,5130.71 7790.66,5130.71 C 7790.66,5130.71 7790.66,5130.71 7790.66,5130.71 " />
<path stroke="#0000ff" stroke-width="1" fill="none" transform="matrix(0.05 0 0 0.05 -23 -36)" d="M 7790.66,5130.71 C 7790.66,5130.71 8051.41,5099.21 8051.41,5099.21 C 8051.41,5099.21 8014.8,5131.36 8010.85,5159.07 C 8006.91,5186.78 8033.21,5227.03 8033.21,5227.03 C 8033.21,5227.03 7790.66,5130.71 7790.66,5130.71 C 7790.66,5130.71 7790.66,5130.71 7790.66,5130.71 " />
<path stroke="#0000ff" stroke-width="32" fill="none" transform="matrix(0.05 0 0 0.05 -23 -36)" d="M 7927.95,6383.41 C 8398.92,6761.93 9088.39,6686.83 9466.85,6215.77 C 9539.67,6125.14 9597.91,6022.83 9638.68,5913.94 " />
<path stroke="none" fill="#0000ff" transform="matrix(0.05 0 0 0.05 -23 -36)" d="M 9695.36,5697.19 C 9695.36,5697.19 9693.51,5962.1 9693.51,5962.1 C 9693.51,5962.1 9666.22,5921.47 9638.68,5913.94 C 9611.15,5906.42 9567.66,5927.71 9567.66,5927.71 C 9567.66,5927.71 9695.36,5697.19 9695.36,5697.19 C 9695.36,5697.19 9695.36,5697.19 9695.36,5697.19 " />
<path stroke="#0000ff" stroke-width="1" fill="none" transform="matrix(0.05 0 0 0.05 -23 -36)" d="M 9695.36,5697.19 C 9695.36,5697.19 9693.51,5962.1 9693.51,5962.1 C 9693.51,5962.1 9666.22,5921.47 9638.68,5913.94 C 9611.15,5906.42 9567.66,5927.71 9567.66,5927.71 C 9567.66,5927.71 9695.36,5697.19 9695.36,5697.19 C 9695.36,5697.19 9695.36,5697.19 9695.36,5697.19 " />
<path stroke="#0000ff" stroke-width="32" fill="none" transform="matrix(0.05 0 0 0.05 -23 -36)" d="M 9373.92,5001.42 C 9212.64,5032.07 9106.6,5187.94 9137.22,5349.32 C 9167.84,5510.7 9323.61,5616.82 9484.88,5586.18 C 9563.13,5571.31 9634.45,5523.62 9678.12,5456.96 " />
<path stroke="none" fill="#0000ff" transform="matrix(0.05 0 0 0.05 -23 -36)" d="M 9592.45,5044.92 C 9592.45,5044.92 9329.27,5058.65 9329.27,5058.65 C 9329.27,5058.65 9368.08,5029.03 9373.92,5001.42 C 9379.76,4973.82 9356.13,4931.77 9356.13,4931.77 C 9356.13,4931.77 9592.45,5044.92 9592.45,5044.92 C 9592.45,5044.92 9592.45,5044.92 9592.45,5044.92 " />
<path stroke="#0000ff" stroke-width="1" fill="none" transform="matrix(0.05 0 0 0.05 -23 -36)" d="M 9592.45,5044.92 C 9592.45,5044.92 9329.27,5058.65 9329.27,5058.65 C 9329.27,5058.65 9368.08,5029.03 9373.92,5001.42 C 9379.76,4973.82 9356.13,4931.77 9356.13,4931.77 C 9356.13,4931.77 9592.45,5044.92 9592.45,5044.92 C 9592.45,5044.92 9592.45,5044.92 9592.45,5044.92 " />
<path stroke="none" fill="#0000ff" transform="matrix(0.05 0 0 0.05 -23 -36)" d="M 17704.8,5678.8 L 16027.4,5678.8 L 16027.4,5646.8 L 17704.8,5646.8 Z " />
<path stroke="none" fill="#0000ff" transform="matrix(0.05 0 0 0.05 -23 -36)" d="M 17983.8,5662.8 C 17983.8,5662.8 17663.8,5743.8 17663.8,5743.8 C 17663.8,5743.8 17703.8,5698.24 17703.8,5662.8 C 17703.8,5626.93 17663.8,5580.8 17663.8,5580.8 C 17663.8,5580.8 17983.8,5662.8 17983.8,5662.8 C 17983.8,5662.8 17983.8,5662.8 17983.8,5662.8 " />
<path stroke="#0000ff" stroke-width="1" fill="none" transform="matrix(0.05 0 0 0.05 -23 -36)" d="M 17983.8,5662.8 C 17983.8,5662.8 17663.8,5743.8 17663.8,5743.8 C 17663.8,5743.8 17703.8,5698.24 17703.8,5662.8 C 17703.8,5626.93 17663.8,5580.8 17663.8,5580.8 C 17663.8,5580.8 17983.8,5662.8 17983.8,5662.8 C 17983.8,5662.8 17983.8,5662.8 17983.8,5662.8 " />
<text x="0" y="0" stroke="none" fill="#0000ff" transform="matrix(0.05 0 0 0.05 783.518 238.56)" font-style="normal" font-weight="normal" font-size="280px" font-family="Chalkboard" >
conc. </text>
<text x="0" y="0" stroke="none" fill="#0000ff" transform="matrix(0.05 0 0 0.05 819.299 238.56)" font-style="normal" font-weight="normal" font-size="280px" font-family="Chalkboard" >
H</text>
<text x="0" y="0" stroke="none" fill="#0000ff" transform="matrix(0.05 0 0 0.05 828.009 242.52)" font-style="normal" font-weight="normal" font-size="210px" font-family="Chalkboard" >
2</text>
<text x="0" y="0" stroke="none" fill="#0000ff" transform="matrix(0.05 0 0 0.05 833.984 238.56)" font-style="normal" font-weight="normal" font-size="280px" font-family="Chalkboard" >
SO</text>
<text x="0" y="0" stroke="none" fill="#0000ff" transform="matrix(0.05 0 0 0.05 852.377 242.52)" font-style="normal" font-weight="normal" font-size="210px" font-family="Chalkboard" >
4</text>
<text x="0" y="0" stroke="none" fill="#0000ff" transform="matrix(0.05 0 0 0.05 871.8 198.927)" font-style="normal" font-weight="normal" font-size="280px" font-family="Chalkboard" >
Cl</text>
<text x="0" y="0" stroke="none" fill="#0000ff" transform="matrix(0.05 0 0 0.05 1006.99 242.907)" font-style="normal" font-weight="normal" font-size="280px" font-family="Chalkboard" >
OH</text>
<text x="0" y="0" stroke="none" fill="#0000ff" transform="matrix(0.05 0 0 0.05 1025.86 246.867)" font-style="normal" font-weight="normal" font-size="210px" font-family="Chalkboard" >
2</text>
<text x="0" y="0" stroke="none" fill="#0000ff" transform="matrix(0.05 0 0 0.05 1006.96 302.887)" font-style="normal" font-weight="normal" font-size="280px" font-family="Chalkboard" >
Cl</text>
<text x="0" y="0" stroke="none" fill="#0000ff" transform="matrix(0.05 0 0 0.05 948.77 302.887)" font-style="normal" font-weight="normal" font-size="280px" font-family="Chalkboard" >
Cl</text>
<text x="0" y="0" stroke="none" fill="#0000ff" transform="matrix(0.05 0 0 0.05 980.971 317.877)" font-style="normal" font-weight="normal" font-size="280px" font-family="Chalkboard" >
Cl</text>
<path stroke="none" fill="#0000ff" transform="matrix(0.05 0 0 0.05 -23 -36)" d="M 20146,5790.37 L 20161.6,5781.4 L 20177.1,5790.38 L 20177.1,6372.56 L 20161.6,6381.4 L 20146,6372.52 L 20146,5790.37 Z " />
<path stroke="none" fill="#0000ff" transform="matrix(0.05 0 0 0.05 -23 -36)" d="M 19657.3,5472.62 L 19641.8,5481.6 L 19626.3,5472.62 L 19626.3,4910.78 L 19658.3,4892.27 L 19657.3,5472.62 Z " />
<path stroke="none" fill="#0000ff" transform="matrix(0.05 0 0 0.05 -23 -36)" d="M 19626.3,5472.62 L 19641.8,5481.6 L 19641.8,5499.52 L 19122.2,5800.28 L 19121.7,5763.62 L 19626.3,5472.62 Z " />
<path stroke="none" fill="#0000ff" transform="matrix(0.05 0 0 0.05 -23 -36)" d="M 19543.8,5415.75 L 19559.7,5443.47 L 19128.4,5692.22 L 19112.5,5664.51 L 19543.8,5415.75 Z " />
<path stroke="none" fill="#0000ff" transform="matrix(0.05 0 0 0.05 -23 -36)" d="M 19121.7,5763.62 L 19122.2,5800.28 L 18585.6,5511.48 L 18617.7,5492.35 L 19121.7,5763.62 Z " />
<path stroke="none" fill="#0000ff" transform="matrix(0.05 0 0 0.05 -23 -36)" d="M 18617.7,5492.35 L 18585.6,5511.48 L 18586.6,4910.48 L 18602.2,4901.8 L 18617.7,4910.77 L 18617.7,5492.35 Z " />
<path stroke="none" fill="#0000ff" transform="matrix(0.05 0 0 0.05 -23 -36)" d="M 18708.1,5447.85 L 18676.1,5447.85 L 18676.1,4953.77 L 18708.1,4953.77 L 18708.1,5447.85 Z " />
<path stroke="none" fill="#0000ff" transform="matrix(0.05 0 0 0.05 -23 -36)" d="M 18617.7,4910.77 L 18602.2,4901.8 L 18602.2,4883.86 L 19122,4582.94 L 19122,4619.92 L 18617.7,4910.77 Z " />
<path stroke="none" fill="#0000ff" transform="matrix(0.05 0 0 0.05 -23 -36)" d="M 19658.3,4892.27 L 19626.3,4910.78 L 19122,4619.92 L 19122,4582.94 L 19658.3,4892.27 Z " />
<path stroke="none" fill="#0000ff" transform="matrix(0.05 0 0 0.05 -23 -36)" d="M 19559.7,4939.93 L 19543.8,4967.65 L 19114,4719.77 L 19130,4692.05 L 19559.7,4939.93 Z " />
<path stroke="none" fill="#0000ff" transform="matrix(0.05 0 0 0.05 -23 -36)" d="M 20161.8,5763.62 L 20161.6,5781.4 L 20146,5790.37 L 19641.8,5499.52 L 19641.8,5481.6 L 19657.3,5472.62 L 20161.8,5763.62 Z " />
<path stroke="none" fill="#0000ff" transform="matrix(0.05 0 0 0.05 -23 -36)" d="M 18602.2,4883.86 L 18602.2,4901.8 L 18586.6,4910.48 L 18163.8,4657.54 L 18180.3,4630.1 L 18602.2,4883.86 Z " />
<path stroke="none" fill="#0000ff" transform="matrix(0.05 0 0 0.05 -23 -36)" d="M 20177.1,5790.38 L 20161.6,5781.4 L 20161.8,5763.62 L 20571.2,5535.61 L 20586.7,5563.58 L 20177.1,5790.38 Z " />
<path stroke="none" fill="#0000ff" transform="matrix(0.05 0 0 0.05 -23 -36)" d="M 20175.8,6406.26 L 20161.6,6381.4 L 20177.1,6372.56 L 20597.8,6614.56 L 20581.9,6642.28 L 20175.8,6406.26 Z " />
<path stroke="none" fill="#0000ff" transform="matrix(0.05 0 0 0.05 -23 -36)" d="M 20146,6372.52 L 20161.6,6381.4 L 20147.3,6406.34 L 19718,6655.72 L 19702,6628 L 20146,6372.52 Z " />
<path stroke="none" fill="#0000ff" transform="matrix(0.05 0 0 0.05 -23 -36)" d="M 20147.3,6406.34 L 20161.6,6381.4 L 20175.8,6406.26 L 20177.6,6844.23 L 20145.6,6844.23 L 20147.3,6406.34 Z " />
<path stroke="#0000ff" stroke-width="26" fill="none" transform="matrix(0.05 0 0 0.05 -23 -36)" d="M 20594,5222.37 A 105.8,105.8 0 1 0 20805.6,5222.37A 105.8,105.8 0 1 0 20594,5222.37Z " />
<path stroke="none" fill="#0000ff" transform="matrix(0.05 0 0 0.05 -23 -36)" d="M 20637.5,5209.7 L 20762.8,5209.7 L 20762.8,5235.7 L 20637.5,5235.7 Z " />
<path stroke="none" fill="#0000ff" transform="matrix(0.05 0 0 0.05 -23 -36)" d="M 20713.1,5160.03 L 20713.1,5285.37 L 20687.1,5285.37 L 20687.1,5160.03 Z " />
<path stroke="none" fill="#0000ff" transform="matrix(0.05 0 0 0.05 -23 -36)" d="M 21874.9,5044.39 L 21907,5062.88 L 21907,5644.96 L 21874.9,5663.45 L 21874.9,5044.39 Z " />
<path stroke="none" fill="#0000ff" transform="matrix(0.05 0 0 0.05 -23 -36)" d="M 21965.4,5105.88 L 21997.4,5105.88 L 21997.4,5601.96 L 21965.4,5601.96 L 21965.4,5105.88 Z " />
<path stroke="none" fill="#0000ff" transform="matrix(0.05 0 0 0.05 -23 -36)" d="M 21874.9,5663.45 L 21907,5644.96 L 22411,5936 L 22411,5972.98 L 21874.9,5663.45 Z " />
<path stroke="none" fill="#0000ff" transform="matrix(0.05 0 0 0.05 -23 -36)" d="M 22411,5972.98 L 22411,5936 L 22915.1,5644.96 L 22947.1,5663.45 L 22411,5972.98 Z " />
<path stroke="none" fill="#0000ff" transform="matrix(0.05 0 0 0.05 -23 -36)" d="M 22419,5863.85 L 22403,5836.14 L 22832.6,5588.1 L 22848.6,5615.82 L 22419,5863.85 Z " />
<path stroke="none" fill="#0000ff" transform="matrix(0.05 0 0 0.05 -23 -36)" d="M 22947.1,5663.45 L 22915.1,5644.96 L 22915.1,5062.88 L 22947.1,5044.39 L 22947.1,5663.45 Z " />
<path stroke="none" fill="#0000ff" transform="matrix(0.05 0 0 0.05 -23 -36)" d="M 22947.1,5044.39 L 22915.1,5062.88 L 22411,4771.84 L 22411,4753.92 L 22426.4,4744.86 L 22947.1,5044.39 Z " />
<path stroke="none" fill="#0000ff" transform="matrix(0.05 0 0 0.05 -23 -36)" d="M 22848.6,5092.02 L 22832.6,5119.74 L 22403,4871.7 L 22419,4843.99 L 22848.6,5092.02 Z " />
<path stroke="none" fill="#0000ff" transform="matrix(0.05 0 0 0.05 -23 -36)" d="M 22395.7,4744.86 L 22411,4753.92 L 22411,4771.84 L 21907,5062.88 L 21874.9,5044.39 L 22395.7,4744.86 Z " />
<text x="0" y="0" stroke="none" fill="#0000ff" transform="matrix(0.05 0 0 0.05 1093.44 176.523)" font-style="normal" font-weight="normal" font-size="280px" font-family="Chalkboard" >
Cl</text>
<path stroke="none" fill="#0000ff" transform="matrix(0.05 0 0 0.05 -23 -36)" d="M 22426.4,4744.86 L 22411,4753.92 L 22395.7,4744.86 L 22395,4298.15 L 22427,4298.15 L 22426.4,4744.86 Z " />
<path stroke="#0000ff" stroke-width="32" fill="none" transform="matrix(0.05 0 0 0.05 -23 -36)" d="M 22599.6,4993.51 C 22495.4,5092.98 22491.6,5258.31 22591,5362.52 C 22632.1,5405.57 22688.3,5433.87 22747.3,5441.29 " />
<path stroke="none" fill="#0000ff" transform="matrix(0.05 0 0 0.05 -23 -36)" d="M 22960,5371.12 C 22960,5371.12 22738,5513.09 22738,5513.09 C 22738,5513.09 22756.5,5468.31 22747.3,5441.29 C 22738.1,5414.26 22695.9,5389.53 22695.9,5389.53 C 22695.9,5389.53 22960,5371.12 22960,5371.12 C 22960,5371.12 22960,5371.12 22960,5371.12 " />
<path stroke="#0000ff" stroke-width="1" fill="none" transform="matrix(0.05 0 0 0.05 -23 -36)" d="M 22960,5371.12 C 22960,5371.12 22738,5513.09 22738,5513.09 C 22738,5513.09 22756.5,5468.31 22747.3,5441.29 C 22738.1,5414.26 22695.9,5389.53 22695.9,5389.53 C 22695.9,5389.53 22960,5371.12 22960,5371.12 C 22960,5371.12 22960,5371.12 22960,5371.12 " />
<path stroke="none" fill="#0000ff" transform="matrix(0.05 0 0 0.05 -23 -36)" d="M 22209.8,4101.42 A 23.334,23.334 0 1 0 22256.5,4101.42A 23.334,23.334 0 1 0 22209.8,4101.42Z " />
<path stroke="none" fill="#0000ff" transform="matrix(0.05 0 0 0.05 -23 -36)" d="M 22209.8,4206.42 A 23.334,23.334 0 1 0 22256.5,4206.42A 23.334,23.334 0 1 0 22209.8,4206.42Z " />
<path stroke="#0000ff" stroke-width="32" fill="none" transform="matrix(0.05 0 0 0.05 -23 -36)" d="M 22665.4,4575.83 C 22790,4530.16 22854,4391.96 22808.4,4267.37 C 22791.5,4221.4 22760.2,4180.87 22720.1,4152.88 " />
<path stroke="none" fill="#0000ff" transform="matrix(0.05 0 0 0.05 -23 -36)" d="M 22445.2,4547.36 C 22445.2,4547.36 22706,4515.99 22706,4515.99 C 22706,4515.99 22669.3,4548.12 22665.4,4575.83 C 22661.4,4603.54 22687.7,4643.8 22687.7,4643.8 C 22687.7,4643.8 22445.2,4547.36 22445.2,4547.36 C 22445.2,4547.36 22445.2,4547.36 22445.2,4547.36 " />
<path stroke="#0000ff" stroke-width="1" fill="none" transform="matrix(0.05 0 0 0.05 -23 -36)" d="M 22445.2,4547.36 C 22445.2,4547.36 22706,4515.99 22706,4515.99 C 22706,4515.99 22669.3,4548.12 22665.4,4575.83 C 22661.4,4603.54 22687.7,4643.8 22687.7,4643.8 C 22687.7,4643.8 22445.2,4547.36 22445.2,4547.36 C 22445.2,4547.36 22445.2,4547.36 22445.2,4547.36 " />
<path stroke="#0000ff" stroke-width="32" fill="none" transform="matrix(0.05 0 0 0.05 -23 -36)" d="M 20400.1,5313.56 C 20292.6,5338.97 20225.9,5446.89 20251.3,5554.43 C 20259.4,5588.45 20276.5,5620.26 20300.5,5645.7 " />
<path stroke="none" fill="#0000ff" transform="matrix(0.05 0 0 0.05 -23 -36)" d="M 20591.9,5371.1 C 20591.9,5371.1 20355.3,5361.13 20355.3,5361.13 C 20355.3,5361.13 20393.3,5335.37 20400.1,5313.56 C 20406.9,5291.76 20390.2,5249.57 20390.2,5249.57 C 20390.2,5249.57 20591.9,5371.1 20591.9,5371.1 C 20591.9,5371.1 20591.9,5371.1 20591.9,5371.1 " />
<path stroke="#0000ff" stroke-width="1" fill="none" transform="matrix(0.05 0 0 0.05 -23 -36)" d="M 20591.9,5371.1 C 20591.9,5371.1 20355.3,5361.13 20355.3,5361.13 C 20355.3,5361.13 20393.3,5335.37 20400.1,5313.56 C 20406.9,5291.76 20390.2,5249.57 20390.2,5249.57 C 20390.2,5249.57 20591.9,5371.1 20591.9,5371.1 C 20591.9,5371.1 20591.9,5371.1 20591.9,5371.1 " />
<text x="0" y="0" stroke="none" fill="#0000ff" transform="matrix(0.05 0 0 0.05 1149.79 198.069)" font-style="normal" font-weight="normal" font-size="280px" font-family="Chalkboard" >
Cl</text>
<text x="0" y="0" stroke="none" fill="#0000ff" transform="matrix(0.05 0 0 0.05 1362.93 196.069)" font-style="normal" font-weight="normal" font-size="280px" font-family="Chalkboard" >
Cl</text>
<text x="0" y="0" stroke="none" fill="#0000ff" transform="matrix(0.05 0 0 0.05 1284.96 302.029)" font-style="normal" font-weight="normal" font-size="280px" font-family="Chalkboard" >
Cl</text>
<text x="0" y="0" stroke="none" fill="#0000ff" transform="matrix(0.05 0 0 0.05 1226.77 302.029)" font-style="normal" font-weight="normal" font-size="280px" font-family="Chalkboard" >
Cl</text>
<text x="0" y="0" stroke="none" fill="#0000ff" transform="matrix(0.05 0 0 0.05 1258.97 317.019)" font-style="normal" font-weight="normal" font-size="280px" font-family="Chalkboard" >
Cl</text>
<path stroke="none" fill="#0000ff" transform="matrix(0.05 0 0 0.05 -23 -36)" d="M 25706,5773.21 L 25721.5,5764.24 L 25737,5773.39 L 25737,6355.4 L 25721.5,6364.24 L 25706,6355.36 L 25706,5773.21 Z " />
<path stroke="none" fill="#0000ff" transform="matrix(0.05 0 0 0.05 -23 -36)" d="M 25217.2,5455.46 L 25201.7,5464.44 L 25186.2,5455.46 L 25186.2,4893.62 L 25218.2,4875.11 L 25217.2,5455.46 Z " />
<path stroke="none" fill="#0000ff" transform="matrix(0.05 0 0 0.05 -23 -36)" d="M 25186.2,5455.46 L 25201.7,5464.44 L 25201.7,5482.36 L 24682.1,5783.12 L 24681.6,5746.46 L 25186.2,5455.46 Z " />
<path stroke="none" fill="#0000ff" transform="matrix(0.05 0 0 0.05 -23 -36)" d="M 25103.7,5398.59 L 25119.7,5426.31 L 24688.4,5675.06 L 24672.4,5647.35 L 25103.7,5398.59 Z " />
<path stroke="none" fill="#0000ff" transform="matrix(0.05 0 0 0.05 -23 -36)" d="M 24681.6,5746.46 L 24682.1,5783.12 L 24145.6,5494.32 L 24177.6,5475.19 L 24681.6,5746.46 Z " />
<path stroke="none" fill="#0000ff" transform="matrix(0.05 0 0 0.05 -23 -36)" d="M 24177.6,5475.19 L 24145.6,5494.32 L 24146.5,4893.32 L 24162.1,4884.64 L 24177.6,4893.61 L 24177.6,5475.19 Z " />
<path stroke="none" fill="#0000ff" transform="matrix(0.05 0 0 0.05 -23 -36)" d="M 24268,5430.69 L 24236,5430.69 L 24236,4936.61 L 24268,4936.61 L 24268,5430.69 Z " />
<path stroke="none" fill="#0000ff" transform="matrix(0.05 0 0 0.05 -23 -36)" d="M 24177.6,4893.61 L 24162.1,4884.64 L 24162.1,4866.7 L 24681.9,4565.78 L 24681.9,4602.76 L 24177.6,4893.61 Z " />
<path stroke="none" fill="#0000ff" transform="matrix(0.05 0 0 0.05 -23 -36)" d="M 25218.2,4875.11 L 25186.2,4893.62 L 24681.9,4602.76 L 24681.9,4565.78 L 25218.2,4875.11 Z " />
<path stroke="none" fill="#0000ff" transform="matrix(0.05 0 0 0.05 -23 -36)" d="M 25119.7,4922.77 L 25103.7,4950.49 L 24673.9,4702.61 L 24689.9,4674.89 L 25119.7,4922.77 Z " />
<path stroke="none" fill="#0000ff" transform="matrix(0.05 0 0 0.05 -23 -36)" d="M 25721.6,5746.39 L 25721.5,5764.24 L 25706,5773.21 L 25201.7,5482.36 L 25201.7,5464.44 L 25217.2,5455.46 L 25721.6,5746.39 Z " />
<path stroke="none" fill="#0000ff" transform="matrix(0.05 0 0 0.05 -23 -36)" d="M 24162.1,4866.7 L 24162.1,4884.64 L 24146.5,4893.32 L 23723.6,4640.36 L 23740,4612.92 L 24162.1,4866.7 Z " />
<path stroke="none" fill="#0000ff" transform="matrix(0.05 0 0 0.05 -23 -36)" d="M 26261.2,5482.29 L 26261.3,5464.44 L 26276.8,5455.47 L 26781.1,5746.32 L 26781.1,5783.3 L 26261.2,5482.29 Z " />
<path stroke="none" fill="#0000ff" transform="matrix(0.05 0 0 0.05 -23 -36)" d="M 26343.3,5426.31 L 26359.3,5398.59 L 26789.1,5646.47 L 26773.1,5674.19 L 26343.3,5426.31 Z " />
<path stroke="none" fill="#0000ff" transform="matrix(0.05 0 0 0.05 -23 -36)" d="M 26276.8,5455.47 L 26261.3,5464.44 L 26245.8,5455.29 L 26244.8,4855.1 L 26276.8,4873.61 L 26276.8,5455.47 Z " />
<path stroke="none" fill="#0000ff" transform="matrix(0.05 0 0 0.05 -23 -36)" d="M 26276.8,4873.61 L 26244.8,4855.1 L 26781.1,4545.78 L 26781.1,4582.76 L 26276.8,4873.61 Z " />
<path stroke="none" fill="#0000ff" transform="matrix(0.05 0 0 0.05 -23 -36)" d="M 26359.3,4930.49 L 26343.3,4902.77 L 26773.1,4654.89 L 26789.1,4682.61 L 26359.3,4930.49 Z " />
<path stroke="none" fill="#0000ff" transform="matrix(0.05 0 0 0.05 -23 -36)" d="M 26781.1,4582.76 L 26781.1,4545.78 L 27300.6,4846.59 L 27300.9,4864.64 L 27285.4,4873.61 L 26781.1,4582.76 Z " />
<path stroke="none" fill="#0000ff" transform="matrix(0.05 0 0 0.05 -23 -36)" d="M 27285.4,4873.61 L 27300.9,4864.64 L 27316.4,4872.98 L 27317.4,5473.98 L 27285.4,5455.47 L 27285.4,4873.61 Z " />
<path stroke="none" fill="#0000ff" transform="matrix(0.05 0 0 0.05 -23 -36)" d="M 27194.9,4916.61 L 27226.9,4916.61 L 27226.9,5412.47 L 27194.9,5412.47 L 27194.9,4916.61 Z " />
<path stroke="none" fill="#0000ff" transform="matrix(0.05 0 0 0.05 -23 -36)" d="M 26781.1,5783.3 L 26781.1,5746.32 L 27285.4,5455.47 L 27317.4,5473.98 L 26781.1,5783.3 Z " />
<path stroke="none" fill="#0000ff" transform="matrix(0.05 0 0 0.05 -23 -36)" d="M 25737,5773.39 L 25721.5,5764.24 L 25721.6,5746.39 L 26245.8,5455.29 L 26261.3,5464.44 L 26261.2,5482.29 L 25737,5773.39 Z " />
<path stroke="none" fill="#0000ff" transform="matrix(0.05 0 0 0.05 -23 -36)" d="M 27316.4,4872.98 L 27300.9,4864.64 L 27300.6,4846.59 L 27686.8,4598.69 L 27704.1,4625.64 L 27316.4,4872.98 Z " />
<path stroke="none" fill="#0000ff" transform="matrix(0.05 0 0 0.05 -23 -36)" d="M 25735.8,6389.09 L 25721.5,6364.24 L 25737,6355.4 L 26157.8,6597.4 L 26141.8,6625.12 L 25735.8,6389.09 Z " />
<path stroke="none" fill="#0000ff" transform="matrix(0.05 0 0 0.05 -23 -36)" d="M 25706,6355.36 L 25721.5,6364.24 L 25707.2,6389.18 L 25277.9,6638.56 L 25261.9,6610.84 L 25706,6355.36 Z " />
<path stroke="none" fill="#0000ff" transform="matrix(0.05 0 0 0.05 -23 -36)" d="M 25707.2,6389.18 L 25721.5,6364.24 L 25735.8,6389.09 L 25737.5,6827.07 L 25705.5,6827.07 L 25707.2,6389.18 Z " />
<text x="0" y="0" stroke="none" fill="#0000ff" transform="matrix(0.05 0 0 0.05 1324.22 296.722)" font-style="normal" font-weight="normal" font-size="280px" font-family="Chalkboard" >
(DDT)</text>
<text x="0" y="0" stroke="none" fill="#0000ff" transform="matrix(0.05 0 0 0.05 548.43 267.736)" font-style="normal" font-weight="normal" font-size="280px" font-family="Chalkboard" >
EAS</text>
<text x="0" y="0" stroke="none" fill="#0000ff" transform="matrix(0.05 0 0 0.05 1086.39 286.604)" font-style="normal" font-weight="normal" font-size="280px" font-family="Chalkboard" >
EAS</text>
<text x="0" y="0" stroke="none" fill="#0000ff" transform="matrix(0.05 0 0 0.05 6.17 169.92)" font-style="normal" font-weight="normal" font-size="280px" font-family="Chalkboard" >
Mechanism</text>
<path stroke="#0000ff" stroke-width="20" fill="none" transform="matrix(0.05 0 0 0.05 6.17 169.92)" d="M 0,40 L 1369.06,40 " />
<text x="0" y="0" stroke="none" fill="#0000ff" transform="matrix(0.05 0 0 0.05 74.623 169.92)" font-style="normal" font-weight="normal" font-size="280px" font-family="Chalkboard" >
:</text>
<path stroke="none" fill="#0000ff" transform="matrix(0.05 0 0 0.05 -23 -36)" d="M 23144.4,6124.96 L 21673.1,6124.96 L 21673.1,6092.96 L 23144.4,6092.96 Z " />
<path stroke="none" fill="#0000ff" transform="matrix(0.05 0 0 0.05 -23 -36)" d="M 23423.4,6108.96 C 23423.4,6108.96 23103.4,6189.96 23103.4,6189.96 C 23103.4,6189.96 23143.4,6144.4 23143.4,6108.96 C 23143.4,6073.09 23103.4,6026.96 23103.4,6026.96 C 23103.4,6026.96 23423.4,6108.96 23423.4,6108.96 C 23423.4,6108.96 23423.4,6108.96 23423.4,6108.96 " />
<path stroke="#0000ff" stroke-width="1" fill="none" transform="matrix(0.05 0 0 0.05 -23 -36)" d="M 23423.4,6108.96 C 23423.4,6108.96 23103.4,6189.96 23103.4,6189.96 C 23103.4,6189.96 23143.4,6144.4 23143.4,6108.96 C 23143.4,6073.09 23103.4,6026.96 23103.4,6026.96 C 23103.4,6026.96 23423.4,6108.96 23423.4,6108.96 C 23423.4,6108.96 23423.4,6108.96 23423.4,6108.96 " />
<path stroke="#0000ff" stroke-width="32" fill="none" transform="matrix(0.05 0 0 0.05 -23 -36)" d="M 20367.4,6029.89 C 20892.7,6617.78 21796.3,6668.57 22384.2,6143.25 C 22514.3,6026.97 22622.9,5886.63 22702.7,5731.44 " />
<path stroke="none" fill="#0000ff" transform="matrix(0.05 0 0 0.05 -23 -36)" d="M 20231.6,5851.56 C 20231.6,5851.56 20438.8,6015.58 20438.8,6015.58 C 20438.8,6015.58 20390.2,6012.47 20367.4,6029.89 C 20344.7,6047.31 20334.9,6095.16 20334.9,6095.16 C 20334.9,6095.16 20231.6,5851.56 20231.6,5851.56 C 20231.6,5851.56 20231.6,5851.56 20231.6,5851.56 " />
<path stroke="#0000ff" stroke-width="1" fill="none" transform="matrix(0.05 0 0 0.05 -23 -36)" d="M 20231.6,5851.56 C 20231.6,5851.56 20438.8,6015.58 20438.8,6015.58 C 20438.8,6015.58 20390.2,6012.47 20367.4,6029.89 C 20344.7,6047.31 20334.9,6095.16 20334.9,6095.16 C 20334.9,6095.16 20231.6,5851.56 20231.6,5851.56 C 20231.6,5851.56 20231.6,5851.56 20231.6,5851.56 " />
</svg>
