<?xml version="1.0" standalone="no" ?>
<!DOCTYPE svg PUBLIC "-//W3C//DTD SVG 1.1//EN" "http://www.w3.org/Graphics/SVG/1.1/DTD/svg11.dtd">
<svg width="1067px" height="587px" viewBox="0 0 1067 587" style="background-color: #ffffff00" xmlns="http://www.w3.org/2000/svg" xmlns:xlink="http://www.w3.org/1999/xlink" version="1.1" >
<path stroke="none" fill="#0000ff" transform="matrix(0.05 0 0 0.05 -23 -36)" d="M 510.637,1921.27 L 542.667,1939.76 L 542.667,2521.84 L 510.637,2540.33 L 510.637,1921.27 Z " />
<path stroke="none" fill="#0000ff" transform="matrix(0.05 0 0 0.05 -23 -36)" d="M 601.145,1982.76 L 633.145,1982.76 L 633.145,2478.84 L 601.145,2478.84 L 601.145,1982.76 Z " />
<path stroke="none" fill="#0000ff" transform="matrix(0.05 0 0 0.05 -23 -36)" d="M 510.637,2540.33 L 542.667,2521.84 L 1046.76,2812.88 L 1046.76,2849.86 L 510.637,2540.33 Z " />
<path stroke="none" fill="#0000ff" transform="matrix(0.05 0 0 0.05 -23 -36)" d="M 1046.76,2849.86 L 1046.76,2812.88 L 1550.85,2521.84 L 1582.88,2540.33 L 1046.76,2849.86 Z " />
<path stroke="none" fill="#0000ff" transform="matrix(0.05 0 0 0.05 -23 -36)" d="M 1054.76,2740.73 L 1038.76,2713.02 L 1468.38,2464.98 L 1484.38,2492.69 L 1054.76,2740.73 Z " />
<path stroke="none" fill="#0000ff" transform="matrix(0.05 0 0 0.05 -23 -36)" d="M 1582.88,2540.33 L 1550.85,2521.84 L 1550.85,1939.76 L 1582.88,1921.27 L 1582.88,2540.33 Z " />
<path stroke="none" fill="#0000ff" transform="matrix(0.05 0 0 0.05 -23 -36)" d="M 1582.88,1921.27 L 1550.85,1939.76 L 1046.76,1648.72 L 1046.76,1630.8 L 1062.12,1621.74 L 1582.88,1921.27 Z " />
<path stroke="none" fill="#0000ff" transform="matrix(0.05 0 0 0.05 -23 -36)" d="M 1484.38,1968.91 L 1468.38,1996.62 L 1038.76,1748.58 L 1054.76,1720.87 L 1484.38,1968.91 Z " />
<path stroke="none" fill="#0000ff" transform="matrix(0.05 0 0 0.05 -23 -36)" d="M 1031.4,1621.74 L 1046.76,1630.8 L 1046.76,1648.72 L 542.667,1939.76 L 510.637,1921.27 L 1031.4,1621.74 Z " />
<text x="0" y="0" stroke="none" fill="#0000ff" transform="matrix(0.05 0 0 0.05 25.2308 20.3665)" font-style="normal" font-weight="normal" font-size="280px" font-family="Chalkboard" >
Cl</text>
<path stroke="none" fill="#0000ff" transform="matrix(0.05 0 0 0.05 -23 -36)" d="M 1062.12,1621.74 L 1046.76,1630.8 L 1031.4,1621.74 L 1030.76,1175.03 L 1062.76,1175.03 L 1062.12,1621.74 Z " />
<path stroke="none" fill="#0000ff" transform="matrix(0.05 0 0 0.05 -23 -36)" d="M 5503.92,2212.48 L 2162.16,2212.48 L 2162.16,2180.48 L 5503.92,2180.48 Z " />
<path stroke="none" fill="#0000ff" transform="matrix(0.05 0 0 0.05 -23 -36)" d="M 5782.92,2196.48 C 5782.92,2196.48 5462.92,2277.48 5462.92,2277.48 C 5462.92,2277.48 5502.92,2231.92 5502.92,2196.48 C 5502.92,2160.61 5462.92,2114.48 5462.92,2114.48 C 5462.92,2114.48 5782.92,2196.48 5782.92,2196.48 C 5782.92,2196.48 5782.92,2196.48 5782.92,2196.48 " />
<path stroke="#0000ff" stroke-width="1" fill="none" transform="matrix(0.05 0 0 0.05 -23 -36)" d="M 5782.92,2196.48 C 5782.92,2196.48 5462.92,2277.48 5462.92,2277.48 C 5462.92,2277.48 5502.92,2231.92 5502.92,2196.48 C 5502.92,2160.61 5462.92,2114.48 5462.92,2114.48 C 5462.92,2114.48 5782.92,2196.48 5782.92,2196.48 C 5782.92,2196.48 5782.92,2196.48 5782.92,2196.48 " />
<text x="0" y="0" stroke="none" fill="#0000ff" transform="matrix(0.05 0 0 0.05 102.04 261.989)" font-style="normal" font-weight="normal" font-size="280px" font-family="Chalkboard" >
O</text>
<text x="0" y="0" stroke="none" fill="#0000ff" transform="matrix(0.05 0 0 0.05 179.832 248.938)" font-style="normal" font-weight="normal" font-size="280px" font-family="Chalkboard" >
Cl</text>
<text x="0" y="0" stroke="none" fill="#0000ff" transform="matrix(0.05 0 0 0.05 153.851 233.938)" font-style="normal" font-weight="normal" font-size="280px" font-family="Chalkboard" >
Cl</text>
<text x="0" y="0" stroke="none" fill="#0000ff" transform="matrix(0.05 0 0 0.05 179.832 278.938)" font-style="normal" font-weight="normal" font-size="280px" font-family="Chalkboard" >
Cl</text>
<path stroke="none" fill="#0000ff" transform="matrix(0.05 0 0 0.05 -23 -36)" d="M 2680.43,5978.72 L 2696.43,5951.01 L 3099.41,6184.38 L 3099.43,6221.37 L 2680.43,5978.72 Z " />
<path stroke="none" fill="#0000ff" transform="matrix(0.05 0 0 0.05 -23 -36)" d="M 2725.43,5900.78 L 2741.43,5873.07 L 3107.55,6084.45 L 3091.55,6112.16 L 2725.43,5900.78 Z " />
<path stroke="none" fill="#0000ff" transform="matrix(0.05 0 0 0.05 -23 -36)" d="M 3099.43,6221.37 L 3099.41,6184.38 L 3603.8,5893.16 L 3619.17,5902.23 L 3619.28,5920.1 L 3099.43,6221.37 Z " />
<path stroke="none" fill="#0000ff" transform="matrix(0.05 0 0 0.05 -23 -36)" d="M 3647.88,5902.19 L 3619.17,5902.23 L 3633.43,5877.44 L 4023.73,5650.18 L 4039.73,5677.89 L 3647.88,5902.19 Z " />
<path stroke="none" fill="#0000ff" transform="matrix(0.05 0 0 0.05 -23 -36)" d="M 3633.43,5877.44 L 3619.17,5902.23 L 3603.8,5893.16 L 3603.17,5446.46 L 3635.17,5446.46 L 3633.43,5877.44 Z " />
<path stroke="none" fill="#0000ff" transform="matrix(0.05 0 0 0.05 -23 -36)" d="M 3619.28,5920.1 L 3619.17,5902.23 L 3647.88,5902.19 L 4055.29,6135.55 L 4039.29,6163.26 L 3619.28,5920.1 Z " />
<text x="0" y="0" stroke="none" fill="#0000ff" transform="matrix(0.05 0 0 0.05 128.443 296.205)" font-style="normal" font-weight="normal" font-size="280px" font-family="Chalkboard" >
chloral</text>
<text x="0" y="0" stroke="none" fill="#0000ff" transform="matrix(0.05 0 0 0.05 92.83 65.244)" font-style="normal" font-weight="normal" font-size="280px" font-family="Chalkboard" >
Cl</text>
<text x="0" y="0" stroke="none" fill="#0000ff" transform="matrix(0.05 0 0 0.05 105.252 69.2041)" font-style="normal" font-weight="normal" font-size="210px" font-family="Chalkboard" >
3</text>
<text x="0" y="0" stroke="none" fill="#0000ff" transform="matrix(0.05 0 0 0.05 111.227 65.244)" font-style="normal" font-weight="normal" font-size="280px" font-family="Chalkboard" >
C</text>
<text x="0" y="0" stroke="none" fill="#0000ff" transform="matrix(0.05 0 0 0.05 119.442 65.244)" font-style="normal" font-weight="normal" font-size="280px" font-family="Chalkboard" >
-</text>
<text x="0" y="0" stroke="none" fill="#0000ff" transform="matrix(0.05 0 0 0.05 126.109 65.244)" font-style="normal" font-weight="normal" font-size="280px" font-family="Chalkboard" >
CHO </text>
<text x="0" y="0" stroke="none" fill="#0000ff" transform="matrix(0.05 0 0 0.05 158.549 65.244)" font-style="normal" font-weight="normal" font-size="280px" font-family="Chalkboard" >
+ </text>
<text x="0" y="0" stroke="none" fill="#0000ff" transform="matrix(0.05 0 0 0.05 171.45 65.244)" font-style="normal" font-weight="normal" font-size="280px" font-family="Chalkboard" >
conc. </text>
<text x="0" y="0" stroke="none" fill="#0000ff" transform="matrix(0.05 0 0 0.05 207.232 65.244)" font-style="normal" font-weight="normal" font-size="280px" font-family="Chalkboard" >
H</text>
<text x="0" y="0" stroke="none" fill="#0000ff" transform="matrix(0.05 0 0 0.05 215.941 69.2041)" font-style="normal" font-weight="normal" font-size="210px" font-family="Chalkboard" >
2</text>
<text x="0" y="0" stroke="none" fill="#0000ff" transform="matrix(0.05 0 0 0.05 221.916 65.244)" font-style="normal" font-weight="normal" font-size="280px" font-family="Chalkboard" >
SO</text>
<text x="0" y="0" stroke="none" fill="#0000ff" transform="matrix(0.05 0 0 0.05 240.31 69.2041)" font-style="normal" font-weight="normal" font-size="210px" font-family="Chalkboard" >
4</text>
<text x="0" y="0" stroke="none" fill="#0000ff" transform="matrix(0.05 0 0 0.05 276.347 14.4544)" font-style="normal" font-weight="normal" font-size="280px" font-family="Chalkboard" >
Cl</text>
<text x="0" y="0" stroke="none" fill="#0000ff" transform="matrix(0.05 0 0 0.05 489.484 12.4553)" font-style="normal" font-weight="normal" font-size="280px" font-family="Chalkboard" >
Cl</text>
<text x="0" y="0" stroke="none" fill="#0000ff" transform="matrix(0.05 0 0 0.05 411.513 118.419)" font-style="normal" font-weight="normal" font-size="280px" font-family="Chalkboard" >
Cl</text>
<text x="0" y="0" stroke="none" fill="#0000ff" transform="matrix(0.05 0 0 0.05 353.319 118.419)" font-style="normal" font-weight="normal" font-size="280px" font-family="Chalkboard" >
Cl</text>
<text x="0" y="0" stroke="none" fill="#0000ff" transform="matrix(0.05 0 0 0.05 385.523 133.41)" font-style="normal" font-weight="normal" font-size="280px" font-family="Chalkboard" >
Cl</text>
<path stroke="none" fill="#0000ff" transform="matrix(0.05 0 0 0.05 -23 -36)" d="M 8237.09,2101.06 L 8252.61,2092.09 L 8268.12,2101.24 L 8268.14,2683.09 L 8252.61,2691.93 L 8237.09,2683.05 L 8237.09,2101.06 Z " />
<path stroke="none" fill="#0000ff" transform="matrix(0.05 0 0 0.05 -23 -36)" d="M 7748.26,1783.32 L 7732.75,1792.3 L 7717.25,1783.32 L 7717.25,1221.46 L 7749.28,1202.96 L 7748.26,1783.32 Z " />
<path stroke="none" fill="#0000ff" transform="matrix(0.05 0 0 0.05 -23 -36)" d="M 7717.25,1783.32 L 7732.75,1792.3 L 7732.75,1810.22 L 7213.29,2110.97 L 7212.74,2074.31 L 7717.25,1783.32 Z " />
<path stroke="none" fill="#0000ff" transform="matrix(0.05 0 0 0.05 -23 -36)" d="M 7634.76,1726.45 L 7650.75,1754.17 L 7219.49,2002.93 L 7203.5,1975.21 L 7634.76,1726.45 Z " />
<path stroke="none" fill="#0000ff" transform="matrix(0.05 0 0 0.05 -23 -36)" d="M 7212.74,2074.31 L 7213.29,2110.97 L 6676.58,1822.16 L 6708.61,1803.02 L 7212.74,2074.31 Z " />
<path stroke="none" fill="#0000ff" transform="matrix(0.05 0 0 0.05 -23 -36)" d="M 6708.61,1803.02 L 6676.58,1822.16 L 6677.57,1221.16 L 6693.1,1212.48 L 6708.62,1221.45 L 6708.61,1803.02 Z " />
<path stroke="none" fill="#0000ff" transform="matrix(0.05 0 0 0.05 -23 -36)" d="M 6799.07,1758.53 L 6767.07,1758.53 L 6767.07,1264.45 L 6799.07,1264.45 L 6799.07,1758.53 Z " />
<path stroke="none" fill="#0000ff" transform="matrix(0.05 0 0 0.05 -23 -36)" d="M 6708.62,1221.45 L 6693.1,1212.48 L 6693.15,1194.54 L 7213.02,893.5 L 7213.01,930.479 L 6708.62,1221.45 Z " />
<path stroke="none" fill="#0000ff" transform="matrix(0.05 0 0 0.05 -23 -36)" d="M 7749.28,1202.96 L 7717.25,1221.46 L 7213.01,930.479 L 7213.02,893.5 L 7749.28,1202.96 Z " />
<path stroke="none" fill="#0000ff" transform="matrix(0.05 0 0 0.05 -23 -36)" d="M 7650.74,1250.6 L 7634.74,1278.32 L 7205.01,1030.33 L 7221,1002.62 L 7650.74,1250.6 Z " />
<path stroke="none" fill="#0000ff" transform="matrix(0.05 0 0 0.05 -23 -36)" d="M 8252.74,2074.24 L 8252.61,2092.09 L 8237.09,2101.06 L 7732.75,1810.22 L 7732.75,1792.3 L 7748.26,1783.32 L 8252.74,2074.24 Z " />
<path stroke="none" fill="#0000ff" transform="matrix(0.05 0 0 0.05 -23 -36)" d="M 6693.15,1194.54 L 6693.1,1212.48 L 6677.57,1221.16 L 6254.79,968.114 L 6271.25,940.676 L 6693.15,1194.54 Z " />
<path stroke="none" fill="#0000ff" transform="matrix(0.05 0 0 0.05 -23 -36)" d="M 8792.28,1810.15 L 8792.41,1792.3 L 8807.93,1783.33 L 9312.14,2074.17 L 9312.14,2111.15 L 8792.28,1810.15 Z " />
<path stroke="none" fill="#0000ff" transform="matrix(0.05 0 0 0.05 -23 -36)" d="M 8874.41,1754.17 L 8890.4,1726.45 L 9320.14,1974.33 L 9304.15,2002.05 L 8874.41,1754.17 Z " />
<path stroke="none" fill="#0000ff" transform="matrix(0.05 0 0 0.05 -23 -36)" d="M 8807.93,1783.33 L 8792.41,1792.3 L 8776.89,1783.15 L 8775.9,1182.89 L 8807.93,1201.38 L 8807.93,1783.33 Z " />
<path stroke="none" fill="#0000ff" transform="matrix(0.05 0 0 0.05 -23 -36)" d="M 8807.93,1201.38 L 8775.9,1182.89 L 9312.14,873.49 L 9312.14,910.468 L 8807.93,1201.38 Z " />
<path stroke="none" fill="#0000ff" transform="matrix(0.05 0 0 0.05 -23 -36)" d="M 8890.41,1258.26 L 8874.42,1230.54 L 9304.15,982.601 L 9320.14,1010.32 L 8890.41,1258.26 Z " />
<path stroke="none" fill="#0000ff" transform="matrix(0.05 0 0 0.05 -23 -36)" d="M 9312.14,910.468 L 9312.14,873.49 L 9831.66,1174.36 L 9831.93,1192.42 L 9816.4,1201.38 L 9312.14,910.468 Z " />
<path stroke="none" fill="#0000ff" transform="matrix(0.05 0 0 0.05 -23 -36)" d="M 9816.4,1201.38 L 9831.93,1192.42 L 9847.48,1200.76 L 9848.43,1801.84 L 9816.4,1783.33 L 9816.4,1201.38 Z " />
<path stroke="none" fill="#0000ff" transform="matrix(0.05 0 0 0.05 -23 -36)" d="M 9725.94,1244.39 L 9757.94,1244.39 L 9757.94,1740.32 L 9725.94,1740.32 L 9725.94,1244.39 Z " />
<path stroke="none" fill="#0000ff" transform="matrix(0.05 0 0 0.05 -23 -36)" d="M 9312.14,2111.15 L 9312.14,2074.17 L 9816.4,1783.33 L 9848.43,1801.84 L 9312.14,2111.15 Z " />
<path stroke="none" fill="#0000ff" transform="matrix(0.05 0 0 0.05 -23 -36)" d="M 8268.12,2101.24 L 8252.61,2092.09 L 8252.74,2074.24 L 8776.89,1783.15 L 8792.41,1792.3 L 8792.28,1810.15 L 8268.12,2101.24 Z " />
<path stroke="none" fill="#0000ff" transform="matrix(0.05 0 0 0.05 -23 -36)" d="M 9847.48,1200.76 L 9831.93,1192.42 L 9831.66,1174.36 L 10218,926.421 L 10235.2,953.375 L 9847.48,1200.76 Z " />
<path stroke="none" fill="#0000ff" transform="matrix(0.05 0 0 0.05 -23 -36)" d="M 8266.89,2716.79 L 8252.61,2691.93 L 8268.14,2683.09 L 8688.89,2925.19 L 8672.9,2952.91 L 8266.89,2716.79 Z " />
<path stroke="none" fill="#0000ff" transform="matrix(0.05 0 0 0.05 -23 -36)" d="M 8237.09,2683.05 L 8252.61,2691.93 L 8238.34,2716.88 L 7808.95,2966.36 L 7792.96,2938.64 L 8237.09,2683.05 Z " />
<path stroke="none" fill="#0000ff" transform="matrix(0.05 0 0 0.05 -23 -36)" d="M 8238.34,2716.88 L 8252.61,2691.93 L 8266.89,2716.79 L 8268.61,3154.91 L 8236.61,3154.91 L 8238.34,2716.88 Z " />
<text x="0" y="0" stroke="none" fill="#0000ff" transform="matrix(0.05 0 0 0.05 450.782 113.113)" font-style="normal" font-weight="normal" font-size="280px" font-family="Chalkboard" >
(DDT)</text>
<path stroke="none" fill="#0000ff" transform="matrix(0.05 0 0 0.05 -23 -36)" d="M 527.796,5713.63 L 559.826,5732.12 L 559.826,6314.2 L 527.796,6332.69 L 527.796,5713.63 Z " />
<path stroke="none" fill="#0000ff" transform="matrix(0.05 0 0 0.05 -23 -36)" d="M 618.305,5775.12 L 650.304,5775.12 L 650.304,6271.2 L 618.305,6271.2 L 618.305,5775.12 Z " />
<path stroke="none" fill="#0000ff" transform="matrix(0.05 0 0 0.05 -23 -36)" d="M 527.796,6332.69 L 559.826,6314.2 L 1063.92,6605.24 L 1063.92,6642.22 L 527.796,6332.69 Z " />
<path stroke="none" fill="#0000ff" transform="matrix(0.05 0 0 0.05 -23 -36)" d="M 1063.92,6642.22 L 1063.92,6605.24 L 1568.01,6314.2 L 1600.04,6332.69 L 1063.92,6642.22 Z " />
<path stroke="none" fill="#0000ff" transform="matrix(0.05 0 0 0.05 -23 -36)" d="M 1071.92,6533.09 L 1055.92,6505.38 L 1485.54,6257.34 L 1501.54,6285.05 L 1071.92,6533.09 Z " />
<path stroke="none" fill="#0000ff" transform="matrix(0.05 0 0 0.05 -23 -36)" d="M 1600.04,6332.69 L 1568.01,6314.2 L 1568.01,5732.12 L 1600.04,5713.63 L 1600.04,6332.69 Z " />
<path stroke="none" fill="#0000ff" transform="matrix(0.05 0 0 0.05 -23 -36)" d="M 1600.04,5713.63 L 1568.01,5732.12 L 1063.92,5441.08 L 1063.92,5423.16 L 1079.28,5414.1 L 1600.04,5713.63 Z " />
<path stroke="none" fill="#0000ff" transform="matrix(0.05 0 0 0.05 -23 -36)" d="M 1501.54,5761.27 L 1485.54,5788.98 L 1055.92,5540.94 L 1071.92,5513.23 L 1501.54,5761.27 Z " />
<path stroke="none" fill="#0000ff" transform="matrix(0.05 0 0 0.05 -23 -36)" d="M 1048.56,5414.1 L 1063.92,5423.16 L 1063.92,5441.08 L 559.826,5732.12 L 527.796,5713.63 L 1048.56,5414.1 Z " />
<text x="0" y="0" stroke="none" fill="#0000ff" transform="matrix(0.05 0 0 0.05 26.0888 209.985)" font-style="normal" font-weight="normal" font-size="280px" font-family="Chalkboard" >
Cl</text>
<path stroke="none" fill="#0000ff" transform="matrix(0.05 0 0 0.05 -23 -36)" d="M 1079.28,5414.1 L 1063.92,5423.16 L 1048.56,5414.1 L 1047.92,4967.39 L 1079.92,4967.39 L 1079.28,5414.1 Z " />
<text x="0" y="0" stroke="none" fill="#0000ff" transform="matrix(0.05 0 0 0.05 79.102 266.016)" font-style="normal" font-weight="normal" font-size="280px" font-family="Chalkboard" >
+</text>
<path stroke="none" fill="#0000ff" transform="matrix(0.05 0 0 0.05 -23 -36)" d="M 6447.72,5850.4 L 4770.48,5850.4 L 4770.48,5818.4 L 6447.72,5818.4 Z " />
<path stroke="none" fill="#0000ff" transform="matrix(0.05 0 0 0.05 -23 -36)" d="M 6726.72,5834.4 C 6726.72,5834.4 6406.72,5915.4 6406.72,5915.4 C 6406.72,5915.4 6446.72,5869.84 6446.72,5834.4 C 6446.72,5798.53 6406.72,5752.4 6406.72,5752.4 C 6406.72,5752.4 6726.72,5834.4 6726.72,5834.4 C 6726.72,5834.4 6726.72,5834.4 6726.72,5834.4 " />
<path stroke="#0000ff" stroke-width="1" fill="none" transform="matrix(0.05 0 0 0.05 -23 -36)" d="M 6726.72,5834.4 C 6726.72,5834.4 6406.72,5915.4 6406.72,5915.4 C 6406.72,5915.4 6446.72,5869.84 6446.72,5834.4 C 6446.72,5798.53 6406.72,5752.4 6406.72,5752.4 C 6406.72,5752.4 6726.72,5834.4 6726.72,5834.4 C 6726.72,5834.4 6726.72,5834.4 6726.72,5834.4 " />
<text x="0" y="0" stroke="none" fill="#000000" transform="matrix(0.05 0 0 0.05 220.672 247.14)" font-style="normal" font-weight="normal" font-size="280px" font-family="Chalkboard" >
conc. </text>
<text x="0" y="0" stroke="none" fill="#000000" transform="matrix(0.05 0 0 0.05 256.453 247.14)" font-style="normal" font-weight="normal" font-size="280px" font-family="Chalkboard" >
H</text>
<text x="0" y="0" stroke="none" fill="#000000" transform="matrix(0.05 0 0 0.05 265.163 251.1)" font-style="normal" font-weight="normal" font-size="210px" font-family="Chalkboard" >
2</text>
<text x="0" y="0" stroke="none" fill="#000000" transform="matrix(0.05 0 0 0.05 271.138 247.14)" font-style="normal" font-weight="normal" font-size="280px" font-family="Chalkboard" >
SO</text>
<text x="0" y="0" stroke="none" fill="#000000" transform="matrix(0.05 0 0 0.05 289.531 251.1)" font-style="normal" font-weight="normal" font-size="210px" font-family="Chalkboard" >
4</text>
<text x="0" y="0" stroke="none" fill="#0000ff" transform="matrix(0.05 0 0 0.05 457.403 218.91)" font-style="normal" font-weight="normal" font-size="280px" font-family="Chalkboard" >
O</text>
<text x="0" y="0" stroke="none" fill="#0000ff" transform="matrix(0.05 0 0 0.05 510.371 278.883)" font-style="normal" font-weight="normal" font-size="280px" font-family="Chalkboard" >
Cl</text>
<text x="0" y="0" stroke="none" fill="#0000ff" transform="matrix(0.05 0 0 0.05 510.355 248.883)" font-style="normal" font-weight="normal" font-size="280px" font-family="Chalkboard" >
Cl</text>
<text x="0" y="0" stroke="none" fill="#0000ff" transform="matrix(0.05 0 0 0.05 484.398 293.897)" font-style="normal" font-weight="normal" font-size="280px" font-family="Chalkboard" >
Cl</text>
<path stroke="none" fill="#0000ff" transform="matrix(0.05 0 0 0.05 -23 -36)" d="M 9693.78,5145.62 L 9725.78,5145.6 L 9725.37,5592.6 L 9693.35,5611.14 L 9693.78,5145.62 Z " />
<path stroke="none" fill="#0000ff" transform="matrix(0.05 0 0 0.05 -23 -36)" d="M 9783.78,5145.57 L 9815.78,5145.55 L 9815.99,5549.66 L 9783.99,5549.67 L 9783.78,5145.57 Z " />
<path stroke="none" fill="#0000ff" transform="matrix(0.05 0 0 0.05 -23 -36)" d="M 9693.35,5611.14 L 9725.37,5592.6 L 10229.9,5883.55 L 10229.8,5901.4 L 10214.4,5910.47 L 9693.35,5611.14 Z " />
<path stroke="none" fill="#0000ff" transform="matrix(0.05 0 0 0.05 -23 -36)" d="M 10244.1,5926.27 L 10229.8,5901.4 L 10258.5,5901.35 L 10666,6134.5 L 10650,6162.22 L 10244.1,5926.27 Z " />
<path stroke="none" fill="#0000ff" transform="matrix(0.05 0 0 0.05 -23 -36)" d="M 10258.5,5901.35 L 10229.8,5901.4 L 10229.9,5883.55 L 10634.2,5649.15 L 10650.2,5676.86 L 10258.5,5901.35 Z " />
<path stroke="none" fill="#0000ff" transform="matrix(0.05 0 0 0.05 -23 -36)" d="M 10214.4,5910.47 L 10229.8,5901.4 L 10244.1,5926.27 L 10246,6365.63 L 10214,6365.65 L 10214.4,5910.47 Z " />
<path stroke="none" fill="#0000ff" transform="matrix(0.05 0 0 0.05 -23 -36)" d="M 7220.2,5627.83 L 7252.23,5646.32 L 7252.23,6228.4 L 7220.2,6246.89 L 7220.2,5627.83 Z " />
<path stroke="none" fill="#0000ff" transform="matrix(0.05 0 0 0.05 -23 -36)" d="M 7310.7,5689.32 L 7342.7,5689.32 L 7342.7,6185.4 L 7310.7,6185.4 L 7310.7,5689.32 Z " />
<path stroke="none" fill="#0000ff" transform="matrix(0.05 0 0 0.05 -23 -36)" d="M 7220.2,6246.89 L 7252.23,6228.4 L 7756.32,6519.44 L 7756.32,6556.42 L 7220.2,6246.89 Z " />
<path stroke="none" fill="#0000ff" transform="matrix(0.05 0 0 0.05 -23 -36)" d="M 7756.32,6556.42 L 7756.32,6519.44 L 8260.41,6228.4 L 8292.44,6246.89 L 7756.32,6556.42 Z " />
<path stroke="none" fill="#0000ff" transform="matrix(0.05 0 0 0.05 -23 -36)" d="M 7764.32,6447.29 L 7748.32,6419.58 L 8177.93,6171.54 L 8193.93,6199.25 L 7764.32,6447.29 Z " />
<path stroke="none" fill="#0000ff" transform="matrix(0.05 0 0 0.05 -23 -36)" d="M 8292.44,6246.89 L 8260.41,6228.4 L 8260.41,5646.32 L 8292.44,5627.83 L 8292.44,6246.89 Z " />
<path stroke="none" fill="#0000ff" transform="matrix(0.05 0 0 0.05 -23 -36)" d="M 8292.44,5627.83 L 8260.41,5646.32 L 7756.32,5355.28 L 7756.32,5337.36 L 7771.68,5328.3 L 8292.44,5627.83 Z " />
<path stroke="none" fill="#0000ff" transform="matrix(0.05 0 0 0.05 -23 -36)" d="M 8193.93,5675.46 L 8177.93,5703.18 L 7748.32,5455.14 L 7764.32,5427.43 L 8193.93,5675.46 Z " />
<path stroke="none" fill="#0000ff" transform="matrix(0.05 0 0 0.05 -23 -36)" d="M 7740.96,5328.3 L 7756.32,5337.36 L 7756.32,5355.28 L 7252.23,5646.32 L 7220.2,5627.83 L 7740.96,5328.3 Z " />
<text x="0" y="0" stroke="none" fill="#0000ff" transform="matrix(0.05 0 0 0.05 360.709 205.695)" font-style="normal" font-weight="normal" font-size="280px" font-family="Chalkboard" >
Cl</text>
<path stroke="none" fill="#0000ff" transform="matrix(0.05 0 0 0.05 -23 -36)" d="M 7771.68,5328.3 L 7756.32,5337.36 L 7740.96,5328.3 L 7740.32,4881.59 L 7772.32,4881.59 L 7771.68,5328.3 Z " />
<text x="0" y="0" stroke="none" fill="#0000ff" transform="matrix(0.05 0 0 0.05 415.438 261.726)" font-style="normal" font-weight="normal" font-size="280px" font-family="Chalkboard" >
+</text>
<path stroke="none" fill="#0000ff" transform="matrix(0.05 0 0 0.05 -23 -36)" d="M 12367.9,5764.6 L 11583,5764.6 L 11583,5732.6 L 12367.9,5732.6 Z " />
<path stroke="none" fill="#0000ff" transform="matrix(0.05 0 0 0.05 -23 -36)" d="M 12646.9,5748.6 C 12646.9,5748.6 12326.9,5829.6 12326.9,5829.6 C 12326.9,5829.6 12366.9,5784.04 12366.9,5748.6 C 12366.9,5712.72 12326.9,5666.6 12326.9,5666.6 C 12326.9,5666.6 12646.9,5748.6 12646.9,5748.6 C 12646.9,5748.6 12646.9,5748.6 12646.9,5748.6 " />
<path stroke="#0000ff" stroke-width="1" fill="none" transform="matrix(0.05 0 0 0.05 -23 -36)" d="M 12646.9,5748.6 C 12646.9,5748.6 12326.9,5829.6 12326.9,5829.6 C 12326.9,5829.6 12366.9,5784.04 12366.9,5748.6 C 12366.9,5712.72 12326.9,5666.6 12326.9,5666.6 C 12326.9,5666.6 12646.9,5748.6 12646.9,5748.6 C 12646.9,5748.6 12646.9,5748.6 12646.9,5748.6 " />
<text x="0" y="0" stroke="none" fill="#0000ff" transform="matrix(0.05 0 0 0.05 484.103 203.897)" font-style="normal" font-weight="normal" font-size="280px" font-family="Chalkboard" >
H</text>
<path stroke="none" fill="#0000ff" transform="matrix(0.05 0 0 0.05 -23 -36)" d="M 9834.25,4948.16 L 9818.23,4920.46 L 10093.3,4761.47 L 10109.3,4789.18 L 9834.25,4948.16 Z " />
<path stroke="#0000ff" stroke-width="26" fill="none" transform="matrix(0.05 0 0 0.05 -23 -36)" d="M 9398.91,4841.18 A 105.8,105.8 0 1 0 9610.51,4841.18A 105.8,105.8 0 1 0 9398.91,4841.18Z " />
<path stroke="none" fill="#0000ff" transform="matrix(0.05 0 0 0.05 -23 -36)" d="M 9442.38,4828.52 L 9567.71,4828.52 L 9567.71,4854.52 L 9442.38,4854.52 Z " />
<path stroke="none" fill="#0000ff" transform="matrix(0.05 0 0 0.05 -23 -36)" d="M 9518.05,4778.85 L 9518.05,4904.18 L 9492.05,4904.18 L 9492.05,4778.85 Z " />
<text x="0" y="0" stroke="none" fill="#0000ff" transform="matrix(0.05 0 0 0.05 616.115 198.924)" font-style="normal" font-weight="normal" font-size="280px" font-family="Chalkboard" >
Cl</text>
<text x="0" y="0" stroke="none" fill="#0000ff" transform="matrix(0.05 0 0 0.05 751.306 242.912)" font-style="normal" font-weight="normal" font-size="280px" font-family="Chalkboard" >
OH</text>
<text x="0" y="0" stroke="none" fill="#0000ff" transform="matrix(0.05 0 0 0.05 751.281 302.889)" font-style="normal" font-weight="normal" font-size="280px" font-family="Chalkboard" >
Cl</text>
<text x="0" y="0" stroke="none" fill="#0000ff" transform="matrix(0.05 0 0 0.05 693.087 302.889)" font-style="normal" font-weight="normal" font-size="280px" font-family="Chalkboard" >
Cl</text>
<text x="0" y="0" stroke="none" fill="#0000ff" transform="matrix(0.05 0 0 0.05 725.291 317.88)" font-style="normal" font-weight="normal" font-size="280px" font-family="Chalkboard" >
Cl</text>
<path stroke="none" fill="#0000ff" transform="matrix(0.05 0 0 0.05 -23 -36)" d="M 15032.4,5790.46 L 15048,5781.49 L 15063.5,5790.47 L 15063.5,6372.49 L 15048,6381.33 L 15032.4,6372.45 L 15032.4,5790.46 Z " />
<path stroke="none" fill="#0000ff" transform="matrix(0.05 0 0 0.05 -23 -36)" d="M 14543.6,5472.72 L 14528.1,5481.7 L 14512.6,5472.72 L 14512.6,4910.86 L 14544.6,4892.36 L 14543.6,5472.72 Z " />
<path stroke="none" fill="#0000ff" transform="matrix(0.05 0 0 0.05 -23 -36)" d="M 14512.6,5472.72 L 14528.1,5481.7 L 14528.1,5499.62 L 14008.6,5800.37 L 14008.1,5763.71 L 14512.6,5472.72 Z " />
<path stroke="none" fill="#0000ff" transform="matrix(0.05 0 0 0.05 -23 -36)" d="M 14430.1,5415.85 L 14446.1,5443.57 L 14014.9,5692.33 L 13998.9,5664.61 L 14430.1,5415.85 Z " />
<path stroke="none" fill="#0000ff" transform="matrix(0.05 0 0 0.05 -23 -36)" d="M 14008.1,5763.71 L 14008.6,5800.37 L 13471.9,5511.56 L 13504,5492.42 L 14008.1,5763.71 Z " />
<path stroke="none" fill="#0000ff" transform="matrix(0.05 0 0 0.05 -23 -36)" d="M 13504,5492.42 L 13471.9,5511.56 L 13472.9,4910.56 L 13488.5,4901.88 L 13504,4910.85 L 13504,5492.42 Z " />
<path stroke="none" fill="#0000ff" transform="matrix(0.05 0 0 0.05 -23 -36)" d="M 13594.4,5447.93 L 13562.4,5447.93 L 13562.4,4953.85 L 13594.4,4953.85 L 13594.4,5447.93 Z " />
<path stroke="none" fill="#0000ff" transform="matrix(0.05 0 0 0.05 -23 -36)" d="M 13504,4910.85 L 13488.5,4901.88 L 13488.5,4883.93 L 14008.4,4582.9 L 14008.4,4619.88 L 13504,4910.85 Z " />
<path stroke="none" fill="#0000ff" transform="matrix(0.05 0 0 0.05 -23 -36)" d="M 14544.6,4892.36 L 14512.6,4910.86 L 14008.4,4619.88 L 14008.4,4582.9 L 14544.6,4892.36 Z " />
<path stroke="none" fill="#0000ff" transform="matrix(0.05 0 0 0.05 -23 -36)" d="M 14446.1,4940 L 14430.1,4967.72 L 14000.4,4719.73 L 14016.4,4692.02 L 14446.1,4940 Z " />
<path stroke="none" fill="#0000ff" transform="matrix(0.05 0 0 0.05 -23 -36)" d="M 15048.3,5763.71 L 15048,5781.49 L 15032.4,5790.46 L 14528.1,5499.62 L 14528.1,5481.7 L 14543.6,5472.72 L 15048.3,5763.71 Z " />
<path stroke="none" fill="#0000ff" transform="matrix(0.05 0 0 0.05 -23 -36)" d="M 13488.5,4883.93 L 13488.5,4901.88 L 13472.9,4910.56 L 13049,4656.81 L 13065.4,4629.37 L 13488.5,4883.93 Z " />
<path stroke="none" fill="#0000ff" transform="matrix(0.05 0 0 0.05 -23 -36)" d="M 15063.5,5790.47 L 15048,5781.49 L 15048.3,5763.71 L 15457.6,5535.71 L 15473.1,5563.68 L 15063.5,5790.47 Z " />
<path stroke="none" fill="#0000ff" transform="matrix(0.05 0 0 0.05 -23 -36)" d="M 15062.3,6406.19 L 15048,6381.33 L 15063.5,6372.49 L 15484.2,6614.59 L 15468.3,6642.31 L 15062.3,6406.19 Z " />
<path stroke="none" fill="#0000ff" transform="matrix(0.05 0 0 0.05 -23 -36)" d="M 15032.4,6372.45 L 15048,6381.33 L 15033.7,6406.27 L 14605.1,6655.32 L 14589.1,6627.61 L 15032.4,6372.45 Z " />
<path stroke="none" fill="#0000ff" transform="matrix(0.05 0 0 0.05 -23 -36)" d="M 15033.7,6406.27 L 15048,6381.33 L 15062.3,6406.19 L 15064,6845.31 L 15032,6845.31 L 15033.7,6406.27 Z " />
<path stroke="#0000ff" stroke-width="32" fill="none" transform="matrix(0.05 0 0 0.05 -23 -36)" d="M 7945.08,5577 C 7840.89,5676.45 7837.05,5841.75 7936.5,5945.94 C 7977.57,5988.97 8033.69,6017.25 8092.71,6024.67 " />
<path stroke="none" fill="#0000ff" transform="matrix(0.05 0 0 0.05 -23 -36)" d="M 8305.44,5954.52 C 8305.44,5954.52 8083.36,6096.47 8083.36,6096.47 C 8083.36,6096.47 8101.92,6051.7 8092.71,6024.67 C 8083.5,5997.64 8041.28,5972.91 8041.28,5972.91 C 8041.28,5972.91 8305.44,5954.52 8305.44,5954.52 C 8305.44,5954.52 8305.44,5954.52 8305.44,5954.52 " />
<path stroke="#0000ff" stroke-width="1" fill="none" transform="matrix(0.05 0 0 0.05 -23 -36)" d="M 8305.44,5954.52 C 8305.44,5954.52 8083.36,6096.47 8083.36,6096.47 C 8083.36,6096.47 8101.92,6051.7 8092.71,6024.67 C 8083.5,5997.64 8041.28,5972.91 8041.28,5972.91 C 8041.28,5972.91 8305.44,5954.52 8305.44,5954.52 C 8305.44,5954.52 8305.44,5954.52 8305.44,5954.52 " />
<path stroke="none" fill="#0000ff" transform="matrix(0.05 0 0 0.05 -23 -36)" d="M 7984.24,4788.17 A 23.3333,23.3333 0 1 0 8030.91,4788.17A 23.3333,23.3333 0 1 0 7984.24,4788.17Z " />
<path stroke="none" fill="#0000ff" transform="matrix(0.05 0 0 0.05 -23 -36)" d="M 7983.41,4683.17 A 23.3333,23.3333 0 1 0 8030.08,4683.17A 23.3333,23.3333 0 1 0 7983.41,4683.17Z " />
<path stroke="#0000ff" stroke-width="32" fill="none" transform="matrix(0.05 0 0 0.05 -23 -36)" d="M 8010.83,5159.14 C 8135.38,5113.38 8199.33,4975.14 8153.56,4850.59 C 8136.68,4804.63 8105.39,4764.12 8065.2,4736.16 " />
<path stroke="none" fill="#0000ff" transform="matrix(0.05 0 0 0.05 -23 -36)" d="M 7790.64,5130.84 C 7790.64,5130.84 8051.37,5099.27 8051.37,5099.27 C 8051.37,5099.27 8014.77,5131.43 8010.83,5159.14 C 8006.89,5186.85 8033.2,5227.1 8033.2,5227.1 C 8033.2,5227.1 7790.64,5130.84 7790.64,5130.84 C 7790.64,5130.84 7790.64,5130.84 7790.64,5130.84 " />
<path stroke="#0000ff" stroke-width="1" fill="none" transform="matrix(0.05 0 0 0.05 -23 -36)" d="M 7790.64,5130.84 C 7790.64,5130.84 8051.37,5099.27 8051.37,5099.27 C 8051.37,5099.27 8014.77,5131.43 8010.83,5159.14 C 8006.89,5186.85 8033.2,5227.1 8033.2,5227.1 C 8033.2,5227.1 7790.64,5130.84 7790.64,5130.84 C 7790.64,5130.84 7790.64,5130.84 7790.64,5130.84 " />
<path stroke="#0000ff" stroke-width="32" fill="none" transform="matrix(0.05 0 0 0.05 -23 -36)" d="M 7927.92,6383.52 C 8398.99,6761.95 9088.51,6686.75 9466.94,6215.69 C 9539.76,6125.04 9598,6022.73 9638.75,5913.84 " />
<path stroke="none" fill="#0000ff" transform="matrix(0.05 0 0 0.05 -23 -36)" d="M 9695.4,5697.12 C 9695.4,5697.12 9693.58,5961.98 9693.58,5961.98 C 9693.58,5961.98 9666.28,5921.36 9638.75,5913.84 C 9611.23,5906.32 9567.74,5927.61 9567.74,5927.61 C 9567.74,5927.61 9695.4,5697.12 9695.4,5697.12 C 9695.4,5697.12 9695.4,5697.12 9695.4,5697.12 " />
<path stroke="#0000ff" stroke-width="1" fill="none" transform="matrix(0.05 0 0 0.05 -23 -36)" d="M 9695.4,5697.12 C 9695.4,5697.12 9693.58,5961.98 9693.58,5961.98 C 9693.58,5961.98 9666.28,5921.36 9638.75,5913.84 C 9611.23,5906.32 9567.74,5927.61 9567.74,5927.61 C 9567.74,5927.61 9695.4,5697.12 9695.4,5697.12 C 9695.4,5697.12 9695.4,5697.12 9695.4,5697.12 " />
<path stroke="#0000ff" stroke-width="32" fill="none" transform="matrix(0.05 0 0 0.05 -23 -36)" d="M 9373.84,5001.63 C 9212.54,5032.31 9106.51,5188.14 9137.19,5349.44 C 9167.87,5510.74 9323.7,5616.77 9485,5586.09 C 9563.26,5571.2 9634.58,5523.52 9678.24,5456.88 " />
<path stroke="none" fill="#0000ff" transform="matrix(0.05 0 0 0.05 -23 -36)" d="M 9592.44,5045.04 C 9592.44,5045.04 9329.21,5058.89 9329.21,5058.89 C 9329.21,5058.89 9368.01,5029.25 9373.84,5001.63 C 9379.68,4974.01 9356.02,4931.97 9356.02,4931.97 C 9356.02,4931.97 9592.44,5045.04 9592.44,5045.04 C 9592.44,5045.04 9592.44,5045.04 9592.44,5045.04 " />
<path stroke="#0000ff" stroke-width="1" fill="none" transform="matrix(0.05 0 0 0.05 -23 -36)" d="M 9592.44,5045.04 C 9592.44,5045.04 9329.21,5058.89 9329.21,5058.89 C 9329.21,5058.89 9368.01,5029.25 9373.84,5001.63 C 9379.68,4974.01 9356.02,4931.97 9356.02,4931.97 C 9356.02,4931.97 9592.44,5045.04 9592.44,5045.04 C 9592.44,5045.04 9592.44,5045.04 9592.44,5045.04 " />
<path stroke="none" fill="#0000ff" transform="matrix(0.05 0 0 0.05 -23 -36)" d="M 18030.7,5678.8 L 16353.5,5678.8 L 16353.5,5646.8 L 18030.7,5646.8 Z " />
<path stroke="none" fill="#0000ff" transform="matrix(0.05 0 0 0.05 -23 -36)" d="M 18309.7,5662.8 C 18309.7,5662.8 17989.7,5743.8 17989.7,5743.8 C 17989.7,5743.8 18029.7,5698.24 18029.7,5662.8 C 18029.7,5626.92 17989.7,5580.8 17989.7,5580.8 C 17989.7,5580.8 18309.7,5662.8 18309.7,5662.8 C 18309.7,5662.8 18309.7,5662.8 18309.7,5662.8 " />
<path stroke="#0000ff" stroke-width="1" fill="none" transform="matrix(0.05 0 0 0.05 -23 -36)" d="M 18309.7,5662.8 C 18309.7,5662.8 17989.7,5743.8 17989.7,5743.8 C 17989.7,5743.8 18029.7,5698.24 18029.7,5662.8 C 18029.7,5626.92 17989.7,5580.8 17989.7,5580.8 C 17989.7,5580.8 18309.7,5662.8 18309.7,5662.8 C 18309.7,5662.8 18309.7,5662.8 18309.7,5662.8 " />
<text x="0" y="0" stroke="none" fill="#000000" transform="matrix(0.05 0 0 0.05 799.822 238.56)" font-style="normal" font-weight="normal" font-size="280px" font-family="Chalkboard" >
conc. </text>
<text x="0" y="0" stroke="none" fill="#000000" transform="matrix(0.05 0 0 0.05 835.603 238.56)" font-style="normal" font-weight="normal" font-size="280px" font-family="Chalkboard" >
H</text>
<text x="0" y="0" stroke="none" fill="#000000" transform="matrix(0.05 0 0 0.05 844.313 242.52)" font-style="normal" font-weight="normal" font-size="210px" font-family="Chalkboard" >
2</text>
<text x="0" y="0" stroke="none" fill="#000000" transform="matrix(0.05 0 0 0.05 850.288 238.56)" font-style="normal" font-weight="normal" font-size="280px" font-family="Chalkboard" >
SO</text>
<text x="0" y="0" stroke="none" fill="#000000" transform="matrix(0.05 0 0 0.05 868.681 242.52)" font-style="normal" font-weight="normal" font-size="210px" font-family="Chalkboard" >
4</text>
<text x="0" y="0" stroke="none" fill="#0000ff" transform="matrix(0.05 0 0 0.05 888.101 198.924)" font-style="normal" font-weight="normal" font-size="280px" font-family="Chalkboard" >
Cl</text>
<text x="0" y="0" stroke="none" fill="#0000ff" transform="matrix(0.05 0 0 0.05 1023.29 242.911)" font-style="normal" font-weight="normal" font-size="280px" font-family="Chalkboard" >
OH</text>
<text x="0" y="0" stroke="none" fill="#0000ff" transform="matrix(0.05 0 0 0.05 1042.17 246.872)" font-style="normal" font-weight="normal" font-size="210px" font-family="Chalkboard" >
2</text>
<text x="0" y="0" stroke="none" fill="#0000ff" transform="matrix(0.05 0 0 0.05 1023.27 302.889)" font-style="normal" font-weight="normal" font-size="280px" font-family="Chalkboard" >
Cl</text>
<text x="0" y="0" stroke="none" fill="#0000ff" transform="matrix(0.05 0 0 0.05 965.073 302.889)" font-style="normal" font-weight="normal" font-size="280px" font-family="Chalkboard" >
Cl</text>
<text x="0" y="0" stroke="none" fill="#0000ff" transform="matrix(0.05 0 0 0.05 997.277 317.88)" font-style="normal" font-weight="normal" font-size="280px" font-family="Chalkboard" >
Cl</text>
<path stroke="none" fill="#0000ff" transform="matrix(0.05 0 0 0.05 -23 -36)" d="M 20472.2,5790.46 L 20487.7,5781.49 L 20503.2,5790.47 L 20503.2,6372.49 L 20487.7,6381.33 L 20472.2,6372.45 L 20472.2,5790.46 Z " />
<path stroke="none" fill="#0000ff" transform="matrix(0.05 0 0 0.05 -23 -36)" d="M 19983.3,5472.72 L 19967.8,5481.7 L 19952.3,5472.72 L 19952.3,4910.86 L 19984.4,4892.36 L 19983.3,5472.72 Z " />
<path stroke="none" fill="#0000ff" transform="matrix(0.05 0 0 0.05 -23 -36)" d="M 19952.3,5472.72 L 19967.8,5481.7 L 19967.8,5499.62 L 19448.4,5800.37 L 19447.8,5763.71 L 19952.3,5472.72 Z " />
<path stroke="none" fill="#0000ff" transform="matrix(0.05 0 0 0.05 -23 -36)" d="M 19869.8,5415.85 L 19885.8,5443.57 L 19454.6,5692.33 L 19438.6,5664.61 L 19869.8,5415.85 Z " />
<path stroke="none" fill="#0000ff" transform="matrix(0.05 0 0 0.05 -23 -36)" d="M 19447.8,5763.71 L 19448.4,5800.37 L 18911.7,5511.56 L 18943.7,5492.42 L 19447.8,5763.71 Z " />
<path stroke="none" fill="#0000ff" transform="matrix(0.05 0 0 0.05 -23 -36)" d="M 18943.7,5492.42 L 18911.7,5511.56 L 18912.6,4910.56 L 18928.2,4901.88 L 18943.7,4910.85 L 18943.7,5492.42 Z " />
<path stroke="none" fill="#0000ff" transform="matrix(0.05 0 0 0.05 -23 -36)" d="M 19034.2,5447.92 L 19002.2,5447.92 L 19002.2,4953.85 L 19034.2,4953.85 L 19034.2,5447.92 Z " />
<path stroke="none" fill="#0000ff" transform="matrix(0.05 0 0 0.05 -23 -36)" d="M 18943.7,4910.85 L 18928.2,4901.88 L 18928.2,4883.93 L 19448.1,4582.9 L 19448.1,4619.88 L 18943.7,4910.85 Z " />
<path stroke="none" fill="#0000ff" transform="matrix(0.05 0 0 0.05 -23 -36)" d="M 19984.4,4892.36 L 19952.3,4910.86 L 19448.1,4619.88 L 19448.1,4582.9 L 19984.4,4892.36 Z " />
<path stroke="none" fill="#0000ff" transform="matrix(0.05 0 0 0.05 -23 -36)" d="M 19885.8,4940 L 19869.8,4967.72 L 19440.1,4719.73 L 19456.1,4692.02 L 19885.8,4940 Z " />
<path stroke="none" fill="#0000ff" transform="matrix(0.05 0 0 0.05 -23 -36)" d="M 20488,5763.71 L 20487.7,5781.49 L 20472.2,5790.46 L 19967.8,5499.62 L 19967.8,5481.7 L 19983.3,5472.72 L 20488,5763.71 Z " />
<path stroke="none" fill="#0000ff" transform="matrix(0.05 0 0 0.05 -23 -36)" d="M 18928.2,4883.93 L 18928.2,4901.88 L 18912.6,4910.56 L 18488.7,4656.81 L 18505.2,4629.37 L 18928.2,4883.93 Z " />
<path stroke="none" fill="#0000ff" transform="matrix(0.05 0 0 0.05 -23 -36)" d="M 20503.2,5790.47 L 20487.7,5781.49 L 20488,5763.71 L 20897.3,5535.71 L 20912.8,5563.68 L 20503.2,5790.47 Z " />
<path stroke="none" fill="#0000ff" transform="matrix(0.05 0 0 0.05 -23 -36)" d="M 20502,6406.19 L 20487.7,6381.33 L 20503.2,6372.49 L 20924,6614.59 L 20908,6642.31 L 20502,6406.19 Z " />
<path stroke="none" fill="#0000ff" transform="matrix(0.05 0 0 0.05 -23 -36)" d="M 20472.2,6372.45 L 20487.7,6381.33 L 20473.4,6406.28 L 20044,6655.76 L 20028,6628.04 L 20472.2,6372.45 Z " />
<path stroke="none" fill="#0000ff" transform="matrix(0.05 0 0 0.05 -23 -36)" d="M 20473.4,6406.28 L 20487.7,6381.33 L 20502,6406.19 L 20503.7,6844.31 L 20471.7,6844.31 L 20473.4,6406.28 Z " />
<path stroke="#0000ff" stroke-width="26" fill="none" transform="matrix(0.05 0 0 0.05 -23 -36)" d="M 20909.5,5222.68 A 105.8,105.8 0 1 0 21121.1,5222.68A 105.8,105.8 0 1 0 20909.5,5222.68Z " />
<path stroke="none" fill="#0000ff" transform="matrix(0.05 0 0 0.05 -23 -36)" d="M 20953,5210.02 L 21078.3,5210.02 L 21078.3,5236.02 L 20953,5236.02 Z " />
<path stroke="none" fill="#0000ff" transform="matrix(0.05 0 0 0.05 -23 -36)" d="M 21028.6,5160.35 L 21028.6,5285.68 L 21002.6,5285.68 L 21002.6,5160.35 Z " />
<path stroke="none" fill="#0000ff" transform="matrix(0.05 0 0 0.05 -23 -36)" d="M 19392,9347.76 L 19392,7190.04 L 19424,7190.04 L 19424,9347.76 Z " />
<path stroke="none" fill="#0000ff" transform="matrix(0.05 0 0 0.05 -23 -36)" d="M 19408,9626.76 C 19408,9626.76 19326,9306.76 19326,9306.76 C 19326,9306.76 19372.1,9346.76 19408,9346.76 C 19443.4,9346.76 19489,9306.76 19489,9306.76 C 19489,9306.76 19408,9626.76 19408,9626.76 C 19408,9626.76 19408,9626.76 19408,9626.76 " />
<path stroke="#0000ff" stroke-width="1" fill="none" transform="matrix(0.05 0 0 0.05 -23 -36)" d="M 19408,9626.76 C 19408,9626.76 19326,9306.76 19326,9306.76 C 19326,9306.76 19372.1,9346.76 19408,9346.76 C 19443.4,9346.76 19489,9306.76 19489,9306.76 C 19489,9306.76 19408,9626.76 19408,9626.76 C 19408,9626.76 19408,9626.76 19408,9626.76 " />
<path stroke="none" fill="#0000ff" transform="matrix(0.05 0 0 0.05 -23 -36)" d="M 19575.4,8356.27 L 19607.4,8374.76 L 19607.4,8956.84 L 19575.4,8975.33 L 19575.4,8356.27 Z " />
<path stroke="none" fill="#0000ff" transform="matrix(0.05 0 0 0.05 -23 -36)" d="M 19665.9,8417.76 L 19697.9,8417.76 L 19697.9,8913.84 L 19665.9,8913.84 L 19665.9,8417.76 Z " />
<path stroke="none" fill="#0000ff" transform="matrix(0.05 0 0 0.05 -23 -36)" d="M 19575.4,8975.33 L 19607.4,8956.84 L 20111.5,9247.88 L 20111.5,9284.86 L 19575.4,8975.33 Z " />
<path stroke="none" fill="#0000ff" transform="matrix(0.05 0 0 0.05 -23 -36)" d="M 20111.5,9284.86 L 20111.5,9247.88 L 20615.6,8956.84 L 20647.6,8975.33 L 20111.5,9284.86 Z " />
<path stroke="none" fill="#0000ff" transform="matrix(0.05 0 0 0.05 -23 -36)" d="M 20119.5,9175.73 L 20103.5,9148.02 L 20533.1,8899.98 L 20549.1,8927.69 L 20119.5,9175.73 Z " />
<path stroke="none" fill="#0000ff" transform="matrix(0.05 0 0 0.05 -23 -36)" d="M 20647.6,8975.33 L 20615.6,8956.84 L 20615.6,8374.76 L 20647.6,8356.27 L 20647.6,8975.33 Z " />
<path stroke="none" fill="#0000ff" transform="matrix(0.05 0 0 0.05 -23 -36)" d="M 20647.6,8356.27 L 20615.6,8374.76 L 20111.5,8083.72 L 20111.5,8065.8 L 20126.9,8056.73 L 20647.6,8356.27 Z " />
<path stroke="none" fill="#0000ff" transform="matrix(0.05 0 0 0.05 -23 -36)" d="M 20549.1,8403.9 L 20533.1,8431.62 L 20103.5,8183.58 L 20119.5,8155.87 L 20549.1,8403.9 Z " />
<path stroke="none" fill="#0000ff" transform="matrix(0.05 0 0 0.05 -23 -36)" d="M 20096.2,8056.73 L 20111.5,8065.8 L 20111.5,8083.72 L 19607.4,8374.76 L 19575.4,8356.27 L 20096.2,8056.73 Z " />
<text x="0" y="0" stroke="none" fill="#0000ff" transform="matrix(0.05 0 0 0.05 978.469 342.117)" font-style="normal" font-weight="normal" font-size="280px" font-family="Chalkboard" >
Cl</text>
<path stroke="none" fill="#0000ff" transform="matrix(0.05 0 0 0.05 -23 -36)" d="M 20126.9,8056.73 L 20111.5,8065.8 L 20096.2,8056.73 L 20095.5,7610.03 L 20127.5,7610.03 L 20126.9,8056.73 Z " />
<path stroke="#0000ff" stroke-width="32" fill="none" transform="matrix(0.05 0 0 0.05 -23 -36)" d="M 20300.3,8305.44 C 20196.1,8404.89 20192.2,8570.19 20291.7,8674.38 C 20332.8,8717.41 20388.9,8745.69 20447.9,8753.11 " />
<path stroke="none" fill="#0000ff" transform="matrix(0.05 0 0 0.05 -23 -36)" d="M 20660.6,8682.96 C 20660.6,8682.96 20438.6,8824.91 20438.6,8824.91 C 20438.6,8824.91 20457.1,8780.14 20447.9,8753.11 C 20438.7,8726.08 20396.5,8701.35 20396.5,8701.35 C 20396.5,8701.35 20660.6,8682.96 20660.6,8682.96 C 20660.6,8682.96 20660.6,8682.96 20660.6,8682.96 " />
<path stroke="#0000ff" stroke-width="1" fill="none" transform="matrix(0.05 0 0 0.05 -23 -36)" d="M 20660.6,8682.96 C 20660.6,8682.96 20438.6,8824.91 20438.6,8824.91 C 20438.6,8824.91 20457.1,8780.14 20447.9,8753.11 C 20438.7,8726.08 20396.5,8701.35 20396.5,8701.35 C 20396.5,8701.35 20660.6,8682.96 20660.6,8682.96 C 20660.6,8682.96 20660.6,8682.96 20660.6,8682.96 " />
<path stroke="none" fill="#0000ff" transform="matrix(0.05 0 0 0.05 -23 -36)" d="M 20339.4,7516.61 A 23.3334,23.3334 0 1 0 20386.1,7516.61A 23.3334,23.3334 0 1 0 20339.4,7516.61Z " />
<path stroke="none" fill="#0000ff" transform="matrix(0.05 0 0 0.05 -23 -36)" d="M 20338.6,7411.61 A 23.3334,23.3334 0 1 0 20385.3,7411.61A 23.3334,23.3334 0 1 0 20338.6,7411.61Z " />
<path stroke="#0000ff" stroke-width="32" fill="none" transform="matrix(0.05 0 0 0.05 -23 -36)" d="M 20366,7887.58 C 20490.6,7841.82 20554.5,7703.58 20508.8,7579.03 C 20491.9,7533.07 20460.6,7492.56 20420.4,7464.6 " />
<path stroke="none" fill="#0000ff" transform="matrix(0.05 0 0 0.05 -23 -36)" d="M 20145.8,7859.28 C 20145.8,7859.28 20406.6,7827.71 20406.6,7827.71 C 20406.6,7827.71 20370,7859.87 20366,7887.58 C 20362.1,7915.29 20388.4,7955.54 20388.4,7955.54 C 20388.4,7955.54 20145.8,7859.28 20145.8,7859.28 C 20145.8,7859.28 20145.8,7859.28 20145.8,7859.28 " />
<path stroke="#0000ff" stroke-width="1" fill="none" transform="matrix(0.05 0 0 0.05 -23 -36)" d="M 20145.8,7859.28 C 20145.8,7859.28 20406.6,7827.71 20406.6,7827.71 C 20406.6,7827.71 20370,7859.87 20366,7887.58 C 20362.1,7915.29 20388.4,7955.54 20388.4,7955.54 C 20388.4,7955.54 20145.8,7859.28 20145.8,7859.28 C 20145.8,7859.28 20145.8,7859.28 20145.8,7859.28 " />
<path stroke="#0000ff" stroke-width="32" fill="none" transform="matrix(0.05 0 0 0.05 -23 -36)" d="M 20266,9111.96 C 21198.4,8984.53 21851.8,8124.24 21724.4,7191.81 C 21650.4,6650.38 21300.7,6156.22 20814.7,5906.35 " />
<path stroke="none" fill="#0000ff" transform="matrix(0.05 0 0 0.05 -23 -36)" d="M 20609.2,5817.24 C 20609.2,5817.24 20870.5,5859.37 20870.5,5859.37 C 20870.5,5859.37 20826.2,5880.23 20814.7,5906.35 C 20803.1,5932.48 20817.6,5978.8 20817.6,5978.8 C 20817.6,5978.8 20609.2,5817.24 20609.2,5817.24 C 20609.2,5817.24 20609.2,5817.24 20609.2,5817.24 " />
<path stroke="#0000ff" stroke-width="1" fill="none" transform="matrix(0.05 0 0 0.05 -23 -36)" d="M 20609.2,5817.24 C 20609.2,5817.24 20870.5,5859.37 20870.5,5859.37 C 20870.5,5859.37 20826.2,5880.23 20814.7,5906.35 C 20803.1,5932.48 20817.6,5978.8 20817.6,5978.8 C 20817.6,5978.8 20609.2,5817.24 20609.2,5817.24 C 20609.2,5817.24 20609.2,5817.24 20609.2,5817.24 " />
<path stroke="#0000ff" stroke-width="32" fill="none" transform="matrix(0.05 0 0 0.05 -23 -36)" d="M 20726.2,5313.4 C 20618.6,5338.75 20551.9,5446.68 20577.2,5554.29 C 20585.2,5588.33 20602.4,5620.17 20626.3,5645.64 " />
<path stroke="none" fill="#0000ff" transform="matrix(0.05 0 0 0.05 -23 -36)" d="M 20918,5371.08 C 20918,5371.08 20681.4,5360.95 20681.4,5360.95 C 20681.4,5360.95 20719.4,5335.22 20726.2,5313.4 C 20733.1,5291.57 20716.3,5249.36 20716.3,5249.36 C 20716.3,5249.36 20918,5371.08 20918,5371.08 C 20918,5371.08 20918,5371.08 20918,5371.08 " />
<path stroke="#0000ff" stroke-width="1" fill="none" transform="matrix(0.05 0 0 0.05 -23 -36)" d="M 20918,5371.08 C 20918,5371.08 20681.4,5360.95 20681.4,5360.95 C 20681.4,5360.95 20719.4,5335.22 20726.2,5313.4 C 20733.1,5291.57 20716.3,5249.36 20716.3,5249.36 C 20716.3,5249.36 20918,5371.08 20918,5371.08 C 20918,5371.08 20918,5371.08 20918,5371.08 " />
<text x="0" y="0" stroke="none" fill="#0000ff" transform="matrix(0.05 0 0 0.05 829.757 464.904)" font-style="normal" font-weight="normal" font-size="280px" font-family="Chalkboard" >
Cl</text>
<text x="0" y="0" stroke="none" fill="#0000ff" transform="matrix(0.05 0 0 0.05 1042.89 462.905)" font-style="normal" font-weight="normal" font-size="280px" font-family="Chalkboard" >
Cl</text>
<text x="0" y="0" stroke="none" fill="#0000ff" transform="matrix(0.05 0 0 0.05 964.923 568.869)" font-style="normal" font-weight="normal" font-size="280px" font-family="Chalkboard" >
Cl</text>
<text x="0" y="0" stroke="none" fill="#0000ff" transform="matrix(0.05 0 0 0.05 906.729 568.869)" font-style="normal" font-weight="normal" font-size="280px" font-family="Chalkboard" >
Cl</text>
<text x="0" y="0" stroke="none" fill="#0000ff" transform="matrix(0.05 0 0 0.05 938.933 583.86)" font-style="normal" font-weight="normal" font-size="280px" font-family="Chalkboard" >
Cl</text>
<path stroke="none" fill="#0000ff" transform="matrix(0.05 0 0 0.05 -23 -36)" d="M 19305.3,11110.1 L 19320.8,11101.1 L 19336.3,11110.2 L 19336.3,11692.1 L 19320.8,11700.9 L 19305.3,11692.1 L 19305.3,11110.1 Z " />
<path stroke="none" fill="#0000ff" transform="matrix(0.05 0 0 0.05 -23 -36)" d="M 18816.5,10792.3 L 18801,10801.3 L 18785.4,10792.3 L 18785.4,10230.5 L 18817.5,10212 L 18816.5,10792.3 Z " />
<path stroke="none" fill="#0000ff" transform="matrix(0.05 0 0 0.05 -23 -36)" d="M 18785.4,10792.3 L 18801,10801.3 L 18801,10819.2 L 18281.5,11120 L 18280.9,11083.3 L 18785.4,10792.3 Z " />
<path stroke="none" fill="#0000ff" transform="matrix(0.05 0 0 0.05 -23 -36)" d="M 18703,10735.5 L 18718.9,10763.2 L 18287.7,11011.9 L 18271.7,10984.2 L 18703,10735.5 Z " />
<path stroke="none" fill="#0000ff" transform="matrix(0.05 0 0 0.05 -23 -36)" d="M 18280.9,11083.3 L 18281.5,11120 L 17744.8,10831.2 L 17776.8,10812 L 18280.9,11083.3 Z " />
<path stroke="none" fill="#0000ff" transform="matrix(0.05 0 0 0.05 -23 -36)" d="M 17776.8,10812 L 17744.8,10831.2 L 17745.8,10230.2 L 17761.3,10221.5 L 17776.8,10230.4 L 17776.8,10812 Z " />
<path stroke="none" fill="#0000ff" transform="matrix(0.05 0 0 0.05 -23 -36)" d="M 17867.3,10767.5 L 17835.3,10767.5 L 17835.3,10273.4 L 17867.3,10273.4 L 17867.3,10767.5 Z " />
<path stroke="none" fill="#0000ff" transform="matrix(0.05 0 0 0.05 -23 -36)" d="M 17776.8,10230.4 L 17761.3,10221.5 L 17761.4,10203.5 L 18281.2,9902.5 L 18281.2,9939.48 L 17776.8,10230.4 Z " />
<path stroke="none" fill="#0000ff" transform="matrix(0.05 0 0 0.05 -23 -36)" d="M 18817.5,10212 L 18785.4,10230.5 L 18281.2,9939.48 L 18281.2,9902.5 L 18817.5,10212 Z " />
<path stroke="none" fill="#0000ff" transform="matrix(0.05 0 0 0.05 -23 -36)" d="M 18718.9,10259.6 L 18702.9,10287.3 L 18273.2,10039.3 L 18289.2,10011.6 L 18718.9,10259.6 Z " />
<path stroke="none" fill="#0000ff" transform="matrix(0.05 0 0 0.05 -23 -36)" d="M 19320.9,11083.2 L 19320.8,11101.1 L 19305.3,11110.1 L 18801,10819.2 L 18801,10801.3 L 18816.5,10792.3 L 19320.9,11083.2 Z " />
<path stroke="none" fill="#0000ff" transform="matrix(0.05 0 0 0.05 -23 -36)" d="M 17761.4,10203.5 L 17761.3,10221.5 L 17745.8,10230.2 L 17321.8,9976.41 L 17338.3,9948.97 L 17761.4,10203.5 Z " />
<path stroke="none" fill="#0000ff" transform="matrix(0.05 0 0 0.05 -23 -36)" d="M 19860.5,10819.2 L 19860.6,10801.3 L 19876.1,10792.3 L 20380.3,11083.2 L 20380.3,11120.1 L 19860.5,10819.2 Z " />
<path stroke="none" fill="#0000ff" transform="matrix(0.05 0 0 0.05 -23 -36)" d="M 19942.6,10763.2 L 19958.6,10735.5 L 20388.3,10983.3 L 20372.3,11011.1 L 19942.6,10763.2 Z " />
<path stroke="none" fill="#0000ff" transform="matrix(0.05 0 0 0.05 -23 -36)" d="M 19876.1,10792.3 L 19860.6,10801.3 L 19845.1,10792.2 L 19844.1,10191.9 L 19876.1,10210.4 L 19876.1,10792.3 Z " />
<path stroke="none" fill="#0000ff" transform="matrix(0.05 0 0 0.05 -23 -36)" d="M 19876.1,10210.4 L 19844.1,10191.9 L 20380.3,9882.49 L 20380.3,9919.47 L 19876.1,10210.4 Z " />
<path stroke="none" fill="#0000ff" transform="matrix(0.05 0 0 0.05 -23 -36)" d="M 19958.6,10267.3 L 19942.6,10239.5 L 20372.3,9991.6 L 20388.3,10019.3 L 19958.6,10267.3 Z " />
<path stroke="none" fill="#0000ff" transform="matrix(0.05 0 0 0.05 -23 -36)" d="M 20380.3,9919.47 L 20380.3,9882.49 L 20899.9,10183.4 L 20900.1,10201.4 L 20884.6,10210.4 L 20380.3,9919.47 Z " />
<path stroke="none" fill="#0000ff" transform="matrix(0.05 0 0 0.05 -23 -36)" d="M 20884.6,10210.4 L 20900.1,10201.4 L 20915.7,10209.8 L 20916.6,10810.8 L 20884.6,10792.3 L 20884.6,10210.4 Z " />
<path stroke="none" fill="#0000ff" transform="matrix(0.05 0 0 0.05 -23 -36)" d="M 20794.1,10253.4 L 20826.1,10253.4 L 20826.1,10749.3 L 20794.1,10749.3 L 20794.1,10253.4 Z " />
<path stroke="none" fill="#0000ff" transform="matrix(0.05 0 0 0.05 -23 -36)" d="M 20380.3,11120.1 L 20380.3,11083.2 L 20884.6,10792.3 L 20916.6,10810.8 L 20380.3,11120.1 Z " />
<path stroke="none" fill="#0000ff" transform="matrix(0.05 0 0 0.05 -23 -36)" d="M 19336.3,11110.2 L 19320.8,11101.1 L 19320.9,11083.2 L 19845.1,10792.2 L 19860.6,10801.3 L 19860.5,10819.2 L 19336.3,11110.2 Z " />
<path stroke="none" fill="#0000ff" transform="matrix(0.05 0 0 0.05 -23 -36)" d="M 20915.7,10209.8 L 20900.1,10201.4 L 20899.9,10183.4 L 21286.2,9935.42 L 21303.4,9962.38 L 20915.7,10209.8 Z " />
<path stroke="none" fill="#0000ff" transform="matrix(0.05 0 0 0.05 -23 -36)" d="M 19335.1,11725.8 L 19320.8,11700.9 L 19336.3,11692.1 L 19757.1,11934.2 L 19741.1,11961.9 L 19335.1,11725.8 Z " />
<path stroke="none" fill="#0000ff" transform="matrix(0.05 0 0 0.05 -23 -36)" d="M 19305.3,11692.1 L 19320.8,11700.9 L 19306.5,11725.9 L 18877.2,11975.4 L 18861.2,11947.6 L 19305.3,11692.1 Z " />
<path stroke="none" fill="#0000ff" transform="matrix(0.05 0 0 0.05 -23 -36)" d="M 19306.5,11725.9 L 19320.8,11700.9 L 19335.1,11725.8 L 19336.8,12163.9 L 19304.8,12163.9 L 19306.5,11725.9 Z " />
<text x="0" y="0" stroke="none" fill="#0000ff" transform="matrix(0.05 0 0 0.05 1004.19 563.563)" font-style="normal" font-weight="normal" font-size="280px" font-family="Chalkboard" >
(DDT)</text>
<text x="0" y="0" stroke="none" fill="#0000ff" transform="matrix(0.05 0 0 0.05 561.298 270.306)" font-style="normal" font-weight="normal" font-size="280px" font-family="Chalkboard" >
EAS</text>
<text x="0" y="0" stroke="none" fill="#0000ff" transform="matrix(0.05 0 0 0.05 911.362 391.284)" font-style="normal" font-weight="normal" font-size="280px" font-family="Chalkboard" >
EAS</text>
<text x="0" y="0" stroke="none" fill="#0000ff" transform="matrix(0.05 0 0 0.05 6.172 169.92)" font-style="normal" font-weight="normal" font-size="280px" font-family="Chalkboard" >
Mechanism</text>
<path stroke="#0000ff" stroke-width="20" fill="none" transform="matrix(0.05 0 0 0.05 6.172 169.92)" d="M 0,40 L 1369.06,40 " />
<text x="0" y="0" stroke="none" fill="#0000ff" transform="matrix(0.05 0 0 0.05 74.625 169.92)" font-style="normal" font-weight="normal" font-size="280px" font-family="Chalkboard" >
:</text>
</svg>
