<?xml version="1.0" standalone="no" ?>
<!DOCTYPE svg PUBLIC "-//W3C//DTD SVG 1.1//EN" "http://www.w3.org/Graphics/SVG/1.1/DTD/svg11.dtd">
<svg width="288px" height="139px" viewBox="0 0 288 139" style="background-color: #ffffff00" xmlns="http://www.w3.org/2000/svg" xmlns:xlink="http://www.w3.org/1999/xlink" version="1.1" >
<path stroke="none" fill="#0000ff" transform="matrix(0.05 0 0 0.05 -51 -217)" d="M 1069.36,5691.34 L 1101.39,5709.83 L 1101.39,6291.91 L 1069.36,6310.4 L 1069.36,5691.34 Z " />
<path stroke="none" fill="#0000ff" transform="matrix(0.05 0 0 0.05 -51 -217)" d="M 1159.87,5752.83 L 1191.87,5752.83 L 1191.87,6248.91 L 1159.87,6248.91 L 1159.87,5752.83 Z " />
<path stroke="none" fill="#0000ff" transform="matrix(0.05 0 0 0.05 -51 -217)" d="M 1069.36,6310.4 L 1101.39,6291.91 L 1605.47,6582.95 L 1605.47,6619.94 L 1069.36,6310.4 Z " />
<path stroke="none" fill="#0000ff" transform="matrix(0.05 0 0 0.05 -51 -217)" d="M 1605.47,6619.94 L 1605.47,6582.95 L 2109.55,6291.91 L 2141.58,6310.4 L 1605.47,6619.94 Z " />
<path stroke="none" fill="#0000ff" transform="matrix(0.05 0 0 0.05 -51 -217)" d="M 1613.47,6510.81 L 1597.47,6483.1 L 2027.07,6235.06 L 2043.07,6262.77 L 1613.47,6510.81 Z " />
<path stroke="none" fill="#0000ff" transform="matrix(0.05 0 0 0.05 -51 -217)" d="M 2141.58,6310.4 L 2109.55,6291.91 L 2109.55,5709.83 L 2141.58,5691.34 L 2141.58,6310.4 Z " />
<path stroke="none" fill="#0000ff" transform="matrix(0.05 0 0 0.05 -51 -217)" d="M 2141.58,5691.34 L 2109.55,5709.83 L 1605.47,5418.8 L 1605.47,5400.87 L 1620.82,5391.8 L 2141.58,5691.34 Z " />
<path stroke="none" fill="#0000ff" transform="matrix(0.05 0 0 0.05 -51 -217)" d="M 2043.07,5738.98 L 2027.07,5766.69 L 1597.47,5518.65 L 1613.47,5490.94 L 2043.07,5738.98 Z " />
<path stroke="none" fill="#0000ff" transform="matrix(0.05 0 0 0.05 -51 -217)" d="M 1590.13,5391.8 L 1605.47,5400.87 L 1605.47,5418.8 L 1101.39,5709.83 L 1069.36,5691.34 L 1590.13,5391.8 Z " />
<text x="0" y="0" stroke="none" fill="#0000ff" transform="matrix(0.05 0 0 0.05 24.1918 27.8702)" font-style="normal" font-weight="normal" font-size="280px" font-family="Chalkboard" >
OH/NH</text>
<text x="0" y="0" stroke="none" fill="#0000ff" transform="matrix(0.05 0 0 0.05 68.0791 31.8303)" font-style="normal" font-weight="normal" font-size="210px" font-family="Chalkboard" >
2</text>
<path stroke="none" fill="#0000ff" transform="matrix(0.05 0 0 0.05 -51 -217)" d="M 1620.82,5391.8 L 1605.47,5400.87 L 1590.13,5391.8 L 1589.47,4957.35 L 1621.47,4957.35 L 1620.82,5391.8 Z " />
<path stroke="none" fill="#0000ff" transform="matrix(0.05 0 0 0.05 -51 -217)" d="M 4192.27,5803.67 L 2841.07,5803.67 L 2841.07,5771.67 L 4192.27,5771.67 Z " />
<path stroke="none" fill="#0000ff" transform="matrix(0.05 0 0 0.05 -51 -217)" d="M 4471.27,5787.67 C 4471.27,5787.67 4151.27,5868.67 4151.27,5868.67 C 4151.27,5868.67 4191.27,5823.11 4191.27,5787.67 C 4191.27,5751.8 4151.27,5705.67 4151.27,5705.67 C 4151.27,5705.67 4471.27,5787.67 4471.27,5787.67 C 4471.27,5787.67 4471.27,5787.67 4471.27,5787.67 " />
<path stroke="#0000ff" stroke-width="1" fill="none" transform="matrix(0.05 0 0 0.05 -51 -217)" d="M 4471.27,5787.67 C 4471.27,5787.67 4151.27,5868.67 4151.27,5868.67 C 4151.27,5868.67 4191.27,5823.11 4191.27,5787.67 C 4191.27,5751.8 4151.27,5705.67 4151.27,5705.67 C 4151.27,5705.67 4471.27,5787.67 4471.27,5787.67 C 4471.27,5787.67 4471.27,5787.67 4471.27,5787.67 " />
<text x="0" y="0" stroke="none" fill="#0000ff" transform="matrix(0.05 0 0 0.05 113.106 63.1502)" font-style="normal" font-weight="normal" font-size="280px" font-family="Chalkboard" >
AlCl</text>
<text x="0" y="0" stroke="none" fill="#0000ff" transform="matrix(0.05 0 0 0.05 138.786 67.1103)" font-style="normal" font-weight="normal" font-size="210px" font-family="Chalkboard" >
3</text>
<path stroke="none" fill="#0000ff" transform="matrix(0.05 0 0 0.05 -51 -217)" d="M 5101.96,5674.34 L 5133.99,5692.83 L 5133.99,6274.91 L 5101.96,6293.4 L 5101.96,5674.34 Z " />
<path stroke="none" fill="#0000ff" transform="matrix(0.05 0 0 0.05 -51 -217)" d="M 5192.47,5735.83 L 5224.47,5735.83 L 5224.47,6231.91 L 5192.47,6231.91 L 5192.47,5735.83 Z " />
<path stroke="none" fill="#0000ff" transform="matrix(0.05 0 0 0.05 -51 -217)" d="M 5101.96,6293.4 L 5133.99,6274.91 L 5638.07,6565.95 L 5638.07,6602.94 L 5101.96,6293.4 Z " />
<path stroke="none" fill="#0000ff" transform="matrix(0.05 0 0 0.05 -51 -217)" d="M 5638.07,6602.94 L 5638.07,6565.95 L 6142.15,6274.91 L 6174.18,6293.4 L 5638.07,6602.94 Z " />
<path stroke="none" fill="#0000ff" transform="matrix(0.05 0 0 0.05 -51 -217)" d="M 5646.07,6493.81 L 5630.07,6466.1 L 6059.67,6218.06 L 6075.67,6245.77 L 5646.07,6493.81 Z " />
<path stroke="none" fill="#0000ff" transform="matrix(0.05 0 0 0.05 -51 -217)" d="M 6174.18,6293.4 L 6142.15,6274.91 L 6142.15,5692.83 L 6174.18,5674.34 L 6174.18,6293.4 Z " />
<path stroke="none" fill="#0000ff" transform="matrix(0.05 0 0 0.05 -51 -217)" d="M 6174.18,5674.34 L 6142.15,5692.83 L 5638.07,5401.8 L 5638.07,5383.87 L 5653.42,5374.8 L 6174.18,5674.34 Z " />
<path stroke="none" fill="#0000ff" transform="matrix(0.05 0 0 0.05 -51 -217)" d="M 6075.67,5721.98 L 6059.67,5749.69 L 5630.07,5501.65 L 5646.07,5473.94 L 6075.67,5721.98 Z " />
<path stroke="none" fill="#0000ff" transform="matrix(0.05 0 0 0.05 -51 -217)" d="M 5622.73,5374.8 L 5638.07,5383.87 L 5638.07,5401.8 L 5133.99,5692.83 L 5101.96,5674.34 L 5622.73,5374.8 Z " />
<text x="0" y="0" stroke="none" fill="#0000ff" transform="matrix(0.05 0 0 0.05 225.822 27.0202)" font-style="normal" font-weight="normal" font-size="280px" font-family="Chalkboard" >
OH/NH</text>
<text x="0" y="0" stroke="none" fill="#0000ff" transform="matrix(0.05 0 0 0.05 269.709 30.9803)" font-style="normal" font-weight="normal" font-size="210px" font-family="Chalkboard" >
2</text>
<path stroke="none" fill="#0000ff" transform="matrix(0.05 0 0 0.05 -51 -217)" d="M 5653.42,5374.8 L 5638.07,5383.87 L 5622.73,5374.8 L 5622.07,4940.35 L 5654.07,4940.35 L 5653.42,5374.8 Z " />
<text x="0" y="0" stroke="none" fill="#0000ff" transform="matrix(0.05 0 0 0.05 174.543 13.5602)" font-style="normal" font-weight="normal" font-size="280px" font-family="Chalkboard" >
Cl</text>
<text x="0" y="0" stroke="none" fill="#0000ff" transform="matrix(0.05 0 0 0.05 186.965 17.5203)" font-style="normal" font-weight="normal" font-size="210px" font-family="Chalkboard" >
3</text>
<text x="0" y="0" stroke="none" fill="#0000ff" transform="matrix(0.05 0 0 0.05 192.94 13.5602)" font-style="normal" font-weight="normal" font-size="280px" font-family="Chalkboard" >
Al</text>
<path stroke="none" fill="#0000ff" transform="matrix(0.05 0 0 0.05 -51 -217)" d="M 5168.55,4548.15 L 5441.07,4607.95 L 5379.63,4654.12 L 5378.51,4730.57 L 5168.55,4548.15 L 5168.55,4548.15 Z " />
<path stroke="none" fill="#0000ff" transform="matrix(0.05 0 0 0.05 -51 -217)" d="M 5537.58,4715.52 L 5523.23,4744.12 L 5372.45,4668.42 L 5386.81,4639.82 L 5537.58,4715.52 Z " />
<path stroke="#0000ff" stroke-width="26" fill="none" transform="matrix(0.05 0 0 0.05 -51 -217)" d="M 5530.74,4511.14 A 105.8,105.8 0 1 0 5742.34,4511.14A 105.8,105.8 0 1 0 5530.74,4511.14Z " />
<path stroke="none" fill="#0000ff" transform="matrix(0.05 0 0 0.05 -51 -217)" d="M 5574.21,4498.47 L 5699.54,4498.47 L 5699.54,4524.47 L 5574.21,4524.47 Z " />
<path stroke="none" fill="#0000ff" transform="matrix(0.05 0 0 0.05 -51 -217)" d="M 5649.87,4448.81 L 5649.87,4574.14 L 5623.87,4574.14 L 5623.87,4448.81 Z " />
<text x="0" y="0" stroke="none" fill="#0000ff" transform="matrix(0.05 0 0 0.05 182.854 132.814)" font-style="normal" font-weight="normal" font-size="280px" font-family="Chalkboard" >
Deactivated </text>
<text x="0" y="0" stroke="none" fill="#0000ff" transform="matrix(0.05 0 0 0.05 261.037 132.814)" font-style="normal" font-weight="normal" font-size="280px" font-family="Chalkboard" >
ring</text>
</svg>
