<?xml version="1.0" standalone="no" ?>
<!DOCTYPE svg PUBLIC "-//W3C//DTD SVG 1.1//EN" "http://www.w3.org/Graphics/SVG/1.1/DTD/svg11.dtd">
<svg width="1059px" height="904px" viewBox="0 0 1059 904" style="background-color: #ffffff00" xmlns="http://www.w3.org/2000/svg" xmlns:xlink="http://www.w3.org/1999/xlink" version="1.1" >
<path stroke="none" fill="#0000ff" transform="matrix(0.05 0 0 0.05 -48 -135)" d="M 1059.89,3756.07 L 1091.92,3774.56 L 1091.92,4356.64 L 1059.89,4375.13 L 1059.89,3756.07 Z " />
<path stroke="none" fill="#0000ff" transform="matrix(0.05 0 0 0.05 -48 -135)" d="M 1150.4,3817.57 L 1182.4,3817.57 L 1182.4,4313.63 L 1150.4,4313.63 L 1150.4,3817.57 Z " />
<path stroke="none" fill="#0000ff" transform="matrix(0.05 0 0 0.05 -48 -135)" d="M 1059.89,4375.13 L 1091.92,4356.64 L 1596.2,4647.68 L 1596.2,4684.66 L 1059.89,4375.13 Z " />
<path stroke="none" fill="#0000ff" transform="matrix(0.05 0 0 0.05 -48 -135)" d="M 1596.2,4684.66 L 1596.2,4647.68 L 2100.28,4356.64 L 2132.31,4375.13 L 1596.2,4684.66 Z " />
<path stroke="none" fill="#0000ff" transform="matrix(0.05 0 0 0.05 -48 -135)" d="M 1604.19,4575.54 L 1588.19,4547.83 L 2017.8,4299.78 L 2033.8,4327.5 L 1604.19,4575.54 Z " />
<path stroke="none" fill="#0000ff" transform="matrix(0.05 0 0 0.05 -48 -135)" d="M 2132.31,4375.13 L 2100.28,4356.64 L 2100.28,3774.56 L 2132.31,3756.07 L 2132.31,4375.13 Z " />
<path stroke="none" fill="#0000ff" transform="matrix(0.05 0 0 0.05 -48 -135)" d="M 2132.31,3756.07 L 2100.28,3774.56 L 1596.2,3483.52 L 1596.2,3465.6 L 1611.55,3456.52 L 2132.31,3756.07 Z " />
<path stroke="none" fill="#0000ff" transform="matrix(0.05 0 0 0.05 -48 -135)" d="M 2033.8,3803.7 L 2017.8,3831.42 L 1588.19,3583.37 L 1604.19,3555.66 L 2033.8,3803.7 Z " />
<path stroke="none" fill="#0000ff" transform="matrix(0.05 0 0 0.05 -48 -135)" d="M 1580.85,3456.52 L 1596.2,3465.6 L 1596.2,3483.52 L 1091.92,3774.56 L 1059.89,3756.07 L 1580.85,3456.52 Z " />
<text x="0" y="0" stroke="none" fill="#0000ff" transform="matrix(0.05 0 0 0.05 27.7028 13.1065)" font-style="normal" font-weight="normal" font-size="280px" font-family="Chalkboard" >
Cl/Me/OMe</text>
<path stroke="none" fill="#0000ff" transform="matrix(0.05 0 0 0.05 -48 -135)" d="M 1611.55,3456.52 L 1596.2,3465.6 L 1580.85,3456.52 L 1580.2,3021.08 L 1612.2,3021.08 L 1611.55,3456.52 Z " />
<path stroke="none" fill="#0000ff" transform="matrix(0.05 0 0 0.05 -48 -135)" d="M 6207.8,3978.6 L 2934.6,3978.6 L 2934.6,3946.6 L 6207.8,3946.6 Z " />
<path stroke="none" fill="#0000ff" transform="matrix(0.05 0 0 0.05 -48 -135)" d="M 6486.8,3962.6 C 6486.8,3962.6 6166.8,4043.6 6166.8,4043.6 C 6166.8,4043.6 6206.8,3998.04 6206.8,3962.6 C 6206.8,3926.72 6166.8,3880.6 6166.8,3880.6 C 6166.8,3880.6 6486.8,3962.6 6486.8,3962.6 C 6486.8,3962.6 6486.8,3962.6 6486.8,3962.6 " />
<path stroke="#0000ff" stroke-width="1" fill="none" transform="matrix(0.05 0 0 0.05 -48 -135)" d="M 6486.8,3962.6 C 6486.8,3962.6 6166.8,4043.6 6166.8,4043.6 C 6166.8,4043.6 6206.8,3998.04 6206.8,3962.6 C 6206.8,3926.72 6166.8,3880.6 6166.8,3880.6 C 6166.8,3880.6 6486.8,3962.6 6486.8,3962.6 C 6486.8,3962.6 6486.8,3962.6 6486.8,3962.6 " />
<text x="0" y="0" stroke="none" fill="#0000ff" transform="matrix(0.05 0 0 0.05 121.04 30.52)" font-style="normal" font-weight="normal" font-size="280px" font-family="Chalkboard" >
Halogenation,</text>
<text x="0" y="0" stroke="none" fill="#0000ff" transform="matrix(0.05 0 0 0.05 100.45 52.83)" font-style="normal" font-weight="normal" font-size="280px" font-family="Chalkboard" >
FC </text>
<text x="0" y="0" stroke="none" fill="#0000ff" transform="matrix(0.05 0 0 0.05 121.025 52.83)" font-style="normal" font-weight="normal" font-size="280px" font-family="Chalkboard" >
alkylation </text>
<text x="0" y="0" stroke="none" fill="#0000ff" transform="matrix(0.05 0 0 0.05 187.018 52.83)" font-style="normal" font-weight="normal" font-size="280px" font-family="Chalkboard" >
&amp; </text>
<text x="0" y="0" stroke="none" fill="#0000ff" transform="matrix(0.05 0 0 0.05 202.286 52.83)" font-style="normal" font-weight="normal" font-size="280px" font-family="Chalkboard" >
acylation,</text>
<path stroke="none" fill="#0000ff" transform="matrix(0.05 0 0 0.05 -48 -135)" d="M 7014.49,3773.07 L 7046.52,3791.56 L 7046.52,4373.64 L 7014.49,4392.13 L 7014.49,3773.07 Z " />
<path stroke="none" fill="#0000ff" transform="matrix(0.05 0 0 0.05 -48 -135)" d="M 7105,3834.56 L 7137,3834.56 L 7137,4330.64 L 7105,4330.64 L 7105,3834.56 Z " />
<path stroke="none" fill="#0000ff" transform="matrix(0.05 0 0 0.05 -48 -135)" d="M 7014.49,4392.13 L 7046.52,4373.64 L 7550.6,4664.68 L 7550.6,4682.6 L 7535.22,4691.65 L 7014.49,4392.13 Z " />
<path stroke="none" fill="#0000ff" transform="matrix(0.05 0 0 0.05 -48 -135)" d="M 7565.98,4691.65 L 7550.6,4682.6 L 7550.6,4664.68 L 8054.68,4373.64 L 8086.71,4392.13 L 7565.98,4691.65 Z " />
<path stroke="none" fill="#0000ff" transform="matrix(0.05 0 0 0.05 -48 -135)" d="M 7558.6,4592.53 L 7542.6,4564.82 L 7972.2,4316.78 L 7988.2,4344.5 L 7558.6,4592.53 Z " />
<path stroke="none" fill="#0000ff" transform="matrix(0.05 0 0 0.05 -48 -135)" d="M 8086.71,4392.13 L 8054.68,4373.64 L 8054.68,3791.56 L 8086.71,3773.07 L 8086.71,4392.13 Z " />
<path stroke="none" fill="#0000ff" transform="matrix(0.05 0 0 0.05 -48 -135)" d="M 8086.71,3773.07 L 8054.68,3791.56 L 7550.6,3500.52 L 7550.6,3482.6 L 7565.95,3473.52 L 8086.71,3773.07 Z " />
<path stroke="none" fill="#0000ff" transform="matrix(0.05 0 0 0.05 -48 -135)" d="M 7988.2,3820.7 L 7972.2,3848.42 L 7542.6,3600.38 L 7558.6,3572.67 L 7988.2,3820.7 Z " />
<path stroke="none" fill="#0000ff" transform="matrix(0.05 0 0 0.05 -48 -135)" d="M 7535.25,3473.52 L 7550.6,3482.6 L 7550.6,3500.52 L 7046.52,3791.56 L 7014.49,3773.07 L 7535.25,3473.52 Z " />
<text x="0" y="0" stroke="none" fill="#0000ff" transform="matrix(0.05 0 0 0.05 325.423 13.9565)" font-style="normal" font-weight="normal" font-size="280px" font-family="Chalkboard" >
Cl/Me/OMe</text>
<path stroke="none" fill="#0000ff" transform="matrix(0.05 0 0 0.05 -48 -135)" d="M 7565.95,3473.52 L 7550.6,3482.6 L 7535.25,3473.52 L 7534.6,3038.07 L 7566.6,3038.07 L 7565.95,3473.52 Z " />
<path stroke="none" fill="#0000ff" transform="matrix(0.05 0 0 0.05 -48 -135)" d="M 9708.69,3790.27 L 9740.72,3808.76 L 9740.72,4390.84 L 9708.69,4409.33 L 9708.69,3790.27 Z " />
<path stroke="none" fill="#0000ff" transform="matrix(0.05 0 0 0.05 -48 -135)" d="M 9799.2,3851.76 L 9831.2,3851.76 L 9831.2,4347.84 L 9799.2,4347.84 L 9799.2,3851.76 Z " />
<path stroke="none" fill="#0000ff" transform="matrix(0.05 0 0 0.05 -48 -135)" d="M 9708.69,4409.33 L 9740.72,4390.84 L 10244.8,4681.88 L 10244.8,4718.86 L 9708.69,4409.33 Z " />
<path stroke="none" fill="#0000ff" transform="matrix(0.05 0 0 0.05 -48 -135)" d="M 10244.8,4718.86 L 10244.8,4681.88 L 10748.9,4390.84 L 10780.9,4409.33 L 10244.8,4718.86 Z " />
<path stroke="none" fill="#0000ff" transform="matrix(0.05 0 0 0.05 -48 -135)" d="M 10252.8,4609.73 L 10236.8,4582.02 L 10666.4,4333.98 L 10682.4,4361.7 L 10252.8,4609.73 Z " />
<path stroke="none" fill="#0000ff" transform="matrix(0.05 0 0 0.05 -48 -135)" d="M 10780.9,4409.33 L 10748.9,4390.84 L 10748.9,3808.76 L 10764.4,3799.8 L 10779.9,3808.6 L 10780.9,4409.33 Z " />
<path stroke="none" fill="#0000ff" transform="matrix(0.05 0 0 0.05 -48 -135)" d="M 10764.5,3781.95 L 10764.4,3799.8 L 10748.9,3808.76 L 10244.8,3517.72 L 10244.8,3499.8 L 10260.1,3490.72 L 10764.5,3781.95 Z " />
<path stroke="none" fill="#0000ff" transform="matrix(0.05 0 0 0.05 -48 -135)" d="M 10682.4,3837.9 L 10666.4,3865.62 L 10236.8,3617.58 L 10252.8,3589.87 L 10682.4,3837.9 Z " />
<path stroke="none" fill="#0000ff" transform="matrix(0.05 0 0 0.05 -48 -135)" d="M 10229.5,3490.72 L 10244.8,3499.8 L 10244.8,3517.72 L 9740.72,3808.76 L 9708.69,3790.27 L 10229.5,3490.72 Z " />
<text x="0" y="0" stroke="none" fill="#0000ff" transform="matrix(0.05 0 0 0.05 460.133 14.8165)" font-style="normal" font-weight="normal" font-size="280px" font-family="Chalkboard" >
Cl/Me/OMe</text>
<path stroke="none" fill="#0000ff" transform="matrix(0.05 0 0 0.05 -48 -135)" d="M 10260.1,3490.72 L 10244.8,3499.8 L 10229.5,3490.72 L 10228.8,3055.27 L 10260.8,3055.27 L 10260.1,3490.72 Z " />
<text x="0" y="0" stroke="none" fill="#0000ff" transform="matrix(0.05 0 0 0.05 405.04 65.7)" font-style="normal" font-weight="normal" font-size="280px" font-family="Chalkboard" >
+</text>
<text x="0" y="0" stroke="none" fill="#0000ff" transform="matrix(0.05 0 0 0.05 325.701 133.957)" font-style="normal" font-weight="normal" font-size="280px" font-family="Chalkboard" >
E</text>
<path stroke="none" fill="#0000ff" transform="matrix(0.05 0 0 0.05 -48 -135)" d="M 7535.22,4691.65 L 7550.6,4682.6 L 7565.98,4691.65 L 7566.6,5149.47 L 7534.6,5149.47 L 7535.22,4691.65 Z " />
<text x="0" y="0" stroke="none" fill="#0000ff" transform="matrix(0.05 0 0 0.05 512.371 44.8165)" font-style="normal" font-weight="normal" font-size="280px" font-family="Chalkboard" >
E</text>
<path stroke="none" fill="#0000ff" transform="matrix(0.05 0 0 0.05 -48 -135)" d="M 10779.9,3808.6 L 10764.4,3799.8 L 10764.5,3781.95 L 11165,3550.03 L 11181,3577.74 L 10779.9,3808.6 Z " />
<text x="0" y="0" stroke="none" fill="#0000ff" transform="matrix(0.05 0 0 0.05 139.91 78.57)" font-style="normal" font-weight="normal" font-size="280px" font-family="Chalkboard" >
Sulphonation,</text>
<text x="0" y="0" stroke="none" fill="#0000ff" transform="matrix(0.05 0 0 0.05 140.77 95.73)" font-style="normal" font-weight="normal" font-size="280px" font-family="Chalkboard" >
Nitration</text>
<text x="0" y="0" stroke="none" fill="#0000ff" transform="matrix(0.05 0 0 0.05 8.64 356.58)" font-style="normal" font-weight="normal" font-size="280px" font-family="Chalkboard" >
Exception:</text>
<text x="0" y="0" stroke="none" fill="#0000ff" transform="matrix(0.05 0 0 0.05 352.7 118.04)" font-style="normal" font-weight="normal" font-size="280px" font-family="Chalkboard" >
(major)</text>
<path stroke="none" fill="#0000ff" transform="matrix(0.05 0 0 0.05 -48 -135)" d="M 1729.29,11083.7 L 1761.32,11102.2 L 1761.32,11684.2 L 1729.29,11702.7 L 1729.29,11083.7 Z " />
<path stroke="none" fill="#0000ff" transform="matrix(0.05 0 0 0.05 -48 -135)" d="M 1819.8,11145.2 L 1851.8,11145.2 L 1851.8,11641.2 L 1819.8,11641.2 L 1819.8,11145.2 Z " />
<path stroke="none" fill="#0000ff" transform="matrix(0.05 0 0 0.05 -48 -135)" d="M 1729.29,11702.7 L 1761.32,11684.2 L 2265.4,11975.3 L 2265.4,12012.3 L 1729.29,11702.7 Z " />
<path stroke="none" fill="#0000ff" transform="matrix(0.05 0 0 0.05 -48 -135)" d="M 2265.4,12012.3 L 2265.4,11975.3 L 2769.48,11684.2 L 2801.51,11702.7 L 2265.4,12012.3 Z " />
<path stroke="none" fill="#0000ff" transform="matrix(0.05 0 0 0.05 -48 -135)" d="M 2273.4,11903.1 L 2257.4,11875.4 L 2687,11627.4 L 2703,11655.1 L 2273.4,11903.1 Z " />
<path stroke="none" fill="#0000ff" transform="matrix(0.05 0 0 0.05 -48 -135)" d="M 2801.51,11702.7 L 2769.48,11684.2 L 2769.48,11102.2 L 2801.51,11083.7 L 2801.51,11702.7 Z " />
<path stroke="none" fill="#0000ff" transform="matrix(0.05 0 0 0.05 -48 -135)" d="M 2801.51,11083.7 L 2769.48,11102.2 L 2265.4,10811.1 L 2265.4,10793.2 L 2280.77,10784.1 L 2801.51,11083.7 Z " />
<path stroke="none" fill="#0000ff" transform="matrix(0.05 0 0 0.05 -48 -135)" d="M 2703,11131.3 L 2687,11159 L 2257.4,10911 L 2273.4,10883.3 L 2703,11131.3 Z " />
<path stroke="none" fill="#0000ff" transform="matrix(0.05 0 0 0.05 -48 -135)" d="M 2250.03,10784.1 L 2265.4,10793.2 L 2265.4,10811.1 L 1761.32,11102.2 L 1729.29,11083.7 L 2250.03,10784.1 Z " />
<text x="0" y="0" stroke="none" fill="#0000ff" transform="matrix(0.05 0 0 0.05 61.1628 379.487)" font-style="normal" font-weight="normal" font-size="280px" font-family="Chalkboard" >
CH</text>
<text x="0" y="0" stroke="none" fill="#0000ff" transform="matrix(0.05 0 0 0.05 78.0866 383.447)" font-style="normal" font-weight="normal" font-size="210px" font-family="Chalkboard" >
3</text>
<path stroke="none" fill="#0000ff" transform="matrix(0.05 0 0 0.05 -48 -135)" d="M 2280.77,10784.1 L 2265.4,10793.2 L 2250.03,10784.1 L 2249.4,10334.4 L 2281.4,10334.4 L 2280.77,10784.1 Z " />
<path stroke="none" fill="#0000ff" transform="matrix(0.05 0 0 0.05 -48 -135)" d="M 4766.2,11306.2 L 3432.2,11306.2 L 3432.2,11274.2 L 4766.2,11274.2 Z " />
<path stroke="none" fill="#0000ff" transform="matrix(0.05 0 0 0.05 -48 -135)" d="M 5045.2,11290.2 C 5045.2,11290.2 4725.2,11371.2 4725.2,11371.2 C 4725.2,11371.2 4765.2,11325.6 4765.2,11290.2 C 4765.2,11254.3 4725.2,11208.2 4725.2,11208.2 C 4725.2,11208.2 5045.2,11290.2 5045.2,11290.2 C 5045.2,11290.2 5045.2,11290.2 5045.2,11290.2 " />
<path stroke="#0000ff" stroke-width="1" fill="none" transform="matrix(0.05 0 0 0.05 -48 -135)" d="M 5045.2,11290.2 C 5045.2,11290.2 4725.2,11371.2 4725.2,11371.2 C 4725.2,11371.2 4765.2,11325.6 4765.2,11290.2 C 4765.2,11254.3 4725.2,11208.2 4725.2,11208.2 C 4725.2,11208.2 5045.2,11290.2 5045.2,11290.2 C 5045.2,11290.2 5045.2,11290.2 5045.2,11290.2 " />
<path stroke="none" fill="#0000ff" transform="matrix(0.05 0 0 0.05 -48 -135)" d="M 5658.89,11066.5 L 5690.92,11085 L 5690.92,11667 L 5658.89,11685.5 L 5658.89,11066.5 Z " />
<path stroke="none" fill="#0000ff" transform="matrix(0.05 0 0 0.05 -48 -135)" d="M 5749.4,11128 L 5781.4,11128 L 5781.4,11624 L 5749.4,11624 L 5749.4,11128 Z " />
<path stroke="none" fill="#0000ff" transform="matrix(0.05 0 0 0.05 -48 -135)" d="M 5658.89,11685.5 L 5690.92,11667 L 6195,11958.1 L 6195,11976 L 6179.63,11985.1 L 5658.89,11685.5 Z " />
<path stroke="none" fill="#0000ff" transform="matrix(0.05 0 0 0.05 -48 -135)" d="M 6210.37,11985.1 L 6195,11976 L 6195,11958.1 L 6699.08,11667 L 6731.11,11685.5 L 6210.37,11985.1 Z " />
<path stroke="none" fill="#0000ff" transform="matrix(0.05 0 0 0.05 -48 -135)" d="M 6203,11885.9 L 6187,11858.2 L 6616.6,11610.2 L 6632.6,11637.9 L 6203,11885.9 Z " />
<path stroke="none" fill="#0000ff" transform="matrix(0.05 0 0 0.05 -48 -135)" d="M 6731.11,11685.5 L 6699.08,11667 L 6699.08,11085 L 6731.11,11066.5 L 6731.11,11685.5 Z " />
<path stroke="none" fill="#0000ff" transform="matrix(0.05 0 0 0.05 -48 -135)" d="M 6731.11,11066.5 L 6699.08,11085 L 6195,10793.9 L 6195,10776 L 6210.37,10766.9 L 6731.11,11066.5 Z " />
<path stroke="none" fill="#0000ff" transform="matrix(0.05 0 0 0.05 -48 -135)" d="M 6632.6,11114.1 L 6616.6,11141.8 L 6187,10893.8 L 6203,10866.1 L 6632.6,11114.1 Z " />
<path stroke="none" fill="#0000ff" transform="matrix(0.05 0 0 0.05 -48 -135)" d="M 6179.63,10766.9 L 6195,10776 L 6195,10793.9 L 5690.92,11085 L 5658.89,11066.5 L 6179.63,10766.9 Z " />
<text x="0" y="0" stroke="none" fill="#0000ff" transform="matrix(0.05 0 0 0.05 257.643 378.627)" font-style="normal" font-weight="normal" font-size="280px" font-family="Chalkboard" >
CH</text>
<text x="0" y="0" stroke="none" fill="#0000ff" transform="matrix(0.05 0 0 0.05 274.567 382.587)" font-style="normal" font-weight="normal" font-size="210px" font-family="Chalkboard" >
3</text>
<path stroke="none" fill="#0000ff" transform="matrix(0.05 0 0 0.05 -48 -135)" d="M 6210.37,10766.9 L 6195,10776 L 6179.63,10766.9 L 6179,10317.2 L 6211,10317.2 L 6210.37,10766.9 Z " />
<path stroke="none" fill="#0000ff" transform="matrix(0.05 0 0 0.05 -48 -135)" d="M 7941.09,11066.5 L 7973.12,11085 L 7973.12,11667 L 7941.09,11685.5 L 7941.09,11066.5 Z " />
<path stroke="none" fill="#0000ff" transform="matrix(0.05 0 0 0.05 -48 -135)" d="M 8031.6,11128 L 8063.6,11128 L 8063.6,11624 L 8031.6,11624 L 8031.6,11128 Z " />
<path stroke="none" fill="#0000ff" transform="matrix(0.05 0 0 0.05 -48 -135)" d="M 7941.09,11685.5 L 7973.12,11667 L 8477.2,11958.1 L 8477.2,11995.1 L 7941.09,11685.5 Z " />
<path stroke="none" fill="#0000ff" transform="matrix(0.05 0 0 0.05 -48 -135)" d="M 8477.2,11995.1 L 8477.2,11958.1 L 8981.28,11667 L 9013.31,11685.5 L 8477.2,11995.1 Z " />
<path stroke="none" fill="#0000ff" transform="matrix(0.05 0 0 0.05 -48 -135)" d="M 8485.2,11885.9 L 8469.2,11858.2 L 8898.8,11610.2 L 8914.8,11637.9 L 8485.2,11885.9 Z " />
<path stroke="none" fill="#0000ff" transform="matrix(0.05 0 0 0.05 -48 -135)" d="M 9013.31,11685.5 L 8981.28,11667 L 8981.28,11085 L 8996.8,11076 L 9012.33,11084.8 L 9013.31,11685.5 Z " />
<path stroke="none" fill="#0000ff" transform="matrix(0.05 0 0 0.05 -48 -135)" d="M 8996.98,11058.2 L 8996.8,11076 L 8981.28,11085 L 8477.2,10793.9 L 8477.2,10776 L 8492.57,10766.9 L 8996.98,11058.2 Z " />
<path stroke="none" fill="#0000ff" transform="matrix(0.05 0 0 0.05 -48 -135)" d="M 8914.8,11114.1 L 8898.8,11141.8 L 8469.2,10893.8 L 8485.2,10866.1 L 8914.8,11114.1 Z " />
<path stroke="none" fill="#0000ff" transform="matrix(0.05 0 0 0.05 -48 -135)" d="M 8461.83,10766.9 L 8477.2,10776 L 8477.2,10793.9 L 7973.12,11085 L 7941.09,11066.5 L 8461.83,10766.9 Z " />
<text x="0" y="0" stroke="none" fill="#0000ff" transform="matrix(0.05 0 0 0.05 371.753 378.627)" font-style="normal" font-weight="normal" font-size="280px" font-family="Chalkboard" >
CH</text>
<text x="0" y="0" stroke="none" fill="#0000ff" transform="matrix(0.05 0 0 0.05 388.677 382.587)" font-style="normal" font-weight="normal" font-size="210px" font-family="Chalkboard" >
3</text>
<path stroke="none" fill="#0000ff" transform="matrix(0.05 0 0 0.05 -48 -135)" d="M 8492.57,10766.9 L 8477.2,10776 L 8461.83,10766.9 L 8461.2,10317.2 L 8493.2,10317.2 L 8492.57,10766.9 Z " />
<text x="0" y="0" stroke="none" fill="#0000ff" transform="matrix(0.05 0 0 0.05 316.66 429.51)" font-style="normal" font-weight="normal" font-size="280px" font-family="Chalkboard" >
+</text>
<text x="0" y="0" stroke="none" fill="#0000ff" transform="matrix(0.05 0 0 0.05 257.156 498.627)" font-style="normal" font-weight="normal" font-size="280px" font-family="Chalkboard" >
NO</text>
<text x="0" y="0" stroke="none" fill="#0000ff" transform="matrix(0.05 0 0 0.05 276.508 502.587)" font-style="normal" font-weight="normal" font-size="210px" font-family="Chalkboard" >
2</text>
<path stroke="none" fill="#0000ff" transform="matrix(0.05 0 0 0.05 -48 -135)" d="M 6179.63,11985.1 L 6195,11976 L 6210.37,11985.1 L 6211,12438.2 L 6179,12438.2 L 6179.63,11985.1 Z " />
<text x="0" y="0" stroke="none" fill="#0000ff" transform="matrix(0.05 0 0 0.05 423.226 408.627)" font-style="normal" font-weight="normal" font-size="280px" font-family="Chalkboard" >
NO</text>
<text x="0" y="0" stroke="none" fill="#0000ff" transform="matrix(0.05 0 0 0.05 442.578 412.587)" font-style="normal" font-weight="normal" font-size="210px" font-family="Chalkboard" >
2</text>
<path stroke="none" fill="#0000ff" transform="matrix(0.05 0 0 0.05 -48 -135)" d="M 9012.33,11084.8 L 8996.8,11076 L 8996.98,11058.2 L 9374.71,10839.3 L 9390.71,10867 L 9012.33,11084.8 Z " />
<text x="0" y="0" stroke="none" fill="#0000ff" transform="matrix(0.05 0 0 0.05 129.62 420.93)" font-style="normal" font-weight="normal" font-size="280px" font-family="Chalkboard" >
Nitration</text>
<text x="0" y="0" stroke="none" fill="#0000ff" transform="matrix(0.05 0 0 0.05 360.96 489.7)" font-style="normal" font-weight="normal" font-size="280px" font-family="Chalkboard" >
(61%)</text>
<text x="0" y="0" stroke="none" fill="#0000ff" transform="matrix(0.05 0 0 0.05 42.37 518.79)" font-style="normal" font-weight="normal" font-size="280px" font-family="Chalkboard" >
This </text>
<text x="0" y="0" stroke="none" fill="#0000ff" transform="matrix(0.05 0 0 0.05 73.0772 518.79)" font-style="normal" font-weight="normal" font-size="280px" font-family="Chalkboard" >
is </text>
<text x="0" y="0" stroke="none" fill="#0000ff" transform="matrix(0.05 0 0 0.05 87.9589 518.79)" font-style="normal" font-weight="normal" font-size="280px" font-family="Chalkboard" >
one </text>
<text x="0" y="0" stroke="none" fill="#0000ff" transform="matrix(0.05 0 0 0.05 115.216 518.79)" font-style="normal" font-weight="normal" font-size="280px" font-family="Chalkboard" >
of </text>
<text x="0" y="0" stroke="none" fill="#0000ff" transform="matrix(0.05 0 0 0.05 133.44 518.79)" font-style="normal" font-weight="normal" font-size="280px" font-family="Chalkboard" >
the </text>
<text x="0" y="0" stroke="none" fill="#0000ff" transform="matrix(0.05 0 0 0.05 160.171 518.79)" font-style="normal" font-weight="normal" font-size="280px" font-family="Chalkboard" >
few </text>
<text x="0" y="0" stroke="none" fill="#0000ff" transform="matrix(0.05 0 0 0.05 188.697 518.79)" font-style="normal" font-weight="normal" font-size="280px" font-family="Chalkboard" >
cases </text>
<text x="0" y="0" stroke="none" fill="#0000ff" transform="matrix(0.05 0 0 0.05 227.851 518.79)" font-style="normal" font-weight="normal" font-size="280px" font-family="Chalkboard" >
where </text>
<text x="0" y="0" stroke="none" fill="#0000ff" transform="matrix(0.05 0 0 0.05 272.078 518.79)" font-style="normal" font-weight="normal" font-size="280px" font-family="Chalkboard" >
the </text>
<text x="0" y="0" stroke="none" fill="#0000ff" transform="matrix(0.05 0 0 0.05 298.81 518.79)" font-style="normal" font-weight="normal" font-size="280px" font-family="Chalkboard" >
statistical </text>
<text x="0" y="0" stroke="none" fill="#0000ff" transform="matrix(0.05 0 0 0.05 364.339 518.79)" font-style="normal" font-weight="normal" font-size="280px" font-family="Chalkboard" >
factor </text>
<text x="0" y="0" stroke="none" fill="#0000ff" transform="matrix(0.05 0 0 0.05 407.731 518.79)" font-style="normal" font-weight="normal" font-size="280px" font-family="Chalkboard" >
wins </text>
<text x="0" y="0" stroke="none" fill="#0000ff" transform="matrix(0.05 0 0 0.05 440.388 518.79)" font-style="normal" font-weight="normal" font-size="280px" font-family="Chalkboard" >
over </text>
<text x="0" y="0" stroke="none" fill="#0000ff" transform="matrix(0.05 0 0 0.05 473.199 518.79)" font-style="normal" font-weight="normal" font-size="280px" font-family="Chalkboard" >
the </text>
<text x="0" y="0" stroke="none" fill="#0000ff" transform="matrix(0.05 0 0 0.05 499.93 518.79)" font-style="normal" font-weight="normal" font-size="280px" font-family="Chalkboard" >
steric </text>
<text x="0" y="0" stroke="none" fill="#0000ff" transform="matrix(0.05 0 0 0.05 540.6 518.79)" font-style="normal" font-weight="normal" font-size="280px" font-family="Chalkboard" >
factor, </text>
<text x="0" y="0" stroke="none" fill="#0000ff" transform="matrix(0.05 0 0 0.05 585.926 518.79)" font-style="normal" font-weight="normal" font-size="280px" font-family="Chalkboard" >
and </text>
<text x="0" y="0" stroke="none" fill="#0000ff" transform="matrix(0.05 0 0 0.05 613.756 518.79)" font-style="normal" font-weight="normal" font-size="280px" font-family="Chalkboard" >
the </text>
<text x="0" y="0" stroke="none" fill="#0000ff" transform="matrix(0.05 0 0 0.05 640.487 518.79)" font-style="normal" font-weight="normal" font-size="280px" font-family="Chalkboard" >
o-product </text>
<text x="0" y="0" stroke="none" fill="#0000ff" transform="matrix(0.05 0 0 0.05 707.703 518.79)" font-style="normal" font-weight="normal" font-size="280px" font-family="Chalkboard" >
becomes </text>
<text x="0" y="0" stroke="none" fill="#0000ff" transform="matrix(0.05 0 0 0.05 766.58 518.79)" font-style="normal" font-weight="normal" font-size="280px" font-family="Chalkboard" >
the </text>
<text x="0" y="0" stroke="none" fill="#0000ff" transform="matrix(0.05 0 0 0.05 793.311 518.79)" font-style="normal" font-weight="normal" font-size="280px" font-family="Chalkboard" >
major </text>
<text x="0" y="0" stroke="none" fill="#0000ff" transform="matrix(0.05 0 0 0.05 834.414 518.79)" font-style="normal" font-weight="normal" font-size="280px" font-family="Chalkboard" >
product.</text>
<text x="0" y="0" stroke="none" fill="#0000ff" transform="matrix(0.05 0 0 0.05 42.37 536.657)" font-style="normal" font-weight="normal" font-size="280px" font-family="Chalkboard" >
However, </text>
<text x="0" y="0" stroke="none" fill="#0000ff" transform="matrix(0.05 0 0 0.05 103.104 536.657)" font-style="normal" font-weight="normal" font-size="280px" font-family="Chalkboard" >
if </text>
<text x="0" y="0" stroke="none" fill="#0000ff" transform="matrix(0.05 0 0 0.05 117.336 536.657)" font-style="normal" font-weight="normal" font-size="280px" font-family="Chalkboard" >
the </text>
<text x="0" y="0" stroke="none" fill="#0000ff" transform="matrix(0.05 0 0 0.05 144.067 536.657)" font-style="normal" font-weight="normal" font-size="280px" font-family="Chalkboard" >
alkyl </text>
<text x="0" y="0" stroke="none" fill="#0000ff" transform="matrix(0.05 0 0 0.05 180.142 536.657)" font-style="normal" font-weight="normal" font-size="280px" font-family="Chalkboard" >
group </text>
<text x="0" y="0" stroke="none" fill="#0000ff" transform="matrix(0.05 0 0 0.05 221.462 536.657)" font-style="normal" font-weight="normal" font-size="280px" font-family="Chalkboard" >
is </text>
<text x="0" y="0" stroke="none" fill="#0000ff" transform="matrix(0.05 0 0 0.05 236.343 536.657)" font-style="normal" font-weight="normal" font-size="280px" font-family="Chalkboard" >
made </text>
<text x="0" y="0" stroke="none" fill="#0000ff" transform="matrix(0.05 0 0 0.05 274.538 536.657)" font-style="normal" font-weight="normal" font-size="280px" font-family="Chalkboard" >
bulky, </text>
<text x="0" y="0" stroke="none" fill="#0000ff" transform="matrix(0.05 0 0 0.05 316.816 536.657)" font-style="normal" font-weight="normal" font-size="280px" font-family="Chalkboard" >
the </text>
<text x="0" y="0" stroke="none" fill="#0000ff" transform="matrix(0.05 0 0 0.05 343.548 536.657)" font-style="normal" font-weight="normal" font-size="280px" font-family="Chalkboard" >
steric </text>
<text x="0" y="0" stroke="none" fill="#0000ff" transform="matrix(0.05 0 0 0.05 384.218 536.657)" font-style="normal" font-weight="normal" font-size="280px" font-family="Chalkboard" >
factor </text>
<text x="0" y="0" stroke="none" fill="#0000ff" transform="matrix(0.05 0 0 0.05 427.61 536.657)" font-style="normal" font-weight="normal" font-size="280px" font-family="Chalkboard" >
will </text>
<text x="0" y="0" stroke="none" fill="#0000ff" transform="matrix(0.05 0 0 0.05 455.285 536.657)" font-style="normal" font-weight="normal" font-size="280px" font-family="Chalkboard" >
again </text>
<text x="0" y="0" stroke="none" fill="#0000ff" transform="matrix(0.05 0 0 0.05 493.696 536.657)" font-style="normal" font-weight="normal" font-size="280px" font-family="Chalkboard" >
take </text>
<text x="0" y="0" stroke="none" fill="#0000ff" transform="matrix(0.05 0 0 0.05 525.981 536.657)" font-style="normal" font-weight="normal" font-size="280px" font-family="Chalkboard" >
over, </text>
<text x="0" y="0" stroke="none" fill="#0000ff" transform="matrix(0.05 0 0 0.05 560.726 536.657)" font-style="normal" font-weight="normal" font-size="280px" font-family="Chalkboard" >
and </text>
<text x="0" y="0" stroke="none" fill="#0000ff" transform="matrix(0.05 0 0 0.05 588.556 536.657)" font-style="normal" font-weight="normal" font-size="280px" font-family="Chalkboard" >
para </text>
<text x="0" y="0" stroke="none" fill="#0000ff" transform="matrix(0.05 0 0 0.05 621.305 536.657)" font-style="normal" font-weight="normal" font-size="280px" font-family="Chalkboard" >
will </text>
<text x="0" y="0" stroke="none" fill="#0000ff" transform="matrix(0.05 0 0 0.05 648.98 536.657)" font-style="normal" font-weight="normal" font-size="280px" font-family="Chalkboard" >
be </text>
<text x="0" y="0" stroke="none" fill="#0000ff" transform="matrix(0.05 0 0 0.05 669.524 536.657)" font-style="normal" font-weight="normal" font-size="280px" font-family="Chalkboard" >
major.</text>
<path stroke="none" fill="#0000ff" transform="matrix(0.05 0 0 0.05 -48 -135)" d="M 11829.5,15073.7 L 11861.5,15092.2 L 11861.5,15674.2 L 11829.5,15692.7 L 11829.5,15073.7 Z " />
<path stroke="none" fill="#0000ff" transform="matrix(0.05 0 0 0.05 -48 -135)" d="M 11920,15135.2 L 11952,15135.2 L 11952,15631.2 L 11920,15631.2 L 11920,15135.2 Z " />
<path stroke="none" fill="#0000ff" transform="matrix(0.05 0 0 0.05 -48 -135)" d="M 11829.5,15692.7 L 11861.5,15674.2 L 12365.6,15965.3 L 12365.6,16002.3 L 11829.5,15692.7 Z " />
<path stroke="none" fill="#0000ff" transform="matrix(0.05 0 0 0.05 -48 -135)" d="M 12365.6,16002.3 L 12365.6,15965.3 L 12869.7,15674.2 L 12901.7,15692.7 L 12365.6,16002.3 Z " />
<path stroke="none" fill="#0000ff" transform="matrix(0.05 0 0 0.05 -48 -135)" d="M 12373.6,15893.1 L 12357.6,15865.4 L 12787.2,15617.4 L 12803.2,15645.1 L 12373.6,15893.1 Z " />
<path stroke="none" fill="#0000ff" transform="matrix(0.05 0 0 0.05 -48 -135)" d="M 12901.7,15692.7 L 12869.7,15674.2 L 12869.7,15092.2 L 12901.7,15073.7 L 12901.7,15692.7 Z " />
<path stroke="none" fill="#0000ff" transform="matrix(0.05 0 0 0.05 -48 -135)" d="M 12901.7,15073.7 L 12869.7,15092.2 L 12365.6,14801.1 L 12365.6,14783.2 L 12381.1,14774.2 L 12901.7,15073.7 Z " />
<path stroke="none" fill="#0000ff" transform="matrix(0.05 0 0 0.05 -48 -135)" d="M 12803.2,15121.3 L 12787.2,15149 L 12357.6,14901 L 12373.6,14873.3 L 12803.2,15121.3 Z " />
<path stroke="none" fill="#0000ff" transform="matrix(0.05 0 0 0.05 -48 -135)" d="M 12350.1,14774.2 L 12365.6,14783.2 L 12365.6,14801.1 L 11861.5,15092.2 L 11829.5,15073.7 L 12350.1,14774.2 Z " />
<path stroke="none" fill="#0000ff" transform="matrix(0.05 0 0 0.05 -48 -135)" d="M 12381.1,14774.2 L 12365.6,14783.2 L 12350.1,14774.2 L 12350.1,14192.2 L 12365.6,14183.2 L 12381.1,14192.2 L 12381.1,14774.2 Z " />
<path stroke="none" fill="#0000ff" transform="matrix(0.05 0 0 0.05 -48 -135)" d="M 14866.6,15296.4 L 13532.6,15296.4 L 13532.6,15264.4 L 14866.6,15264.4 Z " />
<path stroke="none" fill="#0000ff" transform="matrix(0.05 0 0 0.05 -48 -135)" d="M 15145.6,15280.4 C 15145.6,15280.4 14825.6,15361.4 14825.6,15361.4 C 14825.6,15361.4 14865.6,15315.8 14865.6,15280.4 C 14865.6,15244.5 14825.6,15198.4 14825.6,15198.4 C 14825.6,15198.4 15145.6,15280.4 15145.6,15280.4 C 15145.6,15280.4 15145.6,15280.4 15145.6,15280.4 " />
<path stroke="#0000ff" stroke-width="1" fill="none" transform="matrix(0.05 0 0 0.05 -48 -135)" d="M 15145.6,15280.4 C 15145.6,15280.4 14825.6,15361.4 14825.6,15361.4 C 14825.6,15361.4 14865.6,15315.8 14865.6,15280.4 C 14865.6,15244.5 14825.6,15198.4 14825.6,15198.4 C 14825.6,15198.4 15145.6,15280.4 15145.6,15280.4 C 15145.6,15280.4 15145.6,15280.4 15145.6,15280.4 " />
<path stroke="none" fill="#0000ff" transform="matrix(0.05 0 0 0.05 -48 -135)" d="M 15759.1,15056.7 L 15791.1,15075.2 L 15791.1,15657.2 L 15759.1,15675.7 L 15759.1,15056.7 Z " />
<path stroke="none" fill="#0000ff" transform="matrix(0.05 0 0 0.05 -48 -135)" d="M 15849.6,15118.2 L 15881.6,15118.2 L 15881.6,15614.2 L 15849.6,15614.2 L 15849.6,15118.2 Z " />
<path stroke="none" fill="#0000ff" transform="matrix(0.05 0 0 0.05 -48 -135)" d="M 15759.1,15675.7 L 15791.1,15657.2 L 16295.4,15948.3 L 16295.4,15966.2 L 16280,15975.3 L 15759.1,15675.7 Z " />
<path stroke="none" fill="#0000ff" transform="matrix(0.05 0 0 0.05 -48 -135)" d="M 16310.8,15975.3 L 16295.4,15966.2 L 16295.4,15948.3 L 16799.5,15657.2 L 16831.5,15675.7 L 16310.8,15975.3 Z " />
<path stroke="none" fill="#0000ff" transform="matrix(0.05 0 0 0.05 -48 -135)" d="M 16303.4,15876.1 L 16287.4,15848.4 L 16717,15600.4 L 16733,15628.1 L 16303.4,15876.1 Z " />
<path stroke="none" fill="#0000ff" transform="matrix(0.05 0 0 0.05 -48 -135)" d="M 16831.5,15675.7 L 16799.5,15657.2 L 16799.5,15075.2 L 16831.5,15056.7 L 16831.5,15675.7 Z " />
<path stroke="none" fill="#0000ff" transform="matrix(0.05 0 0 0.05 -48 -135)" d="M 16831.5,15056.7 L 16799.5,15075.2 L 16295.4,14784.1 L 16295.4,14766.2 L 16310.9,14757.2 L 16831.5,15056.7 Z " />
<path stroke="none" fill="#0000ff" transform="matrix(0.05 0 0 0.05 -48 -135)" d="M 16733,15104.3 L 16717,15132 L 16287.4,14884 L 16303.4,14856.3 L 16733,15104.3 Z " />
<path stroke="none" fill="#0000ff" transform="matrix(0.05 0 0 0.05 -48 -135)" d="M 16279.9,14757.2 L 16295.4,14766.2 L 16295.4,14784.1 L 15791.1,15075.2 L 15759.1,15056.7 L 16279.9,14757.2 Z " />
<path stroke="none" fill="#0000ff" transform="matrix(0.05 0 0 0.05 -48 -135)" d="M 16310.9,14757.2 L 16295.4,14766.2 L 16279.9,14757.2 L 16279.9,14175.2 L 16295.4,14166.2 L 16310.9,14175.2 L 16310.9,14757.2 Z " />
<path stroke="none" fill="#0000ff" transform="matrix(0.05 0 0 0.05 -48 -135)" d="M 18401.9,15056.7 L 18433.9,15075.2 L 18433.9,15657.2 L 18401.9,15675.7 L 18401.9,15056.7 Z " />
<path stroke="none" fill="#0000ff" transform="matrix(0.05 0 0 0.05 -48 -135)" d="M 18492.4,15118.2 L 18524.4,15118.2 L 18524.4,15614.2 L 18492.4,15614.2 L 18492.4,15118.2 Z " />
<path stroke="none" fill="#0000ff" transform="matrix(0.05 0 0 0.05 -48 -135)" d="M 18401.9,15675.7 L 18433.9,15657.2 L 18938,15948.3 L 18938,15985.3 L 18401.9,15675.7 Z " />
<path stroke="none" fill="#0000ff" transform="matrix(0.05 0 0 0.05 -48 -135)" d="M 18938,15985.3 L 18938,15948.3 L 19442.1,15657.2 L 19474.1,15675.7 L 18938,15985.3 Z " />
<path stroke="none" fill="#0000ff" transform="matrix(0.05 0 0 0.05 -48 -135)" d="M 18946,15876.1 L 18930,15848.4 L 19359.6,15600.4 L 19375.6,15628.1 L 18946,15876.1 Z " />
<path stroke="none" fill="#0000ff" transform="matrix(0.05 0 0 0.05 -48 -135)" d="M 19474.1,15675.7 L 19442.1,15657.2 L 19442.1,15075.2 L 19457.6,15066.2 L 19473.1,15075 L 19474.1,15675.7 Z " />
<path stroke="none" fill="#0000ff" transform="matrix(0.05 0 0 0.05 -48 -135)" d="M 19457.8,15048.4 L 19457.6,15066.2 L 19442.1,15075.2 L 18938,14784.1 L 18938,14766.2 L 18953.5,14757.2 L 19457.8,15048.4 Z " />
<path stroke="none" fill="#0000ff" transform="matrix(0.05 0 0 0.05 -48 -135)" d="M 19375.6,15104.3 L 19359.6,15132 L 18930,14884 L 18946,14856.3 L 19375.6,15104.3 Z " />
<path stroke="none" fill="#0000ff" transform="matrix(0.05 0 0 0.05 -48 -135)" d="M 18922.5,14757.2 L 18938,14766.2 L 18938,14784.1 L 18433.9,15075.2 L 18401.9,15056.7 L 18922.5,14757.2 Z " />
<path stroke="none" fill="#0000ff" transform="matrix(0.05 0 0 0.05 -48 -135)" d="M 18953.5,14757.2 L 18938,14766.2 L 18922.5,14757.2 L 18922.5,14175.2 L 18938,14166.2 L 18953.5,14175.2 L 18953.5,14757.2 Z " />
<text x="0" y="0" stroke="none" fill="#0000ff" transform="matrix(0.05 0 0 0.05 839.7 629.02)" font-style="normal" font-weight="normal" font-size="280px" font-family="Chalkboard" >
+</text>
<text x="0" y="0" stroke="none" fill="#0000ff" transform="matrix(0.05 0 0 0.05 762.176 698.137)" font-style="normal" font-weight="normal" font-size="280px" font-family="Chalkboard" >
NO</text>
<text x="0" y="0" stroke="none" fill="#0000ff" transform="matrix(0.05 0 0 0.05 781.528 702.097)" font-style="normal" font-weight="normal" font-size="210px" font-family="Chalkboard" >
2</text>
<path stroke="none" fill="#0000ff" transform="matrix(0.05 0 0 0.05 -48 -135)" d="M 16280,15975.3 L 16295.4,15966.2 L 16310.8,15975.3 L 16311.4,16428.4 L 16279.4,16428.4 L 16280,15975.3 Z " />
<text x="0" y="0" stroke="none" fill="#0000ff" transform="matrix(0.05 0 0 0.05 946.266 608.137)" font-style="normal" font-weight="normal" font-size="280px" font-family="Chalkboard" >
NO</text>
<text x="0" y="0" stroke="none" fill="#0000ff" transform="matrix(0.05 0 0 0.05 965.618 612.097)" font-style="normal" font-weight="normal" font-size="210px" font-family="Chalkboard" >
2</text>
<path stroke="none" fill="#0000ff" transform="matrix(0.05 0 0 0.05 -48 -135)" d="M 19473.1,15075 L 19457.6,15066.2 L 19457.8,15048.4 L 19835.5,14829.5 L 19851.5,14857.2 L 19473.1,15075 Z " />
<text x="0" y="0" stroke="none" fill="#0000ff" transform="matrix(0.05 0 0 0.05 634.63 620.44)" font-style="normal" font-weight="normal" font-size="280px" font-family="Chalkboard" >
Nitration</text>
<path stroke="none" fill="#0000ff" transform="matrix(0.05 0 0 0.05 -48 -135)" d="M 12359.2,14162 L 12365.6,14183.2 L 12350.1,14192.2 L 11838,13897.1 L 11854,13869.3 L 12359.2,14162 Z " />
<path stroke="none" fill="#0000ff" transform="matrix(0.05 0 0 0.05 -48 -135)" d="M 12381.1,14192.2 L 12365.6,14183.2 L 12397.9,14148.9 L 12877.2,13869.3 L 12893.2,13897.1 L 12381.1,14192.2 Z " />
<path stroke="none" fill="#0000ff" transform="matrix(0.05 0 0 0.05 -48 -135)" d="M 12397.9,14148.9 L 12365.6,14183.2 L 12359.2,14162 L 12618.9,13639.1 L 12647.5,13653.3 L 12397.9,14148.9 Z " />
<path stroke="none" fill="#0000ff" transform="matrix(0.05 0 0 0.05 -48 -135)" d="M 16310.9,14175.2 L 16295.4,14166.2 L 16330.2,14130.6 L 16807,13852.3 L 16823,13880.1 L 16310.9,14175.2 Z " />
<path stroke="none" fill="#0000ff" transform="matrix(0.05 0 0 0.05 -48 -135)" d="M 16289.5,14145.3 L 16295.4,14166.2 L 16279.9,14175.2 L 15767.6,13880.1 L 15783.6,13852.3 L 16289.5,14145.3 Z " />
<path stroke="none" fill="#0000ff" transform="matrix(0.05 0 0 0.05 -48 -135)" d="M 16330.2,14130.6 L 16295.4,14166.2 L 16289.5,14145.3 L 16569.4,13632.1 L 16597.4,13647.5 L 16330.2,14130.6 Z " />
<path stroke="none" fill="#0000ff" transform="matrix(0.05 0 0 0.05 -48 -135)" d="M 18953.5,14175.2 L 18938,14166.2 L 18970.3,14131.9 L 19449.6,13852.3 L 19465.6,13880.1 L 18953.5,14175.2 Z " />
<path stroke="none" fill="#0000ff" transform="matrix(0.05 0 0 0.05 -48 -135)" d="M 18931.6,14145 L 18938,14166.2 L 18922.5,14175.2 L 18410.4,13880.1 L 18426.4,13852.3 L 18931.6,14145 Z " />
<path stroke="none" fill="#0000ff" transform="matrix(0.05 0 0 0.05 -48 -135)" d="M 18970.3,14131.9 L 18938,14166.2 L 18931.6,14145 L 19191.3,13622.1 L 19219.9,13636.3 L 18970.3,14131.9 Z " />
<clipPath id="1" >
<path clip-rule="evenodd" d="M 0.150009,336.94 L 996.31,336.94 L 996.31,720.66 L 0.150009,720.66 L 0.150009,336.94 M 5.15001,699.66 C 5.15001,699.66 5.15001,351.54 5.15001,351.54 C 5.15001,346.241 9.45107,341.94 14.75,341.94 C 14.75,341.94 975.31,341.94 975.31,341.94 C 980.609,341.94 984.91,346.241 984.91,351.54 C 984.91,351.54 984.91,699.66 984.91,699.66 C 984.91,704.959 980.609,709.26 975.31,709.26 C 975.31,709.26 14.75,709.26 14.75,709.26 C 9.45107,709.26 5.15001,704.959 5.15001,699.66 " />
</clipPath>
<g clip-path="url(#1)" >
<path stroke="none" fill="#0000ff" transform="matrix(0.05 0 0 0.05 -48 -135)" fill-opacity="0.247059" d="M 1191,16821.2 C 1191,16821.2 1191,9858.8 1191,9858.8 C 1191,9752.82 1277.02,9666.8 1383,9666.8 C 1383,9666.8 20594.2,9666.8 20594.2,9666.8 C 20700.2,9666.8 20786.2,9752.82 20786.2,9858.8 C 20786.2,9858.8 20786.2,16821.2 20786.2,16821.2 C 20786.2,16927.2 20700.2,17013.2 20594.2,17013.2 C 20594.2,17013.2 1383,17013.2 1383,17013.2 C 1277.02,17013.2 1191,16927.2 1191,16821.2 " />
</g>
<path stroke="#0000ff" stroke-width="32" fill="none" transform="matrix(0.05 0 0 0.05 -48 -135)" d="M 1063,16693.2 C 1063,16693.2 1063,9730.8 1063,9730.8 C 1063,9624.82 1149.02,9538.8 1255,9538.8 C 1255,9538.8 20466.2,9538.8 20466.2,9538.8 C 20572.2,9538.8 20658.2,9624.82 20658.2,9730.8 C 20658.2,9730.8 20658.2,16693.2 20658.2,16693.2 C 20658.2,16799.2 20572.2,16885.2 20466.2,16885.2 C 20466.2,16885.2 1255,16885.2 1255,16885.2 C 1149.02,16885.2 1063,16799.2 1063,16693.2 " />
<text x="0" y="0" stroke="none" fill="#0000ff" transform="matrix(0.05 0 0 0.05 6.64999 160.85)" font-style="normal" font-weight="normal" font-size="280px" font-family="Chalkboard" >
Even </text>
<text x="0" y="0" stroke="none" fill="#0000ff" transform="matrix(0.05 0 0 0.05 40.5749 160.85)" font-style="normal" font-weight="normal" font-size="280px" font-family="Chalkboard" >
though </text>
<text x="0" y="0" stroke="none" fill="#0000ff" transform="matrix(0.05 0 0 0.05 89.9229 160.85)" font-style="normal" font-weight="normal" font-size="280px" font-family="Chalkboard" >
statistically </text>
<text x="0" y="0" stroke="none" fill="#0000ff" transform="matrix(0.05 0 0 0.05 166.405 160.85)" font-style="normal" font-weight="normal" font-size="280px" font-family="Chalkboard" >
o-product </text>
<text x="0" y="0" stroke="none" fill="#0000ff" transform="matrix(0.05 0 0 0.05 233.62 160.85)" font-style="normal" font-weight="normal" font-size="280px" font-family="Chalkboard" >
should </text>
<text x="0" y="0" stroke="none" fill="#0000ff" transform="matrix(0.05 0 0 0.05 279.039 160.85)" font-style="normal" font-weight="normal" font-size="280px" font-family="Chalkboard" >
be </text>
<text x="0" y="0" stroke="none" fill="#0000ff" transform="matrix(0.05 0 0 0.05 299.583 160.85)" font-style="normal" font-weight="normal" font-size="280px" font-family="Chalkboard" >
double </text>
<text x="0" y="0" stroke="none" fill="#0000ff" transform="matrix(0.05 0 0 0.05 345.404 160.85)" font-style="normal" font-weight="normal" font-size="280px" font-family="Chalkboard" >
that </text>
<text x="0" y="0" stroke="none" fill="#0000ff" transform="matrix(0.05 0 0 0.05 377.72 160.85)" font-style="normal" font-weight="normal" font-size="280px" font-family="Chalkboard" >
of </text>
<text x="0" y="0" stroke="none" fill="#0000ff" transform="matrix(0.05 0 0 0.05 395.943 160.85)" font-style="normal" font-weight="normal" font-size="280px" font-family="Chalkboard" >
p-product, </text>
<text x="0" y="0" stroke="none" fill="#0000ff" transform="matrix(0.05 0 0 0.05 465.015 160.85)" font-style="normal" font-weight="normal" font-size="280px" font-family="Chalkboard" >
due </text>
<text x="0" y="0" stroke="none" fill="#0000ff" transform="matrix(0.05 0 0 0.05 492.319 160.85)" font-style="normal" font-weight="normal" font-size="280px" font-family="Chalkboard" >
to </text>
<text x="0" y="0" stroke="none" fill="#0000ff" transform="matrix(0.05 0 0 0.05 510.279 160.85)" font-style="normal" font-weight="normal" font-size="280px" font-family="Chalkboard" >
steric </text>
<text x="0" y="0" stroke="none" fill="#0000ff" transform="matrix(0.05 0 0 0.05 550.948 160.85)" font-style="normal" font-weight="normal" font-size="280px" font-family="Chalkboard" >
hindrance </text>
<text x="0" y="0" stroke="none" fill="#0000ff" transform="matrix(0.05 0 0 0.05 616.4 160.85)" font-style="normal" font-weight="normal" font-size="280px" font-family="Chalkboard" >
discouraging </text>
<text x="0" y="0" stroke="none" fill="#0000ff" transform="matrix(0.05 0 0 0.05 698.498 160.85)" font-style="normal" font-weight="normal" font-size="280px" font-family="Chalkboard" >
the </text>
<text x="0" y="0" stroke="none" fill="#0000ff" transform="matrix(0.05 0 0 0.05 725.229 160.85)" font-style="normal" font-weight="normal" font-size="280px" font-family="Chalkboard" >
ortho-attack, </text>
<text x="0" y="0" stroke="none" fill="#0000ff" transform="matrix(0.05 0 0 0.05 814.257 160.85)" font-style="normal" font-weight="normal" font-size="280px" font-family="Chalkboard" >
p-roduct </text>
<text x="0" y="0" stroke="none" fill="#0000ff" transform="matrix(0.05 0 0 0.05 874.511 160.85)" font-style="normal" font-weight="normal" font-size="280px" font-family="Chalkboard" >
is </text>
<text x="0" y="0" stroke="none" fill="#0000ff" transform="matrix(0.05 0 0 0.05 889.393 160.85)" font-style="normal" font-weight="normal" font-size="280px" font-family="Chalkboard" >
mostly </text>
<text x="0" y="0" stroke="none" fill="#0000ff" transform="matrix(0.05 0 0 0.05 934.966 160.85)" font-style="normal" font-weight="normal" font-size="280px" font-family="Chalkboard" >
the </text>
<text x="0" y="0" stroke="none" fill="#0000ff" transform="matrix(0.05 0 0 0.05 961.698 160.85)" font-style="normal" font-weight="normal" font-size="280px" font-family="Chalkboard" >
major </text>
<text x="0" y="0" stroke="none" fill="#0000ff" transform="matrix(0.05 0 0 0.05 1002.8 160.85)" font-style="normal" font-weight="normal" font-size="280px" font-family="Chalkboard" >
product.</text>
<text x="0" y="0" stroke="none" fill="#0000ff" transform="matrix(0.05 0 0 0.05 6.64999 178.717)" font-style="normal" font-weight="normal" font-size="280px" font-family="Chalkboard" >
However, </text>
<text x="0" y="0" stroke="none" fill="#0000ff" transform="matrix(0.05 0 0 0.05 67.3837 178.717)" font-style="normal" font-weight="normal" font-size="280px" font-family="Chalkboard" >
tricks </text>
<text x="0" y="0" stroke="none" fill="#0000ff" transform="matrix(0.05 0 0 0.05 108.904 178.717)" font-style="normal" font-weight="normal" font-size="280px" font-family="Chalkboard" >
like </text>
<text x="0" y="0" stroke="none" fill="#0000ff" transform="matrix(0.05 0 0 0.05 135.574 178.717)" font-style="normal" font-weight="normal" font-size="280px" font-family="Chalkboard" >
sulphonation-desulphonation </text>
<text x="0" y="0" stroke="none" fill="#0000ff" transform="matrix(0.05 0 0 0.05 319.368 178.717)" font-style="normal" font-weight="normal" font-size="280px" font-family="Chalkboard" >
can </text>
<text x="0" y="0" stroke="none" fill="#0000ff" transform="matrix(0.05 0 0 0.05 345.744 178.717)" font-style="normal" font-weight="normal" font-size="280px" font-family="Chalkboard" >
be </text>
<text x="0" y="0" stroke="none" fill="#0000ff" transform="matrix(0.05 0 0 0.05 366.288 178.717)" font-style="normal" font-weight="normal" font-size="280px" font-family="Chalkboard" >
used </text>
<text x="0" y="0" stroke="none" fill="#0000ff" transform="matrix(0.05 0 0 0.05 400.692 178.717)" font-style="normal" font-weight="normal" font-size="280px" font-family="Chalkboard" >
to </text>
<text x="0" y="0" stroke="none" fill="#0000ff" transform="matrix(0.05 0 0 0.05 418.652 178.717)" font-style="normal" font-weight="normal" font-size="280px" font-family="Chalkboard" >
get </text>
<text x="0" y="0" stroke="none" fill="#0000ff" transform="matrix(0.05 0 0 0.05 444.749 178.717)" font-style="normal" font-weight="normal" font-size="280px" font-family="Chalkboard" >
the </text>
<text x="0" y="0" stroke="none" fill="#0000ff" transform="matrix(0.05 0 0 0.05 471.481 178.717)" font-style="normal" font-weight="normal" font-size="280px" font-family="Chalkboard" >
o-product </text>
<text x="0" y="0" stroke="none" fill="#0000ff" transform="matrix(0.05 0 0 0.05 538.696 178.717)" font-style="normal" font-weight="normal" font-size="280px" font-family="Chalkboard" >
as </text>
<text x="0" y="0" stroke="none" fill="#0000ff" transform="matrix(0.05 0 0 0.05 557.755 178.717)" font-style="normal" font-weight="normal" font-size="280px" font-family="Chalkboard" >
the </text>
<text x="0" y="0" stroke="none" fill="#0000ff" transform="matrix(0.05 0 0 0.05 584.486 178.717)" font-style="normal" font-weight="normal" font-size="280px" font-family="Chalkboard" >
major </text>
<text x="0" y="0" stroke="none" fill="#0000ff" transform="matrix(0.05 0 0 0.05 625.589 178.717)" font-style="normal" font-weight="normal" font-size="280px" font-family="Chalkboard" >
product.</text>
<path stroke="none" fill="#0000ff" transform="matrix(0.05 0 0 0.05 -48 -135)" d="M 1013.89,7566.47 L 1045.92,7584.96 L 1045.92,8167.04 L 1013.89,8185.53 L 1013.89,7566.47 Z " />
<path stroke="none" fill="#0000ff" transform="matrix(0.05 0 0 0.05 -48 -135)" d="M 1104.4,7627.96 L 1136.4,7627.96 L 1136.4,8124.04 L 1104.4,8124.04 L 1104.4,7627.96 Z " />
<path stroke="none" fill="#0000ff" transform="matrix(0.05 0 0 0.05 -48 -135)" d="M 1013.89,8185.53 L 1045.92,8167.04 L 1550,8458.08 L 1550,8495.06 L 1013.89,8185.53 Z " />
<path stroke="none" fill="#0000ff" transform="matrix(0.05 0 0 0.05 -48 -135)" d="M 1550,8495.06 L 1550,8458.08 L 2054.08,8167.04 L 2086.11,8185.53 L 1550,8495.06 Z " />
<path stroke="none" fill="#0000ff" transform="matrix(0.05 0 0 0.05 -48 -135)" d="M 1558,8385.93 L 1542,8358.22 L 1971.6,8110.18 L 1987.6,8137.9 L 1558,8385.93 Z " />
<path stroke="none" fill="#0000ff" transform="matrix(0.05 0 0 0.05 -48 -135)" d="M 2086.11,8185.53 L 2054.08,8167.04 L 2054.08,7584.96 L 2086.11,7566.47 L 2086.11,8185.53 Z " />
<path stroke="none" fill="#0000ff" transform="matrix(0.05 0 0 0.05 -48 -135)" d="M 2086.11,7566.47 L 2054.08,7584.96 L 1550,7293.92 L 1550,7276 L 1565.37,7266.94 L 2086.11,7566.47 Z " />
<path stroke="none" fill="#0000ff" transform="matrix(0.05 0 0 0.05 -48 -135)" d="M 1987.6,7614.1 L 1971.6,7641.82 L 1542,7393.78 L 1558,7366.07 L 1987.6,7614.1 Z " />
<path stroke="none" fill="#0000ff" transform="matrix(0.05 0 0 0.05 -48 -135)" d="M 1534.63,7266.94 L 1550,7276 L 1550,7293.92 L 1045.92,7584.96 L 1013.89,7566.47 L 1534.63,7266.94 Z " />
<text x="0" y="0" stroke="none" fill="#0000ff" transform="matrix(0.05 0 0 0.05 25.3928 203.627)" font-style="normal" font-weight="normal" font-size="280px" font-family="Chalkboard" >
CH</text>
<text x="0" y="0" stroke="none" fill="#0000ff" transform="matrix(0.05 0 0 0.05 42.3166 207.587)" font-style="normal" font-weight="normal" font-size="210px" font-family="Chalkboard" >
3</text>
<path stroke="none" fill="#0000ff" transform="matrix(0.05 0 0 0.05 -48 -135)" d="M 1565.37,7266.94 L 1550,7276 L 1534.63,7266.94 L 1534,6817.17 L 1566,6817.17 L 1565.37,7266.94 Z " />
<path stroke="none" fill="#0000ff" transform="matrix(0.05 0 0 0.05 -48 -135)" d="M 4051,7789 L 2716.8,7789 L 2716.8,7757 L 4051,7757 Z " />
<path stroke="none" fill="#0000ff" transform="matrix(0.05 0 0 0.05 -48 -135)" d="M 4330,7773 C 4330,7773 4010,7854 4010,7854 C 4010,7854 4050,7808.44 4050,7773 C 4050,7737.13 4010,7691 4010,7691 C 4010,7691 4330,7773 4330,7773 C 4330,7773 4330,7773 4330,7773 " />
<path stroke="#0000ff" stroke-width="1" fill="none" transform="matrix(0.05 0 0 0.05 -48 -135)" d="M 4330,7773 C 4330,7773 4010,7854 4010,7854 C 4010,7854 4050,7808.44 4050,7773 C 4050,7737.13 4010,7691 4010,7691 C 4010,7691 4330,7773 4330,7773 C 4330,7773 4330,7773 4330,7773 " />
<path stroke="none" fill="#0000ff" transform="matrix(0.05 0 0 0.05 -48 -135)" d="M 4744.89,7549.27 L 4776.92,7567.76 L 4776.92,8149.84 L 4744.89,8168.33 L 4744.89,7549.27 Z " />
<path stroke="none" fill="#0000ff" transform="matrix(0.05 0 0 0.05 -48 -135)" d="M 4835.4,7610.76 L 4867.4,7610.76 L 4867.4,8106.84 L 4835.4,8106.84 L 4835.4,7610.76 Z " />
<path stroke="none" fill="#0000ff" transform="matrix(0.05 0 0 0.05 -48 -135)" d="M 4744.89,8168.33 L 4776.92,8149.84 L 5281,8440.88 L 5281,8458.8 L 5265.61,8467.85 L 4744.89,8168.33 Z " />
<path stroke="none" fill="#0000ff" transform="matrix(0.05 0 0 0.05 -48 -135)" d="M 5296.39,8467.85 L 5281,8458.8 L 5281,8440.88 L 5785.08,8149.84 L 5817.11,8168.33 L 5296.39,8467.85 Z " />
<path stroke="none" fill="#0000ff" transform="matrix(0.05 0 0 0.05 -48 -135)" d="M 5289,8368.73 L 5273,8341.02 L 5702.6,8092.98 L 5718.6,8120.7 L 5289,8368.73 Z " />
<path stroke="none" fill="#0000ff" transform="matrix(0.05 0 0 0.05 -48 -135)" d="M 5817.11,8168.33 L 5785.08,8149.84 L 5785.08,7567.76 L 5817.11,7549.27 L 5817.11,8168.33 Z " />
<path stroke="none" fill="#0000ff" transform="matrix(0.05 0 0 0.05 -48 -135)" d="M 5817.11,7549.27 L 5785.08,7567.76 L 5281,7276.72 L 5281,7258.8 L 5296.37,7249.74 L 5817.11,7549.27 Z " />
<path stroke="none" fill="#0000ff" transform="matrix(0.05 0 0 0.05 -48 -135)" d="M 5718.6,7596.9 L 5702.6,7624.62 L 5273,7376.58 L 5289,7348.87 L 5718.6,7596.9 Z " />
<path stroke="none" fill="#0000ff" transform="matrix(0.05 0 0 0.05 -48 -135)" d="M 5265.63,7249.74 L 5281,7258.8 L 5281,7276.72 L 4776.92,7567.76 L 4744.89,7549.27 L 5265.63,7249.74 Z " />
<text x="0" y="0" stroke="none" fill="#0000ff" transform="matrix(0.05 0 0 0.05 211.943 202.767)" font-style="normal" font-weight="normal" font-size="280px" font-family="Chalkboard" >
CH</text>
<text x="0" y="0" stroke="none" fill="#0000ff" transform="matrix(0.05 0 0 0.05 228.867 206.727)" font-style="normal" font-weight="normal" font-size="210px" font-family="Chalkboard" >
3</text>
<path stroke="none" fill="#0000ff" transform="matrix(0.05 0 0 0.05 -48 -135)" d="M 5296.37,7249.74 L 5281,7258.8 L 5265.63,7249.74 L 5265,6800.97 L 5297,6800.97 L 5296.37,7249.74 Z " />
<text x="0" y="0" stroke="none" fill="#0000ff" transform="matrix(0.05 0 0 0.05 211.935 322.767)" font-style="normal" font-weight="normal" font-size="280px" font-family="Chalkboard" >
SO</text>
<text x="0" y="0" stroke="none" fill="#0000ff" transform="matrix(0.05 0 0 0.05 230.328 326.727)" font-style="normal" font-weight="normal" font-size="210px" font-family="Chalkboard" >
3</text>
<text x="0" y="0" stroke="none" fill="#0000ff" transform="matrix(0.05 0 0 0.05 236.304 322.767)" font-style="normal" font-weight="normal" font-size="280px" font-family="Chalkboard" >
H</text>
<path stroke="none" fill="#0000ff" transform="matrix(0.05 0 0 0.05 -48 -135)" d="M 5265.61,8467.85 L 5281,8458.8 L 5296.39,8467.85 L 5297,8930.73 L 5265,8930.73 L 5265.61,8467.85 Z " />
<text x="0" y="0" stroke="none" fill="#0000ff" transform="matrix(0.05 0 0 0.05 89.88 244.08)" font-style="normal" font-weight="normal" font-size="280px" font-family="Chalkboard" >
sulfonation</text>
<path stroke="none" fill="#0000ff" transform="matrix(0.05 0 0 0.05 -48 -135)" d="M 8007.2,7808.8 L 6353.2,7808.8 L 6353.2,7776.8 L 8007.2,7776.8 Z " />
<path stroke="none" fill="#0000ff" transform="matrix(0.05 0 0 0.05 -48 -135)" d="M 8286.2,7792.8 C 8286.2,7792.8 7966.2,7873.8 7966.2,7873.8 C 7966.2,7873.8 8006.2,7828.24 8006.2,7792.8 C 8006.2,7756.93 7966.2,7710.8 7966.2,7710.8 C 7966.2,7710.8 8286.2,7792.8 8286.2,7792.8 C 8286.2,7792.8 8286.2,7792.8 8286.2,7792.8 " />
<path stroke="#0000ff" stroke-width="1" fill="none" transform="matrix(0.05 0 0 0.05 -48 -135)" d="M 8286.2,7792.8 C 8286.2,7792.8 7966.2,7873.8 7966.2,7873.8 C 7966.2,7873.8 8006.2,7828.24 8006.2,7792.8 C 8006.2,7756.93 7966.2,7710.8 7966.2,7710.8 C 7966.2,7710.8 8286.2,7792.8 8286.2,7792.8 C 8286.2,7792.8 8286.2,7792.8 8286.2,7792.8 " />
<text x="0" y="0" stroke="none" fill="#0000ff" transform="matrix(0.05 0 0 0.05 271.69 245.07)" font-style="normal" font-weight="normal" font-size="280px" font-family="Chalkboard" >
halogenation</text>
<path stroke="none" fill="#0000ff" transform="matrix(0.05 0 0 0.05 -48 -135)" d="M 8778.49,7529.47 L 8810.52,7547.96 L 8810.52,8130.04 L 8778.49,8148.53 L 8778.49,7529.47 Z " />
<path stroke="none" fill="#0000ff" transform="matrix(0.05 0 0 0.05 -48 -135)" d="M 8869,7590.97 L 8901,7590.97 L 8901,8087.03 L 8869,8087.03 L 8869,7590.97 Z " />
<path stroke="none" fill="#0000ff" transform="matrix(0.05 0 0 0.05 -48 -135)" d="M 8778.49,8148.53 L 8810.52,8130.04 L 9314.8,8421.08 L 9314.8,8439 L 9299.41,8448.05 L 8778.49,8148.53 Z " />
<path stroke="none" fill="#0000ff" transform="matrix(0.05 0 0 0.05 -48 -135)" d="M 9330.19,8448.05 L 9314.8,8439 L 9314.8,8421.08 L 9818.88,8130.04 L 9850.91,8148.53 L 9330.19,8448.05 Z " />
<path stroke="none" fill="#0000ff" transform="matrix(0.05 0 0 0.05 -48 -135)" d="M 9322.79,8348.94 L 9306.79,8321.23 L 9736.4,8073.18 L 9752.4,8100.9 L 9322.79,8348.94 Z " />
<path stroke="none" fill="#0000ff" transform="matrix(0.05 0 0 0.05 -48 -135)" d="M 9850.91,8148.53 L 9818.88,8130.04 L 9818.88,7547.96 L 9834.4,7539 L 9849.93,7547.81 L 9850.91,8148.53 Z " />
<path stroke="none" fill="#0000ff" transform="matrix(0.05 0 0 0.05 -48 -135)" d="M 9834.54,7521.15 L 9834.4,7539 L 9818.88,7547.96 L 9314.8,7256.92 L 9314.8,7239 L 9330.17,7229.94 L 9834.54,7521.15 Z " />
<path stroke="none" fill="#0000ff" transform="matrix(0.05 0 0 0.05 -48 -135)" d="M 9752.4,7577.1 L 9736.4,7604.82 L 9306.79,7356.77 L 9322.79,7329.06 L 9752.4,7577.1 Z " />
<path stroke="none" fill="#0000ff" transform="matrix(0.05 0 0 0.05 -48 -135)" d="M 9299.43,7229.94 L 9314.8,7239 L 9314.8,7256.92 L 8810.52,7547.96 L 8778.49,7529.47 L 9299.43,7229.94 Z " />
<text x="0" y="0" stroke="none" fill="#0000ff" transform="matrix(0.05 0 0 0.05 413.633 201.777)" font-style="normal" font-weight="normal" font-size="280px" font-family="Chalkboard" >
CH</text>
<text x="0" y="0" stroke="none" fill="#0000ff" transform="matrix(0.05 0 0 0.05 430.557 205.737)" font-style="normal" font-weight="normal" font-size="210px" font-family="Chalkboard" >
3</text>
<path stroke="none" fill="#0000ff" transform="matrix(0.05 0 0 0.05 -48 -135)" d="M 9330.17,7229.94 L 9314.8,7239 L 9299.43,7229.94 L 9298.8,6780.17 L 9330.8,6780.17 L 9330.17,7229.94 Z " />
<text x="0" y="0" stroke="none" fill="#0000ff" transform="matrix(0.05 0 0 0.05 413.625 321.777)" font-style="normal" font-weight="normal" font-size="280px" font-family="Chalkboard" >
SO</text>
<text x="0" y="0" stroke="none" fill="#0000ff" transform="matrix(0.05 0 0 0.05 432.018 325.737)" font-style="normal" font-weight="normal" font-size="210px" font-family="Chalkboard" >
3</text>
<text x="0" y="0" stroke="none" fill="#0000ff" transform="matrix(0.05 0 0 0.05 437.994 321.777)" font-style="normal" font-weight="normal" font-size="280px" font-family="Chalkboard" >
H</text>
<path stroke="none" fill="#0000ff" transform="matrix(0.05 0 0 0.05 -48 -135)" d="M 9299.41,8448.05 L 9314.8,8439 L 9330.19,8448.05 L 9330.8,8910.93 L 9298.8,8910.93 L 9299.41,8448.05 Z " />
<text x="0" y="0" stroke="none" fill="#0000ff" transform="matrix(0.05 0 0 0.05 465.593 231.777)" font-style="normal" font-weight="normal" font-size="280px" font-family="Chalkboard" >
Cl</text>
<path stroke="none" fill="#0000ff" transform="matrix(0.05 0 0 0.05 -48 -135)" d="M 9849.93,7547.81 L 9834.4,7539 L 9834.54,7521.15 L 10239,7286.95 L 10255,7314.66 L 9849.93,7547.81 Z " />
<path stroke="none" fill="#0000ff" transform="matrix(0.05 0 0 0.05 -48 -135)" d="M 12498,7729.4 L 10844,7729.4 L 10844,7697.4 L 12498,7697.4 Z " />
<path stroke="none" fill="#0000ff" transform="matrix(0.05 0 0 0.05 -48 -135)" d="M 12777,7713.4 C 12777,7713.4 12457,7794.4 12457,7794.4 C 12457,7794.4 12497,7748.84 12497,7713.4 C 12497,7677.53 12457,7631.4 12457,7631.4 C 12457,7631.4 12777,7713.4 12777,7713.4 C 12777,7713.4 12777,7713.4 12777,7713.4 " />
<path stroke="#0000ff" stroke-width="1" fill="none" transform="matrix(0.05 0 0 0.05 -48 -135)" d="M 12777,7713.4 C 12777,7713.4 12457,7794.4 12457,7794.4 C 12457,7794.4 12497,7748.84 12497,7713.4 C 12497,7677.53 12457,7631.4 12457,7631.4 C 12457,7631.4 12777,7713.4 12777,7713.4 C 12777,7713.4 12777,7713.4 12777,7713.4 " />
<text x="0" y="0" stroke="none" fill="#0000ff" transform="matrix(0.05 0 0 0.05 496.23 241.1)" font-style="normal" font-weight="normal" font-size="280px" font-family="Chalkboard" >
dil. </text>
<text x="0" y="0" stroke="none" fill="#0000ff" transform="matrix(0.05 0 0 0.05 518.676 241.1)" font-style="normal" font-weight="normal" font-size="280px" font-family="Chalkboard" >
H</text>
<text x="0" y="0" stroke="none" fill="#0000ff" transform="matrix(0.05 0 0 0.05 527.386 236.273)" font-style="normal" font-weight="normal" font-size="210px" font-family="Chalkboard" >
+</text>
<text x="0" y="0" stroke="none" fill="#0000ff" transform="matrix(0.05 0 0 0.05 533.048 241.1)" font-style="normal" font-weight="normal" font-size="280px" font-family="Chalkboard" >
 </text>
<text x="0" y="0" stroke="none" fill="#0000ff" transform="matrix(0.05 0 0 0.05 538.4 241.1)" font-style="normal" font-weight="normal" font-size="280px" font-family="Chalkboard" >
+ </text>
<text x="0" y="0" stroke="none" fill="#0000ff" transform="matrix(0.05 0 0 0.05 551.302 241.1)" font-style="normal" font-weight="normal" font-size="280px" font-family="Chalkboard" >
H</text>
<text x="0" y="0" stroke="none" fill="#0000ff" transform="matrix(0.05 0 0 0.05 560.011 245.06)" font-style="normal" font-weight="normal" font-size="210px" font-family="Chalkboard" >
2</text>
<text x="0" y="0" stroke="none" fill="#0000ff" transform="matrix(0.05 0 0 0.05 565.986 241.1)" font-style="normal" font-weight="normal" font-size="280px" font-family="Chalkboard" >
O</text>
<path stroke="none" fill="#0000ff" transform="matrix(0.05 0 0 0.05 -48 -135)" d="M 13269.5,7509.47 L 13301.5,7527.96 L 13301.5,8110.04 L 13269.5,8128.53 L 13269.5,7509.47 Z " />
<path stroke="none" fill="#0000ff" transform="matrix(0.05 0 0 0.05 -48 -135)" d="M 13360,7570.96 L 13392,7570.96 L 13392,8067.04 L 13360,8067.04 L 13360,7570.96 Z " />
<path stroke="none" fill="#0000ff" transform="matrix(0.05 0 0 0.05 -48 -135)" d="M 13269.5,8128.53 L 13301.5,8110.04 L 13805.6,8401.08 L 13805.6,8438.06 L 13269.5,8128.53 Z " />
<path stroke="none" fill="#0000ff" transform="matrix(0.05 0 0 0.05 -48 -135)" d="M 13805.6,8438.06 L 13805.6,8401.08 L 14309.7,8110.04 L 14341.7,8128.53 L 13805.6,8438.06 Z " />
<path stroke="none" fill="#0000ff" transform="matrix(0.05 0 0 0.05 -48 -135)" d="M 13813.6,8328.93 L 13797.6,8301.22 L 14227.2,8053.18 L 14243.2,8080.9 L 13813.6,8328.93 Z " />
<path stroke="none" fill="#0000ff" transform="matrix(0.05 0 0 0.05 -48 -135)" d="M 14341.7,8128.53 L 14309.7,8110.04 L 14309.7,7527.96 L 14325.2,7519 L 14340.7,7527.81 L 14341.7,8128.53 Z " />
<path stroke="none" fill="#0000ff" transform="matrix(0.05 0 0 0.05 -48 -135)" d="M 14325.3,7501.15 L 14325.2,7519 L 14309.7,7527.96 L 13805.6,7236.92 L 13805.6,7219 L 13821,7209.94 L 14325.3,7501.15 Z " />
<path stroke="none" fill="#0000ff" transform="matrix(0.05 0 0 0.05 -48 -135)" d="M 14243.2,7557.1 L 14227.2,7584.82 L 13797.6,7336.78 L 13813.6,7309.07 L 14243.2,7557.1 Z " />
<path stroke="none" fill="#0000ff" transform="matrix(0.05 0 0 0.05 -48 -135)" d="M 13790.2,7209.94 L 13805.6,7219 L 13805.6,7236.92 L 13301.5,7527.96 L 13269.5,7509.47 L 13790.2,7209.94 Z " />
<text x="0" y="0" stroke="none" fill="#0000ff" transform="matrix(0.05 0 0 0.05 638.173 200.777)" font-style="normal" font-weight="normal" font-size="280px" font-family="Chalkboard" >
CH</text>
<text x="0" y="0" stroke="none" fill="#0000ff" transform="matrix(0.05 0 0 0.05 655.097 204.737)" font-style="normal" font-weight="normal" font-size="210px" font-family="Chalkboard" >
3</text>
<path stroke="none" fill="#0000ff" transform="matrix(0.05 0 0 0.05 -48 -135)" d="M 13821,7209.94 L 13805.6,7219 L 13790.2,7209.94 L 13789.6,6760.17 L 13821.6,6760.17 L 13821,7209.94 Z " />
<text x="0" y="0" stroke="none" fill="#0000ff" transform="matrix(0.05 0 0 0.05 690.133 230.777)" font-style="normal" font-weight="normal" font-size="280px" font-family="Chalkboard" >
Cl</text>
<path stroke="none" fill="#0000ff" transform="matrix(0.05 0 0 0.05 -48 -135)" d="M 14340.7,7527.81 L 14325.2,7519 L 14325.3,7501.15 L 14729.8,7266.95 L 14745.8,7294.66 L 14340.7,7527.81 Z " />
<text x="0" y="0" stroke="none" fill="#0000ff" transform="matrix(0.05 0 0 0.05 282.51 479.77)" font-style="normal" font-weight="normal" font-size="280px" font-family="Chalkboard" >
(39%)</text>
<path stroke="none" fill="#0000ff" transform="matrix(0.05 0 0 0.05 -48 -135)" d="M 1113.49,19066.7 L 1145.52,19085.2 L 1145.52,19667.2 L 1113.49,19685.7 L 1113.49,19066.7 Z " />
<path stroke="none" fill="#0000ff" transform="matrix(0.05 0 0 0.05 -48 -135)" d="M 1204,19128.2 L 1236,19128.2 L 1236,19624.2 L 1204,19624.2 L 1204,19128.2 Z " />
<path stroke="none" fill="#0000ff" transform="matrix(0.05 0 0 0.05 -48 -135)" d="M 1113.49,19685.7 L 1145.52,19667.2 L 1649.6,19958.3 L 1649.6,19995.3 L 1113.49,19685.7 Z " />
<path stroke="none" fill="#0000ff" transform="matrix(0.05 0 0 0.05 -48 -135)" d="M 1649.6,19995.3 L 1649.6,19958.3 L 2153.68,19667.2 L 2185.71,19685.7 L 1649.6,19995.3 Z " />
<path stroke="none" fill="#0000ff" transform="matrix(0.05 0 0 0.05 -48 -135)" d="M 1657.6,19886.1 L 1641.6,19858.4 L 2071.2,19610.4 L 2087.2,19638.1 L 1657.6,19886.1 Z " />
<path stroke="none" fill="#0000ff" transform="matrix(0.05 0 0 0.05 -48 -135)" d="M 2185.71,19685.7 L 2153.68,19667.2 L 2153.68,19085.2 L 2185.71,19066.7 L 2185.71,19685.7 Z " />
<path stroke="none" fill="#0000ff" transform="matrix(0.05 0 0 0.05 -48 -135)" d="M 2185.71,19066.7 L 2153.68,19085.2 L 1649.6,18794.1 L 1649.6,18776.2 L 1664.97,18767.1 L 2185.71,19066.7 Z " />
<path stroke="none" fill="#0000ff" transform="matrix(0.05 0 0 0.05 -48 -135)" d="M 2087.2,19114.3 L 2071.2,19142 L 1641.6,18894 L 1657.6,18866.3 L 2087.2,19114.3 Z " />
<path stroke="none" fill="#0000ff" transform="matrix(0.05 0 0 0.05 -48 -135)" d="M 1634.23,18767.1 L 1649.6,18776.2 L 1649.6,18794.1 L 1145.52,19085.2 L 1113.49,19066.7 L 1634.23,18767.1 Z " />
<text x="0" y="0" stroke="none" fill="#0000ff" transform="matrix(0.05 0 0 0.05 30.3728 778.637)" font-style="normal" font-weight="normal" font-size="280px" font-family="Chalkboard" >
CH</text>
<text x="0" y="0" stroke="none" fill="#0000ff" transform="matrix(0.05 0 0 0.05 47.2966 782.597)" font-style="normal" font-weight="normal" font-size="210px" font-family="Chalkboard" >
3</text>
<path stroke="none" fill="#0000ff" transform="matrix(0.05 0 0 0.05 -48 -135)" d="M 1664.97,18767.1 L 1649.6,18776.2 L 1634.23,18767.1 L 1633.6,18317.4 L 1665.6,18317.4 L 1664.97,18767.1 Z " />
<path stroke="none" fill="#0000ff" transform="matrix(0.05 0 0 0.05 -48 -135)" d="M 5503.8,19289.2 L 2816.6,19289.2 L 2816.6,19257.2 L 5503.8,19257.2 Z " />
<path stroke="none" fill="#0000ff" transform="matrix(0.05 0 0 0.05 -48 -135)" d="M 5782.8,19273.2 C 5782.8,19273.2 5462.8,19354.2 5462.8,19354.2 C 5462.8,19354.2 5502.8,19308.6 5502.8,19273.2 C 5502.8,19237.3 5462.8,19191.2 5462.8,19191.2 C 5462.8,19191.2 5782.8,19273.2 5782.8,19273.2 C 5782.8,19273.2 5782.8,19273.2 5782.8,19273.2 " />
<path stroke="#0000ff" stroke-width="1" fill="none" transform="matrix(0.05 0 0 0.05 -48 -135)" d="M 5782.8,19273.2 C 5782.8,19273.2 5462.8,19354.2 5462.8,19354.2 C 5462.8,19354.2 5502.8,19308.6 5502.8,19273.2 C 5502.8,19237.3 5462.8,19191.2 5462.8,19191.2 C 5462.8,19191.2 5782.8,19273.2 5782.8,19273.2 C 5782.8,19273.2 5782.8,19273.2 5782.8,19273.2 " />
<path stroke="none" fill="#0000ff" transform="matrix(0.05 0 0 0.05 -48 -135)" d="M 6931.87,19067.8 L 6947.4,19059 L 6962.92,19068 L 6962.92,19650 L 6930.89,19668.5 L 6931.87,19067.8 Z " />
<path stroke="none" fill="#0000ff" transform="matrix(0.05 0 0 0.05 -48 -135)" d="M 7021.4,19111 L 7053.4,19111 L 7053.4,19607 L 7021.4,19607 L 7021.4,19111 Z " />
<path stroke="none" fill="#0000ff" transform="matrix(0.05 0 0 0.05 -48 -135)" d="M 6930.89,19668.5 L 6962.92,19650 L 7467,19941.1 L 7467,19959 L 7451.63,19968.1 L 6930.89,19668.5 Z " />
<path stroke="none" fill="#0000ff" transform="matrix(0.05 0 0 0.05 -48 -135)" d="M 7482.37,19968.1 L 7467,19959 L 7467,19941.1 L 7971.08,19650 L 8003.11,19668.5 L 7482.37,19968.1 Z " />
<path stroke="none" fill="#0000ff" transform="matrix(0.05 0 0 0.05 -48 -135)" d="M 7475,19868.9 L 7459,19841.2 L 7888.6,19593.2 L 7904.6,19620.9 L 7475,19868.9 Z " />
<path stroke="none" fill="#0000ff" transform="matrix(0.05 0 0 0.05 -48 -135)" d="M 8003.11,19668.5 L 7971.08,19650 L 7971.08,19068 L 7986.6,19059 L 8002.13,19067.8 L 8003.11,19668.5 Z " />
<path stroke="none" fill="#0000ff" transform="matrix(0.05 0 0 0.05 -48 -135)" d="M 7986.78,19041.2 L 7986.6,19059 L 7971.08,19068 L 7467,18776.9 L 7467,18759 L 7482.37,18749.9 L 7986.78,19041.2 Z " />
<path stroke="none" fill="#0000ff" transform="matrix(0.05 0 0 0.05 -48 -135)" d="M 7904.6,19097.1 L 7888.6,19124.8 L 7459,18876.8 L 7475,18849.1 L 7904.6,19097.1 Z " />
<path stroke="none" fill="#0000ff" transform="matrix(0.05 0 0 0.05 -48 -135)" d="M 7451.63,18749.9 L 7467,18759 L 7467,18776.9 L 6962.92,19068 L 6947.4,19059 L 6947.23,19041.2 L 7451.63,18749.9 Z " />
<text x="0" y="0" stroke="none" fill="#0000ff" transform="matrix(0.05 0 0 0.05 321.243 777.777)" font-style="normal" font-weight="normal" font-size="280px" font-family="Chalkboard" >
CH</text>
<text x="0" y="0" stroke="none" fill="#0000ff" transform="matrix(0.05 0 0 0.05 338.167 781.737)" font-style="normal" font-weight="normal" font-size="210px" font-family="Chalkboard" >
3</text>
<path stroke="none" fill="#0000ff" transform="matrix(0.05 0 0 0.05 -48 -135)" d="M 7482.37,18749.9 L 7467,18759 L 7451.63,18749.9 L 7451,18300.2 L 7483,18300.2 L 7482.37,18749.9 Z " />
<text x="0" y="0" stroke="none" fill="#0000ff" transform="matrix(0.05 0 0 0.05 320.756 897.777)" font-style="normal" font-weight="normal" font-size="280px" font-family="Chalkboard" >
NO</text>
<text x="0" y="0" stroke="none" fill="#0000ff" transform="matrix(0.05 0 0 0.05 340.108 901.737)" font-style="normal" font-weight="normal" font-size="210px" font-family="Chalkboard" >
2</text>
<path stroke="none" fill="#0000ff" transform="matrix(0.05 0 0 0.05 -48 -135)" d="M 7451.63,19968.1 L 7467,19959 L 7482.37,19968.1 L 7483,20421.2 L 7451,20421.2 L 7451.63,19968.1 Z " />
<text x="0" y="0" stroke="none" fill="#0000ff" transform="matrix(0.05 0 0 0.05 117.71 820.08)" font-style="normal" font-weight="normal" font-size="280px" font-family="Chalkboard" >
fuming </text>
<text x="0" y="0" stroke="none" fill="#0000ff" transform="matrix(0.05 0 0 0.05 165.712 820.08)" font-style="normal" font-weight="normal" font-size="280px" font-family="Chalkboard" >
HNO3</text>
<text x="0" y="0" stroke="none" fill="#0000ff" transform="matrix(0.05 0 0 0.05 96.84 844.92)" font-style="normal" font-weight="normal" font-size="280px" font-family="Chalkboard" >
or </text>
<text x="0" y="0" stroke="none" fill="#0000ff" transform="matrix(0.05 0 0 0.05 115.357 844.92)" font-style="normal" font-weight="normal" font-size="280px" font-family="Chalkboard" >
nitrating </text>
<text x="0" y="0" stroke="none" fill="#0000ff" transform="matrix(0.05 0 0 0.05 173.446 844.92)" font-style="normal" font-weight="normal" font-size="280px" font-family="Chalkboard" >
mix </text>
<text x="0" y="0" stroke="none" fill="#0000ff" transform="matrix(0.05 0 0 0.05 200.626 844.92)" font-style="normal" font-weight="normal" font-size="280px" font-family="Chalkboard" >
+ </text>
<text x="0" y="0" stroke="none" fill="#0000ff" transform="matrix(0.05 0 0 0.05 213.527 844.92)" font-style="normal" font-weight="normal" font-size="280px" font-family="Symbol" >
D</text>
<text x="0" y="0" stroke="none" fill="#0000ff" transform="matrix(0.05 0 0 0.05 372.716 807.777)" font-style="normal" font-weight="normal" font-size="280px" font-family="Chalkboard" >
NO</text>
<text x="0" y="0" stroke="none" fill="#0000ff" transform="matrix(0.05 0 0 0.05 392.068 811.737)" font-style="normal" font-weight="normal" font-size="210px" font-family="Chalkboard" >
2</text>
<path stroke="none" fill="#0000ff" transform="matrix(0.05 0 0 0.05 -48 -135)" d="M 8002.13,19067.8 L 7986.6,19059 L 7986.78,19041.2 L 8364.51,18822.3 L 8380.51,18850 L 8002.13,19067.8 Z " />
<text x="0" y="0" stroke="none" fill="#0000ff" transform="matrix(0.05 0 0 0.05 252.657 807.777)" font-style="normal" font-weight="normal" font-size="280px" font-family="Chalkboard" >
O</text>
<text x="0" y="0" stroke="none" fill="#0000ff" transform="matrix(0.05 0 0 0.05 262.82 811.737)" font-style="normal" font-weight="normal" font-size="210px" font-family="Chalkboard" >
2</text>
<text x="0" y="0" stroke="none" fill="#0000ff" transform="matrix(0.05 0 0 0.05 268.796 807.777)" font-style="normal" font-weight="normal" font-size="280px" font-family="Chalkboard" >
N</text>
<path stroke="none" fill="#0000ff" transform="matrix(0.05 0 0 0.05 -48 -135)" d="M 6947.23,19041.2 L 6947.4,19059 L 6931.87,19067.8 L 6547.27,18846.5 L 6563.27,18818.7 L 6947.23,19041.2 Z " />
<text x="0" y="0" stroke="none" fill="#0000ff" transform="matrix(0.05 0 0 0.05 375.266 850.567)" font-style="normal" font-weight="normal" font-size="280px" font-family="Chalkboard" >
(TNT)</text>
<text x="0" y="0" stroke="none" fill="#0000ff" transform="matrix(0.05 0 0 0.05 8.59999 740.31)" font-style="normal" font-weight="normal" font-size="280px" font-family="Chalkboard" >
After </text>
<text x="0" y="0" stroke="none" fill="#0000ff" transform="matrix(0.05 0 0 0.05 47.7381 740.31)" font-style="normal" font-weight="normal" font-size="280px" font-family="Chalkboard" >
attachment </text>
<text x="0" y="0" stroke="none" fill="#0000ff" transform="matrix(0.05 0 0 0.05 123.555 740.31)" font-style="normal" font-weight="normal" font-size="280px" font-family="Chalkboard" >
of </text>
<text x="0" y="0" stroke="none" fill="#0000ff" transform="matrix(0.05 0 0 0.05 141.778 740.31)" font-style="normal" font-weight="normal" font-size="280px" font-family="Chalkboard" >
each </text>
<text x="0" y="0" stroke="none" fill="#0000ff" transform="matrix(0.05 0 0 0.05 176.089 740.31)" font-style="normal" font-weight="normal" font-size="280px" font-family="Chalkboard" >
nitro </text>
<text x="0" y="0" stroke="none" fill="#0000ff" transform="matrix(0.05 0 0 0.05 210.463 740.31)" font-style="normal" font-weight="normal" font-size="280px" font-family="Chalkboard" >
group, </text>
<text x="0" y="0" stroke="none" fill="#0000ff" transform="matrix(0.05 0 0 0.05 254.257 740.31)" font-style="normal" font-weight="normal" font-size="280px" font-family="Chalkboard" >
the </text>
<text x="0" y="0" stroke="none" fill="#0000ff" transform="matrix(0.05 0 0 0.05 280.989 740.31)" font-style="normal" font-weight="normal" font-size="280px" font-family="Chalkboard" >
ring </text>
<text x="0" y="0" stroke="none" fill="#0000ff" transform="matrix(0.05 0 0 0.05 311.077 740.31)" font-style="normal" font-weight="normal" font-size="280px" font-family="Chalkboard" >
becomes </text>
<text x="0" y="0" stroke="none" fill="#0000ff" transform="matrix(0.05 0 0 0.05 369.955 740.31)" font-style="normal" font-weight="normal" font-size="280px" font-family="Chalkboard" >
very </text>
<text x="0" y="0" stroke="none" fill="#0000ff" transform="matrix(0.05 0 0 0.05 403.524 740.31)" font-style="normal" font-weight="normal" font-size="280px" font-family="Chalkboard" >
electron </text>
<text x="0" y="0" stroke="none" fill="#0000ff" transform="matrix(0.05 0 0 0.05 460.328 740.31)" font-style="normal" font-weight="normal" font-size="280px" font-family="Chalkboard" >
deficient </text>
<text x="0" y="0" stroke="none" fill="#0000ff" transform="matrix(0.05 0 0 0.05 519.933 740.31)" font-style="normal" font-weight="normal" font-size="280px" font-family="Chalkboard" >
as </text>
<text x="0" y="0" stroke="none" fill="#0000ff" transform="matrix(0.05 0 0 0.05 538.991 740.31)" font-style="normal" font-weight="normal" font-size="280px" font-family="Chalkboard" >
-NO</text>
<text x="0" y="0" stroke="none" fill="#0000ff" transform="matrix(0.05 0 0 0.05 565.011 744.27)" font-style="normal" font-weight="normal" font-size="210px" font-family="Chalkboard" >
2</text>
<text x="0" y="0" stroke="none" fill="#0000ff" transform="matrix(0.05 0 0 0.05 570.986 740.31)" font-style="normal" font-weight="normal" font-size="280px" font-family="Chalkboard" >
 </text>
<text x="0" y="0" stroke="none" fill="#0000ff" transform="matrix(0.05 0 0 0.05 576.339 740.31)" font-style="normal" font-weight="normal" font-size="280px" font-family="Chalkboard" >
is </text>
<text x="0" y="0" stroke="none" fill="#0000ff" transform="matrix(0.05 0 0 0.05 591.22 740.31)" font-style="normal" font-weight="normal" font-size="280px" font-family="Chalkboard" >
a </text>
<text x="0" y="0" stroke="none" fill="#0000ff" transform="matrix(0.05 0 0 0.05 604.076 740.31)" font-style="normal" font-weight="normal" font-size="280px" font-family="Chalkboard" >
very </text>
<text x="0" y="0" stroke="none" fill="#0000ff" transform="matrix(0.05 0 0 0.05 637.645 740.31)" font-style="normal" font-weight="normal" font-size="280px" font-family="Chalkboard" >
powerful </text>
<text x="0" y="0" stroke="none" fill="#0000ff" transform="matrix(0.05 0 0 0.05 699.631 740.31)" font-style="normal" font-weight="normal" font-size="280px" font-family="Chalkboard" >
EWG. </text>
<text x="0" y="0" stroke="none" fill="#0000ff" transform="matrix(0.05 0 0 0.05 738.12 740.31)" font-style="normal" font-weight="normal" font-size="280px" font-family="Chalkboard" >
Still </text>
<text x="0" y="0" stroke="none" fill="#0000ff" transform="matrix(0.05 0 0 0.05 769.879 740.31)" font-style="normal" font-weight="normal" font-size="280px" font-family="Chalkboard" >
if </text>
<text x="0" y="0" stroke="none" fill="#0000ff" transform="matrix(0.05 0 0 0.05 784.111 740.31)" font-style="normal" font-weight="normal" font-size="280px" font-family="Chalkboard" >
fuming </text>
<text x="0" y="0" stroke="none" fill="#0000ff" transform="matrix(0.05 0 0 0.05 832.113 740.31)" font-style="normal" font-weight="normal" font-size="280px" font-family="Chalkboard" >
HNO</text>
<text x="0" y="0" stroke="none" fill="#0000ff" transform="matrix(0.05 0 0 0.05 860.175 744.27)" font-style="normal" font-weight="normal" font-size="210px" font-family="Chalkboard" >
3</text>
<text x="0" y="0" stroke="none" fill="#0000ff" transform="matrix(0.05 0 0 0.05 866.15 740.31)" font-style="normal" font-weight="normal" font-size="280px" font-family="Chalkboard" >
 </text>
<text x="0" y="0" stroke="none" fill="#0000ff" transform="matrix(0.05 0 0 0.05 871.503 740.31)" font-style="normal" font-weight="normal" font-size="280px" font-family="Chalkboard" >
is </text>
<text x="0" y="0" stroke="none" fill="#0000ff" transform="matrix(0.05 0 0 0.05 886.385 740.31)" font-style="normal" font-weight="normal" font-size="280px" font-family="Chalkboard" >
taken </text>
<text x="0" y="0" stroke="none" fill="#0000ff" transform="matrix(0.05 0 0 0.05 925.817 740.31)" font-style="normal" font-weight="normal" font-size="280px" font-family="Chalkboard" >
or </text>
<text x="0" y="0" stroke="none" fill="#0000ff" transform="matrix(0.05 0 0 0.05 944.334 740.31)" font-style="normal" font-weight="normal" font-size="280px" font-family="Chalkboard" >
heat </text>
<text x="0" y="0" stroke="none" fill="#0000ff" transform="matrix(0.05 0 0 0.05 977.609 740.31)" font-style="normal" font-weight="normal" font-size="280px" font-family="Chalkboard" >
is </text>
<text x="0" y="0" stroke="none" fill="#0000ff" transform="matrix(0.05 0 0 0.05 992.491 740.31)" font-style="normal" font-weight="normal" font-size="280px" font-family="Chalkboard" >
used, </text>
<text x="0" y="0" stroke="none" fill="#0000ff" transform="matrix(0.05 0 0 0.05 1030.47 740.31)" font-style="normal" font-weight="normal" font-size="280px" font-family="Chalkboard" >
poly </text>
<text x="0" y="0" stroke="none" fill="#0000ff" transform="matrix(0.05 0 0 0.05 8.59999 761.148)" font-style="normal" font-weight="normal" font-size="280px" font-family="Chalkboard" >
nitration </text>
<text x="0" y="0" stroke="none" fill="#0000ff" transform="matrix(0.05 0 0 0.05 66.2707 761.148)" font-style="normal" font-weight="normal" font-size="280px" font-family="Chalkboard" >
will </text>
<text x="0" y="0" stroke="none" fill="#0000ff" transform="matrix(0.05 0 0 0.05 93.9458 761.148)" font-style="normal" font-weight="normal" font-size="280px" font-family="Chalkboard" >
take </text>
<text x="0" y="0" stroke="none" fill="#0000ff" transform="matrix(0.05 0 0 0.05 126.231 761.148)" font-style="normal" font-weight="normal" font-size="280px" font-family="Chalkboard" >
place</text>
<path stroke="none" fill="#0000ff" transform="matrix(0.05 0 0 0.05 -48 -135)" d="M 1715.89,15073.7 L 1747.92,15092.2 L 1747.92,15674.2 L 1715.89,15692.7 L 1715.89,15073.7 Z " />
<path stroke="none" fill="#0000ff" transform="matrix(0.05 0 0 0.05 -48 -135)" d="M 1806.4,15135.2 L 1838.4,15135.2 L 1838.4,15631.2 L 1806.4,15631.2 L 1806.4,15135.2 Z " />
<path stroke="none" fill="#0000ff" transform="matrix(0.05 0 0 0.05 -48 -135)" d="M 1715.89,15692.7 L 1747.92,15674.2 L 2252,15965.3 L 2252,16002.3 L 1715.89,15692.7 Z " />
<path stroke="none" fill="#0000ff" transform="matrix(0.05 0 0 0.05 -48 -135)" d="M 2252,16002.3 L 2252,15965.3 L 2756.08,15674.2 L 2788.11,15692.7 L 2252,16002.3 Z " />
<path stroke="none" fill="#0000ff" transform="matrix(0.05 0 0 0.05 -48 -135)" d="M 2260,15893.1 L 2244,15865.4 L 2673.6,15617.4 L 2689.6,15645.1 L 2260,15893.1 Z " />
<path stroke="none" fill="#0000ff" transform="matrix(0.05 0 0 0.05 -48 -135)" d="M 2788.11,15692.7 L 2756.08,15674.2 L 2756.08,15092.2 L 2788.11,15073.7 L 2788.11,15692.7 Z " />
<path stroke="none" fill="#0000ff" transform="matrix(0.05 0 0 0.05 -48 -135)" d="M 2788.11,15073.7 L 2756.08,15092.2 L 2252,14801.1 L 2252,14783.2 L 2267.52,14774.2 L 2788.11,15073.7 Z " />
<path stroke="none" fill="#0000ff" transform="matrix(0.05 0 0 0.05 -48 -135)" d="M 2689.6,15121.3 L 2673.6,15149 L 2244,14901 L 2260,14873.3 L 2689.6,15121.3 Z " />
<path stroke="none" fill="#0000ff" transform="matrix(0.05 0 0 0.05 -48 -135)" d="M 2236.48,14774.2 L 2252,14783.2 L 2252,14801.1 L 1747.92,15092.2 L 1715.89,15073.7 L 2236.48,14774.2 Z " />
<path stroke="none" fill="#0000ff" transform="matrix(0.05 0 0 0.05 -48 -135)" d="M 2267.52,14774.2 L 2252,14783.2 L 2236.48,14774.2 L 2236.48,14192.2 L 2252,14183.2 L 2267.52,14192.2 L 2267.52,14774.2 Z " />
<path stroke="none" fill="#0000ff" transform="matrix(0.05 0 0 0.05 -48 -135)" d="M 4753,15296.4 L 3419,15296.4 L 3419,15264.4 L 4753,15264.4 Z " />
<path stroke="none" fill="#0000ff" transform="matrix(0.05 0 0 0.05 -48 -135)" d="M 5032,15280.4 C 5032,15280.4 4712,15361.4 4712,15361.4 C 4712,15361.4 4752,15315.8 4752,15280.4 C 4752,15244.5 4712,15198.4 4712,15198.4 C 4712,15198.4 5032,15280.4 5032,15280.4 C 5032,15280.4 5032,15280.4 5032,15280.4 " />
<path stroke="#0000ff" stroke-width="1" fill="none" transform="matrix(0.05 0 0 0.05 -48 -135)" d="M 5032,15280.4 C 5032,15280.4 4712,15361.4 4712,15361.4 C 4712,15361.4 4752,15315.8 4752,15280.4 C 4752,15244.5 4712,15198.4 4712,15198.4 C 4712,15198.4 5032,15280.4 5032,15280.4 C 5032,15280.4 5032,15280.4 5032,15280.4 " />
<path stroke="none" fill="#0000ff" transform="matrix(0.05 0 0 0.05 -48 -135)" d="M 5645.49,15056.7 L 5677.52,15075.2 L 5677.52,15657.2 L 5645.49,15675.7 L 5645.49,15056.7 Z " />
<path stroke="none" fill="#0000ff" transform="matrix(0.05 0 0 0.05 -48 -135)" d="M 5736,15118.2 L 5768,15118.2 L 5768,15614.2 L 5736,15614.2 L 5736,15118.2 Z " />
<path stroke="none" fill="#0000ff" transform="matrix(0.05 0 0 0.05 -48 -135)" d="M 5645.49,15675.7 L 5677.52,15657.2 L 6181.8,15948.3 L 6181.8,15966.2 L 6166.43,15975.3 L 5645.49,15675.7 Z " />
<path stroke="none" fill="#0000ff" transform="matrix(0.05 0 0 0.05 -48 -135)" d="M 6197.17,15975.3 L 6181.8,15966.2 L 6181.8,15948.3 L 6685.88,15657.2 L 6717.91,15675.7 L 6197.17,15975.3 Z " />
<path stroke="none" fill="#0000ff" transform="matrix(0.05 0 0 0.05 -48 -135)" d="M 6189.79,15876.1 L 6173.79,15848.4 L 6603.4,15600.4 L 6619.4,15628.1 L 6189.79,15876.1 Z " />
<path stroke="none" fill="#0000ff" transform="matrix(0.05 0 0 0.05 -48 -135)" d="M 6717.91,15675.7 L 6685.88,15657.2 L 6685.88,15075.2 L 6717.91,15056.7 L 6717.91,15675.7 Z " />
<path stroke="none" fill="#0000ff" transform="matrix(0.05 0 0 0.05 -48 -135)" d="M 6717.91,15056.7 L 6685.88,15075.2 L 6181.8,14784.1 L 6181.8,14766.2 L 6197.32,14757.2 L 6717.91,15056.7 Z " />
<path stroke="none" fill="#0000ff" transform="matrix(0.05 0 0 0.05 -48 -135)" d="M 6619.4,15104.3 L 6603.4,15132 L 6173.79,14884 L 6189.79,14856.3 L 6619.4,15104.3 Z " />
<path stroke="none" fill="#0000ff" transform="matrix(0.05 0 0 0.05 -48 -135)" d="M 6166.28,14757.2 L 6181.8,14766.2 L 6181.8,14784.1 L 5677.52,15075.2 L 5645.49,15056.7 L 6166.28,14757.2 Z " />
<path stroke="none" fill="#0000ff" transform="matrix(0.05 0 0 0.05 -48 -135)" d="M 6197.32,14757.2 L 6181.8,14766.2 L 6166.28,14757.2 L 6166.28,14175.2 L 6181.8,14166.2 L 6197.32,14175.2 L 6197.32,14757.2 Z " />
<path stroke="none" fill="#0000ff" transform="matrix(0.05 0 0 0.05 -48 -135)" d="M 8288.29,15056.7 L 8320.32,15075.2 L 8320.32,15657.2 L 8288.29,15675.7 L 8288.29,15056.7 Z " />
<path stroke="none" fill="#0000ff" transform="matrix(0.05 0 0 0.05 -48 -135)" d="M 8378.8,15118.2 L 8410.8,15118.2 L 8410.8,15614.2 L 8378.8,15614.2 L 8378.8,15118.2 Z " />
<path stroke="none" fill="#0000ff" transform="matrix(0.05 0 0 0.05 -48 -135)" d="M 8288.29,15675.7 L 8320.32,15657.2 L 8824.4,15948.3 L 8824.4,15985.3 L 8288.29,15675.7 Z " />
<path stroke="none" fill="#0000ff" transform="matrix(0.05 0 0 0.05 -48 -135)" d="M 8824.4,15985.3 L 8824.4,15948.3 L 9328.48,15657.2 L 9360.51,15675.7 L 8824.4,15985.3 Z " />
<path stroke="none" fill="#0000ff" transform="matrix(0.05 0 0 0.05 -48 -135)" d="M 8832.4,15876.1 L 8816.4,15848.4 L 9246,15600.4 L 9262,15628.1 L 8832.4,15876.1 Z " />
<path stroke="none" fill="#0000ff" transform="matrix(0.05 0 0 0.05 -48 -135)" d="M 9360.51,15675.7 L 9328.48,15657.2 L 9328.48,15075.2 L 9344,15066.2 L 9359.53,15075 L 9360.51,15675.7 Z " />
<path stroke="none" fill="#0000ff" transform="matrix(0.05 0 0 0.05 -48 -135)" d="M 9344.18,15048.4 L 9344,15066.2 L 9328.48,15075.2 L 8824.4,14784.1 L 8824.4,14766.2 L 8839.92,14757.2 L 9344.18,15048.4 Z " />
<path stroke="none" fill="#0000ff" transform="matrix(0.05 0 0 0.05 -48 -135)" d="M 9262,15104.3 L 9246,15132 L 8816.4,14884 L 8832.4,14856.3 L 9262,15104.3 Z " />
<path stroke="none" fill="#0000ff" transform="matrix(0.05 0 0 0.05 -48 -135)" d="M 8808.88,14757.2 L 8824.4,14766.2 L 8824.4,14784.1 L 8320.32,15075.2 L 8288.29,15056.7 L 8808.88,14757.2 Z " />
<path stroke="none" fill="#0000ff" transform="matrix(0.05 0 0 0.05 -48 -135)" d="M 8839.92,14757.2 L 8824.4,14766.2 L 8808.88,14757.2 L 8808.88,14175.2 L 8824.4,14166.2 L 8839.92,14175.2 L 8839.92,14757.2 Z " />
<text x="0" y="0" stroke="none" fill="#0000ff" transform="matrix(0.05 0 0 0.05 334.02 629.02)" font-style="normal" font-weight="normal" font-size="280px" font-family="Chalkboard" >
+</text>
<text x="0" y="0" stroke="none" fill="#0000ff" transform="matrix(0.05 0 0 0.05 256.496 698.137)" font-style="normal" font-weight="normal" font-size="280px" font-family="Chalkboard" >
NO</text>
<text x="0" y="0" stroke="none" fill="#0000ff" transform="matrix(0.05 0 0 0.05 275.848 702.097)" font-style="normal" font-weight="normal" font-size="210px" font-family="Chalkboard" >
2</text>
<path stroke="none" fill="#0000ff" transform="matrix(0.05 0 0 0.05 -48 -135)" d="M 6166.43,15975.3 L 6181.8,15966.2 L 6197.17,15975.3 L 6197.8,16428.4 L 6165.8,16428.4 L 6166.43,15975.3 Z " />
<text x="0" y="0" stroke="none" fill="#0000ff" transform="matrix(0.05 0 0 0.05 440.586 608.137)" font-style="normal" font-weight="normal" font-size="280px" font-family="Chalkboard" >
NO</text>
<text x="0" y="0" stroke="none" fill="#0000ff" transform="matrix(0.05 0 0 0.05 459.938 612.097)" font-style="normal" font-weight="normal" font-size="210px" font-family="Chalkboard" >
2</text>
<path stroke="none" fill="#0000ff" transform="matrix(0.05 0 0 0.05 -48 -135)" d="M 9359.53,15075 L 9344,15066.2 L 9344.18,15048.4 L 9721.91,14829.5 L 9737.91,14857.2 L 9359.53,15075 Z " />
<text x="0" y="0" stroke="none" fill="#0000ff" transform="matrix(0.05 0 0 0.05 128.95 620.44)" font-style="normal" font-weight="normal" font-size="280px" font-family="Chalkboard" >
Nitration</text>
<path stroke="none" fill="#0000ff" transform="matrix(0.05 0 0 0.05 -48 -135)" d="M 2252,14165.3 L 2252,14183.2 L 2236.48,14192.2 L 1724.4,13897.1 L 1740.4,13869.3 L 2252,14165.3 Z " />
<path stroke="none" fill="#0000ff" transform="matrix(0.05 0 0 0.05 -48 -135)" d="M 2267.52,14192.2 L 2252,14183.2 L 2252,14165.3 L 2763.6,13869.3 L 2779.6,13897.1 L 2267.52,14192.2 Z " />
<path stroke="none" fill="#0000ff" transform="matrix(0.05 0 0 0.05 -48 -135)" d="M 6197.32,14175.2 L 6181.8,14166.2 L 6181.8,14148.3 L 6693.4,13852.3 L 6709.4,13880.1 L 6197.32,14175.2 Z " />
<path stroke="none" fill="#0000ff" transform="matrix(0.05 0 0 0.05 -48 -135)" d="M 6181.8,14148.3 L 6181.8,14166.2 L 6166.28,14175.2 L 5654,13880.1 L 5670,13852.3 L 6181.8,14148.3 Z " />
<path stroke="none" fill="#0000ff" transform="matrix(0.05 0 0 0.05 -48 -135)" d="M 8839.92,14175.2 L 8824.4,14166.2 L 8824.4,14148.3 L 9336,13852.3 L 9352,13880.1 L 8839.92,14175.2 Z " />
<path stroke="none" fill="#0000ff" transform="matrix(0.05 0 0 0.05 -48 -135)" d="M 8824.4,14148.3 L 8824.4,14166.2 L 8808.88,14175.2 L 8296.8,13880.1 L 8312.8,13852.3 L 8824.4,14148.3 Z " />
<text x="0" y="0" stroke="none" fill="#0000ff" transform="matrix(0.05 0 0 0.05 374.07 687.29)" font-style="normal" font-weight="normal" font-size="280px" font-family="Chalkboard" >
(50%)</text>
<text x="0" y="0" stroke="none" fill="#0000ff" transform="matrix(0.05 0 0 0.05 285.32 681.11)" font-style="normal" font-weight="normal" font-size="280px" font-family="Chalkboard" >
(50%)</text>
<text x="0" y="0" stroke="none" fill="#0000ff" transform="matrix(0.05 0 0 0.05 879.76 687.29)" font-style="normal" font-weight="normal" font-size="280px" font-family="Chalkboard" >
(16%)</text>
<text x="0" y="0" stroke="none" fill="#0000ff" transform="matrix(0.05 0 0 0.05 791.01 681.11)" font-style="normal" font-weight="normal" font-size="280px" font-family="Chalkboard" >
(84%)</text>
<path stroke="none" fill="#0000ff" transform="matrix(0.05 0 0 0.05 -48 -135)" d="M 11047.6,16706.2 L 11047.6,13784.6 L 11127.6,13784.6 L 11127.6,16706.2 Z " />
</svg>
