<?xml version="1.0" standalone="no" ?>
<!DOCTYPE svg PUBLIC "-//W3C//DTD SVG 1.1//EN" "http://www.w3.org/Graphics/SVG/1.1/DTD/svg11.dtd">
<svg width="1355px" height="398px" viewBox="0 0 1355 398" style="background-color: #ffffff00" xmlns="http://www.w3.org/2000/svg" xmlns:xlink="http://www.w3.org/1999/xlink" version="1.1" >
<path stroke="none" fill="#0000ff" transform="matrix(0.05 0 0 0.05 -22 -39)" d="M 493.492,2968.07 L 525.522,2986.56 L 525.522,3568.64 L 493.492,3587.13 L 493.492,2968.07 Z " />
<path stroke="none" fill="#0000ff" transform="matrix(0.05 0 0 0.05 -22 -39)" d="M 584,3029.56 L 616,3029.56 L 616,3525.64 L 584,3525.64 L 584,3029.56 Z " />
<path stroke="none" fill="#0000ff" transform="matrix(0.05 0 0 0.05 -22 -39)" d="M 493.492,3587.13 L 525.522,3568.64 L 1029.6,3859.68 L 1029.6,3896.66 L 493.492,3587.13 Z " />
<path stroke="none" fill="#0000ff" transform="matrix(0.05 0 0 0.05 -22 -39)" d="M 1029.6,3896.66 L 1029.6,3859.68 L 1533.68,3568.64 L 1565.71,3587.13 L 1029.6,3896.66 Z " />
<path stroke="none" fill="#0000ff" transform="matrix(0.05 0 0 0.05 -22 -39)" d="M 1037.6,3787.53 L 1021.6,3759.82 L 1451.2,3511.78 L 1467.2,3539.5 L 1037.6,3787.53 Z " />
<path stroke="none" fill="#0000ff" transform="matrix(0.05 0 0 0.05 -22 -39)" d="M 1565.71,3587.13 L 1533.68,3568.64 L 1533.68,2986.56 L 1565.71,2968.07 L 1565.71,3587.13 Z " />
<path stroke="none" fill="#0000ff" transform="matrix(0.05 0 0 0.05 -22 -39)" d="M 1565.71,2968.07 L 1533.68,2986.56 L 1029.6,2695.52 L 1029.6,2677.6 L 1044.96,2668.54 L 1565.71,2968.07 Z " />
<path stroke="none" fill="#0000ff" transform="matrix(0.05 0 0 0.05 -22 -39)" d="M 1467.2,3015.7 L 1451.2,3043.42 L 1021.6,2795.38 L 1037.6,2767.67 L 1467.2,3015.7 Z " />
<path stroke="none" fill="#0000ff" transform="matrix(0.05 0 0 0.05 -22 -39)" d="M 1014.24,2668.54 L 1029.6,2677.6 L 1029.6,2695.52 L 525.522,2986.56 L 493.492,2968.07 L 1014.24,2668.54 Z " />
<text x="0" y="0" stroke="none" fill="#0000ff" transform="matrix(0.05 0 0 0.05 24.3982 69.7065)" font-style="normal" font-weight="normal" font-size="280px" font-family="Chalkboard" >
OH</text>
<path stroke="none" fill="#0000ff" transform="matrix(0.05 0 0 0.05 -22 -39)" d="M 1044.96,2668.54 L 1029.6,2677.6 L 1014.24,2668.54 L 1013.6,2221.53 L 1045.6,2221.53 L 1044.96,2668.54 Z " />
<path stroke="none" fill="#0000ff" transform="matrix(0.05 0 0 0.05 -22 -39)" d="M 5486.8,3259.2 L 2145,3259.2 L 2145,3227.2 L 5486.8,3227.2 Z " />
<path stroke="none" fill="#0000ff" transform="matrix(0.05 0 0 0.05 -22 -39)" d="M 5765.8,3243.2 C 5765.8,3243.2 5445.8,3324.2 5445.8,3324.2 C 5445.8,3324.2 5485.8,3278.64 5485.8,3243.2 C 5485.8,3207.32 5445.8,3161.2 5445.8,3161.2 C 5445.8,3161.2 5765.8,3243.2 5765.8,3243.2 C 5765.8,3243.2 5765.8,3243.2 5765.8,3243.2 " />
<path stroke="#0000ff" stroke-width="1" fill="none" transform="matrix(0.05 0 0 0.05 -22 -39)" d="M 5765.8,3243.2 C 5765.8,3243.2 5445.8,3324.2 5445.8,3324.2 C 5445.8,3324.2 5485.8,3278.64 5485.8,3243.2 C 5485.8,3207.32 5445.8,3161.2 5445.8,3161.2 C 5445.8,3161.2 5765.8,3243.2 5765.8,3243.2 C 5765.8,3243.2 5765.8,3243.2 5765.8,3243.2 " />
<text x="0" y="0" stroke="none" fill="#0000ff" transform="matrix(0.05 0 0 0.05 120.43 142.03)" font-style="normal" font-weight="normal" font-size="280px" font-family="Chalkboard" >
+ </text>
<text x="0" y="0" stroke="none" fill="#0000ff" transform="matrix(0.05 0 0 0.05 133.332 142.03)" font-style="normal" font-weight="normal" font-size="280px" font-family="Chalkboard" >
conc. </text>
<text x="0" y="0" stroke="none" fill="#0000ff" transform="matrix(0.05 0 0 0.05 169.113 142.03)" font-style="normal" font-weight="normal" font-size="280px" font-family="Chalkboard" >
H</text>
<text x="0" y="0" stroke="none" fill="#0000ff" transform="matrix(0.05 0 0 0.05 177.822 145.99)" font-style="normal" font-weight="normal" font-size="210px" font-family="Chalkboard" >
2</text>
<text x="0" y="0" stroke="none" fill="#0000ff" transform="matrix(0.05 0 0 0.05 183.797 142.03)" font-style="normal" font-weight="normal" font-size="280px" font-family="Chalkboard" >
SO</text>
<text x="0" y="0" stroke="none" fill="#0000ff" transform="matrix(0.05 0 0 0.05 202.191 145.99)" font-style="normal" font-weight="normal" font-size="210px" font-family="Chalkboard" >
4</text>
<text x="0" y="0" stroke="none" fill="#0000ff" transform="matrix(0.05 0 0 0.05 280.729 18.3165)" font-style="normal" font-weight="normal" font-size="280px" font-family="Chalkboard" >
HO</text>
<text x="0" y="0" stroke="none" fill="#0000ff" transform="matrix(0.05 0 0 0.05 496.368 16.3165)" font-style="normal" font-weight="normal" font-size="280px" font-family="Chalkboard" >
OH</text>
<path stroke="none" fill="#0000ff" transform="matrix(0.05 0 0 0.05 -22 -39)" d="M 7885.5,1920.42 L 7870,1929.4 L 7854.5,1920.42 L 7854.5,1358.58 L 7886.53,1340.07 L 7885.5,1920.42 Z " />
<path stroke="none" fill="#0000ff" transform="matrix(0.05 0 0 0.05 -22 -39)" d="M 7854.5,1920.42 L 7870,1929.4 L 7870,1947.32 L 7350.47,2248.08 L 7349.93,2211.42 L 7854.5,1920.42 Z " />
<path stroke="none" fill="#0000ff" transform="matrix(0.05 0 0 0.05 -22 -39)" d="M 7772,1863.55 L 7787.98,1891.27 L 7356.68,2140.02 L 7340.69,2112.31 L 7772,1863.55 Z " />
<path stroke="none" fill="#0000ff" transform="matrix(0.05 0 0 0.05 -22 -39)" d="M 7349.93,2211.42 L 7350.47,2248.08 L 6813.87,1959.28 L 6845.91,1940.15 L 7349.93,2211.42 Z " />
<path stroke="none" fill="#0000ff" transform="matrix(0.05 0 0 0.05 -22 -39)" d="M 6845.91,1940.15 L 6813.87,1959.28 L 6814.86,1358.21 L 6830.4,1349.6 L 6845.92,1358.57 L 6845.91,1940.15 Z " />
<path stroke="none" fill="#0000ff" transform="matrix(0.05 0 0 0.05 -22 -39)" d="M 6936.37,1895.65 L 6904.37,1895.65 L 6904.37,1401.57 L 6936.37,1401.57 L 6936.37,1895.65 Z " />
<path stroke="none" fill="#0000ff" transform="matrix(0.05 0 0 0.05 -22 -39)" d="M 6845.92,1358.57 L 6830.4,1349.6 L 6830.39,1331.69 L 7350.2,1030.74 L 7350.2,1067.72 L 6845.92,1358.57 Z " />
<path stroke="none" fill="#0000ff" transform="matrix(0.05 0 0 0.05 -22 -39)" d="M 7886.53,1340.07 L 7854.5,1358.58 L 7350.2,1067.72 L 7350.2,1030.74 L 7886.53,1340.07 Z " />
<path stroke="none" fill="#0000ff" transform="matrix(0.05 0 0 0.05 -22 -39)" d="M 7787.98,1387.73 L 7772,1415.45 L 7342.21,1167.57 L 7358.19,1139.85 L 7787.98,1387.73 Z " />
<path stroke="none" fill="#0000ff" transform="matrix(0.05 0 0 0.05 -22 -39)" d="M 8389.93,2211.35 L 8389.8,2229.2 L 8374.21,2238.12 L 7870,1947.32 L 7870,1929.4 L 7885.5,1920.42 L 8389.93,2211.35 Z " />
<path stroke="none" fill="#0000ff" transform="matrix(0.05 0 0 0.05 -22 -39)" d="M 6830.39,1331.69 L 6830.4,1349.6 L 6814.86,1358.21 L 6429.93,1128.13 L 6446.38,1100.69 L 6830.39,1331.69 Z " />
<path stroke="none" fill="#0000ff" transform="matrix(0.05 0 0 0.05 -22 -39)" d="M 8929.47,1947.25 L 8929.6,1929.4 L 8945.12,1920.43 L 9449.4,2211.28 L 9449.4,2248.26 L 8929.47,1947.25 Z " />
<path stroke="none" fill="#0000ff" transform="matrix(0.05 0 0 0.05 -22 -39)" d="M 9011.62,1891.27 L 9027.6,1863.55 L 9457.39,2111.43 L 9441.41,2139.15 L 9011.62,1891.27 Z " />
<path stroke="none" fill="#0000ff" transform="matrix(0.05 0 0 0.05 -22 -39)" d="M 8945.12,1920.43 L 8929.6,1929.4 L 8914.09,1920.25 L 8913.09,1320.06 L 8945.12,1338.57 L 8945.12,1920.43 Z " />
<path stroke="none" fill="#0000ff" transform="matrix(0.05 0 0 0.05 -22 -39)" d="M 8945.12,1338.57 L 8913.09,1320.06 L 9449.4,1010.74 L 9449.4,1047.72 L 8945.12,1338.57 Z " />
<path stroke="none" fill="#0000ff" transform="matrix(0.05 0 0 0.05 -22 -39)" d="M 9027.6,1395.45 L 9011.62,1367.73 L 9441.41,1119.85 L 9457.39,1147.57 L 9027.6,1395.45 Z " />
<path stroke="none" fill="#0000ff" transform="matrix(0.05 0 0 0.05 -22 -39)" d="M 9449.4,1047.72 L 9449.4,1010.74 L 9968.96,1311.56 L 9969.2,1329.6 L 9953.68,1338.57 L 9449.4,1047.72 Z " />
<path stroke="none" fill="#0000ff" transform="matrix(0.05 0 0 0.05 -22 -39)" d="M 9953.68,1338.57 L 9969.2,1329.6 L 9984.76,1337.92 L 9985.71,1938.94 L 9953.68,1920.43 L 9953.68,1338.57 Z " />
<path stroke="none" fill="#0000ff" transform="matrix(0.05 0 0 0.05 -22 -39)" d="M 9863.23,1381.57 L 9895.23,1381.57 L 9895.23,1877.43 L 9863.23,1877.43 L 9863.23,1381.57 Z " />
<path stroke="none" fill="#0000ff" transform="matrix(0.05 0 0 0.05 -22 -39)" d="M 9449.4,2248.26 L 9449.4,2211.28 L 9953.68,1920.43 L 9985.71,1938.94 L 9449.4,2248.26 Z " />
<path stroke="none" fill="#0000ff" transform="matrix(0.05 0 0 0.05 -22 -39)" d="M 8405.24,2238.39 L 8389.8,2229.2 L 8389.93,2211.35 L 8914.09,1920.25 L 8929.6,1929.4 L 8929.47,1947.25 L 8405.24,2238.39 Z " />
<path stroke="none" fill="#0000ff" transform="matrix(0.05 0 0 0.05 -22 -39)" d="M 9984.76,1337.92 L 9969.2,1329.6 L 9968.96,1311.56 L 10341.4,1072.44 L 10358.7,1099.4 L 9984.76,1337.92 Z " />
<path stroke="none" fill="#0000ff" transform="matrix(0.05 0 0 0.05 -22 -39)" d="M 613.692,6760.47 L 645.722,6778.96 L 645.722,7361.04 L 613.692,7379.53 L 613.692,6760.47 Z " />
<path stroke="none" fill="#0000ff" transform="matrix(0.05 0 0 0.05 -22 -39)" d="M 704.2,6821.96 L 736.2,6821.96 L 736.2,7318.04 L 704.2,7318.04 L 704.2,6821.96 Z " />
<path stroke="none" fill="#0000ff" transform="matrix(0.05 0 0 0.05 -22 -39)" d="M 613.692,7379.53 L 645.722,7361.04 L 1149.8,7652.08 L 1149.8,7689.06 L 613.692,7379.53 Z " />
<path stroke="none" fill="#0000ff" transform="matrix(0.05 0 0 0.05 -22 -39)" d="M 1149.8,7689.06 L 1149.8,7652.08 L 1653.88,7361.04 L 1685.91,7379.53 L 1149.8,7689.06 Z " />
<path stroke="none" fill="#0000ff" transform="matrix(0.05 0 0 0.05 -22 -39)" d="M 1157.8,7579.93 L 1141.8,7552.22 L 1571.4,7304.18 L 1587.4,7331.9 L 1157.8,7579.93 Z " />
<path stroke="none" fill="#0000ff" transform="matrix(0.05 0 0 0.05 -22 -39)" d="M 1685.91,7379.53 L 1653.88,7361.04 L 1653.88,6778.96 L 1685.91,6760.47 L 1685.91,7379.53 Z " />
<path stroke="none" fill="#0000ff" transform="matrix(0.05 0 0 0.05 -22 -39)" d="M 1685.91,6760.47 L 1653.88,6778.96 L 1149.8,6487.92 L 1149.8,6470 L 1165.16,6460.94 L 1685.91,6760.47 Z " />
<path stroke="none" fill="#0000ff" transform="matrix(0.05 0 0 0.05 -22 -39)" d="M 1587.4,6808.1 L 1571.4,6835.82 L 1141.8,6587.78 L 1157.8,6560.07 L 1587.4,6808.1 Z " />
<path stroke="none" fill="#0000ff" transform="matrix(0.05 0 0 0.05 -22 -39)" d="M 1134.44,6460.94 L 1149.8,6470 L 1149.8,6487.92 L 645.722,6778.96 L 613.692,6760.47 L 1134.44,6460.94 Z " />
<text x="0" y="0" stroke="none" fill="#0000ff" transform="matrix(0.05 0 0 0.05 30.4082 259.327)" font-style="normal" font-weight="normal" font-size="280px" font-family="Chalkboard" >
OH</text>
<path stroke="none" fill="#0000ff" transform="matrix(0.05 0 0 0.05 -22 -39)" d="M 1165.16,6460.94 L 1149.8,6470 L 1134.44,6460.94 L 1133.8,6013.93 L 1165.8,6013.93 L 1165.16,6460.94 Z " />
<text x="0" y="0" stroke="none" fill="#0000ff" transform="matrix(0.05 0 0 0.05 80.1 315.36)" font-style="normal" font-weight="normal" font-size="280px" font-family="Chalkboard" >
+</text>
<path stroke="none" fill="#0000ff" transform="matrix(0.05 0 0 0.05 -22 -39)" d="M 6636.6,6897.2 L 4959.2,6897.2 L 4959.2,6865.2 L 6636.6,6865.2 Z " />
<path stroke="none" fill="#0000ff" transform="matrix(0.05 0 0 0.05 -22 -39)" d="M 6915.6,6881.2 C 6915.6,6881.2 6595.6,6962.2 6595.6,6962.2 C 6595.6,6962.2 6635.6,6916.64 6635.6,6881.2 C 6635.6,6845.33 6595.6,6799.2 6595.6,6799.2 C 6595.6,6799.2 6915.6,6881.2 6915.6,6881.2 C 6915.6,6881.2 6915.6,6881.2 6915.6,6881.2 " />
<path stroke="#0000ff" stroke-width="1" fill="none" transform="matrix(0.05 0 0 0.05 -22 -39)" d="M 6915.6,6881.2 C 6915.6,6881.2 6595.6,6962.2 6595.6,6962.2 C 6595.6,6962.2 6635.6,6916.64 6635.6,6881.2 C 6635.6,6845.33 6595.6,6799.2 6595.6,6799.2 C 6595.6,6799.2 6915.6,6881.2 6915.6,6881.2 C 6915.6,6881.2 6915.6,6881.2 6915.6,6881.2 " />
<text x="0" y="0" stroke="none" fill="#0000ff" transform="matrix(0.05 0 0 0.05 231.11 296.48)" font-style="normal" font-weight="normal" font-size="280px" font-family="Chalkboard" >
conc. </text>
<text x="0" y="0" stroke="none" fill="#0000ff" transform="matrix(0.05 0 0 0.05 266.891 296.48)" font-style="normal" font-weight="normal" font-size="280px" font-family="Chalkboard" >
H</text>
<text x="0" y="0" stroke="none" fill="#0000ff" transform="matrix(0.05 0 0 0.05 275.601 300.44)" font-style="normal" font-weight="normal" font-size="210px" font-family="Chalkboard" >
2</text>
<text x="0" y="0" stroke="none" fill="#0000ff" transform="matrix(0.05 0 0 0.05 281.576 296.48)" font-style="normal" font-weight="normal" font-size="280px" font-family="Chalkboard" >
SO</text>
<text x="0" y="0" stroke="none" fill="#0000ff" transform="matrix(0.05 0 0 0.05 299.969 300.44)" font-style="normal" font-weight="normal" font-size="210px" font-family="Chalkboard" >
4</text>
<path stroke="none" fill="#0000ff" transform="matrix(0.05 0 0 0.05 -22 -39)" d="M 16984,6725.6 L 15306.6,6725.6 L 15306.6,6693.6 L 16984,6693.6 Z " />
<path stroke="none" fill="#0000ff" transform="matrix(0.05 0 0 0.05 -22 -39)" d="M 17263,6709.6 C 17263,6709.6 16943,6790.6 16943,6790.6 C 16943,6790.6 16983,6745.04 16983,6709.6 C 16983,6673.73 16943,6627.6 16943,6627.6 C 16943,6627.6 17263,6709.6 17263,6709.6 C 17263,6709.6 17263,6709.6 17263,6709.6 " />
<path stroke="#0000ff" stroke-width="1" fill="none" transform="matrix(0.05 0 0 0.05 -22 -39)" d="M 17263,6709.6 C 17263,6709.6 16943,6790.6 16943,6790.6 C 16943,6790.6 16983,6745.04 16983,6709.6 C 16983,6673.73 16943,6627.6 16943,6627.6 C 16943,6627.6 17263,6709.6 17263,6709.6 C 17263,6709.6 17263,6709.6 17263,6709.6 " />
<text x="0" y="0" stroke="none" fill="#0000ff" transform="matrix(0.05 0 0 0.05 748.48 287.9)" font-style="normal" font-weight="normal" font-size="280px" font-family="Chalkboard" >
conc. </text>
<text x="0" y="0" stroke="none" fill="#0000ff" transform="matrix(0.05 0 0 0.05 784.261 287.9)" font-style="normal" font-weight="normal" font-size="280px" font-family="Chalkboard" >
H</text>
<text x="0" y="0" stroke="none" fill="#0000ff" transform="matrix(0.05 0 0 0.05 792.971 291.86)" font-style="normal" font-weight="normal" font-size="210px" font-family="Chalkboard" >
2</text>
<text x="0" y="0" stroke="none" fill="#0000ff" transform="matrix(0.05 0 0 0.05 798.946 287.9)" font-style="normal" font-weight="normal" font-size="280px" font-family="Chalkboard" >
SO</text>
<text x="0" y="0" stroke="none" fill="#0000ff" transform="matrix(0.05 0 0 0.05 817.339 291.86)" font-style="normal" font-weight="normal" font-size="210px" font-family="Chalkboard" >
4</text>
<path stroke="none" fill="#0000ff" transform="matrix(0.05 0 0 0.05 -22 -39)" d="M 20999.7,6091.27 L 21031.7,6109.76 L 21031.7,6691.84 L 20999.7,6710.33 L 20999.7,6091.27 Z " />
<path stroke="none" fill="#0000ff" transform="matrix(0.05 0 0 0.05 -22 -39)" d="M 21090.2,6152.76 L 21122.2,6152.76 L 21122.2,6648.84 L 21090.2,6648.84 L 21090.2,6152.76 Z " />
<path stroke="none" fill="#0000ff" transform="matrix(0.05 0 0 0.05 -22 -39)" d="M 20999.7,6710.33 L 21031.7,6691.84 L 21535.8,6982.88 L 21535.8,7019.86 L 20999.7,6710.33 Z " />
<path stroke="none" fill="#0000ff" transform="matrix(0.05 0 0 0.05 -22 -39)" d="M 21535.8,7019.86 L 21535.8,6982.88 L 22039.9,6691.84 L 22071.9,6710.33 L 21535.8,7019.86 Z " />
<path stroke="none" fill="#0000ff" transform="matrix(0.05 0 0 0.05 -22 -39)" d="M 21543.8,6910.73 L 21527.8,6883.02 L 21957.4,6634.98 L 21973.4,6662.7 L 21543.8,6910.73 Z " />
<path stroke="none" fill="#0000ff" transform="matrix(0.05 0 0 0.05 -22 -39)" d="M 22071.9,6710.33 L 22039.9,6691.84 L 22039.9,6109.76 L 22071.9,6091.27 L 22071.9,6710.33 Z " />
<path stroke="none" fill="#0000ff" transform="matrix(0.05 0 0 0.05 -22 -39)" d="M 22071.9,6091.27 L 22039.9,6109.76 L 21535.8,5818.72 L 21535.8,5800.8 L 21551.2,5791.74 L 22071.9,6091.27 Z " />
<path stroke="none" fill="#0000ff" transform="matrix(0.05 0 0 0.05 -22 -39)" d="M 21973.4,6138.9 L 21957.4,6166.62 L 21527.8,5918.58 L 21543.8,5890.87 L 21973.4,6138.9 Z " />
<path stroke="none" fill="#0000ff" transform="matrix(0.05 0 0 0.05 -22 -39)" d="M 21520.4,5791.74 L 21535.8,5800.8 L 21535.8,5818.72 L 21031.7,6109.76 L 20999.7,6091.27 L 21520.4,5791.74 Z " />
<text x="0" y="0" stroke="none" fill="#0000ff" transform="matrix(0.05 0 0 0.05 1049.71 225.867)" font-style="normal" font-weight="normal" font-size="280px" font-family="Chalkboard" >
OH</text>
<path stroke="none" fill="#0000ff" transform="matrix(0.05 0 0 0.05 -22 -39)" d="M 21551.2,5791.74 L 21535.8,5800.8 L 21520.4,5791.74 L 21519.8,5344.73 L 21551.8,5344.73 L 21551.2,5791.74 Z " />
<path stroke="#0000ff" stroke-width="32" fill="none" transform="matrix(0.05 0 0 0.05 -22 -39)" d="M 21724.4,6040.39 C 21620.2,6139.86 21616.3,6305.19 21715.8,6409.4 C 21756.9,6452.45 21813,6480.75 21872.1,6488.17 " />
<path stroke="none" fill="#0000ff" transform="matrix(0.05 0 0 0.05 -22 -39)" d="M 22084.8,6418 C 22084.8,6418 21862.7,6559.97 21862.7,6559.97 C 21862.7,6559.97 21881.3,6515.19 21872.1,6488.17 C 21862.9,6461.14 21820.6,6436.41 21820.6,6436.41 C 21820.6,6436.41 22084.8,6418 22084.8,6418 C 22084.8,6418 22084.8,6418 22084.8,6418 " />
<path stroke="#0000ff" stroke-width="1" fill="none" transform="matrix(0.05 0 0 0.05 -22 -39)" d="M 22084.8,6418 C 22084.8,6418 21862.7,6559.97 21862.7,6559.97 C 21862.7,6559.97 21881.3,6515.19 21872.1,6488.17 C 21862.9,6461.14 21820.6,6436.41 21820.6,6436.41 C 21820.6,6436.41 22084.8,6418 22084.8,6418 C 22084.8,6418 22084.8,6418 22084.8,6418 " />
<path stroke="none" fill="#0000ff" transform="matrix(0.05 0 0 0.05 -22 -39)" d="M 21334.7,5148.2 A 23.3333,23.3333 0 1 0 21381.3,5148.2A 23.3333,23.3333 0 1 0 21334.7,5148.2Z " />
<path stroke="none" fill="#0000ff" transform="matrix(0.05 0 0 0.05 -22 -39)" d="M 21334.7,5253.2 A 23.3333,23.3333 0 1 0 21381.3,5253.2A 23.3333,23.3333 0 1 0 21334.7,5253.2Z " />
<path stroke="#0000ff" stroke-width="32" fill="none" transform="matrix(0.05 0 0 0.05 -22 -39)" d="M 21790.1,5622.71 C 21914.7,5577.04 21978.8,5438.84 21933.1,5314.25 C 21916.3,5268.28 21885,5227.75 21844.8,5199.76 " />
<path stroke="none" fill="#0000ff" transform="matrix(0.05 0 0 0.05 -22 -39)" d="M 21570,5594.24 C 21570,5594.24 21830.7,5562.87 21830.7,5562.87 C 21830.7,5562.87 21794.1,5595 21790.1,5622.71 C 21786.2,5650.42 21812.5,5690.68 21812.5,5690.68 C 21812.5,5690.68 21570,5594.24 21570,5594.24 C 21570,5594.24 21570,5594.24 21570,5594.24 " />
<path stroke="#0000ff" stroke-width="1" fill="none" transform="matrix(0.05 0 0 0.05 -22 -39)" d="M 21570,5594.24 C 21570,5594.24 21830.7,5562.87 21830.7,5562.87 C 21830.7,5562.87 21794.1,5595 21790.1,5622.71 C 21786.2,5650.42 21812.5,5690.68 21812.5,5690.68 C 21812.5,5690.68 21570,5594.24 21570,5594.24 C 21570,5594.24 21570,5594.24 21570,5594.24 " />
<text x="0" y="0" stroke="none" fill="#0000ff" transform="matrix(0.05 0 0 0.05 1043.63 335.94)" font-style="normal" font-weight="normal" font-size="280px" font-family="Chalkboard" >
EAS</text>
<text x="0" y="0" stroke="none" fill="#0000ff" transform="matrix(0.05 0 0 0.05 6.31 219.26)" font-style="normal" font-weight="normal" font-size="280px" font-family="Chalkboard" >
Mechanism</text>
<path stroke="#0000ff" stroke-width="20" fill="none" transform="matrix(0.05 0 0 0.05 6.31 219.26)" d="M 0,40 L 1369.06,40 " />
<text x="0" y="0" stroke="none" fill="#0000ff" transform="matrix(0.05 0 0 0.05 74.763 219.26)" font-style="normal" font-weight="normal" font-size="280px" font-family="Chalkboard" >
:</text>
<path stroke="none" fill="#0000ff" transform="matrix(0.05 0 0 0.05 -22 -39)" d="M 22269.2,7171.8 L 20797.8,7171.8 L 20797.8,7139.8 L 22269.2,7139.8 Z " />
<path stroke="none" fill="#0000ff" transform="matrix(0.05 0 0 0.05 -22 -39)" d="M 22548.2,7155.8 C 22548.2,7155.8 22228.2,7236.8 22228.2,7236.8 C 22228.2,7236.8 22268.2,7191.24 22268.2,7155.8 C 22268.2,7119.93 22228.2,7073.8 22228.2,7073.8 C 22228.2,7073.8 22548.2,7155.8 22548.2,7155.8 C 22548.2,7155.8 22548.2,7155.8 22548.2,7155.8 " />
<path stroke="#0000ff" stroke-width="1" fill="none" transform="matrix(0.05 0 0 0.05 -22 -39)" d="M 22548.2,7155.8 C 22548.2,7155.8 22228.2,7236.8 22228.2,7236.8 C 22228.2,7236.8 22268.2,7191.24 22268.2,7155.8 C 22268.2,7119.93 22228.2,7073.8 22228.2,7073.8 C 22228.2,7073.8 22548.2,7155.8 22548.2,7155.8 C 22548.2,7155.8 22548.2,7155.8 22548.2,7155.8 " />
<text x="0" y="0" stroke="none" fill="#0000ff" transform="matrix(0.05 0 0 0.05 192.938 11.9265)" font-style="normal" font-weight="normal" font-size="280px" font-family="Chalkboard" >
O</text>
<text x="0" y="0" stroke="none" fill="#0000ff" transform="matrix(0.05 0 0 0.05 192.938 117.537)" font-style="normal" font-weight="normal" font-size="280px" font-family="Chalkboard" >
O</text>
<text x="0" y="0" stroke="none" fill="#0000ff" transform="matrix(0.05 0 0 0.05 201.298 64.7365)" font-style="normal" font-weight="normal" font-size="280px" font-family="Chalkboard" >
O</text>
<path stroke="none" fill="#0000ff" transform="matrix(0.05 0 0 0.05 -22 -39)" d="M 4221.53,1473.17 L 4209.29,1510.86 L 3659.8,1689.39 L 3644.4,1678.2 L 3646.19,1661.19 L 4221.53,1473.17 Z " />
<path stroke="none" fill="#0000ff" transform="matrix(0.05 0 0 0.05 -22 -39)" d="M 3628.88,1687.16 L 3644.4,1678.2 L 3659.8,1689.39 L 3659.8,2267.01 L 3644.4,2278.2 L 3628.88,2269.24 L 3628.88,1687.16 Z " />
<path stroke="none" fill="#0000ff" transform="matrix(0.05 0 0 0.05 -22 -39)" d="M 3646.19,2295.21 L 3644.4,2278.2 L 3659.8,2267.01 L 4209.32,2445.55 L 4221.56,2483.24 L 3646.19,2295.21 Z " />
<path stroke="none" fill="#0000ff" transform="matrix(0.05 0 0 0.05 -22 -39)" d="M 3628.88,2269.24 L 3644.4,2278.2 L 3646.19,2295.21 L 3124.8,2597.26 L 3124.8,2560.28 L 3628.88,2269.24 Z " />
<path stroke="none" fill="#0000ff" transform="matrix(0.05 0 0 0.05 -22 -39)" d="M 3546.4,2212.38 L 3562.4,2240.1 L 3132.8,2488.13 L 3116.8,2460.42 L 3546.4,2212.38 Z " />
<path stroke="none" fill="#0000ff" transform="matrix(0.05 0 0 0.05 -22 -39)" d="M 3124.8,2560.28 L 3124.8,2597.26 L 2588.69,2287.73 L 2620.72,2269.24 L 3124.8,2560.28 Z " />
<path stroke="none" fill="#0000ff" transform="matrix(0.05 0 0 0.05 -22 -39)" d="M 2620.72,2269.24 L 2588.69,2287.73 L 2588.69,1668.67 L 2620.72,1687.16 L 2620.72,2269.24 Z " />
<path stroke="none" fill="#0000ff" transform="matrix(0.05 0 0 0.05 -22 -39)" d="M 2711.2,2226.24 L 2679.2,2226.24 L 2679.2,1730.16 L 2711.2,1730.16 L 2711.2,2226.24 Z " />
<path stroke="none" fill="#0000ff" transform="matrix(0.05 0 0 0.05 -22 -39)" d="M 2620.72,1687.16 L 2588.69,1668.67 L 3124.8,1359.14 L 3124.8,1396.12 L 2620.72,1687.16 Z " />
<path stroke="none" fill="#0000ff" transform="matrix(0.05 0 0 0.05 -22 -39)" d="M 3646.19,1661.19 L 3644.4,1678.2 L 3628.88,1687.16 L 3124.8,1396.12 L 3124.8,1359.14 L 3646.19,1661.19 Z " />
<path stroke="none" fill="#0000ff" transform="matrix(0.05 0 0 0.05 -22 -39)" d="M 3562.4,1716.3 L 3546.4,1744.02 L 3116.8,1495.98 L 3132.8,1468.27 L 3562.4,1716.3 Z " />
<path stroke="none" fill="#0000ff" transform="matrix(0.05 0 0 0.05 -22 -39)" d="M 4177.31,1514.93 L 4146.87,1505.05 L 4297.42,1041.54 L 4327.86,1051.43 L 4177.31,1514.93 Z " />
<path stroke="none" fill="#0000ff" transform="matrix(0.05 0 0 0.05 -22 -39)" d="M 4262.92,1542.76 L 4232.49,1532.88 L 4383.04,1069.35 L 4413.48,1079.24 L 4262.92,1542.76 Z " />
<path stroke="none" fill="#0000ff" transform="matrix(0.05 0 0 0.05 -22 -39)" d="M 4232.47,2423.54 L 4262.91,2413.65 L 4416.82,2887.34 L 4386.38,2897.22 L 4232.47,2423.54 Z " />
<path stroke="none" fill="#0000ff" transform="matrix(0.05 0 0 0.05 -22 -39)" d="M 4146.89,2451.36 L 4177.32,2441.47 L 4331.23,2915.15 L 4300.79,2925.03 L 4146.89,2451.36 Z " />
<path stroke="none" fill="#0000ff" transform="matrix(0.05 0 0 0.05 -22 -39)" d="M 4209.29,1510.86 L 4221.53,1473.17 L 4502.96,1861.99 L 4477.07,1880.8 L 4209.29,1510.86 Z " />
<path stroke="none" fill="#0000ff" transform="matrix(0.05 0 0 0.05 -22 -39)" d="M 4221.56,2483.24 L 4209.32,2445.55 L 4468.71,2087.11 L 4494.6,2105.92 L 4221.56,2483.24 Z " />
<text x="0" y="0" stroke="none" fill="#0000ff" transform="matrix(0.05 0 0 0.05 401.428 184.457)" font-style="normal" font-weight="normal" font-size="280px" font-family="Chalkboard" >
O</text>
<text x="0" y="0" stroke="none" fill="#0000ff" transform="matrix(0.05 0 0 0.05 409.798 131.657)" font-style="normal" font-weight="normal" font-size="280px" font-family="Chalkboard" >
O</text>
<path stroke="none" fill="#0000ff" transform="matrix(0.05 0 0 0.05 -22 -39)" d="M 8369.48,2819.98 L 8384.8,2831.2 L 8379.1,2849.26 L 7829.6,3027.79 L 7814.2,3016.6 L 7815.99,2999.59 L 8369.48,2819.98 Z " />
<path stroke="none" fill="#0000ff" transform="matrix(0.05 0 0 0.05 -22 -39)" d="M 7798.68,3025.56 L 7814.2,3016.6 L 7829.6,3027.79 L 7829.6,3605.41 L 7814.2,3616.6 L 7798.68,3607.64 L 7798.68,3025.56 Z " />
<path stroke="none" fill="#0000ff" transform="matrix(0.05 0 0 0.05 -22 -39)" d="M 7815.99,3633.61 L 7814.2,3616.6 L 7829.6,3605.41 L 8379.12,3783.95 L 8391.35,3821.64 L 7815.99,3633.61 Z " />
<path stroke="none" fill="#0000ff" transform="matrix(0.05 0 0 0.05 -22 -39)" d="M 7798.68,3607.64 L 7814.2,3616.6 L 7815.99,3633.61 L 7294.6,3935.66 L 7294.6,3898.68 L 7798.68,3607.64 Z " />
<path stroke="none" fill="#0000ff" transform="matrix(0.05 0 0 0.05 -22 -39)" d="M 7716.2,3550.78 L 7732.2,3578.5 L 7302.6,3826.53 L 7286.6,3798.82 L 7716.2,3550.78 Z " />
<path stroke="none" fill="#0000ff" transform="matrix(0.05 0 0 0.05 -22 -39)" d="M 7294.6,3898.68 L 7294.6,3935.66 L 6758.49,3626.13 L 6790.52,3607.64 L 7294.6,3898.68 Z " />
<path stroke="none" fill="#0000ff" transform="matrix(0.05 0 0 0.05 -22 -39)" d="M 6790.52,3607.64 L 6758.49,3626.13 L 6758.49,3007.07 L 6790.52,3025.56 L 6790.52,3607.64 Z " />
<path stroke="none" fill="#0000ff" transform="matrix(0.05 0 0 0.05 -22 -39)" d="M 6881,3564.64 L 6849,3564.64 L 6849,3068.56 L 6881,3068.56 L 6881,3564.64 Z " />
<path stroke="none" fill="#0000ff" transform="matrix(0.05 0 0 0.05 -22 -39)" d="M 6790.52,3025.56 L 6758.49,3007.07 L 7294.6,2697.54 L 7294.6,2734.52 L 6790.52,3025.56 Z " />
<path stroke="none" fill="#0000ff" transform="matrix(0.05 0 0 0.05 -22 -39)" d="M 7815.99,2999.59 L 7814.2,3016.6 L 7798.68,3025.56 L 7294.6,2734.52 L 7294.6,2697.54 L 7815.99,2999.59 Z " />
<path stroke="none" fill="#0000ff" transform="matrix(0.05 0 0 0.05 -22 -39)" d="M 7732.2,3054.7 L 7716.2,3082.42 L 7286.6,2834.38 L 7302.6,2806.67 L 7732.2,3054.7 Z " />
<path stroke="none" fill="#0000ff" transform="matrix(0.05 0 0 0.05 -22 -39)" d="M 8402.28,3761.96 L 8432.71,3752.07 L 8586.62,4225.74 L 8556.18,4235.62 L 8402.28,3761.96 Z " />
<path stroke="none" fill="#0000ff" transform="matrix(0.05 0 0 0.05 -22 -39)" d="M 8316.69,3789.76 L 8347.12,3779.87 L 8501.03,4253.55 L 8470.59,4263.43 L 8316.69,3789.76 Z " />
<path stroke="none" fill="#0000ff" transform="matrix(0.05 0 0 0.05 -22 -39)" d="M 8379.1,2849.26 L 8384.8,2831.2 L 8400.57,2826.31 L 8672.93,3200.41 L 8647.04,3219.22 L 8379.1,2849.26 Z " />
<path stroke="none" fill="#0000ff" transform="matrix(0.05 0 0 0.05 -22 -39)" d="M 8391.35,3821.64 L 8379.12,3783.95 L 8638.68,3425.49 L 8664.56,3444.3 L 8391.35,3821.64 Z " />
<path stroke="none" fill="#0000ff" transform="matrix(0.05 0 0 0.05 -22 -39)" d="M 8374.21,2238.12 L 8389.8,2229.2 L 8405.24,2238.39 L 8400.57,2826.31 L 8384.8,2831.2 L 8369.48,2819.98 L 8374.21,2238.12 Z " />
<text x="0" y="0" stroke="none" fill="#0000ff" transform="matrix(0.05 0 0 0.05 456.775 116.77)" font-style="normal" font-weight="normal" font-size="280px" font-family="Chalkboard" >
(phenolphthalein)</text>
<text x="0" y="0" stroke="none" fill="#0000ff" transform="matrix(0.05 0 0 0.05 188.648 259.037)" font-style="normal" font-weight="normal" font-size="280px" font-family="Chalkboard" >
O</text>
<text x="0" y="0" stroke="none" fill="#0000ff" transform="matrix(0.05 0 0 0.05 188.648 364.637)" font-style="normal" font-weight="normal" font-size="280px" font-family="Chalkboard" >
O</text>
<text x="0" y="0" stroke="none" fill="#0000ff" transform="matrix(0.05 0 0 0.05 197.008 311.837)" font-style="normal" font-weight="normal" font-size="280px" font-family="Chalkboard" >
O</text>
<path stroke="none" fill="#0000ff" transform="matrix(0.05 0 0 0.05 -22 -39)" d="M 4135.73,6415.17 L 4123.49,6452.86 L 3574,6631.39 L 3558.6,6620.2 L 3560.39,6603.19 L 4135.73,6415.17 Z " />
<path stroke="none" fill="#0000ff" transform="matrix(0.05 0 0 0.05 -22 -39)" d="M 3543.08,6629.16 L 3558.6,6620.2 L 3574,6631.39 L 3574,7209.01 L 3558.6,7220.2 L 3543.08,7211.24 L 3543.08,6629.16 Z " />
<path stroke="none" fill="#0000ff" transform="matrix(0.05 0 0 0.05 -22 -39)" d="M 3560.39,7237.21 L 3558.6,7220.2 L 3574,7209.01 L 4123.52,7387.55 L 4135.76,7425.24 L 3560.39,7237.21 Z " />
<path stroke="none" fill="#0000ff" transform="matrix(0.05 0 0 0.05 -22 -39)" d="M 3543.08,7211.24 L 3558.6,7220.2 L 3560.39,7237.21 L 3039,7539.26 L 3039,7502.28 L 3543.08,7211.24 Z " />
<path stroke="none" fill="#0000ff" transform="matrix(0.05 0 0 0.05 -22 -39)" d="M 3460.6,7154.38 L 3476.6,7182.1 L 3047,7430.13 L 3031,7402.42 L 3460.6,7154.38 Z " />
<path stroke="none" fill="#0000ff" transform="matrix(0.05 0 0 0.05 -22 -39)" d="M 3039,7502.28 L 3039,7539.26 L 2502.89,7229.73 L 2534.92,7211.24 L 3039,7502.28 Z " />
<path stroke="none" fill="#0000ff" transform="matrix(0.05 0 0 0.05 -22 -39)" d="M 2534.92,7211.24 L 2502.89,7229.73 L 2502.89,6610.67 L 2534.92,6629.16 L 2534.92,7211.24 Z " />
<path stroke="none" fill="#0000ff" transform="matrix(0.05 0 0 0.05 -22 -39)" d="M 2625.4,7168.24 L 2593.4,7168.24 L 2593.4,6672.16 L 2625.4,6672.16 L 2625.4,7168.24 Z " />
<path stroke="none" fill="#0000ff" transform="matrix(0.05 0 0 0.05 -22 -39)" d="M 2534.92,6629.16 L 2502.89,6610.67 L 3039,6301.14 L 3039,6338.12 L 2534.92,6629.16 Z " />
<path stroke="none" fill="#0000ff" transform="matrix(0.05 0 0 0.05 -22 -39)" d="M 3560.39,6603.19 L 3558.6,6620.2 L 3543.08,6629.16 L 3039,6338.12 L 3039,6301.14 L 3560.39,6603.19 Z " />
<path stroke="none" fill="#0000ff" transform="matrix(0.05 0 0 0.05 -22 -39)" d="M 3476.6,6658.3 L 3460.6,6686.02 L 3031,6437.98 L 3047,6410.27 L 3476.6,6658.3 Z " />
<path stroke="none" fill="#0000ff" transform="matrix(0.05 0 0 0.05 -22 -39)" d="M 4091.52,6456.93 L 4061.09,6447.04 L 4211.62,5983.74 L 4242.06,5993.63 L 4091.52,6456.93 Z " />
<path stroke="none" fill="#0000ff" transform="matrix(0.05 0 0 0.05 -22 -39)" d="M 4177.11,6484.75 L 4146.67,6474.86 L 4297.21,6011.55 L 4327.65,6021.44 L 4177.11,6484.75 Z " />
<path stroke="none" fill="#0000ff" transform="matrix(0.05 0 0 0.05 -22 -39)" d="M 4146.67,7365.54 L 4177.11,7355.65 L 4331.02,7829.34 L 4300.58,7839.22 L 4146.67,7365.54 Z " />
<path stroke="none" fill="#0000ff" transform="matrix(0.05 0 0 0.05 -22 -39)" d="M 4061.09,7393.36 L 4091.52,7383.47 L 4245.43,7857.15 L 4214.99,7867.03 L 4061.09,7393.36 Z " />
<path stroke="none" fill="#0000ff" transform="matrix(0.05 0 0 0.05 -22 -39)" d="M 4123.49,6452.86 L 4135.73,6415.17 L 4417.16,6803.99 L 4391.27,6822.8 L 4123.49,6452.86 Z " />
<path stroke="none" fill="#0000ff" transform="matrix(0.05 0 0 0.05 -22 -39)" d="M 4135.76,7425.24 L 4123.52,7387.55 L 4382.91,7029.11 L 4408.8,7047.92 L 4135.76,7425.24 Z " />
<text x="0" y="0" stroke="none" fill="#0000ff" transform="matrix(0.05 0 0 0.05 427.168 258.177)" font-style="normal" font-weight="normal" font-size="280px" font-family="Chalkboard" >
O</text>
<text x="0" y="0" stroke="none" fill="#0000ff" transform="matrix(0.05 0 0 0.05 427.168 363.777)" font-style="normal" font-weight="normal" font-size="280px" font-family="Chalkboard" >
O</text>
<text x="0" y="0" stroke="none" fill="#0000ff" transform="matrix(0.05 0 0 0.05 435.538 310.977)" font-style="normal" font-weight="normal" font-size="280px" font-family="Chalkboard" >
O</text>
<path stroke="none" fill="#0000ff" transform="matrix(0.05 0 0 0.05 -22 -39)" d="M 8906.13,6397.97 L 8893.9,6435.66 L 8344.4,6614.19 L 8329,6603 L 8330.79,6585.99 L 8906.13,6397.97 Z " />
<path stroke="none" fill="#0000ff" transform="matrix(0.05 0 0 0.05 -22 -39)" d="M 8313.48,6611.96 L 8329,6603 L 8344.4,6614.19 L 8344.4,7191.81 L 8329,7203 L 8313.48,7194.04 L 8313.48,6611.96 Z " />
<path stroke="none" fill="#0000ff" transform="matrix(0.05 0 0 0.05 -22 -39)" d="M 8330.79,7220.01 L 8329,7203 L 8344.4,7191.81 L 8893.92,7370.35 L 8906.15,7408.04 L 8330.79,7220.01 Z " />
<path stroke="none" fill="#0000ff" transform="matrix(0.05 0 0 0.05 -22 -39)" d="M 8313.48,7194.04 L 8329,7203 L 8330.79,7220.01 L 7809.4,7522.06 L 7809.4,7485.08 L 8313.48,7194.04 Z " />
<path stroke="none" fill="#0000ff" transform="matrix(0.05 0 0 0.05 -22 -39)" d="M 8231,7137.18 L 8247,7164.9 L 7817.4,7412.93 L 7801.4,7385.22 L 8231,7137.18 Z " />
<path stroke="none" fill="#0000ff" transform="matrix(0.05 0 0 0.05 -22 -39)" d="M 7809.4,7485.08 L 7809.4,7522.06 L 7273.29,7212.53 L 7305.32,7194.04 L 7809.4,7485.08 Z " />
<path stroke="none" fill="#0000ff" transform="matrix(0.05 0 0 0.05 -22 -39)" d="M 7305.32,7194.04 L 7273.29,7212.53 L 7273.29,6593.47 L 7305.32,6611.96 L 7305.32,7194.04 Z " />
<path stroke="none" fill="#0000ff" transform="matrix(0.05 0 0 0.05 -22 -39)" d="M 7395.8,7151.04 L 7363.8,7151.04 L 7363.8,6654.96 L 7395.8,6654.96 L 7395.8,7151.04 Z " />
<path stroke="none" fill="#0000ff" transform="matrix(0.05 0 0 0.05 -22 -39)" d="M 7305.32,6611.96 L 7273.29,6593.47 L 7809.4,6283.94 L 7809.4,6320.92 L 7305.32,6611.96 Z " />
<path stroke="none" fill="#0000ff" transform="matrix(0.05 0 0 0.05 -22 -39)" d="M 8330.79,6585.99 L 8329,6603 L 8313.48,6611.96 L 7809.4,6320.92 L 7809.4,6283.94 L 8330.79,6585.99 Z " />
<path stroke="none" fill="#0000ff" transform="matrix(0.05 0 0 0.05 -22 -39)" d="M 8247,6641.1 L 8231,6668.82 L 7801.4,6420.78 L 7817.4,6393.07 L 8247,6641.1 Z " />
<path stroke="none" fill="#0000ff" transform="matrix(0.05 0 0 0.05 -22 -39)" d="M 8861.92,6439.73 L 8831.49,6429.84 L 8982.02,5966.54 L 9012.46,5976.43 L 8861.92,6439.73 Z " />
<path stroke="none" fill="#0000ff" transform="matrix(0.05 0 0 0.05 -22 -39)" d="M 8947.51,6467.53 L 8917.08,6457.64 L 9067.61,5994.35 L 9098.05,6004.24 L 8947.51,6467.53 Z " />
<path stroke="none" fill="#0000ff" transform="matrix(0.05 0 0 0.05 -22 -39)" d="M 8917.08,7348.36 L 8947.51,7338.47 L 9101.42,7812.14 L 9070.98,7822.02 L 8917.08,7348.36 Z " />
<path stroke="none" fill="#0000ff" transform="matrix(0.05 0 0 0.05 -22 -39)" d="M 8831.49,7376.16 L 8861.92,7366.27 L 9015.83,7839.95 L 8985.39,7849.83 L 8831.49,7376.16 Z " />
<path stroke="none" fill="#0000ff" transform="matrix(0.05 0 0 0.05 -22 -39)" d="M 8893.9,6435.66 L 8906.13,6397.97 L 9187.73,6786.81 L 9161.84,6805.62 L 8893.9,6435.66 Z " />
<path stroke="none" fill="#0000ff" transform="matrix(0.05 0 0 0.05 -22 -39)" d="M 8906.15,7408.04 L 8893.92,7370.35 L 9153.48,7011.89 L 9179.36,7030.7 L 8906.15,7408.04 Z " />
<text x="0" y="0" stroke="none" fill="#0000ff" transform="matrix(0.05 0 0 0.05 457.255 252.007)" font-style="normal" font-weight="normal" font-size="280px" font-family="Chalkboard" >
H</text>
<path stroke="none" fill="#0000ff" transform="matrix(0.05 0 0 0.05 -22 -39)" d="M 9214.26,5836.19 L 9207.68,5804.87 L 9545.76,5733.82 L 9552.34,5765.14 L 9214.26,5836.19 Z " />
<path stroke="#0000ff" stroke-width="26" fill="none" transform="matrix(0.05 0 0 0.05 -22 -39)" d="M 8737.27,5750.67 A 105.8,105.8 0 1 0 8948.87,5750.67A 105.8,105.8 0 1 0 8737.27,5750.67Z " />
<path stroke="none" fill="#0000ff" transform="matrix(0.05 0 0 0.05 -22 -39)" d="M 8780.73,5738 L 8906.07,5738 L 8906.07,5764 L 8780.73,5764 Z " />
<path stroke="none" fill="#0000ff" transform="matrix(0.05 0 0 0.05 -22 -39)" d="M 8856.4,5688.33 L 8856.4,5813.67 L 8830.4,5813.67 L 8830.4,5688.33 Z " />
<path stroke="none" fill="#0000ff" transform="matrix(0.05 0 0 0.05 -22 -39)" d="M 10240.5,6091.27 L 10272.5,6109.76 L 10272.5,6691.84 L 10240.5,6710.33 L 10240.5,6091.27 Z " />
<path stroke="none" fill="#0000ff" transform="matrix(0.05 0 0 0.05 -22 -39)" d="M 10331,6152.76 L 10363,6152.76 L 10363,6648.84 L 10331,6648.84 L 10331,6152.76 Z " />
<path stroke="none" fill="#0000ff" transform="matrix(0.05 0 0 0.05 -22 -39)" d="M 10240.5,6710.33 L 10272.5,6691.84 L 10776.6,6982.88 L 10776.6,7019.86 L 10240.5,6710.33 Z " />
<path stroke="none" fill="#0000ff" transform="matrix(0.05 0 0 0.05 -22 -39)" d="M 10776.6,7019.86 L 10776.6,6982.88 L 11280.7,6691.84 L 11312.7,6710.33 L 10776.6,7019.86 Z " />
<path stroke="none" fill="#0000ff" transform="matrix(0.05 0 0 0.05 -22 -39)" d="M 10784.6,6910.73 L 10768.6,6883.02 L 11198.2,6634.98 L 11214.2,6662.7 L 10784.6,6910.73 Z " />
<path stroke="none" fill="#0000ff" transform="matrix(0.05 0 0 0.05 -22 -39)" d="M 11312.7,6710.33 L 11280.7,6691.84 L 11280.7,6109.76 L 11312.7,6091.27 L 11312.7,6710.33 Z " />
<path stroke="none" fill="#0000ff" transform="matrix(0.05 0 0 0.05 -22 -39)" d="M 11312.7,6091.27 L 11280.7,6109.76 L 10776.6,5818.72 L 10776.6,5800.8 L 10792,5791.74 L 11312.7,6091.27 Z " />
<path stroke="none" fill="#0000ff" transform="matrix(0.05 0 0 0.05 -22 -39)" d="M 11214.2,6138.9 L 11198.2,6166.62 L 10768.6,5918.58 L 10784.6,5890.87 L 11214.2,6138.9 Z " />
<path stroke="none" fill="#0000ff" transform="matrix(0.05 0 0 0.05 -22 -39)" d="M 10761.2,5791.74 L 10776.6,5800.8 L 10776.6,5818.72 L 10272.5,6109.76 L 10240.5,6091.27 L 10761.2,5791.74 Z " />
<text x="0" y="0" stroke="none" fill="#0000ff" transform="matrix(0.05 0 0 0.05 511.748 225.867)" font-style="normal" font-weight="normal" font-size="280px" font-family="Chalkboard" >
OH</text>
<path stroke="none" fill="#0000ff" transform="matrix(0.05 0 0 0.05 -22 -39)" d="M 10792,5791.74 L 10776.6,5800.8 L 10761.2,5791.74 L 10760.6,5344.73 L 10792.6,5344.73 L 10792,5791.74 Z " />
<path stroke="#0000ff" stroke-width="32" fill="none" transform="matrix(0.05 0 0 0.05 -22 -39)" d="M 10965.2,6040.39 C 10861,6139.86 10857.1,6305.19 10956.6,6409.4 C 10997.7,6452.45 11053.8,6480.75 11112.9,6488.17 " />
<path stroke="none" fill="#0000ff" transform="matrix(0.05 0 0 0.05 -22 -39)" d="M 11325.6,6418 C 11325.6,6418 11103.5,6559.97 11103.5,6559.97 C 11103.5,6559.97 11122.1,6515.19 11112.9,6488.17 C 11103.7,6461.14 11061.4,6436.41 11061.4,6436.41 C 11061.4,6436.41 11325.6,6418 11325.6,6418 C 11325.6,6418 11325.6,6418 11325.6,6418 " />
<path stroke="#0000ff" stroke-width="1" fill="none" transform="matrix(0.05 0 0 0.05 -22 -39)" d="M 11325.6,6418 C 11325.6,6418 11103.5,6559.97 11103.5,6559.97 C 11103.5,6559.97 11122.1,6515.19 11112.9,6488.17 C 11103.7,6461.14 11061.4,6436.41 11061.4,6436.41 C 11061.4,6436.41 11325.6,6418 11325.6,6418 C 11325.6,6418 11325.6,6418 11325.6,6418 " />
<path stroke="none" fill="#0000ff" transform="matrix(0.05 0 0 0.05 -22 -39)" d="M 10575.5,5148.2 A 23.3333,23.3333 0 1 0 10622.1,5148.2A 23.3333,23.3333 0 1 0 10575.5,5148.2Z " />
<path stroke="none" fill="#0000ff" transform="matrix(0.05 0 0 0.05 -22 -39)" d="M 10575.5,5253.2 A 23.3333,23.3333 0 1 0 10622.1,5253.2A 23.3333,23.3333 0 1 0 10575.5,5253.2Z " />
<path stroke="#0000ff" stroke-width="32" fill="none" transform="matrix(0.05 0 0 0.05 -22 -39)" d="M 11030.8,5622.77 C 11155.4,5577.18 11219.6,5439.02 11174,5314.41 C 11157.1,5268.43 11125.9,5227.87 11085.8,5199.85 " />
<path stroke="none" fill="#0000ff" transform="matrix(0.05 0 0 0.05 -22 -39)" d="M 10810.6,5594.15 C 10810.6,5594.15 11071.4,5562.95 11071.4,5562.95 C 11071.4,5562.95 11034.8,5595.06 11030.8,5622.77 C 11026.8,5650.48 11053.1,5690.76 11053.1,5690.76 C 11053.1,5690.76 10810.6,5594.15 10810.6,5594.15 C 10810.6,5594.15 10810.6,5594.15 10810.6,5594.15 " />
<path stroke="#0000ff" stroke-width="1" fill="none" transform="matrix(0.05 0 0 0.05 -22 -39)" d="M 10810.6,5594.15 C 10810.6,5594.15 11071.4,5562.95 11071.4,5562.95 C 11071.4,5562.95 11034.8,5595.06 11030.8,5622.77 C 11026.8,5650.48 11053.1,5690.76 11053.1,5690.76 C 11053.1,5690.76 10810.6,5594.15 10810.6,5594.15 C 10810.6,5594.15 10810.6,5594.15 10810.6,5594.15 " />
<text x="0" y="0" stroke="none" fill="#0000ff" transform="matrix(0.05 0 0 0.05 505.67 335.94)" font-style="normal" font-weight="normal" font-size="280px" font-family="Chalkboard" >
EAS</text>
<path stroke="none" fill="#0000ff" transform="matrix(0.05 0 0 0.05 -22 -39)" d="M 11510,7171.8 L 10038.6,7171.8 L 10038.6,7139.8 L 11510,7139.8 Z " />
<path stroke="none" fill="#0000ff" transform="matrix(0.05 0 0 0.05 -22 -39)" d="M 11789,7155.8 C 11789,7155.8 11469,7236.8 11469,7236.8 C 11469,7236.8 11509,7191.24 11509,7155.8 C 11509,7119.93 11469,7073.8 11469,7073.8 C 11469,7073.8 11789,7155.8 11789,7155.8 C 11789,7155.8 11789,7155.8 11789,7155.8 " />
<path stroke="#0000ff" stroke-width="1" fill="none" transform="matrix(0.05 0 0 0.05 -22 -39)" d="M 11789,7155.8 C 11789,7155.8 11469,7236.8 11469,7236.8 C 11469,7236.8 11509,7191.24 11509,7155.8 C 11509,7119.93 11469,7073.8 11469,7073.8 C 11469,7073.8 11789,7155.8 11789,7155.8 C 11789,7155.8 11789,7155.8 11789,7155.8 " />
<path stroke="#0000ff" stroke-width="32" fill="none" transform="matrix(0.05 0 0 0.05 -22 -39)" d="M 11015.8,6794.76 C 10516.7,6392.66 9829.72,6238.34 9206.51,6388.3 " />
<path stroke="none" fill="#0000ff" transform="matrix(0.05 0 0 0.05 -22 -39)" d="M 8991.82,6452.25 C 8991.82,6452.25 9217.91,6316.82 9217.91,6316.82 C 9217.91,6316.82 9198.08,6361.02 9206.51,6388.3 C 9214.94,6415.58 9256.45,6441.51 9256.45,6441.51 C 9256.45,6441.51 8991.82,6452.25 8991.82,6452.25 C 8991.82,6452.25 8991.82,6452.25 8991.82,6452.25 " />
<path stroke="#0000ff" stroke-width="1" fill="none" transform="matrix(0.05 0 0 0.05 -22 -39)" d="M 8991.82,6452.25 C 8991.82,6452.25 9217.91,6316.82 9217.91,6316.82 C 9217.91,6316.82 9198.08,6361.02 9206.51,6388.3 C 9214.94,6415.58 9256.45,6441.51 9256.45,6441.51 C 9256.45,6441.51 8991.82,6452.25 8991.82,6452.25 C 8991.82,6452.25 8991.82,6452.25 8991.82,6452.25 " />
<text x="0" y="0" stroke="none" fill="#0000ff" transform="matrix(0.05 0 0 0.05 575.029 225.957)" font-style="normal" font-weight="normal" font-size="280px" font-family="Chalkboard" >
HO</text>
<path stroke="none" fill="#0000ff" transform="matrix(0.05 0 0 0.05 -22 -39)" d="M 13771.5,6073.22 L 13756,6082.2 L 13740.5,6073.22 L 13740.5,5511.38 L 13772.5,5492.87 L 13771.5,6073.22 Z " />
<path stroke="none" fill="#0000ff" transform="matrix(0.05 0 0 0.05 -22 -39)" d="M 13740.5,6073.22 L 13756,6082.2 L 13756,6100.12 L 13236.5,6400.88 L 13235.9,6364.22 L 13740.5,6073.22 Z " />
<path stroke="none" fill="#0000ff" transform="matrix(0.05 0 0 0.05 -22 -39)" d="M 13658,6016.35 L 13674,6044.07 L 13242.7,6292.82 L 13226.7,6265.11 L 13658,6016.35 Z " />
<path stroke="none" fill="#0000ff" transform="matrix(0.05 0 0 0.05 -22 -39)" d="M 13235.9,6364.22 L 13236.5,6400.88 L 12699.9,6112.08 L 12731.9,6092.95 L 13235.9,6364.22 Z " />
<path stroke="none" fill="#0000ff" transform="matrix(0.05 0 0 0.05 -22 -39)" d="M 12731.9,6092.95 L 12699.9,6112.08 L 12700.9,5511.01 L 12716.4,5502.4 L 12731.9,5511.37 L 12731.9,6092.95 Z " />
<path stroke="none" fill="#0000ff" transform="matrix(0.05 0 0 0.05 -22 -39)" d="M 12822.4,6048.45 L 12790.4,6048.45 L 12790.4,5554.37 L 12822.4,5554.37 L 12822.4,6048.45 Z " />
<path stroke="none" fill="#0000ff" transform="matrix(0.05 0 0 0.05 -22 -39)" d="M 12731.9,5511.37 L 12716.4,5502.4 L 12716.4,5484.49 L 13236.2,5183.54 L 13236.2,5220.52 L 12731.9,5511.37 Z " />
<path stroke="none" fill="#0000ff" transform="matrix(0.05 0 0 0.05 -22 -39)" d="M 13772.5,5492.87 L 13740.5,5511.38 L 13236.2,5220.52 L 13236.2,5183.54 L 13772.5,5492.87 Z " />
<path stroke="none" fill="#0000ff" transform="matrix(0.05 0 0 0.05 -22 -39)" d="M 13674,5540.53 L 13658,5568.25 L 13228.2,5320.37 L 13244.2,5292.65 L 13674,5540.53 Z " />
<path stroke="none" fill="#0000ff" transform="matrix(0.05 0 0 0.05 -22 -39)" d="M 14276,6364.18 L 14275.8,6382 L 14260.2,6390.92 L 13756,6100.12 L 13756,6082.2 L 13771.5,6073.22 L 14276,6364.18 Z " />
<path stroke="none" fill="#0000ff" transform="matrix(0.05 0 0 0.05 -22 -39)" d="M 12716.4,5484.49 L 12716.4,5502.4 L 12700.9,5511.01 L 12315.9,5280.93 L 12332.4,5253.49 L 12716.4,5484.49 Z " />
<text x="0" y="0" stroke="none" fill="#0000ff" transform="matrix(0.05 0 0 0.05 695.728 392.097)" font-style="normal" font-weight="normal" font-size="280px" font-family="Chalkboard" >
O</text>
<text x="0" y="0" stroke="none" fill="#0000ff" transform="matrix(0.05 0 0 0.05 704.088 339.297)" font-style="normal" font-weight="normal" font-size="280px" font-family="Chalkboard" >
O</text>
<path stroke="none" fill="#0000ff" transform="matrix(0.05 0 0 0.05 -22 -39)" d="M 14255.5,6972.78 L 14270.8,6984 L 14265.1,7002.06 L 13715.6,7180.59 L 13700.2,7169.4 L 13702,7152.39 L 14255.5,6972.78 Z " />
<path stroke="none" fill="#0000ff" transform="matrix(0.05 0 0 0.05 -22 -39)" d="M 13684.7,7178.36 L 13700.2,7169.4 L 13715.6,7180.59 L 13715.6,7758.21 L 13700.2,7769.4 L 13684.7,7760.44 L 13684.7,7178.36 Z " />
<path stroke="none" fill="#0000ff" transform="matrix(0.05 0 0 0.05 -22 -39)" d="M 13702,7786.41 L 13700.2,7769.4 L 13715.6,7758.21 L 14265.1,7936.75 L 14277.4,7974.44 L 13702,7786.41 Z " />
<path stroke="none" fill="#0000ff" transform="matrix(0.05 0 0 0.05 -22 -39)" d="M 13684.7,7760.44 L 13700.2,7769.4 L 13702,7786.41 L 13180.6,8088.46 L 13180.6,8051.48 L 13684.7,7760.44 Z " />
<path stroke="none" fill="#0000ff" transform="matrix(0.05 0 0 0.05 -22 -39)" d="M 13602.2,7703.58 L 13618.2,7731.3 L 13188.6,7979.34 L 13172.6,7951.63 L 13602.2,7703.58 Z " />
<path stroke="none" fill="#0000ff" transform="matrix(0.05 0 0 0.05 -22 -39)" d="M 13180.6,8051.48 L 13180.6,8088.46 L 12644.3,7778.93 L 12676.3,7760.44 L 13180.6,8051.48 Z " />
<path stroke="none" fill="#0000ff" transform="matrix(0.05 0 0 0.05 -22 -39)" d="M 12676.3,7760.44 L 12644.3,7778.93 L 12644.3,7159.87 L 12676.3,7178.36 L 12676.3,7760.44 Z " />
<path stroke="none" fill="#0000ff" transform="matrix(0.05 0 0 0.05 -22 -39)" d="M 12766.8,7717.43 L 12734.8,7717.43 L 12734.8,7221.37 L 12766.8,7221.37 L 12766.8,7717.43 Z " />
<path stroke="none" fill="#0000ff" transform="matrix(0.05 0 0 0.05 -22 -39)" d="M 12676.3,7178.36 L 12644.3,7159.87 L 13180.6,6850.34 L 13180.6,6887.32 L 12676.3,7178.36 Z " />
<path stroke="none" fill="#0000ff" transform="matrix(0.05 0 0 0.05 -22 -39)" d="M 13702,7152.39 L 13700.2,7169.4 L 13684.7,7178.36 L 13180.6,6887.32 L 13180.6,6850.34 L 13702,7152.39 Z " />
<path stroke="none" fill="#0000ff" transform="matrix(0.05 0 0 0.05 -22 -39)" d="M 13618.2,7207.5 L 13602.2,7235.22 L 13172.6,6987.17 L 13188.6,6959.46 L 13618.2,7207.5 Z " />
<path stroke="none" fill="#0000ff" transform="matrix(0.05 0 0 0.05 -22 -39)" d="M 14288.3,7914.74 L 14318.7,7904.85 L 14472.6,8378.54 L 14442.2,8388.42 L 14288.3,7914.74 Z " />
<path stroke="none" fill="#0000ff" transform="matrix(0.05 0 0 0.05 -22 -39)" d="M 14202.7,7942.56 L 14233.1,7932.67 L 14387,8406.35 L 14356.6,8416.23 L 14202.7,7942.56 Z " />
<path stroke="none" fill="#0000ff" transform="matrix(0.05 0 0 0.05 -22 -39)" d="M 14265.1,7002.06 L 14270.8,6984 L 14286.6,6979.11 L 14558.8,7353.19 L 14532.9,7372 L 14265.1,7002.06 Z " />
<path stroke="none" fill="#0000ff" transform="matrix(0.05 0 0 0.05 -22 -39)" d="M 14277.4,7974.44 L 14265.1,7936.75 L 14524.5,7578.31 L 14550.4,7597.12 L 14277.4,7974.44 Z " />
<path stroke="none" fill="#0000ff" transform="matrix(0.05 0 0 0.05 -22 -39)" d="M 14260.2,6390.92 L 14275.8,6382 L 14291.3,6390.86 L 14286.6,6979.11 L 14270.8,6984 L 14255.5,6972.78 L 14260.2,6390.92 Z " />
<text x="0" y="0" stroke="none" fill="#0000ff" transform="matrix(0.05 0 0 0.05 712.748 270.027)" font-style="normal" font-weight="normal" font-size="280px" font-family="Chalkboard" >
OH</text>
<path stroke="none" fill="#0000ff" transform="matrix(0.05 0 0 0.05 -22 -39)" d="M 14291.3,6390.86 L 14275.8,6382 L 14276,6364.18 L 14666.9,6139.8 L 14682.8,6167.58 L 14291.3,6390.86 Z " />
<text x="0" y="0" stroke="none" fill="#0000ff" transform="matrix(0.05 0 0 0.05 841.009 227.677)" font-style="normal" font-weight="normal" font-size="280px" font-family="Chalkboard" >
HO</text>
<path stroke="none" fill="#0000ff" transform="matrix(0.05 0 0 0.05 -22 -39)" d="M 19091.1,6107.62 L 19075.6,6116.6 L 19060.1,6107.62 L 19060.1,5545.78 L 19092.1,5527.27 L 19091.1,6107.62 Z " />
<path stroke="none" fill="#0000ff" transform="matrix(0.05 0 0 0.05 -22 -39)" d="M 19060.1,6107.62 L 19075.6,6116.6 L 19075.6,6134.52 L 18556.1,6435.28 L 18555.5,6398.62 L 19060.1,6107.62 Z " />
<path stroke="none" fill="#0000ff" transform="matrix(0.05 0 0 0.05 -22 -39)" d="M 18977.6,6050.75 L 18993.6,6078.47 L 18562.3,6327.22 L 18546.3,6299.51 L 18977.6,6050.75 Z " />
<path stroke="none" fill="#0000ff" transform="matrix(0.05 0 0 0.05 -22 -39)" d="M 18555.5,6398.62 L 18556.1,6435.28 L 18019.5,6146.48 L 18051.5,6127.35 L 18555.5,6398.62 Z " />
<path stroke="none" fill="#0000ff" transform="matrix(0.05 0 0 0.05 -22 -39)" d="M 18051.5,6127.35 L 18019.5,6146.48 L 18020.5,5545.41 L 18036,5536.8 L 18051.5,5545.77 L 18051.5,6127.35 Z " />
<path stroke="none" fill="#0000ff" transform="matrix(0.05 0 0 0.05 -22 -39)" d="M 18142,6082.85 L 18110,6082.85 L 18110,5588.77 L 18142,5588.77 L 18142,6082.85 Z " />
<path stroke="none" fill="#0000ff" transform="matrix(0.05 0 0 0.05 -22 -39)" d="M 18051.5,5545.77 L 18036,5536.8 L 18036,5518.89 L 18555.8,5217.94 L 18555.8,5254.92 L 18051.5,5545.77 Z " />
<path stroke="none" fill="#0000ff" transform="matrix(0.05 0 0 0.05 -22 -39)" d="M 19092.1,5527.27 L 19060.1,5545.78 L 18555.8,5254.92 L 18555.8,5217.94 L 19092.1,5527.27 Z " />
<path stroke="none" fill="#0000ff" transform="matrix(0.05 0 0 0.05 -22 -39)" d="M 18993.6,5574.93 L 18977.6,5602.65 L 18547.8,5354.77 L 18563.8,5327.05 L 18993.6,5574.93 Z " />
<path stroke="none" fill="#0000ff" transform="matrix(0.05 0 0 0.05 -22 -39)" d="M 19595.6,6398.58 L 19595.4,6416.4 L 19579.8,6425.32 L 19075.6,6134.52 L 19075.6,6116.6 L 19091.1,6107.62 L 19595.6,6398.58 Z " />
<path stroke="none" fill="#0000ff" transform="matrix(0.05 0 0 0.05 -22 -39)" d="M 18036,5518.89 L 18036,5536.8 L 18020.5,5545.41 L 17636.3,5315.77 L 17652.7,5288.33 L 18036,5518.89 Z " />
<text x="0" y="0" stroke="none" fill="#0000ff" transform="matrix(0.05 0 0 0.05 961.708 393.807)" font-style="normal" font-weight="normal" font-size="280px" font-family="Chalkboard" >
O</text>
<text x="0" y="0" stroke="none" fill="#0000ff" transform="matrix(0.05 0 0 0.05 970.068 341.007)" font-style="normal" font-weight="normal" font-size="280px" font-family="Chalkboard" >
O</text>
<path stroke="none" fill="#0000ff" transform="matrix(0.05 0 0 0.05 -22 -39)" d="M 19575.1,7006.98 L 19590.4,7018.2 L 19584.7,7036.26 L 19035.2,7214.79 L 19019.8,7203.6 L 19021.6,7186.59 L 19575.1,7006.98 Z " />
<path stroke="none" fill="#0000ff" transform="matrix(0.05 0 0 0.05 -22 -39)" d="M 19004.3,7212.56 L 19019.8,7203.6 L 19035.2,7214.79 L 19035.2,7792.41 L 19019.8,7803.6 L 19004.3,7794.64 L 19004.3,7212.56 Z " />
<path stroke="none" fill="#0000ff" transform="matrix(0.05 0 0 0.05 -22 -39)" d="M 19021.6,7820.61 L 19019.8,7803.6 L 19035.2,7792.41 L 19584.7,7970.95 L 19597,8008.64 L 19021.6,7820.61 Z " />
<path stroke="none" fill="#0000ff" transform="matrix(0.05 0 0 0.05 -22 -39)" d="M 19004.3,7794.64 L 19019.8,7803.6 L 19021.6,7820.61 L 18500.2,8122.66 L 18500.2,8085.68 L 19004.3,7794.64 Z " />
<path stroke="none" fill="#0000ff" transform="matrix(0.05 0 0 0.05 -22 -39)" d="M 18921.8,7737.78 L 18937.8,7765.5 L 18508.2,8013.54 L 18492.2,7985.83 L 18921.8,7737.78 Z " />
<path stroke="none" fill="#0000ff" transform="matrix(0.05 0 0 0.05 -22 -39)" d="M 18500.2,8085.68 L 18500.2,8122.66 L 17963.9,7813.13 L 17995.9,7794.64 L 18500.2,8085.68 Z " />
<path stroke="none" fill="#0000ff" transform="matrix(0.05 0 0 0.05 -22 -39)" d="M 17995.9,7794.64 L 17963.9,7813.13 L 17963.9,7194.07 L 17995.9,7212.56 L 17995.9,7794.64 Z " />
<path stroke="none" fill="#0000ff" transform="matrix(0.05 0 0 0.05 -22 -39)" d="M 18086.4,7751.63 L 18054.4,7751.63 L 18054.4,7255.57 L 18086.4,7255.57 L 18086.4,7751.63 Z " />
<path stroke="none" fill="#0000ff" transform="matrix(0.05 0 0 0.05 -22 -39)" d="M 17995.9,7212.56 L 17963.9,7194.07 L 18500.2,6884.54 L 18500.2,6921.52 L 17995.9,7212.56 Z " />
<path stroke="none" fill="#0000ff" transform="matrix(0.05 0 0 0.05 -22 -39)" d="M 19021.6,7186.59 L 19019.8,7203.6 L 19004.3,7212.56 L 18500.2,6921.52 L 18500.2,6884.54 L 19021.6,7186.59 Z " />
<path stroke="none" fill="#0000ff" transform="matrix(0.05 0 0 0.05 -22 -39)" d="M 18937.8,7241.7 L 18921.8,7269.42 L 18492.2,7021.37 L 18508.2,6993.66 L 18937.8,7241.7 Z " />
<path stroke="none" fill="#0000ff" transform="matrix(0.05 0 0 0.05 -22 -39)" d="M 19607.9,7948.94 L 19638.3,7939.05 L 19792.2,8412.74 L 19761.8,8422.62 L 19607.9,7948.94 Z " />
<path stroke="none" fill="#0000ff" transform="matrix(0.05 0 0 0.05 -22 -39)" d="M 19522.3,7976.76 L 19552.7,7966.87 L 19706.6,8440.55 L 19676.2,8450.43 L 19522.3,7976.76 Z " />
<path stroke="none" fill="#0000ff" transform="matrix(0.05 0 0 0.05 -22 -39)" d="M 19584.7,7036.26 L 19590.4,7018.2 L 19606.2,7013.31 L 19878.4,7387.39 L 19852.5,7406.2 L 19584.7,7036.26 Z " />
<path stroke="none" fill="#0000ff" transform="matrix(0.05 0 0 0.05 -22 -39)" d="M 19597,8008.64 L 19584.7,7970.95 L 19844.1,7612.51 L 19870,7631.32 L 19597,8008.64 Z " />
<path stroke="none" fill="#0000ff" transform="matrix(0.05 0 0 0.05 -22 -39)" d="M 19579.8,6425.32 L 19595.4,6416.4 L 19610.9,6425.26 L 19606.2,7013.31 L 19590.4,7018.2 L 19575.1,7006.98 L 19579.8,6425.32 Z " />
<text x="0" y="0" stroke="none" fill="#0000ff" transform="matrix(0.05 0 0 0.05 978.728 271.747)" font-style="normal" font-weight="normal" font-size="280px" font-family="Chalkboard" >
OH</text>
<text x="0" y="0" stroke="none" fill="#0000ff" transform="matrix(0.05 0 0 0.05 997.601 275.707)" font-style="normal" font-weight="normal" font-size="210px" font-family="Chalkboard" >
2</text>
<path stroke="none" fill="#0000ff" transform="matrix(0.05 0 0 0.05 -22 -39)" d="M 19610.9,6425.26 L 19595.4,6416.4 L 19595.6,6398.58 L 19986.9,6173.96 L 20002.8,6201.73 L 19610.9,6425.26 Z " />
<path stroke="#0000ff" stroke-width="26" fill="none" transform="matrix(0.05 0 0 0.05 -22 -39)" d="M 20003.9,5859.27 A 105.8,105.8 0 1 0 20215.5,5859.27A 105.8,105.8 0 1 0 20003.9,5859.27Z " />
<path stroke="none" fill="#0000ff" transform="matrix(0.05 0 0 0.05 -22 -39)" d="M 20047.3,5846.6 L 20172.7,5846.6 L 20172.7,5872.6 L 20047.3,5872.6 Z " />
<path stroke="none" fill="#0000ff" transform="matrix(0.05 0 0 0.05 -22 -39)" d="M 20123,5796.93 L 20123,5922.27 L 20097,5922.27 L 20097,5796.93 Z " />
<path stroke="#0000ff" stroke-width="32" fill="none" transform="matrix(0.05 0 0 0.05 -22 -39)" d="M 19730.2,6665.49 C 20024.5,7254.22 20741.3,7493.25 21330.2,7199 C 21526.3,7100.98 21694.4,6947.77 21810.1,6761.52 " />
<path stroke="none" fill="#0000ff" transform="matrix(0.05 0 0 0.05 -22 -39)" d="M 19648.1,6452.18 C 19648.1,6452.18 19803.9,6671.49 19803.9,6671.49 C 19803.9,6671.49 19757.9,6654.56 19730.2,6665.49 C 19702.6,6676.41 19680,6720.43 19680,6720.43 C 19680,6720.43 19648.1,6452.18 19648.1,6452.18 C 19648.1,6452.18 19648.1,6452.18 19648.1,6452.18 " />
<path stroke="#0000ff" stroke-width="1" fill="none" transform="matrix(0.05 0 0 0.05 -22 -39)" d="M 19648.1,6452.18 C 19648.1,6452.18 19803.9,6671.49 19803.9,6671.49 C 19803.9,6671.49 19757.9,6654.56 19730.2,6665.49 C 19702.6,6676.41 19680,6720.43 19680,6720.43 C 19680,6720.43 19648.1,6452.18 19648.1,6452.18 C 19648.1,6452.18 19648.1,6452.18 19648.1,6452.18 " />
<text x="0" y="0" stroke="none" fill="#0000ff" transform="matrix(0.05 0 0 0.05 1117.91 229.387)" font-style="normal" font-weight="normal" font-size="280px" font-family="Chalkboard" >
HO</text>
<text x="0" y="0" stroke="none" fill="#0000ff" transform="matrix(0.05 0 0 0.05 1333.55 227.387)" font-style="normal" font-weight="normal" font-size="280px" font-family="Chalkboard" >
OH</text>
<path stroke="none" fill="#0000ff" transform="matrix(0.05 0 0 0.05 -22 -39)" d="M 24629.1,6141.82 L 24613.6,6150.8 L 24598.1,6141.82 L 24598.1,5579.98 L 24630.1,5561.47 L 24629.1,6141.82 Z " />
<path stroke="none" fill="#0000ff" transform="matrix(0.05 0 0 0.05 -22 -39)" d="M 24598.1,6141.82 L 24613.6,6150.8 L 24613.6,6168.72 L 24094.1,6469.48 L 24093.5,6432.82 L 24598.1,6141.82 Z " />
<path stroke="none" fill="#0000ff" transform="matrix(0.05 0 0 0.05 -22 -39)" d="M 24515.6,6084.95 L 24531.6,6112.67 L 24100.3,6361.43 L 24084.3,6333.71 L 24515.6,6084.95 Z " />
<path stroke="none" fill="#0000ff" transform="matrix(0.05 0 0 0.05 -22 -39)" d="M 24093.5,6432.82 L 24094.1,6469.48 L 23557.5,6180.68 L 23589.5,6161.55 L 24093.5,6432.82 Z " />
<path stroke="none" fill="#0000ff" transform="matrix(0.05 0 0 0.05 -22 -39)" d="M 23589.5,6161.55 L 23557.5,6180.68 L 23558.5,5579.61 L 23574,5571 L 23589.5,5579.97 L 23589.5,6161.55 Z " />
<path stroke="none" fill="#0000ff" transform="matrix(0.05 0 0 0.05 -22 -39)" d="M 23680,6117.05 L 23648,6117.05 L 23648,5622.97 L 23680,5622.97 L 23680,6117.05 Z " />
<path stroke="none" fill="#0000ff" transform="matrix(0.05 0 0 0.05 -22 -39)" d="M 23589.5,5579.97 L 23574,5571 L 23574,5553.09 L 24093.8,5252.14 L 24093.8,5289.12 L 23589.5,5579.97 Z " />
<path stroke="none" fill="#0000ff" transform="matrix(0.05 0 0 0.05 -22 -39)" d="M 24630.1,5561.47 L 24598.1,5579.98 L 24093.8,5289.12 L 24093.8,5252.14 L 24630.1,5561.47 Z " />
<path stroke="none" fill="#0000ff" transform="matrix(0.05 0 0 0.05 -22 -39)" d="M 24531.6,5609.13 L 24515.6,5636.85 L 24085.8,5388.97 L 24101.8,5361.25 L 24531.6,5609.13 Z " />
<path stroke="none" fill="#0000ff" transform="matrix(0.05 0 0 0.05 -22 -39)" d="M 25133.5,6432.75 L 25133.4,6450.6 L 25117.8,6459.52 L 24613.6,6168.72 L 24613.6,6150.8 L 24629.1,6141.82 L 25133.5,6432.75 Z " />
<path stroke="none" fill="#0000ff" transform="matrix(0.05 0 0 0.05 -22 -39)" d="M 23574,5553.09 L 23574,5571 L 23558.5,5579.61 L 23173.8,5349.71 L 23190.3,5322.26 L 23574,5553.09 Z " />
<path stroke="none" fill="#0000ff" transform="matrix(0.05 0 0 0.05 -22 -39)" d="M 25673.1,6168.65 L 25673.2,6150.8 L 25688.7,6141.83 L 26193,6432.68 L 26193,6469.66 L 25673.1,6168.65 Z " />
<path stroke="none" fill="#0000ff" transform="matrix(0.05 0 0 0.05 -22 -39)" d="M 25755.2,6112.67 L 25771.2,6084.95 L 26201,6332.83 L 26185,6360.55 L 25755.2,6112.67 Z " />
<path stroke="none" fill="#0000ff" transform="matrix(0.05 0 0 0.05 -22 -39)" d="M 25688.7,6141.83 L 25673.2,6150.8 L 25657.7,6141.65 L 25656.7,5541.46 L 25688.7,5559.97 L 25688.7,6141.83 Z " />
<path stroke="none" fill="#0000ff" transform="matrix(0.05 0 0 0.05 -22 -39)" d="M 25688.7,5559.97 L 25656.7,5541.46 L 26193,5232.14 L 26193,5269.12 L 25688.7,5559.97 Z " />
<path stroke="none" fill="#0000ff" transform="matrix(0.05 0 0 0.05 -22 -39)" d="M 25771.2,5616.85 L 25755.2,5589.13 L 26185,5341.25 L 26201,5368.97 L 25771.2,5616.85 Z " />
<path stroke="none" fill="#0000ff" transform="matrix(0.05 0 0 0.05 -22 -39)" d="M 26193,5269.12 L 26193,5232.14 L 26712.6,5532.96 L 26712.8,5551 L 26697.3,5559.97 L 26193,5269.12 Z " />
<path stroke="none" fill="#0000ff" transform="matrix(0.05 0 0 0.05 -22 -39)" d="M 26697.3,5559.97 L 26712.8,5551 L 26728.4,5559.32 L 26729.3,6160.34 L 26697.3,6141.83 L 26697.3,5559.97 Z " />
<path stroke="none" fill="#0000ff" transform="matrix(0.05 0 0 0.05 -22 -39)" d="M 26606.8,5602.97 L 26638.8,5602.97 L 26638.8,6098.83 L 26606.8,6098.83 L 26606.8,5602.97 Z " />
<path stroke="none" fill="#0000ff" transform="matrix(0.05 0 0 0.05 -22 -39)" d="M 26193,6469.66 L 26193,6432.68 L 26697.3,6141.83 L 26729.3,6160.34 L 26193,6469.66 Z " />
<path stroke="none" fill="#0000ff" transform="matrix(0.05 0 0 0.05 -22 -39)" d="M 25148.8,6459.79 L 25133.4,6450.6 L 25133.5,6432.75 L 25657.7,6141.65 L 25673.2,6150.8 L 25673.1,6168.65 L 25148.8,6459.79 Z " />
<path stroke="none" fill="#0000ff" transform="matrix(0.05 0 0 0.05 -22 -39)" d="M 26728.4,5559.32 L 26712.8,5551 L 26712.6,5532.96 L 27085.5,5293.55 L 27102.7,5320.51 L 26728.4,5559.32 Z " />
<text x="0" y="0" stroke="none" fill="#0000ff" transform="matrix(0.05 0 0 0.05 1238.61 395.527)" font-style="normal" font-weight="normal" font-size="280px" font-family="Chalkboard" >
O</text>
<text x="0" y="0" stroke="none" fill="#0000ff" transform="matrix(0.05 0 0 0.05 1246.97 342.727)" font-style="normal" font-weight="normal" font-size="280px" font-family="Chalkboard" >
O</text>
<path stroke="none" fill="#0000ff" transform="matrix(0.05 0 0 0.05 -22 -39)" d="M 25112.9,7041.37 L 25128.2,7052.6 L 25122.5,7070.66 L 24573,7249.19 L 24557.6,7238 L 24559.4,7220.99 L 25112.9,7041.37 Z " />
<path stroke="none" fill="#0000ff" transform="matrix(0.05 0 0 0.05 -22 -39)" d="M 24542.1,7246.96 L 24557.6,7238 L 24573,7249.19 L 24573,7826.81 L 24557.6,7838 L 24542.1,7829.04 L 24542.1,7246.96 Z " />
<path stroke="none" fill="#0000ff" transform="matrix(0.05 0 0 0.05 -22 -39)" d="M 24559.4,7855.01 L 24557.6,7838 L 24573,7826.81 L 25122.5,8005.35 L 25134.8,8043.04 L 24559.4,7855.01 Z " />
<path stroke="none" fill="#0000ff" transform="matrix(0.05 0 0 0.05 -22 -39)" d="M 24542.1,7829.04 L 24557.6,7838 L 24559.4,7855.01 L 24038,8157.06 L 24038,8120.08 L 24542.1,7829.04 Z " />
<path stroke="none" fill="#0000ff" transform="matrix(0.05 0 0 0.05 -22 -39)" d="M 24459.6,7772.18 L 24475.6,7799.9 L 24046,8047.93 L 24030,8020.22 L 24459.6,7772.18 Z " />
<path stroke="none" fill="#0000ff" transform="matrix(0.05 0 0 0.05 -22 -39)" d="M 24038,8120.08 L 24038,8157.06 L 23501.9,7847.53 L 23533.9,7829.04 L 24038,8120.08 Z " />
<path stroke="none" fill="#0000ff" transform="matrix(0.05 0 0 0.05 -22 -39)" d="M 23533.9,7829.04 L 23501.9,7847.53 L 23501.9,7228.47 L 23533.9,7246.96 L 23533.9,7829.04 Z " />
<path stroke="none" fill="#0000ff" transform="matrix(0.05 0 0 0.05 -22 -39)" d="M 23624.4,7786.04 L 23592.4,7786.04 L 23592.4,7289.96 L 23624.4,7289.96 L 23624.4,7786.04 Z " />
<path stroke="none" fill="#0000ff" transform="matrix(0.05 0 0 0.05 -22 -39)" d="M 23533.9,7246.96 L 23501.9,7228.47 L 24038,6918.94 L 24038,6955.92 L 23533.9,7246.96 Z " />
<path stroke="none" fill="#0000ff" transform="matrix(0.05 0 0 0.05 -22 -39)" d="M 24559.4,7220.99 L 24557.6,7238 L 24542.1,7246.96 L 24038,6955.92 L 24038,6918.94 L 24559.4,7220.99 Z " />
<path stroke="none" fill="#0000ff" transform="matrix(0.05 0 0 0.05 -22 -39)" d="M 24475.6,7276.1 L 24459.6,7303.82 L 24030,7055.78 L 24046,7028.07 L 24475.6,7276.1 Z " />
<path stroke="none" fill="#0000ff" transform="matrix(0.05 0 0 0.05 -22 -39)" d="M 25145.7,7983.37 L 25176.1,7973.47 L 25330.2,8447.13 L 25299.7,8457.03 L 25145.7,7983.37 Z " />
<path stroke="none" fill="#0000ff" transform="matrix(0.05 0 0 0.05 -22 -39)" d="M 25060.1,8011.16 L 25090.5,8001.26 L 25244.6,8474.97 L 25214.2,8484.87 L 25060.1,8011.16 Z " />
<path stroke="none" fill="#0000ff" transform="matrix(0.05 0 0 0.05 -22 -39)" d="M 25122.5,7070.66 L 25128.2,7052.6 L 25144,7047.71 L 25416.3,7421.81 L 25390.4,7440.62 L 25122.5,7070.66 Z " />
<path stroke="none" fill="#0000ff" transform="matrix(0.05 0 0 0.05 -22 -39)" d="M 25134.8,8043.04 L 25122.5,8005.35 L 25382.1,7646.89 L 25408,7665.7 L 25134.8,8043.04 Z " />
<path stroke="none" fill="#0000ff" transform="matrix(0.05 0 0 0.05 -22 -39)" d="M 25117.8,6459.52 L 25133.4,6450.6 L 25148.8,6459.79 L 25144,7047.71 L 25128.2,7052.6 L 25112.9,7041.37 L 25117.8,6459.52 Z " />
</svg>
