<?xml version="1.0" standalone="no" ?>
<!DOCTYPE svg PUBLIC "-//W3C//DTD SVG 1.1//EN" "http://www.w3.org/Graphics/SVG/1.1/DTD/svg11.dtd">
<svg width="920px" height="325px" viewBox="0 0 920 325" style="background-color: #ffffff00" xmlns="http://www.w3.org/2000/svg" xmlns:xlink="http://www.w3.org/1999/xlink" version="1.1" >
<path stroke="none" fill="#0000ff" transform="matrix(0.05 0 0 0.05 -26 -97)" d="M 2519.33,3278.06 L 2534.86,3269.28 L 2550.39,3278.24 L 2550.39,3860.32 L 2518.36,3878.81 L 2519.33,3278.06 Z " />
<path stroke="none" fill="#0000ff" transform="matrix(0.05 0 0 0.05 -26 -97)" d="M 2608.86,3321.24 L 2640.86,3321.24 L 2640.86,3817.32 L 2608.86,3817.32 L 2608.86,3321.24 Z " />
<path stroke="none" fill="#0000ff" transform="matrix(0.05 0 0 0.05 -26 -97)" d="M 2518.36,3878.81 L 2550.39,3860.32 L 3054.48,4151.36 L 3054.48,4169.28 L 3039.09,4178.33 L 2518.36,3878.81 Z " />
<path stroke="none" fill="#0000ff" transform="matrix(0.05 0 0 0.05 -26 -97)" d="M 3069.87,4178.33 L 3054.48,4169.28 L 3054.48,4151.36 L 3558.57,3860.32 L 3590.6,3878.81 L 3069.87,4178.33 Z " />
<path stroke="none" fill="#0000ff" transform="matrix(0.05 0 0 0.05 -26 -97)" d="M 3062.48,4079.21 L 3046.48,4051.5 L 3476.1,3803.46 L 3492.1,3831.17 L 3062.48,4079.21 Z " />
<path stroke="none" fill="#0000ff" transform="matrix(0.05 0 0 0.05 -26 -97)" d="M 3590.6,3878.81 L 3558.57,3860.32 L 3558.57,3278.24 L 3574.1,3269.28 L 3589.63,3278.06 L 3590.6,3878.81 Z " />
<path stroke="none" fill="#0000ff" transform="matrix(0.05 0 0 0.05 -26 -97)" d="M 3574.26,3251.44 L 3574.1,3269.28 L 3558.57,3278.24 L 3054.48,2987.2 L 3054.48,2969.28 L 3069.87,2960.23 L 3574.26,3251.44 Z " />
<path stroke="none" fill="#0000ff" transform="matrix(0.05 0 0 0.05 -26 -97)" d="M 3492.1,3307.39 L 3476.1,3335.1 L 3046.48,3087.06 L 3062.48,3059.35 L 3492.1,3307.39 Z " />
<path stroke="none" fill="#0000ff" transform="matrix(0.05 0 0 0.05 -26 -97)" d="M 3039.09,2960.23 L 3054.48,2969.28 L 3054.48,2987.2 L 2550.39,3278.24 L 2534.86,3269.28 L 2534.7,3251.44 L 3039.09,2960.23 Z " />
<text x="0" y="0" stroke="none" fill="#0000ff" transform="matrix(0.05 0 0 0.05 123.387 25.7677)" font-style="normal" font-weight="normal" font-size="240px" font-family="Helvetica" >
LG</text>
<path stroke="none" fill="#0000ff" transform="matrix(0.05 0 0 0.05 -26 -97)" d="M 3069.87,2960.23 L 3054.48,2969.28 L 3039.09,2960.23 L 3038.48,2497.86 L 3070.48,2497.86 L 3069.87,2960.23 Z " />
<text x="0" y="0" stroke="none" fill="#0000ff" transform="matrix(0.05 0 0 0.05 175.02 55.7677)" font-style="normal" font-weight="normal" font-size="240px" font-family="Helvetica" >
Z</text>
<path stroke="none" fill="#0000ff" transform="matrix(0.05 0 0 0.05 -26 -97)" d="M 3589.63,3278.06 L 3574.1,3269.28 L 3574.26,3251.44 L 3962.27,3026.69 L 3978.27,3054.41 L 3589.63,3278.06 Z " />
<text x="0" y="0" stroke="none" fill="#0000ff" transform="matrix(0.05 0 0 0.05 71.0974 55.7677)" font-style="normal" font-weight="normal" font-size="240px" font-family="Helvetica" >
Z</text>
<path stroke="none" fill="#0000ff" transform="matrix(0.05 0 0 0.05 -26 -97)" d="M 2534.7,3251.44 L 2534.86,3269.28 L 2519.33,3278.06 L 2129.5,3053.72 L 2145.5,3026.01 L 2534.7,3251.44 Z " />
<text x="0" y="0" stroke="none" fill="#0000ff" transform="matrix(0.05 0 0 0.05 123.059 145.768)" font-style="normal" font-weight="normal" font-size="240px" font-family="Helvetica" >
Z</text>
<path stroke="none" fill="#0000ff" transform="matrix(0.05 0 0 0.05 -26 -97)" d="M 3039.09,4178.33 L 3054.48,4169.28 L 3069.87,4178.33 L 3070.48,4643.21 L 3038.48,4643.21 L 3039.09,4178.33 Z " />
<path stroke="none" fill="#0000ff" transform="matrix(0.05 0 0 0.05 -26 -97)" d="M 6035.88,3550.96 L 4684.68,3550.96 L 4684.68,3518.96 L 6035.88,3518.96 Z " />
<path stroke="none" fill="#0000ff" transform="matrix(0.05 0 0 0.05 -26 -97)" d="M 6314.88,3534.96 C 6314.88,3534.96 5994.88,3615.96 5994.88,3615.96 C 5994.88,3615.96 6034.88,3570.4 6034.88,3534.96 C 6034.88,3499.09 5994.88,3452.96 5994.88,3452.96 C 5994.88,3452.96 6314.88,3534.96 6314.88,3534.96 C 6314.88,3534.96 6314.88,3534.96 6314.88,3534.96 " />
<path stroke="#0000ff" stroke-width="1" fill="none" transform="matrix(0.05 0 0 0.05 -26 -97)" d="M 6314.88,3534.96 C 6314.88,3534.96 5994.88,3615.96 5994.88,3615.96 C 5994.88,3615.96 6034.88,3570.4 6034.88,3534.96 C 6034.88,3499.09 5994.88,3452.96 5994.88,3452.96 C 5994.88,3452.96 6314.88,3534.96 6314.88,3534.96 C 6314.88,3534.96 6314.88,3534.96 6314.88,3534.96 " />
<text x="0" y="0" stroke="none" fill="#0000ff" transform="matrix(0.05 0 0 0.05 233.116 69.452)" font-style="normal" font-weight="normal" font-size="280px" font-family="Chalkboard" >
Nu</text>
<text x="0" y="0" stroke="none" fill="#0000ff" transform="matrix(0.05 0 0 0.05 249.699 64.6255)" font-style="normal" font-weight="normal" font-size="210px" font-family="Chalkboard" >
-</text>
<path stroke="#0000ff" stroke-width="32" fill="none" transform="matrix(0.05 0 0 0.05 -26 -97)" d="M 5255.1,2989.4 C 4755.16,2408.72 3874.73,2317.16 3286.12,2784.65 " />
<path stroke="none" fill="#0000ff" transform="matrix(0.05 0 0 0.05 -26 -97)" d="M 3123.12,2934.36 C 3123.12,2934.36 3265.63,2715.69 3265.63,2715.69 C 3265.63,2715.69 3267.19,2764.08 3286.12,2784.65 C 3305.04,2805.21 3353.18,2810.83 3353.18,2810.83 C 3353.18,2810.83 3123.12,2934.36 3123.12,2934.36 C 3123.12,2934.36 3123.12,2934.36 3123.12,2934.36 " />
<path stroke="#0000ff" stroke-width="1" fill="none" transform="matrix(0.05 0 0 0.05 -26 -97)" d="M 3123.12,2934.36 C 3123.12,2934.36 3265.63,2715.69 3265.63,2715.69 C 3265.63,2715.69 3267.19,2764.08 3286.12,2784.65 C 3305.04,2805.21 3353.18,2810.83 3353.18,2810.83 C 3353.18,2810.83 3123.12,2934.36 3123.12,2934.36 C 3123.12,2934.36 3123.12,2934.36 3123.12,2934.36 " />
<path stroke="#0000ff" stroke-width="32" fill="none" transform="matrix(0.05 0 0 0.05 -26 -97)" d="M 3123.12,3174.6 C 3075.76,3274.05 3118.05,3393.22 3217.5,3440.58 C 3248.95,3455.56 3284.36,3462.1 3319.09,3459.34 " />
<path stroke="none" fill="#0000ff" transform="matrix(0.05 0 0 0.05 -26 -97)" d="M 3483.48,3346.2 C 3483.48,3346.2 3328.93,3523.47 3328.93,3523.47 C 3328.93,3523.47 3332.07,3478.04 3319.09,3459.34 C 3306.1,3440.64 3262.27,3427.53 3262.27,3427.53 C 3262.27,3427.53 3483.48,3346.2 3483.48,3346.2 C 3483.48,3346.2 3483.48,3346.2 3483.48,3346.2 " />
<path stroke="#0000ff" stroke-width="1" fill="none" transform="matrix(0.05 0 0 0.05 -26 -97)" d="M 3483.48,3346.2 C 3483.48,3346.2 3328.93,3523.47 3328.93,3523.47 C 3328.93,3523.47 3332.07,3478.04 3319.09,3459.34 C 3306.1,3440.64 3262.27,3427.53 3262.27,3427.53 C 3262.27,3427.53 3483.48,3346.2 3483.48,3346.2 C 3483.48,3346.2 3483.48,3346.2 3483.48,3346.2 " />
<path stroke="none" fill="#0000ff" transform="matrix(0.05 0 0 0.05 -26 -97)" d="M 7341.29,3310.79 L 7356.82,3302.01 L 7372.35,3310.97 L 7372.35,3893.05 L 7340.32,3911.54 L 7341.29,3310.79 Z " />
<path stroke="none" fill="#0000ff" transform="matrix(0.05 0 0 0.05 -26 -97)" d="M 7430.82,3353.97 L 7462.82,3353.97 L 7462.82,3850.05 L 7430.82,3850.05 L 7430.82,3353.97 Z " />
<path stroke="none" fill="#0000ff" transform="matrix(0.05 0 0 0.05 -26 -97)" d="M 7340.32,3911.54 L 7372.35,3893.05 L 7876.44,4184.09 L 7876.44,4202.01 L 7861.05,4211.06 L 7340.32,3911.54 Z " />
<path stroke="none" fill="#0000ff" transform="matrix(0.05 0 0 0.05 -26 -97)" d="M 7891.83,4211.06 L 7876.44,4202.01 L 7876.44,4184.09 L 8380.53,3893.05 L 8412.56,3911.54 L 7891.83,4211.06 Z " />
<path stroke="none" fill="#0000ff" transform="matrix(0.05 0 0 0.05 -26 -97)" d="M 7884.44,4111.95 L 7868.44,4084.23 L 8298.06,3836.2 L 8314.06,3863.91 L 7884.44,4111.95 Z " />
<path stroke="none" fill="#0000ff" transform="matrix(0.05 0 0 0.05 -26 -97)" d="M 8412.56,3911.54 L 8380.53,3893.05 L 8380.53,3310.97 L 8396.06,3302.01 L 8411.59,3310.79 L 8412.56,3911.54 Z " />
<path stroke="none" fill="#0000ff" transform="matrix(0.05 0 0 0.05 -26 -97)" d="M 8396.22,3284.17 L 8396.06,3302.01 L 8380.53,3310.97 L 7876.44,3019.94 L 7876.44,3002.01 L 7898.89,2997.56 L 8396.22,3284.17 Z " />
<path stroke="none" fill="#0000ff" transform="matrix(0.05 0 0 0.05 -26 -97)" d="M 7861.05,2992.96 L 7876.44,3002.01 L 7876.44,3019.94 L 7372.35,3310.97 L 7356.82,3302.01 L 7356.66,3284.17 L 7861.05,2992.96 Z " />
<text x="0" y="0" stroke="none" fill="#0000ff" transform="matrix(0.05 0 0 0.05 364.485 27.4044)" font-style="normal" font-weight="normal" font-size="240px" font-family="Helvetica" >
LG</text>
<path stroke="none" fill="#0000ff" transform="matrix(0.05 0 0 0.05 -26 -97)" d="M 7889.86,2963.92 L 7876.44,3002.01 L 7861.05,2992.96 L 7860.44,2529.59 L 7892.44,2529.59 L 7889.86,2963.92 Z " />
<text x="0" y="0" stroke="none" fill="#0000ff" transform="matrix(0.05 0 0 0.05 416.118 57.4044)" font-style="normal" font-weight="normal" font-size="240px" font-family="Helvetica" >
Z</text>
<path stroke="none" fill="#0000ff" transform="matrix(0.05 0 0 0.05 -26 -97)" d="M 8411.59,3310.79 L 8396.06,3302.01 L 8396.22,3284.17 L 8784.23,3059.43 L 8800.23,3087.14 L 8411.59,3310.79 Z " />
<text x="0" y="0" stroke="none" fill="#0000ff" transform="matrix(0.05 0 0 0.05 312.195 57.4044)" font-style="normal" font-weight="normal" font-size="240px" font-family="Helvetica" >
Z</text>
<path stroke="none" fill="#0000ff" transform="matrix(0.05 0 0 0.05 -26 -97)" d="M 7356.66,3284.17 L 7356.82,3302.01 L 7341.29,3310.79 L 6951.46,3086.45 L 6967.46,3058.74 L 7356.66,3284.17 Z " />
<text x="0" y="0" stroke="none" fill="#0000ff" transform="matrix(0.05 0 0 0.05 364.157 147.404)" font-style="normal" font-weight="normal" font-size="240px" font-family="Helvetica" >
Z</text>
<path stroke="none" fill="#0000ff" transform="matrix(0.05 0 0 0.05 -26 -97)" d="M 7861.05,4211.06 L 7876.44,4202.01 L 7891.83,4211.06 L 7892.44,4675.94 L 7860.44,4675.94 L 7861.05,4211.06 Z " />
<text x="0" y="0" stroke="none" fill="#0000ff" transform="matrix(0.05 0 0 0.05 382.214 33.9655)" font-style="normal" font-weight="normal" font-size="240px" font-family="Helvetica" >
Nu</text>
<path stroke="none" fill="#0000ff" transform="matrix(0.05 0 0 0.05 -26 -97)" d="M 7898.89,2997.56 L 7876.44,3002.01 L 7889.86,2963.92 L 8145.03,2640.18 L 8170.03,2660.15 L 7898.89,2997.56 Z " />
<path stroke="none" fill="#0000ff" transform="matrix(0.05 0 0 0.05 -26 -97)" d="M 16727.8,3310.79 L 16743.3,3302.01 L 16758.9,3310.97 L 16758.9,3893.05 L 16726.8,3911.54 L 16727.8,3310.79 Z " />
<path stroke="none" fill="#0000ff" transform="matrix(0.05 0 0 0.05 -26 -97)" d="M 16817.3,3353.97 L 16849.3,3353.97 L 16849.3,3424.84 L 16817.3,3424.84 L 16817.3,3353.97 Z " />
<path stroke="none" fill="#0000ff" transform="matrix(0.05 0 0 0.05 -26 -97)" d="M 16817.3,3495.71 L 16849.3,3495.71 L 16849.3,3566.58 L 16817.3,3566.58 L 16817.3,3495.71 Z " />
<path stroke="none" fill="#0000ff" transform="matrix(0.05 0 0 0.05 -26 -97)" d="M 16817.3,3637.45 L 16849.3,3637.45 L 16849.3,3708.32 L 16817.3,3708.32 L 16817.3,3637.45 Z " />
<path stroke="none" fill="#0000ff" transform="matrix(0.05 0 0 0.05 -26 -97)" d="M 16817.3,3779.18 L 16849.3,3779.18 L 16849.3,3850.05 L 16817.3,3850.05 L 16817.3,3779.18 Z " />
<path stroke="none" fill="#0000ff" transform="matrix(0.05 0 0 0.05 -26 -97)" d="M 16726.8,3911.54 L 16758.9,3893.05 L 17263,4184.09 L 17263,4202.01 L 17247.6,4211.06 L 16726.8,3911.54 Z " />
<path stroke="none" fill="#0000ff" transform="matrix(0.05 0 0 0.05 -26 -97)" d="M 16825.3,3863.91 L 16841.3,3836.2 L 16902.7,3871.63 L 16886.7,3899.34 L 16825.3,3863.91 Z " />
<path stroke="none" fill="#0000ff" transform="matrix(0.05 0 0 0.05 -26 -97)" d="M 16948.1,3934.78 L 16964.1,3907.06 L 17025.5,3942.5 L 17009.5,3970.21 L 16948.1,3934.78 Z " />
<path stroke="none" fill="#0000ff" transform="matrix(0.05 0 0 0.05 -26 -97)" d="M 17070.8,4005.64 L 17086.8,3977.93 L 17148.2,4013.37 L 17132.2,4041.08 L 17070.8,4005.64 Z " />
<path stroke="none" fill="#0000ff" transform="matrix(0.05 0 0 0.05 -26 -97)" d="M 17193.6,4076.51 L 17209.6,4048.8 L 17271,4084.23 L 17255,4111.95 L 17193.6,4076.51 Z " />
<path stroke="none" fill="#0000ff" transform="matrix(0.05 0 0 0.05 -26 -97)" d="M 17278.3,4211.06 L 17263,4202.01 L 17263,4184.09 L 17767.1,3893.05 L 17799.1,3911.54 L 17278.3,4211.06 Z " />
<path stroke="none" fill="#0000ff" transform="matrix(0.05 0 0 0.05 -26 -97)" d="M 17271,4111.95 L 17255,4084.23 L 17316.3,4048.8 L 17332.3,4076.51 L 17271,4111.95 Z " />
<path stroke="none" fill="#0000ff" transform="matrix(0.05 0 0 0.05 -26 -97)" d="M 17393.7,4041.08 L 17377.7,4013.37 L 17439.1,3977.93 L 17455.1,4005.64 L 17393.7,4041.08 Z " />
<path stroke="none" fill="#0000ff" transform="matrix(0.05 0 0 0.05 -26 -97)" d="M 17516.5,3970.21 L 17500.5,3942.5 L 17561.8,3907.06 L 17577.8,3934.78 L 17516.5,3970.21 Z " />
<path stroke="none" fill="#0000ff" transform="matrix(0.05 0 0 0.05 -26 -97)" d="M 17639.2,3899.34 L 17623.2,3871.63 L 17684.6,3836.2 L 17700.6,3863.91 L 17639.2,3899.34 Z " />
<path stroke="none" fill="#0000ff" transform="matrix(0.05 0 0 0.05 -26 -97)" d="M 17799.1,3911.54 L 17767.1,3893.05 L 17767.1,3310.97 L 17782.6,3302.01 L 17798.1,3310.79 L 17799.1,3911.54 Z " />
<path stroke="none" fill="#0000ff" transform="matrix(0.05 0 0 0.05 -26 -97)" d="M 17708.6,3850.05 L 17676.6,3850.05 L 17676.6,3779.18 L 17708.6,3779.18 L 17708.6,3850.05 Z " />
<path stroke="none" fill="#0000ff" transform="matrix(0.05 0 0 0.05 -26 -97)" d="M 17708.6,3708.32 L 17676.6,3708.32 L 17676.6,3637.45 L 17708.6,3637.45 L 17708.6,3708.32 Z " />
<path stroke="none" fill="#0000ff" transform="matrix(0.05 0 0 0.05 -26 -97)" d="M 17708.6,3566.58 L 17676.6,3566.58 L 17676.6,3495.71 L 17708.6,3495.71 L 17708.6,3566.58 Z " />
<path stroke="none" fill="#0000ff" transform="matrix(0.05 0 0 0.05 -26 -97)" d="M 17708.6,3424.84 L 17676.6,3424.84 L 17676.6,3353.97 L 17708.6,3353.97 L 17708.6,3424.84 Z " />
<path stroke="none" fill="#0000ff" transform="matrix(0.05 0 0 0.05 -26 -97)" d="M 17782.7,3284.17 L 17782.6,3302.01 L 17767.1,3310.97 L 17263,3019.94 L 17263,3002.01 L 17285.4,2997.56 L 17782.7,3284.17 Z " />
<path stroke="none" fill="#0000ff" transform="matrix(0.05 0 0 0.05 -26 -97)" d="M 17247.6,2992.96 L 17263,3002.01 L 17263,3019.94 L 16758.9,3310.97 L 16743.3,3302.01 L 16743.2,3284.17 L 17247.6,2992.96 Z " />
<text x="0" y="0" stroke="none" fill="#0000ff" transform="matrix(0.05 0 0 0.05 833.811 27.4044)" font-style="normal" font-weight="normal" font-size="240px" font-family="Helvetica" >
LG</text>
<path stroke="none" fill="#0000ff" transform="matrix(0.05 0 0 0.05 -26 -97)" d="M 17276.4,2963.93 L 17263,3002.01 L 17247.6,2992.96 L 17247,2529.59 L 17279,2529.59 L 17276.4,2963.93 Z " />
<text x="0" y="0" stroke="none" fill="#0000ff" transform="matrix(0.05 0 0 0.05 885.444 57.4044)" font-style="normal" font-weight="normal" font-size="240px" font-family="Helvetica" >
Z</text>
<path stroke="none" fill="#0000ff" transform="matrix(0.05 0 0 0.05 -26 -97)" d="M 17798.1,3310.79 L 17782.6,3302.01 L 17782.7,3284.17 L 18170.7,3059.43 L 18186.7,3087.14 L 17798.1,3310.79 Z " />
<text x="0" y="0" stroke="none" fill="#0000ff" transform="matrix(0.05 0 0 0.05 781.521 57.4044)" font-style="normal" font-weight="normal" font-size="240px" font-family="Helvetica" >
Z</text>
<path stroke="none" fill="#0000ff" transform="matrix(0.05 0 0 0.05 -26 -97)" d="M 16743.2,3284.17 L 16743.3,3302.01 L 16727.8,3310.79 L 16338,3086.45 L 16354,3058.74 L 16743.2,3284.17 Z " />
<text x="0" y="0" stroke="none" fill="#0000ff" transform="matrix(0.05 0 0 0.05 833.483 147.404)" font-style="normal" font-weight="normal" font-size="240px" font-family="Helvetica" >
Z</text>
<path stroke="none" fill="#0000ff" transform="matrix(0.05 0 0 0.05 -26 -97)" d="M 17247.6,4211.06 L 17263,4202.01 L 17278.3,4211.06 L 17279,4675.94 L 17247,4675.94 L 17247.6,4211.06 Z " />
<text x="0" y="0" stroke="none" fill="#0000ff" transform="matrix(0.05 0 0 0.05 851.54 33.9655)" font-style="normal" font-weight="normal" font-size="240px" font-family="Helvetica" >
Nu</text>
<path stroke="none" fill="#0000ff" transform="matrix(0.05 0 0 0.05 -26 -97)" d="M 17285.4,2997.56 L 17263,3002.01 L 17276.4,2963.93 L 17531.2,2640.66 L 17556.2,2660.64 L 17285.4,2997.56 Z " />
<text x="0" y="0" stroke="none" fill="#0000ff" transform="matrix(0.05 0 0 0.05 865.462 77.603)" font-style="normal" font-weight="normal" font-size="280px" font-family="Symbol" >
d</text>
<text x="0" y="0" stroke="none" fill="#0000ff" transform="matrix(0.05 0 0 0.05 873.248 77.603)" font-style="normal" font-weight="normal" font-size="280px" font-family="Helvetica" >
-</text>
<text x="0" y="0" stroke="none" fill="#0000ff" transform="matrix(0.05 0 0 0.05 838.006 121.361)" font-style="normal" font-weight="normal" font-size="280px" font-family="Symbol" >
d</text>
<text x="0" y="0" stroke="none" fill="#0000ff" transform="matrix(0.05 0 0 0.05 845.792 121.361)" font-style="normal" font-weight="normal" font-size="280px" font-family="Helvetica" >
-</text>
<text x="0" y="0" stroke="none" fill="#0000ff" transform="matrix(0.05 0 0 0.05 797.68 75.887)" font-style="normal" font-weight="normal" font-size="280px" font-family="Symbol" >
d</text>
<text x="0" y="0" stroke="none" fill="#0000ff" transform="matrix(0.05 0 0 0.05 805.466 75.887)" font-style="normal" font-weight="normal" font-size="280px" font-family="Helvetica" >
-</text>
<path stroke="#0000ff" stroke-width="26" fill="none" transform="matrix(0.05 0 0 0.05 -26 -97)" d="M 8320.73,3152.59 A 92.7999,92.7999 0 1 0 8506.33,3152.59A 92.7999,92.7999 0 1 0 8320.73,3152.59Z " />
<path stroke="none" fill="#0000ff" transform="matrix(0.05 0 0 0.05 -26 -97)" d="M 8357.53,3139.59 L 8469.53,3139.59 L 8469.53,3165.59 L 8357.53,3165.59 Z " />
<path stroke="none" fill="#0000ff" transform="matrix(0.05 0 0 0.05 -26 -97)" d="M 10155.5,3310.79 L 10171.1,3302.01 L 10186.6,3310.97 L 10186.6,3893.05 L 10154.6,3911.54 L 10155.5,3310.79 Z " />
<path stroke="none" fill="#0000ff" transform="matrix(0.05 0 0 0.05 -26 -97)" d="M 10245.1,3353.97 L 10277.1,3353.97 L 10277.1,3850.05 L 10245.1,3850.05 L 10245.1,3353.97 Z " />
<path stroke="none" fill="#0000ff" transform="matrix(0.05 0 0 0.05 -26 -97)" d="M 10154.6,3911.54 L 10186.6,3893.05 L 10690.7,4184.09 L 10690.7,4202.01 L 10675.3,4211.06 L 10154.6,3911.54 Z " />
<path stroke="none" fill="#0000ff" transform="matrix(0.05 0 0 0.05 -26 -97)" d="M 10706.1,4211.06 L 10690.7,4202.01 L 10690.7,4184.09 L 11194.8,3893.05 L 11226.8,3911.54 L 10706.1,4211.06 Z " />
<path stroke="none" fill="#0000ff" transform="matrix(0.05 0 0 0.05 -26 -97)" d="M 11226.8,3911.54 L 11194.8,3893.05 L 11194.8,3310.97 L 11210.3,3302.01 L 11225.8,3310.79 L 11226.8,3911.54 Z " />
<path stroke="none" fill="#0000ff" transform="matrix(0.05 0 0 0.05 -26 -97)" d="M 11136.3,3850.05 L 11104.3,3850.05 L 11104.3,3353.97 L 11136.3,3353.97 L 11136.3,3850.05 Z " />
<path stroke="none" fill="#0000ff" transform="matrix(0.05 0 0 0.05 -26 -97)" d="M 11210.5,3284.17 L 11210.3,3302.01 L 11194.8,3310.97 L 10690.7,3019.94 L 10690.7,3002.01 L 10713.1,2997.56 L 11210.5,3284.17 Z " />
<path stroke="none" fill="#0000ff" transform="matrix(0.05 0 0 0.05 -26 -97)" d="M 10675.3,2992.96 L 10690.7,3002.01 L 10690.7,3019.94 L 10186.6,3310.97 L 10171.1,3302.01 L 10170.9,3284.17 L 10675.3,2992.96 Z " />
<text x="0" y="0" stroke="none" fill="#0000ff" transform="matrix(0.05 0 0 0.05 505.197 27.4044)" font-style="normal" font-weight="normal" font-size="240px" font-family="Helvetica" >
LG</text>
<path stroke="none" fill="#0000ff" transform="matrix(0.05 0 0 0.05 -26 -97)" d="M 10704.1,2963.92 L 10690.7,3002.01 L 10675.3,2992.96 L 10674.7,2529.59 L 10706.7,2529.59 L 10704.1,2963.92 Z " />
<text x="0" y="0" stroke="none" fill="#0000ff" transform="matrix(0.05 0 0 0.05 556.83 57.4044)" font-style="normal" font-weight="normal" font-size="240px" font-family="Helvetica" >
Z</text>
<path stroke="none" fill="#0000ff" transform="matrix(0.05 0 0 0.05 -26 -97)" d="M 11225.8,3310.79 L 11210.3,3302.01 L 11210.5,3284.17 L 11598.5,3059.43 L 11614.5,3087.14 L 11225.8,3310.79 Z " />
<text x="0" y="0" stroke="none" fill="#0000ff" transform="matrix(0.05 0 0 0.05 452.907 57.4044)" font-style="normal" font-weight="normal" font-size="240px" font-family="Helvetica" >
Z</text>
<path stroke="none" fill="#0000ff" transform="matrix(0.05 0 0 0.05 -26 -97)" d="M 10170.9,3284.17 L 10171.1,3302.01 L 10155.5,3310.79 L 9765.7,3086.45 L 9781.7,3058.74 L 10170.9,3284.17 Z " />
<text x="0" y="0" stroke="none" fill="#0000ff" transform="matrix(0.05 0 0 0.05 504.869 147.404)" font-style="normal" font-weight="normal" font-size="240px" font-family="Helvetica" >
Z</text>
<path stroke="none" fill="#0000ff" transform="matrix(0.05 0 0 0.05 -26 -97)" d="M 10675.3,4211.06 L 10690.7,4202.01 L 10706.1,4211.06 L 10706.7,4675.94 L 10674.7,4675.94 L 10675.3,4211.06 Z " />
<text x="0" y="0" stroke="none" fill="#0000ff" transform="matrix(0.05 0 0 0.05 522.926 33.9655)" font-style="normal" font-weight="normal" font-size="240px" font-family="Helvetica" >
Nu</text>
<path stroke="none" fill="#0000ff" transform="matrix(0.05 0 0 0.05 -26 -97)" d="M 10713.1,2997.56 L 10690.7,3002.01 L 10704.1,2963.92 L 10959.3,2640.18 L 10984.3,2660.15 L 10713.1,2997.56 Z " />
<path stroke="#0000ff" stroke-width="26" fill="none" transform="matrix(0.05 0 0 0.05 -26 -97)" d="M 10757.4,4267.99 A 92.7999,92.7999 0 1 0 10943,4267.99A 92.7999,92.7999 0 1 0 10757.4,4267.99Z " />
<path stroke="none" fill="#0000ff" transform="matrix(0.05 0 0 0.05 -26 -97)" d="M 10794.2,4254.99 L 10906.2,4254.99 L 10906.2,4280.99 L 10794.2,4280.99 Z " />
<path stroke="none" fill="#0000ff" transform="matrix(0.05 0 0 0.05 -26 -97)" d="M 12952.6,3310.79 L 12968.1,3302.01 L 12983.7,3310.97 L 12983.7,3893.05 L 12951.6,3911.54 L 12952.6,3310.79 Z " />
<path stroke="none" fill="#0000ff" transform="matrix(0.05 0 0 0.05 -26 -97)" d="M 12951.6,3911.54 L 12983.7,3893.05 L 13487.8,4184.09 L 13487.8,4202.01 L 13472.4,4211.06 L 12951.6,3911.54 Z " />
<path stroke="none" fill="#0000ff" transform="matrix(0.05 0 0 0.05 -26 -97)" d="M 13050.1,3863.91 L 13066.1,3836.2 L 13495.8,4084.23 L 13479.8,4111.95 L 13050.1,3863.91 Z " />
<path stroke="none" fill="#0000ff" transform="matrix(0.05 0 0 0.05 -26 -97)" d="M 13503.1,4211.06 L 13487.8,4202.01 L 13487.8,4184.09 L 13991.9,3893.05 L 14023.9,3911.54 L 13503.1,4211.06 Z " />
<path stroke="none" fill="#0000ff" transform="matrix(0.05 0 0 0.05 -26 -97)" d="M 14023.9,3911.54 L 13991.9,3893.05 L 13991.9,3310.97 L 14007.4,3302.01 L 14022.9,3310.79 L 14023.9,3911.54 Z " />
<path stroke="none" fill="#0000ff" transform="matrix(0.05 0 0 0.05 -26 -97)" d="M 13933.4,3850.05 L 13901.4,3850.05 L 13901.4,3353.97 L 13933.4,3353.97 L 13933.4,3850.05 Z " />
<path stroke="none" fill="#0000ff" transform="matrix(0.05 0 0 0.05 -26 -97)" d="M 14007.5,3284.17 L 14007.4,3302.01 L 13991.9,3310.97 L 13487.8,3019.94 L 13487.8,3002.01 L 13510.2,2997.56 L 14007.5,3284.17 Z " />
<path stroke="none" fill="#0000ff" transform="matrix(0.05 0 0 0.05 -26 -97)" d="M 13472.4,2992.96 L 13487.8,3002.01 L 13487.8,3019.94 L 12983.7,3310.97 L 12968.1,3302.01 L 12968,3284.17 L 13472.4,2992.96 Z " />
<text x="0" y="0" stroke="none" fill="#0000ff" transform="matrix(0.05 0 0 0.05 645.051 27.4044)" font-style="normal" font-weight="normal" font-size="240px" font-family="Helvetica" >
LG</text>
<path stroke="none" fill="#0000ff" transform="matrix(0.05 0 0 0.05 -26 -97)" d="M 13501.2,2963.92 L 13487.8,3002.01 L 13472.4,2992.96 L 13471.8,2529.59 L 13503.8,2529.59 L 13501.2,2963.92 Z " />
<text x="0" y="0" stroke="none" fill="#0000ff" transform="matrix(0.05 0 0 0.05 696.684 57.4044)" font-style="normal" font-weight="normal" font-size="240px" font-family="Helvetica" >
Z</text>
<path stroke="none" fill="#0000ff" transform="matrix(0.05 0 0 0.05 -26 -97)" d="M 14022.9,3310.79 L 14007.4,3302.01 L 14007.5,3284.17 L 14395.5,3059.43 L 14411.5,3087.14 L 14022.9,3310.79 Z " />
<text x="0" y="0" stroke="none" fill="#0000ff" transform="matrix(0.05 0 0 0.05 592.761 57.4044)" font-style="normal" font-weight="normal" font-size="240px" font-family="Helvetica" >
Z</text>
<path stroke="none" fill="#0000ff" transform="matrix(0.05 0 0 0.05 -26 -97)" d="M 12968,3284.17 L 12968.1,3302.01 L 12952.6,3310.79 L 12562.8,3086.45 L 12578.8,3058.74 L 12968,3284.17 Z " />
<text x="0" y="0" stroke="none" fill="#0000ff" transform="matrix(0.05 0 0 0.05 644.723 147.404)" font-style="normal" font-weight="normal" font-size="240px" font-family="Helvetica" >
Z</text>
<path stroke="none" fill="#0000ff" transform="matrix(0.05 0 0 0.05 -26 -97)" d="M 13472.4,4211.06 L 13487.8,4202.01 L 13503.1,4211.06 L 13503.8,4675.94 L 13471.8,4675.94 L 13472.4,4211.06 Z " />
<text x="0" y="0" stroke="none" fill="#0000ff" transform="matrix(0.05 0 0 0.05 662.78 33.9655)" font-style="normal" font-weight="normal" font-size="240px" font-family="Helvetica" >
Nu</text>
<path stroke="none" fill="#0000ff" transform="matrix(0.05 0 0 0.05 -26 -97)" d="M 13510.2,2997.56 L 13487.8,3002.01 L 13501.2,2963.92 L 13756.3,2640.18 L 13781.3,2660.15 L 13510.2,2997.56 Z " />
<path stroke="#0000ff" stroke-width="26" fill="none" transform="matrix(0.05 0 0 0.05 -26 -97)" d="M 12713.7,3358.51 A 92.7999,92.7999 0 1 0 12899.3,3358.51A 92.7999,92.7999 0 1 0 12713.7,3358.51Z " />
<path stroke="none" fill="#0000ff" transform="matrix(0.05 0 0 0.05 -26 -97)" d="M 12750.5,3345.51 L 12862.5,3345.51 L 12862.5,3371.51 L 12750.5,3371.51 Z " />
<path stroke="none" fill="#0000ff" transform="matrix(0.05 0 0 0.05 -26 -97)" d="M 15118,3443.8 L 15118,3411.8 L 15718,3411.8 L 15718,3443.8 L 15118,3443.8 Z " />
<path stroke="none" fill="#0000ff" transform="matrix(0.05 0 0 0.05 -26 -97)" d="M 15118,3533.8 L 15118,3501.8 L 15718,3501.8 L 15718,3533.8 L 15118,3533.8 Z " />
<path stroke="none" fill="#0000ff" transform="matrix(0.05 0 0 0.05 -26 -97)" d="M 15118,3623.8 L 15118,3591.8 L 15718,3591.8 L 15718,3623.8 L 15118,3623.8 Z " />
<path stroke="#0000ff" stroke-width="32" fill="none" transform="matrix(0.05 0 0 0.05 -26 -97)" d="M 18405.2,2007.72 L 18618.6,2007.72 " />
<path stroke="#0000ff" stroke-width="32" fill="none" transform="matrix(0.05 0 0 0.05 -26 -97)" d="M 18618.6,2007.72 L 18618.6,4959.24 " />
<path stroke="#0000ff" stroke-width="32" fill="none" transform="matrix(0.05 0 0 0.05 -26 -97)" d="M 18618.6,4959.24 L 18405.2,4959.24 " />
<path stroke="#0000ff" stroke-width="32" fill="none" transform="matrix(0.05 0 0 0.05 -26 -97)" d="M 6699.63,4959.24 L 6486.21,4959.24 " />
<path stroke="#0000ff" stroke-width="32" fill="none" transform="matrix(0.05 0 0 0.05 -26 -97)" d="M 6486.21,4959.24 L 6486.21,2007.72 " />
<path stroke="#0000ff" stroke-width="32" fill="none" transform="matrix(0.05 0 0 0.05 -26 -97)" d="M 6486.21,2007.72 L 6699.63,2007.72 " />
<path stroke="none" fill="#0000ff" transform="matrix(0.05 0 0 0.05 -26 -97)" d="M 2519.33,6811.43 L 2534.86,6802.65 L 2550.39,6811.61 L 2550.39,7393.69 L 2518.36,7412.18 L 2519.33,6811.43 Z " />
<path stroke="none" fill="#0000ff" transform="matrix(0.05 0 0 0.05 -26 -97)" d="M 2608.86,6854.61 L 2640.86,6854.61 L 2640.86,7350.69 L 2608.86,7350.69 L 2608.86,6854.61 Z " />
<path stroke="none" fill="#0000ff" transform="matrix(0.05 0 0 0.05 -26 -97)" d="M 2518.36,7412.18 L 2550.39,7393.69 L 3054.48,7684.73 L 3054.48,7702.65 L 3039.09,7711.7 L 2518.36,7412.18 Z " />
<path stroke="none" fill="#0000ff" transform="matrix(0.05 0 0 0.05 -26 -97)" d="M 3069.87,7711.7 L 3054.48,7702.65 L 3054.48,7684.73 L 3558.57,7393.69 L 3590.6,7412.18 L 3069.87,7711.7 Z " />
<path stroke="none" fill="#0000ff" transform="matrix(0.05 0 0 0.05 -26 -97)" d="M 3062.48,7612.59 L 3046.48,7584.87 L 3476.1,7336.84 L 3492.09,7364.55 L 3062.48,7612.59 Z " />
<path stroke="none" fill="#0000ff" transform="matrix(0.05 0 0 0.05 -26 -97)" d="M 3590.6,7412.18 L 3558.57,7393.69 L 3558.57,6811.61 L 3574.09,6802.65 L 3589.63,6811.43 L 3590.6,7412.18 Z " />
<path stroke="none" fill="#0000ff" transform="matrix(0.05 0 0 0.05 -26 -97)" d="M 3574.26,6784.81 L 3574.09,6802.65 L 3558.57,6811.61 L 3054.48,6520.58 L 3054.48,6502.65 L 3076.92,6498.2 L 3574.26,6784.81 Z " />
<path stroke="none" fill="#0000ff" transform="matrix(0.05 0 0 0.05 -26 -97)" d="M 3039.09,6493.6 L 3054.48,6502.65 L 3054.48,6520.58 L 2550.39,6811.61 L 2534.86,6802.65 L 2534.7,6784.81 L 3039.09,6493.6 Z " />
<text x="0" y="0" stroke="none" fill="#0000ff" transform="matrix(0.05 0 0 0.05 123.059 202.451)" font-style="normal" font-weight="bold" font-size="240px" font-family="Helvetica" >
LG</text>
<path stroke="none" fill="#0000ff" transform="matrix(0.05 0 0 0.05 -26 -97)" d="M 3067.9,6464.57 L 3054.48,6502.65 L 3039.09,6493.6 L 3038.48,6030.06 L 3070.48,6030.06 L 3067.9,6464.57 Z " />
<text x="0" y="0" stroke="none" fill="#0000ff" transform="matrix(0.05 0 0 0.05 175.02 232.451)" font-style="normal" font-weight="bold" font-size="240px" font-family="Helvetica" >
Z</text>
<path stroke="none" fill="#0000ff" transform="matrix(0.05 0 0 0.05 -26 -97)" d="M 3589.63,6811.43 L 3574.09,6802.65 L 3574.26,6784.81 L 3962.83,6559.74 L 3978.83,6587.45 L 3589.63,6811.43 Z " />
<text x="0" y="0" stroke="none" fill="#0000ff" transform="matrix(0.05 0 0 0.05 71.0974 232.451)" font-style="normal" font-weight="bold" font-size="240px" font-family="Helvetica" >
Z</text>
<path stroke="none" fill="#0000ff" transform="matrix(0.05 0 0 0.05 -26 -97)" d="M 2534.7,6784.81 L 2534.86,6802.65 L 2519.33,6811.43 L 2129.07,6586.84 L 2145.06,6559.13 L 2534.7,6784.81 Z " />
<text x="0" y="0" stroke="none" fill="#0000ff" transform="matrix(0.05 0 0 0.05 123.059 322.451)" font-style="normal" font-weight="bold" font-size="240px" font-family="Helvetica" >
Z</text>
<path stroke="none" fill="#0000ff" transform="matrix(0.05 0 0 0.05 -26 -97)" d="M 3039.09,7711.7 L 3054.48,7702.65 L 3069.87,7711.7 L 3070.48,8175.29 L 3038.48,8175.29 L 3039.09,7711.7 Z " />
<text x="0" y="0" stroke="none" fill="#0000ff" transform="matrix(0.05 0 0 0.05 141.116 209.012)" font-style="normal" font-weight="bold" font-size="240px" font-family="Helvetica" >
Nu</text>
<path stroke="none" fill="#0000ff" transform="matrix(0.05 0 0 0.05 -26 -97)" d="M 3076.92,6498.2 L 3054.48,6502.65 L 3067.9,6464.57 L 3322.49,6141.53 L 3347.5,6161.51 L 3076.92,6498.2 Z " />
<path stroke="#0000ff" stroke-width="26" fill="none" transform="matrix(0.05 0 0 0.05 -26 -97)" d="M 3498.77,6653.23 A 92.7999,92.7999 0 1 0 3684.37,6653.23A 92.7999,92.7999 0 1 0 3498.77,6653.23Z " />
<path stroke="none" fill="#0000ff" transform="matrix(0.05 0 0 0.05 -26 -97)" d="M 3535.57,6640.23 L 3647.57,6640.23 L 3647.57,6666.23 L 3535.57,6666.23 Z " />
<path stroke="none" fill="#0000ff" transform="matrix(0.05 0 0 0.05 -26 -97)" d="M 6035.88,7068.76 L 4684.68,7068.76 L 4684.68,7036.76 L 6035.88,7036.76 Z " />
<path stroke="none" fill="#0000ff" transform="matrix(0.05 0 0 0.05 -26 -97)" d="M 6314.88,7052.76 C 6314.88,7052.76 5994.88,7133.76 5994.88,7133.76 C 5994.88,7133.76 6034.88,7088.2 6034.88,7052.76 C 6034.88,7016.88 5994.88,6970.76 5994.88,6970.76 C 5994.88,6970.76 6314.88,7052.76 6314.88,7052.76 C 6314.88,7052.76 6314.88,7052.76 6314.88,7052.76 " />
<path stroke="#0000ff" stroke-width="1" fill="none" transform="matrix(0.05 0 0 0.05 -26 -97)" d="M 6314.88,7052.76 C 6314.88,7052.76 5994.88,7133.76 5994.88,7133.76 C 5994.88,7133.76 6034.88,7088.2 6034.88,7052.76 C 6034.88,7016.88 5994.88,6970.76 5994.88,6970.76 C 5994.88,6970.76 6314.88,7052.76 6314.88,7052.76 C 6314.88,7052.76 6314.88,7052.76 6314.88,7052.76 " />
<text x="0" y="0" stroke="none" fill="#0000ff" transform="matrix(0.05 0 0 0.05 2.314 89.186)" font-style="normal" font-weight="normal" font-size="280px" font-family="Chalkboard" >
step-1:</text>
<text x="0" y="0" stroke="none" fill="#0000ff" transform="matrix(0.05 0 0 0.05 6.604 257.354)" font-style="normal" font-weight="normal" font-size="280px" font-family="Chalkboard" >
step-2:</text>
<path stroke="#0000ff" stroke-width="32" fill="none" transform="matrix(0.05 0 0 0.05 -26 -97)" d="M 3637.92,6606.6 C 3680.46,6516.62 3641.96,6409.05 3551.98,6366.5 C 3491.29,6337.81 3415.15,6346.62 3362.62,6388.42 " />
<path stroke="none" fill="#0000ff" transform="matrix(0.05 0 0 0.05 -26 -97)" d="M 3311.88,6606.6 C 3311.88,6606.6 3306.53,6341.76 3306.53,6341.76 C 3306.53,6341.76 3334.91,6381.64 3362.62,6388.42 C 3390.33,6395.2 3433.2,6372.75 3433.2,6372.75 C 3433.2,6372.75 3311.88,6606.6 3311.88,6606.6 C 3311.88,6606.6 3311.88,6606.6 3311.88,6606.6 " />
<path stroke="#0000ff" stroke-width="1" fill="none" transform="matrix(0.05 0 0 0.05 -26 -97)" d="M 3311.88,6606.6 C 3311.88,6606.6 3306.53,6341.76 3306.53,6341.76 C 3306.53,6341.76 3334.91,6381.64 3362.62,6388.42 C 3390.33,6395.2 3433.2,6372.75 3433.2,6372.75 C 3433.2,6372.75 3311.88,6606.6 3311.88,6606.6 C 3311.88,6606.6 3311.88,6606.6 3311.88,6606.6 " />
<path stroke="#0000ff" stroke-width="32" fill="none" transform="matrix(0.05 0 0 0.05 -26 -97)" d="M 2723.4,5986.76 C 2632.28,6079.54 2633.61,6228.8 2726.39,6319.93 C 2802.7,6394.89 2930.56,6407.63 3020.16,6349.2 " />
<path stroke="none" fill="#0000ff" transform="matrix(0.05 0 0 0.05 -26 -97)" d="M 2934.36,5920.2 C 2934.36,5920.2 2713.29,6057.55 2713.29,6057.55 C 2713.29,6057.55 2732.05,6013.24 2723.4,5986.76 C 2714.76,5960.29 2673.25,5935 2673.25,5935 C 2673.25,5935 2934.36,5920.2 2934.36,5920.2 C 2934.36,5920.2 2934.36,5920.2 2934.36,5920.2 " />
<path stroke="#0000ff" stroke-width="1" fill="none" transform="matrix(0.05 0 0 0.05 -26 -97)" d="M 2934.36,5920.2 C 2934.36,5920.2 2713.29,6057.55 2713.29,6057.55 C 2713.29,6057.55 2732.05,6013.24 2723.4,5986.76 C 2714.76,5960.29 2673.25,5935 2673.25,5935 C 2673.25,5935 2934.36,5920.2 2934.36,5920.2 C 2934.36,5920.2 2934.36,5920.2 2934.36,5920.2 " />
<path stroke="none" fill="#0000ff" transform="matrix(0.05 0 0 0.05 -26 -97)" d="M 7049.57,6795.86 L 7065.1,6787.08 L 7080.63,6796.04 L 7080.63,7378.12 L 7048.6,7396.61 L 7049.57,6795.86 Z " />
<path stroke="none" fill="#0000ff" transform="matrix(0.05 0 0 0.05 -26 -97)" d="M 7139.1,6839.04 L 7171.1,6839.04 L 7171.1,7335.12 L 7139.1,7335.12 L 7139.1,6839.04 Z " />
<path stroke="none" fill="#0000ff" transform="matrix(0.05 0 0 0.05 -26 -97)" d="M 7048.6,7396.61 L 7080.63,7378.12 L 7584.72,7669.16 L 7584.72,7687.08 L 7569.33,7696.13 L 7048.6,7396.61 Z " />
<path stroke="none" fill="#0000ff" transform="matrix(0.05 0 0 0.05 -26 -97)" d="M 7600.11,7696.13 L 7584.72,7687.08 L 7584.72,7669.16 L 8088.81,7378.12 L 8120.84,7396.61 L 7600.11,7696.13 Z " />
<path stroke="none" fill="#0000ff" transform="matrix(0.05 0 0 0.05 -26 -97)" d="M 7592.72,7597.01 L 7576.72,7569.3 L 8006.34,7321.26 L 8022.34,7348.97 L 7592.72,7597.01 Z " />
<path stroke="none" fill="#0000ff" transform="matrix(0.05 0 0 0.05 -26 -97)" d="M 8120.84,7396.61 L 8088.81,7378.12 L 8088.81,6796.04 L 8104.34,6787.08 L 8119.87,6795.86 L 8120.84,7396.61 Z " />
<path stroke="none" fill="#0000ff" transform="matrix(0.05 0 0 0.05 -26 -97)" d="M 8104.5,6769.24 L 8104.34,6787.08 L 8088.81,6796.04 L 7584.72,6505 L 7584.72,6487.08 L 7600.11,6478.03 L 8104.5,6769.24 Z " />
<path stroke="none" fill="#0000ff" transform="matrix(0.05 0 0 0.05 -26 -97)" d="M 8022.34,6825.18 L 8006.34,6852.9 L 7576.72,6604.86 L 7592.72,6577.15 L 8022.34,6825.18 Z " />
<path stroke="none" fill="#0000ff" transform="matrix(0.05 0 0 0.05 -26 -97)" d="M 7569.33,6478.03 L 7584.72,6487.08 L 7584.72,6505 L 7080.63,6796.04 L 7065.1,6787.08 L 7064.94,6769.24 L 7569.33,6478.03 Z " />
<text x="0" y="0" stroke="none" fill="#0000ff" transform="matrix(0.05 0 0 0.05 348.903 201.672)" font-style="normal" font-weight="bold" font-size="240px" font-family="Helvetica" >
Nu</text>
<path stroke="none" fill="#0000ff" transform="matrix(0.05 0 0 0.05 -26 -97)" d="M 7600.11,6478.03 L 7584.72,6487.08 L 7569.33,6478.03 L 7568.72,6012.71 L 7600.72,6012.71 L 7600.11,6478.03 Z " />
<text x="0" y="0" stroke="none" fill="#0000ff" transform="matrix(0.05 0 0 0.05 401.532 231.672)" font-style="normal" font-weight="bold" font-size="240px" font-family="Helvetica" >
Z</text>
<path stroke="none" fill="#0000ff" transform="matrix(0.05 0 0 0.05 -26 -97)" d="M 8119.87,6795.86 L 8104.34,6787.08 L 8104.5,6769.24 L 8493.07,6544.17 L 8509.07,6571.88 L 8119.87,6795.86 Z " />
<text x="0" y="0" stroke="none" fill="#0000ff" transform="matrix(0.05 0 0 0.05 297.609 231.672)" font-style="normal" font-weight="bold" font-size="240px" font-family="Helvetica" >
Z</text>
<path stroke="none" fill="#0000ff" transform="matrix(0.05 0 0 0.05 -26 -97)" d="M 7064.94,6769.24 L 7065.1,6787.08 L 7049.57,6795.86 L 6659.31,6571.27 L 6675.31,6543.55 L 7064.94,6769.24 Z " />
<text x="0" y="0" stroke="none" fill="#0000ff" transform="matrix(0.05 0 0 0.05 349.571 321.672)" font-style="normal" font-weight="bold" font-size="240px" font-family="Helvetica" >
Z</text>
<path stroke="none" fill="#0000ff" transform="matrix(0.05 0 0 0.05 -26 -97)" d="M 7569.33,7696.13 L 7584.72,7687.08 L 7600.11,7696.13 L 7600.72,8159.71 L 7568.72,8159.71 L 7569.33,7696.13 Z " />
<text x="0" y="0" stroke="none" fill="#0000ff" transform="matrix(0.05 0 0 0.05 231.4 96.908)" font-style="normal" font-weight="normal" font-size="280px" font-family="Chalkboard" >
rds</text>
<text x="0" y="0" stroke="none" fill="#0000ff" transform="matrix(0.05 0 0 0.05 768.524 171.092)" font-style="normal" font-weight="normal" font-size="280px" font-family="Chalkboard" >
(Meisenheimer </text>
<text x="0" y="0" stroke="none" fill="#0000ff" transform="matrix(0.05 0 0 0.05 864.203 171.092)" font-style="normal" font-weight="normal" font-size="280px" font-family="Chalkboard" >
complex)</text>
</svg>
