<?xml version="1.0" standalone="no" ?>
<!DOCTYPE svg PUBLIC "-//W3C//DTD SVG 1.1//EN" "http://www.w3.org/Graphics/SVG/1.1/DTD/svg11.dtd">
<svg width="603px" height="258px" viewBox="0 0 603 258" style="background-color: #ffffff00" xmlns="http://www.w3.org/2000/svg" xmlns:xlink="http://www.w3.org/1999/xlink" version="1.1" >
<path stroke="none" fill="#0000ff" transform="matrix(0.05 0 0 0.05 -40 -26)" d="M 866,4801.5 L 850,4773.78 L 1362.09,4478.68 L 1377.62,4487.64 L 1377.62,4505.56 L 866,4801.5 Z " />
<path stroke="none" fill="#0000ff" transform="matrix(0.05 0 0 0.05 -40 -26)" d="M 1377.62,4505.56 L 1377.62,4487.64 L 1393.14,4478.68 L 1897.23,4769.72 L 1897.23,4806.7 L 1377.62,4505.56 Z " />
<path stroke="none" fill="#0000ff" transform="matrix(0.05 0 0 0.05 -40 -26)" d="M 1459.62,4449.53 L 1475.62,4421.82 L 1905.23,4669.86 L 1889.23,4697.57 L 1459.62,4449.53 Z " />
<path stroke="none" fill="#0000ff" transform="matrix(0.05 0 0 0.05 -40 -26)" d="M 1897.23,4806.7 L 1897.23,4769.72 L 2416.85,4468.58 L 2416.85,4505.56 L 1897.23,4806.7 Z " />
<path stroke="none" fill="#0000ff" transform="matrix(0.05 0 0 0.05 -40 -26)" d="M 2416.85,4505.56 L 2416.85,4468.58 L 2936.62,4769.8 L 2936.6,4806.79 L 2416.85,4505.56 Z " />
<text x="0" y="0" stroke="none" fill="#0000ff" transform="matrix(0.05 0 0 0.05 127.722 203.209)" font-style="normal" font-weight="normal" font-size="280px" font-family="Chalkboard" >
OTs</text>
<path stroke="none" fill="#0000ff" transform="matrix(0.05 0 0 0.05 -40 -26)" d="M 2936.6,4806.79 L 2936.62,4769.8 L 3326.37,4544.05 L 3342.37,4571.76 L 2936.6,4806.79 Z " />
<path stroke="none" fill="#0000ff" transform="matrix(0.05 0 0 0.05 -40 -26)" d="M 1393.14,4478.68 L 1377.62,4487.64 L 1362.09,4478.68 L 1361.62,3887.64 L 1393.62,3887.64 L 1393.14,4478.68 Z " />
<path stroke="none" fill="#0000ff" transform="matrix(0.05 0 0 0.05 -40 -26)" d="M 4766.04,4426.12 L 4187.04,4426.12 L 4187.04,4394.12 L 4766.04,4394.12 Z " />
<path stroke="none" fill="#0000ff" transform="matrix(0.05 0 0 0.05 -40 -26)" d="M 5045.04,4410.12 C 5045.04,4410.12 4725.04,4491.12 4725.04,4491.12 C 4725.04,4491.12 4765.04,4445.56 4765.04,4410.12 C 4765.04,4374.25 4725.04,4328.12 4725.04,4328.12 C 4725.04,4328.12 5045.04,4410.12 5045.04,4410.12 C 5045.04,4410.12 5045.04,4410.12 5045.04,4410.12 " />
<path stroke="#0000ff" stroke-width="1" fill="none" transform="matrix(0.05 0 0 0.05 -40 -26)" d="M 5045.04,4410.12 C 5045.04,4410.12 4725.04,4491.12 4725.04,4491.12 C 4725.04,4491.12 4765.04,4445.56 4765.04,4410.12 C 4765.04,4374.25 4725.04,4328.12 4725.04,4328.12 C 4725.04,4328.12 5045.04,4410.12 5045.04,4410.12 C 5045.04,4410.12 5045.04,4410.12 5045.04,4410.12 " />
<path stroke="#0000ff" stroke-width="32" fill="none" transform="matrix(0.05 0 0 0.05 -40 -26)" d="M 1602.13,4637.6 C 1753.17,5014.97 2182.08,5198.69 2559.45,5047.65 C 2609.19,5027.74 2656.74,5002.38 2700.99,4972.18 " />
<path stroke="none" fill="#0000ff" transform="matrix(0.05 0 0 0.05 -40 -26)" d="M 2864.64,4819.23 C 2864.64,4819.23 2722.31,5041.79 2722.31,5041.79 C 2722.31,5041.79 2720.55,4993.08 2700.99,4972.18 C 2681.43,4951.29 2632.91,4946.28 2632.91,4946.28 C 2632.91,4946.28 2864.64,4819.23 2864.64,4819.23 C 2864.64,4819.23 2864.64,4819.23 2864.64,4819.23 " />
<path stroke="#0000ff" stroke-width="1" fill="none" transform="matrix(0.05 0 0 0.05 -40 -26)" d="M 2864.64,4819.23 C 2864.64,4819.23 2722.31,5041.79 2722.31,5041.79 C 2722.31,5041.79 2720.55,4993.08 2700.99,4972.18 C 2681.43,4951.29 2632.91,4946.28 2632.91,4946.28 C 2632.91,4946.28 2864.64,4819.23 2864.64,4819.23 C 2864.64,4819.23 2864.64,4819.23 2864.64,4819.23 " />
<path stroke="#0000ff" stroke-width="32" fill="none" transform="matrix(0.05 0 0 0.05 -40 -26)" d="M 3515.58,4154.5 C 3449.78,3939.29 3221.69,3818.02 3006.48,3883.81 C 2791.27,3949.61 2669.99,4177.7 2735.79,4392.91 C 2776.09,4524.71 2887.03,4631.85 3020.16,4667.52 " />
<path stroke="none" fill="#0000ff" transform="matrix(0.05 0 0 0.05 -40 -26)" d="M 3519.5,4379.23 C 3519.5,4379.23 3449.81,4124.52 3449.81,4124.52 C 3449.81,4124.52 3486.95,4155.43 3515.58,4154.5 C 3544.2,4153.57 3580.22,4120.28 3580.22,4120.28 C 3580.22,4120.28 3519.5,4379.23 3519.5,4379.23 C 3519.5,4379.23 3519.5,4379.23 3519.5,4379.23 " />
<path stroke="#0000ff" stroke-width="1" fill="none" transform="matrix(0.05 0 0 0.05 -40 -26)" d="M 3519.5,4379.23 C 3519.5,4379.23 3449.81,4124.52 3449.81,4124.52 C 3449.81,4124.52 3486.95,4155.43 3515.58,4154.5 C 3544.2,4153.57 3580.22,4120.28 3580.22,4120.28 C 3580.22,4120.28 3519.5,4379.23 3519.5,4379.23 C 3519.5,4379.23 3519.5,4379.23 3519.5,4379.23 " />
<path stroke="none" fill="#0000ff" transform="matrix(0.05 0 0 0.05 -40 -26)" d="M 5207.48,4732.86 L 5191.48,4705.14 L 5703.57,4410.04 L 5719.09,4419 L 5719.09,4436.92 L 5207.48,4732.86 Z " />
<path stroke="none" fill="#0000ff" transform="matrix(0.05 0 0 0.05 -40 -26)" d="M 5719.09,4436.92 L 5719.09,4419 L 5734.62,4410.04 L 6242.94,4703.23 L 6238.71,4719 L 6227.16,4730.55 L 5719.09,4436.92 Z " />
<path stroke="none" fill="#0000ff" transform="matrix(0.05 0 0 0.05 -40 -26)" d="M 5734.62,4410.04 L 5719.09,4419 L 5703.57,4410.04 L 5703.1,3819 L 5735.09,3819 L 5734.62,4410.04 Z " />
<path stroke="#0000ff" stroke-width="26" fill="none" transform="matrix(0.05 0 0 0.05 -40 -26)" d="M 5472.98,4334.84 A 105.8,105.8 0 1 0 5684.58,4334.84A 105.8,105.8 0 1 0 5472.98,4334.84Z " />
<path stroke="none" fill="#0000ff" transform="matrix(0.05 0 0 0.05 -40 -26)" d="M 5516.45,4322.17 L 5641.78,4322.17 L 5641.78,4348.17 L 5516.45,4348.17 Z " />
<path stroke="none" fill="#0000ff" transform="matrix(0.05 0 0 0.05 -40 -26)" d="M 5592.12,4272.5 L 5592.12,4397.84 L 5566.12,4397.84 L 5566.12,4272.5 Z " />
<path stroke="none" fill="#0000ff" transform="matrix(0.05 0 0 0.05 -40 -26)" d="M 6227.16,4730.55 L 6238.71,4719 L 6264.08,4733.65 L 6538.71,5209.32 L 6538.71,5273.87 L 6227.16,4730.55 Z " />
<path stroke="none" fill="#0000ff" transform="matrix(0.05 0 0 0.05 -40 -26)" d="M 6538.71,5273.87 L 6538.71,5209.32 L 6813.34,4733.65 L 6869.24,4701.37 L 6538.71,5273.87 Z " />
<path stroke="none" fill="#0000ff" transform="matrix(0.05 0 0 0.05 -40 -26)" d="M 6869.24,4701.37 L 6813.34,4733.65 L 6264.08,4733.65 L 6238.71,4719 L 6242.94,4703.23 L 6869.24,4701.37 Z " />
<path stroke="none" fill="#0000ff" transform="matrix(0.05 0 0 0.05 -40 -26)" d="M 7516.08,4394.08 L 7516.08,4362.08 L 8116.08,4362.08 L 8116.08,4394.08 L 7516.08,4394.08 Z " />
<path stroke="none" fill="#0000ff" transform="matrix(0.05 0 0 0.05 -40 -26)" d="M 7516.08,4484.08 L 7516.08,4452.08 L 8116.08,4452.08 L 8116.08,4484.08 L 7516.08,4484.08 Z " />
<path stroke="none" fill="#0000ff" transform="matrix(0.05 0 0 0.05 -40 -26)" d="M 7516.08,4574.08 L 7516.08,4542.08 L 8116.08,4542.08 L 8116.08,4574.08 L 7516.08,4574.08 Z " />
<path stroke="none" fill="#0000ff" transform="matrix(0.05 0 0 0.05 -40 -26)" d="M 7516.08,4664.08 L 7516.08,4632.08 L 8116.08,4632.08 L 8116.08,4664.08 L 7516.08,4664.08 Z " />
<path stroke="none" fill="#0000ff" transform="matrix(0.05 0 0 0.05 -40 -26)" d="M 9485.25,4511.69 L 9489.48,4495.92 L 9518.77,4495.92 L 9555.21,4515.4 L 9539.22,4543.11 L 9485.25,4511.69 Z " />
<path stroke="none" fill="#0000ff" transform="matrix(0.05 0 0 0.05 -40 -26)" d="M 9596.95,4576.44 L 9612.95,4548.73 L 9670.69,4582.06 L 9654.69,4609.78 L 9596.95,4576.44 Z " />
<path stroke="none" fill="#0000ff" transform="matrix(0.05 0 0 0.05 -40 -26)" d="M 9712.42,4643.11 L 9728.42,4615.4 L 9786.16,4648.73 L 9770.16,4676.44 L 9712.42,4643.11 Z " />
<path stroke="none" fill="#0000ff" transform="matrix(0.05 0 0 0.05 -40 -26)" d="M 9827.89,4709.78 L 9843.89,4682.06 L 9901.63,4715.4 L 9885.63,4743.11 L 9827.89,4709.78 Z " />
<path stroke="none" fill="#0000ff" transform="matrix(0.05 0 0 0.05 -40 -26)" d="M 9943.36,4776.44 L 9959.36,4748.73 L 10017.1,4782.06 L 10001.1,4809.78 L 9943.36,4776.44 Z " />
<path stroke="none" fill="#0000ff" transform="matrix(0.05 0 0 0.05 -40 -26)" d="M 10026.7,4826.45 L 9994.45,4770.55 L 9994.45,4221.29 L 10026.7,4165.39 L 10026.7,4826.45 Z " />
<path stroke="none" fill="#0000ff" transform="matrix(0.05 0 0 0.05 -40 -26)" d="M 10026.7,4165.39 L 9994.45,4221.29 L 9959.36,4243.11 L 9943.36,4215.4 L 10026.7,4165.39 Z " />
<path stroke="none" fill="#0000ff" transform="matrix(0.05 0 0 0.05 -40 -26)" d="M 9885.63,4248.73 L 9901.63,4276.44 L 9843.89,4309.78 L 9827.89,4282.06 L 9885.63,4248.73 Z " />
<path stroke="none" fill="#0000ff" transform="matrix(0.05 0 0 0.05 -40 -26)" d="M 9770.16,4315.4 L 9786.16,4343.11 L 9728.42,4376.44 L 9712.42,4348.73 L 9770.16,4315.4 Z " />
<path stroke="none" fill="#0000ff" transform="matrix(0.05 0 0 0.05 -40 -26)" d="M 9654.69,4382.06 L 9670.69,4409.78 L 9612.95,4443.11 L 9596.95,4415.4 L 9654.69,4382.06 Z " />
<path stroke="none" fill="#0000ff" transform="matrix(0.05 0 0 0.05 -40 -26)" d="M 9539.22,4448.73 L 9555.21,4476.44 L 9497.48,4509.78 L 9481.48,4482.06 L 9539.22,4448.73 Z " />
<path stroke="none" fill="#0000ff" transform="matrix(0.05 0 0 0.05 -40 -26)" d="M 9485.25,4480.15 L 9489.48,4495.92 L 9485.25,4511.69 L 8898.44,4511.44 L 8889.48,4495.92 L 8898.44,4480.4 L 9485.25,4480.15 Z " />
<path stroke="none" fill="#0000ff" transform="matrix(0.05 0 0 0.05 -40 -26)" d="M 9465.36,4569.92 L 9465.36,4601.92 L 9390.52,4601.92 L 9390.52,4569.92 L 9465.36,4569.92 Z " />
<path stroke="none" fill="#0000ff" transform="matrix(0.05 0 0 0.05 -40 -26)" d="M 9315.67,4569.92 L 9315.67,4601.92 L 9240.83,4601.92 L 9240.83,4569.92 L 9315.67,4569.92 Z " />
<path stroke="none" fill="#0000ff" transform="matrix(0.05 0 0 0.05 -40 -26)" d="M 9165.98,4569.92 L 9165.98,4601.92 L 9091.13,4601.92 L 9091.13,4569.92 L 9165.98,4569.92 Z " />
<path stroke="none" fill="#0000ff" transform="matrix(0.05 0 0 0.05 -40 -26)" d="M 9016.29,4569.92 L 9016.29,4601.92 L 8941.44,4601.92 L 8941.44,4569.92 L 9016.29,4569.92 Z " />
<path stroke="none" fill="#0000ff" transform="matrix(0.05 0 0 0.05 -40 -26)" d="M 8898.44,4480.4 L 8889.48,4495.92 L 8871.56,4495.92 L 8575.62,3984.3 L 8603.34,3968.3 L 8898.44,4480.4 Z " />
<path stroke="none" fill="#0000ff" transform="matrix(0.05 0 0 0.05 -40 -26)" d="M 8871.56,4495.92 L 8889.48,4495.92 L 8898.44,4511.44 L 8603.34,5023.54 L 8575.62,5007.54 L 8871.56,4495.92 Z " />
<text x="0" y="0" stroke="none" fill="#0000ff" transform="matrix(0.05 0 0 0.05 366.692 251.992)" font-style="normal" font-weight="normal" font-size="280px" font-family="Chalkboard" >
Homoallyl </text>
<text x="0" y="0" stroke="none" fill="#0000ff" transform="matrix(0.05 0 0 0.05 432.128 251.992)" font-style="normal" font-weight="normal" font-size="280px" font-family="Chalkboard" >
carbocation</text>
<path stroke="none" fill="#0000ff" transform="matrix(0.05 0 0 0.05 -40 -26)" d="M 12522.4,4511.92 L 11171.2,4511.92 L 11171.2,4479.92 L 12522.4,4479.92 Z " />
<path stroke="none" fill="#0000ff" transform="matrix(0.05 0 0 0.05 -40 -26)" d="M 12801.4,4495.92 C 12801.4,4495.92 12481.4,4576.92 12481.4,4576.92 C 12481.4,4576.92 12521.4,4531.36 12521.4,4495.92 C 12521.4,4460.05 12481.4,4413.92 12481.4,4413.92 C 12481.4,4413.92 12801.4,4495.92 12801.4,4495.92 C 12801.4,4495.92 12801.4,4495.92 12801.4,4495.92 " />
<path stroke="#0000ff" stroke-width="1" fill="none" transform="matrix(0.05 0 0 0.05 -40 -26)" d="M 12801.4,4495.92 C 12801.4,4495.92 12481.4,4576.92 12481.4,4576.92 C 12481.4,4576.92 12521.4,4531.36 12521.4,4495.92 C 12521.4,4460.05 12481.4,4413.92 12481.4,4413.92 C 12481.4,4413.92 12801.4,4495.92 12801.4,4495.92 C 12801.4,4495.92 12801.4,4495.92 12801.4,4495.92 " />
<text x="0" y="0" stroke="none" fill="#0000ff" transform="matrix(0.05 0 0 0.05 519.416 191.932)" font-style="normal" font-weight="normal" font-size="280px" font-family="Chalkboard" >
CH</text>
<text x="0" y="0" stroke="none" fill="#0000ff" transform="matrix(0.05 0 0 0.05 536.34 195.892)" font-style="normal" font-weight="normal" font-size="210px" font-family="Chalkboard" >
3</text>
<text x="0" y="0" stroke="none" fill="#0000ff" transform="matrix(0.05 0 0 0.05 542.315 191.932)" font-style="normal" font-weight="normal" font-size="280px" font-family="Chalkboard" >
COOH</text>
<path stroke="#0000ff" stroke-width="32" fill="none" transform="matrix(0.05 0 0 0.05 -40 -26)" d="M 12132.1,4049.76 C 11632,3549.59 10772.5,3484.56 10202.8,3903.77 " />
<path stroke="none" fill="#0000ff" transform="matrix(0.05 0 0 0.05 -40 -26)" d="M 10032.9,4049.76 C 10032.9,4049.76 10184.4,3833.38 10184.4,3833.38 C 10184.4,3833.38 10184.1,3882.1 10202.8,3903.77 C 10221.5,3925.45 10269.8,3932.46 10269.8,3932.46 C 10269.8,3932.46 10032.9,4049.76 10032.9,4049.76 C 10032.9,4049.76 10032.9,4049.76 10032.9,4049.76 " />
<path stroke="#0000ff" stroke-width="1" fill="none" transform="matrix(0.05 0 0 0.05 -40 -26)" d="M 10032.9,4049.76 C 10032.9,4049.76 10184.4,3833.38 10184.4,3833.38 C 10184.4,3833.38 10184.1,3882.1 10202.8,3903.77 C 10221.5,3925.45 10269.8,3932.46 10269.8,3932.46 C 10269.8,3932.46 10032.9,4049.76 10032.9,4049.76 C 10032.9,4049.76 10032.9,4049.76 10032.9,4049.76 " />
<path stroke="#0000ff" stroke-width="32" fill="none" transform="matrix(0.05 0 0 0.05 -40 -26)" d="M 10231.9,5087.67 C 10790.9,5471.88 11556.5,5329.98 11940.7,4770.96 C 12019.7,4656.06 12078.9,4527.63 12115,4392.96 " />
<path stroke="none" fill="#0000ff" transform="matrix(0.05 0 0 0.05 -40 -26)" d="M 10059,4943.86 C 10059,4943.86 10298.7,5057.81 10298.7,5057.81 C 10298.7,5057.81 10250.4,5065.53 10231.9,5087.67 C 10213.4,5109.81 10214.5,5158.62 10214.5,5158.62 C 10214.5,5158.62 10059,4943.86 10059,4943.86 C 10059,4943.86 10059,4943.86 10059,4943.86 " />
<path stroke="#0000ff" stroke-width="1" fill="none" transform="matrix(0.05 0 0 0.05 -40 -26)" d="M 10059,4943.86 C 10059,4943.86 10298.7,5057.81 10298.7,5057.81 C 10298.7,5057.81 10250.4,5065.53 10231.9,5087.67 C 10213.4,5109.81 10214.5,5158.62 10214.5,5158.62 C 10214.5,5158.62 10059,4943.86 10059,4943.86 C 10059,4943.86 10059,4943.86 10059,4943.86 " />
<path stroke="none" fill="#0000ff" transform="matrix(0.05 0 0 0.05 -40 -26)" d="M 5996.84,2828.1 L 5980.84,2800.38 L 6492.93,2505.28 L 6508.45,2514.24 L 6508.45,2532.16 L 5996.84,2828.1 Z " />
<path stroke="none" fill="#0000ff" transform="matrix(0.05 0 0 0.05 -40 -26)" d="M 6508.45,2532.16 L 6508.45,2514.24 L 6523.98,2505.28 L 7028.07,2796.32 L 7028.07,2833.3 L 6508.45,2532.16 Z " />
<path stroke="none" fill="#0000ff" transform="matrix(0.05 0 0 0.05 -40 -26)" d="M 6590.45,2476.13 L 6606.45,2448.42 L 7036.07,2696.46 L 7020.07,2724.17 L 6590.45,2476.13 Z " />
<path stroke="none" fill="#0000ff" transform="matrix(0.05 0 0 0.05 -40 -26)" d="M 6523.98,2505.28 L 6508.45,2514.24 L 6492.93,2505.28 L 6492.45,1914.24 L 6524.45,1914.24 L 6523.98,2505.28 Z " />
<path stroke="none" fill="#0000ff" transform="matrix(0.05 0 0 0.05 -40 -26)" d="M 7028.07,2833.3 L 7028.07,2796.32 L 7547.69,2495.18 L 7547.69,2532.16 L 7028.07,2833.3 Z " />
<path stroke="none" fill="#0000ff" transform="matrix(0.05 0 0 0.05 -40 -26)" d="M 7547.69,2532.16 L 7547.69,2495.18 L 8067.46,2796.4 L 8067.44,2833.39 L 7547.69,2532.16 Z " />
<text x="0" y="0" stroke="none" fill="#0000ff" transform="matrix(0.05 0 0 0.05 384.264 104.538)" font-style="normal" font-weight="normal" font-size="280px" font-family="Chalkboard" >
OAc</text>
<path stroke="none" fill="#0000ff" transform="matrix(0.05 0 0 0.05 -40 -26)" d="M 8067.44,2833.39 L 8067.46,2796.4 L 8459.96,2569.06 L 8475.96,2596.77 L 8067.44,2833.39 Z " />
<path stroke="none" fill="#0000ff" transform="matrix(0.05 0 0 0.05 -40 -26)" d="M 866,2793.78 L 850,2766.06 L 1362.09,2470.96 L 1377.62,2479.92 L 1377.62,2497.84 L 866,2793.78 Z " />
<path stroke="none" fill="#0000ff" transform="matrix(0.05 0 0 0.05 -40 -26)" d="M 1377.62,2497.84 L 1377.62,2479.92 L 1393.14,2470.96 L 1897.23,2762 L 1897.23,2798.98 L 1377.62,2497.84 Z " />
<path stroke="none" fill="#0000ff" transform="matrix(0.05 0 0 0.05 -40 -26)" d="M 1459.62,2441.81 L 1475.61,2414.1 L 1905.23,2662.14 L 1889.23,2689.85 L 1459.62,2441.81 Z " />
<path stroke="none" fill="#0000ff" transform="matrix(0.05 0 0 0.05 -40 -26)" d="M 1897.23,2798.98 L 1897.23,2762 L 2416.85,2460.86 L 2416.85,2497.84 L 1897.23,2798.98 Z " />
<path stroke="none" fill="#0000ff" transform="matrix(0.05 0 0 0.05 -40 -26)" d="M 2416.85,2497.84 L 2416.85,2460.86 L 2936.62,2762.08 L 2936.6,2799.07 L 2416.85,2497.84 Z " />
<text x="0" y="0" stroke="none" fill="#0000ff" transform="matrix(0.05 0 0 0.05 127.722 102.823)" font-style="normal" font-weight="normal" font-size="280px" font-family="Chalkboard" >
OTs</text>
<path stroke="none" fill="#0000ff" transform="matrix(0.05 0 0 0.05 -40 -26)" d="M 2936.6,2799.07 L 2936.62,2762.08 L 3326.37,2536.33 L 3342.37,2564.04 L 2936.6,2799.07 Z " />
<path stroke="none" fill="#0000ff" transform="matrix(0.05 0 0 0.05 -40 -26)" d="M 1393.14,2470.96 L 1377.62,2479.92 L 1362.09,2470.96 L 1361.62,1879.92 L 1393.61,1879.92 L 1393.14,2470.96 Z " />
<path stroke="none" fill="#0000ff" transform="matrix(0.05 0 0 0.05 -40 -26)" d="M 5996.84,1523.94 L 5980.84,1496.22 L 6492.93,1201.12 L 6508.45,1210.08 L 6508.45,1228 L 5996.84,1523.94 Z " />
<path stroke="none" fill="#0000ff" transform="matrix(0.05 0 0 0.05 -40 -26)" d="M 6508.45,1228 L 6508.45,1210.08 L 6523.98,1201.12 L 7028.07,1492.16 L 7028.07,1529.14 L 6508.45,1228 Z " />
<path stroke="none" fill="#0000ff" transform="matrix(0.05 0 0 0.05 -40 -26)" d="M 6523.98,1201.12 L 6508.45,1210.08 L 6492.93,1201.12 L 6492.45,610.08 L 6524.45,610.08 L 6523.98,1201.12 Z " />
<path stroke="none" fill="#0000ff" transform="matrix(0.05 0 0 0.05 -40 -26)" d="M 7028.07,1529.14 L 7028.07,1492.16 L 7547.69,1191.02 L 7547.69,1228 L 7028.07,1529.14 Z " />
<path stroke="none" fill="#0000ff" transform="matrix(0.05 0 0 0.05 -40 -26)" d="M 7547.69,1228 L 7547.69,1191.02 L 8067.46,1492.24 L 8067.44,1529.23 L 7547.69,1228 Z " />
<text x="0" y="0" stroke="none" fill="#0000ff" transform="matrix(0.05 0 0 0.05 384.264 39.3305)" font-style="normal" font-weight="normal" font-size="280px" font-family="Chalkboard" >
OAc</text>
<path stroke="none" fill="#0000ff" transform="matrix(0.05 0 0 0.05 -40 -26)" d="M 8067.44,1529.23 L 8067.46,1492.24 L 8459.96,1264.9 L 8475.96,1292.61 L 8067.44,1529.23 Z " />
<path stroke="none" fill="#0000ff" transform="matrix(0.05 0 0 0.05 -40 -26)" d="M 866,1489.62 L 850,1461.9 L 1362.09,1166.8 L 1377.62,1175.76 L 1377.62,1193.68 L 866,1489.62 Z " />
<path stroke="none" fill="#0000ff" transform="matrix(0.05 0 0 0.05 -40 -26)" d="M 1377.62,1193.68 L 1377.62,1175.76 L 1393.14,1166.8 L 1897.23,1457.84 L 1897.23,1494.82 L 1377.62,1193.68 Z " />
<path stroke="none" fill="#0000ff" transform="matrix(0.05 0 0 0.05 -40 -26)" d="M 1897.23,1494.82 L 1897.23,1457.84 L 2416.85,1156.7 L 2416.85,1193.68 L 1897.23,1494.82 Z " />
<path stroke="none" fill="#0000ff" transform="matrix(0.05 0 0 0.05 -40 -26)" d="M 2416.85,1193.68 L 2416.85,1156.7 L 2936.62,1457.92 L 2936.6,1494.91 L 2416.85,1193.68 Z " />
<text x="0" y="0" stroke="none" fill="#0000ff" transform="matrix(0.05 0 0 0.05 127.722 37.6145)" font-style="normal" font-weight="normal" font-size="280px" font-family="Chalkboard" >
OTs</text>
<path stroke="none" fill="#0000ff" transform="matrix(0.05 0 0 0.05 -40 -26)" d="M 2936.6,1494.91 L 2936.62,1457.92 L 3326.37,1232.17 L 3342.37,1259.88 L 2936.6,1494.91 Z " />
<path stroke="none" fill="#0000ff" transform="matrix(0.05 0 0 0.05 -40 -26)" d="M 1393.14,1166.8 L 1377.62,1175.76 L 1362.09,1166.8 L 1361.62,575.76 L 1393.61,575.76 L 1393.14,1166.8 Z " />
<path stroke="none" fill="#0000ff" transform="matrix(0.05 0 0 0.05 -40 -26)" d="M 5435.28,1217.2 L 4187.04,1217.2 L 4187.04,1185.2 L 5435.28,1185.2 Z " />
<path stroke="none" fill="#0000ff" transform="matrix(0.05 0 0 0.05 -40 -26)" d="M 5714.28,1201.2 C 5714.28,1201.2 5394.28,1282.2 5394.28,1282.2 C 5394.28,1282.2 5434.28,1236.64 5434.28,1201.2 C 5434.28,1165.32 5394.28,1119.2 5394.28,1119.2 C 5394.28,1119.2 5714.28,1201.2 5714.28,1201.2 C 5714.28,1201.2 5714.28,1201.2 5714.28,1201.2 " />
<path stroke="#0000ff" stroke-width="1" fill="none" transform="matrix(0.05 0 0 0.05 -40 -26)" d="M 5714.28,1201.2 C 5714.28,1201.2 5394.28,1282.2 5394.28,1282.2 C 5394.28,1282.2 5434.28,1236.64 5434.28,1201.2 C 5434.28,1165.32 5394.28,1119.2 5394.28,1119.2 C 5394.28,1119.2 5714.28,1201.2 5714.28,1201.2 C 5714.28,1201.2 5714.28,1201.2 5714.28,1201.2 " />
<text x="0" y="0" stroke="none" fill="#0000ff" transform="matrix(0.05 0 0 0.05 171.068 27.196)" font-style="normal" font-weight="normal" font-size="280px" font-family="Chalkboard" >
CH</text>
<text x="0" y="0" stroke="none" fill="#0000ff" transform="matrix(0.05 0 0 0.05 187.992 31.1561)" font-style="normal" font-weight="normal" font-size="210px" font-family="Chalkboard" >
3</text>
<text x="0" y="0" stroke="none" fill="#0000ff" transform="matrix(0.05 0 0 0.05 193.967 27.196)" font-style="normal" font-weight="normal" font-size="280px" font-family="Chalkboard" >
COOH</text>
<path stroke="none" fill="#0000ff" transform="matrix(0.05 0 0 0.05 -40 -26)" d="M 5469.6,2504.2 L 4221.36,2504.2 L 4221.36,2472.2 L 5469.6,2472.2 Z " />
<path stroke="none" fill="#0000ff" transform="matrix(0.05 0 0 0.05 -40 -26)" d="M 5748.6,2488.2 C 5748.6,2488.2 5428.6,2569.2 5428.6,2569.2 C 5428.6,2569.2 5468.6,2523.64 5468.6,2488.2 C 5468.6,2452.32 5428.6,2406.2 5428.6,2406.2 C 5428.6,2406.2 5748.6,2488.2 5748.6,2488.2 C 5748.6,2488.2 5748.6,2488.2 5748.6,2488.2 " />
<path stroke="#0000ff" stroke-width="1" fill="none" transform="matrix(0.05 0 0 0.05 -40 -26)" d="M 5748.6,2488.2 C 5748.6,2488.2 5428.6,2569.2 5428.6,2569.2 C 5428.6,2569.2 5468.6,2523.64 5468.6,2488.2 C 5468.6,2452.32 5428.6,2406.2 5428.6,2406.2 C 5428.6,2406.2 5748.6,2488.2 5748.6,2488.2 C 5748.6,2488.2 5748.6,2488.2 5748.6,2488.2 " />
<text x="0" y="0" stroke="none" fill="#0000ff" transform="matrix(0.05 0 0 0.05 172.784 91.546)" font-style="normal" font-weight="normal" font-size="280px" font-family="Chalkboard" >
CH</text>
<text x="0" y="0" stroke="none" fill="#0000ff" transform="matrix(0.05 0 0 0.05 189.708 95.5061)" font-style="normal" font-weight="normal" font-size="210px" font-family="Chalkboard" >
3</text>
<text x="0" y="0" stroke="none" fill="#0000ff" transform="matrix(0.05 0 0 0.05 195.683 91.546)" font-style="normal" font-weight="normal" font-size="280px" font-family="Chalkboard" >
COOH</text>
<text x="0" y="0" stroke="none" fill="#0000ff" transform="matrix(0.05 0 0 0.05 195.092 46.93)" font-style="normal" font-weight="normal" font-size="280px" font-family="Chalkboard" >
k</text>
<text x="0" y="0" stroke="none" fill="#0000ff" transform="matrix(0.05 0 0 0.05 202.486 50.8901)" font-style="normal" font-weight="normal" font-size="210px" font-family="Chalkboard" >
1</text>
<text x="0" y="0" stroke="none" fill="#0000ff" transform="matrix(0.05 0 0 0.05 197.666 112.138)" font-style="normal" font-weight="normal" font-size="280px" font-family="Chalkboard" >
k</text>
<text x="0" y="0" stroke="none" fill="#0000ff" transform="matrix(0.05 0 0 0.05 205.06 116.098)" font-style="normal" font-weight="normal" font-size="210px" font-family="Chalkboard" >
2</text>
<text x="0" y="0" stroke="none" fill="#0000ff" transform="matrix(0.05 0 0 0.05 464.576 191.975)" font-style="normal" font-weight="normal" font-size="280px" font-family="Songti SC" >
δ</text>
<text x="0" y="0" stroke="none" fill="#0000ff" transform="matrix(0.05 0 0 0.05 471.31 191.975)" font-style="normal" font-weight="normal" font-size="280px" font-family="Chalkboard" >
+</text>
<text x="0" y="0" stroke="none" fill="#0000ff" transform="matrix(0.05 0 0 0.05 463.718 215.141)" font-style="normal" font-weight="normal" font-size="280px" font-family="Songti SC" >
δ</text>
<text x="0" y="0" stroke="none" fill="#0000ff" transform="matrix(0.05 0 0 0.05 470.452 215.141)" font-style="normal" font-weight="normal" font-size="280px" font-family="Chalkboard" >
+</text>
<text x="0" y="0" stroke="none" fill="#0000ff" transform="matrix(0.05 0 0 0.05 405.374 196.265)" font-style="normal" font-weight="normal" font-size="280px" font-family="Songti SC" >
δ</text>
<text x="0" y="0" stroke="none" fill="#0000ff" transform="matrix(0.05 0 0 0.05 412.108 196.265)" font-style="normal" font-weight="normal" font-size="280px" font-family="Chalkboard" >
+</text>
<text x="0" y="0" stroke="none" fill="#0000ff" transform="matrix(0.05 0 0 0.05 179.648 147.316)" font-style="normal" font-weight="normal" font-size="280px" font-family="Chalkboard" >
k</text>
<text x="0" y="0" stroke="none" fill="#0000ff" transform="matrix(0.05 0 0 0.05 187.042 151.276)" font-style="normal" font-weight="normal" font-size="210px" font-family="Chalkboard" >
2</text>
<text x="0" y="0" stroke="none" fill="#0000ff" transform="matrix(0.05 0 0 0.05 193.018 147.316)" font-style="normal" font-weight="normal" font-size="280px" font-family="Chalkboard" >
 </text>
<text x="0" y="0" stroke="none" fill="#0000ff" transform="matrix(0.05 0 0 0.05 198.37 147.316)" font-style="normal" font-weight="normal" font-size="280px" font-family="Chalkboard" >
&gt;&gt; </text>
<text x="0" y="0" stroke="none" fill="#0000ff" transform="matrix(0.05 0 0 0.05 216.098 147.316)" font-style="normal" font-weight="normal" font-size="280px" font-family="Chalkboard" >
k</text>
<text x="0" y="0" stroke="none" fill="#0000ff" transform="matrix(0.05 0 0 0.05 223.493 151.276)" font-style="normal" font-weight="normal" font-size="210px" font-family="Chalkboard" >
1</text>
<text x="0" y="0" stroke="none" fill="#0000ff" transform="matrix(0.05 0 0 0.05 100.712 60.658)" font-style="normal" font-weight="normal" font-size="280px" font-family="Chalkboard" >
14</text>
<text x="0" y="0" stroke="none" fill="#0000ff" transform="matrix(0.05 0 0 0.05 357.254 60.658)" font-style="normal" font-weight="normal" font-size="280px" font-family="Chalkboard" >
14</text>
<text x="0" y="0" stroke="none" fill="#0000ff" transform="matrix(0.05 0 0 0.05 100.712 124.15)" font-style="normal" font-weight="normal" font-size="280px" font-family="Chalkboard" >
14</text>
<text x="0" y="0" stroke="none" fill="#0000ff" transform="matrix(0.05 0 0 0.05 358.112 125.866)" font-style="normal" font-weight="normal" font-size="280px" font-family="Chalkboard" >
14</text>
<path stroke="none" fill="#0000ff" transform="matrix(0.05 0 0 0.05 -40 -26)" d="M 9806.36,2793.78 L 9790.36,2766.06 L 10302.5,2470.96 L 10318,2479.92 L 10318,2497.84 L 9806.36,2793.78 Z " />
<path stroke="none" fill="#0000ff" transform="matrix(0.05 0 0 0.05 -40 -26)" d="M 10318,2497.84 L 10318,2479.92 L 10333.5,2470.96 L 10837.6,2762 L 10837.6,2798.98 L 10318,2497.84 Z " />
<path stroke="none" fill="#0000ff" transform="matrix(0.05 0 0 0.05 -40 -26)" d="M 10400,2441.81 L 10416,2414.1 L 10845.6,2662.14 L 10829.6,2689.85 L 10400,2441.81 Z " />
<path stroke="none" fill="#0000ff" transform="matrix(0.05 0 0 0.05 -40 -26)" d="M 10333.5,2470.96 L 10318,2479.92 L 10302.5,2470.96 L 10302,1879.92 L 10334,1879.92 L 10333.5,2470.96 Z " />
<path stroke="none" fill="#0000ff" transform="matrix(0.05 0 0 0.05 -40 -26)" d="M 10837.6,2798.98 L 10837.6,2762 L 11357.2,2460.86 L 11357.2,2497.84 L 10837.6,2798.98 Z " />
<path stroke="none" fill="#0000ff" transform="matrix(0.05 0 0 0.05 -40 -26)" d="M 11357.2,2497.84 L 11357.2,2460.86 L 11877,2762.08 L 11877,2799.07 L 11357.2,2497.84 Z " />
<text x="0" y="0" stroke="none" fill="#0000ff" transform="matrix(0.05 0 0 0.05 574.74 102.822)" font-style="normal" font-weight="normal" font-size="280px" font-family="Chalkboard" >
OAc</text>
<path stroke="none" fill="#0000ff" transform="matrix(0.05 0 0 0.05 -40 -26)" d="M 11877,2799.07 L 11877,2762.08 L 12269,2534.99 L 12285,2562.7 L 11877,2799.07 Z " />
<text x="0" y="0" stroke="none" fill="#0000ff" transform="matrix(0.05 0 0 0.05 520.274 95.836)" font-style="normal" font-weight="normal" font-size="280px" font-family="Chalkboard" >
14</text>
<text x="0" y="0" stroke="none" fill="#0000ff" transform="matrix(0.05 0 0 0.05 426.752 106.99)" font-style="normal" font-weight="normal" font-size="280px" font-family="Chalkboard" >
+</text>
</svg>
