<?xml version="1.0" standalone="no" ?>
<!DOCTYPE svg PUBLIC "-//W3C//DTD SVG 1.1//EN" "http://www.w3.org/Graphics/SVG/1.1/DTD/svg11.dtd">
<svg width="603px" height="218px" viewBox="0 0 603 218" style="background-color: #ffffff00" xmlns="http://www.w3.org/2000/svg" xmlns:xlink="http://www.w3.org/1999/xlink" version="1.1" >
<path stroke="none" fill="#0000ff" transform="matrix(0.05 0 0 0.05 -40 -26)" d="M 866,4012.14 L 850,3984.42 L 1362.09,3689.32 L 1377.62,3698.28 L 1377.62,3716.2 L 866,4012.14 Z " />
<path stroke="none" fill="#0000ff" transform="matrix(0.05 0 0 0.05 -40 -26)" d="M 1377.62,3716.2 L 1377.62,3698.28 L 1393.14,3689.32 L 1897.23,3980.36 L 1897.23,4017.34 L 1377.62,3716.2 Z " />
<path stroke="none" fill="#0000ff" transform="matrix(0.05 0 0 0.05 -40 -26)" d="M 1459.62,3660.17 L 1475.62,3632.46 L 1905.23,3880.5 L 1889.23,3908.21 L 1459.62,3660.17 Z " />
<path stroke="none" fill="#0000ff" transform="matrix(0.05 0 0 0.05 -40 -26)" d="M 1897.23,4017.34 L 1897.23,3980.36 L 2416.85,3679.22 L 2416.85,3716.2 L 1897.23,4017.34 Z " />
<path stroke="none" fill="#0000ff" transform="matrix(0.05 0 0 0.05 -40 -26)" d="M 2416.85,3716.2 L 2416.85,3679.22 L 2936.62,3980.44 L 2936.6,4017.43 L 2416.85,3716.2 Z " />
<text x="0" y="0" stroke="none" fill="#0000ff" transform="matrix(0.05 0 0 0.05 127.722 163.741)" font-style="normal" font-weight="normal" font-size="280px" font-family="Chalkboard" >
OTs</text>
<path stroke="none" fill="#0000ff" transform="matrix(0.05 0 0 0.05 -40 -26)" d="M 2936.6,4017.43 L 2936.62,3980.44 L 3326.8,3754.44 L 3342.8,3782.15 L 2936.6,4017.43 Z " />
<path stroke="none" fill="#0000ff" transform="matrix(0.05 0 0 0.05 -40 -26)" d="M 1393.14,3689.32 L 1377.62,3698.28 L 1362.09,3689.32 L 1361.62,3098.28 L 1393.62,3098.28 L 1393.14,3689.32 Z " />
<path stroke="none" fill="#0000ff" transform="matrix(0.05 0 0 0.05 -40 -26)" d="M 4766.04,3636.76 L 4187.04,3636.76 L 4187.04,3604.76 L 4766.04,3604.76 Z " />
<path stroke="none" fill="#0000ff" transform="matrix(0.05 0 0 0.05 -40 -26)" d="M 5045.04,3620.76 C 5045.04,3620.76 4725.04,3701.76 4725.04,3701.76 C 4725.04,3701.76 4765.04,3656.2 4765.04,3620.76 C 4765.04,3584.89 4725.04,3538.76 4725.04,3538.76 C 4725.04,3538.76 5045.04,3620.76 5045.04,3620.76 C 5045.04,3620.76 5045.04,3620.76 5045.04,3620.76 " />
<path stroke="#0000ff" stroke-width="1" fill="none" transform="matrix(0.05 0 0 0.05 -40 -26)" d="M 5045.04,3620.76 C 5045.04,3620.76 4725.04,3701.76 4725.04,3701.76 C 4725.04,3701.76 4765.04,3656.2 4765.04,3620.76 C 4765.04,3584.89 4725.04,3538.76 4725.04,3538.76 C 4725.04,3538.76 5045.04,3620.76 5045.04,3620.76 C 5045.04,3620.76 5045.04,3620.76 5045.04,3620.76 " />
<path stroke="#0000ff" stroke-width="32" fill="none" transform="matrix(0.05 0 0 0.05 -40 -26)" d="M 1602.13,3848.24 C 1753.17,4225.61 2182.08,4409.33 2559.45,4258.29 C 2609.19,4238.38 2656.74,4213.02 2700.99,4182.82 " />
<path stroke="none" fill="#0000ff" transform="matrix(0.05 0 0 0.05 -40 -26)" d="M 2864.64,4029.87 C 2864.64,4029.87 2722.31,4252.43 2722.31,4252.43 C 2722.31,4252.43 2720.55,4203.72 2700.99,4182.82 C 2681.43,4161.93 2632.91,4156.92 2632.91,4156.92 C 2632.91,4156.92 2864.64,4029.87 2864.64,4029.87 C 2864.64,4029.87 2864.64,4029.87 2864.64,4029.87 " />
<path stroke="#0000ff" stroke-width="1" fill="none" transform="matrix(0.05 0 0 0.05 -40 -26)" d="M 2864.64,4029.87 C 2864.64,4029.87 2722.31,4252.43 2722.31,4252.43 C 2722.31,4252.43 2720.55,4203.72 2700.99,4182.82 C 2681.43,4161.93 2632.91,4156.92 2632.91,4156.92 C 2632.91,4156.92 2864.64,4029.87 2864.64,4029.87 C 2864.64,4029.87 2864.64,4029.87 2864.64,4029.87 " />
<path stroke="#0000ff" stroke-width="32" fill="none" transform="matrix(0.05 0 0 0.05 -40 -26)" d="M 3515.58,3365.14 C 3449.78,3149.93 3221.69,3028.66 3006.48,3094.45 C 2791.27,3160.25 2669.99,3388.34 2735.79,3603.55 C 2776.09,3735.35 2887.03,3842.49 3020.16,3878.16 " />
<path stroke="none" fill="#0000ff" transform="matrix(0.05 0 0 0.05 -40 -26)" d="M 3519.5,3589.87 C 3519.5,3589.87 3449.81,3335.16 3449.81,3335.16 C 3449.81,3335.16 3486.95,3366.07 3515.58,3365.14 C 3544.2,3364.21 3580.22,3330.92 3580.22,3330.92 C 3580.22,3330.92 3519.5,3589.87 3519.5,3589.87 C 3519.5,3589.87 3519.5,3589.87 3519.5,3589.87 " />
<path stroke="#0000ff" stroke-width="1" fill="none" transform="matrix(0.05 0 0 0.05 -40 -26)" d="M 3519.5,3589.87 C 3519.5,3589.87 3449.81,3335.16 3449.81,3335.16 C 3449.81,3335.16 3486.95,3366.07 3515.58,3365.14 C 3544.2,3364.21 3580.22,3330.92 3580.22,3330.92 C 3580.22,3330.92 3519.5,3589.87 3519.5,3589.87 C 3519.5,3589.87 3519.5,3589.87 3519.5,3589.87 " />
<path stroke="none" fill="#0000ff" transform="matrix(0.05 0 0 0.05 -40 -26)" d="M 5207.48,3943.5 L 5191.48,3915.78 L 5703.57,3620.68 L 5719.09,3629.64 L 5719.09,3647.56 L 5207.48,3943.5 Z " />
<path stroke="none" fill="#0000ff" transform="matrix(0.05 0 0 0.05 -40 -26)" d="M 5719.09,3647.56 L 5719.09,3629.64 L 5734.62,3620.68 L 6242.94,3913.87 L 6238.71,3929.64 L 6227.16,3941.19 L 5719.09,3647.56 Z " />
<path stroke="none" fill="#0000ff" transform="matrix(0.05 0 0 0.05 -40 -26)" d="M 5734.62,3620.68 L 5719.09,3629.64 L 5703.57,3620.68 L 5703.1,3029.64 L 5735.09,3029.64 L 5734.62,3620.68 Z " />
<path stroke="#0000ff" stroke-width="26" fill="none" transform="matrix(0.05 0 0 0.05 -40 -26)" d="M 5472.98,3545.48 A 105.8,105.8 0 1 0 5684.58,3545.48A 105.8,105.8 0 1 0 5472.98,3545.48Z " />
<path stroke="none" fill="#0000ff" transform="matrix(0.05 0 0 0.05 -40 -26)" d="M 5516.45,3532.81 L 5641.78,3532.81 L 5641.78,3558.81 L 5516.45,3558.81 Z " />
<path stroke="none" fill="#0000ff" transform="matrix(0.05 0 0 0.05 -40 -26)" d="M 5592.12,3483.14 L 5592.12,3608.48 L 5566.12,3608.48 L 5566.12,3483.14 Z " />
<path stroke="none" fill="#0000ff" transform="matrix(0.05 0 0 0.05 -40 -26)" d="M 6227.16,3941.19 L 6238.71,3929.64 L 6264.08,3944.29 L 6538.71,4419.96 L 6538.71,4484.51 L 6227.16,3941.19 Z " />
<path stroke="none" fill="#0000ff" transform="matrix(0.05 0 0 0.05 -40 -26)" d="M 6538.71,4484.51 L 6538.71,4419.96 L 6813.34,3944.29 L 6869.24,3912.01 L 6538.71,4484.51 Z " />
<path stroke="none" fill="#0000ff" transform="matrix(0.05 0 0 0.05 -40 -26)" d="M 6869.24,3912.01 L 6813.34,3944.29 L 6264.08,3944.29 L 6238.71,3929.64 L 6242.94,3913.87 L 6869.24,3912.01 Z " />
<path stroke="none" fill="#0000ff" transform="matrix(0.05 0 0 0.05 -40 -26)" d="M 7516.08,3604.72 L 7516.08,3572.72 L 8116.08,3572.72 L 8116.08,3604.72 L 7516.08,3604.72 Z " />
<path stroke="none" fill="#0000ff" transform="matrix(0.05 0 0 0.05 -40 -26)" d="M 7516.08,3694.72 L 7516.08,3662.72 L 8116.08,3662.72 L 8116.08,3694.72 L 7516.08,3694.72 Z " />
<path stroke="none" fill="#0000ff" transform="matrix(0.05 0 0 0.05 -40 -26)" d="M 7516.08,3784.72 L 7516.08,3752.72 L 8116.08,3752.72 L 8116.08,3784.72 L 7516.08,3784.72 Z " />
<path stroke="none" fill="#0000ff" transform="matrix(0.05 0 0 0.05 -40 -26)" d="M 7516.08,3874.72 L 7516.08,3842.72 L 8116.08,3842.72 L 8116.08,3874.72 L 7516.08,3874.72 Z " />
<path stroke="none" fill="#0000ff" transform="matrix(0.05 0 0 0.05 -40 -26)" d="M 9485.25,3722.33 L 9489.48,3706.56 L 9518.77,3706.56 L 9555.21,3726.04 L 9539.22,3753.75 L 9485.25,3722.33 Z " />
<path stroke="none" fill="#0000ff" transform="matrix(0.05 0 0 0.05 -40 -26)" d="M 9596.95,3787.08 L 9612.95,3759.37 L 9670.69,3792.7 L 9654.69,3820.42 L 9596.95,3787.08 Z " />
<path stroke="none" fill="#0000ff" transform="matrix(0.05 0 0 0.05 -40 -26)" d="M 9712.42,3853.75 L 9728.42,3826.04 L 9786.16,3859.37 L 9770.16,3887.08 L 9712.42,3853.75 Z " />
<path stroke="none" fill="#0000ff" transform="matrix(0.05 0 0 0.05 -40 -26)" d="M 9827.89,3920.42 L 9843.89,3892.7 L 9901.63,3926.04 L 9885.63,3953.75 L 9827.89,3920.42 Z " />
<path stroke="none" fill="#0000ff" transform="matrix(0.05 0 0 0.05 -40 -26)" d="M 9943.36,3987.08 L 9959.36,3959.37 L 10017.1,3992.7 L 10001.1,4020.42 L 9943.36,3987.08 Z " />
<path stroke="none" fill="#0000ff" transform="matrix(0.05 0 0 0.05 -40 -26)" d="M 10026.7,4037.09 L 9994.45,3981.19 L 9994.45,3431.93 L 10026.7,3376.03 L 10026.7,4037.09 Z " />
<path stroke="none" fill="#0000ff" transform="matrix(0.05 0 0 0.05 -40 -26)" d="M 10026.7,3376.03 L 9994.45,3431.93 L 9959.36,3453.75 L 9943.36,3426.04 L 10026.7,3376.03 Z " />
<path stroke="none" fill="#0000ff" transform="matrix(0.05 0 0 0.05 -40 -26)" d="M 9885.63,3459.37 L 9901.63,3487.08 L 9843.89,3520.42 L 9827.89,3492.7 L 9885.63,3459.37 Z " />
<path stroke="none" fill="#0000ff" transform="matrix(0.05 0 0 0.05 -40 -26)" d="M 9770.16,3526.04 L 9786.16,3553.75 L 9728.42,3587.08 L 9712.42,3559.37 L 9770.16,3526.04 Z " />
<path stroke="none" fill="#0000ff" transform="matrix(0.05 0 0 0.05 -40 -26)" d="M 9654.69,3592.7 L 9670.69,3620.42 L 9612.95,3653.75 L 9596.95,3626.04 L 9654.69,3592.7 Z " />
<path stroke="none" fill="#0000ff" transform="matrix(0.05 0 0 0.05 -40 -26)" d="M 9539.22,3659.37 L 9555.21,3687.08 L 9497.48,3720.42 L 9481.48,3692.7 L 9539.22,3659.37 Z " />
<path stroke="none" fill="#0000ff" transform="matrix(0.05 0 0 0.05 -40 -26)" d="M 9485.25,3690.79 L 9489.48,3706.56 L 9485.25,3722.33 L 8898.44,3722.08 L 8889.48,3706.56 L 8898.44,3691.04 L 9485.25,3690.79 Z " />
<path stroke="none" fill="#0000ff" transform="matrix(0.05 0 0 0.05 -40 -26)" d="M 9465.36,3780.56 L 9465.36,3812.56 L 9390.52,3812.56 L 9390.52,3780.56 L 9465.36,3780.56 Z " />
<path stroke="none" fill="#0000ff" transform="matrix(0.05 0 0 0.05 -40 -26)" d="M 9315.67,3780.56 L 9315.67,3812.56 L 9240.83,3812.56 L 9240.83,3780.56 L 9315.67,3780.56 Z " />
<path stroke="none" fill="#0000ff" transform="matrix(0.05 0 0 0.05 -40 -26)" d="M 9165.98,3780.56 L 9165.98,3812.56 L 9091.13,3812.56 L 9091.13,3780.56 L 9165.98,3780.56 Z " />
<path stroke="none" fill="#0000ff" transform="matrix(0.05 0 0 0.05 -40 -26)" d="M 9016.29,3780.56 L 9016.29,3812.56 L 8941.44,3812.56 L 8941.44,3780.56 L 9016.29,3780.56 Z " />
<path stroke="none" fill="#0000ff" transform="matrix(0.05 0 0 0.05 -40 -26)" d="M 8898.44,3691.04 L 8889.48,3706.56 L 8871.56,3706.56 L 8575.62,3194.94 L 8603.34,3178.94 L 8898.44,3691.04 Z " />
<path stroke="none" fill="#0000ff" transform="matrix(0.05 0 0 0.05 -40 -26)" d="M 8871.56,3706.56 L 8889.48,3706.56 L 8898.44,3722.08 L 8603.34,4234.18 L 8575.62,4218.18 L 8871.56,3706.56 Z " />
<text x="0" y="0" stroke="none" fill="#0000ff" transform="matrix(0.05 0 0 0.05 366.692 212.524)" font-style="normal" font-weight="normal" font-size="280px" font-family="Chalkboard" >
Homoallyl </text>
<text x="0" y="0" stroke="none" fill="#0000ff" transform="matrix(0.05 0 0 0.05 432.128 212.524)" font-style="normal" font-weight="normal" font-size="280px" font-family="Chalkboard" >
carbocation</text>
<path stroke="none" fill="#0000ff" transform="matrix(0.05 0 0 0.05 -40 -26)" d="M 12522.4,3722.56 L 11171.2,3722.56 L 11171.2,3690.56 L 12522.4,3690.56 Z " />
<path stroke="none" fill="#0000ff" transform="matrix(0.05 0 0 0.05 -40 -26)" d="M 12801.4,3706.56 C 12801.4,3706.56 12481.4,3787.56 12481.4,3787.56 C 12481.4,3787.56 12521.4,3742 12521.4,3706.56 C 12521.4,3670.69 12481.4,3624.56 12481.4,3624.56 C 12481.4,3624.56 12801.4,3706.56 12801.4,3706.56 C 12801.4,3706.56 12801.4,3706.56 12801.4,3706.56 " />
<path stroke="#0000ff" stroke-width="1" fill="none" transform="matrix(0.05 0 0 0.05 -40 -26)" d="M 12801.4,3706.56 C 12801.4,3706.56 12481.4,3787.56 12481.4,3787.56 C 12481.4,3787.56 12521.4,3742 12521.4,3706.56 C 12521.4,3670.69 12481.4,3624.56 12481.4,3624.56 C 12481.4,3624.56 12801.4,3706.56 12801.4,3706.56 C 12801.4,3706.56 12801.4,3706.56 12801.4,3706.56 " />
<text x="0" y="0" stroke="none" fill="#0000ff" transform="matrix(0.05 0 0 0.05 519.416 152.464)" font-style="normal" font-weight="normal" font-size="280px" font-family="Chalkboard" >
CH</text>
<text x="0" y="0" stroke="none" fill="#0000ff" transform="matrix(0.05 0 0 0.05 536.34 156.424)" font-style="normal" font-weight="normal" font-size="210px" font-family="Chalkboard" >
3</text>
<text x="0" y="0" stroke="none" fill="#0000ff" transform="matrix(0.05 0 0 0.05 542.315 152.464)" font-style="normal" font-weight="normal" font-size="280px" font-family="Chalkboard" >
COOH</text>
<path stroke="#0000ff" stroke-width="32" fill="none" transform="matrix(0.05 0 0 0.05 -40 -26)" d="M 12132.1,3260.4 C 11632,2760.23 10772.5,2695.2 10202.8,3114.41 " />
<path stroke="none" fill="#0000ff" transform="matrix(0.05 0 0 0.05 -40 -26)" d="M 10032.9,3260.4 C 10032.9,3260.4 10184.4,3044.02 10184.4,3044.02 C 10184.4,3044.02 10184.1,3092.74 10202.8,3114.41 C 10221.5,3136.09 10269.8,3143.1 10269.8,3143.1 C 10269.8,3143.1 10032.9,3260.4 10032.9,3260.4 C 10032.9,3260.4 10032.9,3260.4 10032.9,3260.4 " />
<path stroke="#0000ff" stroke-width="1" fill="none" transform="matrix(0.05 0 0 0.05 -40 -26)" d="M 10032.9,3260.4 C 10032.9,3260.4 10184.4,3044.02 10184.4,3044.02 C 10184.4,3044.02 10184.1,3092.74 10202.8,3114.41 C 10221.5,3136.09 10269.8,3143.1 10269.8,3143.1 C 10269.8,3143.1 10032.9,3260.4 10032.9,3260.4 C 10032.9,3260.4 10032.9,3260.4 10032.9,3260.4 " />
<path stroke="#0000ff" stroke-width="32" fill="none" transform="matrix(0.05 0 0 0.05 -40 -26)" d="M 10231.9,4298.31 C 10790.9,4682.52 11556.5,4540.62 11940.7,3981.6 C 12019.7,3866.7 12078.9,3738.27 12115,3603.6 " />
<path stroke="none" fill="#0000ff" transform="matrix(0.05 0 0 0.05 -40 -26)" d="M 10059,4154.5 C 10059,4154.5 10298.7,4268.45 10298.7,4268.45 C 10298.7,4268.45 10250.4,4276.17 10231.9,4298.31 C 10213.4,4320.45 10214.5,4369.26 10214.5,4369.26 C 10214.5,4369.26 10059,4154.5 10059,4154.5 C 10059,4154.5 10059,4154.5 10059,4154.5 " />
<path stroke="#0000ff" stroke-width="1" fill="none" transform="matrix(0.05 0 0 0.05 -40 -26)" d="M 10059,4154.5 C 10059,4154.5 10298.7,4268.45 10298.7,4268.45 C 10298.7,4268.45 10250.4,4276.17 10231.9,4298.31 C 10213.4,4320.45 10214.5,4369.26 10214.5,4369.26 C 10214.5,4369.26 10059,4154.5 10059,4154.5 C 10059,4154.5 10059,4154.5 10059,4154.5 " />
<path stroke="none" fill="#0000ff" transform="matrix(0.05 0 0 0.05 -40 -26)" d="M 5996.84,2622.18 L 5980.84,2594.46 L 6492.93,2299.36 L 6508.45,2308.32 L 6508.45,2326.24 L 5996.84,2622.18 Z " />
<path stroke="none" fill="#0000ff" transform="matrix(0.05 0 0 0.05 -40 -26)" d="M 6508.45,2326.24 L 6508.45,2308.32 L 6523.98,2299.36 L 7028.07,2590.4 L 7028.07,2627.38 L 6508.45,2326.24 Z " />
<path stroke="none" fill="#0000ff" transform="matrix(0.05 0 0 0.05 -40 -26)" d="M 6590.45,2270.21 L 6606.45,2242.5 L 7036.07,2490.54 L 7020.07,2518.25 L 6590.45,2270.21 Z " />
<path stroke="none" fill="#0000ff" transform="matrix(0.05 0 0 0.05 -40 -26)" d="M 6523.98,2299.36 L 6508.45,2308.32 L 6492.93,2299.36 L 6492.45,1708.32 L 6524.45,1708.32 L 6523.98,2299.36 Z " />
<path stroke="none" fill="#0000ff" transform="matrix(0.05 0 0 0.05 -40 -26)" d="M 7028.07,2627.38 L 7028.07,2590.4 L 7547.69,2289.26 L 7547.69,2326.24 L 7028.07,2627.38 Z " />
<path stroke="none" fill="#0000ff" transform="matrix(0.05 0 0 0.05 -40 -26)" d="M 7547.69,2326.24 L 7547.69,2289.26 L 8067.46,2590.48 L 8067.44,2627.47 L 7547.69,2326.24 Z " />
<text x="0" y="0" stroke="none" fill="#0000ff" transform="matrix(0.05 0 0 0.05 384.264 94.2425)" font-style="normal" font-weight="normal" font-size="280px" font-family="Chalkboard" >
OAc</text>
<path stroke="none" fill="#0000ff" transform="matrix(0.05 0 0 0.05 -40 -26)" d="M 8067.44,2627.47 L 8067.46,2590.48 L 8459.96,2363.14 L 8475.96,2390.85 L 8067.44,2627.47 Z " />
<path stroke="none" fill="#0000ff" transform="matrix(0.05 0 0 0.05 -40 -26)" d="M 866,2587.86 L 850,2560.14 L 1362.09,2265.04 L 1377.62,2274 L 1377.62,2291.92 L 866,2587.86 Z " />
<path stroke="none" fill="#0000ff" transform="matrix(0.05 0 0 0.05 -40 -26)" d="M 1377.62,2291.92 L 1377.62,2274 L 1393.14,2265.04 L 1897.23,2556.08 L 1897.23,2593.06 L 1377.62,2291.92 Z " />
<path stroke="none" fill="#0000ff" transform="matrix(0.05 0 0 0.05 -40 -26)" d="M 1459.62,2235.89 L 1475.61,2208.18 L 1905.23,2456.22 L 1889.23,2483.93 L 1459.62,2235.89 Z " />
<path stroke="none" fill="#0000ff" transform="matrix(0.05 0 0 0.05 -40 -26)" d="M 1897.23,2593.06 L 1897.23,2556.08 L 2416.85,2254.94 L 2416.85,2291.92 L 1897.23,2593.06 Z " />
<path stroke="none" fill="#0000ff" transform="matrix(0.05 0 0 0.05 -40 -26)" d="M 2416.85,2291.92 L 2416.85,2254.94 L 2936.62,2556.16 L 2936.6,2593.15 L 2416.85,2291.92 Z " />
<text x="0" y="0" stroke="none" fill="#0000ff" transform="matrix(0.05 0 0 0.05 127.722 92.5265)" font-style="normal" font-weight="normal" font-size="280px" font-family="Chalkboard" >
OTs</text>
<path stroke="none" fill="#0000ff" transform="matrix(0.05 0 0 0.05 -40 -26)" d="M 2936.6,2593.15 L 2936.62,2556.16 L 3326.37,2330.41 L 3342.37,2358.12 L 2936.6,2593.15 Z " />
<path stroke="none" fill="#0000ff" transform="matrix(0.05 0 0 0.05 -40 -26)" d="M 1393.14,2265.04 L 1377.62,2274 L 1362.09,2265.04 L 1361.62,1674 L 1393.61,1674 L 1393.14,2265.04 Z " />
<path stroke="none" fill="#0000ff" transform="matrix(0.05 0 0 0.05 -40 -26)" d="M 5996.84,1523.94 L 5980.84,1496.22 L 6492.93,1201.12 L 6508.45,1210.08 L 6508.45,1228 L 5996.84,1523.94 Z " />
<path stroke="none" fill="#0000ff" transform="matrix(0.05 0 0 0.05 -40 -26)" d="M 6508.45,1228 L 6508.45,1210.08 L 6523.98,1201.12 L 7028.07,1492.16 L 7028.07,1529.14 L 6508.45,1228 Z " />
<path stroke="none" fill="#0000ff" transform="matrix(0.05 0 0 0.05 -40 -26)" d="M 6523.98,1201.12 L 6508.45,1210.08 L 6492.93,1201.12 L 6492.45,610.08 L 6524.45,610.08 L 6523.98,1201.12 Z " />
<path stroke="none" fill="#0000ff" transform="matrix(0.05 0 0 0.05 -40 -26)" d="M 7028.07,1529.14 L 7028.07,1492.16 L 7547.69,1191.02 L 7547.69,1228 L 7028.07,1529.14 Z " />
<path stroke="none" fill="#0000ff" transform="matrix(0.05 0 0 0.05 -40 -26)" d="M 7547.69,1228 L 7547.69,1191.02 L 8067.46,1492.24 L 8067.44,1529.23 L 7547.69,1228 Z " />
<text x="0" y="0" stroke="none" fill="#0000ff" transform="matrix(0.05 0 0 0.05 384.264 39.3305)" font-style="normal" font-weight="normal" font-size="280px" font-family="Chalkboard" >
OAc</text>
<path stroke="none" fill="#0000ff" transform="matrix(0.05 0 0 0.05 -40 -26)" d="M 8067.44,1529.23 L 8067.46,1492.24 L 8459.96,1264.9 L 8475.96,1292.61 L 8067.44,1529.23 Z " />
<path stroke="none" fill="#0000ff" transform="matrix(0.05 0 0 0.05 -40 -26)" d="M 866,1489.62 L 850,1461.9 L 1362.09,1166.8 L 1377.62,1175.76 L 1377.62,1193.68 L 866,1489.62 Z " />
<path stroke="none" fill="#0000ff" transform="matrix(0.05 0 0 0.05 -40 -26)" d="M 1377.62,1193.68 L 1377.62,1175.76 L 1393.14,1166.8 L 1897.23,1457.84 L 1897.23,1494.82 L 1377.62,1193.68 Z " />
<path stroke="none" fill="#0000ff" transform="matrix(0.05 0 0 0.05 -40 -26)" d="M 1897.23,1494.82 L 1897.23,1457.84 L 2416.85,1156.7 L 2416.85,1193.68 L 1897.23,1494.82 Z " />
<path stroke="none" fill="#0000ff" transform="matrix(0.05 0 0 0.05 -40 -26)" d="M 2416.85,1193.68 L 2416.85,1156.7 L 2936.62,1457.92 L 2936.6,1494.91 L 2416.85,1193.68 Z " />
<text x="0" y="0" stroke="none" fill="#0000ff" transform="matrix(0.05 0 0 0.05 127.722 37.6145)" font-style="normal" font-weight="normal" font-size="280px" font-family="Chalkboard" >
OTs</text>
<path stroke="none" fill="#0000ff" transform="matrix(0.05 0 0 0.05 -40 -26)" d="M 2936.6,1494.91 L 2936.62,1457.92 L 3326.37,1232.17 L 3342.37,1259.88 L 2936.6,1494.91 Z " />
<path stroke="none" fill="#0000ff" transform="matrix(0.05 0 0 0.05 -40 -26)" d="M 1393.14,1166.8 L 1377.62,1175.76 L 1362.09,1166.8 L 1361.62,575.76 L 1393.61,575.76 L 1393.14,1166.8 Z " />
<path stroke="none" fill="#0000ff" transform="matrix(0.05 0 0 0.05 -40 -26)" d="M 5435.28,1217.2 L 4187.04,1217.2 L 4187.04,1185.2 L 5435.28,1185.2 Z " />
<path stroke="none" fill="#0000ff" transform="matrix(0.05 0 0 0.05 -40 -26)" d="M 5714.28,1201.2 C 5714.28,1201.2 5394.28,1282.2 5394.28,1282.2 C 5394.28,1282.2 5434.28,1236.64 5434.28,1201.2 C 5434.28,1165.32 5394.28,1119.2 5394.28,1119.2 C 5394.28,1119.2 5714.28,1201.2 5714.28,1201.2 C 5714.28,1201.2 5714.28,1201.2 5714.28,1201.2 " />
<path stroke="#0000ff" stroke-width="1" fill="none" transform="matrix(0.05 0 0 0.05 -40 -26)" d="M 5714.28,1201.2 C 5714.28,1201.2 5394.28,1282.2 5394.28,1282.2 C 5394.28,1282.2 5434.28,1236.64 5434.28,1201.2 C 5434.28,1165.32 5394.28,1119.2 5394.28,1119.2 C 5394.28,1119.2 5714.28,1201.2 5714.28,1201.2 C 5714.28,1201.2 5714.28,1201.2 5714.28,1201.2 " />
<text x="0" y="0" stroke="none" fill="#0000ff" transform="matrix(0.05 0 0 0.05 171.068 27.196)" font-style="normal" font-weight="normal" font-size="280px" font-family="Chalkboard" >
CH</text>
<text x="0" y="0" stroke="none" fill="#0000ff" transform="matrix(0.05 0 0 0.05 187.992 31.1561)" font-style="normal" font-weight="normal" font-size="210px" font-family="Chalkboard" >
3</text>
<text x="0" y="0" stroke="none" fill="#0000ff" transform="matrix(0.05 0 0 0.05 193.967 27.196)" font-style="normal" font-weight="normal" font-size="280px" font-family="Chalkboard" >
COOH</text>
<path stroke="none" fill="#0000ff" transform="matrix(0.05 0 0 0.05 -40 -26)" d="M 5469.6,2298.28 L 4221.36,2298.28 L 4221.36,2266.28 L 5469.6,2266.28 Z " />
<path stroke="none" fill="#0000ff" transform="matrix(0.05 0 0 0.05 -40 -26)" d="M 5748.6,2282.28 C 5748.6,2282.28 5428.6,2363.28 5428.6,2363.28 C 5428.6,2363.28 5468.6,2317.72 5468.6,2282.28 C 5468.6,2246.4 5428.6,2200.28 5428.6,2200.28 C 5428.6,2200.28 5748.6,2282.28 5748.6,2282.28 C 5748.6,2282.28 5748.6,2282.28 5748.6,2282.28 " />
<path stroke="#0000ff" stroke-width="1" fill="none" transform="matrix(0.05 0 0 0.05 -40 -26)" d="M 5748.6,2282.28 C 5748.6,2282.28 5428.6,2363.28 5428.6,2363.28 C 5428.6,2363.28 5468.6,2317.72 5468.6,2282.28 C 5468.6,2246.4 5428.6,2200.28 5428.6,2200.28 C 5428.6,2200.28 5748.6,2282.28 5748.6,2282.28 C 5748.6,2282.28 5748.6,2282.28 5748.6,2282.28 " />
<text x="0" y="0" stroke="none" fill="#0000ff" transform="matrix(0.05 0 0 0.05 172.784 81.25)" font-style="normal" font-weight="normal" font-size="280px" font-family="Chalkboard" >
CH</text>
<text x="0" y="0" stroke="none" fill="#0000ff" transform="matrix(0.05 0 0 0.05 189.708 85.2101)" font-style="normal" font-weight="normal" font-size="210px" font-family="Chalkboard" >
3</text>
<text x="0" y="0" stroke="none" fill="#0000ff" transform="matrix(0.05 0 0 0.05 195.683 81.25)" font-style="normal" font-weight="normal" font-size="280px" font-family="Chalkboard" >
COOH</text>
<text x="0" y="0" stroke="none" fill="#0000ff" transform="matrix(0.05 0 0 0.05 195.092 46.93)" font-style="normal" font-weight="normal" font-size="280px" font-family="Chalkboard" >
k</text>
<text x="0" y="0" stroke="none" fill="#0000ff" transform="matrix(0.05 0 0 0.05 202.486 50.8901)" font-style="normal" font-weight="normal" font-size="210px" font-family="Chalkboard" >
1</text>
<text x="0" y="0" stroke="none" fill="#0000ff" transform="matrix(0.05 0 0 0.05 197.666 101.842)" font-style="normal" font-weight="normal" font-size="280px" font-family="Chalkboard" >
k</text>
<text x="0" y="0" stroke="none" fill="#0000ff" transform="matrix(0.05 0 0 0.05 205.06 105.802)" font-style="normal" font-weight="normal" font-size="210px" font-family="Chalkboard" >
2</text>
<text x="0" y="0" stroke="none" fill="#0000ff" transform="matrix(0.05 0 0 0.05 464.576 152.507)" font-style="normal" font-weight="normal" font-size="280px" font-family="Songti SC" >
δ</text>
<text x="0" y="0" stroke="none" fill="#0000ff" transform="matrix(0.05 0 0 0.05 471.31 152.507)" font-style="normal" font-weight="normal" font-size="280px" font-family="Chalkboard" >
+</text>
<text x="0" y="0" stroke="none" fill="#0000ff" transform="matrix(0.05 0 0 0.05 463.718 175.673)" font-style="normal" font-weight="normal" font-size="280px" font-family="Songti SC" >
δ</text>
<text x="0" y="0" stroke="none" fill="#0000ff" transform="matrix(0.05 0 0 0.05 470.452 175.673)" font-style="normal" font-weight="normal" font-size="280px" font-family="Chalkboard" >
+</text>
<text x="0" y="0" stroke="none" fill="#0000ff" transform="matrix(0.05 0 0 0.05 405.374 156.797)" font-style="normal" font-weight="normal" font-size="280px" font-family="Songti SC" >
δ</text>
<text x="0" y="0" stroke="none" fill="#0000ff" transform="matrix(0.05 0 0 0.05 412.108 156.797)" font-style="normal" font-weight="normal" font-size="280px" font-family="Chalkboard" >
+</text>
<text x="0" y="0" stroke="none" fill="#0000ff" transform="matrix(0.05 0 0 0.05 432.758 58.084)" font-style="normal" font-weight="normal" font-size="280px" font-family="Chalkboard" >
k</text>
<text x="0" y="0" stroke="none" fill="#0000ff" transform="matrix(0.05 0 0 0.05 440.152 62.0441)" font-style="normal" font-weight="normal" font-size="210px" font-family="Chalkboard" >
2</text>
<text x="0" y="0" stroke="none" fill="#0000ff" transform="matrix(0.05 0 0 0.05 446.128 58.084)" font-style="normal" font-weight="normal" font-size="280px" font-family="Chalkboard" >
 </text>
<text x="0" y="0" stroke="none" fill="#0000ff" transform="matrix(0.05 0 0 0.05 451.48 58.084)" font-style="normal" font-weight="normal" font-size="280px" font-family="Chalkboard" >
&gt;&gt; </text>
<text x="0" y="0" stroke="none" fill="#0000ff" transform="matrix(0.05 0 0 0.05 469.208 58.084)" font-style="normal" font-weight="normal" font-size="280px" font-family="Chalkboard" >
k</text>
<text x="0" y="0" stroke="none" fill="#0000ff" transform="matrix(0.05 0 0 0.05 476.603 62.0441)" font-style="normal" font-weight="normal" font-size="210px" font-family="Chalkboard" >
1</text>
</svg>
