<?xml version="1.0" standalone="no" ?>
<!DOCTYPE svg PUBLIC "-//W3C//DTD SVG 1.1//EN" "http://www.w3.org/Graphics/SVG/1.1/DTD/svg11.dtd">
<svg width="604px" height="323px" viewBox="0 0 604 323" style="background-color: #ffffff00" xmlns="http://www.w3.org/2000/svg" xmlns:xlink="http://www.w3.org/1999/xlink" version="1.1" >
<path stroke="none" fill="#0000ff" transform="matrix(0.05 0 0 0.05 -40 -26)" d="M 866,6105.66 L 850,6077.94 L 1362.09,5782.84 L 1377.62,5791.8 L 1377.62,5809.72 L 866,6105.66 Z " />
<path stroke="none" fill="#0000ff" transform="matrix(0.05 0 0 0.05 -40 -26)" d="M 1377.62,5809.72 L 1377.62,5791.8 L 1393.14,5782.84 L 1897.23,6073.88 L 1897.23,6110.86 L 1377.62,5809.72 Z " />
<path stroke="none" fill="#0000ff" transform="matrix(0.05 0 0 0.05 -40 -26)" d="M 1459.62,5753.69 L 1475.62,5725.98 L 1905.23,5974.02 L 1889.23,6001.73 L 1459.62,5753.69 Z " />
<path stroke="none" fill="#0000ff" transform="matrix(0.05 0 0 0.05 -40 -26)" d="M 1897.23,6110.86 L 1897.23,6073.88 L 2416.85,5772.74 L 2416.85,5809.72 L 1897.23,6110.86 Z " />
<path stroke="none" fill="#0000ff" transform="matrix(0.05 0 0 0.05 -40 -26)" d="M 2416.85,5809.72 L 2416.85,5772.74 L 2936.62,6073.96 L 2936.6,6110.95 L 2416.85,5809.72 Z " />
<text x="0" y="0" stroke="none" fill="#0000ff" transform="matrix(0.05 0 0 0.05 127.722 268.417)" font-style="normal" font-weight="normal" font-size="280px" font-family="Chalkboard" >
OTs</text>
<path stroke="none" fill="#0000ff" transform="matrix(0.05 0 0 0.05 -40 -26)" d="M 2936.6,6110.95 L 2936.62,6073.96 L 3326.37,5848.21 L 3342.37,5875.92 L 2936.6,6110.95 Z " />
<path stroke="none" fill="#0000ff" transform="matrix(0.05 0 0 0.05 -40 -26)" d="M 1393.14,5782.84 L 1377.62,5791.8 L 1362.09,5782.84 L 1361.62,5191.8 L 1393.62,5191.8 L 1393.14,5782.84 Z " />
<path stroke="none" fill="#0000ff" transform="matrix(0.05 0 0 0.05 -40 -26)" d="M 4766.04,5730.28 L 4187.04,5730.28 L 4187.04,5698.28 L 4766.04,5698.28 Z " />
<path stroke="none" fill="#0000ff" transform="matrix(0.05 0 0 0.05 -40 -26)" d="M 5045.04,5714.28 C 5045.04,5714.28 4725.04,5795.28 4725.04,5795.28 C 4725.04,5795.28 4765.04,5749.72 4765.04,5714.28 C 4765.04,5678.41 4725.04,5632.28 4725.04,5632.28 C 4725.04,5632.28 5045.04,5714.28 5045.04,5714.28 C 5045.04,5714.28 5045.04,5714.28 5045.04,5714.28 " />
<path stroke="#0000ff" stroke-width="1" fill="none" transform="matrix(0.05 0 0 0.05 -40 -26)" d="M 5045.04,5714.28 C 5045.04,5714.28 4725.04,5795.28 4725.04,5795.28 C 4725.04,5795.28 4765.04,5749.72 4765.04,5714.28 C 4765.04,5678.41 4725.04,5632.28 4725.04,5632.28 C 4725.04,5632.28 5045.04,5714.28 5045.04,5714.28 C 5045.04,5714.28 5045.04,5714.28 5045.04,5714.28 " />
<path stroke="#0000ff" stroke-width="32" fill="none" transform="matrix(0.05 0 0 0.05 -40 -26)" d="M 1602.13,5941.76 C 1753.17,6319.13 2182.08,6502.85 2559.45,6351.81 C 2609.19,6331.9 2656.74,6306.54 2700.99,6276.34 " />
<path stroke="none" fill="#0000ff" transform="matrix(0.05 0 0 0.05 -40 -26)" d="M 2864.64,6123.39 C 2864.64,6123.39 2722.31,6345.95 2722.31,6345.95 C 2722.31,6345.95 2720.55,6297.24 2700.99,6276.34 C 2681.43,6255.45 2632.91,6250.44 2632.91,6250.44 C 2632.91,6250.44 2864.64,6123.39 2864.64,6123.39 C 2864.64,6123.39 2864.64,6123.39 2864.64,6123.39 " />
<path stroke="#0000ff" stroke-width="1" fill="none" transform="matrix(0.05 0 0 0.05 -40 -26)" d="M 2864.64,6123.39 C 2864.64,6123.39 2722.31,6345.95 2722.31,6345.95 C 2722.31,6345.95 2720.55,6297.24 2700.99,6276.34 C 2681.43,6255.45 2632.91,6250.44 2632.91,6250.44 C 2632.91,6250.44 2864.64,6123.39 2864.64,6123.39 C 2864.64,6123.39 2864.64,6123.39 2864.64,6123.39 " />
<path stroke="#0000ff" stroke-width="32" fill="none" transform="matrix(0.05 0 0 0.05 -40 -26)" d="M 3515.58,5458.66 C 3449.78,5243.45 3221.69,5122.18 3006.48,5187.97 C 2791.27,5253.77 2669.99,5481.86 2735.79,5697.07 C 2776.09,5828.87 2887.03,5936.01 3020.16,5971.68 " />
<path stroke="none" fill="#0000ff" transform="matrix(0.05 0 0 0.05 -40 -26)" d="M 3519.5,5683.39 C 3519.5,5683.39 3449.81,5428.68 3449.81,5428.68 C 3449.81,5428.68 3486.95,5459.59 3515.58,5458.66 C 3544.2,5457.73 3580.22,5424.44 3580.22,5424.44 C 3580.22,5424.44 3519.5,5683.39 3519.5,5683.39 C 3519.5,5683.39 3519.5,5683.39 3519.5,5683.39 " />
<path stroke="#0000ff" stroke-width="1" fill="none" transform="matrix(0.05 0 0 0.05 -40 -26)" d="M 3519.5,5683.39 C 3519.5,5683.39 3449.81,5428.68 3449.81,5428.68 C 3449.81,5428.68 3486.95,5459.59 3515.58,5458.66 C 3544.2,5457.73 3580.22,5424.44 3580.22,5424.44 C 3580.22,5424.44 3519.5,5683.39 3519.5,5683.39 C 3519.5,5683.39 3519.5,5683.39 3519.5,5683.39 " />
<path stroke="none" fill="#0000ff" transform="matrix(0.05 0 0 0.05 -40 -26)" d="M 5207.48,6037.02 L 5191.48,6009.3 L 5703.57,5714.2 L 5719.09,5723.16 L 5719.09,5741.08 L 5207.48,6037.02 Z " />
<path stroke="none" fill="#0000ff" transform="matrix(0.05 0 0 0.05 -40 -26)" d="M 5719.09,5741.08 L 5719.09,5723.16 L 5734.62,5714.2 L 6242.94,6007.39 L 6238.71,6023.16 L 6227.16,6034.71 L 5719.09,5741.08 Z " />
<path stroke="none" fill="#0000ff" transform="matrix(0.05 0 0 0.05 -40 -26)" d="M 5734.62,5714.2 L 5719.09,5723.16 L 5703.57,5714.2 L 5703.1,5123.16 L 5735.09,5123.16 L 5734.62,5714.2 Z " />
<path stroke="#0000ff" stroke-width="26" fill="none" transform="matrix(0.05 0 0 0.05 -40 -26)" d="M 5472.98,5639 A 105.8,105.8 0 1 0 5684.58,5639A 105.8,105.8 0 1 0 5472.98,5639Z " />
<path stroke="none" fill="#0000ff" transform="matrix(0.05 0 0 0.05 -40 -26)" d="M 5516.45,5626.33 L 5641.78,5626.33 L 5641.78,5652.33 L 5516.45,5652.33 Z " />
<path stroke="none" fill="#0000ff" transform="matrix(0.05 0 0 0.05 -40 -26)" d="M 5592.12,5576.66 L 5592.12,5702 L 5566.12,5702 L 5566.12,5576.66 Z " />
<path stroke="none" fill="#0000ff" transform="matrix(0.05 0 0 0.05 -40 -26)" d="M 6227.16,6034.71 L 6238.71,6023.16 L 6264.08,6037.81 L 6538.71,6513.48 L 6538.71,6578.03 L 6227.16,6034.71 Z " />
<path stroke="none" fill="#0000ff" transform="matrix(0.05 0 0 0.05 -40 -26)" d="M 6538.71,6578.03 L 6538.71,6513.48 L 6813.34,6037.81 L 6869.24,6005.53 L 6538.71,6578.03 Z " />
<path stroke="none" fill="#0000ff" transform="matrix(0.05 0 0 0.05 -40 -26)" d="M 6869.24,6005.53 L 6813.34,6037.81 L 6264.08,6037.81 L 6238.71,6023.16 L 6242.94,6007.39 L 6869.24,6005.53 Z " />
<path stroke="none" fill="#0000ff" transform="matrix(0.05 0 0 0.05 -40 -26)" d="M 7516.08,5698.24 L 7516.08,5666.24 L 8116.08,5666.24 L 8116.08,5698.24 L 7516.08,5698.24 Z " />
<path stroke="none" fill="#0000ff" transform="matrix(0.05 0 0 0.05 -40 -26)" d="M 7516.08,5788.24 L 7516.08,5756.24 L 8116.08,5756.24 L 8116.08,5788.24 L 7516.08,5788.24 Z " />
<path stroke="none" fill="#0000ff" transform="matrix(0.05 0 0 0.05 -40 -26)" d="M 7516.08,5878.24 L 7516.08,5846.24 L 8116.08,5846.24 L 8116.08,5878.24 L 7516.08,5878.24 Z " />
<path stroke="none" fill="#0000ff" transform="matrix(0.05 0 0 0.05 -40 -26)" d="M 7516.08,5968.24 L 7516.08,5936.24 L 8116.08,5936.24 L 8116.08,5968.24 L 7516.08,5968.24 Z " />
<path stroke="none" fill="#0000ff" transform="matrix(0.05 0 0 0.05 -40 -26)" d="M 9485.25,5815.85 L 9489.48,5800.08 L 9518.77,5800.08 L 9555.21,5819.56 L 9539.22,5847.27 L 9485.25,5815.85 Z " />
<path stroke="none" fill="#0000ff" transform="matrix(0.05 0 0 0.05 -40 -26)" d="M 9596.95,5880.6 L 9612.95,5852.89 L 9670.69,5886.22 L 9654.69,5913.94 L 9596.95,5880.6 Z " />
<path stroke="none" fill="#0000ff" transform="matrix(0.05 0 0 0.05 -40 -26)" d="M 9712.42,5947.27 L 9728.42,5919.56 L 9786.16,5952.89 L 9770.16,5980.6 L 9712.42,5947.27 Z " />
<path stroke="none" fill="#0000ff" transform="matrix(0.05 0 0 0.05 -40 -26)" d="M 9827.89,6013.94 L 9843.89,5986.22 L 9901.63,6019.56 L 9885.63,6047.27 L 9827.89,6013.94 Z " />
<path stroke="none" fill="#0000ff" transform="matrix(0.05 0 0 0.05 -40 -26)" d="M 9943.36,6080.6 L 9959.36,6052.89 L 10017.1,6086.22 L 10001.1,6113.94 L 9943.36,6080.6 Z " />
<path stroke="none" fill="#0000ff" transform="matrix(0.05 0 0 0.05 -40 -26)" d="M 10026.7,6130.61 L 9994.45,6074.71 L 9994.45,5525.45 L 10026.7,5469.55 L 10026.7,6130.61 Z " />
<path stroke="none" fill="#0000ff" transform="matrix(0.05 0 0 0.05 -40 -26)" d="M 10026.7,5469.55 L 9994.45,5525.45 L 9959.36,5547.27 L 9943.36,5519.56 L 10026.7,5469.55 Z " />
<path stroke="none" fill="#0000ff" transform="matrix(0.05 0 0 0.05 -40 -26)" d="M 9885.63,5552.89 L 9901.63,5580.6 L 9843.89,5613.94 L 9827.89,5586.22 L 9885.63,5552.89 Z " />
<path stroke="none" fill="#0000ff" transform="matrix(0.05 0 0 0.05 -40 -26)" d="M 9770.16,5619.56 L 9786.16,5647.27 L 9728.42,5680.6 L 9712.42,5652.89 L 9770.16,5619.56 Z " />
<path stroke="none" fill="#0000ff" transform="matrix(0.05 0 0 0.05 -40 -26)" d="M 9654.69,5686.22 L 9670.69,5713.94 L 9612.95,5747.27 L 9596.95,5719.56 L 9654.69,5686.22 Z " />
<path stroke="none" fill="#0000ff" transform="matrix(0.05 0 0 0.05 -40 -26)" d="M 9539.22,5752.89 L 9555.21,5780.6 L 9497.48,5813.94 L 9481.48,5786.22 L 9539.22,5752.89 Z " />
<path stroke="none" fill="#0000ff" transform="matrix(0.05 0 0 0.05 -40 -26)" d="M 9485.25,5784.31 L 9489.48,5800.08 L 9485.25,5815.85 L 8898.44,5815.6 L 8889.48,5800.08 L 8898.44,5784.56 L 9485.25,5784.31 Z " />
<path stroke="none" fill="#0000ff" transform="matrix(0.05 0 0 0.05 -40 -26)" d="M 9465.36,5874.08 L 9465.36,5906.08 L 9390.52,5906.08 L 9390.52,5874.08 L 9465.36,5874.08 Z " />
<path stroke="none" fill="#0000ff" transform="matrix(0.05 0 0 0.05 -40 -26)" d="M 9315.67,5874.08 L 9315.67,5906.08 L 9240.83,5906.08 L 9240.83,5874.08 L 9315.67,5874.08 Z " />
<path stroke="none" fill="#0000ff" transform="matrix(0.05 0 0 0.05 -40 -26)" d="M 9165.98,5874.08 L 9165.98,5906.08 L 9091.13,5906.08 L 9091.13,5874.08 L 9165.98,5874.08 Z " />
<path stroke="none" fill="#0000ff" transform="matrix(0.05 0 0 0.05 -40 -26)" d="M 9016.29,5874.08 L 9016.29,5906.08 L 8941.44,5906.08 L 8941.44,5874.08 L 9016.29,5874.08 Z " />
<path stroke="none" fill="#0000ff" transform="matrix(0.05 0 0 0.05 -40 -26)" d="M 8898.44,5784.56 L 8889.48,5800.08 L 8871.56,5800.08 L 8575.62,5288.46 L 8603.34,5272.46 L 8898.44,5784.56 Z " />
<path stroke="none" fill="#0000ff" transform="matrix(0.05 0 0 0.05 -40 -26)" d="M 8871.56,5800.08 L 8889.48,5800.08 L 8898.44,5815.6 L 8603.34,6327.7 L 8575.62,6311.7 L 8871.56,5800.08 Z " />
<text x="0" y="0" stroke="none" fill="#0000ff" transform="matrix(0.05 0 0 0.05 366.692 317.2)" font-style="normal" font-weight="normal" font-size="280px" font-family="Chalkboard" >
Homoallyl </text>
<text x="0" y="0" stroke="none" fill="#0000ff" transform="matrix(0.05 0 0 0.05 432.128 317.2)" font-style="normal" font-weight="normal" font-size="280px" font-family="Chalkboard" >
carbocation</text>
<path stroke="none" fill="#0000ff" transform="matrix(0.05 0 0 0.05 -40 -26)" d="M 12522.4,5816.08 L 11171.2,5816.08 L 11171.2,5784.08 L 12522.4,5784.08 Z " />
<path stroke="none" fill="#0000ff" transform="matrix(0.05 0 0 0.05 -40 -26)" d="M 12801.4,5800.08 C 12801.4,5800.08 12481.4,5881.08 12481.4,5881.08 C 12481.4,5881.08 12521.4,5835.52 12521.4,5800.08 C 12521.4,5764.21 12481.4,5718.08 12481.4,5718.08 C 12481.4,5718.08 12801.4,5800.08 12801.4,5800.08 C 12801.4,5800.08 12801.4,5800.08 12801.4,5800.08 " />
<path stroke="#0000ff" stroke-width="1" fill="none" transform="matrix(0.05 0 0 0.05 -40 -26)" d="M 12801.4,5800.08 C 12801.4,5800.08 12481.4,5881.08 12481.4,5881.08 C 12481.4,5881.08 12521.4,5835.52 12521.4,5800.08 C 12521.4,5764.21 12481.4,5718.08 12481.4,5718.08 C 12481.4,5718.08 12801.4,5800.08 12801.4,5800.08 C 12801.4,5800.08 12801.4,5800.08 12801.4,5800.08 " />
<text x="0" y="0" stroke="none" fill="#0000ff" transform="matrix(0.05 0 0 0.05 519.416 257.14)" font-style="normal" font-weight="normal" font-size="280px" font-family="Chalkboard" >
CH</text>
<text x="0" y="0" stroke="none" fill="#0000ff" transform="matrix(0.05 0 0 0.05 536.34 261.1)" font-style="normal" font-weight="normal" font-size="210px" font-family="Chalkboard" >
3</text>
<text x="0" y="0" stroke="none" fill="#0000ff" transform="matrix(0.05 0 0 0.05 542.315 257.14)" font-style="normal" font-weight="normal" font-size="280px" font-family="Chalkboard" >
COOH</text>
<path stroke="#0000ff" stroke-width="32" fill="none" transform="matrix(0.05 0 0 0.05 -40 -26)" d="M 12132.1,5353.92 C 11632,4853.75 10772.5,4788.72 10202.8,5207.93 " />
<path stroke="none" fill="#0000ff" transform="matrix(0.05 0 0 0.05 -40 -26)" d="M 10032.9,5353.92 C 10032.9,5353.92 10184.4,5137.54 10184.4,5137.54 C 10184.4,5137.54 10184.1,5186.26 10202.8,5207.93 C 10221.5,5229.61 10269.8,5236.62 10269.8,5236.62 C 10269.8,5236.62 10032.9,5353.92 10032.9,5353.92 C 10032.9,5353.92 10032.9,5353.92 10032.9,5353.92 " />
<path stroke="#0000ff" stroke-width="1" fill="none" transform="matrix(0.05 0 0 0.05 -40 -26)" d="M 10032.9,5353.92 C 10032.9,5353.92 10184.4,5137.54 10184.4,5137.54 C 10184.4,5137.54 10184.1,5186.26 10202.8,5207.93 C 10221.5,5229.61 10269.8,5236.62 10269.8,5236.62 C 10269.8,5236.62 10032.9,5353.92 10032.9,5353.92 C 10032.9,5353.92 10032.9,5353.92 10032.9,5353.92 " />
<path stroke="#0000ff" stroke-width="32" fill="none" transform="matrix(0.05 0 0 0.05 -40 -26)" d="M 10231.9,6391.83 C 10790.9,6776.04 11556.5,6634.14 11940.7,6075.12 C 12019.7,5960.22 12078.9,5831.79 12115,5697.12 " />
<path stroke="none" fill="#0000ff" transform="matrix(0.05 0 0 0.05 -40 -26)" d="M 10059,6248.02 C 10059,6248.02 10298.7,6361.97 10298.7,6361.97 C 10298.7,6361.97 10250.4,6369.69 10231.9,6391.83 C 10213.4,6413.97 10214.5,6462.78 10214.5,6462.78 C 10214.5,6462.78 10059,6248.02 10059,6248.02 C 10059,6248.02 10059,6248.02 10059,6248.02 " />
<path stroke="#0000ff" stroke-width="1" fill="none" transform="matrix(0.05 0 0 0.05 -40 -26)" d="M 10059,6248.02 C 10059,6248.02 10298.7,6361.97 10298.7,6361.97 C 10298.7,6361.97 10250.4,6369.69 10231.9,6391.83 C 10213.4,6413.97 10214.5,6462.78 10214.5,6462.78 C 10214.5,6462.78 10059,6248.02 10059,6248.02 C 10059,6248.02 10059,6248.02 10059,6248.02 " />
<path stroke="none" fill="#0000ff" transform="matrix(0.05 0 0 0.05 -40 -26)" d="M 5996.84,2828.1 L 5980.84,2800.38 L 6492.93,2505.28 L 6508.45,2514.24 L 6508.45,2532.16 L 5996.84,2828.1 Z " />
<path stroke="none" fill="#0000ff" transform="matrix(0.05 0 0 0.05 -40 -26)" d="M 6508.45,2532.16 L 6508.45,2514.24 L 6523.98,2505.28 L 7028.07,2796.32 L 7028.07,2833.3 L 6508.45,2532.16 Z " />
<path stroke="none" fill="#0000ff" transform="matrix(0.05 0 0 0.05 -40 -26)" d="M 6590.45,2476.13 L 6606.45,2448.42 L 7036.07,2696.46 L 7020.07,2724.17 L 6590.45,2476.13 Z " />
<path stroke="none" fill="#0000ff" transform="matrix(0.05 0 0 0.05 -40 -26)" d="M 6523.98,2505.28 L 6508.45,2514.24 L 6492.93,2505.28 L 6492.45,1914.24 L 6524.45,1914.24 L 6523.98,2505.28 Z " />
<path stroke="none" fill="#0000ff" transform="matrix(0.05 0 0 0.05 -40 -26)" d="M 7028.07,2833.3 L 7028.07,2796.32 L 7547.69,2495.18 L 7547.69,2532.16 L 7028.07,2833.3 Z " />
<path stroke="none" fill="#0000ff" transform="matrix(0.05 0 0 0.05 -40 -26)" d="M 7547.69,2532.16 L 7547.69,2495.18 L 8067.46,2796.4 L 8067.44,2833.39 L 7547.69,2532.16 Z " />
<text x="0" y="0" stroke="none" fill="#0000ff" transform="matrix(0.05 0 0 0.05 384.264 104.538)" font-style="normal" font-weight="normal" font-size="280px" font-family="Chalkboard" >
OAc</text>
<path stroke="none" fill="#0000ff" transform="matrix(0.05 0 0 0.05 -40 -26)" d="M 8067.44,2833.39 L 8067.46,2796.4 L 8459.96,2569.06 L 8475.96,2596.77 L 8067.44,2833.39 Z " />
<path stroke="none" fill="#0000ff" transform="matrix(0.05 0 0 0.05 -40 -26)" d="M 866,2793.78 L 850,2766.06 L 1362.09,2470.96 L 1377.62,2479.92 L 1377.62,2497.84 L 866,2793.78 Z " />
<path stroke="none" fill="#0000ff" transform="matrix(0.05 0 0 0.05 -40 -26)" d="M 1377.62,2497.84 L 1377.62,2479.92 L 1393.14,2470.96 L 1897.23,2762 L 1897.23,2798.98 L 1377.62,2497.84 Z " />
<path stroke="none" fill="#0000ff" transform="matrix(0.05 0 0 0.05 -40 -26)" d="M 1459.62,2441.81 L 1475.61,2414.1 L 1905.23,2662.14 L 1889.23,2689.85 L 1459.62,2441.81 Z " />
<path stroke="none" fill="#0000ff" transform="matrix(0.05 0 0 0.05 -40 -26)" d="M 1897.23,2798.98 L 1897.23,2762 L 2416.85,2460.86 L 2416.85,2497.84 L 1897.23,2798.98 Z " />
<path stroke="none" fill="#0000ff" transform="matrix(0.05 0 0 0.05 -40 -26)" d="M 2416.85,2497.84 L 2416.85,2460.86 L 2936.62,2762.08 L 2936.6,2799.07 L 2416.85,2497.84 Z " />
<text x="0" y="0" stroke="none" fill="#0000ff" transform="matrix(0.05 0 0 0.05 127.722 102.823)" font-style="normal" font-weight="normal" font-size="280px" font-family="Chalkboard" >
OTs</text>
<path stroke="none" fill="#0000ff" transform="matrix(0.05 0 0 0.05 -40 -26)" d="M 2936.6,2799.07 L 2936.62,2762.08 L 3326.37,2536.33 L 3342.37,2564.04 L 2936.6,2799.07 Z " />
<path stroke="none" fill="#0000ff" transform="matrix(0.05 0 0 0.05 -40 -26)" d="M 1393.14,2470.96 L 1377.62,2479.92 L 1362.09,2470.96 L 1361.62,1879.92 L 1393.61,1879.92 L 1393.14,2470.96 Z " />
<path stroke="none" fill="#0000ff" transform="matrix(0.05 0 0 0.05 -40 -26)" d="M 5996.84,1523.94 L 5980.84,1496.22 L 6492.93,1201.12 L 6508.45,1210.08 L 6508.45,1228 L 5996.84,1523.94 Z " />
<path stroke="none" fill="#0000ff" transform="matrix(0.05 0 0 0.05 -40 -26)" d="M 6508.45,1228 L 6508.45,1210.08 L 6523.98,1201.12 L 7028.07,1492.16 L 7028.07,1529.14 L 6508.45,1228 Z " />
<path stroke="none" fill="#0000ff" transform="matrix(0.05 0 0 0.05 -40 -26)" d="M 6523.98,1201.12 L 6508.45,1210.08 L 6492.93,1201.12 L 6492.45,610.08 L 6524.45,610.08 L 6523.98,1201.12 Z " />
<path stroke="none" fill="#0000ff" transform="matrix(0.05 0 0 0.05 -40 -26)" d="M 7028.07,1529.14 L 7028.07,1492.16 L 7547.69,1191.02 L 7547.69,1228 L 7028.07,1529.14 Z " />
<path stroke="none" fill="#0000ff" transform="matrix(0.05 0 0 0.05 -40 -26)" d="M 7547.69,1228 L 7547.69,1191.02 L 8067.46,1492.24 L 8067.44,1529.23 L 7547.69,1228 Z " />
<text x="0" y="0" stroke="none" fill="#0000ff" transform="matrix(0.05 0 0 0.05 384.264 39.3305)" font-style="normal" font-weight="normal" font-size="280px" font-family="Chalkboard" >
OAc</text>
<path stroke="none" fill="#0000ff" transform="matrix(0.05 0 0 0.05 -40 -26)" d="M 8067.44,1529.23 L 8067.46,1492.24 L 8459.96,1264.9 L 8475.96,1292.61 L 8067.44,1529.23 Z " />
<path stroke="none" fill="#0000ff" transform="matrix(0.05 0 0 0.05 -40 -26)" d="M 866,1489.62 L 850,1461.9 L 1362.09,1166.8 L 1377.62,1175.76 L 1377.62,1193.68 L 866,1489.62 Z " />
<path stroke="none" fill="#0000ff" transform="matrix(0.05 0 0 0.05 -40 -26)" d="M 1377.62,1193.68 L 1377.62,1175.76 L 1393.14,1166.8 L 1897.23,1457.84 L 1897.23,1494.82 L 1377.62,1193.68 Z " />
<path stroke="none" fill="#0000ff" transform="matrix(0.05 0 0 0.05 -40 -26)" d="M 1897.23,1494.82 L 1897.23,1457.84 L 2416.85,1156.7 L 2416.85,1193.68 L 1897.23,1494.82 Z " />
<path stroke="none" fill="#0000ff" transform="matrix(0.05 0 0 0.05 -40 -26)" d="M 2416.85,1193.68 L 2416.85,1156.7 L 2936.62,1457.92 L 2936.6,1494.91 L 2416.85,1193.68 Z " />
<text x="0" y="0" stroke="none" fill="#0000ff" transform="matrix(0.05 0 0 0.05 127.722 37.6145)" font-style="normal" font-weight="normal" font-size="280px" font-family="Chalkboard" >
OTs</text>
<path stroke="none" fill="#0000ff" transform="matrix(0.05 0 0 0.05 -40 -26)" d="M 2936.6,1494.91 L 2936.62,1457.92 L 3326.37,1232.17 L 3342.37,1259.88 L 2936.6,1494.91 Z " />
<path stroke="none" fill="#0000ff" transform="matrix(0.05 0 0 0.05 -40 -26)" d="M 1393.14,1166.8 L 1377.62,1175.76 L 1362.09,1166.8 L 1361.62,575.76 L 1393.61,575.76 L 1393.14,1166.8 Z " />
<path stroke="none" fill="#0000ff" transform="matrix(0.05 0 0 0.05 -40 -26)" d="M 5435.28,1217.2 L 4187.04,1217.2 L 4187.04,1185.2 L 5435.28,1185.2 Z " />
<path stroke="none" fill="#0000ff" transform="matrix(0.05 0 0 0.05 -40 -26)" d="M 5714.28,1201.2 C 5714.28,1201.2 5394.28,1282.2 5394.28,1282.2 C 5394.28,1282.2 5434.28,1236.64 5434.28,1201.2 C 5434.28,1165.32 5394.28,1119.2 5394.28,1119.2 C 5394.28,1119.2 5714.28,1201.2 5714.28,1201.2 C 5714.28,1201.2 5714.28,1201.2 5714.28,1201.2 " />
<path stroke="#0000ff" stroke-width="1" fill="none" transform="matrix(0.05 0 0 0.05 -40 -26)" d="M 5714.28,1201.2 C 5714.28,1201.2 5394.28,1282.2 5394.28,1282.2 C 5394.28,1282.2 5434.28,1236.64 5434.28,1201.2 C 5434.28,1165.32 5394.28,1119.2 5394.28,1119.2 C 5394.28,1119.2 5714.28,1201.2 5714.28,1201.2 C 5714.28,1201.2 5714.28,1201.2 5714.28,1201.2 " />
<text x="0" y="0" stroke="none" fill="#0000ff" transform="matrix(0.05 0 0 0.05 171.068 27.196)" font-style="normal" font-weight="normal" font-size="280px" font-family="Chalkboard" >
CH</text>
<text x="0" y="0" stroke="none" fill="#0000ff" transform="matrix(0.05 0 0 0.05 187.992 31.1561)" font-style="normal" font-weight="normal" font-size="210px" font-family="Chalkboard" >
3</text>
<text x="0" y="0" stroke="none" fill="#0000ff" transform="matrix(0.05 0 0 0.05 193.967 27.196)" font-style="normal" font-weight="normal" font-size="280px" font-family="Chalkboard" >
COOH</text>
<path stroke="none" fill="#0000ff" transform="matrix(0.05 0 0 0.05 -40 -26)" d="M 5469.6,2504.2 L 4221.36,2504.2 L 4221.36,2472.2 L 5469.6,2472.2 Z " />
<path stroke="none" fill="#0000ff" transform="matrix(0.05 0 0 0.05 -40 -26)" d="M 5748.6,2488.2 C 5748.6,2488.2 5428.6,2569.2 5428.6,2569.2 C 5428.6,2569.2 5468.6,2523.64 5468.6,2488.2 C 5468.6,2452.32 5428.6,2406.2 5428.6,2406.2 C 5428.6,2406.2 5748.6,2488.2 5748.6,2488.2 C 5748.6,2488.2 5748.6,2488.2 5748.6,2488.2 " />
<path stroke="#0000ff" stroke-width="1" fill="none" transform="matrix(0.05 0 0 0.05 -40 -26)" d="M 5748.6,2488.2 C 5748.6,2488.2 5428.6,2569.2 5428.6,2569.2 C 5428.6,2569.2 5468.6,2523.64 5468.6,2488.2 C 5468.6,2452.32 5428.6,2406.2 5428.6,2406.2 C 5428.6,2406.2 5748.6,2488.2 5748.6,2488.2 C 5748.6,2488.2 5748.6,2488.2 5748.6,2488.2 " />
<text x="0" y="0" stroke="none" fill="#0000ff" transform="matrix(0.05 0 0 0.05 172.784 91.546)" font-style="normal" font-weight="normal" font-size="280px" font-family="Chalkboard" >
CH</text>
<text x="0" y="0" stroke="none" fill="#0000ff" transform="matrix(0.05 0 0 0.05 189.708 95.5061)" font-style="normal" font-weight="normal" font-size="210px" font-family="Chalkboard" >
3</text>
<text x="0" y="0" stroke="none" fill="#0000ff" transform="matrix(0.05 0 0 0.05 195.683 91.546)" font-style="normal" font-weight="normal" font-size="280px" font-family="Chalkboard" >
COOH</text>
<text x="0" y="0" stroke="none" fill="#0000ff" transform="matrix(0.05 0 0 0.05 195.092 46.93)" font-style="normal" font-weight="normal" font-size="280px" font-family="Chalkboard" >
k</text>
<text x="0" y="0" stroke="none" fill="#0000ff" transform="matrix(0.05 0 0 0.05 202.486 50.8901)" font-style="normal" font-weight="normal" font-size="210px" font-family="Chalkboard" >
1</text>
<text x="0" y="0" stroke="none" fill="#0000ff" transform="matrix(0.05 0 0 0.05 197.666 112.138)" font-style="normal" font-weight="normal" font-size="280px" font-family="Chalkboard" >
k</text>
<text x="0" y="0" stroke="none" fill="#0000ff" transform="matrix(0.05 0 0 0.05 205.06 116.098)" font-style="normal" font-weight="normal" font-size="210px" font-family="Chalkboard" >
2</text>
<text x="0" y="0" stroke="none" fill="#0000ff" transform="matrix(0.05 0 0 0.05 464.576 257.183)" font-style="normal" font-weight="normal" font-size="280px" font-family="Songti SC" >
δ</text>
<text x="0" y="0" stroke="none" fill="#0000ff" transform="matrix(0.05 0 0 0.05 471.31 257.183)" font-style="normal" font-weight="normal" font-size="280px" font-family="Chalkboard" >
+</text>
<text x="0" y="0" stroke="none" fill="#0000ff" transform="matrix(0.05 0 0 0.05 463.718 280.349)" font-style="normal" font-weight="normal" font-size="280px" font-family="Songti SC" >
δ</text>
<text x="0" y="0" stroke="none" fill="#0000ff" transform="matrix(0.05 0 0 0.05 470.452 280.349)" font-style="normal" font-weight="normal" font-size="280px" font-family="Chalkboard" >
+</text>
<text x="0" y="0" stroke="none" fill="#0000ff" transform="matrix(0.05 0 0 0.05 405.374 261.473)" font-style="normal" font-weight="normal" font-size="280px" font-family="Songti SC" >
δ</text>
<text x="0" y="0" stroke="none" fill="#0000ff" transform="matrix(0.05 0 0 0.05 412.108 261.473)" font-style="normal" font-weight="normal" font-size="280px" font-family="Chalkboard" >
+</text>
<text x="0" y="0" stroke="none" fill="#0000ff" transform="matrix(0.05 0 0 0.05 179.648 212.524)" font-style="normal" font-weight="normal" font-size="280px" font-family="Chalkboard" >
k</text>
<text x="0" y="0" stroke="none" fill="#0000ff" transform="matrix(0.05 0 0 0.05 187.042 216.484)" font-style="normal" font-weight="normal" font-size="210px" font-family="Chalkboard" >
2</text>
<text x="0" y="0" stroke="none" fill="#0000ff" transform="matrix(0.05 0 0 0.05 193.018 212.524)" font-style="normal" font-weight="normal" font-size="280px" font-family="Chalkboard" >
 </text>
<text x="0" y="0" stroke="none" fill="#0000ff" transform="matrix(0.05 0 0 0.05 198.37 212.524)" font-style="normal" font-weight="normal" font-size="280px" font-family="Chalkboard" >
= </text>
<text x="0" y="0" stroke="none" fill="#0000ff" transform="matrix(0.05 0 0 0.05 210.545 212.524)" font-style="normal" font-weight="normal" font-size="280px" font-family="Chalkboard" >
k</text>
<text x="0" y="0" stroke="none" fill="#0000ff" transform="matrix(0.05 0 0 0.05 217.939 216.484)" font-style="normal" font-weight="normal" font-size="210px" font-family="Chalkboard" >
3 </text>
<text x="0" y="0" stroke="none" fill="#0000ff" transform="matrix(0.05 0 0 0.05 227.929 212.524)" font-style="normal" font-weight="normal" font-size="280px" font-family="Chalkboard" >
&gt;&gt; </text>
<text x="0" y="0" stroke="none" fill="#0000ff" transform="matrix(0.05 0 0 0.05 245.657 212.524)" font-style="normal" font-weight="normal" font-size="280px" font-family="Chalkboard" >
k</text>
<text x="0" y="0" stroke="none" fill="#0000ff" transform="matrix(0.05 0 0 0.05 253.051 216.484)" font-style="normal" font-weight="normal" font-size="210px" font-family="Chalkboard" >
1</text>
<text x="0" y="0" stroke="none" fill="#0000ff" transform="matrix(0.05 0 0 0.05 100.712 60.658)" font-style="normal" font-weight="normal" font-size="280px" font-family="Chalkboard" >
14</text>
<text x="0" y="0" stroke="none" fill="#0000ff" transform="matrix(0.05 0 0 0.05 357.254 60.658)" font-style="normal" font-weight="normal" font-size="280px" font-family="Chalkboard" >
14</text>
<text x="0" y="0" stroke="none" fill="#0000ff" transform="matrix(0.05 0 0 0.05 100.712 124.15)" font-style="normal" font-weight="normal" font-size="280px" font-family="Chalkboard" >
14</text>
<text x="0" y="0" stroke="none" fill="#0000ff" transform="matrix(0.05 0 0 0.05 358.112 125.866)" font-style="normal" font-weight="normal" font-size="280px" font-family="Chalkboard" >
14</text>
<path stroke="none" fill="#0000ff" transform="matrix(0.05 0 0 0.05 -40 -26)" d="M 9806.36,2793.78 L 9790.36,2766.06 L 10302.5,2470.96 L 10318,2479.92 L 10318,2497.84 L 9806.36,2793.78 Z " />
<path stroke="none" fill="#0000ff" transform="matrix(0.05 0 0 0.05 -40 -26)" d="M 10318,2497.84 L 10318,2479.92 L 10333.5,2470.96 L 10837.6,2762 L 10837.6,2798.98 L 10318,2497.84 Z " />
<path stroke="none" fill="#0000ff" transform="matrix(0.05 0 0 0.05 -40 -26)" d="M 10400,2441.81 L 10416,2414.1 L 10845.6,2662.14 L 10829.6,2689.85 L 10400,2441.81 Z " />
<path stroke="none" fill="#0000ff" transform="matrix(0.05 0 0 0.05 -40 -26)" d="M 10333.5,2470.96 L 10318,2479.92 L 10302.5,2470.96 L 10302,1879.92 L 10334,1879.92 L 10333.5,2470.96 Z " />
<path stroke="none" fill="#0000ff" transform="matrix(0.05 0 0 0.05 -40 -26)" d="M 10837.6,2798.98 L 10837.6,2762 L 11357.2,2460.86 L 11357.2,2497.84 L 10837.6,2798.98 Z " />
<path stroke="none" fill="#0000ff" transform="matrix(0.05 0 0 0.05 -40 -26)" d="M 11357.2,2497.84 L 11357.2,2460.86 L 11877,2762.08 L 11877,2799.07 L 11357.2,2497.84 Z " />
<text x="0" y="0" stroke="none" fill="#0000ff" transform="matrix(0.05 0 0 0.05 574.74 102.822)" font-style="normal" font-weight="normal" font-size="280px" font-family="Chalkboard" >
OAc</text>
<path stroke="none" fill="#0000ff" transform="matrix(0.05 0 0 0.05 -40 -26)" d="M 11877,2799.07 L 11877,2762.08 L 12269,2534.99 L 12285,2562.7 L 11877,2799.07 Z " />
<text x="0" y="0" stroke="none" fill="#0000ff" transform="matrix(0.05 0 0 0.05 520.274 95.836)" font-style="normal" font-weight="normal" font-size="280px" font-family="Chalkboard" >
14</text>
<text x="0" y="0" stroke="none" fill="#0000ff" transform="matrix(0.05 0 0 0.05 426.752 106.99)" font-style="normal" font-weight="normal" font-size="280px" font-family="Chalkboard" >
+</text>
<path stroke="none" fill="#0000ff" transform="matrix(0.05 0 0 0.05 -40 -26)" d="M 6031.16,4200.9 L 6015.16,4173.18 L 6527.25,3878.08 L 6542.77,3887.04 L 6542.77,3904.96 L 6031.16,4200.9 Z " />
<path stroke="none" fill="#0000ff" transform="matrix(0.05 0 0 0.05 -40 -26)" d="M 6542.77,3904.96 L 6542.77,3887.04 L 6558.3,3878.08 L 7062.39,4169.12 L 7062.39,4206.1 L 6542.77,3904.96 Z " />
<path stroke="none" fill="#0000ff" transform="matrix(0.05 0 0 0.05 -40 -26)" d="M 6624.77,3848.93 L 6640.77,3821.22 L 7070.39,4069.26 L 7054.39,4096.97 L 6624.77,3848.93 Z " />
<path stroke="none" fill="#0000ff" transform="matrix(0.05 0 0 0.05 -40 -26)" d="M 6558.3,3878.08 L 6542.77,3887.04 L 6527.25,3878.08 L 6526.77,3287.04 L 6558.77,3287.04 L 6558.3,3878.08 Z " />
<path stroke="none" fill="#0000ff" transform="matrix(0.05 0 0 0.05 -40 -26)" d="M 7062.39,4206.1 L 7062.39,4169.12 L 7582.01,3867.98 L 7582.01,3904.96 L 7062.39,4206.1 Z " />
<path stroke="none" fill="#0000ff" transform="matrix(0.05 0 0 0.05 -40 -26)" d="M 7582.01,3904.96 L 7582.01,3867.98 L 8101.78,4169.2 L 8101.76,4206.19 L 7582.01,3904.96 Z " />
<text x="0" y="0" stroke="none" fill="#0000ff" transform="matrix(0.05 0 0 0.05 385.98 173.178)" font-style="normal" font-weight="normal" font-size="280px" font-family="Chalkboard" >
OAc</text>
<path stroke="none" fill="#0000ff" transform="matrix(0.05 0 0 0.05 -40 -26)" d="M 8101.76,4206.19 L 8101.78,4169.2 L 8494.28,3941.86 L 8510.28,3969.57 L 8101.76,4206.19 Z " />
<path stroke="none" fill="#0000ff" transform="matrix(0.05 0 0 0.05 -40 -26)" d="M 900.32,4166.58 L 884.32,4138.86 L 1396.41,3843.76 L 1411.94,3852.72 L 1411.94,3870.64 L 900.32,4166.58 Z " />
<path stroke="none" fill="#0000ff" transform="matrix(0.05 0 0 0.05 -40 -26)" d="M 1411.94,3870.64 L 1411.94,3852.72 L 1427.46,3843.76 L 1931.55,4134.8 L 1931.55,4171.78 L 1411.94,3870.64 Z " />
<path stroke="none" fill="#0000ff" transform="matrix(0.05 0 0 0.05 -40 -26)" d="M 1493.94,3814.61 L 1509.93,3786.9 L 1939.55,4034.94 L 1923.55,4062.65 L 1493.94,3814.61 Z " />
<path stroke="none" fill="#0000ff" transform="matrix(0.05 0 0 0.05 -40 -26)" d="M 1931.55,4171.78 L 1931.55,4134.8 L 2451.17,3833.66 L 2451.17,3870.64 L 1931.55,4171.78 Z " />
<path stroke="none" fill="#0000ff" transform="matrix(0.05 0 0 0.05 -40 -26)" d="M 2451.17,3870.64 L 2451.17,3833.66 L 2970.94,4134.88 L 2970.92,4171.87 L 2451.17,3870.64 Z " />
<text x="0" y="0" stroke="none" fill="#0000ff" transform="matrix(0.05 0 0 0.05 129.438 171.462)" font-style="normal" font-weight="normal" font-size="280px" font-family="Chalkboard" >
OTs</text>
<path stroke="none" fill="#0000ff" transform="matrix(0.05 0 0 0.05 -40 -26)" d="M 2970.92,4171.87 L 2970.94,4134.88 L 3360.69,3909.13 L 3376.69,3936.84 L 2970.92,4171.87 Z " />
<path stroke="none" fill="#0000ff" transform="matrix(0.05 0 0 0.05 -40 -26)" d="M 1427.46,3843.76 L 1411.94,3852.72 L 1396.41,3843.76 L 1395.94,3252.72 L 1427.93,3252.72 L 1427.46,3843.76 Z " />
<path stroke="none" fill="#0000ff" transform="matrix(0.05 0 0 0.05 -40 -26)" d="M 5503.92,3877 L 4255.68,3877 L 4255.68,3845 L 5503.92,3845 Z " />
<path stroke="none" fill="#0000ff" transform="matrix(0.05 0 0 0.05 -40 -26)" d="M 5782.92,3861 C 5782.92,3861 5462.92,3942 5462.92,3942 C 5462.92,3942 5502.92,3896.44 5502.92,3861 C 5502.92,3825.12 5462.92,3779 5462.92,3779 C 5462.92,3779 5782.92,3861 5782.92,3861 C 5782.92,3861 5782.92,3861 5782.92,3861 " />
<path stroke="#0000ff" stroke-width="1" fill="none" transform="matrix(0.05 0 0 0.05 -40 -26)" d="M 5782.92,3861 C 5782.92,3861 5462.92,3942 5462.92,3942 C 5462.92,3942 5502.92,3896.44 5502.92,3861 C 5502.92,3825.12 5462.92,3779 5462.92,3779 C 5462.92,3779 5782.92,3861 5782.92,3861 C 5782.92,3861 5782.92,3861 5782.92,3861 " />
<text x="0" y="0" stroke="none" fill="#0000ff" transform="matrix(0.05 0 0 0.05 174.5 160.186)" font-style="normal" font-weight="normal" font-size="280px" font-family="Chalkboard" >
CH</text>
<text x="0" y="0" stroke="none" fill="#0000ff" transform="matrix(0.05 0 0 0.05 191.424 164.146)" font-style="normal" font-weight="normal" font-size="210px" font-family="Chalkboard" >
3</text>
<text x="0" y="0" stroke="none" fill="#0000ff" transform="matrix(0.05 0 0 0.05 197.399 160.186)" font-style="normal" font-weight="normal" font-size="280px" font-family="Chalkboard" >
COOH</text>
<text x="0" y="0" stroke="none" fill="#0000ff" transform="matrix(0.05 0 0 0.05 199.382 180.778)" font-style="normal" font-weight="normal" font-size="280px" font-family="Chalkboard" >
k</text>
<text x="0" y="0" stroke="none" fill="#0000ff" transform="matrix(0.05 0 0 0.05 206.776 184.738)" font-style="normal" font-weight="normal" font-size="210px" font-family="Chalkboard" >
3</text>
<text x="0" y="0" stroke="none" fill="#0000ff" transform="matrix(0.05 0 0 0.05 74.972 162.76)" font-style="normal" font-weight="normal" font-size="280px" font-family="Chalkboard" >
14</text>
<text x="0" y="0" stroke="none" fill="#0000ff" transform="matrix(0.05 0 0 0.05 359.828 194.506)" font-style="normal" font-weight="normal" font-size="280px" font-family="Chalkboard" >
14</text>
<path stroke="none" fill="#0000ff" transform="matrix(0.05 0 0 0.05 -40 -26)" d="M 9840.68,4166.58 L 9824.68,4138.86 L 10336.8,3843.76 L 10352.3,3852.72 L 10352.3,3870.64 L 9840.68,4166.58 Z " />
<path stroke="none" fill="#0000ff" transform="matrix(0.05 0 0 0.05 -40 -26)" d="M 10352.3,3870.64 L 10352.3,3852.72 L 10367.8,3843.76 L 10871.9,4134.8 L 10871.9,4171.78 L 10352.3,3870.64 Z " />
<path stroke="none" fill="#0000ff" transform="matrix(0.05 0 0 0.05 -40 -26)" d="M 10434.3,3814.61 L 10450.3,3786.9 L 10879.9,4034.94 L 10863.9,4062.65 L 10434.3,3814.61 Z " />
<path stroke="none" fill="#0000ff" transform="matrix(0.05 0 0 0.05 -40 -26)" d="M 10367.8,3843.76 L 10352.3,3852.72 L 10336.8,3843.76 L 10336.3,3252.72 L 10368.3,3252.72 L 10367.8,3843.76 Z " />
<path stroke="none" fill="#0000ff" transform="matrix(0.05 0 0 0.05 -40 -26)" d="M 10871.9,4171.78 L 10871.9,4134.8 L 11391.5,3833.66 L 11391.5,3870.64 L 10871.9,4171.78 Z " />
<path stroke="none" fill="#0000ff" transform="matrix(0.05 0 0 0.05 -40 -26)" d="M 11391.5,3870.64 L 11391.5,3833.66 L 11911.3,4134.88 L 11911.3,4171.87 L 11391.5,3870.64 Z " />
<text x="0" y="0" stroke="none" fill="#0000ff" transform="matrix(0.05 0 0 0.05 576.456 171.462)" font-style="normal" font-weight="normal" font-size="280px" font-family="Chalkboard" >
OAc</text>
<path stroke="none" fill="#0000ff" transform="matrix(0.05 0 0 0.05 -40 -26)" d="M 11911.3,4171.87 L 11911.3,4134.88 L 12303.4,3907.79 L 12319.4,3935.5 L 11911.3,4171.87 Z " />
<text x="0" y="0" stroke="none" fill="#0000ff" transform="matrix(0.05 0 0 0.05 521.99 164.476)" font-style="normal" font-weight="normal" font-size="280px" font-family="Chalkboard" >
14</text>
<text x="0" y="0" stroke="none" fill="#0000ff" transform="matrix(0.05 0 0 0.05 428.468 175.63)" font-style="normal" font-weight="normal" font-size="280px" font-family="Chalkboard" >
+</text>
</svg>
