<?xml version="1.0" standalone="no" ?>
<!DOCTYPE svg PUBLIC "-//W3C//DTD SVG 1.1//EN" "http://www.w3.org/Graphics/SVG/1.1/DTD/svg11.dtd">
<svg width="598px" height="368px" viewBox="0 0 598 368" style="background-color: #ffffff00" xmlns="http://www.w3.org/2000/svg" xmlns:xlink="http://www.w3.org/1999/xlink" version="1.1" >
<path stroke="none" fill="#0000ff" transform="matrix(0.05 0 0 0.05 -60 -210)" d="M 1260.68,7469.58 L 1244.68,7441.86 L 1756.77,7146.76 L 1772.29,7155.72 L 1772.29,7173.64 L 1260.68,7469.58 Z " />
<path stroke="none" fill="#0000ff" transform="matrix(0.05 0 0 0.05 -60 -210)" d="M 1772.29,7173.64 L 1772.29,7155.72 L 1787.82,7146.76 L 2291.91,7437.8 L 2291.91,7455.72 L 2267.55,7458.93 L 1772.29,7173.64 Z " />
<path stroke="none" fill="#0000ff" transform="matrix(0.05 0 0 0.05 -60 -210)" d="M 2307.43,7464.68 L 2291.91,7455.72 L 2291.91,7437.8 L 2811.53,7136.66 L 2811.53,7173.64 L 2307.43,7464.68 Z " />
<path stroke="none" fill="#0000ff" transform="matrix(0.05 0 0 0.05 -60 -210)" d="M 2811.53,7173.64 L 2811.53,7136.66 L 3339.14,7441.86 L 3323.14,7469.58 L 2811.53,7173.64 Z " />
<path stroke="#0000ff" stroke-width="26" fill="none" transform="matrix(0.05 0 0 0.05 -60 -210)" d="M 2731.93,6994.81 A 105.8,105.8 0 1 0 2943.53,6994.81A 105.8,105.8 0 1 0 2731.93,6994.81Z " />
<path stroke="none" fill="#0000ff" transform="matrix(0.05 0 0 0.05 -60 -210)" d="M 2775.4,6982.14 L 2900.73,6982.14 L 2900.73,7008.14 L 2775.4,7008.14 Z " />
<path stroke="none" fill="#0000ff" transform="matrix(0.05 0 0 0.05 -60 -210)" d="M 2851.07,6932.47 L 2851.07,7057.81 L 2825.07,7057.81 L 2825.07,6932.47 Z " />
<path stroke="none" fill="#0000ff" transform="matrix(0.05 0 0 0.05 -60 -210)" d="M 2277.74,7489.94 L 2291.91,7455.72 L 2307.43,7464.68 L 2307.91,8055.72 L 2275.91,8055.72 L 2277.74,7489.94 Z " />
<path stroke="none" fill="#0000ff" transform="matrix(0.05 0 0 0.05 -60 -210)" d="M 2267.55,7458.93 L 2291.91,7455.72 L 2277.74,7489.94 L 1883.3,7886.47 L 1867.65,7879.98 L 1863.01,7862.67 L 2267.55,7458.93 Z " />
<path stroke="none" fill="#0000ff" transform="matrix(0.05 0 0 0.05 -60 -210)" d="M 1863.01,7862.67 L 1867.65,7879.98 L 1844.94,7889.39 L 1283.95,7740.15 L 1292.23,7709.24 L 1863.01,7862.67 Z " />
<path stroke="none" fill="#0000ff" transform="matrix(0.05 0 0 0.05 -60 -210)" d="M 1854.3,7929.78 L 1867.65,7879.98 L 1883.3,7886.47 L 1883.65,8479.98 L 1851.65,8479.98 L 1854.3,7929.78 Z " />
<path stroke="none" fill="#0000ff" transform="matrix(0.05 0 0 0.05 -60 -210)" d="M 1844.94,7889.39 L 1867.65,7879.98 L 1854.3,7929.78 L 1581.5,8407.6 L 1553.79,8391.6 L 1844.94,7889.39 Z " />
<path stroke="none" fill="#0000ff" transform="matrix(0.05 0 0 0.05 -60 -210)" d="M 5289.94,7669.36 L 3946.8,7669.36 L 3946.8,7637.36 L 5289.94,7637.36 Z " />
<path stroke="none" fill="#0000ff" transform="matrix(0.05 0 0 0.05 -60 -210)" d="M 5568.94,7653.36 C 5568.94,7653.36 5248.94,7734.36 5248.94,7734.36 C 5248.94,7734.36 5288.94,7688.8 5288.94,7653.36 C 5288.94,7617.49 5248.94,7571.36 5248.94,7571.36 C 5248.94,7571.36 5568.94,7653.36 5568.94,7653.36 C 5568.94,7653.36 5568.94,7653.36 5568.94,7653.36 " />
<path stroke="#0000ff" stroke-width="1" fill="none" transform="matrix(0.05 0 0 0.05 -60 -210)" d="M 5568.94,7653.36 C 5568.94,7653.36 5248.94,7734.36 5248.94,7734.36 C 5248.94,7734.36 5288.94,7688.8 5288.94,7653.36 C 5288.94,7617.49 5248.94,7571.36 5248.94,7571.36 C 5248.94,7571.36 5568.94,7653.36 5568.94,7653.36 C 5568.94,7653.36 5568.94,7653.36 5568.94,7653.36 " />
<path stroke="none" fill="#0000ff" transform="matrix(0.05 0 0 0.05 -60 -210)" d="M 7338.94,5449.12 L 7361.64,5439.72 L 7361.64,5469.01 L 7342.16,5505.45 L 7314.45,5489.46 L 7338.94,5449.12 Z " />
<path stroke="none" fill="#0000ff" transform="matrix(0.05 0 0 0.05 -60 -210)" d="M 7281.12,5547.19 L 7308.83,5563.19 L 7275.5,5620.92 L 7247.78,5604.93 L 7281.12,5547.19 Z " />
<path stroke="none" fill="#0000ff" transform="matrix(0.05 0 0 0.05 -60 -210)" d="M 7214.45,5662.66 L 7242.16,5678.66 L 7208.83,5736.4 L 7181.12,5720.4 L 7214.45,5662.66 Z " />
<path stroke="none" fill="#0000ff" transform="matrix(0.05 0 0 0.05 -60 -210)" d="M 7147.78,5778.13 L 7175.5,5794.13 L 7142.16,5851.87 L 7114.45,5835.87 L 7147.78,5778.13 Z " />
<path stroke="none" fill="#0000ff" transform="matrix(0.05 0 0 0.05 -60 -210)" d="M 7081.12,5893.6 L 7108.83,5909.6 L 7075.5,5967.34 L 7047.78,5951.34 L 7081.12,5893.6 Z " />
<path stroke="none" fill="#0000ff" transform="matrix(0.05 0 0 0.05 -60 -210)" d="M 7070.6,5974.86 L 7061.64,5959.34 L 7087.01,5944.69 L 7636.27,5944.69 L 7661.64,5959.34 L 7657.41,5975.11 L 7070.6,5974.86 Z " />
<path stroke="none" fill="#0000ff" transform="matrix(0.05 0 0 0.05 -60 -210)" d="M 7673.19,5947.79 L 7661.64,5959.34 L 7636.27,5944.69 L 7614.45,5909.6 L 7642.16,5893.6 L 7673.19,5947.79 Z " />
<path stroke="none" fill="#0000ff" transform="matrix(0.05 0 0 0.05 -60 -210)" d="M 7608.83,5835.87 L 7581.12,5851.87 L 7547.78,5794.13 L 7575.5,5778.13 L 7608.83,5835.87 Z " />
<path stroke="none" fill="#0000ff" transform="matrix(0.05 0 0 0.05 -60 -210)" d="M 7542.16,5720.4 L 7514.45,5736.4 L 7481.12,5678.66 L 7508.83,5662.66 L 7542.16,5720.4 Z " />
<path stroke="none" fill="#0000ff" transform="matrix(0.05 0 0 0.05 -60 -210)" d="M 7475.5,5604.93 L 7447.78,5620.92 L 7414.45,5563.19 L 7442.16,5547.19 L 7475.5,5604.93 Z " />
<path stroke="none" fill="#0000ff" transform="matrix(0.05 0 0 0.05 -60 -210)" d="M 7408.83,5489.46 L 7381.12,5505.45 L 7347.78,5447.72 L 7375.5,5431.72 L 7408.83,5489.46 Z " />
<path stroke="none" fill="#0000ff" transform="matrix(0.05 0 0 0.05 -60 -210)" d="M 7657.41,5975.11 L 7661.64,5959.34 L 7673.19,5947.79 L 8189.26,6245.48 L 8173.26,6273.19 L 7657.41,5975.11 Z " />
<path stroke="none" fill="#0000ff" transform="matrix(0.05 0 0 0.05 -60 -210)" d="M 7382.39,5445.28 L 7361.64,5439.72 L 7367.2,5418.97 L 7865.89,5130.66 L 7881.26,5139.72 L 7881.43,5157.56 L 7382.39,5445.28 Z " />
<path stroke="none" fill="#0000ff" transform="matrix(0.05 0 0 0.05 -60 -210)" d="M 7332.25,5417.17 L 7361.64,5439.72 L 7338.94,5449.12 L 6792.57,5302.98 L 6782.08,5284.43 L 6790.07,5270.23 L 7332.25,5417.17 Z " />
<path stroke="none" fill="#0000ff" transform="matrix(0.05 0 0 0.05 -60 -210)" d="M 7367.2,5418.97 L 7361.64,5439.72 L 7332.25,5417.17 L 7050,4931.5 L 7061.64,4920.1 L 7080.74,4922.42 L 7367.2,5418.97 Z " />
<text x="0" y="0" stroke="none" fill="#0000ff" transform="matrix(0.05 0 0 0.05 329.708 21.8125)" font-style="normal" font-weight="normal" font-size="280px" font-family="Chalkboard" >
H</text>
<path stroke="none" fill="#0000ff" transform="matrix(0.05 0 0 0.05 -60 -210)" d="M 7895.54,5115.02 L 7881.26,5139.72 L 7865.89,5130.66 L 7865.26,4679.89 L 7897.25,4679.89 L 7895.54,5115.02 Z " />
<text x="0" y="0" stroke="none" fill="#0000ff" transform="matrix(0.05 0 0 0.05 355.689 66.8125)" font-style="normal" font-weight="normal" font-size="280px" font-family="Chalkboard" >
H</text>
<path stroke="none" fill="#0000ff" transform="matrix(0.05 0 0 0.05 -60 -210)" d="M 7881.43,5157.56 L 7881.26,5139.72 L 7909.76,5139.71 L 8282.22,5352.74 L 8266.22,5380.45 L 7881.43,5157.56 Z " />
<text x="0" y="0" stroke="none" fill="#0000ff" transform="matrix(0.05 0 0 0.05 355.689 36.8125)" font-style="normal" font-weight="normal" font-size="280px" font-family="Chalkboard" >
H</text>
<path stroke="none" fill="#0000ff" transform="matrix(0.05 0 0 0.05 -60 -210)" d="M 7909.76,5139.71 L 7881.26,5139.72 L 7895.54,5115.02 L 8263.79,4900.39 L 8279.79,4928.1 L 7909.76,5139.71 Z " />
<path stroke="none" fill="#0000ff" transform="matrix(0.05 0 0 0.05 -60 -210)" d="M 7050.09,5947.79 L 7061.64,5959.34 L 7025.18,5995.79 L 6557.55,6268.3 L 6542.02,6259.34 L 6542.02,6241.41 L 7050.09,5947.79 Z " />
<path stroke="none" fill="#0000ff" transform="matrix(0.05 0 0 0.05 -60 -210)" d="M 7025.18,5995.79 L 7061.64,5959.34 L 7070.6,5974.86 L 6775.5,6486.95 L 6747.78,6470.95 L 7025.18,5995.79 Z " />
<path stroke="none" fill="#0000ff" transform="matrix(0.05 0 0 0.05 -60 -210)" d="M 6542.02,6241.41 L 6542.02,6259.34 L 6526.5,6268.3 L 6014.41,5973.19 L 6030.41,5945.48 L 6542.02,6241.41 Z " />
<text x="0" y="0" stroke="none" fill="#0000ff" transform="matrix(0.05 0 0 0.05 314.946 69.708)" font-style="normal" font-weight="normal" font-size="280px" font-family="Symbol" >
d+</text>
<path stroke="#0000ff" stroke-width="32" fill="none" transform="matrix(0.05 0 0 0.05 -60 -210)" d="M 7859.28,4873.44 C 7776.1,4790.26 7641.06,4790.26 7557.88,4873.44 C 7531.57,4899.75 7512.35,4933.05 7502.72,4968.98 " />
<path stroke="none" fill="#0000ff" transform="matrix(0.05 0 0 0.05 -60 -210)" d="M 7557.88,5174.84 C 7557.88,5174.84 7435.02,4956.33 7435.02,4956.33 C 7435.02,4956.33 7477.82,4975.96 7502.72,4968.98 C 7527.62,4962 7554.66,4922.81 7554.66,4922.81 C 7554.66,4922.81 7557.88,5174.84 7557.88,5174.84 C 7557.88,5174.84 7557.88,5174.84 7557.88,5174.84 " />
<path stroke="#0000ff" stroke-width="1" fill="none" transform="matrix(0.05 0 0 0.05 -60 -210)" d="M 7557.88,5174.84 C 7557.88,5174.84 7435.02,4956.33 7435.02,4956.33 C 7435.02,4956.33 7477.82,4975.96 7502.72,4968.98 C 7527.62,4962 7554.66,4922.81 7554.66,4922.81 C 7554.66,4922.81 7557.88,5174.84 7557.88,5174.84 C 7557.88,5174.84 7557.88,5174.84 7557.88,5174.84 " />
<path stroke="#0000ff" stroke-width="32" fill="none" transform="matrix(0.05 0 0 0.05 -60 -210)" d="M 8168.16,4942.08 C 8097.87,4820.34 7942.01,4778.58 7820.28,4848.87 C 7771.73,4876.89 7732.95,4921.37 7711.79,4973.27 " />
<path stroke="none" fill="#0000ff" transform="matrix(0.05 0 0 0.05 -60 -210)" d="M 7727.06,5196.75 C 7727.06,5196.75 7644.75,4946.71 7644.75,4946.71 C 7644.75,4946.71 7683.41,4975.62 7711.79,4973.27 C 7740.16,4970.92 7774.46,4935.98 7774.46,4935.98 C 7774.46,4935.98 7727.06,5196.75 7727.06,5196.75 C 7727.06,5196.75 7727.06,5196.75 7727.06,5196.75 " />
<path stroke="#0000ff" stroke-width="1" fill="none" transform="matrix(0.05 0 0 0.05 -60 -210)" d="M 7727.06,5196.75 C 7727.06,5196.75 7644.75,4946.71 7644.75,4946.71 C 7644.75,4946.71 7683.41,4975.62 7711.79,4973.27 C 7740.16,4970.92 7774.46,4935.98 7774.46,4935.98 C 7774.46,4935.98 7727.06,5196.75 7727.06,5196.75 C 7727.06,5196.75 7727.06,5196.75 7727.06,5196.75 " />
<path stroke="#0000ff" stroke-width="32" fill="none" transform="matrix(0.05 0 0 0.05 -60 -210)" d="M 7846.57,5389.82 C 7951.24,5427.93 8078.14,5381.75 8133.84,5285.28 " />
<path stroke="none" fill="#0000ff" transform="matrix(0.05 0 0 0.05 -60 -210)" d="M 7722,5285.28 C 7722,5285.28 7895.23,5368.16 7895.23,5368.16 C 7895.23,5368.16 7856.37,5378.2 7846.57,5389.82 C 7836.76,5401.44 7833.49,5441.34 7833.49,5441.34 C 7833.49,5441.34 7722,5285.28 7722,5285.28 C 7722,5285.28 7722,5285.28 7722,5285.28 " />
<path stroke="#0000ff" stroke-width="1" fill="none" transform="matrix(0.05 0 0 0.05 -60 -210)" d="M 7722,5285.28 C 7722,5285.28 7895.23,5368.16 7895.23,5368.16 C 7895.23,5368.16 7856.37,5378.2 7846.57,5389.82 C 7836.76,5401.44 7833.49,5441.34 7833.49,5441.34 C 7833.49,5441.34 7722,5285.28 7722,5285.28 C 7722,5285.28 7722,5285.28 7722,5285.28 " />
<path stroke="none" fill="#0000ff" transform="matrix(0.05 0 0 0.05 -60 -210)" d="M 10283.5,5798.92 L 8940.36,5798.92 L 8940.36,5766.92 L 10283.5,5766.92 Z " />
<path stroke="none" fill="#0000ff" transform="matrix(0.05 0 0 0.05 -60 -210)" d="M 10562.5,5782.92 C 10562.5,5782.92 10242.5,5863.92 10242.5,5863.92 C 10242.5,5863.92 10282.5,5818.36 10282.5,5782.92 C 10282.5,5747.04 10242.5,5700.92 10242.5,5700.92 C 10242.5,5700.92 10562.5,5782.92 10562.5,5782.92 C 10562.5,5782.92 10562.5,5782.92 10562.5,5782.92 " />
<path stroke="#0000ff" stroke-width="1" fill="none" transform="matrix(0.05 0 0 0.05 -60 -210)" d="M 10562.5,5782.92 C 10562.5,5782.92 10242.5,5863.92 10242.5,5863.92 C 10242.5,5863.92 10282.5,5818.36 10282.5,5782.92 C 10282.5,5747.04 10242.5,5700.92 10242.5,5700.92 C 10242.5,5700.92 10562.5,5782.92 10562.5,5782.92 C 10562.5,5782.92 10562.5,5782.92 10562.5,5782.92 " />
<path stroke="none" fill="#0000ff" transform="matrix(0.05 0 0 0.05 -60 -210)" d="M 11024.7,5993.82 L 11008.7,5966.1 L 11520.8,5671 L 11536.3,5679.96 L 11536.3,5697.88 L 11024.7,5993.82 Z " />
<path stroke="none" fill="#0000ff" transform="matrix(0.05 0 0 0.05 -60 -210)" d="M 11536.3,5697.88 L 11536.3,5679.96 L 11551.9,5671 L 12055.9,5962.04 L 12055.9,5979.96 L 12040.4,5988.92 L 11536.3,5697.88 Z " />
<path stroke="none" fill="#0000ff" transform="matrix(0.05 0 0 0.05 -60 -210)" d="M 12071.5,5988.92 L 12055.9,5979.96 L 12055.9,5962.04 L 12560,5671 L 12575.6,5679.96 L 12575.6,5697.88 L 12071.5,5988.92 Z " />
<path stroke="none" fill="#0000ff" transform="matrix(0.05 0 0 0.05 -60 -210)" d="M 12575.6,5697.88 L 12575.6,5679.96 L 12591.1,5671 L 13103.2,5966.1 L 13087.2,5993.82 L 12575.6,5697.88 Z " />
<path stroke="none" fill="#0000ff" transform="matrix(0.05 0 0 0.05 -60 -210)" d="M 12040.4,5988.92 L 12055.9,5979.96 L 12071.5,5988.92 L 12071.9,6579.96 L 12039.9,6579.96 L 12040.4,5988.92 Z " />
<path stroke="none" fill="#0000ff" transform="matrix(0.05 0 0 0.05 -60 -210)" d="M 12591.1,5671 L 12575.6,5679.96 L 12560,5671 L 12560,5088.92 L 12575.6,5079.96 L 12591.1,5088.92 L 12591.1,5671 Z " />
<path stroke="none" fill="#0000ff" transform="matrix(0.05 0 0 0.05 -60 -210)" d="M 12560.9,5054.59 L 12575.6,5079.96 L 12560,5088.92 L 12048,4793.82 L 12064,4766.1 L 12560.9,5054.59 Z " />
<path stroke="none" fill="#0000ff" transform="matrix(0.05 0 0 0.05 -60 -210)" d="M 12591.1,5088.92 L 12575.6,5079.96 L 12590.2,5054.59 L 13087.2,4766.1 L 13103.2,4793.82 L 12591.1,5088.92 Z " />
<path stroke="none" fill="#0000ff" transform="matrix(0.05 0 0 0.05 -60 -210)" d="M 12590.2,5054.59 L 12575.6,5079.96 L 12560.9,5054.59 L 12559.6,4479.96 L 12591.6,4479.96 L 12590.2,5054.59 Z " />
<path stroke="#0000ff" stroke-width="26" fill="none" transform="matrix(0.05 0 0 0.05 -60 -210)" d="M 11805.6,6054.91 A 105.8,105.8 0 1 0 12017.2,6054.91A 105.8,105.8 0 1 0 11805.6,6054.91Z " />
<path stroke="none" fill="#0000ff" transform="matrix(0.05 0 0 0.05 -60 -210)" d="M 11849.1,6042.24 L 11974.4,6042.24 L 11974.4,6068.24 L 11849.1,6068.24 Z " />
<path stroke="none" fill="#0000ff" transform="matrix(0.05 0 0 0.05 -60 -210)" d="M 11924.8,5992.57 L 11924.8,6117.91 L 11898.8,6117.91 L 11898.8,5992.57 Z " />
<path stroke="none" fill="#0000ff" transform="matrix(0.05 0 0 0.05 -60 -210)" d="M 7323.73,7761.88 L 7344.48,7756.32 L 7344.48,7785.61 L 7325,7822.05 L 7297.29,7806.05 L 7323.73,7761.88 Z " />
<path stroke="none" fill="#0000ff" transform="matrix(0.05 0 0 0.05 -60 -210)" d="M 7263.96,7863.79 L 7291.67,7879.79 L 7258.34,7937.52 L 7230.62,7921.52 L 7263.96,7863.79 Z " />
<path stroke="none" fill="#0000ff" transform="matrix(0.05 0 0 0.05 -60 -210)" d="M 7197.29,7979.26 L 7225,7995.26 L 7191.67,8052.99 L 7163.96,8036.99 L 7197.29,7979.26 Z " />
<path stroke="none" fill="#0000ff" transform="matrix(0.05 0 0 0.05 -60 -210)" d="M 7130.62,8094.73 L 7158.34,8110.73 L 7125,8168.46 L 7097.29,8152.46 L 7130.62,8094.73 Z " />
<path stroke="none" fill="#0000ff" transform="matrix(0.05 0 0 0.05 -60 -210)" d="M 7063.96,8210.2 L 7091.67,8226.2 L 7058.34,8283.93 L 7030.62,8267.94 L 7063.96,8210.2 Z " />
<path stroke="none" fill="#0000ff" transform="matrix(0.05 0 0 0.05 -60 -210)" d="M 7053.44,8291.46 L 7044.48,8275.93 L 7069.85,8261.29 L 7619.11,8261.29 L 7644.48,8275.93 L 7640.25,8291.71 L 7053.44,8291.46 Z " />
<path stroke="none" fill="#0000ff" transform="matrix(0.05 0 0 0.05 -60 -210)" d="M 7656.03,8264.39 L 7644.48,8275.93 L 7619.11,8261.29 L 7597.29,8226.2 L 7625,8210.2 L 7656.03,8264.39 Z " />
<path stroke="none" fill="#0000ff" transform="matrix(0.05 0 0 0.05 -60 -210)" d="M 7591.67,8152.46 L 7563.96,8168.46 L 7530.62,8110.73 L 7558.34,8094.73 L 7591.67,8152.46 Z " />
<path stroke="none" fill="#0000ff" transform="matrix(0.05 0 0 0.05 -60 -210)" d="M 7525,8036.99 L 7497.29,8052.99 L 7463.96,7995.26 L 7491.67,7979.26 L 7525,8036.99 Z " />
<path stroke="none" fill="#0000ff" transform="matrix(0.05 0 0 0.05 -60 -210)" d="M 7458.34,7921.52 L 7430.62,7937.52 L 7397.29,7879.79 L 7425,7863.79 L 7458.34,7921.52 Z " />
<path stroke="none" fill="#0000ff" transform="matrix(0.05 0 0 0.05 -60 -210)" d="M 7391.67,7806.05 L 7363.96,7822.05 L 7330.62,7764.32 L 7358.34,7748.32 L 7391.67,7806.05 Z " />
<path stroke="none" fill="#0000ff" transform="matrix(0.05 0 0 0.05 -60 -210)" d="M 7640.25,8291.71 L 7644.48,8275.93 L 7656.03,8264.39 L 8172.09,8562.08 L 8156.09,8589.79 L 7640.25,8291.71 Z " />
<path stroke="none" fill="#0000ff" transform="matrix(0.05 0 0 0.05 -60 -210)" d="M 7365.23,7761.88 L 7344.48,7756.32 L 7349.79,7735.7 L 7848.73,7447.26 L 7864.09,7456.32 L 7864.27,7474.16 L 7365.23,7761.88 Z " />
<path stroke="none" fill="#0000ff" transform="matrix(0.05 0 0 0.05 -60 -210)" d="M 7309.37,7720.55 L 7344.48,7756.32 L 7323.73,7761.88 L 6824.7,7474.16 L 6824.86,7456.32 L 6840.24,7447.26 L 7309.37,7720.55 Z " />
<text x="0" y="0" stroke="none" fill="#0000ff" transform="matrix(0.05 0 0 0.05 328.85 137.643)" font-style="normal" font-weight="normal" font-size="280px" font-family="Chalkboard" >
H</text>
<path stroke="none" fill="#0000ff" transform="matrix(0.05 0 0 0.05 -60 -210)" d="M 7878.38,7431.62 L 7864.09,7456.32 L 7848.73,7447.26 L 7848.09,6996.49 L 7880.09,6996.49 L 7878.38,7431.62 Z " />
<text x="0" y="0" stroke="none" fill="#0000ff" transform="matrix(0.05 0 0 0.05 354.831 182.643)" font-style="normal" font-weight="normal" font-size="280px" font-family="Chalkboard" >
H</text>
<path stroke="none" fill="#0000ff" transform="matrix(0.05 0 0 0.05 -60 -210)" d="M 7864.27,7474.16 L 7864.09,7456.32 L 7892.6,7456.31 L 8265.06,7669.34 L 8249.06,7697.05 L 7864.27,7474.16 Z " />
<text x="0" y="0" stroke="none" fill="#0000ff" transform="matrix(0.05 0 0 0.05 354.831 152.643)" font-style="normal" font-weight="normal" font-size="280px" font-family="Chalkboard" >
H</text>
<path stroke="none" fill="#0000ff" transform="matrix(0.05 0 0 0.05 -60 -210)" d="M 7892.6,7456.31 L 7864.09,7456.32 L 7878.38,7431.62 L 8246.63,7216.99 L 8262.63,7244.7 L 7892.6,7456.31 Z " />
<path stroke="none" fill="#0000ff" transform="matrix(0.05 0 0 0.05 -60 -210)" d="M 7032.93,8264.39 L 7044.48,8275.93 L 7008.02,8312.39 L 6540.39,8584.9 L 6524.86,8575.93 L 6524.86,8558.01 L 7032.93,8264.39 Z " />
<path stroke="none" fill="#0000ff" transform="matrix(0.05 0 0 0.05 -60 -210)" d="M 7008.02,8312.39 L 7044.48,8275.93 L 7053.44,8291.46 L 6758.34,8803.55 L 6730.62,8787.55 L 7008.02,8312.39 Z " />
<path stroke="none" fill="#0000ff" transform="matrix(0.05 0 0 0.05 -60 -210)" d="M 6524.86,8558.01 L 6524.86,8575.93 L 6495.57,8575.93 L 5997.25,8289.79 L 6013.25,8262.08 L 6524.86,8558.01 Z " />
<text x="0" y="0" stroke="none" fill="#0000ff" transform="matrix(0.05 0 0 0.05 314.088 185.538)" font-style="normal" font-weight="normal" font-size="280px" font-family="Symbol" >
d+</text>
<path stroke="#0000ff" stroke-width="32" fill="none" transform="matrix(0.05 0 0 0.05 -60 -210)" d="M 7842.12,7190.04 C 7758.94,7106.86 7623.9,7106.86 7540.72,7190.04 C 7514.41,7216.35 7495.19,7249.65 7485.56,7285.58 " />
<path stroke="none" fill="#0000ff" transform="matrix(0.05 0 0 0.05 -60 -210)" d="M 7540.72,7491.44 C 7540.72,7491.44 7417.86,7272.93 7417.86,7272.93 C 7417.86,7272.93 7460.66,7292.56 7485.56,7285.58 C 7510.46,7278.6 7537.5,7239.41 7537.5,7239.41 C 7537.5,7239.41 7540.72,7491.44 7540.72,7491.44 C 7540.72,7491.44 7540.72,7491.44 7540.72,7491.44 " />
<path stroke="#0000ff" stroke-width="1" fill="none" transform="matrix(0.05 0 0 0.05 -60 -210)" d="M 7540.72,7491.44 C 7540.72,7491.44 7417.86,7272.93 7417.86,7272.93 C 7417.86,7272.93 7460.66,7292.56 7485.56,7285.58 C 7510.46,7278.6 7537.5,7239.41 7537.5,7239.41 C 7537.5,7239.41 7540.72,7491.44 7540.72,7491.44 C 7540.72,7491.44 7540.72,7491.44 7540.72,7491.44 " />
<path stroke="#0000ff" stroke-width="32" fill="none" transform="matrix(0.05 0 0 0.05 -60 -210)" d="M 8151,7258.68 C 8080.71,7136.94 7924.85,7095.18 7803.12,7165.46 C 7754.57,7193.49 7715.79,7237.97 7694.63,7289.87 " />
<path stroke="none" fill="#0000ff" transform="matrix(0.05 0 0 0.05 -60 -210)" d="M 7709.9,7513.35 C 7709.9,7513.35 7627.59,7263.31 7627.59,7263.31 C 7627.59,7263.31 7666.25,7292.22 7694.63,7289.87 C 7723,7287.52 7757.3,7252.58 7757.3,7252.58 C 7757.3,7252.58 7709.9,7513.35 7709.9,7513.35 C 7709.9,7513.35 7709.9,7513.35 7709.9,7513.35 " />
<path stroke="#0000ff" stroke-width="1" fill="none" transform="matrix(0.05 0 0 0.05 -60 -210)" d="M 7709.9,7513.35 C 7709.9,7513.35 7627.59,7263.31 7627.59,7263.31 C 7627.59,7263.31 7666.25,7292.22 7694.63,7289.87 C 7723,7287.52 7757.3,7252.58 7757.3,7252.58 C 7757.3,7252.58 7709.9,7513.35 7709.9,7513.35 C 7709.9,7513.35 7709.9,7513.35 7709.9,7513.35 " />
<path stroke="#0000ff" stroke-width="32" fill="none" transform="matrix(0.05 0 0 0.05 -60 -210)" d="M 7829.41,7706.42 C 7934.08,7744.53 8060.98,7698.35 8116.68,7601.88 " />
<path stroke="none" fill="#0000ff" transform="matrix(0.05 0 0 0.05 -60 -210)" d="M 7704.84,7601.88 C 7704.84,7601.88 7878.07,7684.76 7878.07,7684.76 C 7878.07,7684.76 7839.21,7694.8 7829.41,7706.42 C 7819.6,7718.04 7816.33,7757.94 7816.33,7757.94 C 7816.33,7757.94 7704.84,7601.88 7704.84,7601.88 C 7704.84,7601.88 7704.84,7601.88 7704.84,7601.88 " />
<path stroke="#0000ff" stroke-width="1" fill="none" transform="matrix(0.05 0 0 0.05 -60 -210)" d="M 7704.84,7601.88 C 7704.84,7601.88 7878.07,7684.76 7878.07,7684.76 C 7878.07,7684.76 7839.21,7694.8 7829.41,7706.42 C 7819.6,7718.04 7816.33,7757.94 7816.33,7757.94 C 7816.33,7757.94 7704.84,7601.88 7704.84,7601.88 C 7704.84,7601.88 7704.84,7601.88 7704.84,7601.88 " />
<path stroke="none" fill="#0000ff" transform="matrix(0.05 0 0 0.05 -60 -210)" d="M 10266.3,8115.52 L 8923.2,8115.52 L 8923.2,8083.52 L 10266.3,8083.52 Z " />
<path stroke="none" fill="#0000ff" transform="matrix(0.05 0 0 0.05 -60 -210)" d="M 10545.3,8099.52 C 10545.3,8099.52 10225.3,8180.52 10225.3,8180.52 C 10225.3,8180.52 10265.3,8134.96 10265.3,8099.52 C 10265.3,8063.64 10225.3,8017.52 10225.3,8017.52 C 10225.3,8017.52 10545.3,8099.52 10545.3,8099.52 C 10545.3,8099.52 10545.3,8099.52 10545.3,8099.52 " />
<path stroke="#0000ff" stroke-width="1" fill="none" transform="matrix(0.05 0 0 0.05 -60 -210)" d="M 10545.3,8099.52 C 10545.3,8099.52 10225.3,8180.52 10225.3,8180.52 C 10225.3,8180.52 10265.3,8134.96 10265.3,8099.52 C 10265.3,8063.64 10225.3,8017.52 10225.3,8017.52 C 10225.3,8017.52 10545.3,8099.52 10545.3,8099.52 C 10545.3,8099.52 10545.3,8099.52 10545.3,8099.52 " />
<path stroke="none" fill="#0000ff" transform="matrix(0.05 0 0 0.05 -60 -210)" d="M 11007.6,8310.42 L 10991.6,8282.7 L 11494.8,7993.35 L 11519.2,7996.56 L 11519.2,8014.48 L 11007.6,8310.42 Z " />
<path stroke="none" fill="#0000ff" transform="matrix(0.05 0 0 0.05 -60 -210)" d="M 11519.2,8014.48 L 11519.2,7996.56 L 11534.7,7987.6 L 12038.8,8278.64 L 12038.8,8296.56 L 12023.3,8305.52 L 11519.2,8014.48 Z " />
<path stroke="none" fill="#0000ff" transform="matrix(0.05 0 0 0.05 -60 -210)" d="M 12054.3,8305.52 L 12038.8,8296.56 L 12038.8,8278.64 L 12542.9,7987.6 L 12558.4,7996.56 L 12558.4,8014.48 L 12054.3,8305.52 Z " />
<path stroke="none" fill="#0000ff" transform="matrix(0.05 0 0 0.05 -60 -210)" d="M 12558.4,8014.48 L 12558.4,7996.56 L 12573.9,7987.6 L 13086,8282.7 L 13070,8310.42 L 12558.4,8014.48 Z " />
<path stroke="none" fill="#0000ff" transform="matrix(0.05 0 0 0.05 -60 -210)" d="M 12023.3,8305.52 L 12038.8,8296.56 L 12054.3,8305.52 L 12054.8,8896.56 L 12022.8,8896.56 L 12023.3,8305.52 Z " />
<path stroke="none" fill="#0000ff" transform="matrix(0.05 0 0 0.05 -60 -210)" d="M 12573.9,7987.6 L 12558.4,7996.56 L 12542.9,7987.6 L 12542.9,7405.52 L 12558.4,7396.56 L 12573.9,7405.52 L 12573.9,7987.6 Z " />
<path stroke="none" fill="#0000ff" transform="matrix(0.05 0 0 0.05 -60 -210)" d="M 12558.4,7378.64 L 12558.4,7396.56 L 12542.9,7405.52 L 12030.8,7110.42 L 12046.8,7082.7 L 12558.4,7378.64 Z " />
<path stroke="none" fill="#0000ff" transform="matrix(0.05 0 0 0.05 -60 -210)" d="M 12573.9,7405.52 L 12558.4,7396.56 L 12558.4,7378.64 L 13070,7082.7 L 13086,7110.42 L 12573.9,7405.52 Z " />
<path stroke="#0000ff" stroke-width="26" fill="none" transform="matrix(0.05 0 0 0.05 -60 -210)" d="M 11788.5,8371.51 A 105.8,105.8 0 1 0 12000.1,8371.51A 105.8,105.8 0 1 0 11788.5,8371.51Z " />
<path stroke="none" fill="#0000ff" transform="matrix(0.05 0 0 0.05 -60 -210)" d="M 11831.9,8358.84 L 11957.3,8358.84 L 11957.3,8384.84 L 11831.9,8384.84 Z " />
<path stroke="none" fill="#0000ff" transform="matrix(0.05 0 0 0.05 -60 -210)" d="M 11907.6,8309.17 L 11907.6,8434.51 L 11881.6,8434.51 L 11881.6,8309.17 Z " />
<path stroke="none" fill="#0000ff" transform="matrix(0.05 0 0 0.05 -60 -210)" d="M 1787.82,7146.76 L 1772.29,7155.72 L 1756.77,7146.76 L 1756.3,6555.72 L 1788.29,6555.72 L 1787.82,7146.76 Z " />
<path stroke="none" fill="#0000ff" transform="matrix(0.05 0 0 0.05 -60 -210)" d="M 6526.5,6268.3 L 6542.02,6259.34 L 6557.55,6268.3 L 6558.02,6859.34 L 6526.02,6859.34 L 6526.5,6268.3 Z " />
<path stroke="none" fill="#0000ff" transform="matrix(0.05 0 0 0.05 -60 -210)" d="M 11551.9,5671 L 11536.3,5679.96 L 11520.8,5671 L 11520.3,5079.96 L 11552.3,5079.96 L 11551.9,5671 Z " />
<path stroke="none" fill="#0000ff" transform="matrix(0.05 0 0 0.05 -60 -210)" d="M 6510.22,8601.3 L 6524.86,8575.93 L 6540.39,8584.9 L 6540.86,9175.93 L 6508.86,9175.93 L 6510.22,8601.3 Z " />
<path stroke="none" fill="#0000ff" transform="matrix(0.05 0 0 0.05 -60 -210)" d="M 6495.57,8575.93 L 6524.86,8575.93 L 6510.22,8601.3 L 6013.25,8889.79 L 5997.25,8862.08 L 6495.57,8575.93 Z " />
<path stroke="none" fill="#0000ff" transform="matrix(0.05 0 0 0.05 -60 -210)" d="M 11534.7,7987.6 L 11519.2,7996.56 L 11505,7962.34 L 11503.2,7396.56 L 11535.2,7396.56 L 11534.7,7987.6 Z " />
<path stroke="none" fill="#0000ff" transform="matrix(0.05 0 0 0.05 -60 -210)" d="M 11505,7962.34 L 11519.2,7996.56 L 11494.8,7993.35 L 11083.6,7583.61 L 11106.2,7560.98 L 11505,7962.34 Z " />
<path stroke="none" fill="#0000ff" transform="matrix(0.05 0 0 0.05 -60 -210)" d="M 7220.88,10095.4 L 7241.52,10090.1 L 7241.52,10119.4 L 7222.04,10155.8 L 7194.33,10139.8 L 7220.88,10095.4 Z " />
<path stroke="none" fill="#0000ff" transform="matrix(0.05 0 0 0.05 -60 -210)" d="M 7161,10197.5 L 7188.71,10213.5 L 7155.38,10271.3 L 7127.66,10255.3 L 7161,10197.5 Z " />
<path stroke="none" fill="#0000ff" transform="matrix(0.05 0 0 0.05 -60 -210)" d="M 7094.33,10313 L 7122.04,10329 L 7088.71,10386.8 L 7061,10370.8 L 7094.33,10313 Z " />
<path stroke="none" fill="#0000ff" transform="matrix(0.05 0 0 0.05 -60 -210)" d="M 7027.66,10428.5 L 7055.38,10444.5 L 7022.04,10502.2 L 6994.33,10486.2 L 7027.66,10428.5 Z " />
<path stroke="none" fill="#0000ff" transform="matrix(0.05 0 0 0.05 -60 -210)" d="M 6961,10544 L 6988.71,10560 L 6955.38,10617.7 L 6927.66,10601.7 L 6961,10544 Z " />
<path stroke="none" fill="#0000ff" transform="matrix(0.05 0 0 0.05 -60 -210)" d="M 6950.48,10625.2 L 6941.52,10609.7 L 6966.89,10595 L 7516.15,10595 L 7541.52,10609.7 L 7537.29,10625.5 L 6950.48,10625.2 Z " />
<path stroke="none" fill="#0000ff" transform="matrix(0.05 0 0 0.05 -60 -210)" d="M 7553.07,10598.1 L 7541.52,10609.7 L 7516.15,10595 L 7494.33,10560 L 7522.04,10544 L 7553.07,10598.1 Z " />
<path stroke="none" fill="#0000ff" transform="matrix(0.05 0 0 0.05 -60 -210)" d="M 7488.71,10486.2 L 7461,10502.2 L 7427.66,10444.5 L 7455.38,10428.5 L 7488.71,10486.2 Z " />
<path stroke="none" fill="#0000ff" transform="matrix(0.05 0 0 0.05 -60 -210)" d="M 7422.04,10370.8 L 7394.33,10386.8 L 7361,10329 L 7388.71,10313 L 7422.04,10370.8 Z " />
<path stroke="none" fill="#0000ff" transform="matrix(0.05 0 0 0.05 -60 -210)" d="M 7355.38,10255.3 L 7327.66,10271.3 L 7294.33,10213.5 L 7322.04,10197.5 L 7355.38,10255.3 Z " />
<path stroke="none" fill="#0000ff" transform="matrix(0.05 0 0 0.05 -60 -210)" d="M 7288.71,10139.8 L 7261,10155.8 L 7227.66,10098.1 L 7255.38,10082.1 L 7288.71,10139.8 Z " />
<path stroke="none" fill="#0000ff" transform="matrix(0.05 0 0 0.05 -60 -210)" d="M 7537.29,10625.5 L 7541.52,10609.7 L 7553.07,10598.1 L 8069.13,10895.8 L 8053.13,10923.6 L 7537.29,10625.5 Z " />
<text x="0" y="0" stroke="none" fill="#0000ff" transform="matrix(0.05 0 0 0.05 323.702 284.33)" font-style="normal" font-weight="normal" font-size="280px" font-family="Chalkboard" >
H</text>
<path stroke="none" fill="#0000ff" transform="matrix(0.05 0 0 0.05 -60 -210)" d="M 7262.15,10095.4 L 7241.52,10090.1 L 7250.72,10067.9 L 7624.49,9850.5 L 7640.49,9878.21 L 7262.15,10095.4 Z " />
<text x="0" y="0" stroke="none" fill="#0000ff" transform="matrix(0.05 0 0 0.05 271.741 284.33)" font-style="normal" font-weight="normal" font-size="280px" font-family="Chalkboard" >
H</text>
<path stroke="none" fill="#0000ff" transform="matrix(0.05 0 0 0.05 -60 -210)" d="M 7219.78,10061.7 L 7241.52,10090.1 L 7220.88,10095.4 L 6836.48,9874.7 L 6852.48,9846.99 L 7219.78,10061.7 Z " />
<path stroke="none" fill="#0000ff" transform="matrix(0.05 0 0 0.05 -60 -210)" d="M 6929.97,10598.1 L 6941.52,10609.7 L 6905.06,10646.2 L 6437.43,10918.7 L 6421.9,10909.7 L 6421.9,10891.8 L 6929.97,10598.1 Z " />
<path stroke="none" fill="#0000ff" transform="matrix(0.05 0 0 0.05 -60 -210)" d="M 6905.06,10646.2 L 6941.52,10609.7 L 6950.48,10625.2 L 6655.38,11137.3 L 6627.66,11121.3 L 6905.06,10646.2 Z " />
<path stroke="none" fill="#0000ff" transform="matrix(0.05 0 0 0.05 -60 -210)" d="M 6421.9,10891.8 L 6421.9,10909.7 L 6392.61,10909.7 L 5894.29,10623.6 L 5910.29,10595.8 L 6421.9,10891.8 Z " />
<text x="0" y="0" stroke="none" fill="#0000ff" transform="matrix(0.05 0 0 0.05 308.94 302.226)" font-style="normal" font-weight="normal" font-size="280px" font-family="Symbol" >
d+</text>
<path stroke="none" fill="#0000ff" transform="matrix(0.05 0 0 0.05 -60 -210)" d="M 10163.4,10449.3 L 8820.24,10449.3 L 8820.24,10417.3 L 10163.4,10417.3 Z " />
<path stroke="none" fill="#0000ff" transform="matrix(0.05 0 0 0.05 -60 -210)" d="M 10442.4,10433.3 C 10442.4,10433.3 10122.4,10514.3 10122.4,10514.3 C 10122.4,10514.3 10162.4,10468.7 10162.4,10433.3 C 10162.4,10397.4 10122.4,10351.3 10122.4,10351.3 C 10122.4,10351.3 10442.4,10433.3 10442.4,10433.3 C 10442.4,10433.3 10442.4,10433.3 10442.4,10433.3 " />
<path stroke="#0000ff" stroke-width="1" fill="none" transform="matrix(0.05 0 0 0.05 -60 -210)" d="M 10442.4,10433.3 C 10442.4,10433.3 10122.4,10514.3 10122.4,10514.3 C 10122.4,10514.3 10162.4,10468.7 10162.4,10433.3 C 10162.4,10397.4 10122.4,10351.3 10122.4,10351.3 C 10122.4,10351.3 10442.4,10433.3 10442.4,10433.3 C 10442.4,10433.3 10442.4,10433.3 10442.4,10433.3 " />
<path stroke="none" fill="#0000ff" transform="matrix(0.05 0 0 0.05 -60 -210)" d="M 10904.6,10644.2 L 10888.6,10616.5 L 11391.9,10327.1 L 11416.2,10330.3 L 11416.2,10348.2 L 10904.6,10644.2 Z " />
<path stroke="none" fill="#0000ff" transform="matrix(0.05 0 0 0.05 -60 -210)" d="M 11416.2,10348.2 L 11416.2,10330.3 L 11431.7,10321.4 L 11935.8,10612.4 L 11935.8,10630.3 L 11920.3,10639.3 L 11416.2,10348.2 Z " />
<path stroke="none" fill="#0000ff" transform="matrix(0.05 0 0 0.05 -60 -210)" d="M 11951.4,10639.3 L 11935.8,10630.3 L 11935.8,10612.4 L 12439.9,10321.4 L 12455.4,10330.3 L 12455.4,10348.2 L 11951.4,10639.3 Z " />
<path stroke="none" fill="#0000ff" transform="matrix(0.05 0 0 0.05 -60 -210)" d="M 12455.4,10348.2 L 12455.4,10330.3 L 12471,10321.4 L 12983.1,10616.5 L 12967.1,10644.2 L 12455.4,10348.2 Z " />
<path stroke="none" fill="#0000ff" transform="matrix(0.05 0 0 0.05 -60 -210)" d="M 11920.3,10639.3 L 11935.8,10630.3 L 11951.4,10639.3 L 11951.8,11230.3 L 11919.8,11230.3 L 11920.3,10639.3 Z " />
<path stroke="none" fill="#0000ff" transform="matrix(0.05 0 0 0.05 -60 -210)" d="M 12471,10321.4 L 12455.4,10330.3 L 12439.9,10321.4 L 12439.9,9739.28 L 12455.4,9730.32 L 12471,9739.28 L 12471,10321.4 Z " />
<path stroke="none" fill="#0000ff" transform="matrix(0.05 0 0 0.05 -60 -210)" d="M 12455.4,9712.4 L 12455.4,9730.32 L 12439.9,9739.28 L 11927.8,9444.18 L 11943.8,9416.46 L 12455.4,9712.4 Z " />
<path stroke="none" fill="#0000ff" transform="matrix(0.05 0 0 0.05 -60 -210)" d="M 12471,9739.28 L 12455.4,9730.32 L 12455.4,9712.4 L 12967.1,9416.46 L 12983.1,9444.18 L 12471,9739.28 Z " />
<path stroke="#0000ff" stroke-width="26" fill="none" transform="matrix(0.05 0 0 0.05 -60 -210)" d="M 11685.5,10705.3 A 105.8,105.8 0 1 0 11897.1,10705.3A 105.8,105.8 0 1 0 11685.5,10705.3Z " />
<path stroke="none" fill="#0000ff" transform="matrix(0.05 0 0 0.05 -60 -210)" d="M 11729,10692.6 L 11854.3,10692.6 L 11854.3,10718.6 L 11729,10718.6 Z " />
<path stroke="none" fill="#0000ff" transform="matrix(0.05 0 0 0.05 -60 -210)" d="M 11804.6,10642.9 L 11804.6,10768.3 L 11778.6,10768.3 L 11778.6,10642.9 Z " />
<path stroke="none" fill="#0000ff" transform="matrix(0.05 0 0 0.05 -60 -210)" d="M 6407.26,10935.1 L 6421.9,10909.7 L 6437.43,10918.7 L 6437.9,11509.7 L 6405.9,11509.7 L 6407.26,10935.1 Z " />
<path stroke="none" fill="#0000ff" transform="matrix(0.05 0 0 0.05 -60 -210)" d="M 6392.61,10909.7 L 6421.9,10909.7 L 6407.26,10935.1 L 5910.29,11223.6 L 5894.29,11195.8 L 6392.61,10909.7 Z " />
<path stroke="none" fill="#0000ff" transform="matrix(0.05 0 0 0.05 -60 -210)" d="M 11431.7,10321.4 L 11416.2,10330.3 L 11402,10296.1 L 11400.2,9730.32 L 11432.2,9730.32 L 11431.7,10321.4 Z " />
<path stroke="none" fill="#0000ff" transform="matrix(0.05 0 0 0.05 -60 -210)" d="M 11402,10296.1 L 11416.2,10330.3 L 11391.9,10327.1 L 10980.6,9917.37 L 11003.3,9894.74 L 11402,10296.1 Z " />
<text x="0" y="0" stroke="none" fill="#0000ff" transform="matrix(0.05 0 0 0.05 287.869 156.662)" font-style="normal" font-weight="normal" font-size="280px" font-family="Chalkboard" >
H</text>
<path stroke="none" fill="#0000ff" transform="matrix(0.05 0 0 0.05 -60 -210)" d="M 7349.79,7735.7 L 7344.48,7756.32 L 7309.37,7720.55 L 7107.38,7377.65 L 7135.09,7361.65 L 7349.79,7735.7 Z " />
<text x="0" y="0" stroke="none" fill="#0000ff" transform="matrix(0.05 0 0 0.05 276.889 137.643)" font-style="normal" font-weight="normal" font-size="280px" font-family="Chalkboard" >
H</text>
<path stroke="none" fill="#0000ff" transform="matrix(0.05 0 0 0.05 -60 -210)" d="M 6840.24,7447.26 L 6824.86,7456.32 L 6810.58,7431.59 L 6808.86,6995.49 L 6840.86,6995.49 L 6840.24,7447.26 Z " />
<text x="0" y="0" stroke="none" fill="#0000ff" transform="matrix(0.05 0 0 0.05 250.908 182.643)" font-style="normal" font-weight="normal" font-size="280px" font-family="Chalkboard" >
H</text>
<path stroke="none" fill="#0000ff" transform="matrix(0.05 0 0 0.05 -60 -210)" d="M 6796.31,7456.32 L 6824.86,7456.32 L 6824.7,7474.16 L 6435.56,7699.56 L 6419.56,7671.85 L 6796.31,7456.32 Z " />
<text x="0" y="0" stroke="none" fill="#0000ff" transform="matrix(0.05 0 0 0.05 250.908 152.643)" font-style="normal" font-weight="normal" font-size="280px" font-family="Chalkboard" >
H</text>
<path stroke="none" fill="#0000ff" transform="matrix(0.05 0 0 0.05 -60 -210)" d="M 6810.58,7431.59 L 6824.86,7456.32 L 6796.31,7456.32 L 6419.82,7240.94 L 6435.82,7213.23 L 6810.58,7431.59 Z " />
<text x="0" y="0" stroke="none" fill="#0000ff" transform="matrix(0.05 0 0 0.05 309.941 19.6185)" font-style="normal" font-weight="normal" font-size="280px" font-family="Chalkboard" >
H</text>
<path stroke="none" fill="#0000ff" transform="matrix(0.05 0 0 0.05 -60 -210)" d="M 7080.74,4922.42 L 7061.64,4920.1 L 7086.04,4877.89 L 7363.94,4595.17 L 7386.57,4617.8 L 7080.74,4922.42 Z " />
<text x="0" y="0" stroke="none" fill="#0000ff" transform="matrix(0.05 0 0 0.05 262.747 25.8317)" font-style="normal" font-weight="normal" font-size="280px" font-family="Chalkboard" >
H</text>
<path stroke="none" fill="#0000ff" transform="matrix(0.05 0 0 0.05 -60 -210)" d="M 7052.45,4897.86 L 7061.64,4920.1 L 7050,4931.5 L 6656.6,4704.73 L 6672.6,4677.01 L 7052.45,4897.86 Z " />
<text x="0" y="0" stroke="none" fill="#0000ff" transform="matrix(0.05 0 0 0.05 296.492 11.854)" font-style="normal" font-weight="normal" font-size="280px" font-family="Chalkboard" >
H</text>
<path stroke="none" fill="#0000ff" transform="matrix(0.05 0 0 0.05 -60 -210)" d="M 7086.04,4877.89 L 7061.64,4920.1 L 7052.45,4897.86 L 7162.19,4483.03 L 7193.1,4491.31 L 7086.04,4877.89 Z " />
<text x="0" y="0" stroke="none" fill="#0000ff" transform="matrix(0.05 0 0 0.05 253.536 37.8347)" font-style="normal" font-weight="normal" font-size="280px" font-family="Chalkboard" >
H</text>
<path stroke="none" fill="#0000ff" transform="matrix(0.05 0 0 0.05 -60 -210)" d="M 6790.07,5270.23 L 6782.08,5284.43 L 6758.22,5281.27 L 6453.1,4978.07 L 6475.73,4955.44 L 6790.07,5270.23 Z " />
<text x="0" y="0" stroke="none" fill="#0000ff" transform="matrix(0.05 0 0 0.05 266.985 88.0257)" font-style="normal" font-weight="normal" font-size="280px" font-family="Chalkboard" >
H</text>
<path stroke="none" fill="#0000ff" transform="matrix(0.05 0 0 0.05 -60 -210)" d="M 6760.34,5312.8 L 6782.08,5284.43 L 6792.57,5302.98 L 6680.41,5725.72 L 6649.5,5717.43 L 6760.34,5312.8 Z " />
<text x="0" y="0" stroke="none" fill="#0000ff" transform="matrix(0.05 0 0 0.05 248.769 74.0479)" font-style="normal" font-weight="normal" font-size="280px" font-family="Chalkboard" >
H</text>
<path stroke="none" fill="#0000ff" transform="matrix(0.05 0 0 0.05 -60 -210)" d="M 6758.22,5281.27 L 6782.08,5284.43 L 6760.34,5312.8 L 6392.78,5527.67 L 6376.78,5499.96 L 6758.22,5281.27 Z " />
<text x="0" y="0" stroke="none" fill="#0000ff" transform="matrix(0.05 0 0 0.05 289.957 270.353)" font-style="normal" font-weight="normal" font-size="280px" font-family="Chalkboard" >
H</text>
<path stroke="none" fill="#0000ff" transform="matrix(0.05 0 0 0.05 -60 -210)" d="M 7250.72,10067.9 L 7241.52,10090.1 L 7219.78,10061.7 L 7109.45,9659.01 L 7140.36,9650.73 L 7250.72,10067.9 Z " />
<text x="0" y="0" stroke="none" fill="#0000ff" transform="matrix(0.05 0 0 0.05 291.78 99.738)" font-style="normal" font-weight="normal" font-size="280px" font-family="Symbol" >
d+</text>
<text x="0" y="0" stroke="none" fill="#0000ff" transform="matrix(0.05 0 0 0.05 318.378 100.596)" font-style="normal" font-weight="normal" font-size="280px" font-family="Symbol" >
d+</text>
<text x="0" y="0" stroke="none" fill="#0000ff" transform="matrix(0.05 0 0 0.05 291.78 216.426)" font-style="normal" font-weight="normal" font-size="280px" font-family="Symbol" >
d+</text>
<text x="0" y="0" stroke="none" fill="#0000ff" transform="matrix(0.05 0 0 0.05 315.804 216.426)" font-style="normal" font-weight="normal" font-size="280px" font-family="Symbol" >
d+</text>
<text x="0" y="0" stroke="none" fill="#0000ff" transform="matrix(0.05 0 0 0.05 286.632 333.972)" font-style="normal" font-weight="normal" font-size="280px" font-family="Symbol" >
d+</text>
<text x="0" y="0" stroke="none" fill="#0000ff" transform="matrix(0.05 0 0 0.05 309.798 333.972)" font-style="normal" font-weight="normal" font-size="280px" font-family="Symbol" >
d+</text>
</svg>
