<?xml version="1.0" standalone="no" ?>
<!DOCTYPE svg PUBLIC "-//W3C//DTD SVG 1.1//EN" "http://www.w3.org/Graphics/SVG/1.1/DTD/svg11.dtd">
<svg width="409px" height="184px" viewBox="0 0 409 184" style="background-color: #ffffff00" xmlns="http://www.w3.org/2000/svg" xmlns:xlink="http://www.w3.org/1999/xlink" version="1.1" >
<path stroke="none" fill="#0000ff" transform="matrix(0.05 0 0 0.05 -32 -7)" d="M 711.56,2012.7 L 695.56,1984.98 L 1207.65,1689.88 L 1223.18,1698.84 L 1223.18,1716.76 L 711.56,2012.7 Z " />
<path stroke="none" fill="#0000ff" transform="matrix(0.05 0 0 0.05 -32 -7)" d="M 1223.18,1716.76 L 1223.18,1698.84 L 1238.7,1689.88 L 1742.79,1980.92 L 1742.79,1998.84 L 1727.27,2007.8 L 1223.18,1716.76 Z " />
<path stroke="none" fill="#0000ff" transform="matrix(0.05 0 0 0.05 -32 -7)" d="M 1758.31,2007.8 L 1742.79,1998.84 L 1742.79,1980.92 L 2247.03,1689.79 L 2262.41,1698.84 L 2262.41,1716.76 L 1758.31,2007.8 Z " />
<path stroke="none" fill="#0000ff" transform="matrix(0.05 0 0 0.05 -32 -7)" d="M 2262.41,1716.76 L 2262.41,1698.84 L 2277.79,1689.79 L 2790.02,1984.98 L 2774.02,2012.7 L 2262.41,1716.76 Z " />
<path stroke="none" fill="#0000ff" transform="matrix(0.05 0 0 0.05 -32 -7)" d="M 1238.7,1689.88 L 1223.18,1698.84 L 1207.65,1689.88 L 1207.18,1098.84 L 1239.17,1098.84 L 1238.7,1689.88 Z " />
<text x="0" y="0" stroke="none" fill="#0000ff" transform="matrix(0.05 0 0 0.05 78.0186 52.7685)" font-style="normal" font-weight="normal" font-size="280px" font-family="Chalkboard" >
I</text>
<path stroke="none" fill="#0000ff" transform="matrix(0.05 0 0 0.05 -32 -7)" d="M 2277.79,1689.79 L 2262.41,1698.84 L 2247.03,1689.79 L 2246.41,1231.56 L 2278.41,1231.56 L 2277.79,1689.79 Z " />
<path stroke="none" fill="#0000ff" transform="matrix(0.05 0 0 0.05 -32 -7)" d="M 1727.27,2007.8 L 1742.79,1998.84 L 1758.31,2007.8 L 1758.79,2598.84 L 1726.79,2598.84 L 1727.27,2007.8 Z " />
<path stroke="none" fill="#0000ff" transform="matrix(0.05 0 0 0.05 -32 -7)" d="M 7194.88,2852.62 L 7210.41,2861.58 L 7210.41,2879.5 L 6698.79,3175.44 L 6682.79,3147.72 L 7194.88,2852.62 Z " />
<path stroke="none" fill="#0000ff" transform="matrix(0.05 0 0 0.05 -32 -7)" d="M 7714.5,3170.54 L 7730.02,3161.58 L 7745.54,3170.54 L 7746.02,3761.58 L 7714.02,3761.58 L 7714.5,3170.54 Z " />
<path stroke="none" fill="#0000ff" transform="matrix(0.05 0 0 0.05 -32 -7)" d="M 8249.64,2879.5 L 8249.64,2842.52 L 8777.25,3147.72 L 8761.25,3175.44 L 8249.64,2879.5 Z " />
<path stroke="none" fill="#0000ff" transform="matrix(0.05 0 0 0.05 -32 -7)" d="M 7745.54,3170.54 L 7730.02,3161.58 L 7730.02,3143.66 L 8249.64,2842.52 L 8249.64,2879.5 L 7745.54,3170.54 Z " />
<path stroke="none" fill="#0000ff" transform="matrix(0.05 0 0 0.05 -32 -7)" d="M 7210.41,2879.5 L 7210.41,2861.58 L 7225.93,2852.62 L 7730.02,3143.66 L 7730.02,3161.58 L 7714.5,3170.54 L 7210.41,2879.5 Z " />
<path stroke="none" fill="#0000ff" transform="matrix(0.05 0 0 0.05 -32 -7)" d="M 7292.41,2823.47 L 7308.41,2795.76 L 7738.02,3043.8 L 7722.02,3071.51 L 7292.41,2823.47 Z " />
<path stroke="none" fill="#0000ff" transform="matrix(0.05 0 0 0.05 -32 -7)" d="M 7194.41,2261.58 L 7226.41,2261.58 L 7225.93,2852.62 L 7210.41,2861.58 L 7194.88,2852.62 L 7194.41,2261.58 Z " />
<path stroke="none" fill="#0000ff" transform="matrix(0.05 0 0 0.05 -32 -7)" d="M 7706.48,1094.18 L 7722,1085.22 L 7737.52,1094.18 L 7738,1685.22 L 7706,1685.22 L 7706.48,1094.18 Z " />
<path stroke="none" fill="#0000ff" transform="matrix(0.05 0 0 0.05 -32 -7)" d="M 7186.86,776.258 L 7202.38,785.22 L 7202.38,803.143 L 6690.77,1099.08 L 6674.77,1071.36 L 7186.86,776.258 Z " />
<path stroke="none" fill="#0000ff" transform="matrix(0.05 0 0 0.05 -32 -7)" d="M 7217.91,776.258 L 7202.38,785.22 L 7186.86,776.258 L 7186.38,185.22 L 7218.38,185.22 L 7217.91,776.258 Z " />
<path stroke="none" fill="#0000ff" transform="matrix(0.05 0 0 0.05 -32 -7)" d="M 7722,1067.3 L 7722,1085.22 L 7706.48,1094.18 L 7202.38,803.143 L 7202.38,785.22 L 7217.91,776.258 L 7722,1067.3 Z " />
<path stroke="none" fill="#0000ff" transform="matrix(0.05 0 0 0.05 -32 -7)" d="M 8241.61,766.158 L 8241.61,803.143 L 7737.52,1094.18 L 7722,1085.22 L 7722,1067.3 L 8241.61,766.158 Z " />
<path stroke="none" fill="#0000ff" transform="matrix(0.05 0 0 0.05 -32 -7)" d="M 8769.23,1071.36 L 8753.23,1099.08 L 8241.61,803.143 L 8241.61,766.158 L 8769.23,1071.36 Z " />
<path stroke="none" fill="#0000ff" transform="matrix(0.05 0 0 0.05 -32 -7)" d="M 8724.23,1149.31 L 8708.23,1177.02 L 8233.62,902.999 L 8249.61,875.286 L 8724.23,1149.31 Z " />
<path stroke="none" fill="#0000ff" transform="matrix(0.05 0 0 0.05 -32 -7)" d="M 5847.12,928.089 L 4249.8,928.089 L 4249.8,896.089 L 5847.12,896.089 Z " />
<path stroke="none" fill="#0000ff" transform="matrix(0.05 0 0 0.05 -32 -7)" d="M 6126.12,912.089 C 6126.12,912.089 5806.12,993.089 5806.12,993.089 C 5806.12,993.089 5846.12,947.527 5846.12,912.089 C 5846.12,876.214 5806.12,830.09 5806.12,830.09 C 5806.12,830.09 6126.12,912.089 6126.12,912.089 C 6126.12,912.089 6126.12,912.089 6126.12,912.089 " />
<path stroke="#0000ff" stroke-width="1" fill="none" transform="matrix(0.05 0 0 0.05 -32 -7)" d="M 6126.12,912.089 C 6126.12,912.089 5806.12,993.089 5806.12,993.089 C 5806.12,993.089 5846.12,947.527 5846.12,912.089 C 5846.12,876.214 5806.12,830.09 5806.12,830.09 C 5806.12,830.09 6126.12,912.089 6126.12,912.089 C 6126.12,912.089 6126.12,912.089 6126.12,912.089 " />
<text x="0" y="0" stroke="none" fill="#0000ff" transform="matrix(0.05 0 0 0.05 193.652 31.7327)" font-style="normal" font-weight="normal" font-size="280px" font-family="Chalkboard" >
t-BuONa</text>
<path stroke="none" fill="#0000ff" transform="matrix(0.05 0 0 0.05 -32 -7)" d="M 5864.28,2918.65 L 4232.64,2918.65 L 4232.64,2886.65 L 5864.28,2886.65 Z " />
<path stroke="none" fill="#0000ff" transform="matrix(0.05 0 0 0.05 -32 -7)" d="M 6143.28,2902.65 C 6143.28,2902.65 5823.28,2983.65 5823.28,2983.65 C 5823.28,2983.65 5863.28,2938.09 5863.28,2902.65 C 5863.28,2866.77 5823.28,2820.65 5823.28,2820.65 C 5823.28,2820.65 6143.28,2902.65 6143.28,2902.65 C 6143.28,2902.65 6143.28,2902.65 6143.28,2902.65 " />
<path stroke="#0000ff" stroke-width="1" fill="none" transform="matrix(0.05 0 0 0.05 -32 -7)" d="M 6143.28,2902.65 C 6143.28,2902.65 5823.28,2983.65 5823.28,2983.65 C 5823.28,2983.65 5863.28,2938.09 5863.28,2902.65 C 5863.28,2866.77 5823.28,2820.65 5823.28,2820.65 C 5823.28,2820.65 6143.28,2902.65 6143.28,2902.65 C 6143.28,2902.65 6143.28,2902.65 6143.28,2902.65 " />
<text x="0" y="0" stroke="none" fill="#0000ff" transform="matrix(0.05 0 0 0.05 184.214 131.261)" font-style="normal" font-weight="normal" font-size="280px" font-family="Chalkboard" >
t-BuOH </text>
<text x="0" y="0" stroke="none" fill="#0000ff" transform="matrix(0.05 0 0 0.05 235.713 131.261)" font-style="normal" font-weight="normal" font-size="280px" font-family="Chalkboard" >
+ </text>
<text x="0" y="0" stroke="none" fill="#0000ff" transform="matrix(0.05 0 0 0.05 248.614 131.261)" font-style="normal" font-weight="normal" font-size="280px" font-family="Symbol" >
D</text>
<text x="0" y="0" stroke="none" fill="#0000ff" transform="matrix(0.05 0 0 0.05 212.76 54.0407)" font-style="normal" font-weight="normal" font-size="280px" font-family="Chalkboard" >
E</text>
<text x="0" y="0" stroke="none" fill="#0000ff" transform="matrix(0.05 0 0 0.05 220.417 58.0009)" font-style="normal" font-weight="normal" font-size="210px" font-family="Chalkboard" >
2</text>
<text x="0" y="0" stroke="none" fill="#0000ff" transform="matrix(0.05 0 0 0.05 210.186 153.569)" font-style="normal" font-weight="normal" font-size="280px" font-family="Chalkboard" >
E</text>
<text x="0" y="0" stroke="none" fill="#0000ff" transform="matrix(0.05 0 0 0.05 217.843 157.529)" font-style="normal" font-weight="normal" font-size="210px" font-family="Chalkboard" >
1</text>
<path stroke="none" fill="#0000ff" transform="matrix(0.05 0 0 0.05 -32 -7)" d="M 4222.52,2908.88 L 4222.52,895.814 L 4254.52,895.814 L 4254.52,2908.88 Z " />
<path stroke="none" fill="#0000ff" transform="matrix(0.05 0 0 0.05 -32 -7)" d="M 4238.52,1918.35 L 3393.31,1918.35 L 3393.31,1886.35 L 4238.52,1886.35 Z " />
</svg>
