<?xml version="1.0" standalone="no" ?>
<!DOCTYPE svg PUBLIC "-//W3C//DTD SVG 1.1//EN" "http://www.w3.org/Graphics/SVG/1.1/DTD/svg11.dtd">
<svg width="994px" height="301px" viewBox="0 0 994 301" style="background-color: #ffffff00" xmlns="http://www.w3.org/2000/svg" xmlns:xlink="http://www.w3.org/1999/xlink" version="1.1" >
<path stroke="none" fill="#0000ff" transform="matrix(0.05 0 0 0.05 -28 -18)" d="M 655.162,2804.66 L 671.162,2776.95 L 1182.77,3072.89 L 1182.77,3109.88 L 655.162,2804.66 Z " />
<path stroke="none" fill="#0000ff" transform="matrix(0.05 0 0 0.05 -28 -18)" d="M 700.163,2726.72 L 716.163,2699.01 L 1190.77,2973.04 L 1174.77,3000.75 L 700.163,2726.72 Z " />
<path stroke="none" fill="#0000ff" transform="matrix(0.05 0 0 0.05 -28 -18)" d="M 1182.77,3109.88 L 1182.77,3072.89 L 1702.51,2771.67 L 1702.53,2808.66 L 1182.77,3109.88 Z " />
<text x="0" y="0" stroke="none" fill="#0000ff" transform="matrix(0.05 0 0 0.05 78.0181 141.367)" font-style="normal" font-weight="normal" font-size="280px" font-family="Chalkboard" >
O</text>
<path stroke="none" fill="#0000ff" transform="matrix(0.05 0 0 0.05 -28 -18)" d="M 1702.53,2808.66 L 1702.51,2771.67 L 2121.19,3014.14 L 2105.19,3041.85 L 1702.53,2808.66 Z " />
<path stroke="none" fill="#0000ff" transform="matrix(0.05 0 0 0.05 -28 -18)" d="M 2346.57,3037.39 L 2330.57,3009.68 L 2741.68,2771.66 L 2741.65,2808.65 L 2346.57,3037.39 Z " />
<path stroke="none" fill="#0000ff" transform="matrix(0.05 0 0 0.05 -28 -18)" d="M 2741.65,2808.65 L 2741.68,2771.66 L 3261.42,3072.89 L 3261.42,3109.88 L 2741.65,2808.65 Z " />
<path stroke="none" fill="#0000ff" transform="matrix(0.05 0 0 0.05 -28 -18)" d="M 3261.42,3109.88 L 3261.42,3072.89 L 3773.03,2776.95 L 3789.03,2804.66 L 3261.42,3109.88 Z " />
<path stroke="none" fill="#0000ff" transform="matrix(0.05 0 0 0.05 -28 -18)" d="M 3269.42,3000.75 L 3253.42,2973.04 L 3728.03,2699.01 L 3744.03,2726.72 L 3269.42,3000.75 Z " />
<text x="0" y="0" stroke="none" fill="#0000ff" transform="matrix(0.05 0 0 0.05 52.0375 96.3663)" font-style="normal" font-weight="normal" font-size="280px" font-family="Chalkboard" >
O</text>
<path stroke="none" fill="#0000ff" transform="matrix(0.05 0 0 0.05 -28 -18)" d="M 1673.38,2816.79 L 1641.38,2816.79 L 1641.38,2334.73 L 1673.38,2334.73 L 1673.38,2816.79 Z " />
<path stroke="none" fill="#0000ff" transform="matrix(0.05 0 0 0.05 -28 -18)" d="M 1763.39,2816.79 L 1731.39,2816.79 L 1731.39,2334.73 L 1763.39,2334.73 L 1763.39,2816.79 Z " />
<path stroke="none" fill="#0000ff" transform="matrix(0.05 0 0 0.05 -28 -18)" d="M 5257.67,2850.01 L 4404.24,2850.01 L 4404.24,2818.01 L 5257.67,2818.01 Z " />
<path stroke="none" fill="#0000ff" transform="matrix(0.05 0 0 0.05 -28 -18)" d="M 5536.67,2834.01 C 5536.67,2834.01 5216.67,2915.01 5216.67,2915.01 C 5216.67,2915.01 5256.67,2869.45 5256.67,2834.01 C 5256.67,2798.13 5216.67,2752.01 5216.67,2752.01 C 5216.67,2752.01 5536.67,2834.01 5536.67,2834.01 C 5536.67,2834.01 5536.67,2834.01 5536.67,2834.01 " />
<path stroke="#0000ff" stroke-width="1" fill="none" transform="matrix(0.05 0 0 0.05 -28 -18)" d="M 5536.67,2834.01 C 5536.67,2834.01 5216.67,2915.01 5216.67,2915.01 C 5216.67,2915.01 5256.67,2869.45 5256.67,2834.01 C 5256.67,2798.13 5216.67,2752.01 5216.67,2752.01 C 5216.67,2752.01 5536.67,2834.01 5536.67,2834.01 C 5536.67,2834.01 5536.67,2834.01 5536.67,2834.01 " />
<text x="0" y="0" stroke="none" fill="#0000ff" transform="matrix(0.05 0 0 0.05 201.648 117.687)" font-style="normal" font-weight="normal" font-size="280px" font-family="Chalkboard" >
HBr</text>
<path stroke="none" fill="#0000ff" transform="matrix(0.05 0 0 0.05 -28 -18)" d="M 5923.48,2787.46 L 5939.48,2759.75 L 6451.09,3055.69 L 6451.09,3092.68 L 5923.48,2787.46 Z " />
<path stroke="none" fill="#0000ff" transform="matrix(0.05 0 0 0.05 -28 -18)" d="M 5968.48,2709.52 L 5984.48,2681.81 L 6459.09,2955.83 L 6443.09,2983.55 L 5968.48,2709.52 Z " />
<path stroke="none" fill="#0000ff" transform="matrix(0.05 0 0 0.05 -28 -18)" d="M 6451.09,3092.68 L 6451.09,3055.69 L 6970.82,2754.47 L 6970.84,2791.46 L 6451.09,3092.68 Z " />
<text x="0" y="0" stroke="none" fill="#0000ff" transform="matrix(0.05 0 0 0.05 341.434 140.507)" font-style="normal" font-weight="normal" font-size="280px" font-family="Chalkboard" >
O</text>
<path stroke="none" fill="#0000ff" transform="matrix(0.05 0 0 0.05 -28 -18)" d="M 6970.84,2791.46 L 6970.82,2754.47 L 7389.51,2996.94 L 7373.51,3024.65 L 6970.84,2791.46 Z " />
<path stroke="none" fill="#0000ff" transform="matrix(0.05 0 0 0.05 -28 -18)" d="M 7614.88,3020.17 L 7598.88,2992.46 L 8009.79,2754.46 L 8009.77,2791.45 L 7614.88,3020.17 Z " />
<path stroke="none" fill="#0000ff" transform="matrix(0.05 0 0 0.05 -28 -18)" d="M 8009.77,2791.45 L 8009.79,2754.46 L 8529.54,3055.69 L 8529.54,3092.68 L 8009.77,2791.45 Z " />
<path stroke="none" fill="#0000ff" transform="matrix(0.05 0 0 0.05 -28 -18)" d="M 8529.54,3092.68 L 8529.54,3055.69 L 9041.15,2759.75 L 9057.15,2787.46 L 8529.54,3092.68 Z " />
<path stroke="none" fill="#0000ff" transform="matrix(0.05 0 0 0.05 -28 -18)" d="M 8537.54,2983.55 L 8521.54,2955.83 L 8996.15,2681.81 L 9012.15,2709.52 L 8537.54,2983.55 Z " />
<text x="0" y="0" stroke="none" fill="#0000ff" transform="matrix(0.05 0 0 0.05 315.453 95.5063)" font-style="normal" font-weight="normal" font-size="280px" font-family="Chalkboard" >
O</text>
<path stroke="none" fill="#0000ff" transform="matrix(0.05 0 0 0.05 -28 -18)" d="M 6941.7,2799.59 L 6909.7,2799.59 L 6909.7,2317.53 L 6941.7,2317.53 L 6941.7,2799.59 Z " />
<path stroke="none" fill="#0000ff" transform="matrix(0.05 0 0 0.05 -28 -18)" d="M 7031.7,2799.59 L 6999.7,2799.59 L 6999.7,2317.53 L 7031.7,2317.53 L 7031.7,2799.59 Z " />
<text x="0" y="0" stroke="none" fill="#0000ff" transform="matrix(0.05 0 0 0.05 342.161 80.5059)" font-style="normal" font-weight="normal" font-size="280px" font-family="Chalkboard" >
H</text>
<path stroke="none" fill="#0000ff" transform="matrix(0.05 0 0 0.05 -28 -18)" d="M 7095.27,2120.15 L 7079.27,2092.44 L 7354.41,1933.58 L 7370.41,1961.29 L 7095.27,2120.15 Z " />
<path stroke="#0000ff" stroke-width="26" fill="none" transform="matrix(0.05 0 0 0.05 -28 -18)" d="M 6629.56,2061.86 A 105.8,105.8 0 1 0 6841.16,2061.86A 105.8,105.8 0 1 0 6629.56,2061.86Z " />
<path stroke="none" fill="#0000ff" transform="matrix(0.05 0 0 0.05 -28 -18)" d="M 6673.03,2049.19 L 6798.36,2049.19 L 6798.36,2075.19 L 6673.03,2075.19 Z " />
<path stroke="none" fill="#0000ff" transform="matrix(0.05 0 0 0.05 -28 -18)" d="M 6748.7,1999.52 L 6748.7,2124.86 L 6722.7,2124.86 L 6722.7,1999.52 Z " />
<path stroke="none" fill="#0000ff" transform="matrix(0.05 0 0 0.05 -28 -18)" d="M 10388.8,2764.21 L 9535.16,2764.21 L 9535.16,2732.21 L 10388.8,2732.21 Z " />
<path stroke="none" fill="#0000ff" transform="matrix(0.05 0 0 0.05 -28 -18)" d="M 10667.8,2748.21 C 10667.8,2748.21 10347.8,2829.21 10347.8,2829.21 C 10347.8,2829.21 10387.8,2783.64 10387.8,2748.21 C 10387.8,2712.33 10347.8,2666.21 10347.8,2666.21 C 10347.8,2666.21 10667.8,2748.21 10667.8,2748.21 C 10667.8,2748.21 10667.8,2748.21 10667.8,2748.21 " />
<path stroke="#0000ff" stroke-width="1" fill="none" transform="matrix(0.05 0 0 0.05 -28 -18)" d="M 10667.8,2748.21 C 10667.8,2748.21 10347.8,2829.21 10347.8,2829.21 C 10347.8,2829.21 10387.8,2783.64 10387.8,2748.21 C 10387.8,2712.33 10347.8,2666.21 10347.8,2666.21 C 10347.8,2666.21 10667.8,2748.21 10667.8,2748.21 C 10667.8,2748.21 10667.8,2748.21 10667.8,2748.21 " />
<text x="0" y="0" stroke="none" fill="#0000ff" transform="matrix(0.05 0 0 0.05 313.194 179.468)" font-style="normal" font-weight="normal" font-size="280px" font-family="Chalkboard" >
Br</text>
<text x="0" y="0" stroke="none" fill="#0000ff" transform="matrix(0.05 0 0 0.05 327.813 174.642)" font-style="normal" font-weight="normal" font-size="210px" font-family="Chalkboard" >
-</text>
<text x="0" y="0" stroke="none" fill="#0000ff" transform="matrix(0.05 0 0 0.05 315.98 157.158)" font-style="normal" font-weight="normal" font-size="280px" font-family="Chalkboard" >
+</text>
<path stroke="#0000ff" stroke-width="32" fill="none" transform="matrix(0.05 0 0 0.05 -28 -18)" d="M 5884.5,3121.42 C 5891.64,3563.27 6228.46,3915.64 6636.28,3907.91 C 6696.46,3906.77 6756.51,3897.62 6814.65,3880.74 " />
<path stroke="none" fill="#0000ff" transform="matrix(0.05 0 0 0.05 -28 -18)" d="M 5909.56,2900.23 C 5909.56,2900.23 5945.12,3161.18 5945.12,3161.18 C 5945.12,3161.18 5912.41,3124.97 5884.5,3121.42 C 5856.59,3117.87 5816.72,3144.86 5816.72,3144.86 C 5816.72,3144.86 5909.56,2900.23 5909.56,2900.23 C 5909.56,2900.23 5909.56,2900.23 5909.56,2900.23 " />
<path stroke="#0000ff" stroke-width="1" fill="none" transform="matrix(0.05 0 0 0.05 -28 -18)" d="M 5909.56,2900.23 C 5909.56,2900.23 5945.12,3161.18 5945.12,3161.18 C 5945.12,3161.18 5912.41,3124.97 5884.5,3121.42 C 5856.59,3117.87 5816.72,3144.86 5816.72,3144.86 C 5816.72,3144.86 5909.56,2900.23 5909.56,2900.23 C 5909.56,2900.23 5909.56,2900.23 5909.56,2900.23 " />
<path stroke="#0000ff" stroke-width="32" fill="none" transform="matrix(0.05 0 0 0.05 -28 -18)" d="M 6661.64,2685.91 C 6575.81,2593.87 6431.43,2588.83 6339.39,2674.66 C 6308.34,2703.61 6285.64,2741.39 6274.65,2782.4 " />
<path stroke="none" fill="#0000ff" transform="matrix(0.05 0 0 0.05 -28 -18)" d="M 6715.13,2900.42 C 6715.13,2900.42 6591.71,2671.55 6591.71,2671.55 C 6591.71,2671.55 6634.75,2692.94 6661.64,2685.91 C 6688.54,2678.88 6716.29,2638.98 6716.29,2638.98 C 6716.29,2638.98 6715.13,2900.42 6715.13,2900.42 C 6715.13,2900.42 6715.13,2900.42 6715.13,2900.42 " />
<path stroke="#0000ff" stroke-width="1" fill="none" transform="matrix(0.05 0 0 0.05 -28 -18)" d="M 6715.13,2900.42 C 6715.13,2900.42 6591.71,2671.55 6591.71,2671.55 C 6591.71,2671.55 6634.75,2692.94 6661.64,2685.91 C 6688.54,2678.88 6716.29,2638.98 6716.29,2638.98 C 6716.29,2638.98 6715.13,2900.42 6715.13,2900.42 C 6715.13,2900.42 6715.13,2900.42 6715.13,2900.42 " />
<path stroke="#0000ff" stroke-width="32" fill="none" transform="matrix(0.05 0 0 0.05 -28 -18)" d="M 7081.1,2559.4 C 7185.32,2559.4 7269.91,2474.81 7269.91,2370.6 C 7269.91,2337.64 7261.09,2304.74 7244.61,2276.2 " />
<path stroke="none" fill="#0000ff" transform="matrix(0.05 0 0 0.05 -28 -18)" d="M 7081.1,2181.79 C 7081.1,2181.79 7295.94,2241.97 7295.94,2241.97 C 7295.94,2241.97 7254.93,2258.6 7244.61,2276.2 C 7234.3,2293.79 7240,2337.4 7240,2337.4 C 7240,2337.4 7081.1,2181.79 7081.1,2181.79 C 7081.1,2181.79 7081.1,2181.79 7081.1,2181.79 " />
<path stroke="#0000ff" stroke-width="1" fill="none" transform="matrix(0.05 0 0 0.05 -28 -18)" d="M 7081.1,2181.79 C 7081.1,2181.79 7295.94,2241.97 7295.94,2241.97 C 7295.94,2241.97 7254.93,2258.6 7244.61,2276.2 C 7234.3,2293.79 7240,2337.4 7240,2337.4 C 7240,2337.4 7081.1,2181.79 7081.1,2181.79 C 7081.1,2181.79 7081.1,2181.79 7081.1,2181.79 " />
<path stroke="none" fill="#0000ff" transform="matrix(0.05 0 0 0.05 -28 -18)" d="M 11680.1,2774.27 L 11680.1,2737.28 L 12199.8,3038.49 L 12199.8,3075.48 L 11680.1,2774.27 Z " />
<path stroke="none" fill="#0000ff" transform="matrix(0.05 0 0 0.05 -28 -18)" d="M 12199.8,3075.48 L 12199.8,3038.49 L 12704.1,2747.34 L 12719.4,2756.41 L 12719.6,2774.26 L 12199.8,3075.48 Z " />
<path stroke="none" fill="#0000ff" transform="matrix(0.05 0 0 0.05 -28 -18)" d="M 12207.8,2966.35 L 12191.8,2938.63 L 12621.4,2690.59 L 12637.4,2718.3 L 12207.8,2966.35 Z " />
<text x="0" y="0" stroke="none" fill="#0000ff" transform="matrix(0.05 0 0 0.05 628.87 139.647)" font-style="normal" font-weight="normal" font-size="280px" font-family="Chalkboard" >
O</text>
<path stroke="none" fill="#0000ff" transform="matrix(0.05 0 0 0.05 -28 -18)" d="M 12719.6,2774.26 L 12719.4,2756.41 L 12734.8,2747.5 L 13138.2,2979.74 L 13122.2,3007.45 L 12719.6,2774.26 Z " />
<path stroke="none" fill="#0000ff" transform="matrix(0.05 0 0 0.05 -28 -18)" d="M 13363.6,3002.97 L 13347.6,2975.26 L 13758.5,2737.26 L 13758.5,2774.25 L 13363.6,3002.97 Z " />
<path stroke="none" fill="#0000ff" transform="matrix(0.05 0 0 0.05 -28 -18)" d="M 13758.5,2774.25 L 13758.5,2737.26 L 14278.3,3038.49 L 14278.3,3075.48 L 13758.5,2774.25 Z " />
<path stroke="none" fill="#0000ff" transform="matrix(0.05 0 0 0.05 -28 -18)" d="M 14278.3,3075.48 L 14278.3,3038.49 L 14789.9,2742.55 L 14805.9,2770.26 L 14278.3,3075.48 Z " />
<path stroke="none" fill="#0000ff" transform="matrix(0.05 0 0 0.05 -28 -18)" d="M 14286.3,2966.35 L 14270.3,2938.63 L 14744.9,2664.61 L 14760.9,2692.32 L 14286.3,2966.35 Z " />
<text x="0" y="0" stroke="none" fill="#0000ff" transform="matrix(0.05 0 0 0.05 602.89 94.6462)" font-style="normal" font-weight="normal" font-size="280px" font-family="Chalkboard" >
O</text>
<path stroke="none" fill="#0000ff" transform="matrix(0.05 0 0 0.05 -28 -18)" d="M 12734.8,2747.5 L 12719.4,2756.41 L 12704.1,2747.34 L 12703.4,2300.33 L 12735.4,2300.33 L 12734.8,2747.5 Z " />
<text x="0" y="0" stroke="none" fill="#0000ff" transform="matrix(0.05 0 0 0.05 629.597 79.6459)" font-style="normal" font-weight="normal" font-size="280px" font-family="Chalkboard" >
H</text>
<path stroke="none" fill="#0000ff" transform="matrix(0.05 0 0 0.05 -28 -18)" d="M 12844,2102.95 L 12828,2075.24 L 13103.1,1916.38 L 13119.1,1944.09 L 12844,2102.95 Z " />
<text x="0" y="0" stroke="none" fill="#0000ff" transform="matrix(0.05 0 0 0.05 518.984 139.647)" font-style="normal" font-weight="normal" font-size="280px" font-family="Chalkboard" >
Br</text>
<path stroke="none" fill="#0000ff" transform="matrix(0.05 0 0 0.05 -28 -18)" d="M 11680.1,2737.28 L 11680.1,2774.27 L 11260.4,3017.26 L 11244.4,2989.54 L 11680.1,2737.28 Z " />
<path stroke="none" fill="#0000ff" transform="matrix(0.05 0 0 0.05 -28 -18)" d="M 15982.9,2630.41 L 15163.7,2630.41 L 15163.7,2598.41 L 15982.9,2598.41 Z " />
<path stroke="none" fill="#0000ff" transform="matrix(0.05 0 0 0.05 -28 -18)" d="M 15715.4,2694.41 L 15989.2,2694.41 L 15989.2,2726.41 L 15715.4,2726.41 Z " />
<path stroke="none" fill="#0000ff" transform="matrix(0.05 0 0 0.05 -28 -18)" d="M 16261.9,2630.41 C 16261.9,2630.41 15981.9,2630.41 15981.9,2630.41 C 15981.9,2578.53 15941.9,2532.41 15941.9,2532.41 C 15941.9,2532.41 16261.9,2630.41 16261.9,2630.41 C 16261.9,2630.41 16261.9,2630.41 16261.9,2630.41 " />
<path stroke="#0000ff" stroke-width="1" fill="none" transform="matrix(0.05 0 0 0.05 -28 -18)" d="M 16261.9,2630.41 C 16261.9,2630.41 15981.9,2630.41 15981.9,2630.41 C 15981.9,2578.53 15941.9,2532.41 15941.9,2532.41 C 15941.9,2532.41 16261.9,2630.41 16261.9,2630.41 C 16261.9,2630.41 16261.9,2630.41 16261.9,2630.41 " />
<path stroke="none" fill="#0000ff" transform="matrix(0.05 0 0 0.05 -28 -18)" d="M 15436.4,2694.41 C 15436.4,2694.41 15756.4,2792.41 15756.4,2792.41 C 15756.4,2792.41 15716.4,2714.28 15716.4,2694.41 C 15716.4,2694.41 15436.4,2694.41 15436.4,2694.41 C 15436.4,2694.41 15436.4,2694.41 15436.4,2694.41 " />
<path stroke="#0000ff" stroke-width="1" fill="none" transform="matrix(0.05 0 0 0.05 -28 -18)" d="M 15436.4,2694.41 C 15436.4,2694.41 15756.4,2792.41 15756.4,2792.41 C 15756.4,2792.41 15716.4,2714.28 15716.4,2694.41 C 15716.4,2694.41 15436.4,2694.41 15436.4,2694.41 C 15436.4,2694.41 15436.4,2694.41 15436.4,2694.41 " />
<path stroke="none" fill="#0000ff" transform="matrix(0.05 0 0 0.05 -28 -18)" d="M 17257.2,2671.27 L 17257.2,2634.28 L 17776.9,2935.49 L 17776.9,2972.47 L 17257.2,2671.27 Z " />
<path stroke="none" fill="#0000ff" transform="matrix(0.05 0 0 0.05 -28 -18)" d="M 17294.3,2589.32 L 17310.3,2561.61 L 17784.9,2835.63 L 17768.9,2863.34 L 17294.3,2589.32 Z " />
<path stroke="none" fill="#0000ff" transform="matrix(0.05 0 0 0.05 -28 -18)" d="M 17776.9,2972.47 L 17776.9,2935.49 L 18296.7,2634.26 L 18296.7,2671.26 L 17776.9,2972.47 Z " />
<text x="0" y="0" stroke="none" fill="#0000ff" transform="matrix(0.05 0 0 0.05 907.726 134.497)" font-style="normal" font-weight="normal" font-size="280px" font-family="Chalkboard" >
O</text>
<path stroke="none" fill="#0000ff" transform="matrix(0.05 0 0 0.05 -28 -18)" d="M 18296.7,2671.26 L 18296.7,2634.26 L 18715.4,2876.74 L 18699.4,2904.45 L 18296.7,2671.26 Z " />
<path stroke="none" fill="#0000ff" transform="matrix(0.05 0 0 0.05 -28 -18)" d="M 18940.7,2899.97 L 18924.7,2872.25 L 19335.6,2634.26 L 19335.6,2671.25 L 18940.7,2899.97 Z " />
<path stroke="none" fill="#0000ff" transform="matrix(0.05 0 0 0.05 -28 -18)" d="M 19335.6,2671.25 L 19335.6,2634.26 L 19855.4,2935.49 L 19855.4,2972.47 L 19335.6,2671.25 Z " />
<path stroke="none" fill="#0000ff" transform="matrix(0.05 0 0 0.05 -28 -18)" d="M 19855.4,2972.47 L 19855.4,2935.49 L 20367,2639.55 L 20383,2667.26 L 19855.4,2972.47 Z " />
<path stroke="none" fill="#0000ff" transform="matrix(0.05 0 0 0.05 -28 -18)" d="M 19863.4,2863.34 L 19847.4,2835.63 L 20322,2561.61 L 20338,2589.32 L 19863.4,2863.34 Z " />
<text x="0" y="0" stroke="none" fill="#0000ff" transform="matrix(0.05 0 0 0.05 881.746 89.4961)" font-style="normal" font-weight="normal" font-size="280px" font-family="Chalkboard" >
O</text>
<path stroke="none" fill="#0000ff" transform="matrix(0.05 0 0 0.05 -28 -18)" d="M 18267.6,2679.39 L 18235.6,2679.39 L 18235.6,2197.33 L 18267.6,2197.33 L 18267.6,2679.39 Z " />
<path stroke="none" fill="#0000ff" transform="matrix(0.05 0 0 0.05 -28 -18)" d="M 18357.6,2679.39 L 18325.6,2679.39 L 18325.6,2197.33 L 18357.6,2197.33 L 18357.6,2679.39 Z " />
<text x="0" y="0" stroke="none" fill="#0000ff" transform="matrix(0.05 0 0 0.05 797.841 134.497)" font-style="normal" font-weight="normal" font-size="280px" font-family="Chalkboard" >
Br</text>
<path stroke="none" fill="#0000ff" transform="matrix(0.05 0 0 0.05 -28 -18)" d="M 17257.2,2634.28 L 17257.2,2671.27 L 16837.5,2914.25 L 16821.5,2886.54 L 17257.2,2634.28 Z " />
<path stroke="none" fill="#0000ff" transform="matrix(0.05 0 0 0.05 -28 -18)" d="M 18374,3979.24 L 18374,3314.42 L 18406,3314.42 L 18406,3979.24 Z " />
<path stroke="none" fill="#0000ff" transform="matrix(0.05 0 0 0.05 -28 -18)" d="M 18390,4258.24 C 18390,4258.24 18308,3938.24 18308,3938.24 C 18308,3938.24 18354.1,3978.24 18390,3978.24 C 18425.4,3978.24 18471,3938.24 18471,3938.24 C 18471,3938.24 18390,4258.24 18390,4258.24 C 18390,4258.24 18390,4258.24 18390,4258.24 " />
<path stroke="#0000ff" stroke-width="1" fill="none" transform="matrix(0.05 0 0 0.05 -28 -18)" d="M 18390,4258.24 C 18390,4258.24 18308,3938.24 18308,3938.24 C 18308,3938.24 18354.1,3978.24 18390,3978.24 C 18425.4,3978.24 18471,3938.24 18471,3938.24 C 18471,3938.24 18390,4258.24 18390,4258.24 C 18390,4258.24 18390,4258.24 18390,4258.24 " />
<text x="0" y="0" stroke="none" fill="#0000ff" transform="matrix(-0.00087262 0.0499924 -0.0499924 -0.00087262 906.538 160.763)" font-style="normal" font-weight="normal" font-size="280px" font-family="Chalkboard" >
HBr</text>
<path stroke="none" fill="#0000ff" transform="matrix(0.05 0 0 0.05 -28 -18)" d="M 18976.6,3092.42 A 23.3627,23.3627 0 1 0 19023.3,3092.42A 23.3627,23.3627 0 1 0 18976.6,3092.42Z " />
<path stroke="none" fill="#0000ff" transform="matrix(0.05 0 0 0.05 -28 -18)" d="M 19019,2996.21 A 23.3627,23.3627 0 1 0 19065.7,2996.21A 23.3627,23.3627 0 1 0 19019,2996.21Z " />
<path stroke="#0000ff" stroke-width="32" fill="none" transform="matrix(0.05 0 0 0.05 -28 -18)" d="M 19076.1,3039.8 C 19184.6,3227.68 19446.7,3300.88 19636.9,3196.46 " />
<path stroke="none" fill="#0000ff" transform="matrix(0.05 0 0 0.05 -28 -18)" d="M 19797,3039.83 C 19797,3039.83 19659.8,3265.57 19659.8,3265.57 C 19659.8,3265.57 19656.9,3216.9 19636.9,3196.46 C 19616.9,3176.01 19568.3,3172.09 19568.3,3172.09 C 19568.3,3172.09 19797,3039.83 19797,3039.83 C 19797,3039.83 19797,3039.83 19797,3039.83 " />
<path stroke="#0000ff" stroke-width="1" fill="none" transform="matrix(0.05 0 0 0.05 -28 -18)" d="M 19797,3039.83 C 19797,3039.83 19659.8,3265.57 19659.8,3265.57 C 19659.8,3265.57 19656.9,3216.9 19636.9,3196.46 C 19616.9,3176.01 19568.3,3172.09 19568.3,3172.09 C 19568.3,3172.09 19797,3039.83 19797,3039.83 C 19797,3039.83 19797,3039.83 19797,3039.83 " />
<path stroke="#0000ff" stroke-width="32" fill="none" transform="matrix(0.05 0 0 0.05 -28 -18)" d="M 19048.1,3708.55 C 19530.8,3847.04 20035,3567.64 20173.5,3084.93 C 20196.9,3003.52 20208.8,2918.84 20208.8,2834.15 " />
<path stroke="none" fill="#0000ff" transform="matrix(0.05 0 0 0.05 -28 -18)" d="M 18843.9,3621.87 C 18843.9,3621.87 19103,3661.61 19103,3661.61 C 19103,3661.61 19059.2,3682.85 19048.1,3708.55 C 19036.9,3734.24 19051.5,3780.25 19051.5,3780.25 C 19051.5,3780.25 18843.9,3621.87 18843.9,3621.87 C 18843.9,3621.87 18843.9,3621.87 18843.9,3621.87 " />
<path stroke="#0000ff" stroke-width="1" fill="none" transform="matrix(0.05 0 0 0.05 -28 -18)" d="M 18843.9,3621.87 C 18843.9,3621.87 19103,3661.61 19103,3661.61 C 19103,3661.61 19059.2,3682.85 19048.1,3708.55 C 19036.9,3734.24 19051.5,3780.25 19051.5,3780.25 C 19051.5,3780.25 18843.9,3621.87 18843.9,3621.87 C 18843.9,3621.87 18843.9,3621.87 18843.9,3621.87 " />
<path stroke="none" fill="#0000ff" transform="matrix(0.05 0 0 0.05 -28 -18)" d="M 17360.2,5193.93 L 17360.2,5156.93 L 17879.9,5458.14 L 17879.9,5495.13 L 17360.2,5193.93 Z " />
<path stroke="none" fill="#0000ff" transform="matrix(0.05 0 0 0.05 -28 -18)" d="M 17397.3,5111.98 L 17413.3,5084.26 L 17887.9,5358.29 L 17871.9,5386 L 17397.3,5111.98 Z " />
<path stroke="none" fill="#0000ff" transform="matrix(0.05 0 0 0.05 -28 -18)" d="M 17879.9,5495.13 L 17879.9,5458.14 L 18399.7,5156.92 L 18399.7,5193.91 L 17879.9,5495.13 Z " />
<text x="0" y="0" stroke="none" fill="#0000ff" transform="matrix(0.05 0 0 0.05 912.877 260.63)" font-style="normal" font-weight="normal" font-size="280px" font-family="Chalkboard" >
O</text>
<path stroke="none" fill="#0000ff" transform="matrix(0.05 0 0 0.05 -28 -18)" d="M 18399.7,5193.91 L 18399.7,5156.92 L 18818.4,5399.39 L 18802.4,5427.1 L 18399.7,5193.91 Z " />
<text x="0" y="0" stroke="none" fill="#0000ff" transform="matrix(0.05 0 0 0.05 886.896 215.629)" font-style="normal" font-weight="normal" font-size="280px" font-family="Chalkboard" >
O</text>
<path stroke="none" fill="#0000ff" transform="matrix(0.05 0 0 0.05 -28 -18)" d="M 18370.6,5202.04 L 18338.6,5202.04 L 18338.6,4719.98 L 18370.6,4719.98 L 18370.6,5202.04 Z " />
<path stroke="none" fill="#0000ff" transform="matrix(0.05 0 0 0.05 -28 -18)" d="M 18460.6,5202.04 L 18428.6,5202.04 L 18428.6,4719.98 L 18460.6,4719.98 L 18460.6,5202.04 Z " />
<text x="0" y="0" stroke="none" fill="#0000ff" transform="matrix(0.05 0 0 0.05 802.991 260.63)" font-style="normal" font-weight="normal" font-size="280px" font-family="Chalkboard" >
Br</text>
<path stroke="none" fill="#0000ff" transform="matrix(0.05 0 0 0.05 -28 -18)" d="M 17360.2,5156.93 L 17360.2,5193.93 L 16940.5,5436.91 L 16924.5,5409.2 L 17360.2,5156.93 Z " />
<path stroke="none" fill="#0000ff" transform="matrix(0.05 0 0 0.05 -28 -18)" d="M 18973,5603.47 L 19000.7,5587.47 L 19217.7,5966.75 L 19217.7,6031.47 L 18973,5603.47 Z " />
<path stroke="none" fill="#0000ff" transform="matrix(0.05 0 0 0.05 -28 -18)" d="M 19217.7,6031.47 L 19217.7,5966.75 L 19492.8,5490.36 L 19548.8,5457.98 L 19217.7,6031.47 Z " />
<path stroke="none" fill="#0000ff" transform="matrix(0.05 0 0 0.05 -28 -18)" d="M 19548.8,5457.98 L 19492.8,5490.36 L 19045.5,5492.07 L 19045.5,5460.07 L 19548.8,5457.98 Z " />
<path stroke="#0000ff" stroke-width="26" fill="none" transform="matrix(0.05 0 0 0.05 -28 -18)" d="M 18935.4,5248.33 A 105.8,105.8 0 1 0 19147,5248.33A 105.8,105.8 0 1 0 18935.4,5248.33Z " />
<path stroke="none" fill="#0000ff" transform="matrix(0.05 0 0 0.05 -28 -18)" d="M 18978.9,5235.66 L 19104.2,5235.66 L 19104.2,5261.66 L 18978.9,5261.66 Z " />
<path stroke="none" fill="#0000ff" transform="matrix(0.05 0 0 0.05 -28 -18)" d="M 19054.6,5186 L 19054.6,5311.33 L 19028.6,5311.33 L 19028.6,5186 Z " />
<path stroke="none" fill="#0000ff" transform="matrix(0.05 0 0 0.05 -28 -18)" d="M 15545.7,5237.46 L 16330.7,5237.46 L 16330.7,5269.46 L 15545.7,5269.46 Z " />
<path stroke="none" fill="#0000ff" transform="matrix(0.05 0 0 0.05 -28 -18)" d="M 15266.7,5253.46 C 15266.7,5253.46 15586.7,5171.46 15586.7,5171.46 C 15586.7,5171.46 15546.7,5217.59 15546.7,5253.46 C 15546.7,5288.9 15586.7,5334.46 15586.7,5334.46 C 15586.7,5334.46 15266.7,5253.46 15266.7,5253.46 C 15266.7,5253.46 15266.7,5253.46 15266.7,5253.46 " />
<path stroke="#0000ff" stroke-width="1" fill="none" transform="matrix(0.05 0 0 0.05 -28 -18)" d="M 15266.7,5253.46 C 15266.7,5253.46 15586.7,5171.46 15586.7,5171.46 C 15586.7,5171.46 15546.7,5217.59 15546.7,5253.46 C 15546.7,5288.9 15586.7,5334.46 15586.7,5334.46 C 15586.7,5334.46 15266.7,5253.46 15266.7,5253.46 C 15266.7,5253.46 15266.7,5253.46 15266.7,5253.46 " />
<text x="0" y="0" stroke="none" fill="#0000ff" transform="matrix(0.05 0 0 0.05 757.144 240.389)" font-style="normal" font-weight="normal" font-size="280px" font-family="Chalkboard" >
Br</text>
<path stroke="#0000ff" stroke-width="26" fill="none" transform="matrix(0.05 0 0 0.05 -28 -18)" d="M 15975.2,4881.52 A 105.8,105.8 0 1 0 16186.8,4881.52A 105.8,105.8 0 1 0 15975.2,4881.52Z " />
<path stroke="none" fill="#0000ff" transform="matrix(0.05 0 0 0.05 -28 -18)" d="M 16018.6,4868.85 L 16144,4868.85 L 16144,4894.85 L 16018.6,4894.85 Z " />
<path stroke="#0000ff" stroke-width="32" fill="none" transform="matrix(0.05 0 0 0.05 -28 -18)" d="M 15798.7,5253.65 C 16489.1,6187.84 17814.6,6572.78 18898,6153.78 " />
<path stroke="none" fill="#0000ff" transform="matrix(0.05 0 0 0.05 -28 -18)" d="M 19103.4,6064.26 C 19103.4,6064.26 18895.3,6226.24 18895.3,6226.24 C 18895.3,6226.24 18909.7,6179.89 18898,6153.78 C 18886.4,6127.68 18842.1,6106.9 18842.1,6106.9 C 18842.1,6106.9 19103.4,6064.26 19103.4,6064.26 C 19103.4,6064.26 19103.4,6064.26 19103.4,6064.26 " />
<path stroke="#0000ff" stroke-width="1" fill="none" transform="matrix(0.05 0 0 0.05 -28 -18)" d="M 19103.4,6064.26 C 19103.4,6064.26 18895.3,6226.24 18895.3,6226.24 C 18895.3,6226.24 18909.7,6179.89 18898,6153.78 C 18886.4,6127.68 18842.1,6106.9 18842.1,6106.9 C 18842.1,6106.9 19103.4,6064.26 19103.4,6064.26 C 19103.4,6064.26 19103.4,6064.26 19103.4,6064.26 " />
<path stroke="none" fill="#0000ff" transform="matrix(0.05 0 0 0.05 -28 -18)" d="M 11748.7,5159.53 L 11748.7,5122.53 L 12268.4,5423.74 L 12268.4,5460.73 L 11748.7,5159.53 Z " />
<path stroke="none" fill="#0000ff" transform="matrix(0.05 0 0 0.05 -28 -18)" d="M 12268.4,5460.73 L 12268.4,5423.74 L 12772.7,5132.6 L 12788,5141.66 L 12788.2,5159.51 L 12268.4,5460.73 Z " />
<path stroke="none" fill="#0000ff" transform="matrix(0.05 0 0 0.05 -28 -18)" d="M 12276.4,5351.6 L 12260.4,5323.89 L 12690,5075.84 L 12706,5103.56 L 12276.4,5351.6 Z " />
<text x="0" y="0" stroke="none" fill="#0000ff" transform="matrix(0.05 0 0 0.05 632.3 258.91)" font-style="normal" font-weight="normal" font-size="280px" font-family="Chalkboard" >
O</text>
<path stroke="none" fill="#0000ff" transform="matrix(0.05 0 0 0.05 -28 -18)" d="M 12788.2,5159.51 L 12788,5141.66 L 12803.4,5132.75 L 13206.8,5364.99 L 13190.8,5392.7 L 12788.2,5159.51 Z " />
<path stroke="none" fill="#0000ff" transform="matrix(0.05 0 0 0.05 -28 -18)" d="M 13432.2,5388.22 L 13416.2,5360.51 L 13827.1,5122.51 L 13827.1,5159.51 L 13432.2,5388.22 Z " />
<path stroke="none" fill="#0000ff" transform="matrix(0.05 0 0 0.05 -28 -18)" d="M 13827.1,5159.51 L 13827.1,5122.51 L 14346.9,5423.74 L 14346.9,5441.67 L 14331.5,5450.73 L 13827.1,5159.51 Z " />
<path stroke="none" fill="#0000ff" transform="matrix(0.05 0 0 0.05 -28 -18)" d="M 14362.2,5450.73 L 14346.9,5441.67 L 14346.9,5423.74 L 14858.5,5127.8 L 14874.5,5155.52 L 14362.2,5450.73 Z " />
<text x="0" y="0" stroke="none" fill="#0000ff" transform="matrix(0.05 0 0 0.05 606.32 213.909)" font-style="normal" font-weight="normal" font-size="280px" font-family="Chalkboard" >
O</text>
<path stroke="none" fill="#0000ff" transform="matrix(0.05 0 0 0.05 -28 -18)" d="M 12803.4,5132.75 L 12788,5141.66 L 12772.7,5132.6 L 12772,4685.58 L 12804,4685.58 L 12803.4,5132.75 Z " />
<text x="0" y="0" stroke="none" fill="#0000ff" transform="matrix(0.05 0 0 0.05 633.027 198.909)" font-style="normal" font-weight="normal" font-size="280px" font-family="Chalkboard" >
H</text>
<path stroke="none" fill="#0000ff" transform="matrix(0.05 0 0 0.05 -28 -18)" d="M 12912.6,4488.2 L 12896.6,4460.49 L 13171.7,4301.63 L 13187.7,4329.34 L 12912.6,4488.2 Z " />
<text x="0" y="0" stroke="none" fill="#0000ff" transform="matrix(0.05 0 0 0.05 522.414 258.91)" font-style="normal" font-weight="normal" font-size="280px" font-family="Chalkboard" >
Br</text>
<path stroke="none" fill="#0000ff" transform="matrix(0.05 0 0 0.05 -28 -18)" d="M 11748.7,5122.53 L 11748.7,5159.53 L 11328.7,5402.69 L 11312.7,5374.98 L 11748.7,5122.53 Z " />
<text x="0" y="0" stroke="none" fill="#0000ff" transform="matrix(0.05 0 0 0.05 685.352 288.911)" font-style="normal" font-weight="normal" font-size="280px" font-family="Chalkboard" >
Br</text>
<path stroke="none" fill="#0000ff" transform="matrix(0.05 0 0 0.05 -28 -18)" d="M 14331.5,5450.73 L 14346.9,5441.67 L 14362.2,5450.73 L 14362.9,5904.15 L 14330.9,5904.15 L 14331.5,5450.73 Z " />
<path stroke="none" fill="#0000ff" transform="matrix(0.05 0 0 0.05 -28 -18)" d="M 7414.28,4491.48 L 7414.28,3620.76 L 7446.28,3620.76 L 7446.28,4491.48 Z " />
<path stroke="none" fill="#0000ff" transform="matrix(0.05 0 0 0.05 -28 -18)" d="M 7430.28,4770.48 C 7430.28,4770.48 7348.28,4450.48 7348.28,4450.48 C 7348.28,4450.48 7394.41,4490.48 7430.28,4490.48 C 7465.72,4490.48 7511.28,4450.48 7511.28,4450.48 C 7511.28,4450.48 7430.28,4770.48 7430.28,4770.48 C 7430.28,4770.48 7430.28,4770.48 7430.28,4770.48 " />
<path stroke="#0000ff" stroke-width="1" fill="none" transform="matrix(0.05 0 0 0.05 -28 -18)" d="M 7430.28,4770.48 C 7430.28,4770.48 7348.28,4450.48 7348.28,4450.48 C 7348.28,4450.48 7394.41,4490.48 7430.28,4490.48 C 7465.72,4490.48 7511.28,4450.48 7511.28,4450.48 C 7511.28,4450.48 7430.28,4770.48 7430.28,4770.48 C 7430.28,4770.48 7430.28,4770.48 7430.28,4770.48 " />
<text x="0" y="0" stroke="none" fill="#0000ff" transform="matrix(0.05 0 0 0.05 348.662 191.352)" font-style="normal" font-weight="normal" font-size="280px" font-family="Chalkboard" >
competing </text>
<text x="0" y="0" stroke="none" fill="#0000ff" transform="matrix(0.05 0 0 0.05 417.069 191.352)" font-style="normal" font-weight="normal" font-size="280px" font-family="Chalkboard" >
reaction</text>
<path stroke="none" fill="#0000ff" transform="matrix(0.05 0 0 0.05 -28 -18)" d="M 5442.8,5292.86 L 5458.8,5265.15 L 5970.41,5561.09 L 5970.41,5598.08 L 5442.8,5292.86 Z " />
<path stroke="none" fill="#0000ff" transform="matrix(0.05 0 0 0.05 -28 -18)" d="M 5487.8,5214.92 L 5503.8,5187.21 L 5978.41,5461.23 L 5962.41,5488.95 L 5487.8,5214.92 Z " />
<path stroke="none" fill="#0000ff" transform="matrix(0.05 0 0 0.05 -28 -18)" d="M 5970.41,5598.08 L 5970.41,5561.09 L 6490.15,5259.87 L 6490.17,5296.86 L 5970.41,5598.08 Z " />
<text x="0" y="0" stroke="none" fill="#0000ff" transform="matrix(0.05 0 0 0.05 317.4 265.777)" font-style="normal" font-weight="normal" font-size="280px" font-family="Chalkboard" >
OH</text>
<path stroke="none" fill="#0000ff" transform="matrix(0.05 0 0 0.05 -28 -18)" d="M 6490.17,5296.86 L 6490.15,5259.87 L 6908.83,5502.34 L 6892.83,5530.05 L 6490.17,5296.86 Z " />
<text x="0" y="0" stroke="none" fill="#0000ff" transform="matrix(0.05 0 0 0.05 291.419 220.776)" font-style="normal" font-weight="normal" font-size="280px" font-family="Chalkboard" >
O</text>
<path stroke="none" fill="#0000ff" transform="matrix(0.05 0 0 0.05 -28 -18)" d="M 6461.02,5304.99 L 6429.02,5304.99 L 6429.02,4822.93 L 6461.02,4822.93 L 6461.02,5304.99 Z " />
<path stroke="none" fill="#0000ff" transform="matrix(0.05 0 0 0.05 -28 -18)" d="M 6551.03,5304.99 L 6519.03,5304.99 L 6519.03,4822.93 L 6551.03,4822.93 L 6551.03,5304.99 Z " />
<text x="0" y="0" stroke="none" fill="#0000ff" transform="matrix(0.05 0 0 0.05 339.508 245.529)" font-style="normal" font-weight="normal" font-size="280px" font-family="Chalkboard" >
+</text>
<text x="0" y="0" stroke="none" fill="#0000ff" transform="matrix(0.05 0 0 0.05 358.627 261.487)" font-style="normal" font-weight="normal" font-size="280px" font-family="Chalkboard" >
Br</text>
<path stroke="none" fill="#0000ff" transform="matrix(0.05 0 0 0.05 -28 -18)" d="M 8053.26,5454.07 L 8037.27,5426.36 L 8473.15,5174.08 L 8473.13,5211.07 L 8053.26,5454.07 Z " />
<path stroke="none" fill="#0000ff" transform="matrix(0.05 0 0 0.05 -28 -18)" d="M 8473.13,5211.07 L 8473.15,5174.08 L 8992.86,5475.29 L 8992.86,5512.28 L 8473.13,5211.07 Z " />
<path stroke="none" fill="#0000ff" transform="matrix(0.05 0 0 0.05 -28 -18)" d="M 8992.86,5512.28 L 8992.86,5475.29 L 9504.47,5179.35 L 9520.47,5207.06 L 8992.86,5512.28 Z " />
<path stroke="none" fill="#0000ff" transform="matrix(0.05 0 0 0.05 -28 -18)" d="M 9000.86,5403.15 L 8984.86,5375.44 L 9459.47,5101.41 L 9475.47,5129.12 L 9000.86,5403.15 Z " />
<path stroke="none" fill="#0000ff" transform="matrix(0.05 0 0 0.05 -28 -18)" d="M 4105.68,5337.92 L 5130.84,5337.92 L 5130.84,5369.92 L 4105.68,5369.92 Z " />
<path stroke="none" fill="#0000ff" transform="matrix(0.05 0 0 0.05 -28 -18)" d="M 3826.68,5353.92 C 3826.68,5353.92 4146.68,5271.92 4146.68,5271.92 C 4146.68,5271.92 4106.68,5318.05 4106.68,5353.92 C 4106.68,5389.36 4146.68,5434.92 4146.68,5434.92 C 4146.68,5434.92 3826.68,5353.92 3826.68,5353.92 C 3826.68,5353.92 3826.68,5353.92 3826.68,5353.92 " />
<path stroke="#0000ff" stroke-width="1" fill="none" transform="matrix(0.05 0 0 0.05 -28 -18)" d="M 3826.68,5353.92 C 3826.68,5353.92 4146.68,5271.92 4146.68,5271.92 C 4146.68,5271.92 4106.68,5318.05 4106.68,5353.92 C 4106.68,5389.36 4146.68,5434.92 4146.68,5434.92 C 4146.68,5434.92 3826.68,5353.92 3826.68,5353.92 C 3826.68,5353.92 3826.68,5353.92 3826.68,5353.92 " />
<text x="0" y="0" stroke="none" fill="#0000ff" transform="matrix(0.05 0 0 0.05 190.494 245.529)" font-style="normal" font-weight="normal" font-size="280px" font-family="Chalkboard" >
HBr</text>
<path stroke="none" fill="#0000ff" transform="matrix(0.05 0 0 0.05 -28 -18)" d="M 603.682,1122.98 L 619.682,1095.27 L 1131.29,1391.21 L 1131.29,1428.2 L 603.682,1122.98 Z " />
<path stroke="none" fill="#0000ff" transform="matrix(0.05 0 0 0.05 -28 -18)" d="M 648.683,1045.04 L 664.683,1017.33 L 1139.29,1291.35 L 1123.29,1319.07 L 648.683,1045.04 Z " />
<path stroke="none" fill="#0000ff" transform="matrix(0.05 0 0 0.05 -28 -18)" d="M 1131.29,1428.2 L 1131.29,1391.21 L 1651.03,1089.99 L 1651.05,1126.98 L 1131.29,1428.2 Z " />
<text x="0" y="0" stroke="none" fill="#0000ff" transform="matrix(0.05 0 0 0.05 75.444 57.2833)" font-style="normal" font-weight="normal" font-size="280px" font-family="Chalkboard" >
O</text>
<path stroke="none" fill="#0000ff" transform="matrix(0.05 0 0 0.05 -28 -18)" d="M 1651.05,1126.98 L 1651.03,1089.99 L 2069.71,1332.46 L 2053.71,1360.17 L 1651.05,1126.98 Z " />
<path stroke="none" fill="#0000ff" transform="matrix(0.05 0 0 0.05 -28 -18)" d="M 2295.09,1355.71 L 2279.09,1328 L 2690.2,1089.98 L 2690.17,1126.97 L 2295.09,1355.71 Z " />
<path stroke="none" fill="#0000ff" transform="matrix(0.05 0 0 0.05 -28 -18)" d="M 2690.17,1126.97 L 2690.2,1089.98 L 3209.94,1391.21 L 3209.94,1428.2 L 2690.17,1126.97 Z " />
<path stroke="none" fill="#0000ff" transform="matrix(0.05 0 0 0.05 -28 -18)" d="M 3209.94,1428.2 L 3209.94,1391.21 L 3721.55,1095.27 L 3737.55,1122.98 L 3209.94,1428.2 Z " />
<path stroke="none" fill="#0000ff" transform="matrix(0.05 0 0 0.05 -28 -18)" d="M 3217.94,1319.07 L 3201.94,1291.36 L 3676.55,1017.33 L 3692.55,1045.04 L 3217.94,1319.07 Z " />
<text x="0" y="0" stroke="none" fill="#0000ff" transform="matrix(0.05 0 0 0.05 49.4635 12.2823)" font-style="normal" font-weight="normal" font-size="280px" font-family="Chalkboard" >
O</text>
<path stroke="none" fill="#0000ff" transform="matrix(0.05 0 0 0.05 -28 -18)" d="M 1621.9,1135.11 L 1589.9,1135.11 L 1589.9,653.049 L 1621.9,653.049 L 1621.9,1135.11 Z " />
<path stroke="none" fill="#0000ff" transform="matrix(0.05 0 0 0.05 -28 -18)" d="M 1711.91,1135.11 L 1679.91,1135.11 L 1679.91,653.049 L 1711.91,653.049 L 1711.91,1135.11 Z " />
<path stroke="none" fill="#0000ff" transform="matrix(0.05 0 0 0.05 -28 -18)" d="M 5206.19,1168.33 L 4352.76,1168.33 L 4352.76,1136.33 L 5206.19,1136.33 Z " />
<path stroke="none" fill="#0000ff" transform="matrix(0.05 0 0 0.05 -28 -18)" d="M 5485.19,1152.33 C 5485.19,1152.33 5165.19,1233.33 5165.19,1233.33 C 5165.19,1233.33 5205.19,1187.77 5205.19,1152.33 C 5205.19,1116.45 5165.19,1070.33 5165.19,1070.33 C 5165.19,1070.33 5485.19,1152.33 5485.19,1152.33 C 5485.19,1152.33 5485.19,1152.33 5485.19,1152.33 " />
<path stroke="#0000ff" stroke-width="1" fill="none" transform="matrix(0.05 0 0 0.05 -28 -18)" d="M 5485.19,1152.33 C 5485.19,1152.33 5165.19,1233.33 5165.19,1233.33 C 5165.19,1233.33 5205.19,1187.77 5205.19,1152.33 C 5205.19,1116.45 5165.19,1070.33 5165.19,1070.33 C 5165.19,1070.33 5485.19,1152.33 5485.19,1152.33 C 5485.19,1152.33 5485.19,1152.33 5485.19,1152.33 " />
<text x="0" y="0" stroke="none" fill="#0000ff" transform="matrix(0.05 0 0 0.05 192.581 33.6027)" font-style="normal" font-weight="normal" font-size="280px" font-family="Chalkboard" >
2 </text>
<text x="0" y="0" stroke="none" fill="#0000ff" transform="matrix(0.05 0 0 0.05 205.9 33.6027)" font-style="normal" font-weight="normal" font-size="280px" font-family="Chalkboard" >
HBr</text>
</svg>
