<?xml version="1.0" standalone="no" ?>
<!DOCTYPE svg PUBLIC "-//W3C//DTD SVG 1.1//EN" "http://www.w3.org/Graphics/SVG/1.1/DTD/svg11.dtd">
<svg width="991px" height="234px" viewBox="0 0 991 234" style="background-color: #ffffff00" xmlns="http://www.w3.org/2000/svg" xmlns:xlink="http://www.w3.org/1999/xlink" version="1.1" >
<path stroke="none" fill="#0000ff" transform="matrix(0.05 0 0 0.05 -18 -14)" d="M 403.84,1377.78 L 419.84,1350.06 L 931.455,1646 L 931.455,1682.98 L 403.84,1377.78 Z " />
<path stroke="none" fill="#0000ff" transform="matrix(0.05 0 0 0.05 -18 -14)" d="M 448.84,1299.83 L 464.84,1272.12 L 939.455,1546.14 L 923.455,1573.85 L 448.84,1299.83 Z " />
<path stroke="none" fill="#0000ff" transform="matrix(0.05 0 0 0.05 -18 -14)" d="M 931.455,1682.98 L 931.455,1646 L 1451.19,1344.78 L 1451.21,1381.77 L 931.455,1682.98 Z " />
<text x="0" y="0" stroke="none" fill="#0000ff" transform="matrix(0.05 0 0 0.05 75.4525 74.0225)" font-style="normal" font-weight="normal" font-size="280px" font-family="Chalkboard" >
O</text>
<path stroke="none" fill="#0000ff" transform="matrix(0.05 0 0 0.05 -18 -14)" d="M 1451.21,1381.77 L 1451.19,1344.78 L 1868.7,1586.56 L 1852.7,1614.27 L 1451.21,1381.77 Z " />
<path stroke="none" fill="#0000ff" transform="matrix(0.05 0 0 0.05 -18 -14)" d="M 2094.94,1610.66 L 2078.94,1582.95 L 2490.17,1344.77 L 2490.15,1381.77 L 2094.94,1610.66 Z " />
<path stroke="none" fill="#0000ff" transform="matrix(0.05 0 0 0.05 -18 -14)" d="M 2490.15,1381.77 L 2490.17,1344.77 L 3009.92,1646 L 3009.92,1682.98 L 2490.15,1381.77 Z " />
<path stroke="none" fill="#0000ff" transform="matrix(0.05 0 0 0.05 -18 -14)" d="M 3009.92,1682.98 L 3009.92,1646 L 3521.53,1350.06 L 3537.53,1377.78 L 3009.92,1682.98 Z " />
<path stroke="none" fill="#0000ff" transform="matrix(0.05 0 0 0.05 -18 -14)" d="M 3017.92,1573.85 L 3001.92,1546.14 L 3476.53,1272.12 L 3492.53,1299.83 L 3017.92,1573.85 Z " />
<text x="0" y="0" stroke="none" fill="#0000ff" transform="matrix(0.05 0 0 0.05 49.4718 29.0225)" font-style="normal" font-weight="normal" font-size="280px" font-family="Chalkboard" >
O</text>
<path stroke="none" fill="#0000ff" transform="matrix(0.05 0 0 0.05 -18 -14)" d="M 1422.07,1389.9 L 1390.07,1389.9 L 1390.07,906.854 L 1422.07,906.854 L 1422.07,1389.9 Z " />
<path stroke="none" fill="#0000ff" transform="matrix(0.05 0 0 0.05 -18 -14)" d="M 1512.07,1389.9 L 1480.07,1389.9 L 1480.07,906.854 L 1512.07,906.854 L 1512.07,1389.9 Z " />
<path stroke="none" fill="#0000ff" transform="matrix(0.05 0 0 0.05 -18 -14)" d="M 5006.28,1423.12 L 4152.72,1423.12 L 4152.72,1391.12 L 5006.28,1391.12 Z " />
<path stroke="none" fill="#0000ff" transform="matrix(0.05 0 0 0.05 -18 -14)" d="M 5285.28,1407.12 C 5285.28,1407.12 4965.28,1488.12 4965.28,1488.12 C 4965.28,1488.12 5005.28,1442.56 5005.28,1407.12 C 5005.28,1371.25 4965.28,1325.12 4965.28,1325.12 C 4965.28,1325.12 5285.28,1407.12 5285.28,1407.12 C 5285.28,1407.12 5285.28,1407.12 5285.28,1407.12 " />
<path stroke="#0000ff" stroke-width="1" fill="none" transform="matrix(0.05 0 0 0.05 -18 -14)" d="M 5285.28,1407.12 C 5285.28,1407.12 4965.28,1488.12 4965.28,1488.12 C 4965.28,1488.12 5005.28,1442.56 5005.28,1407.12 C 5005.28,1371.25 4965.28,1325.12 4965.28,1325.12 C 4965.28,1325.12 5285.28,1407.12 5285.28,1407.12 C 5285.28,1407.12 5285.28,1407.12 5285.28,1407.12 " />
<text x="0" y="0" stroke="none" fill="#0000ff" transform="matrix(0.05 0 0 0.05 199.074 50.35)" font-style="normal" font-weight="normal" font-size="280px" font-family="Chalkboard" >
HBr</text>
<path stroke="none" fill="#0000ff" transform="matrix(0.05 0 0 0.05 -18 -14)" d="M 5671.96,1360.62 L 5687.96,1332.9 L 6199.58,1628.84 L 6199.58,1665.82 L 5671.96,1360.62 Z " />
<path stroke="none" fill="#0000ff" transform="matrix(0.05 0 0 0.05 -18 -14)" d="M 5716.96,1282.67 L 5732.96,1254.96 L 6207.58,1528.98 L 6191.58,1556.69 L 5716.96,1282.67 Z " />
<path stroke="none" fill="#0000ff" transform="matrix(0.05 0 0 0.05 -18 -14)" d="M 6199.58,1665.82 L 6199.58,1628.84 L 6719.31,1327.62 L 6719.33,1364.61 L 6199.58,1665.82 Z " />
<text x="0" y="0" stroke="none" fill="#0000ff" transform="matrix(0.05 0 0 0.05 338.859 73.1645)" font-style="normal" font-weight="normal" font-size="280px" font-family="Chalkboard" >
O</text>
<path stroke="none" fill="#0000ff" transform="matrix(0.05 0 0 0.05 -18 -14)" d="M 6719.33,1364.61 L 6719.31,1327.62 L 7136.82,1569.4 L 7120.82,1597.11 L 6719.33,1364.61 Z " />
<path stroke="none" fill="#0000ff" transform="matrix(0.05 0 0 0.05 -18 -14)" d="M 7363.06,1593.5 L 7347.06,1565.79 L 7758.29,1327.61 L 7758.27,1364.61 L 7363.06,1593.5 Z " />
<path stroke="none" fill="#0000ff" transform="matrix(0.05 0 0 0.05 -18 -14)" d="M 7758.27,1364.61 L 7758.29,1327.61 L 8278.04,1628.84 L 8278.04,1665.82 L 7758.27,1364.61 Z " />
<path stroke="none" fill="#0000ff" transform="matrix(0.05 0 0 0.05 -18 -14)" d="M 8278.04,1665.82 L 8278.04,1628.84 L 8789.65,1332.9 L 8805.65,1360.62 L 8278.04,1665.82 Z " />
<path stroke="none" fill="#0000ff" transform="matrix(0.05 0 0 0.05 -18 -14)" d="M 8286.04,1556.69 L 8270.04,1528.98 L 8744.65,1254.96 L 8760.65,1282.67 L 8286.04,1556.69 Z " />
<text x="0" y="0" stroke="none" fill="#0000ff" transform="matrix(0.05 0 0 0.05 312.878 28.1645)" font-style="normal" font-weight="normal" font-size="280px" font-family="Chalkboard" >
O</text>
<path stroke="none" fill="#0000ff" transform="matrix(0.05 0 0 0.05 -18 -14)" d="M 6690.19,1372.74 L 6658.19,1372.74 L 6658.19,889.694 L 6690.19,889.694 L 6690.19,1372.74 Z " />
<path stroke="none" fill="#0000ff" transform="matrix(0.05 0 0 0.05 -18 -14)" d="M 6780.19,1372.74 L 6748.19,1372.74 L 6748.19,889.694 L 6780.19,889.694 L 6780.19,1372.74 Z " />
<text x="0" y="0" stroke="none" fill="#0000ff" transform="matrix(0.05 0 0 0.05 339.586 13.1645)" font-style="normal" font-weight="normal" font-size="280px" font-family="Chalkboard" >
H</text>
<path stroke="none" fill="#0000ff" transform="matrix(0.05 0 0 0.05 -18 -14)" d="M 6843.44,693.499 L 6827.44,665.787 L 7102.91,506.747 L 7118.91,534.459 L 6843.44,693.499 Z " />
<path stroke="#0000ff" stroke-width="26" fill="none" transform="matrix(0.05 0 0 0.05 -18 -14)" d="M 6378.06,635.14 A 105.8,105.8 0 1 0 6589.66,635.14A 105.8,105.8 0 1 0 6378.06,635.14Z " />
<path stroke="none" fill="#0000ff" transform="matrix(0.05 0 0 0.05 -18 -14)" d="M 6421.53,622.473 L 6546.86,622.473 L 6546.86,648.473 L 6421.53,648.473 Z " />
<path stroke="none" fill="#0000ff" transform="matrix(0.05 0 0 0.05 -18 -14)" d="M 6497.19,572.807 L 6497.19,698.14 L 6471.19,698.14 L 6471.19,572.807 Z " />
<path stroke="none" fill="#0000ff" transform="matrix(0.05 0 0 0.05 -18 -14)" d="M 10137.1,1337.32 L 9283.56,1337.32 L 9283.56,1305.32 L 10137.1,1305.32 Z " />
<path stroke="none" fill="#0000ff" transform="matrix(0.05 0 0 0.05 -18 -14)" d="M 10416.1,1321.32 C 10416.1,1321.32 10096.1,1402.32 10096.1,1402.32 C 10096.1,1402.32 10136.1,1356.76 10136.1,1321.32 C 10136.1,1285.45 10096.1,1239.32 10096.1,1239.32 C 10096.1,1239.32 10416.1,1321.32 10416.1,1321.32 C 10416.1,1321.32 10416.1,1321.32 10416.1,1321.32 " />
<path stroke="#0000ff" stroke-width="1" fill="none" transform="matrix(0.05 0 0 0.05 -18 -14)" d="M 10416.1,1321.32 C 10416.1,1321.32 10096.1,1402.32 10096.1,1402.32 C 10096.1,1402.32 10136.1,1356.76 10136.1,1321.32 C 10136.1,1285.45 10096.1,1239.32 10096.1,1239.32 C 10096.1,1239.32 10416.1,1321.32 10416.1,1321.32 C 10416.1,1321.32 10416.1,1321.32 10416.1,1321.32 " />
<text x="0" y="0" stroke="none" fill="#0000ff" transform="matrix(0.05 0 0 0.05 310.614 112.126)" font-style="normal" font-weight="normal" font-size="280px" font-family="Chalkboard" >
Br</text>
<text x="0" y="0" stroke="none" fill="#0000ff" transform="matrix(0.05 0 0 0.05 325.233 107.299)" font-style="normal" font-weight="normal" font-size="210px" font-family="Chalkboard" >
-</text>
<text x="0" y="0" stroke="none" fill="#0000ff" transform="matrix(0.05 0 0 0.05 313.405 89.818)" font-style="normal" font-weight="normal" font-size="280px" font-family="Chalkboard" >
+</text>
<path stroke="#0000ff" stroke-width="32" fill="none" transform="matrix(0.05 0 0 0.05 -18 -14)" d="M 5633.24,1694.54 C 5640.95,2136.37 6005.85,2488.75 6447.68,2481.04 C 6512.88,2479.9 6577.93,2470.76 6640.92,2453.88 " />
<path stroke="none" fill="#0000ff" transform="matrix(0.05 0 0 0.05 -18 -14)" d="M 5660.39,1473.35 C 5660.39,1473.35 5693.55,1734.89 5693.55,1734.89 C 5693.55,1734.89 5661.18,1698.35 5633.24,1694.54 C 5605.3,1690.72 5565.16,1717.37 5565.16,1717.37 C 5565.16,1717.37 5660.39,1473.35 5660.39,1473.35 C 5660.39,1473.35 5660.39,1473.35 5660.39,1473.35 " />
<path stroke="#0000ff" stroke-width="1" fill="none" transform="matrix(0.05 0 0 0.05 -18 -14)" d="M 5660.39,1473.35 C 5660.39,1473.35 5693.55,1734.89 5693.55,1734.89 C 5693.55,1734.89 5661.18,1698.35 5633.24,1694.54 C 5605.3,1690.72 5565.16,1717.37 5565.16,1717.37 C 5565.16,1717.37 5660.39,1473.35 5660.39,1473.35 C 5660.39,1473.35 5660.39,1473.35 5660.39,1473.35 " />
<path stroke="#0000ff" stroke-width="32" fill="none" transform="matrix(0.05 0 0 0.05 -18 -14)" d="M 6410.1,1259.17 C 6324.28,1167.13 6179.92,1162.09 6087.89,1247.91 C 6056.84,1276.86 6034.15,1314.64 6023.16,1355.64 " />
<path stroke="none" fill="#0000ff" transform="matrix(0.05 0 0 0.05 -18 -14)" d="M 6463.58,1473.65 C 6463.58,1473.65 6340.18,1244.8 6340.18,1244.8 C 6340.18,1244.8 6383.21,1266.19 6410.1,1259.17 C 6436.99,1252.14 6464.74,1212.25 6464.74,1212.25 C 6464.74,1212.25 6463.58,1473.65 6463.58,1473.65 C 6463.58,1473.65 6463.58,1473.65 6463.58,1473.65 " />
<path stroke="#0000ff" stroke-width="1" fill="none" transform="matrix(0.05 0 0 0.05 -18 -14)" d="M 6463.58,1473.65 C 6463.58,1473.65 6340.18,1244.8 6340.18,1244.8 C 6340.18,1244.8 6383.21,1266.19 6410.1,1259.17 C 6436.99,1252.14 6464.74,1212.25 6464.74,1212.25 C 6464.74,1212.25 6463.58,1473.65 6463.58,1473.65 C 6463.58,1473.65 6463.58,1473.65 6463.58,1473.65 " />
<path stroke="#0000ff" stroke-width="32" fill="none" transform="matrix(0.05 0 0 0.05 -18 -14)" d="M 6829.68,1132.56 C 6933.87,1132.56 7018.44,1047.99 7018.44,943.8 C 7018.44,910.851 7009.63,877.955 6993.15,849.42 " />
<path stroke="none" fill="#0000ff" transform="matrix(0.05 0 0 0.05 -18 -14)" d="M 6829.68,755.04 C 6829.68,755.04 7044.47,815.197 7044.47,815.197 C 7044.47,815.197 7003.46,831.832 6993.15,849.42 C 6982.84,867.008 6988.54,910.609 6988.54,910.609 C 6988.54,910.609 6829.68,755.04 6829.68,755.04 C 6829.68,755.04 6829.68,755.04 6829.68,755.04 " />
<path stroke="#0000ff" stroke-width="1" fill="none" transform="matrix(0.05 0 0 0.05 -18 -14)" d="M 6829.68,755.04 C 6829.68,755.04 7044.47,815.197 7044.47,815.197 C 7044.47,815.197 7003.46,831.832 6993.15,849.42 C 6982.84,867.008 6988.54,910.609 6988.54,910.609 C 6988.54,910.609 6829.68,755.04 6829.68,755.04 C 6829.68,755.04 6829.68,755.04 6829.68,755.04 " />
<path stroke="none" fill="#0000ff" transform="matrix(0.05 0 0 0.05 -18 -14)" d="M 11428.4,1347.46 L 11428.5,1310.47 L 11948.2,1611.68 L 11948.2,1648.66 L 11428.4,1347.46 Z " />
<path stroke="none" fill="#0000ff" transform="matrix(0.05 0 0 0.05 -18 -14)" d="M 11948.2,1648.66 L 11948.2,1611.68 L 12452.4,1320.54 L 12467.8,1329.6 L 12467.9,1347.45 L 11948.2,1648.66 Z " />
<path stroke="none" fill="#0000ff" transform="matrix(0.05 0 0 0.05 -18 -14)" d="M 11956.2,1539.53 L 11940.2,1511.82 L 12369.8,1263.78 L 12385.8,1291.49 L 11956.2,1539.53 Z " />
<text x="0" y="0" stroke="none" fill="#0000ff" transform="matrix(0.05 0 0 0.05 626.288 72.3065)" font-style="normal" font-weight="normal" font-size="280px" font-family="Chalkboard" >
O</text>
<path stroke="none" fill="#0000ff" transform="matrix(0.05 0 0 0.05 -18 -14)" d="M 12467.9,1347.45 L 12467.8,1329.6 L 12483.2,1320.69 L 12885.4,1552.24 L 12869.4,1579.95 L 12467.9,1347.45 Z " />
<path stroke="none" fill="#0000ff" transform="matrix(0.05 0 0 0.05 -18 -14)" d="M 13111.7,1576.34 L 13095.7,1548.63 L 13506.9,1310.45 L 13506.9,1347.45 L 13111.7,1576.34 Z " />
<path stroke="none" fill="#0000ff" transform="matrix(0.05 0 0 0.05 -18 -14)" d="M 13506.9,1347.45 L 13506.9,1310.45 L 14026.6,1611.68 L 14026.6,1648.66 L 13506.9,1347.45 Z " />
<path stroke="none" fill="#0000ff" transform="matrix(0.05 0 0 0.05 -18 -14)" d="M 14026.6,1648.66 L 14026.6,1611.68 L 14538.3,1315.74 L 14554.3,1343.46 L 14026.6,1648.66 Z " />
<path stroke="none" fill="#0000ff" transform="matrix(0.05 0 0 0.05 -18 -14)" d="M 14034.6,1539.53 L 14018.6,1511.82 L 14493.3,1237.8 L 14509.3,1265.51 L 14034.6,1539.53 Z " />
<text x="0" y="0" stroke="none" fill="#0000ff" transform="matrix(0.05 0 0 0.05 600.308 27.3065)" font-style="normal" font-weight="normal" font-size="280px" font-family="Chalkboard" >
O</text>
<path stroke="none" fill="#0000ff" transform="matrix(0.05 0 0 0.05 -18 -14)" d="M 12483.2,1320.69 L 12467.8,1329.6 L 12452.4,1320.54 L 12451.8,872.534 L 12483.8,872.534 L 12483.2,1320.69 Z " />
<text x="0" y="0" stroke="none" fill="#0000ff" transform="matrix(0.05 0 0 0.05 627.016 12.3065)" font-style="normal" font-weight="normal" font-size="280px" font-family="Chalkboard" >
H</text>
<path stroke="none" fill="#0000ff" transform="matrix(0.05 0 0 0.05 -18 -14)" d="M 12592,676.339 L 12576,648.627 L 12851.5,489.587 L 12867.5,517.299 L 12592,676.339 Z " />
<text x="0" y="0" stroke="none" fill="#0000ff" transform="matrix(0.05 0 0 0.05 516.402 72.3065)" font-style="normal" font-weight="normal" font-size="280px" font-family="Chalkboard" >
Br</text>
<path stroke="none" fill="#0000ff" transform="matrix(0.05 0 0 0.05 -18 -14)" d="M 11428.5,1310.47 L 11428.4,1347.46 L 11009.2,1590.19 L 10993.2,1562.48 L 11428.5,1310.47 Z " />
<path stroke="none" fill="#0000ff" transform="matrix(0.05 0 0 0.05 -18 -14)" d="M 15731.3,1203.52 L 14912,1203.52 L 14912,1171.52 L 15731.3,1171.52 Z " />
<path stroke="none" fill="#0000ff" transform="matrix(0.05 0 0 0.05 -18 -14)" d="M 15463.8,1267.52 L 15737.5,1267.52 L 15737.5,1299.52 L 15463.8,1299.52 Z " />
<path stroke="none" fill="#0000ff" transform="matrix(0.05 0 0 0.05 -18 -14)" d="M 16010.3,1203.52 C 16010.3,1203.52 15730.3,1203.52 15730.3,1203.52 C 15730.3,1151.65 15690.3,1105.52 15690.3,1105.52 C 15690.3,1105.52 16010.3,1203.52 16010.3,1203.52 C 16010.3,1203.52 16010.3,1203.52 16010.3,1203.52 " />
<path stroke="#0000ff" stroke-width="1" fill="none" transform="matrix(0.05 0 0 0.05 -18 -14)" d="M 16010.3,1203.52 C 16010.3,1203.52 15730.3,1203.52 15730.3,1203.52 C 15730.3,1151.65 15690.3,1105.52 15690.3,1105.52 C 15690.3,1105.52 16010.3,1203.52 16010.3,1203.52 C 16010.3,1203.52 16010.3,1203.52 16010.3,1203.52 " />
<path stroke="none" fill="#0000ff" transform="matrix(0.05 0 0 0.05 -18 -14)" d="M 15184.8,1267.52 C 15184.8,1267.52 15504.8,1365.52 15504.8,1365.52 C 15504.8,1365.52 15464.8,1287.39 15464.8,1267.52 C 15464.8,1267.52 15184.8,1267.52 15184.8,1267.52 C 15184.8,1267.52 15184.8,1267.52 15184.8,1267.52 " />
<path stroke="#0000ff" stroke-width="1" fill="none" transform="matrix(0.05 0 0 0.05 -18 -14)" d="M 15184.8,1267.52 C 15184.8,1267.52 15504.8,1365.52 15504.8,1365.52 C 15504.8,1365.52 15464.8,1287.39 15464.8,1267.52 C 15464.8,1267.52 15184.8,1267.52 15184.8,1267.52 C 15184.8,1267.52 15184.8,1267.52 15184.8,1267.52 " />
<path stroke="none" fill="#0000ff" transform="matrix(0.05 0 0 0.05 -18 -14)" d="M 17005.4,1244.5 L 17005.5,1207.51 L 17525.2,1508.72 L 17525.2,1545.7 L 17005.4,1244.5 Z " />
<path stroke="none" fill="#0000ff" transform="matrix(0.05 0 0 0.05 -18 -14)" d="M 17042.6,1162.55 L 17058.6,1134.84 L 17533.2,1408.86 L 17517.2,1436.57 L 17042.6,1162.55 Z " />
<path stroke="none" fill="#0000ff" transform="matrix(0.05 0 0 0.05 -18 -14)" d="M 17525.2,1545.7 L 17525.2,1508.72 L 18044.9,1207.5 L 18044.9,1244.49 L 17525.2,1545.7 Z " />
<text x="0" y="0" stroke="none" fill="#0000ff" transform="matrix(0.05 0 0 0.05 905.138 67.1585)" font-style="normal" font-weight="normal" font-size="280px" font-family="Chalkboard" >
O</text>
<path stroke="none" fill="#0000ff" transform="matrix(0.05 0 0 0.05 -18 -14)" d="M 18044.9,1244.49 L 18044.9,1207.5 L 18462.4,1449.28 L 18446.4,1476.99 L 18044.9,1244.49 Z " />
<path stroke="none" fill="#0000ff" transform="matrix(0.05 0 0 0.05 -18 -14)" d="M 18688.7,1473.38 L 18672.7,1445.67 L 19083.9,1207.49 L 19083.9,1244.48 L 18688.7,1473.38 Z " />
<path stroke="none" fill="#0000ff" transform="matrix(0.05 0 0 0.05 -18 -14)" d="M 19083.9,1244.48 L 19083.9,1207.49 L 19603.6,1508.72 L 19603.6,1545.7 L 19083.9,1244.48 Z " />
<path stroke="none" fill="#0000ff" transform="matrix(0.05 0 0 0.05 -18 -14)" d="M 19603.6,1545.7 L 19603.6,1508.72 L 20115.3,1212.78 L 20131.3,1240.5 L 19603.6,1545.7 Z " />
<path stroke="none" fill="#0000ff" transform="matrix(0.05 0 0 0.05 -18 -14)" d="M 19611.6,1436.57 L 19595.6,1408.86 L 20070.3,1134.84 L 20086.3,1162.55 L 19611.6,1436.57 Z " />
<text x="0" y="0" stroke="none" fill="#0000ff" transform="matrix(0.05 0 0 0.05 879.158 22.1585)" font-style="normal" font-weight="normal" font-size="280px" font-family="Chalkboard" >
O</text>
<path stroke="none" fill="#0000ff" transform="matrix(0.05 0 0 0.05 -18 -14)" d="M 18015.8,1252.62 L 17983.8,1252.62 L 17983.8,769.573 L 18015.8,769.573 L 18015.8,1252.62 Z " />
<path stroke="none" fill="#0000ff" transform="matrix(0.05 0 0 0.05 -18 -14)" d="M 18105.8,1252.62 L 18073.8,1252.62 L 18073.8,769.573 L 18105.8,769.573 L 18105.8,1252.62 Z " />
<text x="0" y="0" stroke="none" fill="#0000ff" transform="matrix(0.05 0 0 0.05 795.252 67.1585)" font-style="normal" font-weight="normal" font-size="280px" font-family="Chalkboard" >
Br</text>
<path stroke="none" fill="#0000ff" transform="matrix(0.05 0 0 0.05 -18 -14)" d="M 17005.5,1207.51 L 17005.4,1244.5 L 16586.2,1487.23 L 16570.2,1459.52 L 17005.5,1207.51 Z " />
<path stroke="none" fill="#0000ff" transform="matrix(0.05 0 0 0.05 -18 -14)" d="M 18122.1,2552.4 L 18122.1,1887.6 L 18154.1,1887.6 L 18154.1,2552.4 Z " />
<path stroke="none" fill="#0000ff" transform="matrix(0.05 0 0 0.05 -18 -14)" d="M 18138.1,2831.4 C 18138.1,2831.4 18056.1,2511.4 18056.1,2511.4 C 18056.1,2511.4 18102.2,2551.4 18138.1,2551.4 C 18173.6,2551.4 18219.1,2511.4 18219.1,2511.4 C 18219.1,2511.4 18138.1,2831.4 18138.1,2831.4 C 18138.1,2831.4 18138.1,2831.4 18138.1,2831.4 " />
<path stroke="#0000ff" stroke-width="1" fill="none" transform="matrix(0.05 0 0 0.05 -18 -14)" d="M 18138.1,2831.4 C 18138.1,2831.4 18056.1,2511.4 18056.1,2511.4 C 18056.1,2511.4 18102.2,2551.4 18138.1,2551.4 C 18173.6,2551.4 18219.1,2511.4 18219.1,2511.4 C 18219.1,2511.4 18138.1,2831.4 18138.1,2831.4 C 18138.1,2831.4 18138.1,2831.4 18138.1,2831.4 " />
<text x="0" y="0" stroke="none" fill="#0000ff" transform="matrix(-0.00087262 0.0499924 -0.0499924 -0.00087262 903.955 93.4232)" font-style="normal" font-weight="normal" font-size="280px" font-family="Chalkboard" >
HBr</text>
<path stroke="none" fill="#0000ff" transform="matrix(0.05 0 0 0.05 -18 -14)" d="M 18724.9,1665.58 A 23.3333,23.3333 0 1 0 18771.6,1665.58A 23.3333,23.3333 0 1 0 18724.9,1665.58Z " />
<path stroke="none" fill="#0000ff" transform="matrix(0.05 0 0 0.05 -18 -14)" d="M 18767.2,1569.5 A 23.3333,23.3333 0 1 0 18813.9,1569.5A 23.3333,23.3333 0 1 0 18767.2,1569.5Z " />
<path stroke="#0000ff" stroke-width="32" fill="none" transform="matrix(0.05 0 0 0.05 -18 -14)" d="M 18824.5,1613.04 C 18933,1800.95 19195,1874.16 19385.2,1769.72 " />
<path stroke="none" fill="#0000ff" transform="matrix(0.05 0 0 0.05 -18 -14)" d="M 19545.2,1613.04 C 19545.2,1613.04 19408.1,1838.84 19408.1,1838.84 C 19408.1,1838.84 19405.2,1790.17 19385.2,1769.72 C 19365.1,1749.28 19316.5,1745.37 19316.5,1745.37 C 19316.5,1745.37 19545.2,1613.04 19545.2,1613.04 C 19545.2,1613.04 19545.2,1613.04 19545.2,1613.04 " />
<path stroke="#0000ff" stroke-width="1" fill="none" transform="matrix(0.05 0 0 0.05 -18 -14)" d="M 19545.2,1613.04 C 19545.2,1613.04 19408.1,1838.84 19408.1,1838.84 C 19408.1,1838.84 19405.2,1790.17 19385.2,1769.72 C 19365.1,1749.28 19316.5,1745.37 19316.5,1745.37 C 19316.5,1745.37 19545.2,1613.04 19545.2,1613.04 C 19545.2,1613.04 19545.2,1613.04 19545.2,1613.04 " />
<path stroke="#0000ff" stroke-width="32" fill="none" transform="matrix(0.05 0 0 0.05 -18 -14)" d="M 18796.4,2281.73 C 19279.2,2420.16 19783.4,2140.67 19921.8,1657.91 C 19945.2,1576.5 19957.1,1491.81 19957.1,1407.12 " />
<path stroke="none" fill="#0000ff" transform="matrix(0.05 0 0 0.05 -18 -14)" d="M 18592.3,2195.08 C 18592.3,2195.08 18851.4,2234.78 18851.4,2234.78 C 18851.4,2234.78 18807.6,2256.04 18796.4,2281.73 C 18785.3,2307.43 18799.8,2353.44 18799.8,2353.44 C 18799.8,2353.44 18592.3,2195.08 18592.3,2195.08 C 18592.3,2195.08 18592.3,2195.08 18592.3,2195.08 " />
<path stroke="#0000ff" stroke-width="1" fill="none" transform="matrix(0.05 0 0 0.05 -18 -14)" d="M 18592.3,2195.08 C 18592.3,2195.08 18851.4,2234.78 18851.4,2234.78 C 18851.4,2234.78 18807.6,2256.04 18796.4,2281.73 C 18785.3,2307.43 18799.8,2353.44 18799.8,2353.44 C 18799.8,2353.44 18592.3,2195.08 18592.3,2195.08 C 18592.3,2195.08 18592.3,2195.08 18592.3,2195.08 " />
<path stroke="none" fill="#0000ff" transform="matrix(0.05 0 0 0.05 -18 -14)" d="M 17108.4,3767.02 L 17108.4,3730.03 L 17628.1,4031.24 L 17628.1,4068.22 L 17108.4,3767.02 Z " />
<path stroke="none" fill="#0000ff" transform="matrix(0.05 0 0 0.05 -18 -14)" d="M 17145.5,3685.07 L 17161.5,3657.36 L 17636.1,3931.38 L 17620.1,3959.09 L 17145.5,3685.07 Z " />
<path stroke="none" fill="#0000ff" transform="matrix(0.05 0 0 0.05 -18 -14)" d="M 17628.1,4068.22 L 17628.1,4031.24 L 18147.9,3730.02 L 18147.9,3767.01 L 17628.1,4068.22 Z " />
<text x="0" y="0" stroke="none" fill="#0000ff" transform="matrix(0.05 0 0 0.05 910.286 193.284)" font-style="normal" font-weight="normal" font-size="280px" font-family="Chalkboard" >
O</text>
<path stroke="none" fill="#0000ff" transform="matrix(0.05 0 0 0.05 -18 -14)" d="M 18147.9,3767.01 L 18147.9,3730.02 L 18565.4,3971.8 L 18549.4,3999.51 L 18147.9,3767.01 Z " />
<text x="0" y="0" stroke="none" fill="#0000ff" transform="matrix(0.05 0 0 0.05 884.306 148.284)" font-style="normal" font-weight="normal" font-size="280px" font-family="Chalkboard" >
O</text>
<path stroke="none" fill="#0000ff" transform="matrix(0.05 0 0 0.05 -18 -14)" d="M 18118.7,3775.14 L 18086.7,3775.14 L 18086.7,3292.09 L 18118.7,3292.09 L 18118.7,3775.14 Z " />
<path stroke="none" fill="#0000ff" transform="matrix(0.05 0 0 0.05 -18 -14)" d="M 18208.7,3775.14 L 18176.7,3775.14 L 18176.7,3292.09 L 18208.7,3292.09 L 18208.7,3775.14 Z " />
<text x="0" y="0" stroke="none" fill="#0000ff" transform="matrix(0.05 0 0 0.05 800.4 193.284)" font-style="normal" font-weight="normal" font-size="280px" font-family="Chalkboard" >
Br</text>
<path stroke="none" fill="#0000ff" transform="matrix(0.05 0 0 0.05 -18 -14)" d="M 17108.4,3730.03 L 17108.4,3767.02 L 16688.7,4010 L 16672.7,3982.29 L 17108.4,3730.03 Z " />
<path stroke="none" fill="#0000ff" transform="matrix(0.05 0 0 0.05 -18 -14)" d="M 18720.5,4175.38 L 18748.2,4159.38 L 18965.9,4539.84 L 18965.9,4604.57 L 18720.5,4175.38 Z " />
<path stroke="none" fill="#0000ff" transform="matrix(0.05 0 0 0.05 -18 -14)" d="M 18965.9,4604.57 L 18965.9,4539.84 L 19240.9,4063.46 L 19297,4031.08 L 18965.9,4604.57 Z " />
<path stroke="none" fill="#0000ff" transform="matrix(0.05 0 0 0.05 -18 -14)" d="M 19297,4031.08 L 19240.9,4063.46 L 18792.7,4065.16 L 18792.7,4033.16 L 19297,4031.08 Z " />
<path stroke="#0000ff" stroke-width="26" fill="none" transform="matrix(0.05 0 0 0.05 -18 -14)" d="M 18683.7,3821.41 A 105.8,105.8 0 1 0 18895.3,3821.41A 105.8,105.8 0 1 0 18683.7,3821.41Z " />
<path stroke="none" fill="#0000ff" transform="matrix(0.05 0 0 0.05 -18 -14)" d="M 18727.2,3808.74 L 18852.5,3808.74 L 18852.5,3834.74 L 18727.2,3834.74 Z " />
<path stroke="none" fill="#0000ff" transform="matrix(0.05 0 0 0.05 -18 -14)" d="M 18802.9,3759.08 L 18802.9,3884.41 L 18776.9,3884.41 L 18776.9,3759.08 Z " />
<path stroke="none" fill="#0000ff" transform="matrix(0.05 0 0 0.05 -18 -14)" d="M 15294,3810.68 L 16078.9,3810.68 L 16078.9,3842.68 L 15294,3842.68 Z " />
<path stroke="none" fill="#0000ff" transform="matrix(0.05 0 0 0.05 -18 -14)" d="M 15015,3826.68 C 15015,3826.68 15335,3744.68 15335,3744.68 C 15335,3744.68 15295,3790.81 15295,3826.68 C 15295,3862.12 15335,3907.68 15335,3907.68 C 15335,3907.68 15015,3826.68 15015,3826.68 C 15015,3826.68 15015,3826.68 15015,3826.68 " />
<path stroke="#0000ff" stroke-width="1" fill="none" transform="matrix(0.05 0 0 0.05 -18 -14)" d="M 15015,3826.68 C 15015,3826.68 15335,3744.68 15335,3744.68 C 15335,3744.68 15295,3790.81 15295,3826.68 C 15295,3862.12 15335,3907.68 15335,3907.68 C 15335,3907.68 15015,3826.68 15015,3826.68 C 15015,3826.68 15015,3826.68 15015,3826.68 " />
<text x="0" y="0" stroke="none" fill="#0000ff" transform="matrix(0.05 0 0 0.05 754.564 173.044)" font-style="normal" font-weight="normal" font-size="280px" font-family="Chalkboard" >
Br</text>
<path stroke="#0000ff" stroke-width="26" fill="none" transform="matrix(0.05 0 0 0.05 -18 -14)" d="M 15723.5,3454.69 A 105.8,105.8 0 1 0 15935.1,3454.69A 105.8,105.8 0 1 0 15723.5,3454.69Z " />
<path stroke="none" fill="#0000ff" transform="matrix(0.05 0 0 0.05 -18 -14)" d="M 15766.9,3442.03 L 15892.3,3442.03 L 15892.3,3468.03 L 15766.9,3468.03 Z " />
<path stroke="#0000ff" stroke-width="32" fill="none" transform="matrix(0.05 0 0 0.05 -18 -14)" d="M 15547,3826.68 C 16237.4,4760.91 17562.8,5145.91 18646.3,4726.92 " />
<path stroke="none" fill="#0000ff" transform="matrix(0.05 0 0 0.05 -18 -14)" d="M 18851.6,4637.4 C 18851.6,4637.4 18643.5,4799.37 18643.5,4799.37 C 18643.5,4799.37 18657.9,4753.02 18646.3,4726.92 C 18634.7,4700.81 18590.4,4680.04 18590.4,4680.04 C 18590.4,4680.04 18851.6,4637.4 18851.6,4637.4 C 18851.6,4637.4 18851.6,4637.4 18851.6,4637.4 " />
<path stroke="#0000ff" stroke-width="1" fill="none" transform="matrix(0.05 0 0 0.05 -18 -14)" d="M 18851.6,4637.4 C 18851.6,4637.4 18643.5,4799.37 18643.5,4799.37 C 18643.5,4799.37 18657.9,4753.02 18646.3,4726.92 C 18634.7,4700.81 18590.4,4680.04 18590.4,4680.04 C 18590.4,4680.04 18851.6,4637.4 18851.6,4637.4 C 18851.6,4637.4 18851.6,4637.4 18851.6,4637.4 " />
<path stroke="none" fill="#0000ff" transform="matrix(0.05 0 0 0.05 -18 -14)" d="M 11497.1,3732.7 L 11497.1,3695.71 L 12016.8,3996.92 L 12016.8,4033.9 L 11497.1,3732.7 Z " />
<path stroke="none" fill="#0000ff" transform="matrix(0.05 0 0 0.05 -18 -14)" d="M 12016.8,4033.9 L 12016.8,3996.92 L 12521.1,3705.78 L 12536.4,3714.84 L 12536.6,3732.69 L 12016.8,4033.9 Z " />
<path stroke="none" fill="#0000ff" transform="matrix(0.05 0 0 0.05 -18 -14)" d="M 12024.8,3924.77 L 12008.8,3897.06 L 12438.4,3649.02 L 12454.4,3676.73 L 12024.8,3924.77 Z " />
<text x="0" y="0" stroke="none" fill="#0000ff" transform="matrix(0.05 0 0 0.05 629.72 191.569)" font-style="normal" font-weight="normal" font-size="280px" font-family="Chalkboard" >
O</text>
<path stroke="none" fill="#0000ff" transform="matrix(0.05 0 0 0.05 -18 -14)" d="M 12536.6,3732.69 L 12536.4,3714.84 L 12551.8,3705.93 L 12954.5,3937.73 L 12938.5,3965.44 L 12536.6,3732.69 Z " />
<path stroke="none" fill="#0000ff" transform="matrix(0.05 0 0 0.05 -18 -14)" d="M 13179.9,3961.83 L 13163.9,3934.12 L 13575.5,3695.69 L 13575.5,3732.69 L 13179.9,3961.83 Z " />
<path stroke="none" fill="#0000ff" transform="matrix(0.05 0 0 0.05 -18 -14)" d="M 13575.5,3732.69 L 13575.5,3695.69 L 14095.3,3996.92 L 14095.3,4014.84 L 14079.9,4023.9 L 13575.5,3732.69 Z " />
<path stroke="none" fill="#0000ff" transform="matrix(0.05 0 0 0.05 -18 -14)" d="M 14110.6,4023.9 L 14095.3,4014.84 L 14095.3,3996.92 L 14606.9,3700.98 L 14622.9,3728.7 L 14110.6,4023.9 Z " />
<text x="0" y="0" stroke="none" fill="#0000ff" transform="matrix(0.05 0 0 0.05 603.74 146.569)" font-style="normal" font-weight="normal" font-size="280px" font-family="Chalkboard" >
O</text>
<path stroke="none" fill="#0000ff" transform="matrix(0.05 0 0 0.05 -18 -14)" d="M 12551.8,3705.93 L 12536.4,3714.84 L 12521.1,3705.78 L 12520.4,3258.77 L 12552.4,3258.77 L 12551.8,3705.93 Z " />
<text x="0" y="0" stroke="none" fill="#0000ff" transform="matrix(0.05 0 0 0.05 630.448 131.569)" font-style="normal" font-weight="normal" font-size="280px" font-family="Chalkboard" >
H</text>
<path stroke="none" fill="#0000ff" transform="matrix(0.05 0 0 0.05 -18 -14)" d="M 12660.2,3061.83 L 12644.2,3034.12 L 12919.4,2875.26 L 12935.4,2902.97 L 12660.2,3061.83 Z " />
<text x="0" y="0" stroke="none" fill="#0000ff" transform="matrix(0.05 0 0 0.05 519.834 191.569)" font-style="normal" font-weight="normal" font-size="280px" font-family="Chalkboard" >
Br</text>
<path stroke="none" fill="#0000ff" transform="matrix(0.05 0 0 0.05 -18 -14)" d="M 11497.1,3695.71 L 11497.1,3732.7 L 11077.8,3975.43 L 11061.8,3947.72 L 11497.1,3695.71 Z " />
<text x="0" y="0" stroke="none" fill="#0000ff" transform="matrix(0.05 0 0 0.05 682.773 221.569)" font-style="normal" font-weight="normal" font-size="280px" font-family="Chalkboard" >
Br</text>
<path stroke="none" fill="#0000ff" transform="matrix(0.05 0 0 0.05 -18 -14)" d="M 14079.9,4023.9 L 14095.3,4014.84 L 14110.6,4023.9 L 14111.3,4477.31 L 14079.3,4477.31 L 14079.9,4023.9 Z " />
</svg>
