<?xml version="1.0" standalone="no" ?>
<!DOCTYPE svg PUBLIC "-//W3C//DTD SVG 1.1//EN" "http://www.w3.org/Graphics/SVG/1.1/DTD/svg11.dtd">
<svg width="900px" height="712px" viewBox="0 0 900 712" style="background-color: #ffffff00" xmlns="http://www.w3.org/2000/svg" xmlns:xlink="http://www.w3.org/1999/xlink" version="1.1" >
<text x="0" y="0" stroke="none" fill="#0000ff" transform="matrix(0.05 0 0 0.05 376.917 326.068)" font-style="normal" font-weight="normal" font-size="240px" font-family="Arial" >
R</text>
<text x="0" y="0" stroke="none" fill="#0000ff" transform="matrix(0.05 0 0 0.05 407.248 326.068)" font-style="normal" font-weight="normal" font-size="240px" font-family="Arial" >
X</text>
<path stroke="none" fill="#0000ff" transform="matrix(0.05 0 0 0.05 -50 -41)" d="M 8748.21,7271.4 L 8748.21,7239.4 L 9104.02,7239.4 L 9104.02,7271.4 L 8748.21,7271.4 Z " />
<path stroke="none" fill="#0000ff" transform="matrix(0.05 0 0 0.05 -50 -41)" d="M 10155.6,7234 L 11640.6,7234 L 11640.6,7266 L 10155.6,7266 Z " />
<path stroke="none" fill="#0000ff" transform="matrix(0.05 0 0 0.05 -50 -41)" d="M 11623.8,11432.8 L 11624.8,1183.2 L 11656.8,1183.2 L 11655.8,11432.8 Z " />
<text x="0" y="0" stroke="none" fill="#000000" transform="matrix(0.05 0 0 0.05 466.78 315.5)" font-style="normal" font-weight="normal" font-size="240px" font-family="Times New Roman" >
Substitution</text>
<path stroke="none" fill="#0000ff" transform="matrix(0.05 0 0 0.05 -50 -41)" d="M 13972.8,1199.2 L 11640.6,1199.2 L 11640.6,1167.2 L 13972.8,1167.2 Z " />
<path stroke="none" fill="#0000ff" transform="matrix(0.05 0 0 0.05 -50 -41)" d="M 14251.8,1183.2 C 14251.8,1183.2 13931.8,1264.2 13931.8,1264.2 C 13931.8,1264.2 13971.8,1218.64 13971.8,1183.2 C 13971.8,1147.32 13931.8,1101.2 13931.8,1101.2 C 13931.8,1101.2 14251.8,1183.2 14251.8,1183.2 C 14251.8,1183.2 14251.8,1183.2 14251.8,1183.2 " />
<path stroke="#0000ff" stroke-width="1" fill="none" transform="matrix(0.05 0 0 0.05 -50 -41)" d="M 14251.8,1183.2 C 14251.8,1183.2 13931.8,1264.2 13931.8,1264.2 C 13931.8,1264.2 13971.8,1218.64 13971.8,1183.2 C 13971.8,1147.32 13931.8,1101.2 13931.8,1101.2 C 13931.8,1101.2 14251.8,1183.2 14251.8,1183.2 C 14251.8,1183.2 14251.8,1183.2 14251.8,1183.2 " />
<text x="0" y="0" stroke="none" fill="#0000ff" transform="matrix(0.05 0 0 0.05 539.54 14.51)" font-style="normal" font-weight="normal" font-size="240px" font-family="Times New Roman" >
 </text>
<text x="0" y="0" stroke="none" fill="#0000ff" transform="matrix(0.05 0 0 0.05 542.54 14.51)" font-style="normal" font-weight="normal" font-size="240px" font-family="Times New Roman" >
 </text>
<text x="0" y="0" stroke="none" fill="#0000ff" transform="matrix(0.05 0 0 0.05 545.54 14.51)" font-style="normal" font-weight="normal" font-size="240px" font-family="Times New Roman" >
 </text>
<text x="0" y="0" stroke="none" fill="#0000ff" transform="matrix(0.05 0 0 0.05 548.54 14.51)" font-style="normal" font-weight="normal" font-size="240px" font-family="Times New Roman" >
 </text>
<text x="0" y="0" stroke="none" fill="#0000ff" transform="matrix(0.05 0 0 0.05 551.54 14.51)" font-style="normal" font-weight="normal" font-size="240px" font-family="Times New Roman" >
OH</text>
<text x="0" y="0" stroke="none" fill="#0000ff" transform="matrix(0.05 0 0 0.05 568.872 10.5373)" font-style="normal" font-weight="normal" font-size="180px" font-family="Times New Roman" >
-</text>
<text x="0" y="0" stroke="none" fill="#0000ff" transform="matrix(0.05 0 0 0.05 571.869 14.51)" font-style="normal" font-weight="normal" font-size="240px" font-family="Times New Roman" >
 </text>
<text x="0" y="0" stroke="none" fill="#0000ff" transform="matrix(0.05 0 0 0.05 574.869 14.51)" font-style="normal" font-weight="normal" font-size="240px" font-family="Times New Roman" >
(aq)</text>
<text x="0" y="0" stroke="none" fill="#0000ff" transform="matrix(0.05 0 0 0.05 539.54 30.5763)" font-style="normal" font-weight="normal" font-size="240px" font-family="Times New Roman" >
or </text>
<text x="0" y="0" stroke="none" fill="#0000ff" transform="matrix(0.05 0 0 0.05 552.536 30.5763)" font-style="normal" font-weight="normal" font-size="240px" font-family="Times New Roman" >
Moist </text>
<text x="0" y="0" stroke="none" fill="#0000ff" transform="matrix(0.05 0 0 0.05 582.882 30.5763)" font-style="normal" font-weight="normal" font-size="240px" font-family="Times New Roman" >
Ag</text>
<text x="0" y="0" stroke="none" fill="#0000ff" transform="matrix(0.05 0 0 0.05 597.548 33.172)" font-style="normal" font-weight="normal" font-size="180px" font-family="Times New Roman" >
2</text>
<text x="0" y="0" stroke="none" fill="#0000ff" transform="matrix(0.05 0 0 0.05 602.048 30.5763)" font-style="normal" font-weight="normal" font-size="240px" font-family="Times New Roman" >
O </text>
<text x="0" y="0" stroke="none" fill="#0000ff" transform="matrix(0.05 0 0 0.05 613.714 30.5763)" font-style="normal" font-weight="normal" font-size="240px" font-family="Times New Roman" >
=&gt; </text>
<text x="0" y="0" stroke="none" fill="#0000ff" transform="matrix(0.05 0 0 0.05 629.587 30.5763)" font-style="normal" font-weight="normal" font-size="240px" font-family="Times New Roman" >
AgOH</text>
<path stroke="none" fill="#0000ff" transform="matrix(0.05 0 0 0.05 -50 -41)" d="M 14046.6,3526.2 L 11655.6,3526.2 L 11655.6,3494.2 L 14046.6,3494.2 Z " />
<path stroke="none" fill="#0000ff" transform="matrix(0.05 0 0 0.05 -50 -41)" d="M 14325.6,3510.2 C 14325.6,3510.2 14005.6,3591.2 14005.6,3591.2 C 14005.6,3591.2 14045.6,3545.64 14045.6,3510.2 C 14045.6,3474.33 14005.6,3428.2 14005.6,3428.2 C 14005.6,3428.2 14325.6,3510.2 14325.6,3510.2 C 14325.6,3510.2 14325.6,3510.2 14325.6,3510.2 " />
<path stroke="#0000ff" stroke-width="1" fill="none" transform="matrix(0.05 0 0 0.05 -50 -41)" d="M 14325.6,3510.2 C 14325.6,3510.2 14005.6,3591.2 14005.6,3591.2 C 14005.6,3591.2 14045.6,3545.64 14045.6,3510.2 C 14045.6,3474.33 14005.6,3428.2 14005.6,3428.2 C 14005.6,3428.2 14325.6,3510.2 14325.6,3510.2 C 14325.6,3510.2 14325.6,3510.2 14325.6,3510.2 " />
<text x="0" y="0" stroke="none" fill="#0000ff" transform="matrix(0.05 0 0 0.05 572.698 131.477)" font-style="normal" font-weight="normal" font-size="288px" font-family="Times New Roman" >
RS</text>
<text x="0" y="0" stroke="none" fill="#0000ff" transform="matrix(0.05 0 0 0.05 590.311 126.71)" font-style="normal" font-weight="normal" font-size="216px" font-family="Times New Roman" >
-</text>
<text x="0" y="0" stroke="none" fill="#0000ff" transform="matrix(0.05 0 0 0.05 593.907 131.477)" font-style="normal" font-weight="normal" font-size="288px" font-family="Times New Roman" >
Na</text>
<text x="0" y="0" stroke="none" fill="#0000ff" transform="matrix(0.05 0 0 0.05 610.698 126.71)" font-style="normal" font-weight="normal" font-size="216px" font-family="Times New Roman" >
+</text>
<path stroke="none" fill="#0000ff" transform="matrix(0.05 0 0 0.05 -50 -41)" d="M 14031.6,4316.2 L 11640.6,4316.2 L 11640.6,4284.2 L 14031.6,4284.2 Z " />
<path stroke="none" fill="#0000ff" transform="matrix(0.05 0 0 0.05 -50 -41)" d="M 14310.6,4300.2 C 14310.6,4300.2 13990.6,4381.2 13990.6,4381.2 C 13990.6,4381.2 14030.6,4335.64 14030.6,4300.2 C 14030.6,4264.33 13990.6,4218.2 13990.6,4218.2 C 13990.6,4218.2 14310.6,4300.2 14310.6,4300.2 C 14310.6,4300.2 14310.6,4300.2 14310.6,4300.2 " />
<path stroke="#0000ff" stroke-width="1" fill="none" transform="matrix(0.05 0 0 0.05 -50 -41)" d="M 14310.6,4300.2 C 14310.6,4300.2 13990.6,4381.2 13990.6,4381.2 C 13990.6,4381.2 14030.6,4335.64 14030.6,4300.2 C 14030.6,4264.33 13990.6,4218.2 13990.6,4218.2 C 13990.6,4218.2 14310.6,4300.2 14310.6,4300.2 C 14310.6,4300.2 14310.6,4300.2 14310.6,4300.2 " />
<text x="0" y="0" stroke="none" fill="#0000ff" transform="matrix(0.05 0 0 0.05 682.667 23.5878)" font-style="normal" font-weight="normal" font-size="240px" font-family="Arial" >
R</text>
<text x="0" y="0" stroke="none" fill="#0000ff" transform="matrix(0.05 0 0 0.05 711.583 23.5878)" font-style="normal" font-weight="normal" font-size="240px" font-family="Arial" >
OH</text>
<path stroke="none" fill="#0000ff" transform="matrix(0.05 0 0 0.05 -50 -41)" d="M 14863.2,1221.8 L 14863.2,1189.8 L 15202.3,1189.8 L 15202.3,1221.8 L 14863.2,1221.8 Z " />
<text x="0" y="0" stroke="none" fill="#0000ff" transform="matrix(0.05 0 0 0.05 682.667 139.328)" font-style="normal" font-weight="normal" font-size="240px" font-family="Arial" >
R</text>
<text x="0" y="0" stroke="none" fill="#0000ff" transform="matrix(0.05 0 0 0.05 712.996 139.797)" font-style="normal" font-weight="normal" font-size="288px" font-family="Times New Roman" >
SR&apos;</text>
<path stroke="none" fill="#0000ff" transform="matrix(0.05 0 0 0.05 -50 -41)" d="M 14863.2,3536.6 L 14863.2,3504.6 L 15236.9,3504.6 L 15236.9,3536.6 L 14863.2,3536.6 Z " />
<text x="0" y="0" stroke="none" fill="#0000ff" transform="matrix(0.05 0 0 0.05 681.917 179.588)" font-style="normal" font-weight="normal" font-size="240px" font-family="Arial" >
R</text>
<text x="0" y="0" stroke="none" fill="#0000ff" transform="matrix(0.05 0 0 0.05 711.583 179.588)" font-style="normal" font-weight="normal" font-size="240px" font-family="Arial" >
OCOR&apos;</text>
<path stroke="none" fill="#0000ff" transform="matrix(0.05 0 0 0.05 -50 -41)" d="M 14848.2,4341.8 L 14848.2,4309.8 L 15202.3,4309.8 L 15202.3,4341.8 L 14848.2,4341.8 Z " />
<text x="0" y="0" stroke="none" fill="#0000ff" transform="matrix(0.05 0 0 0.05 572.53 168.01)" font-style="normal" font-weight="normal" font-size="240px" font-family="Times New Roman" >
R&apos;COO</text>
<text x="0" y="0" stroke="none" fill="#0000ff" transform="matrix(0.05 0 0 0.05 608.032 164.037)" font-style="normal" font-weight="normal" font-size="180px" font-family="Times New Roman" >
-</text>
<text x="0" y="0" stroke="none" fill="#0000ff" transform="matrix(0.05 0 0 0.05 611.029 168.01)" font-style="normal" font-weight="normal" font-size="240px" font-family="Times New Roman" >
Ag</text>
<text x="0" y="0" stroke="none" fill="#0000ff" transform="matrix(0.05 0 0 0.05 625.695 164.037)" font-style="normal" font-weight="normal" font-size="180px" font-family="Times New Roman" >
+</text>
<path stroke="none" fill="#0000ff" transform="matrix(0.05 0 0 0.05 -50 -41)" d="M 14031.6,5141.2 L 11640.6,5141.2 L 11640.6,5109.2 L 14031.6,5109.2 Z " />
<path stroke="none" fill="#0000ff" transform="matrix(0.05 0 0 0.05 -50 -41)" d="M 14310.6,5125.2 C 14310.6,5125.2 13990.6,5206.2 13990.6,5206.2 C 13990.6,5206.2 14030.6,5160.64 14030.6,5125.2 C 14030.6,5089.33 13990.6,5043.2 13990.6,5043.2 C 13990.6,5043.2 14310.6,5125.2 14310.6,5125.2 C 14310.6,5125.2 14310.6,5125.2 14310.6,5125.2 " />
<path stroke="#0000ff" stroke-width="1" fill="none" transform="matrix(0.05 0 0 0.05 -50 -41)" d="M 14310.6,5125.2 C 14310.6,5125.2 13990.6,5206.2 13990.6,5206.2 C 13990.6,5206.2 14030.6,5160.64 14030.6,5125.2 C 14030.6,5089.33 13990.6,5043.2 13990.6,5043.2 C 13990.6,5043.2 14310.6,5125.2 14310.6,5125.2 C 14310.6,5125.2 14310.6,5125.2 14310.6,5125.2 " />
<text x="0" y="0" stroke="none" fill="#0000ff" transform="matrix(0.05 0 0 0.05 681.917 220.838)" font-style="normal" font-weight="normal" font-size="240px" font-family="Arial" >
R</text>
<text x="0" y="0" stroke="none" fill="#0000ff" transform="matrix(0.05 0 0 0.05 711.917 220.838)" font-style="normal" font-weight="normal" font-size="240px" font-family="Arial" >
CN</text>
<path stroke="none" fill="#0000ff" transform="matrix(0.05 0 0 0.05 -50 -41)" d="M 14848.2,5166.8 L 14848.2,5134.8 L 15209.3,5134.8 L 15209.3,5166.8 L 14848.2,5166.8 Z " />
<text x="0" y="0" stroke="none" fill="#0000ff" transform="matrix(0.05 0 0 0.05 571.74 209.977)" font-style="normal" font-weight="normal" font-size="288px" font-family="Times New Roman" >
KCN</text>
<path stroke="none" fill="#0000ff" transform="matrix(0.05 0 0 0.05 -50 -41)" d="M 14031.6,5966.2 L 11640.6,5966.2 L 11640.6,5934.2 L 14031.6,5934.2 Z " />
<path stroke="none" fill="#0000ff" transform="matrix(0.05 0 0 0.05 -50 -41)" d="M 14310.6,5950.2 C 14310.6,5950.2 13990.6,6031.2 13990.6,6031.2 C 13990.6,6031.2 14030.6,5985.64 14030.6,5950.2 C 14030.6,5914.33 13990.6,5868.2 13990.6,5868.2 C 13990.6,5868.2 14310.6,5950.2 14310.6,5950.2 C 14310.6,5950.2 14310.6,5950.2 14310.6,5950.2 " />
<path stroke="#0000ff" stroke-width="1" fill="none" transform="matrix(0.05 0 0 0.05 -50 -41)" d="M 14310.6,5950.2 C 14310.6,5950.2 13990.6,6031.2 13990.6,6031.2 C 13990.6,6031.2 14030.6,5985.64 14030.6,5950.2 C 14030.6,5914.33 13990.6,5868.2 13990.6,5868.2 C 13990.6,5868.2 14310.6,5950.2 14310.6,5950.2 C 14310.6,5950.2 14310.6,5950.2 14310.6,5950.2 " />
<text x="0" y="0" stroke="none" fill="#0000ff" transform="matrix(0.05 0 0 0.05 681.917 262.088)" font-style="normal" font-weight="normal" font-size="240px" font-family="Arial" >
R</text>
<text x="0" y="0" stroke="none" fill="#0000ff" transform="matrix(0.05 0 0 0.05 711.05 262.557)" font-style="normal" font-weight="normal" font-size="288px" font-family="Times New Roman" >
NC</text>
<path stroke="none" fill="#0000ff" transform="matrix(0.05 0 0 0.05 -50 -41)" d="M 14848.2,5991.8 L 14848.2,5959.8 L 15176.2,5959.8 L 15176.2,5991.8 L 14848.2,5991.8 Z " />
<text x="0" y="0" stroke="none" fill="#0000ff" transform="matrix(0.05 0 0 0.05 571.74 251.227)" font-style="normal" font-weight="normal" font-size="288px" font-family="Times New Roman" >
AgCN</text>
<path stroke="none" fill="#0000ff" transform="matrix(0.05 0 0 0.05 -50 -41)" d="M 14031.6,6731.2 L 11640.6,6731.2 L 11640.6,6699.2 L 14031.6,6699.2 Z " />
<path stroke="none" fill="#0000ff" transform="matrix(0.05 0 0 0.05 -50 -41)" d="M 14310.6,6715.2 C 14310.6,6715.2 13990.6,6796.2 13990.6,6796.2 C 13990.6,6796.2 14030.6,6750.64 14030.6,6715.2 C 14030.6,6679.33 13990.6,6633.2 13990.6,6633.2 C 13990.6,6633.2 14310.6,6715.2 14310.6,6715.2 C 14310.6,6715.2 14310.6,6715.2 14310.6,6715.2 " />
<path stroke="#0000ff" stroke-width="1" fill="none" transform="matrix(0.05 0 0 0.05 -50 -41)" d="M 14310.6,6715.2 C 14310.6,6715.2 13990.6,6796.2 13990.6,6796.2 C 13990.6,6796.2 14030.6,6750.64 14030.6,6715.2 C 14030.6,6679.33 13990.6,6633.2 13990.6,6633.2 C 13990.6,6633.2 14310.6,6715.2 14310.6,6715.2 C 14310.6,6715.2 14310.6,6715.2 14310.6,6715.2 " />
<text x="0" y="0" stroke="none" fill="#0000ff" transform="matrix(0.05 0 0 0.05 681.917 300.338)" font-style="normal" font-weight="normal" font-size="240px" font-family="Arial" >
R</text>
<text x="0" y="0" stroke="none" fill="#0000ff" transform="matrix(0.05 0 0 0.05 711.05 300.807)" font-style="normal" font-weight="normal" font-size="288px" font-family="Times New Roman" >
ONO</text>
<path stroke="none" fill="#0000ff" transform="matrix(0.05 0 0 0.05 -50 -41)" d="M 14848.2,6756.8 L 14848.2,6724.8 L 15190.1,6724.8 L 15190.1,6756.8 L 14848.2,6756.8 Z " />
<text x="0" y="0" stroke="none" fill="#0000ff" transform="matrix(0.05 0 0 0.05 571.74 289.477)" font-style="normal" font-weight="normal" font-size="288px" font-family="Times New Roman" >
KNO</text>
<text x="0" y="0" stroke="none" fill="#0000ff" transform="matrix(0.05 0 0 0.05 602.938 292.592)" font-style="normal" font-weight="normal" font-size="216px" font-family="Times New Roman" >
2</text>
<path stroke="none" fill="#0000ff" transform="matrix(0.05 0 0 0.05 -50 -41)" d="M 14031.6,7556.2 L 11640.6,7556.2 L 11640.6,7524.2 L 14031.6,7524.2 Z " />
<path stroke="none" fill="#0000ff" transform="matrix(0.05 0 0 0.05 -50 -41)" d="M 14310.6,7540.2 C 14310.6,7540.2 13990.6,7621.2 13990.6,7621.2 C 13990.6,7621.2 14030.6,7575.64 14030.6,7540.2 C 14030.6,7504.33 13990.6,7458.2 13990.6,7458.2 C 13990.6,7458.2 14310.6,7540.2 14310.6,7540.2 C 14310.6,7540.2 14310.6,7540.2 14310.6,7540.2 " />
<path stroke="#0000ff" stroke-width="1" fill="none" transform="matrix(0.05 0 0 0.05 -50 -41)" d="M 14310.6,7540.2 C 14310.6,7540.2 13990.6,7621.2 13990.6,7621.2 C 13990.6,7621.2 14030.6,7575.64 14030.6,7540.2 C 14030.6,7504.33 13990.6,7458.2 13990.6,7458.2 C 13990.6,7458.2 14310.6,7540.2 14310.6,7540.2 C 14310.6,7540.2 14310.6,7540.2 14310.6,7540.2 " />
<text x="0" y="0" stroke="none" fill="#0000ff" transform="matrix(0.05 0 0 0.05 681.917 341.588)" font-style="normal" font-weight="normal" font-size="240px" font-family="Arial" >
R</text>
<text x="0" y="0" stroke="none" fill="#0000ff" transform="matrix(0.05 0 0 0.05 711.05 342.057)" font-style="normal" font-weight="normal" font-size="288px" font-family="Times New Roman" >
NO</text>
<text x="0" y="0" stroke="none" fill="#0000ff" transform="matrix(0.05 0 0 0.05 731.849 345.172)" font-style="normal" font-weight="normal" font-size="216px" font-family="Times New Roman" >
2</text>
<path stroke="none" fill="#0000ff" transform="matrix(0.05 0 0 0.05 -50 -41)" d="M 14848.2,7581.8 L 14848.2,7549.8 L 15176.2,7549.8 L 15176.2,7581.8 L 14848.2,7581.8 Z " />
<text x="0" y="0" stroke="none" fill="#0000ff" transform="matrix(0.05 0 0 0.05 571.74 330.727)" font-style="normal" font-weight="normal" font-size="288px" font-family="Times New Roman" >
AgNO</text>
<text x="0" y="0" stroke="none" fill="#0000ff" transform="matrix(0.05 0 0 0.05 610.138 333.842)" font-style="normal" font-weight="normal" font-size="216px" font-family="Times New Roman" >
2</text>
<path stroke="none" fill="#0000ff" transform="matrix(0.05 0 0 0.05 -50 -41)" d="M 14046.6,2046.2 L 11655.6,2046.2 L 11655.6,2014.2 L 14046.6,2014.2 Z " />
<path stroke="none" fill="#0000ff" transform="matrix(0.05 0 0 0.05 -50 -41)" d="M 14325.6,2030.2 C 14325.6,2030.2 14005.6,2111.2 14005.6,2111.2 C 14005.6,2111.2 14045.6,2065.64 14045.6,2030.2 C 14045.6,1994.33 14005.6,1948.2 14005.6,1948.2 C 14005.6,1948.2 14325.6,2030.2 14325.6,2030.2 C 14325.6,2030.2 14325.6,2030.2 14325.6,2030.2 " />
<path stroke="#0000ff" stroke-width="1" fill="none" transform="matrix(0.05 0 0 0.05 -50 -41)" d="M 14325.6,2030.2 C 14325.6,2030.2 14005.6,2111.2 14005.6,2111.2 C 14005.6,2111.2 14045.6,2065.64 14045.6,2030.2 C 14045.6,1994.33 14005.6,1948.2 14005.6,1948.2 C 14005.6,1948.2 14325.6,2030.2 14325.6,2030.2 C 14325.6,2030.2 14325.6,2030.2 14325.6,2030.2 " />
<text x="0" y="0" stroke="none" fill="#0000ff" transform="matrix(0.05 0 0 0.05 575.53 55.26)" font-style="normal" font-weight="normal" font-size="240px" font-family="Times New Roman" >
SH</text>
<text x="0" y="0" stroke="none" fill="#0000ff" transform="matrix(0.05 0 0 0.05 590.87 51.2873)" font-style="normal" font-weight="normal" font-size="180px" font-family="Times New Roman" >
-</text>
<text x="0" y="0" stroke="none" fill="#0000ff" transform="matrix(0.05 0 0 0.05 593.867 55.26)" font-style="normal" font-weight="normal" font-size="240px" font-family="Times New Roman" >
 </text>
<text x="0" y="0" stroke="none" fill="#0000ff" transform="matrix(0.05 0 0 0.05 596.867 55.26)" font-style="normal" font-weight="normal" font-size="240px" font-family="Times New Roman" >
(aq)</text>
<text x="0" y="0" stroke="none" fill="#0000ff" transform="matrix(0.05 0 0 0.05 682.667 66.0779)" font-style="normal" font-weight="normal" font-size="240px" font-family="Arial" >
R</text>
<text x="0" y="0" stroke="none" fill="#0000ff" transform="matrix(0.05 0 0 0.05 712.246 66.5472)" font-style="normal" font-weight="normal" font-size="288px" font-family="Times New Roman" >
SH</text>
<path stroke="none" fill="#0000ff" transform="matrix(0.05 0 0 0.05 -50 -41)" d="M 14863.2,2071.6 L 14863.2,2039.6 L 15221.9,2039.6 L 15221.9,2071.6 L 14863.2,2071.6 Z " />
<path stroke="none" fill="#0000ff" transform="matrix(0.05 0 0 0.05 -50 -41)" d="M 14046.6,2716.2 L 11655.6,2716.2 L 11655.6,2684.2 L 14046.6,2684.2 Z " />
<path stroke="none" fill="#0000ff" transform="matrix(0.05 0 0 0.05 -50 -41)" d="M 14325.6,2700.2 C 14325.6,2700.2 14005.6,2781.2 14005.6,2781.2 C 14005.6,2781.2 14045.6,2735.64 14045.6,2700.2 C 14045.6,2664.33 14005.6,2618.2 14005.6,2618.2 C 14005.6,2618.2 14325.6,2700.2 14325.6,2700.2 C 14325.6,2700.2 14325.6,2700.2 14325.6,2700.2 " />
<path stroke="#0000ff" stroke-width="1" fill="none" transform="matrix(0.05 0 0 0.05 -50 -41)" d="M 14325.6,2700.2 C 14325.6,2700.2 14005.6,2781.2 14005.6,2781.2 C 14005.6,2781.2 14045.6,2735.64 14045.6,2700.2 C 14045.6,2664.33 14005.6,2618.2 14005.6,2618.2 C 14005.6,2618.2 14325.6,2700.2 14325.6,2700.2 C 14325.6,2700.2 14325.6,2700.2 14325.6,2700.2 " />
<text x="0" y="0" stroke="none" fill="#0000ff" transform="matrix(0.05 0 0 0.05 682.667 98.8378)" font-style="normal" font-weight="normal" font-size="240px" font-family="Arial" >
R</text>
<text x="0" y="0" stroke="none" fill="#0000ff" transform="matrix(0.05 0 0 0.05 712.333 98.8378)" font-style="normal" font-weight="normal" font-size="240px" font-family="Arial" >
OR&apos;</text>
<path stroke="none" fill="#0000ff" transform="matrix(0.05 0 0 0.05 -50 -41)" d="M 14863.2,2726.8 L 14863.2,2694.8 L 15217.3,2694.8 L 15217.3,2726.8 L 14863.2,2726.8 Z " />
<path stroke="none" fill="#0000ff" transform="matrix(0.05 0 0 0.05 -50 -41)" d="M 14031.6,8351.2 L 11640.6,8351.2 L 11640.6,8319.2 L 14031.6,8319.2 Z " />
<path stroke="none" fill="#0000ff" transform="matrix(0.05 0 0 0.05 -50 -41)" d="M 14310.6,8335.2 C 14310.6,8335.2 13990.6,8416.2 13990.6,8416.2 C 13990.6,8416.2 14030.6,8370.64 14030.6,8335.2 C 14030.6,8299.33 13990.6,8253.2 13990.6,8253.2 C 13990.6,8253.2 14310.6,8335.2 14310.6,8335.2 C 14310.6,8335.2 14310.6,8335.2 14310.6,8335.2 " />
<path stroke="#0000ff" stroke-width="1" fill="none" transform="matrix(0.05 0 0 0.05 -50 -41)" d="M 14310.6,8335.2 C 14310.6,8335.2 13990.6,8416.2 13990.6,8416.2 C 13990.6,8416.2 14030.6,8370.64 14030.6,8335.2 C 14030.6,8299.33 13990.6,8253.2 13990.6,8253.2 C 13990.6,8253.2 14310.6,8335.2 14310.6,8335.2 C 14310.6,8335.2 14310.6,8335.2 14310.6,8335.2 " />
<text x="0" y="0" stroke="none" fill="#0000ff" transform="matrix(0.05 0 0 0.05 681.917 380.338)" font-style="normal" font-weight="normal" font-size="240px" font-family="Arial" >
R</text>
<text x="0" y="0" stroke="none" fill="#0000ff" transform="matrix(0.05 0 0 0.05 711.448 380.807)" font-style="normal" font-weight="normal" font-size="288px" font-family="Times New Roman" >
C</text>
<path stroke="none" fill="#0000ff" transform="matrix(0.05 0 0 0.05 -50 -41)" d="M 14848.2,8356.8 L 14848.2,8324.8 L 15198.4,8324.8 L 15198.4,8356.8 L 14848.2,8356.8 Z " />
<text x="0" y="0" stroke="none" fill="#0000ff" transform="matrix(0.05 0 0 0.05 563.941 370.008)" font-style="normal" font-weight="normal" font-size="240px" font-family="Arial" >
RC</text>
<text x="0" y="0" stroke="none" fill="#0000ff" transform="matrix(0.05 0 0 0.05 612.687 370.008)" font-style="normal" font-weight="normal" font-size="240px" font-family="Arial" >
C</text>
<text x="0" y="0" stroke="none" fill="#0000ff" transform="matrix(0.05 0 0 0.05 621.353 365.71)" font-style="normal" font-weight="normal" font-size="180px" font-family="Arial" >
-</text>
<path stroke="none" fill="#0000ff" transform="matrix(0.05 0 0 0.05 -50 -41)" d="M 12656.7,8029.96 L 12656.7,7997.96 L 13224.7,7997.96 L 13224.7,8029.96 L 12656.7,8029.96 Z " />
<path stroke="none" fill="#0000ff" transform="matrix(0.05 0 0 0.05 -50 -41)" d="M 12656.7,8150.2 L 12656.7,8118.2 L 13224.7,8118.2 L 13224.7,8150.2 L 12656.7,8150.2 Z " />
<path stroke="none" fill="#0000ff" transform="matrix(0.05 0 0 0.05 -50 -41)" d="M 12656.7,8270.44 L 12656.7,8238.44 L 13224.7,8238.44 L 13224.7,8270.44 L 12656.7,8270.44 Z " />
<text x="0" y="0" stroke="none" fill="#0000ff" transform="matrix(0.05 0 0 0.05 741.917 380.338)" font-style="normal" font-weight="normal" font-size="240px" font-family="Arial" >
CR&apos;</text>
<path stroke="none" fill="#0000ff" transform="matrix(0.05 0 0 0.05 -50 -41)" d="M 15450.4,8266.8 L 15450.4,8234.8 L 15809.3,8234.8 L 15809.3,8266.8 L 15450.4,8266.8 Z " />
<path stroke="none" fill="#0000ff" transform="matrix(0.05 0 0 0.05 -50 -41)" d="M 15450.4,8356.8 L 15450.4,8324.8 L 15809.3,8324.8 L 15809.3,8356.8 L 15450.4,8356.8 Z " />
<path stroke="none" fill="#0000ff" transform="matrix(0.05 0 0 0.05 -50 -41)" d="M 15450.4,8446.8 L 15450.4,8414.8 L 15809.3,8414.8 L 15809.3,8446.8 L 15450.4,8446.8 Z " />
<path stroke="none" fill="#0000ff" transform="matrix(0.05 0 0 0.05 -50 -41)" d="M 14046.6,9201.6 L 11639.8,9201.6 L 11639.8,9169.6 L 14046.6,9169.6 Z " />
<path stroke="none" fill="#0000ff" transform="matrix(0.05 0 0 0.05 -50 -41)" d="M 14325.6,9185.6 C 14325.6,9185.6 14005.6,9266.6 14005.6,9266.6 C 14005.6,9266.6 14045.6,9221.04 14045.6,9185.6 C 14045.6,9149.73 14005.6,9103.6 14005.6,9103.6 C 14005.6,9103.6 14325.6,9185.6 14325.6,9185.6 C 14325.6,9185.6 14325.6,9185.6 14325.6,9185.6 " />
<path stroke="#0000ff" stroke-width="1" fill="none" transform="matrix(0.05 0 0 0.05 -50 -41)" d="M 14325.6,9185.6 C 14325.6,9185.6 14005.6,9266.6 14005.6,9266.6 C 14005.6,9266.6 14045.6,9221.04 14045.6,9185.6 C 14045.6,9149.73 14005.6,9103.6 14005.6,9103.6 C 14005.6,9103.6 14325.6,9185.6 14325.6,9185.6 C 14325.6,9185.6 14325.6,9185.6 14325.6,9185.6 " />
<text x="0" y="0" stroke="none" fill="#0000ff" transform="matrix(0.05 0 0 0.05 679.948 424.327)" font-style="normal" font-weight="normal" font-size="288px" font-family="Times New Roman" >
R</text>
<text x="0" y="0" stroke="none" fill="#0000ff" transform="matrix(0.05 0 0 0.05 689.552 427.442)" font-style="normal" font-weight="normal" font-size="216px" font-family="Times New Roman" >
4</text>
<text x="0" y="0" stroke="none" fill="#0000ff" transform="matrix(0.05 0 0 0.05 694.952 424.327)" font-style="normal" font-weight="normal" font-size="288px" font-family="Times New Roman" >
N</text>
<text x="0" y="0" stroke="none" fill="#0000ff" transform="matrix(0.05 0 0 0.05 705.352 419.56)" font-style="normal" font-weight="normal" font-size="216px" font-family="Times New Roman" >
+</text>
<text x="0" y="0" stroke="none" fill="#0000ff" transform="matrix(0.05 0 0 0.05 711.442 424.327)" font-style="normal" font-weight="normal" font-size="288px" font-family="Times New Roman" >
X</text>
<text x="0" y="0" stroke="none" fill="#0000ff" transform="matrix(0.05 0 0 0.05 721.842 419.56)" font-style="normal" font-weight="normal" font-size="216px" font-family="Times New Roman" >
-</text>
<text x="0" y="0" stroke="none" fill="#0000ff" transform="matrix(0.05 0 0 0.05 572.49 412.997)" font-style="normal" font-weight="normal" font-size="288px" font-family="Times New Roman" >
NH</text>
<text x="0" y="0" stroke="none" fill="#0000ff" transform="matrix(0.05 0 0 0.05 593.289 416.112)" font-style="normal" font-weight="normal" font-size="216px" font-family="Times New Roman" >
3</text>
<text x="0" y="0" stroke="none" fill="#0000ff" transform="matrix(0.05 0 0 0.05 598.689 412.997)" font-style="normal" font-weight="normal" font-size="288px" font-family="Times New Roman" >
, </text>
<text x="0" y="0" stroke="none" fill="#0000ff" transform="matrix(0.05 0 0 0.05 605.889 412.997)" font-style="normal" font-weight="normal" font-size="288px" font-family="Times New Roman" >
heat</text>
<path stroke="none" fill="#0000ff" transform="matrix(0.05 0 0 0.05 -50 -41)" d="M 7496.2,7278.8 L 6824,7278.8 L 6824,7246.8 L 7496.2,7246.8 Z " />
<path stroke="none" fill="#0000ff" transform="matrix(0.05 0 0 0.05 -50 -41)" d="M 6216.4,5847.8 L 6219.4,8800.8 L 6187.4,8800.8 L 6184.4,5847.8 Z " />
<path stroke="none" fill="#0000ff" transform="matrix(0.05 0 0 0.05 -50 -41)" d="M 4434,8754.2 L 6179.6,8754.2 L 6179.6,8786.2 L 4434,8786.2 Z " />
<path stroke="none" fill="#0000ff" transform="matrix(0.05 0 0 0.05 -50 -41)" d="M 4155,8770.2 C 4155,8770.2 4475,8688.2 4475,8688.2 C 4475,8688.2 4435,8734.33 4435,8770.2 C 4435,8805.64 4475,8851.2 4475,8851.2 C 4475,8851.2 4155,8770.2 4155,8770.2 C 4155,8770.2 4155,8770.2 4155,8770.2 " />
<path stroke="#0000ff" stroke-width="1" fill="none" transform="matrix(0.05 0 0 0.05 -50 -41)" d="M 4155,8770.2 C 4155,8770.2 4475,8688.2 4475,8688.2 C 4475,8688.2 4435,8734.33 4435,8770.2 C 4435,8805.64 4475,8851.2 4475,8851.2 C 4475,8851.2 4155,8770.2 4155,8770.2 C 4155,8770.2 4155,8770.2 4155,8770.2 " />
<text x="0" y="0" stroke="none" fill="#0000ff" transform="matrix(0.05 0 0 0.05 132.697 400.548)" font-style="normal" font-weight="normal" font-size="240px" font-family="Arial" >
R</text>
<text x="0" y="0" stroke="none" fill="#0000ff" transform="matrix(0.05 0 0 0.05 102.697 400.568)" font-style="normal" font-weight="normal" font-size="240px" font-family="Arial" >
R</text>
<path stroke="none" fill="#0000ff" transform="matrix(0.05 0 0 0.05 -50 -41)" d="M 3631.8,8729.07 L 3631.82,8761.07 L 3263.82,8761.32 L 3263.8,8729.32 L 3631.8,8729.07 Z " />
<path stroke="none" fill="#0000ff" transform="matrix(0.05 0 0 0.05 -50 -41)" d="M 4433.4,7988.78 L 6182.2,7987.4 L 6182.2,8019.4 L 4433.4,8020.78 Z " />
<path stroke="none" fill="#0000ff" transform="matrix(0.05 0 0 0.05 -50 -41)" d="M 4154.4,8005 C 4154.4,8005 4473.33,7923.75 4473.33,7923.75 C 4473.33,7923.75 4433.93,7969.34 4434.4,8004.78 C 4434.86,8040.22 4475.46,8085.75 4475.46,8085.75 C 4475.46,8085.75 4154.4,8005 4154.4,8005 C 4154.4,8005 4154.4,8005 4154.4,8005 " />
<path stroke="#0000ff" stroke-width="1" fill="none" transform="matrix(0.05 0 0 0.05 -50 -41)" d="M 4154.4,8005 C 4154.4,8005 4473.33,7923.75 4473.33,7923.75 C 4473.33,7923.75 4433.93,7969.34 4434.4,8004.78 C 4434.86,8040.22 4475.46,8085.75 4475.46,8085.75 C 4475.46,8085.75 4154.4,8005 4154.4,8005 C 4154.4,8005 4154.4,8005 4154.4,8005 " />
<text x="0" y="0" stroke="none" fill="#0000ff" transform="matrix(0.05 0 0 0.05 102.667 362.318)" font-style="normal" font-weight="normal" font-size="240px" font-family="Arial" >
R</text>
<text x="0" y="0" stroke="none" fill="#0000ff" transform="matrix(0.05 0 0 0.05 111.333 364.861)" font-style="normal" font-weight="normal" font-size="180px" font-family="Arial" >
4</text>
<text x="0" y="0" stroke="none" fill="#0000ff" transform="matrix(0.05 0 0 0.05 116.338 362.318)" font-style="normal" font-weight="normal" font-size="240px" font-family="Arial" >
Pb</text>
<text x="0" y="0" stroke="none" fill="#0000ff" transform="matrix(0.05 0 0 0.05 204.316 355.997)" font-style="normal" font-weight="normal" font-size="288px" font-family="Times New Roman" >
Pb-Na</text>
<path stroke="none" fill="#0000ff" transform="matrix(0.05 0 0 0.05 -50 -41)" d="M 4433,7248.77 L 6824,7246.8 L 6824,7278.8 L 4433,7280.77 Z " />
<path stroke="none" fill="#0000ff" transform="matrix(0.05 0 0 0.05 -50 -41)" d="M 4154,7265 C 4154,7265 4472.93,7183.74 4472.93,7183.74 C 4472.93,7183.74 4433.53,7229.33 4434,7264.77 C 4434.46,7300.21 4475.06,7345.74 4475.06,7345.74 C 4475.06,7345.74 4154,7265 4154,7265 C 4154,7265 4154,7265 4154,7265 " />
<path stroke="#0000ff" stroke-width="1" fill="none" transform="matrix(0.05 0 0 0.05 -50 -41)" d="M 4154,7265 C 4154,7265 4472.93,7183.74 4472.93,7183.74 C 4472.93,7183.74 4433.53,7229.33 4434,7264.77 C 4434.46,7300.21 4475.06,7345.74 4475.06,7345.74 C 4475.06,7345.74 4154,7265 4154,7265 C 4154,7265 4154,7265 4154,7265 " />
<text x="0" y="0" stroke="none" fill="#0000ff" transform="matrix(0.05 0 0 0.05 132.627 326.038)" font-style="normal" font-weight="normal" font-size="240px" font-family="Arial" >
R</text>
<text x="0" y="0" stroke="none" fill="#0000ff" transform="matrix(0.05 0 0 0.05 98.9619 326.527)" font-style="normal" font-weight="normal" font-size="288px" font-family="Times New Roman" >
Zn</text>
<path stroke="none" fill="#0000ff" transform="matrix(0.05 0 0 0.05 -50 -41)" d="M 3630.4,7238.87 L 3630.42,7270.87 L 3338.91,7271.07 L 3338.88,7239.07 L 3630.4,7238.87 Z " />
<text x="0" y="0" stroke="none" fill="#0000ff" transform="matrix(0.05 0 0 0.05 211.892 318.747)" font-style="normal" font-weight="normal" font-size="288px" font-family="Times New Roman" >
Zn</text>
<path stroke="none" fill="#0000ff" transform="matrix(0.05 0 0 0.05 -50 -41)" d="M 4432,6538.8 L 6196.4,6538.8 L 6196.4,6570.8 L 4432,6570.8 Z " />
<path stroke="none" fill="#0000ff" transform="matrix(0.05 0 0 0.05 -50 -41)" d="M 4153,6554.8 C 4153,6554.8 4473,6472.8 4473,6472.8 C 4473,6472.8 4433,6518.93 4433,6554.8 C 4433,6590.24 4473,6635.8 4473,6635.8 C 4473,6635.8 4153,6554.8 4153,6554.8 C 4153,6554.8 4153,6554.8 4153,6554.8 " />
<path stroke="#0000ff" stroke-width="1" fill="none" transform="matrix(0.05 0 0 0.05 -50 -41)" d="M 4153,6554.8 C 4153,6554.8 4473,6472.8 4473,6472.8 C 4473,6472.8 4433,6518.93 4433,6554.8 C 4433,6590.24 4473,6635.8 4473,6635.8 C 4473,6635.8 4153,6554.8 4153,6554.8 C 4153,6554.8 4153,6554.8 4153,6554.8 " />
<text x="0" y="0" stroke="none" fill="#0000ff" transform="matrix(0.05 0 0 0.05 133.603 289.778)" font-style="normal" font-weight="normal" font-size="240px" font-family="Arial" >
Li</text>
<text x="0" y="0" stroke="none" fill="#0000ff" transform="matrix(0.05 0 0 0.05 102.138 290.277)" font-style="normal" font-weight="normal" font-size="288px" font-family="Times New Roman" >
R</text>
<path stroke="none" fill="#0000ff" transform="matrix(0.05 0 0 0.05 -50 -41)" d="M 3649.62,6513.69 L 3649.66,6545.69 L 3276.69,6546.06 L 3276.66,6514.06 L 3649.62,6513.69 Z " />
<text x="0" y="0" stroke="none" fill="#0000ff" transform="matrix(0.05 0 0 0.05 213.862 284.497)" font-style="normal" font-weight="normal" font-size="288px" font-family="Times New Roman" >
Li</text>
<path stroke="none" fill="#0000ff" transform="matrix(0.05 0 0 0.05 -50 -41)" d="M 4431.4,5833.53 L 6200.4,5831.8 L 6200.4,5863.8 L 4431.4,5865.53 Z " />
<path stroke="none" fill="#0000ff" transform="matrix(0.05 0 0 0.05 -50 -41)" d="M 4152.4,5849.8 C 4152.4,5849.8 4471.32,5768.49 4471.32,5768.49 C 4471.32,5768.49 4431.93,5814.09 4432.4,5849.53 C 4432.87,5884.96 4473.48,5930.49 4473.48,5930.49 C 4473.48,5930.49 4152.4,5849.8 4152.4,5849.8 C 4152.4,5849.8 4152.4,5849.8 4152.4,5849.8 " />
<path stroke="#0000ff" stroke-width="1" fill="none" transform="matrix(0.05 0 0 0.05 -50 -41)" d="M 4152.4,5849.8 C 4152.4,5849.8 4471.32,5768.49 4471.32,5768.49 C 4471.32,5768.49 4431.93,5814.09 4432.4,5849.53 C 4432.87,5884.96 4473.48,5930.49 4473.48,5930.49 C 4473.48,5930.49 4152.4,5849.8 4152.4,5849.8 C 4152.4,5849.8 4152.4,5849.8 4152.4,5849.8 " />
<text x="0" y="0" stroke="none" fill="#0000ff" transform="matrix(0.05 0 0 0.05 130.498 254.997)" font-style="normal" font-weight="normal" font-size="288px" font-family="Times New Roman" >
MgX</text>
<text x="0" y="0" stroke="none" fill="#0000ff" transform="matrix(0.05 0 0 0.05 102.098 255.017)" font-style="normal" font-weight="normal" font-size="288px" font-family="Times New Roman" >
R</text>
<path stroke="none" fill="#0000ff" transform="matrix(0.05 0 0 0.05 -50 -41)" d="M 3573.73,5808.71 L 3573.75,5840.71 L 3275.89,5840.91 L 3275.86,5808.91 L 3573.73,5808.71 Z " />
<text x="0" y="0" stroke="none" fill="#0000ff" transform="matrix(0.05 0 0 0.05 211.818 245.237)" font-style="normal" font-weight="normal" font-size="288px" font-family="Times New Roman" >
Mg</text>
<text x="0" y="0" stroke="none" fill="#0000ff" transform="matrix(0.05 0 0 0.05 72.627 326.058)" font-style="normal" font-weight="normal" font-size="240px" font-family="Arial" >
R</text>
<path stroke="none" fill="#0000ff" transform="matrix(0.05 0 0 0.05 -50 -41)" d="M 2942.9,7239.2 L 2942.9,7271.2 L 2662.41,7271.2 L 2662.41,7239.2 L 2942.9,7239.2 Z " />
<text x="0" y="0" stroke="none" fill="#0000ff" transform="matrix(0.05 0 0 0.05 286.79 316)" font-style="normal" font-weight="normal" font-size="240px" font-family="Times New Roman" >
Metals</text>
<path stroke="none" fill="#0000ff" transform="matrix(0.05 0 0 0.05 -50 -41)" d="M 8916.2,6514.8 L 8916.2,5029.8 L 8948.2,5029.8 L 8948.2,6514.8 Z " />
<path stroke="none" fill="#0000ff" transform="matrix(0.05 0 0 0.05 -50 -41)" d="M 10107.2,5025.8 L 7775.6,5023.4 L 7775.6,4991.4 L 10107.2,4993.8 Z " />
<path stroke="none" fill="#0000ff" transform="matrix(0.05 0 0 0.05 -50 -41)" d="M 7791.42,2616.4 L 7791.6,5007.4 L 7759.6,5007.4 L 7759.42,2616.4 Z " />
<path stroke="none" fill="#0000ff" transform="matrix(0.05 0 0 0.05 -50 -41)" d="M 7775.4,2337.4 C 7775.4,2337.4 7856.42,2656.39 7856.42,2656.39 C 7856.42,2656.39 7810.86,2616.96 7775.42,2617.4 C 7739.98,2617.84 7694.42,2658.4 7694.42,2658.4 C 7694.42,2658.4 7775.4,2337.4 7775.4,2337.4 C 7775.4,2337.4 7775.4,2337.4 7775.4,2337.4 " />
<path stroke="#0000ff" stroke-width="1" fill="none" transform="matrix(0.05 0 0 0.05 -50 -41)" d="M 7775.4,2337.4 C 7775.4,2337.4 7856.42,2656.39 7856.42,2656.39 C 7856.42,2656.39 7810.86,2616.96 7775.42,2617.4 C 7739.98,2617.84 7694.42,2658.4 7694.42,2658.4 C 7694.42,2658.4 7775.4,2337.4 7775.4,2337.4 C 7775.4,2337.4 7775.4,2337.4 7775.4,2337.4 " />
<path stroke="none" fill="#0000ff" transform="matrix(0.05 0 0 0.05 -50 -41)" d="M 8948.02,2638.8 L 8948.2,5029.8 L 8916.2,5029.8 L 8916.02,2638.8 Z " />
<path stroke="none" fill="#0000ff" transform="matrix(0.05 0 0 0.05 -50 -41)" d="M 8932,2359.8 C 8932,2359.8 9013.02,2678.79 9013.02,2678.79 C 9013.02,2678.79 8967.46,2639.36 8932.02,2639.8 C 8896.58,2640.24 8851.02,2680.8 8851.02,2680.8 C 8851.02,2680.8 8932,2359.8 8932,2359.8 C 8932,2359.8 8932,2359.8 8932,2359.8 " />
<path stroke="#0000ff" stroke-width="1" fill="none" transform="matrix(0.05 0 0 0.05 -50 -41)" d="M 8932,2359.8 C 8932,2359.8 9013.02,2678.79 9013.02,2678.79 C 9013.02,2678.79 8967.46,2639.36 8932.02,2639.8 C 8896.58,2640.24 8851.02,2680.8 8851.02,2680.8 C 8851.02,2680.8 8932,2359.8 8932,2359.8 C 8932,2359.8 8932,2359.8 8932,2359.8 " />
<text x="0" y="0" stroke="none" fill="#0000ff" transform="matrix(0.00087262 -0.0499924 0.0499924 0.00087262 391.506 168.862)" font-style="normal" font-weight="normal" font-size="288px" font-family="Times New Roman" >
H</text>
<text x="0" y="0" stroke="none" fill="#0000ff" transform="matrix(0.00087262 -0.0499924 0.0499924 0.00087262 394.802 158.519)" font-style="normal" font-weight="normal" font-size="216px" font-family="Times New Roman" >
2</text>
<text x="0" y="0" stroke="none" fill="#0000ff" transform="matrix(0.00087262 -0.0499924 0.0499924 0.00087262 391.781 153.065)" font-style="normal" font-weight="normal" font-size="288px" font-family="Times New Roman" >
, </text>
<text x="0" y="0" stroke="none" fill="#0000ff" transform="matrix(0.00087262 -0.0499924 0.0499924 0.00087262 391.907 145.866)" font-style="normal" font-weight="normal" font-size="288px" font-family="Times New Roman" >
Ni/Pt</text>
<path stroke="none" fill="#0000ff" transform="matrix(0.05 0 0 0.05 -50 -41)" d="M 10123,2618.8 L 10123.2,5009.8 L 10091.2,5009.8 L 10091,2618.8 Z " />
<path stroke="none" fill="#0000ff" transform="matrix(0.05 0 0 0.05 -50 -41)" d="M 10107,2339.8 C 10107,2339.8 10188,2658.79 10188,2658.79 C 10188,2658.79 10142.5,2619.36 10107,2619.8 C 10071.6,2620.24 10026,2660.8 10026,2660.8 C 10026,2660.8 10107,2339.8 10107,2339.8 C 10107,2339.8 10107,2339.8 10107,2339.8 " />
<path stroke="#0000ff" stroke-width="1" fill="none" transform="matrix(0.05 0 0 0.05 -50 -41)" d="M 10107,2339.8 C 10107,2339.8 10188,2658.79 10188,2658.79 C 10188,2658.79 10142.5,2619.36 10107,2619.8 C 10071.6,2620.24 10026,2660.8 10026,2660.8 C 10026,2660.8 10107,2339.8 10107,2339.8 C 10107,2339.8 10107,2339.8 10107,2339.8 " />
<text x="0" y="0" stroke="none" fill="#0000ff" transform="matrix(-9.18485e-18 -0.05 0.05 -9.18485e-18 333.617 185.23)" font-style="normal" font-weight="normal" font-size="288px" font-family="Times New Roman" >
HI, </text>
<text x="0" y="0" stroke="none" fill="#0000ff" transform="matrix(-9.18485e-18 -0.05 0.05 -9.18485e-18 333.617 162.835)" font-style="normal" font-weight="normal" font-size="288px" font-family="Times New Roman" >
red </text>
<text x="0" y="0" stroke="none" fill="#0000ff" transform="matrix(-9.18485e-18 -0.05 0.05 -9.18485e-18 333.617 140.848)" font-style="normal" font-weight="normal" font-size="288px" font-family="Times New Roman" >
P</text>
<text x="0" y="0" stroke="none" fill="#0000ff" transform="matrix(-9.18485e-18 -0.05 0.05 -9.18485e-18 336.732 132.84)" font-style="normal" font-weight="normal" font-size="216px" font-family="Times New Roman" >
4</text>
<text x="0" y="0" stroke="none" fill="#0000ff" transform="matrix(-9.18485e-18 -0.05 0.05 -9.18485e-18 333.617 127.44)" font-style="normal" font-weight="normal" font-size="288px" font-family="Times New Roman" >
, </text>
<text x="0" y="0" stroke="none" fill="#0000ff" transform="matrix(-9.18485e-18 -0.05 0.05 -9.18485e-18 333.617 120.24)" font-style="normal" font-weight="normal" font-size="288px" font-family="Times New Roman" >
heat</text>
<text x="0" y="0" stroke="none" fill="#0000ff" transform="matrix(3.06162e-18 0.05 -0.05 3.06162e-18 402.73 233.08)" font-style="normal" font-weight="normal" font-size="240px" font-family="Times New Roman" >
Reduction</text>
<text x="0" y="0" stroke="none" fill="#0000ff" transform="matrix(0.00087262 -0.0499924 0.0499924 0.00087262 423.55 192.12)" font-style="normal" font-weight="normal" font-size="240px" font-family="Times New Roman" >
Nascent-H</text>
<text x="0" y="0" stroke="none" fill="#0000ff" transform="matrix(0.00087262 -0.0499924 0.0499924 0.00087262 437.347 192.361)" font-style="normal" font-weight="normal" font-size="240px" font-family="Times New Roman" >
i) </text>
<text x="0" y="0" stroke="none" fill="#0000ff" transform="matrix(0.00087262 -0.0499924 0.0499924 0.00087262 437.527 182.032)" font-style="normal" font-weight="normal" font-size="240px" font-family="Times New Roman" >
 </text>
<text x="0" y="0" stroke="none" fill="#0000ff" transform="matrix(0.00087262 -0.0499924 0.0499924 0.00087262 437.579 179.033)" font-style="normal" font-weight="normal" font-size="240px" font-family="Times New Roman" >
Zn </text>
<text x="0" y="0" stroke="none" fill="#0000ff" transform="matrix(0.00087262 -0.0499924 0.0499924 0.00087262 437.864 162.705)" font-style="normal" font-weight="normal" font-size="240px" font-family="Times New Roman" >
or </text>
<text x="0" y="0" stroke="none" fill="#0000ff" transform="matrix(0.00087262 -0.0499924 0.0499924 0.00087262 438.091 149.711)" font-style="normal" font-weight="normal" font-size="240px" font-family="Times New Roman" >
Sn </text>
<text x="0" y="0" stroke="none" fill="#0000ff" transform="matrix(0.00087262 -0.0499924 0.0499924 0.00087262 438.365 134.04)" font-style="normal" font-weight="normal" font-size="240px" font-family="Times New Roman" >
+ </text>
<text x="0" y="0" stroke="none" fill="#0000ff" transform="matrix(0.00087262 -0.0499924 0.0499924 0.00087262 438.535 124.274)" font-style="normal" font-weight="normal" font-size="240px" font-family="Times New Roman" >
HCl</text>
<text x="0" y="0" stroke="none" fill="#0000ff" transform="matrix(0.00087262 -0.0499924 0.0499924 0.00087262 451.143 192.602)" font-style="normal" font-weight="normal" font-size="240px" font-family="Times New Roman" >
ii) </text>
<text x="0" y="0" stroke="none" fill="#0000ff" transform="matrix(0.00087262 -0.0499924 0.0499924 0.00087262 451.382 178.94)" font-style="normal" font-weight="normal" font-size="240px" font-family="Times New Roman" >
Zn-Cu </text>
<text x="0" y="0" stroke="none" fill="#0000ff" transform="matrix(0.00087262 -0.0499924 0.0499924 0.00087262 451.981 144.615)" font-style="normal" font-weight="normal" font-size="240px" font-family="Times New Roman" >
+ </text>
<text x="0" y="0" stroke="none" fill="#0000ff" transform="matrix(0.00087262 -0.0499924 0.0499924 0.00087262 452.152 134.849)" font-style="normal" font-weight="normal" font-size="240px" font-family="Times New Roman" >
EtOH</text>
<text x="0" y="0" stroke="none" fill="#0000ff" transform="matrix(0.05 0 0 0.05 407.54 63.5372)" font-style="normal" font-weight="normal" font-size="288px" font-family="Times New Roman" >
H</text>
<text x="0" y="0" stroke="none" fill="#0000ff" transform="matrix(0.05 0 0 0.05 377.938 63.5572)" font-style="normal" font-weight="normal" font-size="288px" font-family="Times New Roman" >
R</text>
<path stroke="none" fill="#0000ff" transform="matrix(0.05 0 0 0.05 -50 -41)" d="M 9114.72,1979.49 L 9114.74,2011.49 L 8792.69,2011.71 L 8792.66,1979.71 L 9114.72,1979.49 Z " />
<path stroke="none" fill="#0000ff" transform="matrix(0.05 0 0 0.05 -50 -41)" d="M 8954.4,8039.8 L 8955.4,9524.8 L 8923.4,9524.8 L 8922.4,8039.8 Z " />
<path stroke="none" fill="#0000ff" transform="matrix(0.05 0 0 0.05 -50 -41)" d="M 7014.4,9512.4 L 10841.8,9510.2 L 10841.8,9542.2 L 7014.4,9544.4 Z " />
<path stroke="none" fill="#0000ff" transform="matrix(0.05 0 0 0.05 -50 -41)" d="M 10822.4,11937.2 L 10821,9546.2 L 10853,9546.2 L 10854.4,11937.2 Z " />
<path stroke="none" fill="#0000ff" transform="matrix(0.05 0 0 0.05 -50 -41)" d="M 10838.6,12216.2 C 10838.6,12216.2 10757.4,11897.2 10757.4,11897.2 C 10757.4,11897.2 10803,11936.7 10838.4,11936.2 C 10873.9,11935.7 10919.4,11895.2 10919.4,11895.2 C 10919.4,11895.2 10838.6,12216.2 10838.6,12216.2 C 10838.6,12216.2 10838.6,12216.2 10838.6,12216.2 " />
<path stroke="#0000ff" stroke-width="1" fill="none" transform="matrix(0.05 0 0 0.05 -50 -41)" d="M 10838.6,12216.2 C 10838.6,12216.2 10757.4,11897.2 10757.4,11897.2 C 10757.4,11897.2 10803,11936.7 10838.4,11936.2 C 10873.9,11935.7 10919.4,11895.2 10919.4,11895.2 C 10919.4,11895.2 10838.6,12216.2 10838.6,12216.2 C 10838.6,12216.2 10838.6,12216.2 10838.6,12216.2 " />
<path stroke="none" fill="#0000ff" transform="matrix(0.05 0 0 0.05 -50 -41)" d="M 8924.65,11915.8 L 8923.4,9524.8 L 8955.4,9524.8 L 8956.65,11915.8 Z " />
<path stroke="none" fill="#0000ff" transform="matrix(0.05 0 0 0.05 -50 -41)" d="M 8940.8,12194.8 C 8940.8,12194.8 8859.63,11875.8 8859.63,11875.8 C 8859.63,11875.8 8905.22,11915.3 8940.65,11914.8 C 8976.09,11914.3 9021.63,11873.8 9021.63,11873.8 C 9021.63,11873.8 8940.8,12194.8 8940.8,12194.8 C 8940.8,12194.8 8940.8,12194.8 8940.8,12194.8 " />
<path stroke="#0000ff" stroke-width="1" fill="none" transform="matrix(0.05 0 0 0.05 -50 -41)" d="M 8940.8,12194.8 C 8940.8,12194.8 8859.63,11875.8 8859.63,11875.8 C 8859.63,11875.8 8905.22,11915.3 8940.65,11914.8 C 8976.09,11914.3 9021.63,11873.8 9021.63,11873.8 C 9021.63,11873.8 8940.8,12194.8 8940.8,12194.8 C 8940.8,12194.8 8940.8,12194.8 8940.8,12194.8 " />
<path stroke="none" fill="#0000ff" transform="matrix(0.05 0 0 0.05 -50 -41)" d="M 6989.65,11917 L 6988.4,9526 L 7020.4,9526 L 7021.65,11917 Z " />
<path stroke="none" fill="#0000ff" transform="matrix(0.05 0 0 0.05 -50 -41)" d="M 7005.8,12196 C 7005.8,12196 6924.63,11877 6924.63,11877 C 6924.63,11877 6970.22,11916.5 7005.65,11916 C 7041.09,11915.5 7086.63,11875 7086.63,11875 C 7086.63,11875 7005.8,12196 7005.8,12196 C 7005.8,12196 7005.8,12196 7005.8,12196 " />
<path stroke="#0000ff" stroke-width="1" fill="none" transform="matrix(0.05 0 0 0.05 -50 -41)" d="M 7005.8,12196 C 7005.8,12196 6924.63,11877 6924.63,11877 C 6924.63,11877 6970.22,11916.5 7005.65,11916 C 7041.09,11915.5 7086.63,11875 7086.63,11875 C 7086.63,11875 7005.8,12196 7005.8,12196 C 7005.8,12196 7005.8,12196 7005.8,12196 " />
<text x="0" y="0" stroke="none" fill="#0000ff" transform="matrix(-0.00087262 -0.0499924 0.0499924 -0.00087262 391.83 413.65)" font-style="normal" font-weight="normal" font-size="240px" font-family="Times New Roman" >
Misc</text>
<text x="0" y="0" stroke="none" fill="#0000ff" transform="matrix(-9.18485e-18 -0.05 0.05 -9.18485e-18 279.33 531.37)" font-style="normal" font-weight="normal" font-size="240px" font-family="Times New Roman" >
Elimination:</text>
<text x="0" y="0" stroke="none" fill="#0000ff" transform="matrix(-9.18485e-18 -0.05 0.05 -9.18485e-18 293.129 531.37)" font-style="normal" font-weight="normal" font-size="240px" font-family="Times New Roman" >
alc. </text>
<text x="0" y="0" stroke="none" fill="#0000ff" transform="matrix(-9.18485e-18 -0.05 0.05 -9.18485e-18 293.129 511.384)" font-style="normal" font-weight="normal" font-size="240px" font-family="Times New Roman" >
KOH</text>
<path stroke="none" fill="#0000ff" transform="matrix(0.05 0 0 0.05 -50 -41)" d="M 6223.8,12733.9 L 6207.8,12706.1 L 6735.4,12400.9 L 6735.4,12437.9 L 6223.8,12733.9 Z " />
<path stroke="none" fill="#0000ff" transform="matrix(0.05 0 0 0.05 -50 -41)" d="M 6268.8,12811.8 L 6252.8,12784.1 L 6727.4,12510.1 L 6743.4,12537.8 L 6268.8,12811.8 Z " />
<path stroke="none" fill="#0000ff" transform="matrix(0.05 0 0 0.05 -50 -41)" d="M 6735.4,12437.9 L 6735.4,12400.9 L 7255,12702.1 L 7255,12739.1 L 6735.4,12437.9 Z " />
<path stroke="none" fill="#0000ff" transform="matrix(0.05 0 0 0.05 -50 -41)" d="M 7255,12739.1 L 7255,12702.1 L 7766.6,12406.1 L 7782.6,12433.9 L 7255,12739.1 Z " />
<text x="0" y="0" stroke="none" fill="#0000ff" transform="matrix(-9.18485e-18 -0.05 0.05 -9.18485e-18 391.91 531.45)" font-style="normal" font-weight="normal" font-size="240px" font-family="Times New Roman" >
Isomerism</text>
<text x="0" y="0" stroke="none" fill="#0000ff" transform="matrix(-9.18485e-18 -0.05 0.05 -9.18485e-18 411.66 552.43)" font-style="normal" font-weight="normal" font-size="240px" font-family="Times New Roman" >
Anhyd. </text>
<text x="0" y="0" stroke="none" fill="#0000ff" transform="matrix(-9.18485e-18 -0.05 0.05 -9.18485e-18 411.66 514.426)" font-style="normal" font-weight="normal" font-size="240px" font-family="Times New Roman" >
AlCl</text>
<text x="0" y="0" stroke="none" fill="#0000ff" transform="matrix(-9.18485e-18 -0.05 0.05 -9.18485e-18 414.256 491.088)" font-style="normal" font-weight="normal" font-size="180px" font-family="Times New Roman" >
3</text>
<text x="0" y="0" stroke="none" fill="#0000ff" transform="matrix(-9.18485e-18 -0.05 0.05 -9.18485e-18 411.66 486.588)" font-style="normal" font-weight="normal" font-size="240px" font-family="Times New Roman" >
, </text>
<text x="0" y="0" stroke="none" fill="#0000ff" transform="matrix(-9.18485e-18 -0.05 0.05 -9.18485e-18 411.66 480.588)" font-style="normal" font-weight="normal" font-size="240px" font-family="Times New Roman" >
300</text>
<text x="0" y="0" stroke="none" fill="#0000ff" transform="matrix(-9.18485e-18 -0.05 0.05 -9.18485e-18 407.687 462.588)" font-style="normal" font-weight="normal" font-size="180px" font-family="Times New Roman" >
o</text>
<text x="0" y="0" stroke="none" fill="#0000ff" transform="matrix(-9.18485e-18 -0.05 0.05 -9.18485e-18 411.66 458.088)" font-style="normal" font-weight="normal" font-size="240px" font-family="Times New Roman" >
C</text>
<path stroke="none" fill="#0000ff" transform="matrix(0.05 0 0 0.05 -50 -41)" d="M 10319.7,12770.5 L 10351.7,12789 L 10351.7,13371 L 10319.7,13389.5 L 10319.7,12770.5 Z " />
<path stroke="none" fill="#0000ff" transform="matrix(0.05 0 0 0.05 -50 -41)" d="M 10410.2,12832 L 10442.2,12832 L 10442.2,13328 L 10410.2,13328 L 10410.2,12832 Z " />
<path stroke="none" fill="#0000ff" transform="matrix(0.05 0 0 0.05 -50 -41)" d="M 10319.7,13389.5 L 10351.7,13371 L 10855.8,13662.1 L 10855.8,13699.1 L 10319.7,13389.5 Z " />
<path stroke="none" fill="#0000ff" transform="matrix(0.05 0 0 0.05 -50 -41)" d="M 10855.8,13699.1 L 10855.8,13662.1 L 11359.9,13371 L 11391.9,13389.5 L 10855.8,13699.1 Z " />
<path stroke="none" fill="#0000ff" transform="matrix(0.05 0 0 0.05 -50 -41)" d="M 10863.8,13589.9 L 10847.8,13562.2 L 11277.4,13314.2 L 11293.4,13341.9 L 10863.8,13589.9 Z " />
<path stroke="none" fill="#0000ff" transform="matrix(0.05 0 0 0.05 -50 -41)" d="M 11391.9,13389.5 L 11359.9,13371 L 11359.9,12789 L 11375.4,12780 L 11390.9,12788.8 L 11391.9,13389.5 Z " />
<path stroke="none" fill="#0000ff" transform="matrix(0.05 0 0 0.05 -50 -41)" d="M 11375.6,12762.2 L 11375.4,12780 L 11359.9,12789 L 10855.8,12497.9 L 10855.8,12460.9 L 11375.6,12762.2 Z " />
<path stroke="none" fill="#0000ff" transform="matrix(0.05 0 0 0.05 -50 -41)" d="M 11293.4,12818.1 L 11277.4,12845.8 L 10847.8,12597.8 L 10863.8,12570.1 L 11293.4,12818.1 Z " />
<path stroke="none" fill="#0000ff" transform="matrix(0.05 0 0 0.05 -50 -41)" d="M 10855.8,12460.9 L 10855.8,12497.9 L 10351.7,12789 L 10319.7,12770.5 L 10855.8,12460.9 Z " />
<text x="0" y="0" stroke="none" fill="#0000ff" transform="matrix(0.05 0 0 0.05 561.75 90.96)" font-style="normal" font-weight="normal" font-size="240px" font-family="Times New Roman" >
 </text>
<text x="0" y="0" stroke="none" fill="#0000ff" transform="matrix(0.05 0 0 0.05 564.75 90.96)" font-style="normal" font-weight="normal" font-size="240px" font-family="Times New Roman" >
 </text>
<text x="0" y="0" stroke="none" fill="#0000ff" transform="matrix(0.05 0 0 0.05 567.75 90.96)" font-style="normal" font-weight="normal" font-size="240px" font-family="Times New Roman" >
 </text>
<text x="0" y="0" stroke="none" fill="#0000ff" transform="matrix(0.05 0 0 0.05 570.75 90.96)" font-style="normal" font-weight="normal" font-size="240px" font-family="Times New Roman" >
 </text>
<text x="0" y="0" stroke="none" fill="#0000ff" transform="matrix(0.05 0 0 0.05 573.75 90.96)" font-style="normal" font-weight="normal" font-size="240px" font-family="Times New Roman" >
 </text>
<text x="0" y="0" stroke="none" fill="#0000ff" transform="matrix(0.05 0 0 0.05 576.75 90.96)" font-style="normal" font-weight="normal" font-size="240px" font-family="Times New Roman" >
RO</text>
<text x="0" y="0" stroke="none" fill="#0000ff" transform="matrix(0.05 0 0 0.05 593.42 86.9873)" font-style="normal" font-weight="normal" font-size="180px" font-family="Times New Roman" >
-</text>
<text x="0" y="0" stroke="none" fill="#0000ff" transform="matrix(0.05 0 0 0.05 596.417 90.96)" font-style="normal" font-weight="normal" font-size="240px" font-family="Times New Roman" >
Na</text>
<text x="0" y="0" stroke="none" fill="#0000ff" transform="matrix(0.05 0 0 0.05 610.409 86.9873)" font-style="normal" font-weight="normal" font-size="180px" font-family="Times New Roman" >
+</text>
<text x="0" y="0" stroke="none" fill="#0000ff" transform="matrix(0.05 0 0 0.05 561.75 107.026)" font-style="normal" font-weight="normal" font-size="240px" font-family="Times New Roman" >
or </text>
<text x="0" y="0" stroke="none" fill="#0000ff" transform="matrix(0.05 0 0 0.05 574.084 107.026)" font-style="normal" font-weight="normal" font-size="240px" font-family="Times New Roman" >
Ag</text>
<text x="0" y="0" stroke="none" fill="#0000ff" transform="matrix(0.05 0 0 0.05 588.75 109.622)" font-style="normal" font-weight="normal" font-size="180px" font-family="Times New Roman" >
2</text>
<text x="0" y="0" stroke="none" fill="#0000ff" transform="matrix(0.05 0 0 0.05 593.25 107.026)" font-style="normal" font-weight="normal" font-size="240px" font-family="Times New Roman" >
O</text>
<text x="0" y="0" stroke="none" fill="#0000ff" transform="matrix(0.05 0 0 0.05 745.7 221.92)" font-style="normal" font-weight="normal" font-size="240px" font-family="Times New Roman" >
(cyano)</text>
<text x="0" y="0" stroke="none" fill="#0000ff" transform="matrix(0.05 0 0 0.05 744.7 260.91)" font-style="normal" font-weight="normal" font-size="240px" font-family="Times New Roman" >
(isocyano)</text>
<text x="0" y="0" stroke="none" fill="#0000ff" transform="matrix(0.05 0 0 0.05 746.7 298.91)" font-style="normal" font-weight="normal" font-size="240px" font-family="Times New Roman" >
(nitrite)</text>
<text x="0" y="0" stroke="none" fill="#0000ff" transform="matrix(0.05 0 0 0.05 748.7 340.89)" font-style="normal" font-weight="normal" font-size="240px" font-family="Times New Roman" >
(nitro)</text>
<text x="0" y="0" stroke="none" fill="#0000ff" transform="matrix(0.05 0 0 0.05 1.89 252.93)" font-style="normal" font-weight="normal" font-size="240px" font-family="Times New Roman" >
(Grignard </text>
<text x="0" y="0" stroke="none" fill="#0000ff" transform="matrix(0.05 0 0 0.05 52.2045 252.93)" font-style="normal" font-weight="normal" font-size="240px" font-family="Times New Roman" >
Reagent)</text>
<text x="0" y="0" stroke="none" fill="#0000ff" transform="matrix(0.05 0 0 0.05 212.314 395.89)" font-style="normal" font-weight="normal" font-size="240px" font-family="Times New Roman" >
Na</text>
<text x="0" y="0" stroke="none" fill="#0000ff" transform="matrix(0.05 0 0 0.05 195.061 409.689)" font-style="normal" font-weight="normal" font-size="240px" font-family="Times New Roman" >
Wurtz </text>
<text x="0" y="0" stroke="none" fill="#0000ff" transform="matrix(0.05 0 0 0.05 227.563 409.689)" font-style="normal" font-weight="normal" font-size="240px" font-family="Times New Roman" >
rxn</text>
<path stroke="none" fill="#0000ff" transform="matrix(0.05 0 0 0.05 -50 -41)" d="M 8144,13130.7 L 8128,13102.9 L 8655.6,12797.7 L 8655.6,12834.7 L 8144,13130.7 Z " />
<path stroke="none" fill="#0000ff" transform="matrix(0.05 0 0 0.05 -50 -41)" d="M 8655.6,12834.7 L 8655.6,12797.7 L 9175.34,13098.9 L 9175.32,13135.9 L 8655.6,12834.7 Z " />
<text x="0" y="0" stroke="none" fill="#0000ff" transform="matrix(0.05 0 0 0.05 430.407 604.138)" font-style="normal" font-weight="normal" font-size="240px" font-family="Arial" >
Cl</text>
<path stroke="none" fill="#0000ff" transform="matrix(0.05 0 0 0.05 -50 -41)" d="M 9175.32,13135.9 L 9175.34,13098.9 L 9581.35,12863.8 L 9597.35,12891.5 L 9175.32,13135.9 Z " />
<path stroke="none" fill="#0000ff" transform="matrix(0.05 0 0 0.05 -50 -41)" d="M 8144,15010.1 L 8128,14982.3 L 8640.22,14687.1 L 8655.6,14696.2 L 8655.6,14714.1 L 8144,15010.1 Z " />
<path stroke="none" fill="#0000ff" transform="matrix(0.05 0 0 0.05 -50 -41)" d="M 8655.6,14714.1 L 8655.6,14696.2 L 8670.98,14687.1 L 9183.2,14982.3 L 9167.2,15010.1 L 8655.6,14714.1 Z " />
<text x="0" y="0" stroke="none" fill="#0000ff" transform="matrix(0.05 0 0 0.05 378.447 668.108)" font-style="normal" font-weight="normal" font-size="240px" font-family="Arial" >
Cl</text>
<path stroke="none" fill="#0000ff" transform="matrix(0.05 0 0 0.05 -50 -41)" d="M 8670.98,14687.1 L 8655.6,14696.2 L 8640.22,14687.1 L 8639.6,14226.8 L 8671.6,14226.8 L 8670.98,14687.1 Z " />
<path stroke="none" fill="#0000ff" transform="matrix(0.05 0 0 0.05 -50 -41)" d="M 8659.8,13477.6 L 8659.8,13196.6 L 8691.8,13196.6 L 8691.8,13477.6 Z " />
<path stroke="none" fill="#0000ff" transform="matrix(0.05 0 0 0.05 -50 -41)" d="M 8675.8,13756.6 C 8675.8,13756.6 8593.8,13436.6 8593.8,13436.6 C 8593.8,13436.6 8639.93,13476.6 8675.8,13476.6 C 8711.24,13476.6 8756.8,13436.6 8756.8,13436.6 C 8756.8,13436.6 8675.8,13756.6 8675.8,13756.6 C 8675.8,13756.6 8675.8,13756.6 8675.8,13756.6 " />
<path stroke="#0000ff" stroke-width="1" fill="none" transform="matrix(0.05 0 0 0.05 -50 -41)" d="M 8675.8,13756.6 C 8675.8,13756.6 8593.8,13436.6 8593.8,13436.6 C 8593.8,13436.6 8639.93,13476.6 8675.8,13476.6 C 8711.24,13476.6 8756.8,13436.6 8756.8,13436.6 C 8756.8,13436.6 8675.8,13756.6 8675.8,13756.6 C 8675.8,13756.6 8675.8,13756.6 8675.8,13756.6 " />
<text x="0" y="0" stroke="none" fill="#0000ff" transform="matrix(0.05 0 0 0.05 540.417 587.298)" font-style="normal" font-weight="normal" font-size="240px" font-family="Arial" >
R</text>
<path stroke="none" fill="#0000ff" transform="matrix(0.05 0 0 0.05 -50 -41)" d="M 11390.9,12788.8 L 11375.4,12780 L 11375.6,12762.2 L 11763.5,12537.5 L 11779.5,12565.2 L 11390.9,12788.8 Z " />
<text x="0" y="0" stroke="none" fill="#0000ff" transform="matrix(-9.18485e-18 -0.05 0.05 -9.18485e-18 486.89 530.45)" font-style="normal" font-weight="normal" font-size="240px" font-family="Times New Roman" >
C</text>
<text x="0" y="0" stroke="none" fill="#0000ff" transform="matrix(-9.18485e-18 -0.05 0.05 -9.18485e-18 489.486 522.446)" font-style="normal" font-weight="normal" font-size="180px" font-family="Times New Roman" >
6</text>
<text x="0" y="0" stroke="none" fill="#0000ff" transform="matrix(-9.18485e-18 -0.05 0.05 -9.18485e-18 486.89 517.946)" font-style="normal" font-weight="normal" font-size="240px" font-family="Times New Roman" >
H</text>
<text x="0" y="0" stroke="none" fill="#0000ff" transform="matrix(-9.18485e-18 -0.05 0.05 -9.18485e-18 489.486 509.28)" font-style="normal" font-weight="normal" font-size="180px" font-family="Times New Roman" >
6</text>
<text x="0" y="0" stroke="none" fill="#0000ff" transform="matrix(-9.18485e-18 -0.05 0.05 -9.18485e-18 486.89 504.78)" font-style="normal" font-weight="normal" font-size="240px" font-family="Times New Roman" >
, </text>
<text x="0" y="0" stroke="none" fill="#0000ff" transform="matrix(-9.18485e-18 -0.05 0.05 -9.18485e-18 486.89 499.442)" font-style="normal" font-weight="normal" font-size="240px" font-family="Times New Roman" >
AlCl</text>
<text x="0" y="0" stroke="none" fill="#0000ff" transform="matrix(-9.18485e-18 -0.05 0.05 -9.18485e-18 489.486 476.104)" font-style="normal" font-weight="normal" font-size="180px" font-family="Times New Roman" >
3</text>
<path stroke="none" fill="#0000ff" transform="matrix(0.05 0 0 0.05 -50 -41)" d="M 14046.6,10057.8 L 11639.8,10057.8 L 11639.8,10025.8 L 14046.6,10025.8 Z " />
<path stroke="none" fill="#0000ff" transform="matrix(0.05 0 0 0.05 -50 -41)" d="M 14325.6,10041.8 C 14325.6,10041.8 14005.6,10122.8 14005.6,10122.8 C 14005.6,10122.8 14045.6,10077.2 14045.6,10041.8 C 14045.6,10005.9 14005.6,9959.8 14005.6,9959.8 C 14005.6,9959.8 14325.6,10041.8 14325.6,10041.8 C 14325.6,10041.8 14325.6,10041.8 14325.6,10041.8 " />
<path stroke="#0000ff" stroke-width="1" fill="none" transform="matrix(0.05 0 0 0.05 -50 -41)" d="M 14325.6,10041.8 C 14325.6,10041.8 14005.6,10122.8 14005.6,10122.8 C 14005.6,10122.8 14045.6,10077.2 14045.6,10041.8 C 14045.6,10005.9 14005.6,9959.8 14005.6,9959.8 C 14005.6,9959.8 14325.6,10041.8 14325.6,10041.8 C 14325.6,10041.8 14325.6,10041.8 14325.6,10041.8 " />
<text x="0" y="0" stroke="none" fill="#0000ff" transform="matrix(0.05 0 0 0.05 566.49 455.987)" font-style="normal" font-weight="normal" font-size="288px" font-family="Times New Roman" >
NH</text>
<text x="0" y="0" stroke="none" fill="#0000ff" transform="matrix(0.05 0 0 0.05 587.289 459.102)" font-style="normal" font-weight="normal" font-size="216px" font-family="Times New Roman" >
3 </text>
<text x="0" y="0" stroke="none" fill="#0000ff" transform="matrix(0.05 0 0 0.05 595.389 455.987)" font-style="normal" font-weight="normal" font-size="288px" font-family="Times New Roman" >
(excess)</text>
<text x="0" y="0" stroke="none" fill="#0000ff" transform="matrix(0.05 0 0 0.05 681.837 466.028)" font-style="normal" font-weight="normal" font-size="240px" font-family="Arial" >
R</text>
<text x="0" y="0" stroke="none" fill="#0000ff" transform="matrix(0.05 0 0 0.05 711.837 466.028)" font-style="normal" font-weight="normal" font-size="240px" font-family="Arial" >
NH</text>
<text x="0" y="0" stroke="none" fill="#0000ff" transform="matrix(0.05 0 0 0.05 729.169 468.571)" font-style="normal" font-weight="normal" font-size="180px" font-family="Arial" >
2</text>
<path stroke="none" fill="#0000ff" transform="matrix(0.05 0 0 0.05 -50 -41)" d="M 14846.6,10070.6 L 14846.6,10038.6 L 15213,10038.6 L 15213,10070.6 L 14846.6,10070.6 Z " />
<text x="0" y="0" stroke="none" fill="#0000ff" transform="matrix(0.05 0 0 0.05 741.7 467.86)" font-style="normal" font-weight="normal" font-size="240px" font-family="Times New Roman" >
+ </text>
<text x="0" y="0" stroke="none" fill="#0000ff" transform="matrix(0.05 0 0 0.05 751.468 467.86)" font-style="normal" font-weight="normal" font-size="240px" font-family="Times New Roman" >
 </text>
<text x="0" y="0" stroke="none" fill="#0000ff" transform="matrix(0.05 0 0 0.05 754.468 467.86)" font-style="normal" font-weight="normal" font-size="240px" font-family="Times New Roman" >
 </text>
<text x="0" y="0" stroke="none" fill="#0000ff" transform="matrix(0.05 0 0 0.05 757.468 467.86)" font-style="normal" font-weight="normal" font-size="240px" font-family="Times New Roman" >
NaI</text>
<path stroke="none" fill="#0000ff" transform="matrix(0.05 0 0 0.05 -50 -41)" d="M 14046.6,10724.8 L 11639.8,10724.8 L 11639.8,10692.8 L 14046.6,10692.8 Z " />
<path stroke="none" fill="#0000ff" transform="matrix(0.05 0 0 0.05 -50 -41)" d="M 14325.6,10708.8 C 14325.6,10708.8 14005.6,10789.8 14005.6,10789.8 C 14005.6,10789.8 14045.6,10744.2 14045.6,10708.8 C 14045.6,10672.9 14005.6,10626.8 14005.6,10626.8 C 14005.6,10626.8 14325.6,10708.8 14325.6,10708.8 C 14325.6,10708.8 14325.6,10708.8 14325.6,10708.8 " />
<path stroke="#0000ff" stroke-width="1" fill="none" transform="matrix(0.05 0 0 0.05 -50 -41)" d="M 14325.6,10708.8 C 14325.6,10708.8 14005.6,10789.8 14005.6,10789.8 C 14005.6,10789.8 14045.6,10744.2 14045.6,10708.8 C 14045.6,10672.9 14005.6,10626.8 14005.6,10626.8 C 14005.6,10626.8 14325.6,10708.8 14325.6,10708.8 C 14325.6,10708.8 14325.6,10708.8 14325.6,10708.8 " />
<text x="0" y="0" stroke="none" fill="#000000" transform="matrix(0.05 0 0 0.05 579.74 489.86)" font-style="normal" font-weight="normal" font-size="240px" font-family="Times New Roman" >
N</text>
<text x="0" y="0" stroke="none" fill="#000000" transform="matrix(0.05 0 0 0.05 588.406 492.456)" font-style="normal" font-weight="normal" font-size="180px" font-family="Times New Roman" >
3</text>
<text x="0" y="0" stroke="none" fill="#000000" transform="matrix(0.05 0 0 0.05 592.906 485.887)" font-style="normal" font-weight="normal" font-size="180px" font-family="Times New Roman" >
-</text>
<text x="0" y="0" stroke="none" fill="#0000ff" transform="matrix(0.05 0 0 0.05 682.607 498.178)" font-style="normal" font-weight="normal" font-size="240px" font-family="Arial" >
R</text>
<text x="0" y="0" stroke="none" fill="#000000" transform="matrix(0.05 0 0 0.05 712.607 498.178)" font-style="normal" font-weight="normal" font-size="240px" font-family="Arial" >
N</text>
<text x="0" y="0" stroke="none" fill="#000000" transform="matrix(0.05 0 0 0.05 721.273 500.721)" font-style="normal" font-weight="normal" font-size="180px" font-family="Arial" >
3</text>
<path stroke="none" fill="#0000ff" transform="matrix(0.05 0 0 0.05 -50 -41)" d="M 14862,10713.6 L 14862,10681.6 L 15229.4,10681.6 L 15229.4,10713.6 L 14862,10713.6 Z " />
<text x="0" y="0" stroke="none" fill="#0000ff" transform="matrix(0.05 0 0 0.05 730.7 499.86)" font-style="normal" font-weight="normal" font-size="240px" font-family="Times New Roman" >
+ </text>
<text x="0" y="0" stroke="none" fill="#0000ff" transform="matrix(0.05 0 0 0.05 740.468 499.86)" font-style="normal" font-weight="normal" font-size="240px" font-family="Times New Roman" >
 </text>
<text x="0" y="0" stroke="none" fill="#0000ff" transform="matrix(0.05 0 0 0.05 743.468 499.86)" font-style="normal" font-weight="normal" font-size="240px" font-family="Times New Roman" >
 </text>
<text x="0" y="0" stroke="none" fill="#0000ff" transform="matrix(0.05 0 0 0.05 746.468 499.86)" font-style="normal" font-weight="normal" font-size="240px" font-family="Times New Roman" >
X</text>
<text x="0" y="0" stroke="none" fill="#0000ff" transform="matrix(0.05 0 0 0.05 755.134 495.887)" font-style="normal" font-weight="normal" font-size="180px" font-family="Times New Roman" >
-</text>
<text x="0" y="0" stroke="none" fill="#000000" transform="matrix(0.05 0 0 0.05 189.05 371.9)" font-style="normal" font-weight="normal" font-size="240px" font-family="Times New Roman" >
(Adv </text>
<text x="0" y="0" stroke="none" fill="#000000" transform="matrix(0.05 0 0 0.05 216.712 371.9)" font-style="normal" font-weight="normal" font-size="240px" font-family="Times New Roman" >
1983)</text>
<path stroke="none" fill="#0000ff" transform="matrix(0.05 0 0 0.05 -50 -41)" d="M 14066.6,11424.8 L 11659.8,11424.8 L 11659.8,11392.8 L 14066.6,11392.8 Z " />
<path stroke="none" fill="#0000ff" transform="matrix(0.05 0 0 0.05 -50 -41)" d="M 14345.6,11408.8 C 14345.6,11408.8 14025.6,11489.8 14025.6,11489.8 C 14025.6,11489.8 14065.6,11444.2 14065.6,11408.8 C 14065.6,11372.9 14025.6,11326.8 14025.6,11326.8 C 14025.6,11326.8 14345.6,11408.8 14345.6,11408.8 C 14345.6,11408.8 14345.6,11408.8 14345.6,11408.8 " />
<path stroke="#0000ff" stroke-width="1" fill="none" transform="matrix(0.05 0 0 0.05 -50 -41)" d="M 14345.6,11408.8 C 14345.6,11408.8 14025.6,11489.8 14025.6,11489.8 C 14025.6,11489.8 14065.6,11444.2 14065.6,11408.8 C 14065.6,11372.9 14025.6,11326.8 14025.6,11326.8 C 14025.6,11326.8 14345.6,11408.8 14345.6,11408.8 C 14345.6,11408.8 14345.6,11408.8 14345.6,11408.8 " />
<text x="0" y="0" stroke="none" fill="#0000ff" transform="matrix(0.05 0 0 0.05 580.74 524.86)" font-style="normal" font-weight="normal" font-size="240px" font-family="Times New Roman" >
I</text>
<text x="0" y="0" stroke="none" fill="#0000ff" transform="matrix(0.05 0 0 0.05 584.736 520.887)" font-style="normal" font-weight="normal" font-size="180px" font-family="Times New Roman" >
-</text>
<text x="0" y="0" stroke="none" fill="#0000ff" transform="matrix(0.05 0 0 0.05 587.733 524.86)" font-style="normal" font-weight="normal" font-size="240px" font-family="Times New Roman" >
 </text>
<text x="0" y="0" stroke="none" fill="#0000ff" transform="matrix(0.05 0 0 0.05 590.733 524.86)" font-style="normal" font-weight="normal" font-size="240px" font-family="Times New Roman" >
/acetone</text>
<text x="0" y="0" stroke="none" fill="#0000ff" transform="matrix(0.05 0 0 0.05 683.607 533.178)" font-style="normal" font-weight="normal" font-size="240px" font-family="Arial" >
R</text>
<text x="0" y="0" stroke="none" fill="#0000ff" transform="matrix(0.05 0 0 0.05 716.273 533.178)" font-style="normal" font-weight="normal" font-size="240px" font-family="Arial" >
I</text>
<path stroke="none" fill="#0000ff" transform="matrix(0.05 0 0 0.05 -50 -41)" d="M 14882,11413.6 L 14882,11381.6 L 15307.8,11381.6 L 15307.8,11413.6 L 14882,11413.6 Z " />
<text x="0" y="0" stroke="none" fill="#0000ff" transform="matrix(0.05 0 0 0.05 731.7 534.86)" font-style="normal" font-weight="normal" font-size="240px" font-family="Times New Roman" >
+ </text>
<text x="0" y="0" stroke="none" fill="#0000ff" transform="matrix(0.05 0 0 0.05 741.468 534.86)" font-style="normal" font-weight="normal" font-size="240px" font-family="Times New Roman" >
 </text>
<text x="0" y="0" stroke="none" fill="#0000ff" transform="matrix(0.05 0 0 0.05 744.468 534.86)" font-style="normal" font-weight="normal" font-size="240px" font-family="Times New Roman" >
 </text>
<text x="0" y="0" stroke="none" fill="#0000ff" transform="matrix(0.05 0 0 0.05 747.468 534.86)" font-style="normal" font-weight="normal" font-size="240px" font-family="Times New Roman" >
X</text>
<text x="0" y="0" stroke="none" fill="#0000ff" transform="matrix(0.05 0 0 0.05 756.134 530.887)" font-style="normal" font-weight="normal" font-size="180px" font-family="Times New Roman" >
-</text>
<text x="0" y="0" stroke="none" fill="#000000" transform="matrix(0.05 0 0 0.05 456.78 334.5)" font-style="normal" font-weight="normal" font-size="240px" font-family="Times New Roman" >
or </text>
<text x="0" y="0" stroke="none" fill="#000000" transform="matrix(0.05 0 0 0.05 469.776 334.5)" font-style="normal" font-weight="normal" font-size="240px" font-family="Times New Roman" >
Elimination</text>
<text x="0" y="0" stroke="none" fill="#0000ff" transform="matrix(0.05 0 0 0.05 831 260)" font-style="normal" font-weight="normal" font-size="320px" font-family="Helvetica" >
or </text>
<text x="0" y="0" stroke="none" fill="#0000ff" transform="matrix(0.05 0 0 0.05 848.797 260)" font-style="normal" font-weight="normal" font-size="320px" font-family="Helvetica" >
Alkene</text>
</svg>
