<?xml version="1.0" standalone="no" ?>
<!DOCTYPE svg PUBLIC "-//W3C//DTD SVG 1.1//EN" "http://www.w3.org/Graphics/SVG/1.1/DTD/svg11.dtd">
<svg width="960px" height="330px" viewBox="0 0 960 330" style="background-color: #ffffff00" xmlns="http://www.w3.org/2000/svg" xmlns:xlink="http://www.w3.org/1999/xlink" version="1.1" >
<text x="0" y="0" stroke="none" fill="#0000ff" transform="matrix(0.05 0 0 0.05 2.12183 57.5385)" font-style="normal" font-weight="normal" font-size="280px" font-family="Chalkboard" >
R</text>
<path stroke="none" fill="#0000ff" transform="matrix(0.05 0 0 0.05 -57 -88)" d="M 1382.61,2767.61 L 1366.61,2739.9 L 1789.44,2495.04 L 1789.43,2532.04 L 1382.61,2767.61 Z " />
<text x="0" y="0" stroke="none" fill="#0000ff" transform="matrix(0.05 0 0 0.05 54.3463 57.5385)" font-style="normal" font-weight="normal" font-size="280px" font-family="Chalkboard" >
Cl</text>
<path stroke="none" fill="#0000ff" transform="matrix(0.05 0 0 0.05 -57 -88)" d="M 1789.43,2532.04 L 1789.44,2495.04 L 2225.58,2747.56 L 2209.58,2775.27 L 1789.43,2532.04 Z " />
<text x="0" y="0" stroke="none" fill="#0000ff" transform="matrix(0.05 0 0 0.05 27.391 12.5385)" font-style="normal" font-weight="normal" font-size="280px" font-family="Chalkboard" >
O</text>
<path stroke="none" fill="#0000ff" transform="matrix(0.05 0 0 0.05 -57 -88)" d="M 1760.46,2540.22 L 1728.46,2540.22 L 1728.46,2058.17 L 1760.46,2058.17 L 1760.46,2540.22 Z " />
<path stroke="none" fill="#0000ff" transform="matrix(0.05 0 0 0.05 -57 -88)" d="M 1850.46,2540.22 L 1818.46,2540.22 L 1818.46,2058.17 L 1850.46,2058.17 L 1850.46,2540.22 Z " />
<text x="0" y="0" stroke="none" fill="#0000ff" transform="matrix(0.05 0 0 0.05 94.7858 120.173)" font-style="normal" font-weight="normal" font-size="280px" font-family="Chalkboard" >
R</text>
<path stroke="none" fill="#0000ff" transform="matrix(0.05 0 0 0.05 -57 -88)" d="M 3235.88,4020.29 L 3219.88,3992.58 L 3642.74,3747.7 L 3642.74,3784.7 L 3235.88,4020.29 Z " />
<text x="0" y="0" stroke="none" fill="#0000ff" transform="matrix(0.05 0 0 0.05 146.036 120.173)" font-style="normal" font-weight="normal" font-size="280px" font-family="Chalkboard" >
O</text>
<path stroke="none" fill="#0000ff" transform="matrix(0.05 0 0 0.05 -57 -88)" d="M 3642.74,3784.7 L 3642.74,3747.7 L 4060.79,3989.81 L 4044.79,4017.52 L 3642.74,3784.7 Z " />
<text x="0" y="0" stroke="none" fill="#0000ff" transform="matrix(0.05 0 0 0.05 120.055 75.1725)" font-style="normal" font-weight="normal" font-size="280px" font-family="Chalkboard" >
O</text>
<path stroke="none" fill="#0000ff" transform="matrix(0.05 0 0 0.05 -57 -88)" d="M 3613.73,3792.9 L 3581.74,3792.9 L 3581.74,3310.85 L 3613.73,3310.85 L 3613.73,3792.9 Z " />
<path stroke="none" fill="#0000ff" transform="matrix(0.05 0 0 0.05 -57 -88)" d="M 3703.73,3792.9 L 3671.74,3792.9 L 3671.74,3310.85 L 3703.73,3310.85 L 3703.73,3792.9 Z " />
<path stroke="none" fill="#0000ff" transform="matrix(0.05 0 0 0.05 -57 -88)" d="M 4286.17,4013.91 L 4270.17,3986.2 L 4681.97,3747.68 L 4681.97,3784.69 L 4286.17,4013.91 Z " />
<text x="0" y="0" stroke="none" fill="#0000ff" transform="matrix(0.05 0 0 0.05 198.709 120.172)" font-style="normal" font-weight="normal" font-size="280px" font-family="Chalkboard" >
R’</text>
<path stroke="none" fill="#0000ff" transform="matrix(0.05 0 0 0.05 -57 -88)" d="M 4681.97,3784.69 L 4681.97,3747.68 L 5089.06,3983.48 L 5073.06,4011.19 L 4681.97,3784.69 Z " />
<text x="0" y="0" stroke="none" fill="#0000ff" transform="matrix(0.05 0 0 0.05 172.017 75.1725)" font-style="normal" font-weight="normal" font-size="280px" font-family="Chalkboard" >
O</text>
<path stroke="none" fill="#0000ff" transform="matrix(0.05 0 0 0.05 -57 -88)" d="M 4652.97,3792.9 L 4620.97,3792.9 L 4620.97,3310.85 L 4652.97,3310.85 L 4652.97,3792.9 Z " />
<path stroke="none" fill="#0000ff" transform="matrix(0.05 0 0 0.05 -57 -88)" d="M 4742.97,3792.9 L 4710.97,3792.9 L 4710.97,3310.85 L 4742.97,3310.85 L 4742.97,3792.9 Z " />
<text x="0" y="0" stroke="none" fill="#0000ff" transform="matrix(0.05 0 0 0.05 229.492 189.67)" font-style="normal" font-weight="normal" font-size="280px" font-family="Chalkboard" >
R</text>
<path stroke="none" fill="#0000ff" transform="matrix(0.05 0 0 0.05 -57 -88)" d="M 5930,5410.25 L 5914,5382.54 L 6336.86,5137.66 L 6336.86,5174.66 L 5930,5410.25 Z " />
<text x="0" y="0" stroke="none" fill="#0000ff" transform="matrix(0.05 0 0 0.05 280.742 189.67)" font-style="normal" font-weight="normal" font-size="280px" font-family="Chalkboard" >
O</text>
<path stroke="none" fill="#0000ff" transform="matrix(0.05 0 0 0.05 -57 -88)" d="M 6336.86,5174.66 L 6336.86,5137.66 L 6754.91,5379.77 L 6738.91,5407.48 L 6336.86,5174.66 Z " />
<text x="0" y="0" stroke="none" fill="#0000ff" transform="matrix(0.05 0 0 0.05 254.761 144.67)" font-style="normal" font-weight="normal" font-size="280px" font-family="Chalkboard" >
O</text>
<path stroke="none" fill="#0000ff" transform="matrix(0.05 0 0 0.05 -57 -88)" d="M 6307.85,5182.86 L 6275.85,5182.86 L 6275.85,4700.81 L 6307.85,4700.81 L 6307.85,5182.86 Z " />
<path stroke="none" fill="#0000ff" transform="matrix(0.05 0 0 0.05 -57 -88)" d="M 6397.85,5182.86 L 6365.85,5182.86 L 6365.85,4700.81 L 6397.85,4700.81 L 6397.85,5182.86 Z " />
<text x="0" y="0" stroke="none" fill="#0000ff" transform="matrix(0.05 0 0 0.05 307.434 174.67)" font-style="normal" font-weight="normal" font-size="280px" font-family="Chalkboard" >
R’</text>
<path stroke="none" fill="#0000ff" transform="matrix(0.05 0 0 0.05 -57 -88)" d="M 6980.29,5403.87 L 6964.29,5376.16 L 7237.19,5218.6 L 7253.19,5246.31 L 6980.29,5403.87 Z " />
<text x="0" y="0" stroke="none" fill="#0000ff" transform="matrix(0.05 0 0 0.05 332.452 247.156)" font-style="normal" font-weight="normal" font-size="280px" font-family="Chalkboard" >
R</text>
<path stroke="none" fill="#0000ff" transform="matrix(0.05 0 0 0.05 -57 -88)" d="M 7989.2,6559.97 L 7973.2,6532.26 L 8396.08,6287.36 L 8396.09,6324.37 L 7989.2,6559.97 Z " />
<text x="0" y="0" stroke="none" fill="#0000ff" transform="matrix(0.05 0 0 0.05 384.189 247.156)" font-style="normal" font-weight="normal" font-size="280px" font-family="Chalkboard" >
NH</text>
<text x="0" y="0" stroke="none" fill="#0000ff" transform="matrix(0.05 0 0 0.05 402.087 251.117)" font-style="normal" font-weight="normal" font-size="210px" font-family="Chalkboard" >
2</text>
<text x="0" y="0" stroke="none" fill="#0000ff" transform="matrix(0.05 0 0 0.05 407.61 247.156)" font-style="normal" font-weight="normal" font-size="280px" font-family="Chalkboard" >
/NHR/NR</text>
<text x="0" y="0" stroke="none" fill="#0000ff" transform="matrix(0.05 0 0 0.05 466.719 251.117)" font-style="normal" font-weight="normal" font-size="210px" font-family="Chalkboard" >
2</text>
<path stroke="none" fill="#0000ff" transform="matrix(0.05 0 0 0.05 -57 -88)" d="M 8396.09,6324.37 L 8396.08,6287.36 L 8799.03,6520.78 L 8783.03,6548.5 L 8396.09,6324.37 Z " />
<text x="0" y="0" stroke="none" fill="#0000ff" transform="matrix(0.05 0 0 0.05 357.721 202.156)" font-style="normal" font-weight="normal" font-size="280px" font-family="Chalkboard" >
O</text>
<path stroke="none" fill="#0000ff" transform="matrix(0.05 0 0 0.05 -57 -88)" d="M 8367.05,6332.58 L 8335.05,6332.58 L 8335.05,5850.53 L 8367.05,5850.53 L 8367.05,6332.58 Z " />
<path stroke="none" fill="#0000ff" transform="matrix(0.05 0 0 0.05 -57 -88)" d="M 8457.05,6332.58 L 8425.05,6332.58 L 8425.05,5850.53 L 8457.05,5850.53 L 8457.05,6332.58 Z " />
<text x="0" y="0" stroke="none" fill="#0000ff" transform="matrix(0.05 0 0 0.05 489.466 317.513)" font-style="normal" font-weight="normal" font-size="280px" font-family="Chalkboard" >
R</text>
<path stroke="none" fill="#0000ff" transform="matrix(0.05 0 0 0.05 -57 -88)" d="M 11129.5,7967.09 L 11113.5,7939.38 L 11536.3,7694.5 L 11536.3,7731.5 L 11129.5,7967.09 Z " />
<text x="0" y="0" stroke="none" fill="#0000ff" transform="matrix(0.05 0 0 0.05 540.716 317.513)" font-style="normal" font-weight="normal" font-size="280px" font-family="Chalkboard" >
O</text>
<path stroke="none" fill="#0000ff" transform="matrix(0.05 0 0 0.05 -57 -88)" d="M 11536.3,7731.5 L 11536.3,7694.5 L 11954.4,7936.61 L 11938.4,7964.32 L 11536.3,7731.5 Z " />
<text x="0" y="0" stroke="none" fill="#0000ff" transform="matrix(0.05 0 0 0.05 514.735 272.513)" font-style="normal" font-weight="normal" font-size="280px" font-family="Chalkboard" >
O</text>
<path stroke="none" fill="#0000ff" transform="matrix(0.05 0 0 0.05 -57 -88)" d="M 11507.3,7739.7 L 11475.3,7739.7 L 11475.3,7257.65 L 11507.3,7257.65 L 11507.3,7739.7 Z " />
<path stroke="none" fill="#0000ff" transform="matrix(0.05 0 0 0.05 -57 -88)" d="M 11597.3,7739.7 L 11565.3,7739.7 L 11565.3,7257.65 L 11597.3,7257.65 L 11597.3,7739.7 Z " />
<path stroke="none" fill="#0000ff" transform="matrix(0.05 0 0 0.05 -57 -88)" d="M 12153.1,7906.47 L 12278.5,7906.47 L 12278.5,7932.47 L 12153.1,7932.47 Z " />
<text x="0" y="0" stroke="none" fill="#0000ff" transform="matrix(0.05 0 0 0.05 487.75 66.1185)" font-style="normal" font-weight="normal" font-size="280px" font-family="Chalkboard" >
R</text>
<path stroke="none" fill="#0000ff" transform="matrix(0.05 0 0 0.05 -57 -88)" d="M 11095.2,2939.21 L 11079.2,2911.5 L 11502,2666.62 L 11502,2703.62 L 11095.2,2939.21 Z " />
<text x="0" y="0" stroke="none" fill="#0000ff" transform="matrix(0.05 0 0 0.05 539 66.1185)" font-style="normal" font-weight="normal" font-size="280px" font-family="Chalkboard" >
OH</text>
<path stroke="none" fill="#0000ff" transform="matrix(0.05 0 0 0.05 -57 -88)" d="M 11502,2703.62 L 11502,2666.62 L 11920.1,2908.73 L 11904.1,2936.44 L 11502,2703.62 Z " />
<text x="0" y="0" stroke="none" fill="#0000ff" transform="matrix(0.05 0 0 0.05 513.019 21.1185)" font-style="normal" font-weight="normal" font-size="280px" font-family="Chalkboard" >
O</text>
<path stroke="none" fill="#0000ff" transform="matrix(0.05 0 0 0.05 -57 -88)" d="M 11473,2711.82 L 11441,2711.82 L 11441,2229.77 L 11473,2229.77 L 11473,2711.82 Z " />
<path stroke="none" fill="#0000ff" transform="matrix(0.05 0 0 0.05 -57 -88)" d="M 11563,2711.82 L 11531,2711.82 L 11531,2229.77 L 11563,2229.77 L 11563,2711.82 Z " />
<path stroke="none" fill="#0000ff" transform="matrix(0.05 0 0 0.05 -57 -88)" d="M 1751.48,7927.92 L 1751.48,3037.32 L 1783.48,3037.32 L 1783.48,7927.92 Z " />
<path stroke="none" fill="#0000ff" transform="matrix(0.05 0 0 0.05 -57 -88)" d="M 10394.5,7943.92 L 1767.48,7943.92 L 1767.48,7911.92 L 10394.5,7911.92 Z " />
<path stroke="none" fill="#0000ff" transform="matrix(0.05 0 0 0.05 -57 -88)" d="M 10673.5,7927.92 C 10673.5,7927.92 10353.5,8008.92 10353.5,8008.92 C 10353.5,8008.92 10393.5,7963.36 10393.5,7927.92 C 10393.5,7892.05 10353.5,7845.92 10353.5,7845.92 C 10353.5,7845.92 10673.5,7927.92 10673.5,7927.92 C 10673.5,7927.92 10673.5,7927.92 10673.5,7927.92 " />
<path stroke="#0000ff" stroke-width="1" fill="none" transform="matrix(0.05 0 0 0.05 -57 -88)" d="M 10673.5,7927.92 C 10673.5,7927.92 10353.5,8008.92 10353.5,8008.92 C 10353.5,8008.92 10393.5,7963.36 10393.5,7927.92 C 10393.5,7892.05 10353.5,7845.92 10353.5,7845.92 C 10353.5,7845.92 10673.5,7927.92 10673.5,7927.92 C 10673.5,7927.92 10673.5,7927.92 10673.5,7927.92 " />
<text x="0" y="0" stroke="none" fill="#0000ff" transform="matrix(0.05 0 0 0.05 35.5789 299.816)" font-style="normal" font-weight="normal" font-size="280px" font-family="Chalkboard" >
NaOH</text>
<path stroke="none" fill="#0000ff" transform="matrix(0.05 0 0 0.05 -57 -88)" d="M 4153.88,7910.76 L 4153.88,4444.44 L 4185.88,4444.44 L 4185.88,7910.76 Z " />
<path stroke="none" fill="#0000ff" transform="matrix(0.05 0 0 0.05 -57 -88)" d="M 6350.36,7910.76 L 6350.36,5714.28 L 6382.36,5714.28 L 6382.36,7910.76 Z " />
<text x="0" y="0" stroke="none" fill="#0000ff" transform="matrix(0.05 0 0 0.05 155.699 298.958)" font-style="normal" font-weight="normal" font-size="280px" font-family="Chalkboard" >
NaOH</text>
<text x="0" y="0" stroke="none" fill="#0000ff" transform="matrix(0.05 0 0 0.05 264.665 301.532)" font-style="normal" font-weight="normal" font-size="280px" font-family="Chalkboard" >
NaOH</text>
<path stroke="none" fill="#0000ff" transform="matrix(0.05 0 0 0.05 -57 -88)" d="M 8409.56,7927.92 L 8409.56,6898.32 L 8441.56,6898.32 L 8441.56,7927.92 Z " />
<text x="0" y="0" stroke="none" fill="#0000ff" transform="matrix(0.05 0 0 0.05 367.625 298.1)" font-style="normal" font-weight="normal" font-size="280px" font-family="Chalkboard" >
NaOH </text>
<text x="0" y="0" stroke="none" fill="#0000ff" transform="matrix(0.05 0 0 0.05 408.372 298.1)" font-style="normal" font-weight="normal" font-size="280px" font-family="Chalkboard" >
+</text>
<text x="0" y="0" stroke="none" fill="#0000ff" transform="matrix(0.05 0 0 0.05 415.921 298.1)" font-style="normal" font-weight="normal" font-size="280px" font-family="Symbol" >
D</text>
<path stroke="none" fill="#0000ff" transform="matrix(0.05 0 0 0.05 -57 -88)" d="M 7340.04,6519.64 L 1767.48,6519.64 L 1767.48,6487.64 L 7340.04,6487.64 Z " />
<path stroke="none" fill="#0000ff" transform="matrix(0.05 0 0 0.05 -57 -88)" d="M 7619.04,6503.64 C 7619.04,6503.64 7299.04,6584.64 7299.04,6584.64 C 7299.04,6584.64 7339.04,6539.08 7339.04,6503.64 C 7339.04,6467.77 7299.04,6421.64 7299.04,6421.64 C 7299.04,6421.64 7619.04,6503.64 7619.04,6503.64 C 7619.04,6503.64 7619.04,6503.64 7619.04,6503.64 " />
<path stroke="#0000ff" stroke-width="1" fill="none" transform="matrix(0.05 0 0 0.05 -57 -88)" d="M 7619.04,6503.64 C 7619.04,6503.64 7299.04,6584.64 7299.04,6584.64 C 7299.04,6584.64 7339.04,6539.08 7339.04,6503.64 C 7339.04,6467.77 7299.04,6421.64 7299.04,6421.64 C 7299.04,6421.64 7619.04,6503.64 7619.04,6503.64 C 7619.04,6503.64 7619.04,6503.64 7619.04,6503.64 " />
<text x="0" y="0" stroke="none" fill="#0000ff" transform="matrix(0.05 0 0 0.05 265.523 232.034)" font-style="normal" font-weight="normal" font-size="280px" font-family="Chalkboard" >
NaNH</text>
<text x="0" y="0" stroke="none" fill="#0000ff" transform="matrix(0.05 0 0 0.05 299.943 235.994)" font-style="normal" font-weight="normal" font-size="210px" font-family="Chalkboard" >
2</text>
<text x="0" y="0" stroke="none" fill="#0000ff" transform="matrix(0.05 0 0 0.05 155.699 230.318)" font-style="normal" font-weight="normal" font-size="280px" font-family="Chalkboard" >
NaNH</text>
<text x="0" y="0" stroke="none" fill="#0000ff" transform="matrix(0.05 0 0 0.05 190.119 234.278)" font-style="normal" font-weight="normal" font-size="210px" font-family="Chalkboard" >
2</text>
<text x="0" y="0" stroke="none" fill="#0000ff" transform="matrix(0.05 0 0 0.05 34.7209 230.318)" font-style="normal" font-weight="normal" font-size="280px" font-family="Chalkboard" >
NaNH</text>
<text x="0" y="0" stroke="none" fill="#0000ff" transform="matrix(0.05 0 0 0.05 69.1408 234.278)" font-style="normal" font-weight="normal" font-size="210px" font-family="Chalkboard" >
2</text>
<path stroke="none" fill="#0000ff" transform="matrix(0.05 0 0 0.05 -57 -88)" d="M 5315.16,5438.56 L 1767.48,5438.56 L 1767.48,5406.56 L 5315.16,5406.56 Z " />
<path stroke="none" fill="#0000ff" transform="matrix(0.05 0 0 0.05 -57 -88)" d="M 5594.16,5422.56 C 5594.16,5422.56 5274.16,5503.56 5274.16,5503.56 C 5274.16,5503.56 5314.16,5458 5314.16,5422.56 C 5314.16,5386.69 5274.16,5340.56 5274.16,5340.56 C 5274.16,5340.56 5594.16,5422.56 5594.16,5422.56 C 5594.16,5422.56 5594.16,5422.56 5594.16,5422.56 " />
<path stroke="#0000ff" stroke-width="1" fill="none" transform="matrix(0.05 0 0 0.05 -57 -88)" d="M 5594.16,5422.56 C 5594.16,5422.56 5274.16,5503.56 5274.16,5503.56 C 5274.16,5503.56 5314.16,5458 5314.16,5422.56 C 5314.16,5386.69 5274.16,5340.56 5274.16,5340.56 C 5274.16,5340.56 5594.16,5422.56 5594.16,5422.56 C 5594.16,5422.56 5594.16,5422.56 5594.16,5422.56 " />
<text x="0" y="0" stroke="none" fill="#0000ff" transform="matrix(0.05 0 0 0.05 36.4369 177.98)" font-style="normal" font-weight="normal" font-size="280px" font-family="Chalkboard" >
NaOR</text>
<text x="0" y="0" stroke="none" fill="#0000ff" transform="matrix(0.05 0 0 0.05 155.699 178.838)" font-style="normal" font-weight="normal" font-size="280px" font-family="Chalkboard" >
NaOR</text>
<path stroke="none" fill="#0000ff" transform="matrix(0.05 0 0 0.05 -57 -88)" d="M 2672.52,3859.84 L 1750.32,3859.84 L 1750.32,3827.84 L 2672.52,3827.84 Z " />
<path stroke="none" fill="#0000ff" transform="matrix(0.05 0 0 0.05 -57 -88)" d="M 2951.52,3843.84 C 2951.52,3843.84 2631.52,3924.84 2631.52,3924.84 C 2631.52,3924.84 2671.52,3879.28 2671.52,3843.84 C 2671.52,3807.97 2631.52,3761.84 2631.52,3761.84 C 2631.52,3761.84 2951.52,3843.84 2951.52,3843.84 C 2951.52,3843.84 2951.52,3843.84 2951.52,3843.84 " />
<path stroke="#0000ff" stroke-width="1" fill="none" transform="matrix(0.05 0 0 0.05 -57 -88)" d="M 2951.52,3843.84 C 2951.52,3843.84 2631.52,3924.84 2631.52,3924.84 C 2631.52,3924.84 2671.52,3879.28 2671.52,3843.84 C 2671.52,3807.97 2631.52,3761.84 2631.52,3761.84 C 2631.52,3761.84 2951.52,3843.84 2951.52,3843.84 C 2951.52,3843.84 2951.52,3843.84 2951.52,3843.84 " />
<text x="0" y="0" stroke="none" fill="#0000ff" transform="matrix(0.05 0 0 0.05 33.948 97.328)" font-style="normal" font-weight="normal" font-size="280px" font-family="Chalkboard" >
R’COONa</text>
<path stroke="none" fill="#0000ff" transform="matrix(0.05 0 0 0.05 -57 -88)" d="M 11547.5,3453.6 L 11547.5,6778.2 L 11515.5,6778.2 L 11515.5,3453.6 Z " />
<path stroke="none" fill="#0000ff" transform="matrix(0.05 0 0 0.05 -57 -88)" d="M 11531.5,3174.6 C 11531.5,3174.6 11612.5,3494.6 11612.5,3494.6 C 11612.5,3494.6 11567,3454.6 11531.5,3454.6 C 11495.6,3454.6 11449.5,3494.6 11449.5,3494.6 C 11449.5,3494.6 11531.5,3174.6 11531.5,3174.6 C 11531.5,3174.6 11531.5,3174.6 11531.5,3174.6 " />
<path stroke="#0000ff" stroke-width="1" fill="none" transform="matrix(0.05 0 0 0.05 -57 -88)" d="M 11531.5,3174.6 C 11531.5,3174.6 11612.5,3494.6 11612.5,3494.6 C 11612.5,3494.6 11567,3454.6 11531.5,3454.6 C 11495.6,3454.6 11449.5,3494.6 11449.5,3494.6 C 11449.5,3494.6 11531.5,3174.6 11531.5,3174.6 C 11531.5,3174.6 11531.5,3174.6 11531.5,3174.6 " />
<text x="0" y="0" stroke="none" fill="#0000ff" transform="matrix(0.05 0 0 0.05 525.582 161.678)" font-style="normal" font-weight="normal" font-size="280px" font-family="Chalkboard" >
H</text>
<text x="0" y="0" stroke="none" fill="#0000ff" transform="matrix(0.05 0 0 0.05 534.291 156.851)" font-style="normal" font-weight="normal" font-size="210px" font-family="Chalkboard" >
+</text>
<text x="0" y="0" stroke="none" fill="#0000ff" transform="matrix(0.05 0 0 0.05 263.623 323.84)" font-style="normal" font-weight="normal" font-size="280px" font-family="Chalkboard" >
(saponification)</text>
<path stroke="none" fill="#0000ff" transform="matrix(0.05 0 0 0.05 -57 -88)" d="M 10368.9,3032.12 L 7764.32,4475.6 L 7748.32,4447.6 L 10352.9,3004.12 Z " />
<path stroke="none" fill="#0000ff" transform="matrix(0.05 0 0 0.05 -57 -88)" d="M 10604.9,2882.88 C 10604.9,2882.88 10364.8,3108.97 10364.8,3108.97 C 10364.8,3108.97 10377.4,3049.66 10360,3018.61 C 10342.6,2987.56 10285.2,2967.03 10285.2,2967.03 C 10285.2,2967.03 10604.9,2882.88 10604.9,2882.88 C 10604.9,2882.88 10604.9,2882.88 10604.9,2882.88 " />
<path stroke="#0000ff" stroke-width="1" fill="none" transform="matrix(0.05 0 0 0.05 -57 -88)" d="M 10604.9,2882.88 C 10604.9,2882.88 10364.8,3108.97 10364.8,3108.97 C 10364.8,3108.97 10377.4,3049.66 10360,3018.61 C 10342.6,2987.56 10285.2,2967.03 10285.2,2967.03 C 10285.2,2967.03 10604.9,2882.88 10604.9,2882.88 C 10604.9,2882.88 10604.9,2882.88 10604.9,2882.88 " />
<text x="0" y="0" stroke="none" fill="#0000ff" transform="matrix(0.0449397 -0.0219186 0.0219186 0.0449397 371.987 104.75)" font-style="normal" font-weight="normal" font-size="280px" font-family="Chalkboard" >
dil. </text>
<text x="0" y="0" stroke="none" fill="#0000ff" transform="matrix(0.0449397 -0.0219186 0.0219186 0.0449397 392.162 94.9098)" font-style="normal" font-weight="normal" font-size="280px" font-family="Chalkboard" >
H</text>
<text x="0" y="0" stroke="none" fill="#0000ff" transform="matrix(0.0449397 -0.0219186 0.0219186 0.0449397 397.874 86.7538)" font-style="normal" font-weight="normal" font-size="210px" font-family="Chalkboard" >
+</text>
<path stroke="none" fill="#0000ff" transform="matrix(0.05 0 0 0.05 -57 -88)" d="M 10749.6,3472.77 L 8561.06,5492.01 L 8539.06,5468.01 L 10727.6,3448.77 Z " />
<path stroke="none" fill="#0000ff" transform="matrix(0.05 0 0 0.05 -57 -88)" d="M 10943.7,3271.59 C 10943.7,3271.59 10763.8,3548.37 10763.8,3548.37 C 10763.8,3548.37 10762.1,3487.61 10737.9,3461.45 C 10713.7,3435.29 10653.3,3428.78 10653.3,3428.78 C 10653.3,3428.78 10943.7,3271.59 10943.7,3271.59 C 10943.7,3271.59 10943.7,3271.59 10943.7,3271.59 " />
<path stroke="#0000ff" stroke-width="1" fill="none" transform="matrix(0.05 0 0 0.05 -57 -88)" d="M 10943.7,3271.59 C 10943.7,3271.59 10763.8,3548.37 10763.8,3548.37 C 10763.8,3548.37 10762.1,3487.61 10737.9,3461.45 C 10713.7,3435.29 10653.3,3428.78 10653.3,3428.78 C 10653.3,3428.78 10943.7,3271.59 10943.7,3271.59 C 10943.7,3271.59 10943.7,3271.59 10943.7,3271.59 " />
<text x="0" y="0" stroke="none" fill="#0000ff" transform="matrix(0.0383022 -0.0321394 0.0321394 0.0383022 403.32 146.783)" font-style="normal" font-weight="normal" font-size="280px" font-family="Chalkboard" >
dil. </text>
<text x="0" y="0" stroke="none" fill="#0000ff" transform="matrix(0.0383022 -0.0321394 0.0321394 0.0383022 420.515 132.354)" font-style="normal" font-weight="normal" font-size="280px" font-family="Chalkboard" >
H</text>
<text x="0" y="0" stroke="none" fill="#0000ff" transform="matrix(0.0383022 -0.0321394 0.0321394 0.0383022 424.084 123.059)" font-style="normal" font-weight="normal" font-size="210px" font-family="Chalkboard" >
+</text>
<path stroke="none" fill="#0000ff" transform="matrix(0.05 0 0 0.05 -57 -88)" d="M 2853,2540.84 L 10622,2540.84 L 10622,2572.84 L 2853,2572.84 Z " />
<path stroke="none" fill="#0000ff" transform="matrix(0.05 0 0 0.05 -57 -88)" d="M 2574,2556.84 C 2574,2556.84 2894,2474.84 2894,2474.84 C 2894,2474.84 2854,2520.97 2854,2556.84 C 2854,2592.28 2894,2637.84 2894,2637.84 C 2894,2637.84 2574,2556.84 2574,2556.84 C 2574,2556.84 2574,2556.84 2574,2556.84 " />
<path stroke="#0000ff" stroke-width="1" fill="none" transform="matrix(0.05 0 0 0.05 -57 -88)" d="M 2574,2556.84 C 2574,2556.84 2894,2474.84 2894,2474.84 C 2894,2474.84 2854,2520.97 2854,2556.84 C 2854,2592.28 2894,2637.84 2894,2637.84 C 2894,2637.84 2574,2556.84 2574,2556.84 C 2574,2556.84 2574,2556.84 2574,2556.84 " />
<text x="0" y="0" stroke="none" fill="#0000ff" transform="matrix(0.05 0 0 0.05 218.016 30.404)" font-style="normal" font-weight="normal" font-size="280px" font-family="Chalkboard" >
PX</text>
<text x="0" y="0" stroke="none" fill="#0000ff" transform="matrix(0.05 0 0 0.05 235.296 34.3641)" font-style="normal" font-weight="normal" font-size="210px" font-family="Chalkboard" >
3</text>
<text x="0" y="0" stroke="none" fill="#0000ff" transform="matrix(0.05 0 0 0.05 240.656 30.404)" font-style="normal" font-weight="normal" font-size="280px" font-family="Chalkboard" >
, </text>
<text x="0" y="0" stroke="none" fill="#0000ff" transform="matrix(0.05 0 0 0.05 249.582 30.404)" font-style="normal" font-weight="normal" font-size="280px" font-family="Chalkboard" >
PX</text>
<text x="0" y="0" stroke="none" fill="#0000ff" transform="matrix(0.05 0 0 0.05 266.862 34.3641)" font-style="normal" font-weight="normal" font-size="210px" font-family="Chalkboard" >
5</text>
<text x="0" y="0" stroke="none" fill="#0000ff" transform="matrix(0.05 0 0 0.05 272.303 30.404)" font-style="normal" font-weight="normal" font-size="280px" font-family="Chalkboard" >
, </text>
<text x="0" y="0" stroke="none" fill="#0000ff" transform="matrix(0.05 0 0 0.05 281.229 30.404)" font-style="normal" font-weight="normal" font-size="280px" font-family="Chalkboard" >
SOCl</text>
<text x="0" y="0" stroke="none" fill="#0000ff" transform="matrix(0.05 0 0 0.05 312.045 34.3641)" font-style="normal" font-weight="normal" font-size="210px" font-family="Chalkboard" >
2</text>
<text x="0" y="0" stroke="none" fill="#000000" transform="matrix(0.05 0 0 0.05 602.802 92.18)" font-style="normal" font-weight="bold" font-size="240px" font-family="Helvetica" >
•</text>
<text x="0" y="0" stroke="none" fill="#000000" transform="matrix(0.05 0 0 0.05 607.003 92.18)" font-style="normal" font-weight="normal" font-size="240px" font-family="Helvetica" >
 </text>
<text x="0" y="0" stroke="none" fill="#000000" transform="matrix(0.05 0 0 0.05 610.337 92.18)" font-style="normal" font-weight="normal" font-size="240px" font-family="Helvetica" >
 </text>
<text x="0" y="0" stroke="none" fill="#0000ff" transform="matrix(0.05 0 0 0.05 613.671 92.18)" font-style="normal" font-weight="normal" font-size="280px" font-family="Chalkboard" >
Trans-esterification </text>
<text x="0" y="0" stroke="none" fill="#0000ff" transform="matrix(0.05 0 0 0.05 739.981 92.18)" font-style="normal" font-weight="normal" font-size="280px" font-family="Chalkboard" >
and </text>
<text x="0" y="0" stroke="none" fill="#0000ff" transform="matrix(0.05 0 0 0.05 767.81 92.18)" font-style="normal" font-weight="normal" font-size="280px" font-family="Chalkboard" >
trans </text>
<text x="0" y="0" stroke="none" fill="#0000ff" transform="matrix(0.05 0 0 0.05 805.448 92.18)" font-style="normal" font-weight="normal" font-size="280px" font-family="Chalkboard" >
-anhydride </text>
<text x="0" y="0" stroke="none" fill="#0000ff" transform="matrix(0.05 0 0 0.05 879.486 92.18)" font-style="normal" font-weight="normal" font-size="280px" font-family="Chalkboard" >
also </text>
<text x="0" y="0" stroke="none" fill="#0000ff" transform="matrix(0.05 0 0 0.05 909.295 92.18)" font-style="normal" font-weight="normal" font-size="280px" font-family="Chalkboard" >
possible</text>
</svg>
