<?xml version="1.0" standalone="no" ?>
<!DOCTYPE svg PUBLIC "-//W3C//DTD SVG 1.1//EN" "http://www.w3.org/Graphics/SVG/1.1/DTD/svg11.dtd">
<svg width="1067px" height="330px" viewBox="0 0 1067 330" style="background-color: #ffffff00" xmlns="http://www.w3.org/2000/svg" xmlns:xlink="http://www.w3.org/1999/xlink" version="1.1" >
<text x="0" y="0" stroke="none" fill="#0000ff" transform="matrix(0.05 0 0 0.05 2.12183 57.5385)" font-style="normal" font-weight="normal" font-size="280px" font-family="Chalkboard" >
R</text>
<path stroke="none" fill="#0000ff" transform="matrix(0.05 0 0 0.05 -57 -88)" d="M 1382.61,2767.61 L 1366.61,2739.9 L 1789.44,2495.04 L 1789.43,2532.04 L 1382.61,2767.61 Z " />
<text x="0" y="0" stroke="none" fill="#0000ff" transform="matrix(0.05 0 0 0.05 54.3463 57.5385)" font-style="normal" font-weight="normal" font-size="280px" font-family="Chalkboard" >
Cl</text>
<path stroke="none" fill="#0000ff" transform="matrix(0.05 0 0 0.05 -57 -88)" d="M 1789.43,2532.04 L 1789.44,2495.04 L 2225.58,2747.56 L 2209.58,2775.27 L 1789.43,2532.04 Z " />
<text x="0" y="0" stroke="none" fill="#0000ff" transform="matrix(0.05 0 0 0.05 27.391 12.5385)" font-style="normal" font-weight="normal" font-size="280px" font-family="Chalkboard" >
O</text>
<path stroke="none" fill="#0000ff" transform="matrix(0.05 0 0 0.05 -57 -88)" d="M 1760.46,2540.22 L 1728.46,2540.22 L 1728.46,2058.17 L 1760.46,2058.17 L 1760.46,2540.22 Z " />
<path stroke="none" fill="#0000ff" transform="matrix(0.05 0 0 0.05 -57 -88)" d="M 1850.46,2540.22 L 1818.46,2540.22 L 1818.46,2058.17 L 1850.46,2058.17 L 1850.46,2540.22 Z " />
<text x="0" y="0" stroke="none" fill="#0000ff" transform="matrix(0.05 0 0 0.05 94.7858 120.173)" font-style="normal" font-weight="normal" font-size="280px" font-family="Chalkboard" >
R</text>
<path stroke="none" fill="#0000ff" transform="matrix(0.05 0 0 0.05 -57 -88)" d="M 3235.88,4020.29 L 3219.88,3992.58 L 3642.74,3747.7 L 3642.74,3784.7 L 3235.88,4020.29 Z " />
<text x="0" y="0" stroke="none" fill="#0000ff" transform="matrix(0.05 0 0 0.05 146.036 120.173)" font-style="normal" font-weight="normal" font-size="280px" font-family="Chalkboard" >
O</text>
<path stroke="none" fill="#0000ff" transform="matrix(0.05 0 0 0.05 -57 -88)" d="M 3642.74,3784.7 L 3642.74,3747.7 L 4060.79,3989.81 L 4044.79,4017.52 L 3642.74,3784.7 Z " />
<text x="0" y="0" stroke="none" fill="#0000ff" transform="matrix(0.05 0 0 0.05 120.055 75.1725)" font-style="normal" font-weight="normal" font-size="280px" font-family="Chalkboard" >
O</text>
<path stroke="none" fill="#0000ff" transform="matrix(0.05 0 0 0.05 -57 -88)" d="M 3613.73,3792.9 L 3581.74,3792.9 L 3581.74,3310.85 L 3613.73,3310.85 L 3613.73,3792.9 Z " />
<path stroke="none" fill="#0000ff" transform="matrix(0.05 0 0 0.05 -57 -88)" d="M 3703.73,3792.9 L 3671.74,3792.9 L 3671.74,3310.85 L 3703.73,3310.85 L 3703.73,3792.9 Z " />
<path stroke="none" fill="#0000ff" transform="matrix(0.05 0 0 0.05 -57 -88)" d="M 4286.17,4013.91 L 4270.17,3986.2 L 4681.97,3747.68 L 4681.97,3784.69 L 4286.17,4013.91 Z " />
<text x="0" y="0" stroke="none" fill="#0000ff" transform="matrix(0.05 0 0 0.05 198.709 120.172)" font-style="normal" font-weight="normal" font-size="280px" font-family="Chalkboard" >
R’</text>
<path stroke="none" fill="#0000ff" transform="matrix(0.05 0 0 0.05 -57 -88)" d="M 4681.97,3784.69 L 4681.97,3747.68 L 5089.06,3983.48 L 5073.06,4011.19 L 4681.97,3784.69 Z " />
<text x="0" y="0" stroke="none" fill="#0000ff" transform="matrix(0.05 0 0 0.05 172.017 75.1725)" font-style="normal" font-weight="normal" font-size="280px" font-family="Chalkboard" >
O</text>
<path stroke="none" fill="#0000ff" transform="matrix(0.05 0 0 0.05 -57 -88)" d="M 4652.97,3792.9 L 4620.97,3792.9 L 4620.97,3310.85 L 4652.97,3310.85 L 4652.97,3792.9 Z " />
<path stroke="none" fill="#0000ff" transform="matrix(0.05 0 0 0.05 -57 -88)" d="M 4742.97,3792.9 L 4710.97,3792.9 L 4710.97,3310.85 L 4742.97,3310.85 L 4742.97,3792.9 Z " />
<text x="0" y="0" stroke="none" fill="#0000ff" transform="matrix(0.05 0 0 0.05 229.492 189.67)" font-style="normal" font-weight="normal" font-size="280px" font-family="Chalkboard" >
R</text>
<path stroke="none" fill="#0000ff" transform="matrix(0.05 0 0 0.05 -57 -88)" d="M 5930,5410.25 L 5914,5382.54 L 6336.86,5137.66 L 6336.86,5174.66 L 5930,5410.25 Z " />
<text x="0" y="0" stroke="none" fill="#0000ff" transform="matrix(0.05 0 0 0.05 280.742 189.67)" font-style="normal" font-weight="normal" font-size="280px" font-family="Chalkboard" >
O</text>
<path stroke="none" fill="#0000ff" transform="matrix(0.05 0 0 0.05 -57 -88)" d="M 6336.86,5174.66 L 6336.86,5137.66 L 6754.91,5379.77 L 6738.91,5407.48 L 6336.86,5174.66 Z " />
<text x="0" y="0" stroke="none" fill="#0000ff" transform="matrix(0.05 0 0 0.05 254.761 144.67)" font-style="normal" font-weight="normal" font-size="280px" font-family="Chalkboard" >
O</text>
<path stroke="none" fill="#0000ff" transform="matrix(0.05 0 0 0.05 -57 -88)" d="M 6307.85,5182.86 L 6275.85,5182.86 L 6275.85,4700.81 L 6307.85,4700.81 L 6307.85,5182.86 Z " />
<path stroke="none" fill="#0000ff" transform="matrix(0.05 0 0 0.05 -57 -88)" d="M 6397.85,5182.86 L 6365.85,5182.86 L 6365.85,4700.81 L 6397.85,4700.81 L 6397.85,5182.86 Z " />
<text x="0" y="0" stroke="none" fill="#0000ff" transform="matrix(0.05 0 0 0.05 307.434 174.67)" font-style="normal" font-weight="normal" font-size="280px" font-family="Chalkboard" >
R’</text>
<path stroke="none" fill="#0000ff" transform="matrix(0.05 0 0 0.05 -57 -88)" d="M 6980.29,5403.87 L 6964.29,5376.16 L 7237.19,5218.6 L 7253.19,5246.31 L 6980.29,5403.87 Z " />
<text x="0" y="0" stroke="none" fill="#0000ff" transform="matrix(0.05 0 0 0.05 332.452 247.156)" font-style="normal" font-weight="normal" font-size="280px" font-family="Chalkboard" >
R</text>
<path stroke="none" fill="#0000ff" transform="matrix(0.05 0 0 0.05 -57 -88)" d="M 7989.2,6559.97 L 7973.2,6532.26 L 8396.08,6287.36 L 8396.09,6324.37 L 7989.2,6559.97 Z " />
<text x="0" y="0" stroke="none" fill="#0000ff" transform="matrix(0.05 0 0 0.05 384.189 247.156)" font-style="normal" font-weight="normal" font-size="280px" font-family="Chalkboard" >
NH</text>
<text x="0" y="0" stroke="none" fill="#0000ff" transform="matrix(0.05 0 0 0.05 402.087 251.117)" font-style="normal" font-weight="normal" font-size="210px" font-family="Chalkboard" >
2</text>
<text x="0" y="0" stroke="none" fill="#0000ff" transform="matrix(0.05 0 0 0.05 407.61 247.156)" font-style="normal" font-weight="normal" font-size="280px" font-family="Chalkboard" >
/NHR/NR</text>
<text x="0" y="0" stroke="none" fill="#0000ff" transform="matrix(0.05 0 0 0.05 466.719 251.117)" font-style="normal" font-weight="normal" font-size="210px" font-family="Chalkboard" >
2</text>
<path stroke="none" fill="#0000ff" transform="matrix(0.05 0 0 0.05 -57 -88)" d="M 8396.09,6324.37 L 8396.08,6287.36 L 8799.03,6520.78 L 8783.03,6548.5 L 8396.09,6324.37 Z " />
<text x="0" y="0" stroke="none" fill="#0000ff" transform="matrix(0.05 0 0 0.05 357.721 202.156)" font-style="normal" font-weight="normal" font-size="280px" font-family="Chalkboard" >
O</text>
<path stroke="none" fill="#0000ff" transform="matrix(0.05 0 0 0.05 -57 -88)" d="M 8367.05,6332.58 L 8335.05,6332.58 L 8335.05,5850.53 L 8367.05,5850.53 L 8367.05,6332.58 Z " />
<path stroke="none" fill="#0000ff" transform="matrix(0.05 0 0 0.05 -57 -88)" d="M 8457.05,6332.58 L 8425.05,6332.58 L 8425.05,5850.53 L 8457.05,5850.53 L 8457.05,6332.58 Z " />
<text x="0" y="0" stroke="none" fill="#0000ff" transform="matrix(0.05 0 0 0.05 489.466 317.513)" font-style="normal" font-weight="normal" font-size="280px" font-family="Chalkboard" >
R</text>
<path stroke="none" fill="#0000ff" transform="matrix(0.05 0 0 0.05 -57 -88)" d="M 11129.5,7967.09 L 11113.5,7939.38 L 11536.3,7694.5 L 11536.3,7731.5 L 11129.5,7967.09 Z " />
<text x="0" y="0" stroke="none" fill="#0000ff" transform="matrix(0.05 0 0 0.05 540.716 317.513)" font-style="normal" font-weight="normal" font-size="280px" font-family="Chalkboard" >
O</text>
<path stroke="none" fill="#0000ff" transform="matrix(0.05 0 0 0.05 -57 -88)" d="M 11536.3,7731.5 L 11536.3,7694.5 L 11954.4,7936.61 L 11938.4,7964.32 L 11536.3,7731.5 Z " />
<text x="0" y="0" stroke="none" fill="#0000ff" transform="matrix(0.05 0 0 0.05 514.735 272.513)" font-style="normal" font-weight="normal" font-size="280px" font-family="Chalkboard" >
O</text>
<path stroke="none" fill="#0000ff" transform="matrix(0.05 0 0 0.05 -57 -88)" d="M 11507.3,7739.7 L 11475.3,7739.7 L 11475.3,7257.65 L 11507.3,7257.65 L 11507.3,7739.7 Z " />
<path stroke="none" fill="#0000ff" transform="matrix(0.05 0 0 0.05 -57 -88)" d="M 11597.3,7739.7 L 11565.3,7739.7 L 11565.3,7257.65 L 11597.3,7257.65 L 11597.3,7739.7 Z " />
<path stroke="none" fill="#0000ff" transform="matrix(0.05 0 0 0.05 -57 -88)" d="M 12153.1,7906.47 L 12278.5,7906.47 L 12278.5,7932.47 L 12153.1,7932.47 Z " />
<text x="0" y="0" stroke="none" fill="#0000ff" transform="matrix(0.05 0 0 0.05 487.75 66.1185)" font-style="normal" font-weight="normal" font-size="280px" font-family="Chalkboard" >
R</text>
<path stroke="none" fill="#0000ff" transform="matrix(0.05 0 0 0.05 -57 -88)" d="M 11095.2,2939.21 L 11079.2,2911.5 L 11502,2666.62 L 11502,2703.62 L 11095.2,2939.21 Z " />
<text x="0" y="0" stroke="none" fill="#0000ff" transform="matrix(0.05 0 0 0.05 539 66.1185)" font-style="normal" font-weight="normal" font-size="280px" font-family="Chalkboard" >
OH</text>
<path stroke="none" fill="#0000ff" transform="matrix(0.05 0 0 0.05 -57 -88)" d="M 11502,2703.62 L 11502,2666.62 L 11920.1,2908.73 L 11904.1,2936.44 L 11502,2703.62 Z " />
<text x="0" y="0" stroke="none" fill="#0000ff" transform="matrix(0.05 0 0 0.05 513.019 21.1185)" font-style="normal" font-weight="normal" font-size="280px" font-family="Chalkboard" >
O</text>
<path stroke="none" fill="#0000ff" transform="matrix(0.05 0 0 0.05 -57 -88)" d="M 11473,2711.82 L 11441,2711.82 L 11441,2229.77 L 11473,2229.77 L 11473,2711.82 Z " />
<path stroke="none" fill="#0000ff" transform="matrix(0.05 0 0 0.05 -57 -88)" d="M 11563,2711.82 L 11531,2711.82 L 11531,2229.77 L 11563,2229.77 L 11563,2711.82 Z " />
<path stroke="none" fill="#0000ff" transform="matrix(0.05 0 0 0.05 -57 -88)" d="M 1751.48,7927.92 L 1751.48,3037.32 L 1783.48,3037.32 L 1783.48,7927.92 Z " />
<path stroke="none" fill="#0000ff" transform="matrix(0.05 0 0 0.05 -57 -88)" d="M 10394.5,7943.92 L 1767.48,7943.92 L 1767.48,7911.92 L 10394.5,7911.92 Z " />
<path stroke="none" fill="#0000ff" transform="matrix(0.05 0 0 0.05 -57 -88)" d="M 10673.5,7927.92 C 10673.5,7927.92 10353.5,8008.92 10353.5,8008.92 C 10353.5,8008.92 10393.5,7963.36 10393.5,7927.92 C 10393.5,7892.05 10353.5,7845.92 10353.5,7845.92 C 10353.5,7845.92 10673.5,7927.92 10673.5,7927.92 C 10673.5,7927.92 10673.5,7927.92 10673.5,7927.92 " />
<path stroke="#0000ff" stroke-width="1" fill="none" transform="matrix(0.05 0 0 0.05 -57 -88)" d="M 10673.5,7927.92 C 10673.5,7927.92 10353.5,8008.92 10353.5,8008.92 C 10353.5,8008.92 10393.5,7963.36 10393.5,7927.92 C 10393.5,7892.05 10353.5,7845.92 10353.5,7845.92 C 10353.5,7845.92 10673.5,7927.92 10673.5,7927.92 C 10673.5,7927.92 10673.5,7927.92 10673.5,7927.92 " />
<text x="0" y="0" stroke="none" fill="#0000ff" transform="matrix(0.05 0 0 0.05 35.5789 299.816)" font-style="normal" font-weight="normal" font-size="280px" font-family="Chalkboard" >
NaOH</text>
<path stroke="none" fill="#0000ff" transform="matrix(0.05 0 0 0.05 -57 -88)" d="M 4153.88,7910.76 L 4153.88,4444.44 L 4185.88,4444.44 L 4185.88,7910.76 Z " />
<path stroke="none" fill="#0000ff" transform="matrix(0.05 0 0 0.05 -57 -88)" d="M 6350.36,7910.76 L 6350.36,5714.28 L 6382.36,5714.28 L 6382.36,7910.76 Z " />
<text x="0" y="0" stroke="none" fill="#0000ff" transform="matrix(0.05 0 0 0.05 155.699 300.674)" font-style="normal" font-weight="normal" font-size="280px" font-family="Chalkboard" >
NaOH</text>
<text x="0" y="0" stroke="none" fill="#0000ff" transform="matrix(0.05 0 0 0.05 264.665 301.532)" font-style="normal" font-weight="normal" font-size="280px" font-family="Chalkboard" >
NaOH</text>
<path stroke="none" fill="#0000ff" transform="matrix(0.05 0 0 0.05 -57 -88)" d="M 8409.56,7927.92 L 8409.56,6898.32 L 8441.56,6898.32 L 8441.56,7927.92 Z " />
<text x="0" y="0" stroke="none" fill="#0000ff" transform="matrix(0.05 0 0 0.05 367.625 301.532)" font-style="normal" font-weight="normal" font-size="280px" font-family="Chalkboard" >
NaOH </text>
<text x="0" y="0" stroke="none" fill="#0000ff" transform="matrix(0.05 0 0 0.05 408.372 301.532)" font-style="normal" font-weight="normal" font-size="280px" font-family="Chalkboard" >
+</text>
<text x="0" y="0" stroke="none" fill="#0000ff" transform="matrix(0.05 0 0 0.05 415.921 301.532)" font-style="normal" font-weight="normal" font-size="280px" font-family="Symbol" >
D</text>
<path stroke="none" fill="#0000ff" transform="matrix(0.05 0 0 0.05 -57 -88)" d="M 7340.04,6519.64 L 1767.48,6519.64 L 1767.48,6487.64 L 7340.04,6487.64 Z " />
<path stroke="none" fill="#0000ff" transform="matrix(0.05 0 0 0.05 -57 -88)" d="M 7619.04,6503.64 C 7619.04,6503.64 7299.04,6584.64 7299.04,6584.64 C 7299.04,6584.64 7339.04,6539.08 7339.04,6503.64 C 7339.04,6467.77 7299.04,6421.64 7299.04,6421.64 C 7299.04,6421.64 7619.04,6503.64 7619.04,6503.64 C 7619.04,6503.64 7619.04,6503.64 7619.04,6503.64 " />
<path stroke="#0000ff" stroke-width="1" fill="none" transform="matrix(0.05 0 0 0.05 -57 -88)" d="M 7619.04,6503.64 C 7619.04,6503.64 7299.04,6584.64 7299.04,6584.64 C 7299.04,6584.64 7339.04,6539.08 7339.04,6503.64 C 7339.04,6467.77 7299.04,6421.64 7299.04,6421.64 C 7299.04,6421.64 7619.04,6503.64 7619.04,6503.64 C 7619.04,6503.64 7619.04,6503.64 7619.04,6503.64 " />
<text x="0" y="0" stroke="none" fill="#0000ff" transform="matrix(0.05 0 0 0.05 264.889 252.626)" font-style="normal" font-weight="normal" font-size="280px" font-family="Chalkboard" >
RNH</text>
<text x="0" y="0" stroke="none" fill="#0000ff" transform="matrix(0.05 0 0 0.05 291.528 256.586)" font-style="normal" font-weight="normal" font-size="210px" font-family="Chalkboard" >
2</text>
<text x="0" y="0" stroke="none" fill="#0000ff" transform="matrix(0.05 0 0 0.05 35.3319 230.318)" font-style="normal" font-weight="normal" font-size="280px" font-family="Chalkboard" >
2eq. </text>
<text x="0" y="0" stroke="none" fill="#0000ff" transform="matrix(0.05 0 0 0.05 66.6115 230.318)" font-style="normal" font-weight="normal" font-size="280px" font-family="Chalkboard" >
RNH</text>
<text x="0" y="0" stroke="none" fill="#0000ff" transform="matrix(0.05 0 0 0.05 93.2502 234.278)" font-style="normal" font-weight="normal" font-size="210px" font-family="Chalkboard" >
2</text>
<path stroke="none" fill="#0000ff" transform="matrix(0.05 0 0 0.05 -57 -88)" d="M 5315.16,5438.56 L 1767.48,5438.56 L 1767.48,5406.56 L 5315.16,5406.56 Z " />
<path stroke="none" fill="#0000ff" transform="matrix(0.05 0 0 0.05 -57 -88)" d="M 5594.16,5422.56 C 5594.16,5422.56 5274.16,5503.56 5274.16,5503.56 C 5274.16,5503.56 5314.16,5458 5314.16,5422.56 C 5314.16,5386.69 5274.16,5340.56 5274.16,5340.56 C 5274.16,5340.56 5594.16,5422.56 5594.16,5422.56 C 5594.16,5422.56 5594.16,5422.56 5594.16,5422.56 " />
<path stroke="#0000ff" stroke-width="1" fill="none" transform="matrix(0.05 0 0 0.05 -57 -88)" d="M 5594.16,5422.56 C 5594.16,5422.56 5274.16,5503.56 5274.16,5503.56 C 5274.16,5503.56 5314.16,5458 5314.16,5422.56 C 5314.16,5386.69 5274.16,5340.56 5274.16,5340.56 C 5274.16,5340.56 5594.16,5422.56 5594.16,5422.56 C 5594.16,5422.56 5594.16,5422.56 5594.16,5422.56 " />
<text x="0" y="0" stroke="none" fill="#0000ff" transform="matrix(0.05 0 0 0.05 36.4369 177.98)" font-style="normal" font-weight="normal" font-size="280px" font-family="Chalkboard" >
NaOR</text>
<text x="0" y="0" stroke="none" fill="#0000ff" transform="matrix(0.05 0 0 0.05 155.699 178.838)" font-style="normal" font-weight="normal" font-size="280px" font-family="Chalkboard" >
NaOR</text>
<path stroke="none" fill="#0000ff" transform="matrix(0.05 0 0 0.05 -57 -88)" d="M 2672.52,3928.48 L 1750.32,3928.48 L 1750.32,3896.48 L 2672.52,3896.48 Z " />
<path stroke="none" fill="#0000ff" transform="matrix(0.05 0 0 0.05 -57 -88)" d="M 2951.52,3912.48 C 2951.52,3912.48 2631.52,3993.48 2631.52,3993.48 C 2631.52,3993.48 2671.52,3947.92 2671.52,3912.48 C 2671.52,3876.61 2631.52,3830.48 2631.52,3830.48 C 2631.52,3830.48 2951.52,3912.48 2951.52,3912.48 C 2951.52,3912.48 2951.52,3912.48 2951.52,3912.48 " />
<path stroke="#0000ff" stroke-width="1" fill="none" transform="matrix(0.05 0 0 0.05 -57 -88)" d="M 2951.52,3912.48 C 2951.52,3912.48 2631.52,3993.48 2631.52,3993.48 C 2631.52,3993.48 2671.52,3947.92 2671.52,3912.48 C 2671.52,3876.61 2631.52,3830.48 2631.52,3830.48 C 2631.52,3830.48 2951.52,3912.48 2951.52,3912.48 C 2951.52,3912.48 2951.52,3912.48 2951.52,3912.48 " />
<text x="0" y="0" stroke="none" fill="#0000ff" transform="matrix(0.05 0 0 0.05 33.948 100.76)" font-style="normal" font-weight="normal" font-size="280px" font-family="Chalkboard" >
R’COONa</text>
<path stroke="none" fill="#0000ff" transform="matrix(0.05 0 0 0.05 -57 -88)" d="M 11547.5,3453.6 L 11547.5,6778.2 L 11515.5,6778.2 L 11515.5,3453.6 Z " />
<path stroke="none" fill="#0000ff" transform="matrix(0.05 0 0 0.05 -57 -88)" d="M 11531.5,3174.6 C 11531.5,3174.6 11612.5,3494.6 11612.5,3494.6 C 11612.5,3494.6 11567,3454.6 11531.5,3454.6 C 11495.6,3454.6 11449.5,3494.6 11449.5,3494.6 C 11449.5,3494.6 11531.5,3174.6 11531.5,3174.6 C 11531.5,3174.6 11531.5,3174.6 11531.5,3174.6 " />
<path stroke="#0000ff" stroke-width="1" fill="none" transform="matrix(0.05 0 0 0.05 -57 -88)" d="M 11531.5,3174.6 C 11531.5,3174.6 11612.5,3494.6 11612.5,3494.6 C 11612.5,3494.6 11567,3454.6 11531.5,3454.6 C 11495.6,3454.6 11449.5,3494.6 11449.5,3494.6 C 11449.5,3494.6 11531.5,3174.6 11531.5,3174.6 C 11531.5,3174.6 11531.5,3174.6 11531.5,3174.6 " />
<text x="0" y="0" stroke="none" fill="#0000ff" transform="matrix(0.05 0 0 0.05 525.582 161.678)" font-style="normal" font-weight="normal" font-size="280px" font-family="Chalkboard" >
H</text>
<text x="0" y="0" stroke="none" fill="#0000ff" transform="matrix(0.05 0 0 0.05 534.291 156.851)" font-style="normal" font-weight="normal" font-size="210px" font-family="Chalkboard" >
+</text>
<text x="0" y="0" stroke="none" fill="#0000ff" transform="matrix(0.05 0 0 0.05 263.623 323.84)" font-style="normal" font-weight="normal" font-size="280px" font-family="Chalkboard" >
(saponification)</text>
<path stroke="none" fill="#0000ff" transform="matrix(0.05 0 0 0.05 -57 -88)" d="M 10420.3,3169.4 L 7815.8,4612.88 L 7799.8,4584.88 L 10404.3,3141.4 Z " />
<path stroke="none" fill="#0000ff" transform="matrix(0.05 0 0 0.05 -57 -88)" d="M 10656.4,3020.16 C 10656.4,3020.16 10416.3,3246.25 10416.3,3246.25 C 10416.3,3246.25 10428.9,3186.94 10411.5,3155.89 C 10394.1,3124.84 10336.7,3104.31 10336.7,3104.31 C 10336.7,3104.31 10656.4,3020.16 10656.4,3020.16 C 10656.4,3020.16 10656.4,3020.16 10656.4,3020.16 " />
<path stroke="#0000ff" stroke-width="1" fill="none" transform="matrix(0.05 0 0 0.05 -57 -88)" d="M 10656.4,3020.16 C 10656.4,3020.16 10416.3,3246.25 10416.3,3246.25 C 10416.3,3246.25 10428.9,3186.94 10411.5,3155.89 C 10394.1,3124.84 10336.7,3104.31 10336.7,3104.31 C 10336.7,3104.31 10656.4,3020.16 10656.4,3020.16 C 10656.4,3020.16 10656.4,3020.16 10656.4,3020.16 " />
<text x="0" y="0" stroke="none" fill="#0000ff" transform="matrix(0.0449397 -0.0219186 0.0219186 0.0449397 374.561 111.614)" font-style="normal" font-weight="normal" font-size="280px" font-family="Chalkboard" >
dil. </text>
<text x="0" y="0" stroke="none" fill="#0000ff" transform="matrix(0.0449397 -0.0219186 0.0219186 0.0449397 394.736 101.774)" font-style="normal" font-weight="normal" font-size="280px" font-family="Chalkboard" >
H</text>
<text x="0" y="0" stroke="none" fill="#0000ff" transform="matrix(0.0449397 -0.0219186 0.0219186 0.0449397 400.448 93.6178)" font-style="normal" font-weight="normal" font-size="210px" font-family="Chalkboard" >
+</text>
<path stroke="none" fill="#0000ff" transform="matrix(0.05 0 0 0.05 -57 -88)" d="M 11003.5,3620.96 L 8840.28,5866.25 L 8817.28,5844.25 L 10980.5,3598.96 Z " />
<path stroke="none" fill="#0000ff" transform="matrix(0.05 0 0 0.05 -57 -88)" d="M 11185.6,3409.04 C 11185.6,3409.04 11022.2,3695.99 11022.2,3695.99 C 11022.2,3695.99 11016.9,3635.4 10991.3,3610.68 C 10965.7,3585.96 10904.9,3582.98 10904.9,3582.98 C 10904.9,3582.98 11185.6,3409.04 11185.6,3409.04 C 11185.6,3409.04 11185.6,3409.04 11185.6,3409.04 " />
<path stroke="#0000ff" stroke-width="1" fill="none" transform="matrix(0.05 0 0 0.05 -57 -88)" d="M 11185.6,3409.04 C 11185.6,3409.04 11022.2,3695.99 11022.2,3695.99 C 11022.2,3695.99 11016.9,3635.4 10991.3,3610.68 C 10965.7,3585.96 10904.9,3582.98 10904.9,3582.98 C 10904.9,3582.98 11185.6,3409.04 11185.6,3409.04 C 11185.6,3409.04 11185.6,3409.04 11185.6,3409.04 " />
<text x="0" y="0" stroke="none" fill="#0000ff" transform="matrix(0.0365677 -0.0340999 0.0340999 0.0365677 416.203 161.916)" font-style="normal" font-weight="normal" font-size="292.04px" font-family="Chalkboard" >
dil. </text>
<text x="0" y="0" stroke="none" fill="#0000ff" transform="matrix(0.0365677 -0.0340999 0.0340999 0.0365677 433.325 145.949)" font-style="normal" font-weight="normal" font-size="292.04px" font-family="Chalkboard" >
H</text>
<text x="0" y="0" stroke="none" fill="#0000ff" transform="matrix(0.0365677 -0.0340999 0.0340999 0.0365677 436.535 136.073)" font-style="normal" font-weight="normal" font-size="219.03px" font-family="Chalkboard" >
+</text>
<path stroke="none" fill="#0000ff" transform="matrix(0.05 0 0 0.05 -57 -88)" d="M 2853,2455.04 L 10622,2455.04 L 10622,2487.04 L 2853,2487.04 Z " />
<path stroke="none" fill="#0000ff" transform="matrix(0.05 0 0 0.05 -57 -88)" d="M 2574,2471.04 C 2574,2471.04 2894,2389.04 2894,2389.04 C 2894,2389.04 2854,2435.17 2854,2471.04 C 2854,2506.48 2894,2552.04 2894,2552.04 C 2894,2552.04 2574,2471.04 2574,2471.04 C 2574,2471.04 2574,2471.04 2574,2471.04 " />
<path stroke="#0000ff" stroke-width="1" fill="none" transform="matrix(0.05 0 0 0.05 -57 -88)" d="M 2574,2471.04 C 2574,2471.04 2894,2389.04 2894,2389.04 C 2894,2389.04 2854,2435.17 2854,2471.04 C 2854,2506.48 2894,2552.04 2894,2552.04 C 2894,2552.04 2574,2471.04 2574,2471.04 C 2574,2471.04 2574,2471.04 2574,2471.04 " />
<text x="0" y="0" stroke="none" fill="#0000ff" transform="matrix(0.05 0 0 0.05 203.43 48.422)" font-style="normal" font-weight="normal" font-size="280px" font-family="Chalkboard" >
PX</text>
<text x="0" y="0" stroke="none" fill="#0000ff" transform="matrix(0.05 0 0 0.05 220.71 52.3821)" font-style="normal" font-weight="normal" font-size="210px" font-family="Chalkboard" >
3</text>
<text x="0" y="0" stroke="none" fill="#0000ff" transform="matrix(0.05 0 0 0.05 226.07 48.422)" font-style="normal" font-weight="normal" font-size="280px" font-family="Chalkboard" >
, </text>
<text x="0" y="0" stroke="none" fill="#0000ff" transform="matrix(0.05 0 0 0.05 234.996 48.422)" font-style="normal" font-weight="normal" font-size="280px" font-family="Chalkboard" >
PX</text>
<text x="0" y="0" stroke="none" fill="#0000ff" transform="matrix(0.05 0 0 0.05 252.276 52.3821)" font-style="normal" font-weight="normal" font-size="210px" font-family="Chalkboard" >
5</text>
<text x="0" y="0" stroke="none" fill="#0000ff" transform="matrix(0.05 0 0 0.05 257.717 48.422)" font-style="normal" font-weight="normal" font-size="280px" font-family="Chalkboard" >
, </text>
<text x="0" y="0" stroke="none" fill="#0000ff" transform="matrix(0.05 0 0 0.05 266.643 48.422)" font-style="normal" font-weight="normal" font-size="280px" font-family="Chalkboard" >
SOCl</text>
<text x="0" y="0" stroke="none" fill="#0000ff" transform="matrix(0.05 0 0 0.05 297.459 52.3821)" font-style="normal" font-weight="normal" font-size="210px" font-family="Chalkboard" >
2</text>
<text x="0" y="0" stroke="none" fill="#0000ff" transform="matrix(0.05 0 0 0.05 577.062 106.766)" font-style="normal" font-weight="bold" font-size="280px" font-family="Chalkboard" >
•</text>
<text x="0" y="0" stroke="none" fill="#0000ff" transform="matrix(0.05 0 0 0.05 583.946 106.766)" font-style="normal" font-weight="normal" font-size="280px" font-family="Chalkboard" >
 </text>
<text x="0" y="0" stroke="none" fill="#0000ff" transform="matrix(0.05 0 0 0.05 589.298 106.766)" font-style="normal" font-weight="normal" font-size="280px" font-family="Chalkboard" >
 </text>
<text x="0" y="0" stroke="none" fill="#0000ff" transform="matrix(0.05 0 0 0.05 593.475 106.766)" font-style="normal" font-weight="normal" font-size="280px" font-family="Chalkboard" >
Trans-esterification </text>
<text x="0" y="0" stroke="none" fill="#0000ff" transform="matrix(0.05 0 0 0.05 719.785 106.766)" font-style="normal" font-weight="normal" font-size="280px" font-family="Chalkboard" >
and </text>
<text x="0" y="0" stroke="none" fill="#0000ff" transform="matrix(0.05 0 0 0.05 747.614 106.766)" font-style="normal" font-weight="normal" font-size="280px" font-family="Chalkboard" >
trans-anhydride </text>
<text x="0" y="0" stroke="none" fill="#0000ff" transform="matrix(0.05 0 0 0.05 853.272 106.766)" font-style="normal" font-weight="normal" font-size="280px" font-family="Chalkboard" >
are </text>
<text x="0" y="0" stroke="none" fill="#0000ff" transform="matrix(0.05 0 0 0.05 879.106 106.766)" font-style="normal" font-weight="normal" font-size="280px" font-family="Chalkboard" >
also </text>
<text x="0" y="0" stroke="none" fill="#0000ff" transform="matrix(0.05 0 0 0.05 908.916 106.766)" font-style="normal" font-weight="normal" font-size="280px" font-family="Chalkboard" >
possible.</text>
<text x="0" y="0" stroke="none" fill="#0000ff" transform="matrix(0.05 0 0 0.05 577.062 127.211)" font-style="normal" font-weight="bold" font-size="280px" font-family="Chalkboard" >
•</text>
<text x="0" y="0" stroke="none" fill="#0000ff" transform="matrix(0.05 0 0 0.05 583.946 127.211)" font-style="normal" font-weight="normal" font-size="280px" font-family="Chalkboard" >
 </text>
<text x="0" y="0" stroke="none" fill="#0000ff" transform="matrix(0.05 0 0 0.05 589.298 127.211)" font-style="normal" font-weight="normal" font-size="280px" font-family="Chalkboard" >
 </text>
<text x="0" y="0" stroke="none" fill="#0000ff" transform="matrix(0.05 0 0 0.05 594.651 127.211)" font-style="normal" font-weight="normal" font-size="280px" font-family="Chalkboard" >
Neutral </text>
<text x="0" y="0" stroke="none" fill="#0000ff" transform="matrix(0.05 0 0 0.05 646.056 127.211)" font-style="normal" font-weight="normal" font-size="280px" font-family="Chalkboard" >
amines </text>
<text x="0" y="0" stroke="none" fill="#0000ff" transform="matrix(0.05 0 0 0.05 694.028 127.211)" font-style="normal" font-weight="normal" font-size="280px" font-family="Chalkboard" >
are </text>
<text x="0" y="0" stroke="none" fill="#0000ff" transform="matrix(0.05 0 0 0.05 719.862 127.211)" font-style="normal" font-weight="normal" font-size="280px" font-family="Chalkboard" >
used </text>
<text x="0" y="0" stroke="none" fill="#0000ff" transform="matrix(0.05 0 0 0.05 754.266 127.211)" font-style="normal" font-weight="normal" font-size="280px" font-family="Chalkboard" >
instead </text>
<text x="0" y="0" stroke="none" fill="#0000ff" transform="matrix(0.05 0 0 0.05 803.862 127.211)" font-style="normal" font-weight="normal" font-size="280px" font-family="Chalkboard" >
of </text>
<text x="0" y="0" stroke="none" fill="#0000ff" transform="matrix(0.05 0 0 0.05 822.085 127.211)" font-style="normal" font-weight="normal" font-size="280px" font-family="Chalkboard" >
NaNH</text>
<text x="0" y="0" stroke="none" fill="#0000ff" transform="matrix(0.05 0 0 0.05 856.505 131.171)" font-style="normal" font-weight="normal" font-size="210px" font-family="Chalkboard" >
2</text>
<text x="0" y="0" stroke="none" fill="#0000ff" transform="matrix(0.05 0 0 0.05 862.48 127.211)" font-style="normal" font-weight="normal" font-size="280px" font-family="Chalkboard" >
, </text>
<text x="0" y="0" stroke="none" fill="#0000ff" transform="matrix(0.05 0 0 0.05 871.406 127.211)" font-style="normal" font-weight="normal" font-size="280px" font-family="Chalkboard" >
as </text>
<text x="0" y="0" stroke="none" fill="#0000ff" transform="matrix(0.05 0 0 0.05 890.465 127.211)" font-style="normal" font-weight="normal" font-size="280px" font-family="Chalkboard" >
NH</text>
<text x="0" y="0" stroke="none" fill="#0000ff" transform="matrix(0.05 0 0 0.05 908.363 131.171)" font-style="normal" font-weight="normal" font-size="210px" font-family="Chalkboard" >
2</text>
<text x="0" y="0" stroke="none" fill="#0000ff" transform="matrix(0.05 0 0 0.05 914.338 122.385)" font-style="normal" font-weight="normal" font-size="210px" font-family="Chalkboard" >
-</text>
<text x="0" y="0" stroke="none" fill="#0000ff" transform="matrix(0.05 0 0 0.05 919.339 127.211)" font-style="normal" font-weight="normal" font-size="280px" font-family="Chalkboard" >
 </text>
<text x="0" y="0" stroke="none" fill="#0000ff" transform="matrix(0.05 0 0 0.05 924.691 127.211)" font-style="normal" font-weight="normal" font-size="280px" font-family="Chalkboard" >
is </text>
<text x="0" y="0" stroke="none" fill="#0000ff" transform="matrix(0.05 0 0 0.05 939.573 127.211)" font-style="normal" font-weight="normal" font-size="280px" font-family="Chalkboard" >
a </text>
<text x="0" y="0" stroke="none" fill="#0000ff" transform="matrix(0.05 0 0 0.05 952.428 127.211)" font-style="normal" font-weight="normal" font-size="280px" font-family="Chalkboard" >
strong </text>
<text x="0" y="0" stroke="none" fill="#0000ff" transform="matrix(0.05 0 0 0.05 997.398 127.211)" font-style="normal" font-weight="normal" font-size="280px" font-family="Chalkboard" >
base </text>
<text x="0" y="0" stroke="none" fill="#0000ff" transform="matrix(0.05 0 0 0.05 1031.32 127.211)" font-style="normal" font-weight="normal" font-size="280px" font-family="Chalkboard" >
and </text>
<text x="0" y="0" stroke="none" fill="#0000ff" transform="matrix(0.05 0 0 0.05 577.062 147.656)" font-style="normal" font-weight="normal" font-size="280px" font-family="Chalkboard" >
causes </text>
<text x="0" y="0" stroke="none" fill="#0000ff" transform="matrix(0.05 0 0 0.05 623.842 147.656)" font-style="normal" font-weight="normal" font-size="280px" font-family="Chalkboard" >
side </text>
<text x="0" y="0" stroke="none" fill="#0000ff" transform="matrix(0.05 0 0 0.05 653.776 147.656)" font-style="normal" font-weight="normal" font-size="280px" font-family="Chalkboard" >
reactions </text>
<text x="0" y="0" stroke="none" fill="#0000ff" transform="matrix(0.05 0 0 0.05 716.118 147.656)" font-style="normal" font-weight="normal" font-size="280px" font-family="Chalkboard" >
like </text>
<text x="0" y="0" stroke="none" fill="#0000ff" transform="matrix(0.05 0 0 0.05 742.788 147.656)" font-style="normal" font-weight="normal" font-size="280px" font-family="Chalkboard" >
deprotonation </text>
<text x="0" y="0" stroke="none" fill="#0000ff" transform="matrix(0.05 0 0 0.05 833.192 147.656)" font-style="normal" font-weight="normal" font-size="280px" font-family="Chalkboard" >
of </text>
<text x="0" y="0" stroke="none" fill="#0000ff" transform="matrix(0.05 0 0 0.05 851.416 147.656)" font-style="normal" font-weight="normal" font-size="280px" font-family="Chalkboard" >
a-carbon.</text>
<text x="0" y="0" stroke="none" fill="#0000ff" transform="matrix(0.05 0 0 0.05 577.062 168.102)" font-style="normal" font-weight="bold" font-size="280px" font-family="Chalkboard" >
•</text>
<text x="0" y="0" stroke="none" fill="#0000ff" transform="matrix(0.05 0 0 0.05 583.946 168.102)" font-style="normal" font-weight="normal" font-size="280px" font-family="Chalkboard" >
 </text>
<text x="0" y="0" stroke="none" fill="#0000ff" transform="matrix(0.05 0 0 0.05 589.298 168.102)" font-style="normal" font-weight="normal" font-size="280px" font-family="Chalkboard" >
 </text>
<text x="0" y="0" stroke="none" fill="#0000ff" transform="matrix(0.05 0 0 0.05 593.475 168.102)" font-style="normal" font-weight="normal" font-size="280px" font-family="Chalkboard" >
Two </text>
<text x="0" y="0" stroke="none" fill="#0000ff" transform="matrix(0.05 0 0 0.05 622.759 168.102)" font-style="normal" font-weight="normal" font-size="280px" font-family="Chalkboard" >
equivalents </text>
<text x="0" y="0" stroke="none" fill="#0000ff" transform="matrix(0.05 0 0 0.05 696.611 168.102)" font-style="normal" font-weight="normal" font-size="280px" font-family="Chalkboard" >
of </text>
<text x="0" y="0" stroke="none" fill="#0000ff" transform="matrix(0.05 0 0 0.05 714.834 168.102)" font-style="normal" font-weight="normal" font-size="280px" font-family="Chalkboard" >
amines </text>
<text x="0" y="0" stroke="none" fill="#0000ff" transform="matrix(0.05 0 0 0.05 762.806 168.102)" font-style="normal" font-weight="normal" font-size="280px" font-family="Chalkboard" >
are </text>
<text x="0" y="0" stroke="none" fill="#0000ff" transform="matrix(0.05 0 0 0.05 788.64 168.102)" font-style="normal" font-weight="normal" font-size="280px" font-family="Chalkboard" >
usually </text>
<text x="0" y="0" stroke="none" fill="#0000ff" transform="matrix(0.05 0 0 0.05 837.771 168.102)" font-style="normal" font-weight="normal" font-size="280px" font-family="Chalkboard" >
used </text>
<text x="0" y="0" stroke="none" fill="#0000ff" transform="matrix(0.05 0 0 0.05 872.176 168.102)" font-style="normal" font-weight="normal" font-size="280px" font-family="Chalkboard" >
as, </text>
<text x="0" y="0" stroke="none" fill="#0000ff" transform="matrix(0.05 0 0 0.05 894.266 168.102)" font-style="normal" font-weight="normal" font-size="280px" font-family="Chalkboard" >
one </text>
<text x="0" y="0" stroke="none" fill="#0000ff" transform="matrix(0.05 0 0 0.05 921.524 168.102)" font-style="normal" font-weight="normal" font-size="280px" font-family="Chalkboard" >
as </text>
<text x="0" y="0" stroke="none" fill="#0000ff" transform="matrix(0.05 0 0 0.05 940.582 168.102)" font-style="normal" font-weight="normal" font-size="280px" font-family="Chalkboard" >
the </text>
<text x="0" y="0" stroke="none" fill="#0000ff" transform="matrix(0.05 0 0 0.05 967.314 168.102)" font-style="normal" font-weight="normal" font-size="280px" font-family="Chalkboard" >
nucleophile </text>
<text x="0" y="0" stroke="none" fill="#0000ff" transform="matrix(0.05 0 0 0.05 1042.05 168.102)" font-style="normal" font-weight="normal" font-size="280px" font-family="Chalkboard" >
and </text>
<text x="0" y="0" stroke="none" fill="#0000ff" transform="matrix(0.05 0 0 0.05 577.062 188.547)" font-style="normal" font-weight="normal" font-size="280px" font-family="Chalkboard" >
one </text>
<text x="0" y="0" stroke="none" fill="#0000ff" transform="matrix(0.05 0 0 0.05 604.319 188.547)" font-style="normal" font-weight="normal" font-size="280px" font-family="Chalkboard" >
as </text>
<text x="0" y="0" stroke="none" fill="#0000ff" transform="matrix(0.05 0 0 0.05 623.378 188.547)" font-style="normal" font-weight="normal" font-size="280px" font-family="Chalkboard" >
a </text>
<text x="0" y="0" stroke="none" fill="#0000ff" transform="matrix(0.05 0 0 0.05 636.233 188.547)" font-style="normal" font-weight="normal" font-size="280px" font-family="Chalkboard" >
base </text>
<text x="0" y="0" stroke="none" fill="#0000ff" transform="matrix(0.05 0 0 0.05 670.158 188.547)" font-style="normal" font-weight="normal" font-size="280px" font-family="Chalkboard" >
to </text>
<text x="0" y="0" stroke="none" fill="#0000ff" transform="matrix(0.05 0 0 0.05 688.118 188.547)" font-style="normal" font-weight="normal" font-size="280px" font-family="Chalkboard" >
neutralize </text>
<text x="0" y="0" stroke="none" fill="#0000ff" transform="matrix(0.05 0 0 0.05 755.009 188.547)" font-style="normal" font-weight="normal" font-size="280px" font-family="Chalkboard" >
the </text>
<text x="0" y="0" stroke="none" fill="#0000ff" transform="matrix(0.05 0 0 0.05 781.74 188.547)" font-style="normal" font-weight="normal" font-size="280px" font-family="Chalkboard" >
HCl </text>
<text x="0" y="0" stroke="none" fill="#0000ff" transform="matrix(0.05 0 0 0.05 808.224 188.547)" font-style="normal" font-weight="normal" font-size="280px" font-family="Chalkboard" >
or </text>
<text x="0" y="0" stroke="none" fill="#0000ff" transform="matrix(0.05 0 0 0.05 826.742 188.547)" font-style="normal" font-weight="normal" font-size="280px" font-family="Chalkboard" >
RCOOH </text>
<text x="0" y="0" stroke="none" fill="#0000ff" transform="matrix(0.05 0 0 0.05 877.374 188.547)" font-style="normal" font-weight="normal" font-size="280px" font-family="Chalkboard" >
byproduct</text>
<path stroke="none" fill="#0000ff" transform="matrix(0.05 0 0 0.05 -57 -88)" d="M 10750.2,3205.76 L 8145.63,4649.24 L 8129.63,4621.24 L 10734.2,3177.76 Z " />
<path stroke="none" fill="#0000ff" transform="matrix(0.05 0 0 0.05 -57 -88)" d="M 7893.6,4770.48 C 7893.6,4770.48 8213.27,4686.33 8213.27,4686.33 C 8213.27,4686.33 8155.91,4665.8 8138.5,4634.75 C 8121.1,4603.7 8133.71,4544.39 8133.71,4544.39 C 8133.71,4544.39 7893.6,4770.48 7893.6,4770.48 C 7893.6,4770.48 7893.6,4770.48 7893.6,4770.48 " />
<path stroke="#0000ff" stroke-width="1" fill="none" transform="matrix(0.05 0 0 0.05 -57 -88)" d="M 7893.6,4770.48 C 7893.6,4770.48 8213.27,4686.33 8213.27,4686.33 C 8213.27,4686.33 8155.91,4665.8 8138.5,4634.75 C 8121.1,4603.7 8133.71,4544.39 8133.71,4544.39 C 8133.71,4544.39 7893.6,4770.48 7893.6,4770.48 C 7893.6,4770.48 7893.6,4770.48 7893.6,4770.48 " />
<text x="0" y="0" stroke="none" fill="#0000ff" transform="matrix(0.043731 -0.0242405 0.0242405 0.043731 364.513 151.279)" font-style="normal" font-weight="normal" font-size="280px" font-family="Chalkboard" >
ROH </text>
<text x="0" y="0" stroke="none" fill="#0000ff" transform="matrix(0.043731 -0.0242405 0.0242405 0.043731 393.102 135.432)" font-style="normal" font-weight="normal" font-size="280px" font-family="Chalkboard" >
+ </text>
<text x="0" y="0" stroke="none" fill="#0000ff" transform="matrix(0.043731 -0.0242405 0.0242405 0.043731 404.386 129.177)" font-style="normal" font-weight="normal" font-size="280px" font-family="Chalkboard" >
conc. </text>
<text x="0" y="0" stroke="none" fill="#0000ff" transform="matrix(0.043731 -0.0242405 0.0242405 0.043731 435.681 111.83)" font-style="normal" font-weight="normal" font-size="280px" font-family="Chalkboard" >
H</text>
<text x="0" y="0" stroke="none" fill="#0000ff" transform="matrix(0.043731 -0.0242405 0.0242405 0.043731 445.218 111.071)" font-style="normal" font-weight="normal" font-size="210px" font-family="Chalkboard" >
2</text>
<text x="0" y="0" stroke="none" fill="#0000ff" transform="matrix(0.043731 -0.0242405 0.0242405 0.043731 448.524 104.711)" font-style="normal" font-weight="normal" font-size="280px" font-family="Chalkboard" >
SO</text>
<text x="0" y="0" stroke="none" fill="#0000ff" transform="matrix(0.043731 -0.0242405 0.0242405 0.043731 466.531 99.2571)" font-style="normal" font-weight="normal" font-size="210px" font-family="Chalkboard" >
4</text>
<path stroke="none" fill="#0000ff" transform="matrix(0.05 0 0 0.05 -57 -88)" d="M 10281.9,2828.09 L 5545.68,3687.74 L 5539.68,3656.74 L 10275.9,2797.09 Z " />
<path stroke="none" fill="#0000ff" transform="matrix(0.05 0 0 0.05 -57 -88)" d="M 10553.4,2762.76 C 10553.4,2762.76 10253.8,2899.62 10253.8,2899.62 C 10253.8,2899.62 10284.6,2847.64 10277.9,2812.76 C 10271.2,2777.89 10223.3,2740.19 10223.3,2740.19 C 10223.3,2740.19 10553.4,2762.76 10553.4,2762.76 C 10553.4,2762.76 10553.4,2762.76 10553.4,2762.76 " />
<path stroke="#0000ff" stroke-width="1" fill="none" transform="matrix(0.05 0 0 0.05 -57 -88)" d="M 10553.4,2762.76 C 10553.4,2762.76 10253.8,2899.62 10253.8,2899.62 C 10253.8,2899.62 10284.6,2847.64 10277.9,2812.76 C 10271.2,2777.89 10223.3,2740.19 10223.3,2740.19 C 10223.3,2740.19 10553.4,2762.76 10553.4,2762.76 C 10553.4,2762.76 10553.4,2762.76 10553.4,2762.76 " />
<text x="0" y="0" stroke="none" fill="#0000ff" transform="matrix(0.0493844 -0.00782172 0.00782172 0.0493844 307.137 74.9535)" font-style="normal" font-weight="normal" font-size="280px" font-family="Chalkboard" >
dil. </text>
<text x="0" y="0" stroke="none" fill="#0000ff" transform="matrix(0.0493844 -0.00782172 0.00782172 0.0493844 329.307 71.4421)" font-style="normal" font-weight="normal" font-size="280px" font-family="Chalkboard" >
H</text>
<text x="0" y="0" stroke="none" fill="#0000ff" transform="matrix(0.0493844 -0.00782172 0.00782172 0.0493844 337.154 65.3126)" font-style="normal" font-weight="normal" font-size="210px" font-family="Chalkboard" >
+</text>
<path stroke="none" fill="#0000ff" transform="matrix(0.05 0 0 0.05 -57 -88)" d="M 10377.4,2349.76 L 2676.96,2349.76 L 2676.96,2317.76 L 10377.4,2317.76 Z " />
<path stroke="none" fill="#0000ff" transform="matrix(0.05 0 0 0.05 -57 -88)" d="M 10656.4,2333.76 C 10656.4,2333.76 10336.4,2414.76 10336.4,2414.76 C 10336.4,2414.76 10376.4,2369.2 10376.4,2333.76 C 10376.4,2297.89 10336.4,2251.76 10336.4,2251.76 C 10336.4,2251.76 10656.4,2333.76 10656.4,2333.76 C 10656.4,2333.76 10656.4,2333.76 10656.4,2333.76 " />
<path stroke="#0000ff" stroke-width="1" fill="none" transform="matrix(0.05 0 0 0.05 -57 -88)" d="M 10656.4,2333.76 C 10656.4,2333.76 10336.4,2414.76 10336.4,2414.76 C 10336.4,2414.76 10376.4,2369.2 10376.4,2333.76 C 10376.4,2297.89 10336.4,2251.76 10336.4,2251.76 C 10336.4,2251.76 10656.4,2333.76 10656.4,2333.76 C 10656.4,2333.76 10656.4,2333.76 10656.4,2333.76 " />
<text x="0" y="0" stroke="none" fill="#0000ff" transform="matrix(0.05 0 0 0.05 231.038 25.6176)" font-style="normal" font-weight="normal" font-size="280px" font-family="Chalkboard" >
dil. </text>
<text x="0" y="0" stroke="none" fill="#0000ff" transform="matrix(0.05 0 0 0.05 253.484 25.6176)" font-style="normal" font-weight="normal" font-size="280px" font-family="Chalkboard" >
H</text>
<text x="0" y="0" stroke="none" fill="#0000ff" transform="matrix(0.05 0 0 0.05 262.194 20.791)" font-style="normal" font-weight="normal" font-size="210px" font-family="Chalkboard" >
+</text>
<text x="0" y="0" stroke="none" fill="#0000ff" transform="matrix(0.05 0 0 0.05 153.736 231.176)" font-style="normal" font-weight="normal" font-size="280px" font-family="Chalkboard" >
2eq. </text>
<text x="0" y="0" stroke="none" fill="#0000ff" transform="matrix(0.05 0 0 0.05 185.015 231.176)" font-style="normal" font-weight="normal" font-size="280px" font-family="Chalkboard" >
RNH</text>
<text x="0" y="0" stroke="none" fill="#0000ff" transform="matrix(0.05 0 0 0.05 211.654 235.136)" font-style="normal" font-weight="normal" font-size="210px" font-family="Chalkboard" >
2</text>
<text x="0" y="0" stroke="none" fill="#0000ff" transform="matrix(0.05 0 0 0.05 263.56 233.75)" font-style="normal" font-weight="normal" font-size="280px" font-family="Chalkboard" >
2 </text>
<text x="0" y="0" stroke="none" fill="#0000ff" transform="matrix(0.05 0 0 0.05 276.879 233.75)" font-style="normal" font-weight="normal" font-size="280px" font-family="Chalkboard" >
equi.</text>
</svg>
